%TF.GenerationSoftware,KiCad,Pcbnew,8.0.1*%
%TF.CreationDate,2024-05-04T10:24:18+02:00*%
%TF.ProjectId,Marconi_2955_Step_Attenuator,4d617263-6f6e-4695-9f32-3935355f5374,rev?*%
%TF.SameCoordinates,Original*%
%TF.FileFunction,Legend,Top*%
%TF.FilePolarity,Positive*%
%FSLAX46Y46*%
G04 Gerber Fmt 4.6, Leading zero omitted, Abs format (unit mm)*
G04 Created by KiCad (PCBNEW 8.0.1) date 2024-05-04 10:24:18*
%MOMM*%
%LPD*%
G01*
G04 APERTURE LIST*
%ADD10C,0.100000*%
%ADD11C,0.150000*%
%ADD12C,0.120000*%
%ADD13C,0.010000*%
G04 APERTURE END LIST*
D10*
X108873027Y-49164419D02*
X109206360Y-50164419D01*
X109206360Y-50164419D02*
X109539693Y-49164419D01*
X110396836Y-50164419D02*
X109825408Y-50164419D01*
X110111122Y-50164419D02*
X110111122Y-49164419D01*
X110111122Y-49164419D02*
X110015884Y-49307276D01*
X110015884Y-49307276D02*
X109920646Y-49402514D01*
X109920646Y-49402514D02*
X109825408Y-49450133D01*
X110825408Y-50069180D02*
X110873027Y-50116800D01*
X110873027Y-50116800D02*
X110825408Y-50164419D01*
X110825408Y-50164419D02*
X110777789Y-50116800D01*
X110777789Y-50116800D02*
X110825408Y-50069180D01*
X110825408Y-50069180D02*
X110825408Y-50164419D01*
X111206360Y-49164419D02*
X111825407Y-49164419D01*
X111825407Y-49164419D02*
X111492074Y-49545371D01*
X111492074Y-49545371D02*
X111634931Y-49545371D01*
X111634931Y-49545371D02*
X111730169Y-49592990D01*
X111730169Y-49592990D02*
X111777788Y-49640609D01*
X111777788Y-49640609D02*
X111825407Y-49735847D01*
X111825407Y-49735847D02*
X111825407Y-49973942D01*
X111825407Y-49973942D02*
X111777788Y-50069180D01*
X111777788Y-50069180D02*
X111730169Y-50116800D01*
X111730169Y-50116800D02*
X111634931Y-50164419D01*
X111634931Y-50164419D02*
X111349217Y-50164419D01*
X111349217Y-50164419D02*
X111253979Y-50116800D01*
X111253979Y-50116800D02*
X111206360Y-50069180D01*
X108761884Y-33654419D02*
X108761884Y-32654419D01*
X108761884Y-32654419D02*
X109095217Y-33368704D01*
X109095217Y-33368704D02*
X109428550Y-32654419D01*
X109428550Y-32654419D02*
X109428550Y-33654419D01*
X110333312Y-33654419D02*
X110333312Y-33130609D01*
X110333312Y-33130609D02*
X110285693Y-33035371D01*
X110285693Y-33035371D02*
X110190455Y-32987752D01*
X110190455Y-32987752D02*
X109999979Y-32987752D01*
X109999979Y-32987752D02*
X109904741Y-33035371D01*
X110333312Y-33606800D02*
X110238074Y-33654419D01*
X110238074Y-33654419D02*
X109999979Y-33654419D01*
X109999979Y-33654419D02*
X109904741Y-33606800D01*
X109904741Y-33606800D02*
X109857122Y-33511561D01*
X109857122Y-33511561D02*
X109857122Y-33416323D01*
X109857122Y-33416323D02*
X109904741Y-33321085D01*
X109904741Y-33321085D02*
X109999979Y-33273466D01*
X109999979Y-33273466D02*
X110238074Y-33273466D01*
X110238074Y-33273466D02*
X110333312Y-33225847D01*
X110809503Y-33654419D02*
X110809503Y-32987752D01*
X110809503Y-33178228D02*
X110857122Y-33082990D01*
X110857122Y-33082990D02*
X110904741Y-33035371D01*
X110904741Y-33035371D02*
X110999979Y-32987752D01*
X110999979Y-32987752D02*
X111095217Y-32987752D01*
X111857122Y-33606800D02*
X111761884Y-33654419D01*
X111761884Y-33654419D02*
X111571408Y-33654419D01*
X111571408Y-33654419D02*
X111476170Y-33606800D01*
X111476170Y-33606800D02*
X111428551Y-33559180D01*
X111428551Y-33559180D02*
X111380932Y-33463942D01*
X111380932Y-33463942D02*
X111380932Y-33178228D01*
X111380932Y-33178228D02*
X111428551Y-33082990D01*
X111428551Y-33082990D02*
X111476170Y-33035371D01*
X111476170Y-33035371D02*
X111571408Y-32987752D01*
X111571408Y-32987752D02*
X111761884Y-32987752D01*
X111761884Y-32987752D02*
X111857122Y-33035371D01*
X112428551Y-33654419D02*
X112333313Y-33606800D01*
X112333313Y-33606800D02*
X112285694Y-33559180D01*
X112285694Y-33559180D02*
X112238075Y-33463942D01*
X112238075Y-33463942D02*
X112238075Y-33178228D01*
X112238075Y-33178228D02*
X112285694Y-33082990D01*
X112285694Y-33082990D02*
X112333313Y-33035371D01*
X112333313Y-33035371D02*
X112428551Y-32987752D01*
X112428551Y-32987752D02*
X112571408Y-32987752D01*
X112571408Y-32987752D02*
X112666646Y-33035371D01*
X112666646Y-33035371D02*
X112714265Y-33082990D01*
X112714265Y-33082990D02*
X112761884Y-33178228D01*
X112761884Y-33178228D02*
X112761884Y-33463942D01*
X112761884Y-33463942D02*
X112714265Y-33559180D01*
X112714265Y-33559180D02*
X112666646Y-33606800D01*
X112666646Y-33606800D02*
X112571408Y-33654419D01*
X112571408Y-33654419D02*
X112428551Y-33654419D01*
X113190456Y-32987752D02*
X113190456Y-33654419D01*
X113190456Y-33082990D02*
X113238075Y-33035371D01*
X113238075Y-33035371D02*
X113333313Y-32987752D01*
X113333313Y-32987752D02*
X113476170Y-32987752D01*
X113476170Y-32987752D02*
X113571408Y-33035371D01*
X113571408Y-33035371D02*
X113619027Y-33130609D01*
X113619027Y-33130609D02*
X113619027Y-33654419D01*
X114095218Y-33654419D02*
X114095218Y-32987752D01*
X114095218Y-32654419D02*
X114047599Y-32702038D01*
X114047599Y-32702038D02*
X114095218Y-32749657D01*
X114095218Y-32749657D02*
X114142837Y-32702038D01*
X114142837Y-32702038D02*
X114095218Y-32654419D01*
X114095218Y-32654419D02*
X114095218Y-32749657D01*
X115285694Y-32749657D02*
X115333313Y-32702038D01*
X115333313Y-32702038D02*
X115428551Y-32654419D01*
X115428551Y-32654419D02*
X115666646Y-32654419D01*
X115666646Y-32654419D02*
X115761884Y-32702038D01*
X115761884Y-32702038D02*
X115809503Y-32749657D01*
X115809503Y-32749657D02*
X115857122Y-32844895D01*
X115857122Y-32844895D02*
X115857122Y-32940133D01*
X115857122Y-32940133D02*
X115809503Y-33082990D01*
X115809503Y-33082990D02*
X115238075Y-33654419D01*
X115238075Y-33654419D02*
X115857122Y-33654419D01*
X116333313Y-33654419D02*
X116523789Y-33654419D01*
X116523789Y-33654419D02*
X116619027Y-33606800D01*
X116619027Y-33606800D02*
X116666646Y-33559180D01*
X116666646Y-33559180D02*
X116761884Y-33416323D01*
X116761884Y-33416323D02*
X116809503Y-33225847D01*
X116809503Y-33225847D02*
X116809503Y-32844895D01*
X116809503Y-32844895D02*
X116761884Y-32749657D01*
X116761884Y-32749657D02*
X116714265Y-32702038D01*
X116714265Y-32702038D02*
X116619027Y-32654419D01*
X116619027Y-32654419D02*
X116428551Y-32654419D01*
X116428551Y-32654419D02*
X116333313Y-32702038D01*
X116333313Y-32702038D02*
X116285694Y-32749657D01*
X116285694Y-32749657D02*
X116238075Y-32844895D01*
X116238075Y-32844895D02*
X116238075Y-33082990D01*
X116238075Y-33082990D02*
X116285694Y-33178228D01*
X116285694Y-33178228D02*
X116333313Y-33225847D01*
X116333313Y-33225847D02*
X116428551Y-33273466D01*
X116428551Y-33273466D02*
X116619027Y-33273466D01*
X116619027Y-33273466D02*
X116714265Y-33225847D01*
X116714265Y-33225847D02*
X116761884Y-33178228D01*
X116761884Y-33178228D02*
X116809503Y-33082990D01*
X117714265Y-32654419D02*
X117238075Y-32654419D01*
X117238075Y-32654419D02*
X117190456Y-33130609D01*
X117190456Y-33130609D02*
X117238075Y-33082990D01*
X117238075Y-33082990D02*
X117333313Y-33035371D01*
X117333313Y-33035371D02*
X117571408Y-33035371D01*
X117571408Y-33035371D02*
X117666646Y-33082990D01*
X117666646Y-33082990D02*
X117714265Y-33130609D01*
X117714265Y-33130609D02*
X117761884Y-33225847D01*
X117761884Y-33225847D02*
X117761884Y-33463942D01*
X117761884Y-33463942D02*
X117714265Y-33559180D01*
X117714265Y-33559180D02*
X117666646Y-33606800D01*
X117666646Y-33606800D02*
X117571408Y-33654419D01*
X117571408Y-33654419D02*
X117333313Y-33654419D01*
X117333313Y-33654419D02*
X117238075Y-33606800D01*
X117238075Y-33606800D02*
X117190456Y-33559180D01*
X118666646Y-32654419D02*
X118190456Y-32654419D01*
X118190456Y-32654419D02*
X118142837Y-33130609D01*
X118142837Y-33130609D02*
X118190456Y-33082990D01*
X118190456Y-33082990D02*
X118285694Y-33035371D01*
X118285694Y-33035371D02*
X118523789Y-33035371D01*
X118523789Y-33035371D02*
X118619027Y-33082990D01*
X118619027Y-33082990D02*
X118666646Y-33130609D01*
X118666646Y-33130609D02*
X118714265Y-33225847D01*
X118714265Y-33225847D02*
X118714265Y-33463942D01*
X118714265Y-33463942D02*
X118666646Y-33559180D01*
X118666646Y-33559180D02*
X118619027Y-33606800D01*
X118619027Y-33606800D02*
X118523789Y-33654419D01*
X118523789Y-33654419D02*
X118285694Y-33654419D01*
X118285694Y-33654419D02*
X118190456Y-33606800D01*
X118190456Y-33606800D02*
X118142837Y-33559180D01*
X119857123Y-33606800D02*
X119999980Y-33654419D01*
X119999980Y-33654419D02*
X120238075Y-33654419D01*
X120238075Y-33654419D02*
X120333313Y-33606800D01*
X120333313Y-33606800D02*
X120380932Y-33559180D01*
X120380932Y-33559180D02*
X120428551Y-33463942D01*
X120428551Y-33463942D02*
X120428551Y-33368704D01*
X120428551Y-33368704D02*
X120380932Y-33273466D01*
X120380932Y-33273466D02*
X120333313Y-33225847D01*
X120333313Y-33225847D02*
X120238075Y-33178228D01*
X120238075Y-33178228D02*
X120047599Y-33130609D01*
X120047599Y-33130609D02*
X119952361Y-33082990D01*
X119952361Y-33082990D02*
X119904742Y-33035371D01*
X119904742Y-33035371D02*
X119857123Y-32940133D01*
X119857123Y-32940133D02*
X119857123Y-32844895D01*
X119857123Y-32844895D02*
X119904742Y-32749657D01*
X119904742Y-32749657D02*
X119952361Y-32702038D01*
X119952361Y-32702038D02*
X120047599Y-32654419D01*
X120047599Y-32654419D02*
X120285694Y-32654419D01*
X120285694Y-32654419D02*
X120428551Y-32702038D01*
X120714266Y-32987752D02*
X121095218Y-32987752D01*
X120857123Y-32654419D02*
X120857123Y-33511561D01*
X120857123Y-33511561D02*
X120904742Y-33606800D01*
X120904742Y-33606800D02*
X120999980Y-33654419D01*
X120999980Y-33654419D02*
X121095218Y-33654419D01*
X121809504Y-33606800D02*
X121714266Y-33654419D01*
X121714266Y-33654419D02*
X121523790Y-33654419D01*
X121523790Y-33654419D02*
X121428552Y-33606800D01*
X121428552Y-33606800D02*
X121380933Y-33511561D01*
X121380933Y-33511561D02*
X121380933Y-33130609D01*
X121380933Y-33130609D02*
X121428552Y-33035371D01*
X121428552Y-33035371D02*
X121523790Y-32987752D01*
X121523790Y-32987752D02*
X121714266Y-32987752D01*
X121714266Y-32987752D02*
X121809504Y-33035371D01*
X121809504Y-33035371D02*
X121857123Y-33130609D01*
X121857123Y-33130609D02*
X121857123Y-33225847D01*
X121857123Y-33225847D02*
X121380933Y-33321085D01*
X122285695Y-32987752D02*
X122285695Y-33987752D01*
X122285695Y-33035371D02*
X122380933Y-32987752D01*
X122380933Y-32987752D02*
X122571409Y-32987752D01*
X122571409Y-32987752D02*
X122666647Y-33035371D01*
X122666647Y-33035371D02*
X122714266Y-33082990D01*
X122714266Y-33082990D02*
X122761885Y-33178228D01*
X122761885Y-33178228D02*
X122761885Y-33463942D01*
X122761885Y-33463942D02*
X122714266Y-33559180D01*
X122714266Y-33559180D02*
X122666647Y-33606800D01*
X122666647Y-33606800D02*
X122571409Y-33654419D01*
X122571409Y-33654419D02*
X122380933Y-33654419D01*
X122380933Y-33654419D02*
X122285695Y-33606800D01*
X123904743Y-33368704D02*
X124380933Y-33368704D01*
X123809505Y-33654419D02*
X124142838Y-32654419D01*
X124142838Y-32654419D02*
X124476171Y-33654419D01*
X124666648Y-32987752D02*
X125047600Y-32987752D01*
X124809505Y-32654419D02*
X124809505Y-33511561D01*
X124809505Y-33511561D02*
X124857124Y-33606800D01*
X124857124Y-33606800D02*
X124952362Y-33654419D01*
X124952362Y-33654419D02*
X125047600Y-33654419D01*
X125238077Y-32987752D02*
X125619029Y-32987752D01*
X125380934Y-32654419D02*
X125380934Y-33511561D01*
X125380934Y-33511561D02*
X125428553Y-33606800D01*
X125428553Y-33606800D02*
X125523791Y-33654419D01*
X125523791Y-33654419D02*
X125619029Y-33654419D01*
X126333315Y-33606800D02*
X126238077Y-33654419D01*
X126238077Y-33654419D02*
X126047601Y-33654419D01*
X126047601Y-33654419D02*
X125952363Y-33606800D01*
X125952363Y-33606800D02*
X125904744Y-33511561D01*
X125904744Y-33511561D02*
X125904744Y-33130609D01*
X125904744Y-33130609D02*
X125952363Y-33035371D01*
X125952363Y-33035371D02*
X126047601Y-32987752D01*
X126047601Y-32987752D02*
X126238077Y-32987752D01*
X126238077Y-32987752D02*
X126333315Y-33035371D01*
X126333315Y-33035371D02*
X126380934Y-33130609D01*
X126380934Y-33130609D02*
X126380934Y-33225847D01*
X126380934Y-33225847D02*
X125904744Y-33321085D01*
X126809506Y-32987752D02*
X126809506Y-33654419D01*
X126809506Y-33082990D02*
X126857125Y-33035371D01*
X126857125Y-33035371D02*
X126952363Y-32987752D01*
X126952363Y-32987752D02*
X127095220Y-32987752D01*
X127095220Y-32987752D02*
X127190458Y-33035371D01*
X127190458Y-33035371D02*
X127238077Y-33130609D01*
X127238077Y-33130609D02*
X127238077Y-33654419D01*
X128142839Y-32987752D02*
X128142839Y-33654419D01*
X127714268Y-32987752D02*
X127714268Y-33511561D01*
X127714268Y-33511561D02*
X127761887Y-33606800D01*
X127761887Y-33606800D02*
X127857125Y-33654419D01*
X127857125Y-33654419D02*
X127999982Y-33654419D01*
X127999982Y-33654419D02*
X128095220Y-33606800D01*
X128095220Y-33606800D02*
X128142839Y-33559180D01*
X129047601Y-33654419D02*
X129047601Y-33130609D01*
X129047601Y-33130609D02*
X128999982Y-33035371D01*
X128999982Y-33035371D02*
X128904744Y-32987752D01*
X128904744Y-32987752D02*
X128714268Y-32987752D01*
X128714268Y-32987752D02*
X128619030Y-33035371D01*
X129047601Y-33606800D02*
X128952363Y-33654419D01*
X128952363Y-33654419D02*
X128714268Y-33654419D01*
X128714268Y-33654419D02*
X128619030Y-33606800D01*
X128619030Y-33606800D02*
X128571411Y-33511561D01*
X128571411Y-33511561D02*
X128571411Y-33416323D01*
X128571411Y-33416323D02*
X128619030Y-33321085D01*
X128619030Y-33321085D02*
X128714268Y-33273466D01*
X128714268Y-33273466D02*
X128952363Y-33273466D01*
X128952363Y-33273466D02*
X129047601Y-33225847D01*
X129380935Y-32987752D02*
X129761887Y-32987752D01*
X129523792Y-32654419D02*
X129523792Y-33511561D01*
X129523792Y-33511561D02*
X129571411Y-33606800D01*
X129571411Y-33606800D02*
X129666649Y-33654419D01*
X129666649Y-33654419D02*
X129761887Y-33654419D01*
X130238078Y-33654419D02*
X130142840Y-33606800D01*
X130142840Y-33606800D02*
X130095221Y-33559180D01*
X130095221Y-33559180D02*
X130047602Y-33463942D01*
X130047602Y-33463942D02*
X130047602Y-33178228D01*
X130047602Y-33178228D02*
X130095221Y-33082990D01*
X130095221Y-33082990D02*
X130142840Y-33035371D01*
X130142840Y-33035371D02*
X130238078Y-32987752D01*
X130238078Y-32987752D02*
X130380935Y-32987752D01*
X130380935Y-32987752D02*
X130476173Y-33035371D01*
X130476173Y-33035371D02*
X130523792Y-33082990D01*
X130523792Y-33082990D02*
X130571411Y-33178228D01*
X130571411Y-33178228D02*
X130571411Y-33463942D01*
X130571411Y-33463942D02*
X130523792Y-33559180D01*
X130523792Y-33559180D02*
X130476173Y-33606800D01*
X130476173Y-33606800D02*
X130380935Y-33654419D01*
X130380935Y-33654419D02*
X130238078Y-33654419D01*
X130999983Y-33654419D02*
X130999983Y-32987752D01*
X130999983Y-33178228D02*
X131047602Y-33082990D01*
X131047602Y-33082990D02*
X131095221Y-33035371D01*
X131095221Y-33035371D02*
X131190459Y-32987752D01*
X131190459Y-32987752D02*
X131285697Y-32987752D01*
X132333317Y-33368704D02*
X132809507Y-33368704D01*
X132238079Y-33654419D02*
X132571412Y-32654419D01*
X132571412Y-32654419D02*
X132904745Y-33654419D01*
X133095222Y-32654419D02*
X133666650Y-32654419D01*
X133380936Y-33654419D02*
X133380936Y-32654419D01*
X134523793Y-33654419D02*
X133952365Y-33654419D01*
X134238079Y-33654419D02*
X134238079Y-32654419D01*
X134238079Y-32654419D02*
X134142841Y-32797276D01*
X134142841Y-32797276D02*
X134047603Y-32892514D01*
X134047603Y-32892514D02*
X133952365Y-32940133D01*
X136285698Y-33654419D02*
X135952365Y-33178228D01*
X135714270Y-33654419D02*
X135714270Y-32654419D01*
X135714270Y-32654419D02*
X136095222Y-32654419D01*
X136095222Y-32654419D02*
X136190460Y-32702038D01*
X136190460Y-32702038D02*
X136238079Y-32749657D01*
X136238079Y-32749657D02*
X136285698Y-32844895D01*
X136285698Y-32844895D02*
X136285698Y-32987752D01*
X136285698Y-32987752D02*
X136238079Y-33082990D01*
X136238079Y-33082990D02*
X136190460Y-33130609D01*
X136190460Y-33130609D02*
X136095222Y-33178228D01*
X136095222Y-33178228D02*
X135714270Y-33178228D01*
X137095222Y-33606800D02*
X136999984Y-33654419D01*
X136999984Y-33654419D02*
X136809508Y-33654419D01*
X136809508Y-33654419D02*
X136714270Y-33606800D01*
X136714270Y-33606800D02*
X136666651Y-33511561D01*
X136666651Y-33511561D02*
X136666651Y-33130609D01*
X136666651Y-33130609D02*
X136714270Y-33035371D01*
X136714270Y-33035371D02*
X136809508Y-32987752D01*
X136809508Y-32987752D02*
X136999984Y-32987752D01*
X136999984Y-32987752D02*
X137095222Y-33035371D01*
X137095222Y-33035371D02*
X137142841Y-33130609D01*
X137142841Y-33130609D02*
X137142841Y-33225847D01*
X137142841Y-33225847D02*
X136666651Y-33321085D01*
X137571413Y-32987752D02*
X137571413Y-33987752D01*
X137571413Y-33035371D02*
X137666651Y-32987752D01*
X137666651Y-32987752D02*
X137857127Y-32987752D01*
X137857127Y-32987752D02*
X137952365Y-33035371D01*
X137952365Y-33035371D02*
X137999984Y-33082990D01*
X137999984Y-33082990D02*
X138047603Y-33178228D01*
X138047603Y-33178228D02*
X138047603Y-33463942D01*
X138047603Y-33463942D02*
X137999984Y-33559180D01*
X137999984Y-33559180D02*
X137952365Y-33606800D01*
X137952365Y-33606800D02*
X137857127Y-33654419D01*
X137857127Y-33654419D02*
X137666651Y-33654419D01*
X137666651Y-33654419D02*
X137571413Y-33606800D01*
X138619032Y-33654419D02*
X138523794Y-33606800D01*
X138523794Y-33606800D02*
X138476175Y-33511561D01*
X138476175Y-33511561D02*
X138476175Y-32654419D01*
X139428556Y-33654419D02*
X139428556Y-33130609D01*
X139428556Y-33130609D02*
X139380937Y-33035371D01*
X139380937Y-33035371D02*
X139285699Y-32987752D01*
X139285699Y-32987752D02*
X139095223Y-32987752D01*
X139095223Y-32987752D02*
X138999985Y-33035371D01*
X139428556Y-33606800D02*
X139333318Y-33654419D01*
X139333318Y-33654419D02*
X139095223Y-33654419D01*
X139095223Y-33654419D02*
X138999985Y-33606800D01*
X138999985Y-33606800D02*
X138952366Y-33511561D01*
X138952366Y-33511561D02*
X138952366Y-33416323D01*
X138952366Y-33416323D02*
X138999985Y-33321085D01*
X138999985Y-33321085D02*
X139095223Y-33273466D01*
X139095223Y-33273466D02*
X139333318Y-33273466D01*
X139333318Y-33273466D02*
X139428556Y-33225847D01*
X140333318Y-33606800D02*
X140238080Y-33654419D01*
X140238080Y-33654419D02*
X140047604Y-33654419D01*
X140047604Y-33654419D02*
X139952366Y-33606800D01*
X139952366Y-33606800D02*
X139904747Y-33559180D01*
X139904747Y-33559180D02*
X139857128Y-33463942D01*
X139857128Y-33463942D02*
X139857128Y-33178228D01*
X139857128Y-33178228D02*
X139904747Y-33082990D01*
X139904747Y-33082990D02*
X139952366Y-33035371D01*
X139952366Y-33035371D02*
X140047604Y-32987752D01*
X140047604Y-32987752D02*
X140238080Y-32987752D01*
X140238080Y-32987752D02*
X140333318Y-33035371D01*
X141142842Y-33606800D02*
X141047604Y-33654419D01*
X141047604Y-33654419D02*
X140857128Y-33654419D01*
X140857128Y-33654419D02*
X140761890Y-33606800D01*
X140761890Y-33606800D02*
X140714271Y-33511561D01*
X140714271Y-33511561D02*
X140714271Y-33130609D01*
X140714271Y-33130609D02*
X140761890Y-33035371D01*
X140761890Y-33035371D02*
X140857128Y-32987752D01*
X140857128Y-32987752D02*
X141047604Y-32987752D01*
X141047604Y-32987752D02*
X141142842Y-33035371D01*
X141142842Y-33035371D02*
X141190461Y-33130609D01*
X141190461Y-33130609D02*
X141190461Y-33225847D01*
X141190461Y-33225847D02*
X140714271Y-33321085D01*
X141619033Y-33654419D02*
X141619033Y-32987752D01*
X141619033Y-33082990D02*
X141666652Y-33035371D01*
X141666652Y-33035371D02*
X141761890Y-32987752D01*
X141761890Y-32987752D02*
X141904747Y-32987752D01*
X141904747Y-32987752D02*
X141999985Y-33035371D01*
X141999985Y-33035371D02*
X142047604Y-33130609D01*
X142047604Y-33130609D02*
X142047604Y-33654419D01*
X142047604Y-33130609D02*
X142095223Y-33035371D01*
X142095223Y-33035371D02*
X142190461Y-32987752D01*
X142190461Y-32987752D02*
X142333318Y-32987752D01*
X142333318Y-32987752D02*
X142428557Y-33035371D01*
X142428557Y-33035371D02*
X142476176Y-33130609D01*
X142476176Y-33130609D02*
X142476176Y-33654419D01*
X143333318Y-33606800D02*
X143238080Y-33654419D01*
X143238080Y-33654419D02*
X143047604Y-33654419D01*
X143047604Y-33654419D02*
X142952366Y-33606800D01*
X142952366Y-33606800D02*
X142904747Y-33511561D01*
X142904747Y-33511561D02*
X142904747Y-33130609D01*
X142904747Y-33130609D02*
X142952366Y-33035371D01*
X142952366Y-33035371D02*
X143047604Y-32987752D01*
X143047604Y-32987752D02*
X143238080Y-32987752D01*
X143238080Y-32987752D02*
X143333318Y-33035371D01*
X143333318Y-33035371D02*
X143380937Y-33130609D01*
X143380937Y-33130609D02*
X143380937Y-33225847D01*
X143380937Y-33225847D02*
X142904747Y-33321085D01*
X143809509Y-32987752D02*
X143809509Y-33654419D01*
X143809509Y-33082990D02*
X143857128Y-33035371D01*
X143857128Y-33035371D02*
X143952366Y-32987752D01*
X143952366Y-32987752D02*
X144095223Y-32987752D01*
X144095223Y-32987752D02*
X144190461Y-33035371D01*
X144190461Y-33035371D02*
X144238080Y-33130609D01*
X144238080Y-33130609D02*
X144238080Y-33654419D01*
X144571414Y-32987752D02*
X144952366Y-32987752D01*
X144714271Y-32654419D02*
X144714271Y-33511561D01*
X144714271Y-33511561D02*
X144761890Y-33606800D01*
X144761890Y-33606800D02*
X144857128Y-33654419D01*
X144857128Y-33654419D02*
X144952366Y-33654419D01*
X103996609Y-42796782D02*
X103996609Y-43130115D01*
X104520419Y-43130115D02*
X103520419Y-43130115D01*
X103520419Y-43130115D02*
X103520419Y-42653925D01*
X104520419Y-41701544D02*
X104044228Y-42034877D01*
X104520419Y-42272972D02*
X103520419Y-42272972D01*
X103520419Y-42272972D02*
X103520419Y-41892020D01*
X103520419Y-41892020D02*
X103568038Y-41796782D01*
X103568038Y-41796782D02*
X103615657Y-41749163D01*
X103615657Y-41749163D02*
X103710895Y-41701544D01*
X103710895Y-41701544D02*
X103853752Y-41701544D01*
X103853752Y-41701544D02*
X103948990Y-41749163D01*
X103948990Y-41749163D02*
X103996609Y-41796782D01*
X103996609Y-41796782D02*
X104044228Y-41892020D01*
X104044228Y-41892020D02*
X104044228Y-42272972D01*
X103520419Y-41082496D02*
X103520419Y-40892020D01*
X103520419Y-40892020D02*
X103568038Y-40796782D01*
X103568038Y-40796782D02*
X103663276Y-40701544D01*
X103663276Y-40701544D02*
X103853752Y-40653925D01*
X103853752Y-40653925D02*
X104187085Y-40653925D01*
X104187085Y-40653925D02*
X104377561Y-40701544D01*
X104377561Y-40701544D02*
X104472800Y-40796782D01*
X104472800Y-40796782D02*
X104520419Y-40892020D01*
X104520419Y-40892020D02*
X104520419Y-41082496D01*
X104520419Y-41082496D02*
X104472800Y-41177734D01*
X104472800Y-41177734D02*
X104377561Y-41272972D01*
X104377561Y-41272972D02*
X104187085Y-41320591D01*
X104187085Y-41320591D02*
X103853752Y-41320591D01*
X103853752Y-41320591D02*
X103663276Y-41272972D01*
X103663276Y-41272972D02*
X103568038Y-41177734D01*
X103568038Y-41177734D02*
X103520419Y-41082496D01*
X104520419Y-40225353D02*
X103520419Y-40225353D01*
X103520419Y-40225353D02*
X104520419Y-39653925D01*
X104520419Y-39653925D02*
X103520419Y-39653925D01*
X103520419Y-39320591D02*
X103520419Y-38749163D01*
X104520419Y-39034877D02*
X103520419Y-39034877D01*
X144585789Y-43655752D02*
X143823884Y-43941466D01*
X143823884Y-43941466D02*
X144585789Y-44227180D01*
X145061979Y-43941466D02*
X145823884Y-43941466D01*
X147490550Y-43655752D02*
X147490550Y-44322419D01*
X147252455Y-43274800D02*
X147014360Y-43989085D01*
X147014360Y-43989085D02*
X147633407Y-43989085D01*
X148204836Y-43322419D02*
X148300074Y-43322419D01*
X148300074Y-43322419D02*
X148395312Y-43370038D01*
X148395312Y-43370038D02*
X148442931Y-43417657D01*
X148442931Y-43417657D02*
X148490550Y-43512895D01*
X148490550Y-43512895D02*
X148538169Y-43703371D01*
X148538169Y-43703371D02*
X148538169Y-43941466D01*
X148538169Y-43941466D02*
X148490550Y-44131942D01*
X148490550Y-44131942D02*
X148442931Y-44227180D01*
X148442931Y-44227180D02*
X148395312Y-44274800D01*
X148395312Y-44274800D02*
X148300074Y-44322419D01*
X148300074Y-44322419D02*
X148204836Y-44322419D01*
X148204836Y-44322419D02*
X148109598Y-44274800D01*
X148109598Y-44274800D02*
X148061979Y-44227180D01*
X148061979Y-44227180D02*
X148014360Y-44131942D01*
X148014360Y-44131942D02*
X147966741Y-43941466D01*
X147966741Y-43941466D02*
X147966741Y-43703371D01*
X147966741Y-43703371D02*
X148014360Y-43512895D01*
X148014360Y-43512895D02*
X148061979Y-43417657D01*
X148061979Y-43417657D02*
X148109598Y-43370038D01*
X148109598Y-43370038D02*
X148204836Y-43322419D01*
X150157217Y-44322419D02*
X150157217Y-43322419D01*
X150157217Y-44274800D02*
X150061979Y-44322419D01*
X150061979Y-44322419D02*
X149871503Y-44322419D01*
X149871503Y-44322419D02*
X149776265Y-44274800D01*
X149776265Y-44274800D02*
X149728646Y-44227180D01*
X149728646Y-44227180D02*
X149681027Y-44131942D01*
X149681027Y-44131942D02*
X149681027Y-43846228D01*
X149681027Y-43846228D02*
X149728646Y-43750990D01*
X149728646Y-43750990D02*
X149776265Y-43703371D01*
X149776265Y-43703371D02*
X149871503Y-43655752D01*
X149871503Y-43655752D02*
X150061979Y-43655752D01*
X150061979Y-43655752D02*
X150157217Y-43703371D01*
X150966741Y-43798609D02*
X151109598Y-43846228D01*
X151109598Y-43846228D02*
X151157217Y-43893847D01*
X151157217Y-43893847D02*
X151204836Y-43989085D01*
X151204836Y-43989085D02*
X151204836Y-44131942D01*
X151204836Y-44131942D02*
X151157217Y-44227180D01*
X151157217Y-44227180D02*
X151109598Y-44274800D01*
X151109598Y-44274800D02*
X151014360Y-44322419D01*
X151014360Y-44322419D02*
X150633408Y-44322419D01*
X150633408Y-44322419D02*
X150633408Y-43322419D01*
X150633408Y-43322419D02*
X150966741Y-43322419D01*
X150966741Y-43322419D02*
X151061979Y-43370038D01*
X151061979Y-43370038D02*
X151109598Y-43417657D01*
X151109598Y-43417657D02*
X151157217Y-43512895D01*
X151157217Y-43512895D02*
X151157217Y-43608133D01*
X151157217Y-43608133D02*
X151109598Y-43703371D01*
X151109598Y-43703371D02*
X151061979Y-43750990D01*
X151061979Y-43750990D02*
X150966741Y-43798609D01*
X150966741Y-43798609D02*
X150633408Y-43798609D01*
X152395313Y-43941466D02*
X153157218Y-43941466D01*
X153633408Y-43655752D02*
X154395313Y-43941466D01*
X154395313Y-43941466D02*
X153633408Y-44227180D01*
X108761884Y-35432419D02*
X108761884Y-34432419D01*
X108761884Y-34432419D02*
X108999979Y-34432419D01*
X108999979Y-34432419D02*
X109142836Y-34480038D01*
X109142836Y-34480038D02*
X109238074Y-34575276D01*
X109238074Y-34575276D02*
X109285693Y-34670514D01*
X109285693Y-34670514D02*
X109333312Y-34860990D01*
X109333312Y-34860990D02*
X109333312Y-35003847D01*
X109333312Y-35003847D02*
X109285693Y-35194323D01*
X109285693Y-35194323D02*
X109238074Y-35289561D01*
X109238074Y-35289561D02*
X109142836Y-35384800D01*
X109142836Y-35384800D02*
X108999979Y-35432419D01*
X108999979Y-35432419D02*
X108761884Y-35432419D01*
X109761884Y-35432419D02*
X109761884Y-34432419D01*
X110333312Y-35432419D02*
X109904741Y-34860990D01*
X110333312Y-34432419D02*
X109761884Y-35003847D01*
X110666646Y-34432419D02*
X111285693Y-34432419D01*
X111285693Y-34432419D02*
X110952360Y-34813371D01*
X110952360Y-34813371D02*
X111095217Y-34813371D01*
X111095217Y-34813371D02*
X111190455Y-34860990D01*
X111190455Y-34860990D02*
X111238074Y-34908609D01*
X111238074Y-34908609D02*
X111285693Y-35003847D01*
X111285693Y-35003847D02*
X111285693Y-35241942D01*
X111285693Y-35241942D02*
X111238074Y-35337180D01*
X111238074Y-35337180D02*
X111190455Y-35384800D01*
X111190455Y-35384800D02*
X111095217Y-35432419D01*
X111095217Y-35432419D02*
X110809503Y-35432419D01*
X110809503Y-35432419D02*
X110714265Y-35384800D01*
X110714265Y-35384800D02*
X110666646Y-35337180D01*
X111999979Y-34432419D02*
X111999979Y-35146704D01*
X111999979Y-35146704D02*
X111952360Y-35289561D01*
X111952360Y-35289561D02*
X111857122Y-35384800D01*
X111857122Y-35384800D02*
X111714265Y-35432419D01*
X111714265Y-35432419D02*
X111619027Y-35432419D01*
X112809503Y-34908609D02*
X112476170Y-34908609D01*
X112476170Y-35432419D02*
X112476170Y-34432419D01*
X112476170Y-34432419D02*
X112952360Y-34432419D01*
X176843789Y-43655752D02*
X176081884Y-43941466D01*
X176081884Y-43941466D02*
X176843789Y-44227180D01*
X177319979Y-43941466D02*
X178081884Y-43941466D01*
X179748550Y-43655752D02*
X179748550Y-44322419D01*
X179510455Y-43274800D02*
X179272360Y-43989085D01*
X179272360Y-43989085D02*
X179891407Y-43989085D01*
X180462836Y-43322419D02*
X180558074Y-43322419D01*
X180558074Y-43322419D02*
X180653312Y-43370038D01*
X180653312Y-43370038D02*
X180700931Y-43417657D01*
X180700931Y-43417657D02*
X180748550Y-43512895D01*
X180748550Y-43512895D02*
X180796169Y-43703371D01*
X180796169Y-43703371D02*
X180796169Y-43941466D01*
X180796169Y-43941466D02*
X180748550Y-44131942D01*
X180748550Y-44131942D02*
X180700931Y-44227180D01*
X180700931Y-44227180D02*
X180653312Y-44274800D01*
X180653312Y-44274800D02*
X180558074Y-44322419D01*
X180558074Y-44322419D02*
X180462836Y-44322419D01*
X180462836Y-44322419D02*
X180367598Y-44274800D01*
X180367598Y-44274800D02*
X180319979Y-44227180D01*
X180319979Y-44227180D02*
X180272360Y-44131942D01*
X180272360Y-44131942D02*
X180224741Y-43941466D01*
X180224741Y-43941466D02*
X180224741Y-43703371D01*
X180224741Y-43703371D02*
X180272360Y-43512895D01*
X180272360Y-43512895D02*
X180319979Y-43417657D01*
X180319979Y-43417657D02*
X180367598Y-43370038D01*
X180367598Y-43370038D02*
X180462836Y-43322419D01*
X182415217Y-44322419D02*
X182415217Y-43322419D01*
X182415217Y-44274800D02*
X182319979Y-44322419D01*
X182319979Y-44322419D02*
X182129503Y-44322419D01*
X182129503Y-44322419D02*
X182034265Y-44274800D01*
X182034265Y-44274800D02*
X181986646Y-44227180D01*
X181986646Y-44227180D02*
X181939027Y-44131942D01*
X181939027Y-44131942D02*
X181939027Y-43846228D01*
X181939027Y-43846228D02*
X181986646Y-43750990D01*
X181986646Y-43750990D02*
X182034265Y-43703371D01*
X182034265Y-43703371D02*
X182129503Y-43655752D01*
X182129503Y-43655752D02*
X182319979Y-43655752D01*
X182319979Y-43655752D02*
X182415217Y-43703371D01*
X183224741Y-43798609D02*
X183367598Y-43846228D01*
X183367598Y-43846228D02*
X183415217Y-43893847D01*
X183415217Y-43893847D02*
X183462836Y-43989085D01*
X183462836Y-43989085D02*
X183462836Y-44131942D01*
X183462836Y-44131942D02*
X183415217Y-44227180D01*
X183415217Y-44227180D02*
X183367598Y-44274800D01*
X183367598Y-44274800D02*
X183272360Y-44322419D01*
X183272360Y-44322419D02*
X182891408Y-44322419D01*
X182891408Y-44322419D02*
X182891408Y-43322419D01*
X182891408Y-43322419D02*
X183224741Y-43322419D01*
X183224741Y-43322419D02*
X183319979Y-43370038D01*
X183319979Y-43370038D02*
X183367598Y-43417657D01*
X183367598Y-43417657D02*
X183415217Y-43512895D01*
X183415217Y-43512895D02*
X183415217Y-43608133D01*
X183415217Y-43608133D02*
X183367598Y-43703371D01*
X183367598Y-43703371D02*
X183319979Y-43750990D01*
X183319979Y-43750990D02*
X183224741Y-43798609D01*
X183224741Y-43798609D02*
X182891408Y-43798609D01*
X184653313Y-43941466D02*
X185415218Y-43941466D01*
X185891408Y-43655752D02*
X186653313Y-43941466D01*
X186653313Y-43941466D02*
X185891408Y-44227180D01*
X115328265Y-43671657D02*
X115375884Y-43624038D01*
X115375884Y-43624038D02*
X115471122Y-43576419D01*
X115471122Y-43576419D02*
X115709217Y-43576419D01*
X115709217Y-43576419D02*
X115804455Y-43624038D01*
X115804455Y-43624038D02*
X115852074Y-43671657D01*
X115852074Y-43671657D02*
X115899693Y-43766895D01*
X115899693Y-43766895D02*
X115899693Y-43862133D01*
X115899693Y-43862133D02*
X115852074Y-44004990D01*
X115852074Y-44004990D02*
X115280646Y-44576419D01*
X115280646Y-44576419D02*
X115899693Y-44576419D01*
X116518741Y-43576419D02*
X116613979Y-43576419D01*
X116613979Y-43576419D02*
X116709217Y-43624038D01*
X116709217Y-43624038D02*
X116756836Y-43671657D01*
X116756836Y-43671657D02*
X116804455Y-43766895D01*
X116804455Y-43766895D02*
X116852074Y-43957371D01*
X116852074Y-43957371D02*
X116852074Y-44195466D01*
X116852074Y-44195466D02*
X116804455Y-44385942D01*
X116804455Y-44385942D02*
X116756836Y-44481180D01*
X116756836Y-44481180D02*
X116709217Y-44528800D01*
X116709217Y-44528800D02*
X116613979Y-44576419D01*
X116613979Y-44576419D02*
X116518741Y-44576419D01*
X116518741Y-44576419D02*
X116423503Y-44528800D01*
X116423503Y-44528800D02*
X116375884Y-44481180D01*
X116375884Y-44481180D02*
X116328265Y-44385942D01*
X116328265Y-44385942D02*
X116280646Y-44195466D01*
X116280646Y-44195466D02*
X116280646Y-43957371D01*
X116280646Y-43957371D02*
X116328265Y-43766895D01*
X116328265Y-43766895D02*
X116375884Y-43671657D01*
X116375884Y-43671657D02*
X116423503Y-43624038D01*
X116423503Y-43624038D02*
X116518741Y-43576419D01*
X117709217Y-44576419D02*
X117709217Y-43576419D01*
X117709217Y-44528800D02*
X117613979Y-44576419D01*
X117613979Y-44576419D02*
X117423503Y-44576419D01*
X117423503Y-44576419D02*
X117328265Y-44528800D01*
X117328265Y-44528800D02*
X117280646Y-44481180D01*
X117280646Y-44481180D02*
X117233027Y-44385942D01*
X117233027Y-44385942D02*
X117233027Y-44100228D01*
X117233027Y-44100228D02*
X117280646Y-44004990D01*
X117280646Y-44004990D02*
X117328265Y-43957371D01*
X117328265Y-43957371D02*
X117423503Y-43909752D01*
X117423503Y-43909752D02*
X117613979Y-43909752D01*
X117613979Y-43909752D02*
X117709217Y-43957371D01*
X118518741Y-44052609D02*
X118661598Y-44100228D01*
X118661598Y-44100228D02*
X118709217Y-44147847D01*
X118709217Y-44147847D02*
X118756836Y-44243085D01*
X118756836Y-44243085D02*
X118756836Y-44385942D01*
X118756836Y-44385942D02*
X118709217Y-44481180D01*
X118709217Y-44481180D02*
X118661598Y-44528800D01*
X118661598Y-44528800D02*
X118566360Y-44576419D01*
X118566360Y-44576419D02*
X118185408Y-44576419D01*
X118185408Y-44576419D02*
X118185408Y-43576419D01*
X118185408Y-43576419D02*
X118518741Y-43576419D01*
X118518741Y-43576419D02*
X118613979Y-43624038D01*
X118613979Y-43624038D02*
X118661598Y-43671657D01*
X118661598Y-43671657D02*
X118709217Y-43766895D01*
X118709217Y-43766895D02*
X118709217Y-43862133D01*
X118709217Y-43862133D02*
X118661598Y-43957371D01*
X118661598Y-43957371D02*
X118613979Y-44004990D01*
X118613979Y-44004990D02*
X118518741Y-44052609D01*
X118518741Y-44052609D02*
X118185408Y-44052609D01*
X119947313Y-44195466D02*
X120709218Y-44195466D01*
X121185408Y-43909752D02*
X121947313Y-44195466D01*
X121947313Y-44195466D02*
X121185408Y-44481180D01*
D11*
X154974333Y-35600819D02*
X154641000Y-35124628D01*
X154402905Y-35600819D02*
X154402905Y-34600819D01*
X154402905Y-34600819D02*
X154783857Y-34600819D01*
X154783857Y-34600819D02*
X154879095Y-34648438D01*
X154879095Y-34648438D02*
X154926714Y-34696057D01*
X154926714Y-34696057D02*
X154974333Y-34791295D01*
X154974333Y-34791295D02*
X154974333Y-34934152D01*
X154974333Y-34934152D02*
X154926714Y-35029390D01*
X154926714Y-35029390D02*
X154879095Y-35077009D01*
X154879095Y-35077009D02*
X154783857Y-35124628D01*
X154783857Y-35124628D02*
X154402905Y-35124628D01*
X155307667Y-34600819D02*
X155926714Y-34600819D01*
X155926714Y-34600819D02*
X155593381Y-34981771D01*
X155593381Y-34981771D02*
X155736238Y-34981771D01*
X155736238Y-34981771D02*
X155831476Y-35029390D01*
X155831476Y-35029390D02*
X155879095Y-35077009D01*
X155879095Y-35077009D02*
X155926714Y-35172247D01*
X155926714Y-35172247D02*
X155926714Y-35410342D01*
X155926714Y-35410342D02*
X155879095Y-35505580D01*
X155879095Y-35505580D02*
X155831476Y-35553200D01*
X155831476Y-35553200D02*
X155736238Y-35600819D01*
X155736238Y-35600819D02*
X155450524Y-35600819D01*
X155450524Y-35600819D02*
X155355286Y-35553200D01*
X155355286Y-35553200D02*
X155307667Y-35505580D01*
X186850333Y-35600819D02*
X186517000Y-35124628D01*
X186278905Y-35600819D02*
X186278905Y-34600819D01*
X186278905Y-34600819D02*
X186659857Y-34600819D01*
X186659857Y-34600819D02*
X186755095Y-34648438D01*
X186755095Y-34648438D02*
X186802714Y-34696057D01*
X186802714Y-34696057D02*
X186850333Y-34791295D01*
X186850333Y-34791295D02*
X186850333Y-34934152D01*
X186850333Y-34934152D02*
X186802714Y-35029390D01*
X186802714Y-35029390D02*
X186755095Y-35077009D01*
X186755095Y-35077009D02*
X186659857Y-35124628D01*
X186659857Y-35124628D02*
X186278905Y-35124628D01*
X187755095Y-34600819D02*
X187278905Y-34600819D01*
X187278905Y-34600819D02*
X187231286Y-35077009D01*
X187231286Y-35077009D02*
X187278905Y-35029390D01*
X187278905Y-35029390D02*
X187374143Y-34981771D01*
X187374143Y-34981771D02*
X187612238Y-34981771D01*
X187612238Y-34981771D02*
X187707476Y-35029390D01*
X187707476Y-35029390D02*
X187755095Y-35077009D01*
X187755095Y-35077009D02*
X187802714Y-35172247D01*
X187802714Y-35172247D02*
X187802714Y-35410342D01*
X187802714Y-35410342D02*
X187755095Y-35505580D01*
X187755095Y-35505580D02*
X187707476Y-35553200D01*
X187707476Y-35553200D02*
X187612238Y-35600819D01*
X187612238Y-35600819D02*
X187374143Y-35600819D01*
X187374143Y-35600819D02*
X187278905Y-35553200D01*
X187278905Y-35553200D02*
X187231286Y-35505580D01*
X136768142Y-38459580D02*
X136720523Y-38507200D01*
X136720523Y-38507200D02*
X136577666Y-38554819D01*
X136577666Y-38554819D02*
X136482428Y-38554819D01*
X136482428Y-38554819D02*
X136339571Y-38507200D01*
X136339571Y-38507200D02*
X136244333Y-38411961D01*
X136244333Y-38411961D02*
X136196714Y-38316723D01*
X136196714Y-38316723D02*
X136149095Y-38126247D01*
X136149095Y-38126247D02*
X136149095Y-37983390D01*
X136149095Y-37983390D02*
X136196714Y-37792914D01*
X136196714Y-37792914D02*
X136244333Y-37697676D01*
X136244333Y-37697676D02*
X136339571Y-37602438D01*
X136339571Y-37602438D02*
X136482428Y-37554819D01*
X136482428Y-37554819D02*
X136577666Y-37554819D01*
X136577666Y-37554819D02*
X136720523Y-37602438D01*
X136720523Y-37602438D02*
X136768142Y-37650057D01*
X137149095Y-37650057D02*
X137196714Y-37602438D01*
X137196714Y-37602438D02*
X137291952Y-37554819D01*
X137291952Y-37554819D02*
X137530047Y-37554819D01*
X137530047Y-37554819D02*
X137625285Y-37602438D01*
X137625285Y-37602438D02*
X137672904Y-37650057D01*
X137672904Y-37650057D02*
X137720523Y-37745295D01*
X137720523Y-37745295D02*
X137720523Y-37840533D01*
X137720523Y-37840533D02*
X137672904Y-37983390D01*
X137672904Y-37983390D02*
X137101476Y-38554819D01*
X137101476Y-38554819D02*
X137720523Y-38554819D01*
X138053857Y-37554819D02*
X138672904Y-37554819D01*
X138672904Y-37554819D02*
X138339571Y-37935771D01*
X138339571Y-37935771D02*
X138482428Y-37935771D01*
X138482428Y-37935771D02*
X138577666Y-37983390D01*
X138577666Y-37983390D02*
X138625285Y-38031009D01*
X138625285Y-38031009D02*
X138672904Y-38126247D01*
X138672904Y-38126247D02*
X138672904Y-38364342D01*
X138672904Y-38364342D02*
X138625285Y-38459580D01*
X138625285Y-38459580D02*
X138577666Y-38507200D01*
X138577666Y-38507200D02*
X138482428Y-38554819D01*
X138482428Y-38554819D02*
X138196714Y-38554819D01*
X138196714Y-38554819D02*
X138101476Y-38507200D01*
X138101476Y-38507200D02*
X138053857Y-38459580D01*
X143117580Y-49410857D02*
X143165200Y-49458476D01*
X143165200Y-49458476D02*
X143212819Y-49601333D01*
X143212819Y-49601333D02*
X143212819Y-49696571D01*
X143212819Y-49696571D02*
X143165200Y-49839428D01*
X143165200Y-49839428D02*
X143069961Y-49934666D01*
X143069961Y-49934666D02*
X142974723Y-49982285D01*
X142974723Y-49982285D02*
X142784247Y-50029904D01*
X142784247Y-50029904D02*
X142641390Y-50029904D01*
X142641390Y-50029904D02*
X142450914Y-49982285D01*
X142450914Y-49982285D02*
X142355676Y-49934666D01*
X142355676Y-49934666D02*
X142260438Y-49839428D01*
X142260438Y-49839428D02*
X142212819Y-49696571D01*
X142212819Y-49696571D02*
X142212819Y-49601333D01*
X142212819Y-49601333D02*
X142260438Y-49458476D01*
X142260438Y-49458476D02*
X142308057Y-49410857D01*
X143212819Y-48458476D02*
X143212819Y-49029904D01*
X143212819Y-48744190D02*
X142212819Y-48744190D01*
X142212819Y-48744190D02*
X142355676Y-48839428D01*
X142355676Y-48839428D02*
X142450914Y-48934666D01*
X142450914Y-48934666D02*
X142498533Y-49029904D01*
X142308057Y-48077523D02*
X142260438Y-48029904D01*
X142260438Y-48029904D02*
X142212819Y-47934666D01*
X142212819Y-47934666D02*
X142212819Y-47696571D01*
X142212819Y-47696571D02*
X142260438Y-47601333D01*
X142260438Y-47601333D02*
X142308057Y-47553714D01*
X142308057Y-47553714D02*
X142403295Y-47506095D01*
X142403295Y-47506095D02*
X142498533Y-47506095D01*
X142498533Y-47506095D02*
X142641390Y-47553714D01*
X142641390Y-47553714D02*
X143212819Y-48125142D01*
X143212819Y-48125142D02*
X143212819Y-47506095D01*
X159373580Y-49397857D02*
X159421200Y-49445476D01*
X159421200Y-49445476D02*
X159468819Y-49588333D01*
X159468819Y-49588333D02*
X159468819Y-49683571D01*
X159468819Y-49683571D02*
X159421200Y-49826428D01*
X159421200Y-49826428D02*
X159325961Y-49921666D01*
X159325961Y-49921666D02*
X159230723Y-49969285D01*
X159230723Y-49969285D02*
X159040247Y-50016904D01*
X159040247Y-50016904D02*
X158897390Y-50016904D01*
X158897390Y-50016904D02*
X158706914Y-49969285D01*
X158706914Y-49969285D02*
X158611676Y-49921666D01*
X158611676Y-49921666D02*
X158516438Y-49826428D01*
X158516438Y-49826428D02*
X158468819Y-49683571D01*
X158468819Y-49683571D02*
X158468819Y-49588333D01*
X158468819Y-49588333D02*
X158516438Y-49445476D01*
X158516438Y-49445476D02*
X158564057Y-49397857D01*
X159468819Y-48445476D02*
X159468819Y-49016904D01*
X159468819Y-48731190D02*
X158468819Y-48731190D01*
X158468819Y-48731190D02*
X158611676Y-48826428D01*
X158611676Y-48826428D02*
X158706914Y-48921666D01*
X158706914Y-48921666D02*
X158754533Y-49016904D01*
X158468819Y-47540714D02*
X158468819Y-48016904D01*
X158468819Y-48016904D02*
X158945009Y-48064523D01*
X158945009Y-48064523D02*
X158897390Y-48016904D01*
X158897390Y-48016904D02*
X158849771Y-47921666D01*
X158849771Y-47921666D02*
X158849771Y-47683571D01*
X158849771Y-47683571D02*
X158897390Y-47588333D01*
X158897390Y-47588333D02*
X158945009Y-47540714D01*
X158945009Y-47540714D02*
X159040247Y-47493095D01*
X159040247Y-47493095D02*
X159278342Y-47493095D01*
X159278342Y-47493095D02*
X159373580Y-47540714D01*
X159373580Y-47540714D02*
X159421200Y-47588333D01*
X159421200Y-47588333D02*
X159468819Y-47683571D01*
X159468819Y-47683571D02*
X159468819Y-47921666D01*
X159468819Y-47921666D02*
X159421200Y-48016904D01*
X159421200Y-48016904D02*
X159373580Y-48064523D01*
X140460095Y-37769819D02*
X140460095Y-38579342D01*
X140460095Y-38579342D02*
X140507714Y-38674580D01*
X140507714Y-38674580D02*
X140555333Y-38722200D01*
X140555333Y-38722200D02*
X140650571Y-38769819D01*
X140650571Y-38769819D02*
X140841047Y-38769819D01*
X140841047Y-38769819D02*
X140936285Y-38722200D01*
X140936285Y-38722200D02*
X140983904Y-38674580D01*
X140983904Y-38674580D02*
X141031523Y-38579342D01*
X141031523Y-38579342D02*
X141031523Y-37769819D01*
X141460095Y-37865057D02*
X141507714Y-37817438D01*
X141507714Y-37817438D02*
X141602952Y-37769819D01*
X141602952Y-37769819D02*
X141841047Y-37769819D01*
X141841047Y-37769819D02*
X141936285Y-37817438D01*
X141936285Y-37817438D02*
X141983904Y-37865057D01*
X141983904Y-37865057D02*
X142031523Y-37960295D01*
X142031523Y-37960295D02*
X142031523Y-38055533D01*
X142031523Y-38055533D02*
X141983904Y-38198390D01*
X141983904Y-38198390D02*
X141412476Y-38769819D01*
X141412476Y-38769819D02*
X142031523Y-38769819D01*
X191631580Y-49410857D02*
X191679200Y-49458476D01*
X191679200Y-49458476D02*
X191726819Y-49601333D01*
X191726819Y-49601333D02*
X191726819Y-49696571D01*
X191726819Y-49696571D02*
X191679200Y-49839428D01*
X191679200Y-49839428D02*
X191583961Y-49934666D01*
X191583961Y-49934666D02*
X191488723Y-49982285D01*
X191488723Y-49982285D02*
X191298247Y-50029904D01*
X191298247Y-50029904D02*
X191155390Y-50029904D01*
X191155390Y-50029904D02*
X190964914Y-49982285D01*
X190964914Y-49982285D02*
X190869676Y-49934666D01*
X190869676Y-49934666D02*
X190774438Y-49839428D01*
X190774438Y-49839428D02*
X190726819Y-49696571D01*
X190726819Y-49696571D02*
X190726819Y-49601333D01*
X190726819Y-49601333D02*
X190774438Y-49458476D01*
X190774438Y-49458476D02*
X190822057Y-49410857D01*
X190822057Y-49029904D02*
X190774438Y-48982285D01*
X190774438Y-48982285D02*
X190726819Y-48887047D01*
X190726819Y-48887047D02*
X190726819Y-48648952D01*
X190726819Y-48648952D02*
X190774438Y-48553714D01*
X190774438Y-48553714D02*
X190822057Y-48506095D01*
X190822057Y-48506095D02*
X190917295Y-48458476D01*
X190917295Y-48458476D02*
X191012533Y-48458476D01*
X191012533Y-48458476D02*
X191155390Y-48506095D01*
X191155390Y-48506095D02*
X191726819Y-49077523D01*
X191726819Y-49077523D02*
X191726819Y-48458476D01*
X191726819Y-47506095D02*
X191726819Y-48077523D01*
X191726819Y-47791809D02*
X190726819Y-47791809D01*
X190726819Y-47791809D02*
X190869676Y-47887047D01*
X190869676Y-47887047D02*
X190964914Y-47982285D01*
X190964914Y-47982285D02*
X191012533Y-48077523D01*
X157595580Y-49397857D02*
X157643200Y-49445476D01*
X157643200Y-49445476D02*
X157690819Y-49588333D01*
X157690819Y-49588333D02*
X157690819Y-49683571D01*
X157690819Y-49683571D02*
X157643200Y-49826428D01*
X157643200Y-49826428D02*
X157547961Y-49921666D01*
X157547961Y-49921666D02*
X157452723Y-49969285D01*
X157452723Y-49969285D02*
X157262247Y-50016904D01*
X157262247Y-50016904D02*
X157119390Y-50016904D01*
X157119390Y-50016904D02*
X156928914Y-49969285D01*
X156928914Y-49969285D02*
X156833676Y-49921666D01*
X156833676Y-49921666D02*
X156738438Y-49826428D01*
X156738438Y-49826428D02*
X156690819Y-49683571D01*
X156690819Y-49683571D02*
X156690819Y-49588333D01*
X156690819Y-49588333D02*
X156738438Y-49445476D01*
X156738438Y-49445476D02*
X156786057Y-49397857D01*
X157690819Y-48445476D02*
X157690819Y-49016904D01*
X157690819Y-48731190D02*
X156690819Y-48731190D01*
X156690819Y-48731190D02*
X156833676Y-48826428D01*
X156833676Y-48826428D02*
X156928914Y-48921666D01*
X156928914Y-48921666D02*
X156976533Y-49016904D01*
X157024152Y-47588333D02*
X157690819Y-47588333D01*
X156643200Y-47826428D02*
X157357485Y-48064523D01*
X157357485Y-48064523D02*
X157357485Y-47445476D01*
X122462333Y-35600819D02*
X122129000Y-35124628D01*
X121890905Y-35600819D02*
X121890905Y-34600819D01*
X121890905Y-34600819D02*
X122271857Y-34600819D01*
X122271857Y-34600819D02*
X122367095Y-34648438D01*
X122367095Y-34648438D02*
X122414714Y-34696057D01*
X122414714Y-34696057D02*
X122462333Y-34791295D01*
X122462333Y-34791295D02*
X122462333Y-34934152D01*
X122462333Y-34934152D02*
X122414714Y-35029390D01*
X122414714Y-35029390D02*
X122367095Y-35077009D01*
X122367095Y-35077009D02*
X122271857Y-35124628D01*
X122271857Y-35124628D02*
X121890905Y-35124628D01*
X123414714Y-35600819D02*
X122843286Y-35600819D01*
X123129000Y-35600819D02*
X123129000Y-34600819D01*
X123129000Y-34600819D02*
X123033762Y-34743676D01*
X123033762Y-34743676D02*
X122938524Y-34838914D01*
X122938524Y-34838914D02*
X122843286Y-34886533D01*
X152770142Y-38459580D02*
X152722523Y-38507200D01*
X152722523Y-38507200D02*
X152579666Y-38554819D01*
X152579666Y-38554819D02*
X152484428Y-38554819D01*
X152484428Y-38554819D02*
X152341571Y-38507200D01*
X152341571Y-38507200D02*
X152246333Y-38411961D01*
X152246333Y-38411961D02*
X152198714Y-38316723D01*
X152198714Y-38316723D02*
X152151095Y-38126247D01*
X152151095Y-38126247D02*
X152151095Y-37983390D01*
X152151095Y-37983390D02*
X152198714Y-37792914D01*
X152198714Y-37792914D02*
X152246333Y-37697676D01*
X152246333Y-37697676D02*
X152341571Y-37602438D01*
X152341571Y-37602438D02*
X152484428Y-37554819D01*
X152484428Y-37554819D02*
X152579666Y-37554819D01*
X152579666Y-37554819D02*
X152722523Y-37602438D01*
X152722523Y-37602438D02*
X152770142Y-37650057D01*
X153151095Y-37650057D02*
X153198714Y-37602438D01*
X153198714Y-37602438D02*
X153293952Y-37554819D01*
X153293952Y-37554819D02*
X153532047Y-37554819D01*
X153532047Y-37554819D02*
X153627285Y-37602438D01*
X153627285Y-37602438D02*
X153674904Y-37650057D01*
X153674904Y-37650057D02*
X153722523Y-37745295D01*
X153722523Y-37745295D02*
X153722523Y-37840533D01*
X153722523Y-37840533D02*
X153674904Y-37983390D01*
X153674904Y-37983390D02*
X153103476Y-38554819D01*
X153103476Y-38554819D02*
X153722523Y-38554819D01*
X154579666Y-37888152D02*
X154579666Y-38554819D01*
X154341571Y-37507200D02*
X154103476Y-38221485D01*
X154103476Y-38221485D02*
X154722523Y-38221485D01*
X164676333Y-40331580D02*
X164628714Y-40379200D01*
X164628714Y-40379200D02*
X164485857Y-40426819D01*
X164485857Y-40426819D02*
X164390619Y-40426819D01*
X164390619Y-40426819D02*
X164247762Y-40379200D01*
X164247762Y-40379200D02*
X164152524Y-40283961D01*
X164152524Y-40283961D02*
X164104905Y-40188723D01*
X164104905Y-40188723D02*
X164057286Y-39998247D01*
X164057286Y-39998247D02*
X164057286Y-39855390D01*
X164057286Y-39855390D02*
X164104905Y-39664914D01*
X164104905Y-39664914D02*
X164152524Y-39569676D01*
X164152524Y-39569676D02*
X164247762Y-39474438D01*
X164247762Y-39474438D02*
X164390619Y-39426819D01*
X164390619Y-39426819D02*
X164485857Y-39426819D01*
X164485857Y-39426819D02*
X164628714Y-39474438D01*
X164628714Y-39474438D02*
X164676333Y-39522057D01*
X165533476Y-39760152D02*
X165533476Y-40426819D01*
X165295381Y-39379200D02*
X165057286Y-40093485D01*
X165057286Y-40093485D02*
X165676333Y-40093485D01*
X131923333Y-40331580D02*
X131875714Y-40379200D01*
X131875714Y-40379200D02*
X131732857Y-40426819D01*
X131732857Y-40426819D02*
X131637619Y-40426819D01*
X131637619Y-40426819D02*
X131494762Y-40379200D01*
X131494762Y-40379200D02*
X131399524Y-40283961D01*
X131399524Y-40283961D02*
X131351905Y-40188723D01*
X131351905Y-40188723D02*
X131304286Y-39998247D01*
X131304286Y-39998247D02*
X131304286Y-39855390D01*
X131304286Y-39855390D02*
X131351905Y-39664914D01*
X131351905Y-39664914D02*
X131399524Y-39569676D01*
X131399524Y-39569676D02*
X131494762Y-39474438D01*
X131494762Y-39474438D02*
X131637619Y-39426819D01*
X131637619Y-39426819D02*
X131732857Y-39426819D01*
X131732857Y-39426819D02*
X131875714Y-39474438D01*
X131875714Y-39474438D02*
X131923333Y-39522057D01*
X132304286Y-39522057D02*
X132351905Y-39474438D01*
X132351905Y-39474438D02*
X132447143Y-39426819D01*
X132447143Y-39426819D02*
X132685238Y-39426819D01*
X132685238Y-39426819D02*
X132780476Y-39474438D01*
X132780476Y-39474438D02*
X132828095Y-39522057D01*
X132828095Y-39522057D02*
X132875714Y-39617295D01*
X132875714Y-39617295D02*
X132875714Y-39712533D01*
X132875714Y-39712533D02*
X132828095Y-39855390D01*
X132828095Y-39855390D02*
X132256667Y-40426819D01*
X132256667Y-40426819D02*
X132875714Y-40426819D01*
X188075580Y-49410857D02*
X188123200Y-49458476D01*
X188123200Y-49458476D02*
X188170819Y-49601333D01*
X188170819Y-49601333D02*
X188170819Y-49696571D01*
X188170819Y-49696571D02*
X188123200Y-49839428D01*
X188123200Y-49839428D02*
X188027961Y-49934666D01*
X188027961Y-49934666D02*
X187932723Y-49982285D01*
X187932723Y-49982285D02*
X187742247Y-50029904D01*
X187742247Y-50029904D02*
X187599390Y-50029904D01*
X187599390Y-50029904D02*
X187408914Y-49982285D01*
X187408914Y-49982285D02*
X187313676Y-49934666D01*
X187313676Y-49934666D02*
X187218438Y-49839428D01*
X187218438Y-49839428D02*
X187170819Y-49696571D01*
X187170819Y-49696571D02*
X187170819Y-49601333D01*
X187170819Y-49601333D02*
X187218438Y-49458476D01*
X187218438Y-49458476D02*
X187266057Y-49410857D01*
X188170819Y-48458476D02*
X188170819Y-49029904D01*
X188170819Y-48744190D02*
X187170819Y-48744190D01*
X187170819Y-48744190D02*
X187313676Y-48839428D01*
X187313676Y-48839428D02*
X187408914Y-48934666D01*
X187408914Y-48934666D02*
X187456533Y-49029904D01*
X188170819Y-47982285D02*
X188170819Y-47791809D01*
X188170819Y-47791809D02*
X188123200Y-47696571D01*
X188123200Y-47696571D02*
X188075580Y-47648952D01*
X188075580Y-47648952D02*
X187932723Y-47553714D01*
X187932723Y-47553714D02*
X187742247Y-47506095D01*
X187742247Y-47506095D02*
X187361295Y-47506095D01*
X187361295Y-47506095D02*
X187266057Y-47553714D01*
X187266057Y-47553714D02*
X187218438Y-47601333D01*
X187218438Y-47601333D02*
X187170819Y-47696571D01*
X187170819Y-47696571D02*
X187170819Y-47887047D01*
X187170819Y-47887047D02*
X187218438Y-47982285D01*
X187218438Y-47982285D02*
X187266057Y-48029904D01*
X187266057Y-48029904D02*
X187361295Y-48077523D01*
X187361295Y-48077523D02*
X187599390Y-48077523D01*
X187599390Y-48077523D02*
X187694628Y-48029904D01*
X187694628Y-48029904D02*
X187742247Y-47982285D01*
X187742247Y-47982285D02*
X187789866Y-47887047D01*
X187789866Y-47887047D02*
X187789866Y-47696571D01*
X187789866Y-47696571D02*
X187742247Y-47601333D01*
X187742247Y-47601333D02*
X187694628Y-47553714D01*
X187694628Y-47553714D02*
X187599390Y-47506095D01*
X141339580Y-49436857D02*
X141387200Y-49484476D01*
X141387200Y-49484476D02*
X141434819Y-49627333D01*
X141434819Y-49627333D02*
X141434819Y-49722571D01*
X141434819Y-49722571D02*
X141387200Y-49865428D01*
X141387200Y-49865428D02*
X141291961Y-49960666D01*
X141291961Y-49960666D02*
X141196723Y-50008285D01*
X141196723Y-50008285D02*
X141006247Y-50055904D01*
X141006247Y-50055904D02*
X140863390Y-50055904D01*
X140863390Y-50055904D02*
X140672914Y-50008285D01*
X140672914Y-50008285D02*
X140577676Y-49960666D01*
X140577676Y-49960666D02*
X140482438Y-49865428D01*
X140482438Y-49865428D02*
X140434819Y-49722571D01*
X140434819Y-49722571D02*
X140434819Y-49627333D01*
X140434819Y-49627333D02*
X140482438Y-49484476D01*
X140482438Y-49484476D02*
X140530057Y-49436857D01*
X141434819Y-48484476D02*
X141434819Y-49055904D01*
X141434819Y-48770190D02*
X140434819Y-48770190D01*
X140434819Y-48770190D02*
X140577676Y-48865428D01*
X140577676Y-48865428D02*
X140672914Y-48960666D01*
X140672914Y-48960666D02*
X140720533Y-49055904D01*
X141434819Y-47532095D02*
X141434819Y-48103523D01*
X141434819Y-47817809D02*
X140434819Y-47817809D01*
X140434819Y-47817809D02*
X140577676Y-47913047D01*
X140577676Y-47913047D02*
X140672914Y-48008285D01*
X140672914Y-48008285D02*
X140720533Y-48103523D01*
X149436333Y-40331580D02*
X149388714Y-40379200D01*
X149388714Y-40379200D02*
X149245857Y-40426819D01*
X149245857Y-40426819D02*
X149150619Y-40426819D01*
X149150619Y-40426819D02*
X149007762Y-40379200D01*
X149007762Y-40379200D02*
X148912524Y-40283961D01*
X148912524Y-40283961D02*
X148864905Y-40188723D01*
X148864905Y-40188723D02*
X148817286Y-39998247D01*
X148817286Y-39998247D02*
X148817286Y-39855390D01*
X148817286Y-39855390D02*
X148864905Y-39664914D01*
X148864905Y-39664914D02*
X148912524Y-39569676D01*
X148912524Y-39569676D02*
X149007762Y-39474438D01*
X149007762Y-39474438D02*
X149150619Y-39426819D01*
X149150619Y-39426819D02*
X149245857Y-39426819D01*
X149245857Y-39426819D02*
X149388714Y-39474438D01*
X149388714Y-39474438D02*
X149436333Y-39522057D01*
X149769667Y-39426819D02*
X150388714Y-39426819D01*
X150388714Y-39426819D02*
X150055381Y-39807771D01*
X150055381Y-39807771D02*
X150198238Y-39807771D01*
X150198238Y-39807771D02*
X150293476Y-39855390D01*
X150293476Y-39855390D02*
X150341095Y-39903009D01*
X150341095Y-39903009D02*
X150388714Y-39998247D01*
X150388714Y-39998247D02*
X150388714Y-40236342D01*
X150388714Y-40236342D02*
X150341095Y-40331580D01*
X150341095Y-40331580D02*
X150293476Y-40379200D01*
X150293476Y-40379200D02*
X150198238Y-40426819D01*
X150198238Y-40426819D02*
X149912524Y-40426819D01*
X149912524Y-40426819D02*
X149817286Y-40379200D01*
X149817286Y-40379200D02*
X149769667Y-40331580D01*
X180678333Y-40331580D02*
X180630714Y-40379200D01*
X180630714Y-40379200D02*
X180487857Y-40426819D01*
X180487857Y-40426819D02*
X180392619Y-40426819D01*
X180392619Y-40426819D02*
X180249762Y-40379200D01*
X180249762Y-40379200D02*
X180154524Y-40283961D01*
X180154524Y-40283961D02*
X180106905Y-40188723D01*
X180106905Y-40188723D02*
X180059286Y-39998247D01*
X180059286Y-39998247D02*
X180059286Y-39855390D01*
X180059286Y-39855390D02*
X180106905Y-39664914D01*
X180106905Y-39664914D02*
X180154524Y-39569676D01*
X180154524Y-39569676D02*
X180249762Y-39474438D01*
X180249762Y-39474438D02*
X180392619Y-39426819D01*
X180392619Y-39426819D02*
X180487857Y-39426819D01*
X180487857Y-39426819D02*
X180630714Y-39474438D01*
X180630714Y-39474438D02*
X180678333Y-39522057D01*
X181583095Y-39426819D02*
X181106905Y-39426819D01*
X181106905Y-39426819D02*
X181059286Y-39903009D01*
X181059286Y-39903009D02*
X181106905Y-39855390D01*
X181106905Y-39855390D02*
X181202143Y-39807771D01*
X181202143Y-39807771D02*
X181440238Y-39807771D01*
X181440238Y-39807771D02*
X181535476Y-39855390D01*
X181535476Y-39855390D02*
X181583095Y-39903009D01*
X181583095Y-39903009D02*
X181630714Y-39998247D01*
X181630714Y-39998247D02*
X181630714Y-40236342D01*
X181630714Y-40236342D02*
X181583095Y-40331580D01*
X181583095Y-40331580D02*
X181535476Y-40379200D01*
X181535476Y-40379200D02*
X181440238Y-40426819D01*
X181440238Y-40426819D02*
X181202143Y-40426819D01*
X181202143Y-40426819D02*
X181106905Y-40379200D01*
X181106905Y-40379200D02*
X181059286Y-40331580D01*
X189853580Y-49410857D02*
X189901200Y-49458476D01*
X189901200Y-49458476D02*
X189948819Y-49601333D01*
X189948819Y-49601333D02*
X189948819Y-49696571D01*
X189948819Y-49696571D02*
X189901200Y-49839428D01*
X189901200Y-49839428D02*
X189805961Y-49934666D01*
X189805961Y-49934666D02*
X189710723Y-49982285D01*
X189710723Y-49982285D02*
X189520247Y-50029904D01*
X189520247Y-50029904D02*
X189377390Y-50029904D01*
X189377390Y-50029904D02*
X189186914Y-49982285D01*
X189186914Y-49982285D02*
X189091676Y-49934666D01*
X189091676Y-49934666D02*
X188996438Y-49839428D01*
X188996438Y-49839428D02*
X188948819Y-49696571D01*
X188948819Y-49696571D02*
X188948819Y-49601333D01*
X188948819Y-49601333D02*
X188996438Y-49458476D01*
X188996438Y-49458476D02*
X189044057Y-49410857D01*
X189044057Y-49029904D02*
X188996438Y-48982285D01*
X188996438Y-48982285D02*
X188948819Y-48887047D01*
X188948819Y-48887047D02*
X188948819Y-48648952D01*
X188948819Y-48648952D02*
X188996438Y-48553714D01*
X188996438Y-48553714D02*
X189044057Y-48506095D01*
X189044057Y-48506095D02*
X189139295Y-48458476D01*
X189139295Y-48458476D02*
X189234533Y-48458476D01*
X189234533Y-48458476D02*
X189377390Y-48506095D01*
X189377390Y-48506095D02*
X189948819Y-49077523D01*
X189948819Y-49077523D02*
X189948819Y-48458476D01*
X188948819Y-47839428D02*
X188948819Y-47744190D01*
X188948819Y-47744190D02*
X188996438Y-47648952D01*
X188996438Y-47648952D02*
X189044057Y-47601333D01*
X189044057Y-47601333D02*
X189139295Y-47553714D01*
X189139295Y-47553714D02*
X189329771Y-47506095D01*
X189329771Y-47506095D02*
X189567866Y-47506095D01*
X189567866Y-47506095D02*
X189758342Y-47553714D01*
X189758342Y-47553714D02*
X189853580Y-47601333D01*
X189853580Y-47601333D02*
X189901200Y-47648952D01*
X189901200Y-47648952D02*
X189948819Y-47744190D01*
X189948819Y-47744190D02*
X189948819Y-47839428D01*
X189948819Y-47839428D02*
X189901200Y-47934666D01*
X189901200Y-47934666D02*
X189853580Y-47982285D01*
X189853580Y-47982285D02*
X189758342Y-48029904D01*
X189758342Y-48029904D02*
X189567866Y-48077523D01*
X189567866Y-48077523D02*
X189329771Y-48077523D01*
X189329771Y-48077523D02*
X189139295Y-48029904D01*
X189139295Y-48029904D02*
X189044057Y-47982285D01*
X189044057Y-47982285D02*
X188996438Y-47934666D01*
X188996438Y-47934666D02*
X188948819Y-47839428D01*
X172488095Y-37791319D02*
X172488095Y-38600842D01*
X172488095Y-38600842D02*
X172535714Y-38696080D01*
X172535714Y-38696080D02*
X172583333Y-38743700D01*
X172583333Y-38743700D02*
X172678571Y-38791319D01*
X172678571Y-38791319D02*
X172869047Y-38791319D01*
X172869047Y-38791319D02*
X172964285Y-38743700D01*
X172964285Y-38743700D02*
X173011904Y-38696080D01*
X173011904Y-38696080D02*
X173059523Y-38600842D01*
X173059523Y-38600842D02*
X173059523Y-37791319D01*
X173964285Y-38124652D02*
X173964285Y-38791319D01*
X173726190Y-37743700D02*
X173488095Y-38457985D01*
X173488095Y-38457985D02*
X174107142Y-38457985D01*
X156470095Y-37791319D02*
X156470095Y-38600842D01*
X156470095Y-38600842D02*
X156517714Y-38696080D01*
X156517714Y-38696080D02*
X156565333Y-38743700D01*
X156565333Y-38743700D02*
X156660571Y-38791319D01*
X156660571Y-38791319D02*
X156851047Y-38791319D01*
X156851047Y-38791319D02*
X156946285Y-38743700D01*
X156946285Y-38743700D02*
X156993904Y-38696080D01*
X156993904Y-38696080D02*
X157041523Y-38600842D01*
X157041523Y-38600842D02*
X157041523Y-37791319D01*
X157422476Y-37791319D02*
X158041523Y-37791319D01*
X158041523Y-37791319D02*
X157708190Y-38172271D01*
X157708190Y-38172271D02*
X157851047Y-38172271D01*
X157851047Y-38172271D02*
X157946285Y-38219890D01*
X157946285Y-38219890D02*
X157993904Y-38267509D01*
X157993904Y-38267509D02*
X158041523Y-38362747D01*
X158041523Y-38362747D02*
X158041523Y-38600842D01*
X158041523Y-38600842D02*
X157993904Y-38696080D01*
X157993904Y-38696080D02*
X157946285Y-38743700D01*
X157946285Y-38743700D02*
X157851047Y-38791319D01*
X157851047Y-38791319D02*
X157565333Y-38791319D01*
X157565333Y-38791319D02*
X157470095Y-38743700D01*
X157470095Y-38743700D02*
X157422476Y-38696080D01*
X109885000Y-45936819D02*
X110075476Y-45936819D01*
X110075476Y-45936819D02*
X110170714Y-45984438D01*
X110170714Y-45984438D02*
X110265952Y-46079676D01*
X110265952Y-46079676D02*
X110313571Y-46270152D01*
X110313571Y-46270152D02*
X110313571Y-46603485D01*
X110313571Y-46603485D02*
X110265952Y-46793961D01*
X110265952Y-46793961D02*
X110170714Y-46889200D01*
X110170714Y-46889200D02*
X110075476Y-46936819D01*
X110075476Y-46936819D02*
X109885000Y-46936819D01*
X109885000Y-46936819D02*
X109789762Y-46889200D01*
X109789762Y-46889200D02*
X109694524Y-46793961D01*
X109694524Y-46793961D02*
X109646905Y-46603485D01*
X109646905Y-46603485D02*
X109646905Y-46270152D01*
X109646905Y-46270152D02*
X109694524Y-46079676D01*
X109694524Y-46079676D02*
X109789762Y-45984438D01*
X109789762Y-45984438D02*
X109885000Y-45936819D01*
X110742143Y-45936819D02*
X110742143Y-46746342D01*
X110742143Y-46746342D02*
X110789762Y-46841580D01*
X110789762Y-46841580D02*
X110837381Y-46889200D01*
X110837381Y-46889200D02*
X110932619Y-46936819D01*
X110932619Y-46936819D02*
X111123095Y-46936819D01*
X111123095Y-46936819D02*
X111218333Y-46889200D01*
X111218333Y-46889200D02*
X111265952Y-46841580D01*
X111265952Y-46841580D02*
X111313571Y-46746342D01*
X111313571Y-46746342D02*
X111313571Y-45936819D01*
X111646905Y-45936819D02*
X112218333Y-45936819D01*
X111932619Y-46936819D02*
X111932619Y-45936819D01*
X220210142Y-45393780D02*
X220162523Y-45441400D01*
X220162523Y-45441400D02*
X220019666Y-45489019D01*
X220019666Y-45489019D02*
X219924428Y-45489019D01*
X219924428Y-45489019D02*
X219781571Y-45441400D01*
X219781571Y-45441400D02*
X219686333Y-45346161D01*
X219686333Y-45346161D02*
X219638714Y-45250923D01*
X219638714Y-45250923D02*
X219591095Y-45060447D01*
X219591095Y-45060447D02*
X219591095Y-44917590D01*
X219591095Y-44917590D02*
X219638714Y-44727114D01*
X219638714Y-44727114D02*
X219686333Y-44631876D01*
X219686333Y-44631876D02*
X219781571Y-44536638D01*
X219781571Y-44536638D02*
X219924428Y-44489019D01*
X219924428Y-44489019D02*
X220019666Y-44489019D01*
X220019666Y-44489019D02*
X220162523Y-44536638D01*
X220162523Y-44536638D02*
X220210142Y-44584257D01*
X220591095Y-44584257D02*
X220638714Y-44536638D01*
X220638714Y-44536638D02*
X220733952Y-44489019D01*
X220733952Y-44489019D02*
X220972047Y-44489019D01*
X220972047Y-44489019D02*
X221067285Y-44536638D01*
X221067285Y-44536638D02*
X221114904Y-44584257D01*
X221114904Y-44584257D02*
X221162523Y-44679495D01*
X221162523Y-44679495D02*
X221162523Y-44774733D01*
X221162523Y-44774733D02*
X221114904Y-44917590D01*
X221114904Y-44917590D02*
X220543476Y-45489019D01*
X220543476Y-45489019D02*
X221162523Y-45489019D01*
X221495857Y-44489019D02*
X222162523Y-44489019D01*
X222162523Y-44489019D02*
X221733952Y-45489019D01*
X203956191Y-46809819D02*
X203956191Y-45809819D01*
X204432381Y-46809819D02*
X204432381Y-45809819D01*
X204432381Y-45809819D02*
X205003809Y-46809819D01*
X205003809Y-46809819D02*
X205003809Y-45809819D01*
X138972333Y-35600819D02*
X138639000Y-35124628D01*
X138400905Y-35600819D02*
X138400905Y-34600819D01*
X138400905Y-34600819D02*
X138781857Y-34600819D01*
X138781857Y-34600819D02*
X138877095Y-34648438D01*
X138877095Y-34648438D02*
X138924714Y-34696057D01*
X138924714Y-34696057D02*
X138972333Y-34791295D01*
X138972333Y-34791295D02*
X138972333Y-34934152D01*
X138972333Y-34934152D02*
X138924714Y-35029390D01*
X138924714Y-35029390D02*
X138877095Y-35077009D01*
X138877095Y-35077009D02*
X138781857Y-35124628D01*
X138781857Y-35124628D02*
X138400905Y-35124628D01*
X139353286Y-34696057D02*
X139400905Y-34648438D01*
X139400905Y-34648438D02*
X139496143Y-34600819D01*
X139496143Y-34600819D02*
X139734238Y-34600819D01*
X139734238Y-34600819D02*
X139829476Y-34648438D01*
X139829476Y-34648438D02*
X139877095Y-34696057D01*
X139877095Y-34696057D02*
X139924714Y-34791295D01*
X139924714Y-34791295D02*
X139924714Y-34886533D01*
X139924714Y-34886533D02*
X139877095Y-35029390D01*
X139877095Y-35029390D02*
X139305667Y-35600819D01*
X139305667Y-35600819D02*
X139924714Y-35600819D01*
X126861580Y-48693666D02*
X126909200Y-48741285D01*
X126909200Y-48741285D02*
X126956819Y-48884142D01*
X126956819Y-48884142D02*
X126956819Y-48979380D01*
X126956819Y-48979380D02*
X126909200Y-49122237D01*
X126909200Y-49122237D02*
X126813961Y-49217475D01*
X126813961Y-49217475D02*
X126718723Y-49265094D01*
X126718723Y-49265094D02*
X126528247Y-49312713D01*
X126528247Y-49312713D02*
X126385390Y-49312713D01*
X126385390Y-49312713D02*
X126194914Y-49265094D01*
X126194914Y-49265094D02*
X126099676Y-49217475D01*
X126099676Y-49217475D02*
X126004438Y-49122237D01*
X126004438Y-49122237D02*
X125956819Y-48979380D01*
X125956819Y-48979380D02*
X125956819Y-48884142D01*
X125956819Y-48884142D02*
X126004438Y-48741285D01*
X126004438Y-48741285D02*
X126052057Y-48693666D01*
X126956819Y-48217475D02*
X126956819Y-48026999D01*
X126956819Y-48026999D02*
X126909200Y-47931761D01*
X126909200Y-47931761D02*
X126861580Y-47884142D01*
X126861580Y-47884142D02*
X126718723Y-47788904D01*
X126718723Y-47788904D02*
X126528247Y-47741285D01*
X126528247Y-47741285D02*
X126147295Y-47741285D01*
X126147295Y-47741285D02*
X126052057Y-47788904D01*
X126052057Y-47788904D02*
X126004438Y-47836523D01*
X126004438Y-47836523D02*
X125956819Y-47931761D01*
X125956819Y-47931761D02*
X125956819Y-48122237D01*
X125956819Y-48122237D02*
X126004438Y-48217475D01*
X126004438Y-48217475D02*
X126052057Y-48265094D01*
X126052057Y-48265094D02*
X126147295Y-48312713D01*
X126147295Y-48312713D02*
X126385390Y-48312713D01*
X126385390Y-48312713D02*
X126480628Y-48265094D01*
X126480628Y-48265094D02*
X126528247Y-48217475D01*
X126528247Y-48217475D02*
X126575866Y-48122237D01*
X126575866Y-48122237D02*
X126575866Y-47931761D01*
X126575866Y-47931761D02*
X126528247Y-47836523D01*
X126528247Y-47836523D02*
X126480628Y-47788904D01*
X126480628Y-47788904D02*
X126385390Y-47741285D01*
X168798142Y-38459580D02*
X168750523Y-38507200D01*
X168750523Y-38507200D02*
X168607666Y-38554819D01*
X168607666Y-38554819D02*
X168512428Y-38554819D01*
X168512428Y-38554819D02*
X168369571Y-38507200D01*
X168369571Y-38507200D02*
X168274333Y-38411961D01*
X168274333Y-38411961D02*
X168226714Y-38316723D01*
X168226714Y-38316723D02*
X168179095Y-38126247D01*
X168179095Y-38126247D02*
X168179095Y-37983390D01*
X168179095Y-37983390D02*
X168226714Y-37792914D01*
X168226714Y-37792914D02*
X168274333Y-37697676D01*
X168274333Y-37697676D02*
X168369571Y-37602438D01*
X168369571Y-37602438D02*
X168512428Y-37554819D01*
X168512428Y-37554819D02*
X168607666Y-37554819D01*
X168607666Y-37554819D02*
X168750523Y-37602438D01*
X168750523Y-37602438D02*
X168798142Y-37650057D01*
X169179095Y-37650057D02*
X169226714Y-37602438D01*
X169226714Y-37602438D02*
X169321952Y-37554819D01*
X169321952Y-37554819D02*
X169560047Y-37554819D01*
X169560047Y-37554819D02*
X169655285Y-37602438D01*
X169655285Y-37602438D02*
X169702904Y-37650057D01*
X169702904Y-37650057D02*
X169750523Y-37745295D01*
X169750523Y-37745295D02*
X169750523Y-37840533D01*
X169750523Y-37840533D02*
X169702904Y-37983390D01*
X169702904Y-37983390D02*
X169131476Y-38554819D01*
X169131476Y-38554819D02*
X169750523Y-38554819D01*
X170655285Y-37554819D02*
X170179095Y-37554819D01*
X170179095Y-37554819D02*
X170131476Y-38031009D01*
X170131476Y-38031009D02*
X170179095Y-37983390D01*
X170179095Y-37983390D02*
X170274333Y-37935771D01*
X170274333Y-37935771D02*
X170512428Y-37935771D01*
X170512428Y-37935771D02*
X170607666Y-37983390D01*
X170607666Y-37983390D02*
X170655285Y-38031009D01*
X170655285Y-38031009D02*
X170702904Y-38126247D01*
X170702904Y-38126247D02*
X170702904Y-38364342D01*
X170702904Y-38364342D02*
X170655285Y-38459580D01*
X170655285Y-38459580D02*
X170607666Y-38507200D01*
X170607666Y-38507200D02*
X170512428Y-38554819D01*
X170512428Y-38554819D02*
X170274333Y-38554819D01*
X170274333Y-38554819D02*
X170179095Y-38507200D01*
X170179095Y-38507200D02*
X170131476Y-38459580D01*
X173597580Y-49410857D02*
X173645200Y-49458476D01*
X173645200Y-49458476D02*
X173692819Y-49601333D01*
X173692819Y-49601333D02*
X173692819Y-49696571D01*
X173692819Y-49696571D02*
X173645200Y-49839428D01*
X173645200Y-49839428D02*
X173549961Y-49934666D01*
X173549961Y-49934666D02*
X173454723Y-49982285D01*
X173454723Y-49982285D02*
X173264247Y-50029904D01*
X173264247Y-50029904D02*
X173121390Y-50029904D01*
X173121390Y-50029904D02*
X172930914Y-49982285D01*
X172930914Y-49982285D02*
X172835676Y-49934666D01*
X172835676Y-49934666D02*
X172740438Y-49839428D01*
X172740438Y-49839428D02*
X172692819Y-49696571D01*
X172692819Y-49696571D02*
X172692819Y-49601333D01*
X172692819Y-49601333D02*
X172740438Y-49458476D01*
X172740438Y-49458476D02*
X172788057Y-49410857D01*
X173692819Y-48458476D02*
X173692819Y-49029904D01*
X173692819Y-48744190D02*
X172692819Y-48744190D01*
X172692819Y-48744190D02*
X172835676Y-48839428D01*
X172835676Y-48839428D02*
X172930914Y-48934666D01*
X172930914Y-48934666D02*
X172978533Y-49029904D01*
X172692819Y-48125142D02*
X172692819Y-47458476D01*
X172692819Y-47458476D02*
X173692819Y-47887047D01*
X125083580Y-48693666D02*
X125131200Y-48741285D01*
X125131200Y-48741285D02*
X125178819Y-48884142D01*
X125178819Y-48884142D02*
X125178819Y-48979380D01*
X125178819Y-48979380D02*
X125131200Y-49122237D01*
X125131200Y-49122237D02*
X125035961Y-49217475D01*
X125035961Y-49217475D02*
X124940723Y-49265094D01*
X124940723Y-49265094D02*
X124750247Y-49312713D01*
X124750247Y-49312713D02*
X124607390Y-49312713D01*
X124607390Y-49312713D02*
X124416914Y-49265094D01*
X124416914Y-49265094D02*
X124321676Y-49217475D01*
X124321676Y-49217475D02*
X124226438Y-49122237D01*
X124226438Y-49122237D02*
X124178819Y-48979380D01*
X124178819Y-48979380D02*
X124178819Y-48884142D01*
X124178819Y-48884142D02*
X124226438Y-48741285D01*
X124226438Y-48741285D02*
X124274057Y-48693666D01*
X124607390Y-48122237D02*
X124559771Y-48217475D01*
X124559771Y-48217475D02*
X124512152Y-48265094D01*
X124512152Y-48265094D02*
X124416914Y-48312713D01*
X124416914Y-48312713D02*
X124369295Y-48312713D01*
X124369295Y-48312713D02*
X124274057Y-48265094D01*
X124274057Y-48265094D02*
X124226438Y-48217475D01*
X124226438Y-48217475D02*
X124178819Y-48122237D01*
X124178819Y-48122237D02*
X124178819Y-47931761D01*
X124178819Y-47931761D02*
X124226438Y-47836523D01*
X124226438Y-47836523D02*
X124274057Y-47788904D01*
X124274057Y-47788904D02*
X124369295Y-47741285D01*
X124369295Y-47741285D02*
X124416914Y-47741285D01*
X124416914Y-47741285D02*
X124512152Y-47788904D01*
X124512152Y-47788904D02*
X124559771Y-47836523D01*
X124559771Y-47836523D02*
X124607390Y-47931761D01*
X124607390Y-47931761D02*
X124607390Y-48122237D01*
X124607390Y-48122237D02*
X124655009Y-48217475D01*
X124655009Y-48217475D02*
X124702628Y-48265094D01*
X124702628Y-48265094D02*
X124797866Y-48312713D01*
X124797866Y-48312713D02*
X124988342Y-48312713D01*
X124988342Y-48312713D02*
X125083580Y-48265094D01*
X125083580Y-48265094D02*
X125131200Y-48217475D01*
X125131200Y-48217475D02*
X125178819Y-48122237D01*
X125178819Y-48122237D02*
X125178819Y-47931761D01*
X125178819Y-47931761D02*
X125131200Y-47836523D01*
X125131200Y-47836523D02*
X125083580Y-47788904D01*
X125083580Y-47788904D02*
X124988342Y-47741285D01*
X124988342Y-47741285D02*
X124797866Y-47741285D01*
X124797866Y-47741285D02*
X124702628Y-47788904D01*
X124702628Y-47788904D02*
X124655009Y-47836523D01*
X124655009Y-47836523D02*
X124607390Y-47931761D01*
X123572580Y-48693666D02*
X123620200Y-48741285D01*
X123620200Y-48741285D02*
X123667819Y-48884142D01*
X123667819Y-48884142D02*
X123667819Y-48979380D01*
X123667819Y-48979380D02*
X123620200Y-49122237D01*
X123620200Y-49122237D02*
X123524961Y-49217475D01*
X123524961Y-49217475D02*
X123429723Y-49265094D01*
X123429723Y-49265094D02*
X123239247Y-49312713D01*
X123239247Y-49312713D02*
X123096390Y-49312713D01*
X123096390Y-49312713D02*
X122905914Y-49265094D01*
X122905914Y-49265094D02*
X122810676Y-49217475D01*
X122810676Y-49217475D02*
X122715438Y-49122237D01*
X122715438Y-49122237D02*
X122667819Y-48979380D01*
X122667819Y-48979380D02*
X122667819Y-48884142D01*
X122667819Y-48884142D02*
X122715438Y-48741285D01*
X122715438Y-48741285D02*
X122763057Y-48693666D01*
X122667819Y-48360332D02*
X122667819Y-47693666D01*
X122667819Y-47693666D02*
X123667819Y-48122237D01*
X123973595Y-37791319D02*
X123973595Y-38600842D01*
X123973595Y-38600842D02*
X124021214Y-38696080D01*
X124021214Y-38696080D02*
X124068833Y-38743700D01*
X124068833Y-38743700D02*
X124164071Y-38791319D01*
X124164071Y-38791319D02*
X124354547Y-38791319D01*
X124354547Y-38791319D02*
X124449785Y-38743700D01*
X124449785Y-38743700D02*
X124497404Y-38696080D01*
X124497404Y-38696080D02*
X124545023Y-38600842D01*
X124545023Y-38600842D02*
X124545023Y-37791319D01*
X125545023Y-38791319D02*
X124973595Y-38791319D01*
X125259309Y-38791319D02*
X125259309Y-37791319D01*
X125259309Y-37791319D02*
X125164071Y-37934176D01*
X125164071Y-37934176D02*
X125068833Y-38029414D01*
X125068833Y-38029414D02*
X124973595Y-38077033D01*
X155817580Y-49397857D02*
X155865200Y-49445476D01*
X155865200Y-49445476D02*
X155912819Y-49588333D01*
X155912819Y-49588333D02*
X155912819Y-49683571D01*
X155912819Y-49683571D02*
X155865200Y-49826428D01*
X155865200Y-49826428D02*
X155769961Y-49921666D01*
X155769961Y-49921666D02*
X155674723Y-49969285D01*
X155674723Y-49969285D02*
X155484247Y-50016904D01*
X155484247Y-50016904D02*
X155341390Y-50016904D01*
X155341390Y-50016904D02*
X155150914Y-49969285D01*
X155150914Y-49969285D02*
X155055676Y-49921666D01*
X155055676Y-49921666D02*
X154960438Y-49826428D01*
X154960438Y-49826428D02*
X154912819Y-49683571D01*
X154912819Y-49683571D02*
X154912819Y-49588333D01*
X154912819Y-49588333D02*
X154960438Y-49445476D01*
X154960438Y-49445476D02*
X155008057Y-49397857D01*
X155912819Y-48445476D02*
X155912819Y-49016904D01*
X155912819Y-48731190D02*
X154912819Y-48731190D01*
X154912819Y-48731190D02*
X155055676Y-48826428D01*
X155055676Y-48826428D02*
X155150914Y-48921666D01*
X155150914Y-48921666D02*
X155198533Y-49016904D01*
X154912819Y-48112142D02*
X154912819Y-47493095D01*
X154912819Y-47493095D02*
X155293771Y-47826428D01*
X155293771Y-47826428D02*
X155293771Y-47683571D01*
X155293771Y-47683571D02*
X155341390Y-47588333D01*
X155341390Y-47588333D02*
X155389009Y-47540714D01*
X155389009Y-47540714D02*
X155484247Y-47493095D01*
X155484247Y-47493095D02*
X155722342Y-47493095D01*
X155722342Y-47493095D02*
X155817580Y-47540714D01*
X155817580Y-47540714D02*
X155865200Y-47588333D01*
X155865200Y-47588333D02*
X155912819Y-47683571D01*
X155912819Y-47683571D02*
X155912819Y-47969285D01*
X155912819Y-47969285D02*
X155865200Y-48064523D01*
X155865200Y-48064523D02*
X155817580Y-48112142D01*
X117282333Y-40331580D02*
X117234714Y-40379200D01*
X117234714Y-40379200D02*
X117091857Y-40426819D01*
X117091857Y-40426819D02*
X116996619Y-40426819D01*
X116996619Y-40426819D02*
X116853762Y-40379200D01*
X116853762Y-40379200D02*
X116758524Y-40283961D01*
X116758524Y-40283961D02*
X116710905Y-40188723D01*
X116710905Y-40188723D02*
X116663286Y-39998247D01*
X116663286Y-39998247D02*
X116663286Y-39855390D01*
X116663286Y-39855390D02*
X116710905Y-39664914D01*
X116710905Y-39664914D02*
X116758524Y-39569676D01*
X116758524Y-39569676D02*
X116853762Y-39474438D01*
X116853762Y-39474438D02*
X116996619Y-39426819D01*
X116996619Y-39426819D02*
X117091857Y-39426819D01*
X117091857Y-39426819D02*
X117234714Y-39474438D01*
X117234714Y-39474438D02*
X117282333Y-39522057D01*
X118234714Y-40426819D02*
X117663286Y-40426819D01*
X117949000Y-40426819D02*
X117949000Y-39426819D01*
X117949000Y-39426819D02*
X117853762Y-39569676D01*
X117853762Y-39569676D02*
X117758524Y-39664914D01*
X117758524Y-39664914D02*
X117663286Y-39712533D01*
X214590476Y-33728819D02*
X214590476Y-32728819D01*
X214590476Y-32728819D02*
X214971428Y-32728819D01*
X214971428Y-32728819D02*
X215066666Y-32776438D01*
X215066666Y-32776438D02*
X215114285Y-32824057D01*
X215114285Y-32824057D02*
X215161904Y-32919295D01*
X215161904Y-32919295D02*
X215161904Y-33062152D01*
X215161904Y-33062152D02*
X215114285Y-33157390D01*
X215114285Y-33157390D02*
X215066666Y-33205009D01*
X215066666Y-33205009D02*
X214971428Y-33252628D01*
X214971428Y-33252628D02*
X214590476Y-33252628D01*
X215590476Y-33728819D02*
X215590476Y-32728819D01*
X215590476Y-32728819D02*
X215923809Y-33443104D01*
X215923809Y-33443104D02*
X216257142Y-32728819D01*
X216257142Y-32728819D02*
X216257142Y-33728819D01*
X216638095Y-32728819D02*
X217257142Y-32728819D01*
X217257142Y-32728819D02*
X216923809Y-33109771D01*
X216923809Y-33109771D02*
X217066666Y-33109771D01*
X217066666Y-33109771D02*
X217161904Y-33157390D01*
X217161904Y-33157390D02*
X217209523Y-33205009D01*
X217209523Y-33205009D02*
X217257142Y-33300247D01*
X217257142Y-33300247D02*
X217257142Y-33538342D01*
X217257142Y-33538342D02*
X217209523Y-33633580D01*
X217209523Y-33633580D02*
X217161904Y-33681200D01*
X217161904Y-33681200D02*
X217066666Y-33728819D01*
X217066666Y-33728819D02*
X216780952Y-33728819D01*
X216780952Y-33728819D02*
X216685714Y-33681200D01*
X216685714Y-33681200D02*
X216638095Y-33633580D01*
X175375580Y-49397857D02*
X175423200Y-49445476D01*
X175423200Y-49445476D02*
X175470819Y-49588333D01*
X175470819Y-49588333D02*
X175470819Y-49683571D01*
X175470819Y-49683571D02*
X175423200Y-49826428D01*
X175423200Y-49826428D02*
X175327961Y-49921666D01*
X175327961Y-49921666D02*
X175232723Y-49969285D01*
X175232723Y-49969285D02*
X175042247Y-50016904D01*
X175042247Y-50016904D02*
X174899390Y-50016904D01*
X174899390Y-50016904D02*
X174708914Y-49969285D01*
X174708914Y-49969285D02*
X174613676Y-49921666D01*
X174613676Y-49921666D02*
X174518438Y-49826428D01*
X174518438Y-49826428D02*
X174470819Y-49683571D01*
X174470819Y-49683571D02*
X174470819Y-49588333D01*
X174470819Y-49588333D02*
X174518438Y-49445476D01*
X174518438Y-49445476D02*
X174566057Y-49397857D01*
X175470819Y-48445476D02*
X175470819Y-49016904D01*
X175470819Y-48731190D02*
X174470819Y-48731190D01*
X174470819Y-48731190D02*
X174613676Y-48826428D01*
X174613676Y-48826428D02*
X174708914Y-48921666D01*
X174708914Y-48921666D02*
X174756533Y-49016904D01*
X174899390Y-47874047D02*
X174851771Y-47969285D01*
X174851771Y-47969285D02*
X174804152Y-48016904D01*
X174804152Y-48016904D02*
X174708914Y-48064523D01*
X174708914Y-48064523D02*
X174661295Y-48064523D01*
X174661295Y-48064523D02*
X174566057Y-48016904D01*
X174566057Y-48016904D02*
X174518438Y-47969285D01*
X174518438Y-47969285D02*
X174470819Y-47874047D01*
X174470819Y-47874047D02*
X174470819Y-47683571D01*
X174470819Y-47683571D02*
X174518438Y-47588333D01*
X174518438Y-47588333D02*
X174566057Y-47540714D01*
X174566057Y-47540714D02*
X174661295Y-47493095D01*
X174661295Y-47493095D02*
X174708914Y-47493095D01*
X174708914Y-47493095D02*
X174804152Y-47540714D01*
X174804152Y-47540714D02*
X174851771Y-47588333D01*
X174851771Y-47588333D02*
X174899390Y-47683571D01*
X174899390Y-47683571D02*
X174899390Y-47874047D01*
X174899390Y-47874047D02*
X174947009Y-47969285D01*
X174947009Y-47969285D02*
X174994628Y-48016904D01*
X174994628Y-48016904D02*
X175089866Y-48064523D01*
X175089866Y-48064523D02*
X175280342Y-48064523D01*
X175280342Y-48064523D02*
X175375580Y-48016904D01*
X175375580Y-48016904D02*
X175423200Y-47969285D01*
X175423200Y-47969285D02*
X175470819Y-47874047D01*
X175470819Y-47874047D02*
X175470819Y-47683571D01*
X175470819Y-47683571D02*
X175423200Y-47588333D01*
X175423200Y-47588333D02*
X175375580Y-47540714D01*
X175375580Y-47540714D02*
X175280342Y-47493095D01*
X175280342Y-47493095D02*
X175089866Y-47493095D01*
X175089866Y-47493095D02*
X174994628Y-47540714D01*
X174994628Y-47540714D02*
X174947009Y-47588333D01*
X174947009Y-47588333D02*
X174899390Y-47683571D01*
X188490095Y-37791319D02*
X188490095Y-38600842D01*
X188490095Y-38600842D02*
X188537714Y-38696080D01*
X188537714Y-38696080D02*
X188585333Y-38743700D01*
X188585333Y-38743700D02*
X188680571Y-38791319D01*
X188680571Y-38791319D02*
X188871047Y-38791319D01*
X188871047Y-38791319D02*
X188966285Y-38743700D01*
X188966285Y-38743700D02*
X189013904Y-38696080D01*
X189013904Y-38696080D02*
X189061523Y-38600842D01*
X189061523Y-38600842D02*
X189061523Y-37791319D01*
X190013904Y-37791319D02*
X189537714Y-37791319D01*
X189537714Y-37791319D02*
X189490095Y-38267509D01*
X189490095Y-38267509D02*
X189537714Y-38219890D01*
X189537714Y-38219890D02*
X189632952Y-38172271D01*
X189632952Y-38172271D02*
X189871047Y-38172271D01*
X189871047Y-38172271D02*
X189966285Y-38219890D01*
X189966285Y-38219890D02*
X190013904Y-38267509D01*
X190013904Y-38267509D02*
X190061523Y-38362747D01*
X190061523Y-38362747D02*
X190061523Y-38600842D01*
X190061523Y-38600842D02*
X190013904Y-38696080D01*
X190013904Y-38696080D02*
X189966285Y-38743700D01*
X189966285Y-38743700D02*
X189871047Y-38791319D01*
X189871047Y-38791319D02*
X189632952Y-38791319D01*
X189632952Y-38791319D02*
X189537714Y-38743700D01*
X189537714Y-38743700D02*
X189490095Y-38696080D01*
X184546142Y-38459580D02*
X184498523Y-38507200D01*
X184498523Y-38507200D02*
X184355666Y-38554819D01*
X184355666Y-38554819D02*
X184260428Y-38554819D01*
X184260428Y-38554819D02*
X184117571Y-38507200D01*
X184117571Y-38507200D02*
X184022333Y-38411961D01*
X184022333Y-38411961D02*
X183974714Y-38316723D01*
X183974714Y-38316723D02*
X183927095Y-38126247D01*
X183927095Y-38126247D02*
X183927095Y-37983390D01*
X183927095Y-37983390D02*
X183974714Y-37792914D01*
X183974714Y-37792914D02*
X184022333Y-37697676D01*
X184022333Y-37697676D02*
X184117571Y-37602438D01*
X184117571Y-37602438D02*
X184260428Y-37554819D01*
X184260428Y-37554819D02*
X184355666Y-37554819D01*
X184355666Y-37554819D02*
X184498523Y-37602438D01*
X184498523Y-37602438D02*
X184546142Y-37650057D01*
X184927095Y-37650057D02*
X184974714Y-37602438D01*
X184974714Y-37602438D02*
X185069952Y-37554819D01*
X185069952Y-37554819D02*
X185308047Y-37554819D01*
X185308047Y-37554819D02*
X185403285Y-37602438D01*
X185403285Y-37602438D02*
X185450904Y-37650057D01*
X185450904Y-37650057D02*
X185498523Y-37745295D01*
X185498523Y-37745295D02*
X185498523Y-37840533D01*
X185498523Y-37840533D02*
X185450904Y-37983390D01*
X185450904Y-37983390D02*
X184879476Y-38554819D01*
X184879476Y-38554819D02*
X185498523Y-38554819D01*
X186355666Y-37554819D02*
X186165190Y-37554819D01*
X186165190Y-37554819D02*
X186069952Y-37602438D01*
X186069952Y-37602438D02*
X186022333Y-37650057D01*
X186022333Y-37650057D02*
X185927095Y-37792914D01*
X185927095Y-37792914D02*
X185879476Y-37983390D01*
X185879476Y-37983390D02*
X185879476Y-38364342D01*
X185879476Y-38364342D02*
X185927095Y-38459580D01*
X185927095Y-38459580D02*
X185974714Y-38507200D01*
X185974714Y-38507200D02*
X186069952Y-38554819D01*
X186069952Y-38554819D02*
X186260428Y-38554819D01*
X186260428Y-38554819D02*
X186355666Y-38507200D01*
X186355666Y-38507200D02*
X186403285Y-38459580D01*
X186403285Y-38459580D02*
X186450904Y-38364342D01*
X186450904Y-38364342D02*
X186450904Y-38126247D01*
X186450904Y-38126247D02*
X186403285Y-38031009D01*
X186403285Y-38031009D02*
X186355666Y-37983390D01*
X186355666Y-37983390D02*
X186260428Y-37935771D01*
X186260428Y-37935771D02*
X186069952Y-37935771D01*
X186069952Y-37935771D02*
X185974714Y-37983390D01*
X185974714Y-37983390D02*
X185927095Y-38031009D01*
X185927095Y-38031009D02*
X185879476Y-38126247D01*
X139561580Y-49436857D02*
X139609200Y-49484476D01*
X139609200Y-49484476D02*
X139656819Y-49627333D01*
X139656819Y-49627333D02*
X139656819Y-49722571D01*
X139656819Y-49722571D02*
X139609200Y-49865428D01*
X139609200Y-49865428D02*
X139513961Y-49960666D01*
X139513961Y-49960666D02*
X139418723Y-50008285D01*
X139418723Y-50008285D02*
X139228247Y-50055904D01*
X139228247Y-50055904D02*
X139085390Y-50055904D01*
X139085390Y-50055904D02*
X138894914Y-50008285D01*
X138894914Y-50008285D02*
X138799676Y-49960666D01*
X138799676Y-49960666D02*
X138704438Y-49865428D01*
X138704438Y-49865428D02*
X138656819Y-49722571D01*
X138656819Y-49722571D02*
X138656819Y-49627333D01*
X138656819Y-49627333D02*
X138704438Y-49484476D01*
X138704438Y-49484476D02*
X138752057Y-49436857D01*
X139656819Y-48484476D02*
X139656819Y-49055904D01*
X139656819Y-48770190D02*
X138656819Y-48770190D01*
X138656819Y-48770190D02*
X138799676Y-48865428D01*
X138799676Y-48865428D02*
X138894914Y-48960666D01*
X138894914Y-48960666D02*
X138942533Y-49055904D01*
X138656819Y-47865428D02*
X138656819Y-47770190D01*
X138656819Y-47770190D02*
X138704438Y-47674952D01*
X138704438Y-47674952D02*
X138752057Y-47627333D01*
X138752057Y-47627333D02*
X138847295Y-47579714D01*
X138847295Y-47579714D02*
X139037771Y-47532095D01*
X139037771Y-47532095D02*
X139275866Y-47532095D01*
X139275866Y-47532095D02*
X139466342Y-47579714D01*
X139466342Y-47579714D02*
X139561580Y-47627333D01*
X139561580Y-47627333D02*
X139609200Y-47674952D01*
X139609200Y-47674952D02*
X139656819Y-47770190D01*
X139656819Y-47770190D02*
X139656819Y-47865428D01*
X139656819Y-47865428D02*
X139609200Y-47960666D01*
X139609200Y-47960666D02*
X139561580Y-48008285D01*
X139561580Y-48008285D02*
X139466342Y-48055904D01*
X139466342Y-48055904D02*
X139275866Y-48103523D01*
X139275866Y-48103523D02*
X139037771Y-48103523D01*
X139037771Y-48103523D02*
X138847295Y-48055904D01*
X138847295Y-48055904D02*
X138752057Y-48008285D01*
X138752057Y-48008285D02*
X138704438Y-47960666D01*
X138704438Y-47960666D02*
X138656819Y-47865428D01*
X120258142Y-38446580D02*
X120210523Y-38494200D01*
X120210523Y-38494200D02*
X120067666Y-38541819D01*
X120067666Y-38541819D02*
X119972428Y-38541819D01*
X119972428Y-38541819D02*
X119829571Y-38494200D01*
X119829571Y-38494200D02*
X119734333Y-38398961D01*
X119734333Y-38398961D02*
X119686714Y-38303723D01*
X119686714Y-38303723D02*
X119639095Y-38113247D01*
X119639095Y-38113247D02*
X119639095Y-37970390D01*
X119639095Y-37970390D02*
X119686714Y-37779914D01*
X119686714Y-37779914D02*
X119734333Y-37684676D01*
X119734333Y-37684676D02*
X119829571Y-37589438D01*
X119829571Y-37589438D02*
X119972428Y-37541819D01*
X119972428Y-37541819D02*
X120067666Y-37541819D01*
X120067666Y-37541819D02*
X120210523Y-37589438D01*
X120210523Y-37589438D02*
X120258142Y-37637057D01*
X120639095Y-37637057D02*
X120686714Y-37589438D01*
X120686714Y-37589438D02*
X120781952Y-37541819D01*
X120781952Y-37541819D02*
X121020047Y-37541819D01*
X121020047Y-37541819D02*
X121115285Y-37589438D01*
X121115285Y-37589438D02*
X121162904Y-37637057D01*
X121162904Y-37637057D02*
X121210523Y-37732295D01*
X121210523Y-37732295D02*
X121210523Y-37827533D01*
X121210523Y-37827533D02*
X121162904Y-37970390D01*
X121162904Y-37970390D02*
X120591476Y-38541819D01*
X120591476Y-38541819D02*
X121210523Y-38541819D01*
X121591476Y-37637057D02*
X121639095Y-37589438D01*
X121639095Y-37589438D02*
X121734333Y-37541819D01*
X121734333Y-37541819D02*
X121972428Y-37541819D01*
X121972428Y-37541819D02*
X122067666Y-37589438D01*
X122067666Y-37589438D02*
X122115285Y-37637057D01*
X122115285Y-37637057D02*
X122162904Y-37732295D01*
X122162904Y-37732295D02*
X122162904Y-37827533D01*
X122162904Y-37827533D02*
X122115285Y-37970390D01*
X122115285Y-37970390D02*
X121543857Y-38541819D01*
X121543857Y-38541819D02*
X122162904Y-38541819D01*
X171819580Y-49397857D02*
X171867200Y-49445476D01*
X171867200Y-49445476D02*
X171914819Y-49588333D01*
X171914819Y-49588333D02*
X171914819Y-49683571D01*
X171914819Y-49683571D02*
X171867200Y-49826428D01*
X171867200Y-49826428D02*
X171771961Y-49921666D01*
X171771961Y-49921666D02*
X171676723Y-49969285D01*
X171676723Y-49969285D02*
X171486247Y-50016904D01*
X171486247Y-50016904D02*
X171343390Y-50016904D01*
X171343390Y-50016904D02*
X171152914Y-49969285D01*
X171152914Y-49969285D02*
X171057676Y-49921666D01*
X171057676Y-49921666D02*
X170962438Y-49826428D01*
X170962438Y-49826428D02*
X170914819Y-49683571D01*
X170914819Y-49683571D02*
X170914819Y-49588333D01*
X170914819Y-49588333D02*
X170962438Y-49445476D01*
X170962438Y-49445476D02*
X171010057Y-49397857D01*
X171914819Y-48445476D02*
X171914819Y-49016904D01*
X171914819Y-48731190D02*
X170914819Y-48731190D01*
X170914819Y-48731190D02*
X171057676Y-48826428D01*
X171057676Y-48826428D02*
X171152914Y-48921666D01*
X171152914Y-48921666D02*
X171200533Y-49016904D01*
X170914819Y-47588333D02*
X170914819Y-47778809D01*
X170914819Y-47778809D02*
X170962438Y-47874047D01*
X170962438Y-47874047D02*
X171010057Y-47921666D01*
X171010057Y-47921666D02*
X171152914Y-48016904D01*
X171152914Y-48016904D02*
X171343390Y-48064523D01*
X171343390Y-48064523D02*
X171724342Y-48064523D01*
X171724342Y-48064523D02*
X171819580Y-48016904D01*
X171819580Y-48016904D02*
X171867200Y-47969285D01*
X171867200Y-47969285D02*
X171914819Y-47874047D01*
X171914819Y-47874047D02*
X171914819Y-47683571D01*
X171914819Y-47683571D02*
X171867200Y-47588333D01*
X171867200Y-47588333D02*
X171819580Y-47540714D01*
X171819580Y-47540714D02*
X171724342Y-47493095D01*
X171724342Y-47493095D02*
X171486247Y-47493095D01*
X171486247Y-47493095D02*
X171391009Y-47540714D01*
X171391009Y-47540714D02*
X171343390Y-47588333D01*
X171343390Y-47588333D02*
X171295771Y-47683571D01*
X171295771Y-47683571D02*
X171295771Y-47874047D01*
X171295771Y-47874047D02*
X171343390Y-47969285D01*
X171343390Y-47969285D02*
X171391009Y-48016904D01*
X171391009Y-48016904D02*
X171486247Y-48064523D01*
X195410333Y-40331580D02*
X195362714Y-40379200D01*
X195362714Y-40379200D02*
X195219857Y-40426819D01*
X195219857Y-40426819D02*
X195124619Y-40426819D01*
X195124619Y-40426819D02*
X194981762Y-40379200D01*
X194981762Y-40379200D02*
X194886524Y-40283961D01*
X194886524Y-40283961D02*
X194838905Y-40188723D01*
X194838905Y-40188723D02*
X194791286Y-39998247D01*
X194791286Y-39998247D02*
X194791286Y-39855390D01*
X194791286Y-39855390D02*
X194838905Y-39664914D01*
X194838905Y-39664914D02*
X194886524Y-39569676D01*
X194886524Y-39569676D02*
X194981762Y-39474438D01*
X194981762Y-39474438D02*
X195124619Y-39426819D01*
X195124619Y-39426819D02*
X195219857Y-39426819D01*
X195219857Y-39426819D02*
X195362714Y-39474438D01*
X195362714Y-39474438D02*
X195410333Y-39522057D01*
X196267476Y-39426819D02*
X196077000Y-39426819D01*
X196077000Y-39426819D02*
X195981762Y-39474438D01*
X195981762Y-39474438D02*
X195934143Y-39522057D01*
X195934143Y-39522057D02*
X195838905Y-39664914D01*
X195838905Y-39664914D02*
X195791286Y-39855390D01*
X195791286Y-39855390D02*
X195791286Y-40236342D01*
X195791286Y-40236342D02*
X195838905Y-40331580D01*
X195838905Y-40331580D02*
X195886524Y-40379200D01*
X195886524Y-40379200D02*
X195981762Y-40426819D01*
X195981762Y-40426819D02*
X196172238Y-40426819D01*
X196172238Y-40426819D02*
X196267476Y-40379200D01*
X196267476Y-40379200D02*
X196315095Y-40331580D01*
X196315095Y-40331580D02*
X196362714Y-40236342D01*
X196362714Y-40236342D02*
X196362714Y-39998247D01*
X196362714Y-39998247D02*
X196315095Y-39903009D01*
X196315095Y-39903009D02*
X196267476Y-39855390D01*
X196267476Y-39855390D02*
X196172238Y-39807771D01*
X196172238Y-39807771D02*
X195981762Y-39807771D01*
X195981762Y-39807771D02*
X195886524Y-39855390D01*
X195886524Y-39855390D02*
X195838905Y-39903009D01*
X195838905Y-39903009D02*
X195791286Y-39998247D01*
X170976333Y-35600819D02*
X170643000Y-35124628D01*
X170404905Y-35600819D02*
X170404905Y-34600819D01*
X170404905Y-34600819D02*
X170785857Y-34600819D01*
X170785857Y-34600819D02*
X170881095Y-34648438D01*
X170881095Y-34648438D02*
X170928714Y-34696057D01*
X170928714Y-34696057D02*
X170976333Y-34791295D01*
X170976333Y-34791295D02*
X170976333Y-34934152D01*
X170976333Y-34934152D02*
X170928714Y-35029390D01*
X170928714Y-35029390D02*
X170881095Y-35077009D01*
X170881095Y-35077009D02*
X170785857Y-35124628D01*
X170785857Y-35124628D02*
X170404905Y-35124628D01*
X171833476Y-34934152D02*
X171833476Y-35600819D01*
X171595381Y-34553200D02*
X171357286Y-35267485D01*
X171357286Y-35267485D02*
X171976333Y-35267485D01*
D12*
%TO.C,R3*%
X154903742Y-36053500D02*
X155378258Y-36053500D01*
X154903742Y-37098500D02*
X155378258Y-37098500D01*
%TO.C,R5*%
X186779742Y-36053500D02*
X187254258Y-36053500D01*
X186779742Y-37098500D02*
X187254258Y-37098500D01*
%TO.C,C23*%
X137551580Y-39114000D02*
X137270420Y-39114000D01*
X137551580Y-40134000D02*
X137270420Y-40134000D01*
%TO.C,C12*%
X142248000Y-45579420D02*
X142248000Y-45860580D01*
X143268000Y-45579420D02*
X143268000Y-45860580D01*
%TO.C,C15*%
X158504000Y-45579420D02*
X158504000Y-45860580D01*
X159524000Y-45579420D02*
X159524000Y-45860580D01*
%TO.C,U2*%
X139612000Y-39980000D02*
X139612000Y-39745000D01*
X139612000Y-42725000D02*
X139612000Y-42250000D01*
X140087000Y-39505000D02*
X139912000Y-39505000D01*
X140087000Y-42725000D02*
X139612000Y-42725000D01*
X142357000Y-39505000D02*
X142832000Y-39505000D01*
X142357000Y-42725000D02*
X142832000Y-42725000D01*
X142832000Y-39505000D02*
X142832000Y-39980000D01*
X142832000Y-42725000D02*
X142832000Y-42250000D01*
X139612000Y-39505000D02*
X139372000Y-39175000D01*
X139852000Y-39175000D01*
X139612000Y-39505000D01*
G36*
X139612000Y-39505000D02*
G01*
X139372000Y-39175000D01*
X139852000Y-39175000D01*
X139612000Y-39505000D01*
G37*
%TO.C,C21*%
X190762000Y-45592420D02*
X190762000Y-45873580D01*
X191782000Y-45592420D02*
X191782000Y-45873580D01*
%TO.C,C14*%
X156726000Y-45579420D02*
X156726000Y-45860580D01*
X157746000Y-45579420D02*
X157746000Y-45860580D01*
D13*
%TO.C,REF\u002A\u002A*%
X166993388Y-48419645D02*
X167050865Y-48437206D01*
X167087872Y-48459395D01*
X167099927Y-48476942D01*
X167096609Y-48497742D01*
X167075079Y-48530419D01*
X167056874Y-48553562D01*
X167019344Y-48595402D01*
X166991148Y-48613005D01*
X166967111Y-48611856D01*
X166895808Y-48593710D01*
X166843442Y-48594534D01*
X166800918Y-48615098D01*
X166786642Y-48627134D01*
X166740947Y-48669483D01*
X166740947Y-49222526D01*
X166557131Y-49222526D01*
X166557131Y-48420421D01*
X166649039Y-48420421D01*
X166704219Y-48422603D01*
X166732688Y-48430351D01*
X166740943Y-48445468D01*
X166740947Y-48445916D01*
X166744845Y-48461749D01*
X166762474Y-48459684D01*
X166786901Y-48448261D01*
X166837350Y-48427005D01*
X166878316Y-48414216D01*
X166931028Y-48410938D01*
X166993388Y-48419645D01*
G36*
X166993388Y-48419645D02*
G01*
X167050865Y-48437206D01*
X167087872Y-48459395D01*
X167099927Y-48476942D01*
X167096609Y-48497742D01*
X167075079Y-48530419D01*
X167056874Y-48553562D01*
X167019344Y-48595402D01*
X166991148Y-48613005D01*
X166967111Y-48611856D01*
X166895808Y-48593710D01*
X166843442Y-48594534D01*
X166800918Y-48615098D01*
X166786642Y-48627134D01*
X166740947Y-48669483D01*
X166740947Y-49222526D01*
X166557131Y-49222526D01*
X166557131Y-48420421D01*
X166649039Y-48420421D01*
X166704219Y-48422603D01*
X166732688Y-48430351D01*
X166740943Y-48445468D01*
X166740947Y-48445916D01*
X166744845Y-48461749D01*
X166762474Y-48459684D01*
X166786901Y-48448261D01*
X166837350Y-48427005D01*
X166878316Y-48414216D01*
X166931028Y-48410938D01*
X166993388Y-48419645D01*
G37*
X166775167Y-49673447D02*
X166839408Y-49686112D01*
X166875980Y-49704864D01*
X166914453Y-49736017D01*
X166859717Y-49805127D01*
X166825969Y-49846979D01*
X166803053Y-49867398D01*
X166780279Y-49870517D01*
X166746956Y-49860472D01*
X166731314Y-49854789D01*
X166667542Y-49846404D01*
X166609140Y-49864378D01*
X166566264Y-49904982D01*
X166559299Y-49917929D01*
X166551713Y-49952224D01*
X166545859Y-50015427D01*
X166542011Y-50103060D01*
X166540443Y-50210640D01*
X166540421Y-50225944D01*
X166540421Y-50492526D01*
X166356605Y-50492526D01*
X166356605Y-49673710D01*
X166448513Y-49673710D01*
X166501507Y-49675094D01*
X166529115Y-49681252D01*
X166539324Y-49695194D01*
X166540421Y-49708344D01*
X166540421Y-49742978D01*
X166584450Y-49708344D01*
X166634937Y-49684716D01*
X166702760Y-49673033D01*
X166775167Y-49673447D01*
G36*
X166775167Y-49673447D02*
G01*
X166839408Y-49686112D01*
X166875980Y-49704864D01*
X166914453Y-49736017D01*
X166859717Y-49805127D01*
X166825969Y-49846979D01*
X166803053Y-49867398D01*
X166780279Y-49870517D01*
X166746956Y-49860472D01*
X166731314Y-49854789D01*
X166667542Y-49846404D01*
X166609140Y-49864378D01*
X166566264Y-49904982D01*
X166559299Y-49917929D01*
X166551713Y-49952224D01*
X166545859Y-50015427D01*
X166542011Y-50103060D01*
X166540443Y-50210640D01*
X166540421Y-50225944D01*
X166540421Y-50492526D01*
X166356605Y-50492526D01*
X166356605Y-49673710D01*
X166448513Y-49673710D01*
X166501507Y-49675094D01*
X166529115Y-49681252D01*
X166539324Y-49695194D01*
X166540421Y-49708344D01*
X166540421Y-49742978D01*
X166584450Y-49708344D01*
X166634937Y-49684716D01*
X166702760Y-49673033D01*
X166775167Y-49673447D01*
G37*
X163281881Y-49675486D02*
X163306888Y-49682982D01*
X163314950Y-49699451D01*
X163315289Y-49706886D01*
X163316736Y-49727594D01*
X163326698Y-49730845D01*
X163353612Y-49716648D01*
X163369598Y-49706948D01*
X163420033Y-49686175D01*
X163480272Y-49675904D01*
X163543434Y-49675114D01*
X163602637Y-49682786D01*
X163651002Y-49697898D01*
X163681646Y-49719432D01*
X163687689Y-49746366D01*
X163684639Y-49753660D01*
X163662406Y-49783937D01*
X163627930Y-49821175D01*
X163621694Y-49827195D01*
X163588833Y-49854875D01*
X163560480Y-49863818D01*
X163520827Y-49857576D01*
X163504942Y-49853429D01*
X163455509Y-49843467D01*
X163420752Y-49847947D01*
X163391400Y-49863746D01*
X163364513Y-49884949D01*
X163344710Y-49911614D01*
X163330948Y-49948827D01*
X163322184Y-50001673D01*
X163317374Y-50075237D01*
X163315474Y-50174605D01*
X163315289Y-50234601D01*
X163315289Y-50492526D01*
X163148184Y-50492526D01*
X163148184Y-49673710D01*
X163231736Y-49673710D01*
X163281881Y-49675486D01*
G36*
X163281881Y-49675486D02*
G01*
X163306888Y-49682982D01*
X163314950Y-49699451D01*
X163315289Y-49706886D01*
X163316736Y-49727594D01*
X163326698Y-49730845D01*
X163353612Y-49716648D01*
X163369598Y-49706948D01*
X163420033Y-49686175D01*
X163480272Y-49675904D01*
X163543434Y-49675114D01*
X163602637Y-49682786D01*
X163651002Y-49697898D01*
X163681646Y-49719432D01*
X163687689Y-49746366D01*
X163684639Y-49753660D01*
X163662406Y-49783937D01*
X163627930Y-49821175D01*
X163621694Y-49827195D01*
X163588833Y-49854875D01*
X163560480Y-49863818D01*
X163520827Y-49857576D01*
X163504942Y-49853429D01*
X163455509Y-49843467D01*
X163420752Y-49847947D01*
X163391400Y-49863746D01*
X163364513Y-49884949D01*
X163344710Y-49911614D01*
X163330948Y-49948827D01*
X163322184Y-50001673D01*
X163317374Y-50075237D01*
X163315474Y-50174605D01*
X163315289Y-50234601D01*
X163315289Y-50492526D01*
X163148184Y-50492526D01*
X163148184Y-49673710D01*
X163231736Y-49673710D01*
X163281881Y-49675486D01*
G37*
X165922131Y-48680533D02*
X165923710Y-48803089D01*
X165929481Y-48896179D01*
X165940991Y-48963651D01*
X165959790Y-49009355D01*
X165987426Y-49037139D01*
X166025448Y-49050854D01*
X166072526Y-49054358D01*
X166121832Y-49050432D01*
X166159283Y-49036089D01*
X166186428Y-49007478D01*
X166204815Y-48960751D01*
X166215993Y-48892058D01*
X166221511Y-48797550D01*
X166222921Y-48680533D01*
X166222921Y-48420421D01*
X166406736Y-48420421D01*
X166406736Y-49222526D01*
X166314828Y-49222526D01*
X166259422Y-49220281D01*
X166230891Y-49212396D01*
X166222921Y-49197428D01*
X166218120Y-49184097D01*
X166199014Y-49186917D01*
X166160504Y-49205783D01*
X166072239Y-49234887D01*
X165978623Y-49232825D01*
X165888921Y-49201221D01*
X165846204Y-49176257D01*
X165813621Y-49149226D01*
X165789817Y-49115405D01*
X165773439Y-49070068D01*
X165763131Y-49008489D01*
X165757541Y-48925943D01*
X165755312Y-48817705D01*
X165755026Y-48734004D01*
X165755026Y-48420421D01*
X165922131Y-48420421D01*
X165922131Y-48680533D01*
G36*
X165922131Y-48680533D02*
G01*
X165923710Y-48803089D01*
X165929481Y-48896179D01*
X165940991Y-48963651D01*
X165959790Y-49009355D01*
X165987426Y-49037139D01*
X166025448Y-49050854D01*
X166072526Y-49054358D01*
X166121832Y-49050432D01*
X166159283Y-49036089D01*
X166186428Y-49007478D01*
X166204815Y-48960751D01*
X166215993Y-48892058D01*
X166221511Y-48797550D01*
X166222921Y-48680533D01*
X166222921Y-48420421D01*
X166406736Y-48420421D01*
X166406736Y-49222526D01*
X166314828Y-49222526D01*
X166259422Y-49220281D01*
X166230891Y-49212396D01*
X166222921Y-49197428D01*
X166218120Y-49184097D01*
X166199014Y-49186917D01*
X166160504Y-49205783D01*
X166072239Y-49234887D01*
X165978623Y-49232825D01*
X165888921Y-49201221D01*
X165846204Y-49176257D01*
X165813621Y-49149226D01*
X165789817Y-49115405D01*
X165773439Y-49070068D01*
X165763131Y-49008489D01*
X165757541Y-48925943D01*
X165755312Y-48817705D01*
X165755026Y-48734004D01*
X165755026Y-48420421D01*
X165922131Y-48420421D01*
X165922131Y-48680533D01*
G37*
X163599957Y-48434226D02*
X163641546Y-48454090D01*
X163681825Y-48482784D01*
X163712510Y-48515809D01*
X163734861Y-48557931D01*
X163750136Y-48613915D01*
X163759592Y-48688528D01*
X163764487Y-48786535D01*
X163766081Y-48912702D01*
X163766106Y-48925914D01*
X163766473Y-49222526D01*
X163582657Y-49222526D01*
X163582657Y-48949081D01*
X163582527Y-48847777D01*
X163581621Y-48774353D01*
X163579173Y-48723271D01*
X163574414Y-48688990D01*
X163566574Y-48665971D01*
X163554885Y-48648673D01*
X163538602Y-48631581D01*
X163481634Y-48594857D01*
X163419445Y-48588042D01*
X163360199Y-48611261D01*
X163339595Y-48628543D01*
X163324470Y-48644791D01*
X163313610Y-48662191D01*
X163306310Y-48686212D01*
X163301863Y-48722322D01*
X163299564Y-48775988D01*
X163298704Y-48852680D01*
X163298578Y-48946043D01*
X163298578Y-49222526D01*
X163114763Y-49222526D01*
X163114763Y-48420421D01*
X163206671Y-48420421D01*
X163261851Y-48422603D01*
X163290320Y-48430351D01*
X163298575Y-48445468D01*
X163298578Y-48445916D01*
X163302408Y-48460720D01*
X163319301Y-48459040D01*
X163352888Y-48442773D01*
X163429063Y-48418840D01*
X163516200Y-48416178D01*
X163599957Y-48434226D01*
G36*
X163599957Y-48434226D02*
G01*
X163641546Y-48454090D01*
X163681825Y-48482784D01*
X163712510Y-48515809D01*
X163734861Y-48557931D01*
X163750136Y-48613915D01*
X163759592Y-48688528D01*
X163764487Y-48786535D01*
X163766081Y-48912702D01*
X163766106Y-48925914D01*
X163766473Y-49222526D01*
X163582657Y-49222526D01*
X163582657Y-48949081D01*
X163582527Y-48847777D01*
X163581621Y-48774353D01*
X163579173Y-48723271D01*
X163574414Y-48688990D01*
X163566574Y-48665971D01*
X163554885Y-48648673D01*
X163538602Y-48631581D01*
X163481634Y-48594857D01*
X163419445Y-48588042D01*
X163360199Y-48611261D01*
X163339595Y-48628543D01*
X163324470Y-48644791D01*
X163313610Y-48662191D01*
X163306310Y-48686212D01*
X163301863Y-48722322D01*
X163299564Y-48775988D01*
X163298704Y-48852680D01*
X163298578Y-48946043D01*
X163298578Y-49222526D01*
X163114763Y-49222526D01*
X163114763Y-48420421D01*
X163206671Y-48420421D01*
X163261851Y-48422603D01*
X163290320Y-48430351D01*
X163298575Y-48445468D01*
X163298578Y-48445916D01*
X163302408Y-48460720D01*
X163319301Y-48459040D01*
X163352888Y-48442773D01*
X163429063Y-48418840D01*
X163516200Y-48416178D01*
X163599957Y-48434226D01*
G37*
X167548576Y-48427419D02*
X167645395Y-48468549D01*
X167675890Y-48488571D01*
X167714865Y-48519340D01*
X167739331Y-48543533D01*
X167743578Y-48551413D01*
X167731584Y-48568899D01*
X167700887Y-48598570D01*
X167676312Y-48619279D01*
X167609046Y-48673336D01*
X167555930Y-48628642D01*
X167514884Y-48599789D01*
X167474863Y-48589829D01*
X167429059Y-48592261D01*
X167356324Y-48610345D01*
X167306256Y-48647881D01*
X167275829Y-48708562D01*
X167262017Y-48796081D01*
X167262013Y-48796136D01*
X167263208Y-48893958D01*
X167281772Y-48965730D01*
X167318804Y-49014595D01*
X167344050Y-49031143D01*
X167411097Y-49051749D01*
X167482709Y-49051762D01*
X167545015Y-49031768D01*
X167559763Y-49022000D01*
X167596750Y-48997047D01*
X167625668Y-48992958D01*
X167656856Y-49011530D01*
X167691336Y-49044887D01*
X167745912Y-49101196D01*
X167685318Y-49151142D01*
X167591698Y-49207513D01*
X167486125Y-49235293D01*
X167375798Y-49233282D01*
X167303343Y-49214862D01*
X167218656Y-49169310D01*
X167150927Y-49097650D01*
X167120157Y-49047066D01*
X167095236Y-48974488D01*
X167082766Y-48882569D01*
X167082670Y-48782948D01*
X167094870Y-48687267D01*
X167119290Y-48607169D01*
X167123136Y-48598956D01*
X167180093Y-48518413D01*
X167257209Y-48459771D01*
X167348390Y-48424247D01*
X167447543Y-48413057D01*
X167548576Y-48427419D01*
G36*
X167548576Y-48427419D02*
G01*
X167645395Y-48468549D01*
X167675890Y-48488571D01*
X167714865Y-48519340D01*
X167739331Y-48543533D01*
X167743578Y-48551413D01*
X167731584Y-48568899D01*
X167700887Y-48598570D01*
X167676312Y-48619279D01*
X167609046Y-48673336D01*
X167555930Y-48628642D01*
X167514884Y-48599789D01*
X167474863Y-48589829D01*
X167429059Y-48592261D01*
X167356324Y-48610345D01*
X167306256Y-48647881D01*
X167275829Y-48708562D01*
X167262017Y-48796081D01*
X167262013Y-48796136D01*
X167263208Y-48893958D01*
X167281772Y-48965730D01*
X167318804Y-49014595D01*
X167344050Y-49031143D01*
X167411097Y-49051749D01*
X167482709Y-49051762D01*
X167545015Y-49031768D01*
X167559763Y-49022000D01*
X167596750Y-48997047D01*
X167625668Y-48992958D01*
X167656856Y-49011530D01*
X167691336Y-49044887D01*
X167745912Y-49101196D01*
X167685318Y-49151142D01*
X167591698Y-49207513D01*
X167486125Y-49235293D01*
X167375798Y-49233282D01*
X167303343Y-49214862D01*
X167218656Y-49169310D01*
X167150927Y-49097650D01*
X167120157Y-49047066D01*
X167095236Y-48974488D01*
X167082766Y-48882569D01*
X167082670Y-48782948D01*
X167094870Y-48687267D01*
X167119290Y-48607169D01*
X167123136Y-48598956D01*
X167180093Y-48518413D01*
X167257209Y-48459771D01*
X167348390Y-48424247D01*
X167447543Y-48413057D01*
X167548576Y-48427419D01*
G37*
X165413669Y-48430310D02*
X165498192Y-48476340D01*
X165564321Y-48549006D01*
X165595478Y-48608106D01*
X165608855Y-48660305D01*
X165617522Y-48734719D01*
X165621237Y-48820442D01*
X165619754Y-48906569D01*
X165612831Y-48982193D01*
X165604745Y-49022584D01*
X165577465Y-49077840D01*
X165530220Y-49136530D01*
X165473282Y-49187852D01*
X165416924Y-49221005D01*
X165415550Y-49221531D01*
X165345616Y-49236018D01*
X165262737Y-49236377D01*
X165183977Y-49223188D01*
X165153566Y-49212617D01*
X165075239Y-49168201D01*
X165019143Y-49110007D01*
X164982286Y-49032965D01*
X164961680Y-48932001D01*
X164957018Y-48879116D01*
X164957613Y-48812663D01*
X165136736Y-48812663D01*
X165142770Y-48909630D01*
X165160138Y-48983523D01*
X165187740Y-49030736D01*
X165207404Y-49044237D01*
X165257787Y-49053651D01*
X165317673Y-49050864D01*
X165369449Y-49037316D01*
X165383027Y-49029862D01*
X165418849Y-48986451D01*
X165442493Y-48920014D01*
X165452558Y-48839161D01*
X165447642Y-48752502D01*
X165436655Y-48700349D01*
X165405109Y-48639951D01*
X165355311Y-48602197D01*
X165295337Y-48589143D01*
X165233264Y-48602849D01*
X165185582Y-48636372D01*
X165160525Y-48664031D01*
X165145900Y-48691294D01*
X165138929Y-48728190D01*
X165136833Y-48784750D01*
X165136736Y-48812663D01*
X164957613Y-48812663D01*
X164958282Y-48737994D01*
X164981265Y-48622271D01*
X165025972Y-48531941D01*
X165092405Y-48467000D01*
X165180565Y-48427445D01*
X165199495Y-48422858D01*
X165313266Y-48412090D01*
X165413669Y-48430310D01*
G36*
X165413669Y-48430310D02*
G01*
X165498192Y-48476340D01*
X165564321Y-48549006D01*
X165595478Y-48608106D01*
X165608855Y-48660305D01*
X165617522Y-48734719D01*
X165621237Y-48820442D01*
X165619754Y-48906569D01*
X165612831Y-48982193D01*
X165604745Y-49022584D01*
X165577465Y-49077840D01*
X165530220Y-49136530D01*
X165473282Y-49187852D01*
X165416924Y-49221005D01*
X165415550Y-49221531D01*
X165345616Y-49236018D01*
X165262737Y-49236377D01*
X165183977Y-49223188D01*
X165153566Y-49212617D01*
X165075239Y-49168201D01*
X165019143Y-49110007D01*
X164982286Y-49032965D01*
X164961680Y-48932001D01*
X164957018Y-48879116D01*
X164957613Y-48812663D01*
X165136736Y-48812663D01*
X165142770Y-48909630D01*
X165160138Y-48983523D01*
X165187740Y-49030736D01*
X165207404Y-49044237D01*
X165257787Y-49053651D01*
X165317673Y-49050864D01*
X165369449Y-49037316D01*
X165383027Y-49029862D01*
X165418849Y-48986451D01*
X165442493Y-48920014D01*
X165452558Y-48839161D01*
X165447642Y-48752502D01*
X165436655Y-48700349D01*
X165405109Y-48639951D01*
X165355311Y-48602197D01*
X165295337Y-48589143D01*
X165233264Y-48602849D01*
X165185582Y-48636372D01*
X165160525Y-48664031D01*
X165145900Y-48691294D01*
X165138929Y-48728190D01*
X165136833Y-48784750D01*
X165136736Y-48812663D01*
X164957613Y-48812663D01*
X164958282Y-48737994D01*
X164981265Y-48622271D01*
X165025972Y-48531941D01*
X165092405Y-48467000D01*
X165180565Y-48427445D01*
X165199495Y-48422858D01*
X165313266Y-48412090D01*
X165413669Y-48430310D01*
G37*
X164976130Y-49677104D02*
X165042220Y-49682066D01*
X165128626Y-49941079D01*
X165215031Y-50200092D01*
X165242124Y-50108184D01*
X165258428Y-50051384D01*
X165279875Y-49974625D01*
X165303035Y-49890251D01*
X165315280Y-49844993D01*
X165361344Y-49673710D01*
X165551387Y-49673710D01*
X165494582Y-49853349D01*
X165466607Y-49941704D01*
X165432813Y-50048281D01*
X165397520Y-50159454D01*
X165366013Y-50258579D01*
X165294250Y-50484171D01*
X165139286Y-50494253D01*
X165097270Y-50355528D01*
X165071359Y-50269351D01*
X165043083Y-50174347D01*
X165018369Y-50090441D01*
X165017394Y-50087102D01*
X164998935Y-50030248D01*
X164982649Y-49991456D01*
X164971242Y-49976787D01*
X164968898Y-49978483D01*
X164960671Y-50001225D01*
X164945038Y-50049940D01*
X164923904Y-50118502D01*
X164899170Y-50200785D01*
X164885787Y-50246046D01*
X164813311Y-50492526D01*
X164659495Y-50492526D01*
X164536531Y-50104006D01*
X164501988Y-49995022D01*
X164470521Y-49896048D01*
X164443616Y-49811736D01*
X164422759Y-49746734D01*
X164409438Y-49705692D01*
X164405388Y-49693701D01*
X164408594Y-49681423D01*
X164433765Y-49676046D01*
X164486146Y-49676584D01*
X164494345Y-49676990D01*
X164591482Y-49682066D01*
X164655100Y-49916013D01*
X164678484Y-50001333D01*
X164699381Y-50076335D01*
X164715951Y-50134507D01*
X164726354Y-50169337D01*
X164728276Y-50175016D01*
X164736241Y-50168486D01*
X164752304Y-50134654D01*
X164774621Y-50078127D01*
X164801345Y-50003510D01*
X164823937Y-49936107D01*
X164910041Y-49672143D01*
X164976130Y-49677104D01*
G36*
X164976130Y-49677104D02*
G01*
X165042220Y-49682066D01*
X165128626Y-49941079D01*
X165215031Y-50200092D01*
X165242124Y-50108184D01*
X165258428Y-50051384D01*
X165279875Y-49974625D01*
X165303035Y-49890251D01*
X165315280Y-49844993D01*
X165361344Y-49673710D01*
X165551387Y-49673710D01*
X165494582Y-49853349D01*
X165466607Y-49941704D01*
X165432813Y-50048281D01*
X165397520Y-50159454D01*
X165366013Y-50258579D01*
X165294250Y-50484171D01*
X165139286Y-50494253D01*
X165097270Y-50355528D01*
X165071359Y-50269351D01*
X165043083Y-50174347D01*
X165018369Y-50090441D01*
X165017394Y-50087102D01*
X164998935Y-50030248D01*
X164982649Y-49991456D01*
X164971242Y-49976787D01*
X164968898Y-49978483D01*
X164960671Y-50001225D01*
X164945038Y-50049940D01*
X164923904Y-50118502D01*
X164899170Y-50200785D01*
X164885787Y-50246046D01*
X164813311Y-50492526D01*
X164659495Y-50492526D01*
X164536531Y-50104006D01*
X164501988Y-49995022D01*
X164470521Y-49896048D01*
X164443616Y-49811736D01*
X164422759Y-49746734D01*
X164409438Y-49705692D01*
X164405388Y-49693701D01*
X164408594Y-49681423D01*
X164433765Y-49676046D01*
X164486146Y-49676584D01*
X164494345Y-49676990D01*
X164591482Y-49682066D01*
X164655100Y-49916013D01*
X164678484Y-50001333D01*
X164699381Y-50076335D01*
X164715951Y-50134507D01*
X164726354Y-50169337D01*
X164728276Y-50175016D01*
X164736241Y-50168486D01*
X164752304Y-50134654D01*
X164774621Y-50078127D01*
X164801345Y-50003510D01*
X164823937Y-49936107D01*
X164910041Y-49672143D01*
X164976130Y-49677104D01*
G37*
X161228784Y-48429104D02*
X161316205Y-48467754D01*
X161382570Y-48532290D01*
X161427976Y-48622812D01*
X161452518Y-48739418D01*
X161454277Y-48757624D01*
X161455656Y-48885984D01*
X161437784Y-48998496D01*
X161401750Y-49089688D01*
X161382455Y-49119022D01*
X161315245Y-49181106D01*
X161229650Y-49221316D01*
X161133890Y-49238003D01*
X161036187Y-49229517D01*
X160961917Y-49203380D01*
X160898047Y-49159335D01*
X160845846Y-49101587D01*
X160844943Y-49100236D01*
X160823744Y-49064593D01*
X160809967Y-49028752D01*
X160801624Y-48983519D01*
X160796727Y-48919701D01*
X160794569Y-48867368D01*
X160793671Y-48819910D01*
X160960743Y-48819910D01*
X160962376Y-48867154D01*
X160968304Y-48930046D01*
X160978761Y-48970407D01*
X160997619Y-48999122D01*
X161015281Y-49015896D01*
X161077894Y-49051016D01*
X161143408Y-49055710D01*
X161204421Y-49030440D01*
X161234928Y-49002124D01*
X161256911Y-48973589D01*
X161269769Y-48946284D01*
X161275412Y-48910750D01*
X161275751Y-48857524D01*
X161274012Y-48808506D01*
X161270271Y-48738482D01*
X161264341Y-48693064D01*
X161253653Y-48663440D01*
X161235639Y-48640797D01*
X161221363Y-48627855D01*
X161161651Y-48593860D01*
X161097234Y-48592165D01*
X161043219Y-48612301D01*
X160997140Y-48654352D01*
X160969689Y-48723428D01*
X160960743Y-48819910D01*
X160793671Y-48819910D01*
X160792599Y-48763299D01*
X160795964Y-48685468D01*
X160806045Y-48626930D01*
X160824226Y-48580737D01*
X160851890Y-48539942D01*
X160862146Y-48527828D01*
X160926278Y-48467474D01*
X160995066Y-48432220D01*
X161079189Y-48417450D01*
X161120209Y-48416243D01*
X161228784Y-48429104D01*
G36*
X161228784Y-48429104D02*
G01*
X161316205Y-48467754D01*
X161382570Y-48532290D01*
X161427976Y-48622812D01*
X161452518Y-48739418D01*
X161454277Y-48757624D01*
X161455656Y-48885984D01*
X161437784Y-48998496D01*
X161401750Y-49089688D01*
X161382455Y-49119022D01*
X161315245Y-49181106D01*
X161229650Y-49221316D01*
X161133890Y-49238003D01*
X161036187Y-49229517D01*
X160961917Y-49203380D01*
X160898047Y-49159335D01*
X160845846Y-49101587D01*
X160844943Y-49100236D01*
X160823744Y-49064593D01*
X160809967Y-49028752D01*
X160801624Y-48983519D01*
X160796727Y-48919701D01*
X160794569Y-48867368D01*
X160793671Y-48819910D01*
X160960743Y-48819910D01*
X160962376Y-48867154D01*
X160968304Y-48930046D01*
X160978761Y-48970407D01*
X160997619Y-48999122D01*
X161015281Y-49015896D01*
X161077894Y-49051016D01*
X161143408Y-49055710D01*
X161204421Y-49030440D01*
X161234928Y-49002124D01*
X161256911Y-48973589D01*
X161269769Y-48946284D01*
X161275412Y-48910750D01*
X161275751Y-48857524D01*
X161274012Y-48808506D01*
X161270271Y-48738482D01*
X161264341Y-48693064D01*
X161253653Y-48663440D01*
X161235639Y-48640797D01*
X161221363Y-48627855D01*
X161161651Y-48593860D01*
X161097234Y-48592165D01*
X161043219Y-48612301D01*
X160997140Y-48654352D01*
X160969689Y-48723428D01*
X160960743Y-48819910D01*
X160793671Y-48819910D01*
X160792599Y-48763299D01*
X160795964Y-48685468D01*
X160806045Y-48626930D01*
X160824226Y-48580737D01*
X160851890Y-48539942D01*
X160862146Y-48527828D01*
X160926278Y-48467474D01*
X160995066Y-48432220D01*
X161079189Y-48417450D01*
X161120209Y-48416243D01*
X161228784Y-48429104D01*
G37*
X164334631Y-50492526D02*
X164242723Y-50492526D01*
X164189377Y-50490962D01*
X164161593Y-50484485D01*
X164151590Y-50470418D01*
X164150815Y-50460906D01*
X164149128Y-50441832D01*
X164138490Y-50438174D01*
X164110535Y-50449932D01*
X164088795Y-50460906D01*
X164005332Y-50486911D01*
X163914604Y-50488416D01*
X163840842Y-50469021D01*
X163772154Y-50422165D01*
X163719794Y-50353004D01*
X163691122Y-50271427D01*
X163690392Y-50266866D01*
X163686132Y-50217101D01*
X163684014Y-50145659D01*
X163684184Y-50091626D01*
X163866720Y-50091626D01*
X163870949Y-50163441D01*
X163880568Y-50222634D01*
X163893590Y-50256060D01*
X163942856Y-50301740D01*
X164001350Y-50318115D01*
X164061671Y-50304873D01*
X164113217Y-50265373D01*
X164132738Y-50238807D01*
X164144152Y-50207106D01*
X164149498Y-50160832D01*
X164150815Y-50091328D01*
X164148458Y-50022499D01*
X164142233Y-49962026D01*
X164133408Y-49921556D01*
X164131937Y-49917929D01*
X164096347Y-49874802D01*
X164044400Y-49851124D01*
X163986278Y-49847301D01*
X163932160Y-49863738D01*
X163892226Y-49900840D01*
X163888083Y-49908222D01*
X163875116Y-49953239D01*
X163868052Y-50017967D01*
X163866720Y-50091626D01*
X163684184Y-50091626D01*
X163684271Y-50064230D01*
X163685472Y-50020405D01*
X163693645Y-49911988D01*
X163710630Y-49830588D01*
X163738887Y-49770412D01*
X163780872Y-49725666D01*
X163821632Y-49699400D01*
X163878581Y-49680935D01*
X163949411Y-49674602D01*
X164021941Y-49679760D01*
X164083986Y-49695769D01*
X164116768Y-49714920D01*
X164150815Y-49745732D01*
X164150815Y-49356210D01*
X164334631Y-49356210D01*
X164334631Y-50492526D01*
G36*
X164334631Y-50492526D02*
G01*
X164242723Y-50492526D01*
X164189377Y-50490962D01*
X164161593Y-50484485D01*
X164151590Y-50470418D01*
X164150815Y-50460906D01*
X164149128Y-50441832D01*
X164138490Y-50438174D01*
X164110535Y-50449932D01*
X164088795Y-50460906D01*
X164005332Y-50486911D01*
X163914604Y-50488416D01*
X163840842Y-50469021D01*
X163772154Y-50422165D01*
X163719794Y-50353004D01*
X163691122Y-50271427D01*
X163690392Y-50266866D01*
X163686132Y-50217101D01*
X163684014Y-50145659D01*
X163684184Y-50091626D01*
X163866720Y-50091626D01*
X163870949Y-50163441D01*
X163880568Y-50222634D01*
X163893590Y-50256060D01*
X163942856Y-50301740D01*
X164001350Y-50318115D01*
X164061671Y-50304873D01*
X164113217Y-50265373D01*
X164132738Y-50238807D01*
X164144152Y-50207106D01*
X164149498Y-50160832D01*
X164150815Y-50091328D01*
X164148458Y-50022499D01*
X164142233Y-49962026D01*
X164133408Y-49921556D01*
X164131937Y-49917929D01*
X164096347Y-49874802D01*
X164044400Y-49851124D01*
X163986278Y-49847301D01*
X163932160Y-49863738D01*
X163892226Y-49900840D01*
X163888083Y-49908222D01*
X163875116Y-49953239D01*
X163868052Y-50017967D01*
X163866720Y-50091626D01*
X163684184Y-50091626D01*
X163684271Y-50064230D01*
X163685472Y-50020405D01*
X163693645Y-49911988D01*
X163710630Y-49830588D01*
X163738887Y-49770412D01*
X163780872Y-49725666D01*
X163821632Y-49699400D01*
X163878581Y-49680935D01*
X163949411Y-49674602D01*
X164021941Y-49679760D01*
X164083986Y-49695769D01*
X164116768Y-49714920D01*
X164150815Y-49745732D01*
X164150815Y-49356210D01*
X164334631Y-49356210D01*
X164334631Y-50492526D01*
G37*
X168160784Y-48417554D02*
X168203574Y-48427949D01*
X168285609Y-48466013D01*
X168355757Y-48524149D01*
X168404305Y-48593852D01*
X168410975Y-48609502D01*
X168420124Y-48650496D01*
X168426529Y-48711138D01*
X168428710Y-48772430D01*
X168428710Y-48888316D01*
X168186407Y-48888316D01*
X168086471Y-48888693D01*
X168016069Y-48890987D01*
X167971313Y-48896938D01*
X167948315Y-48908285D01*
X167943189Y-48926771D01*
X167952048Y-48954136D01*
X167967917Y-48986155D01*
X168012184Y-49039592D01*
X168073699Y-49066215D01*
X168148885Y-49065347D01*
X168234053Y-49036371D01*
X168307659Y-49000611D01*
X168368734Y-49048904D01*
X168429810Y-49097197D01*
X168372351Y-49150285D01*
X168295641Y-49200445D01*
X168201302Y-49230688D01*
X168099827Y-49239151D01*
X168001711Y-49223974D01*
X167985881Y-49218824D01*
X167899647Y-49173791D01*
X167835501Y-49106652D01*
X167792091Y-49015405D01*
X167768064Y-48898044D01*
X167767784Y-48895529D01*
X167765633Y-48767627D01*
X167774329Y-48721997D01*
X167944105Y-48721997D01*
X167959697Y-48729013D01*
X168002029Y-48734388D01*
X168064434Y-48737457D01*
X168103981Y-48737921D01*
X168177728Y-48737630D01*
X168223840Y-48735783D01*
X168248100Y-48730912D01*
X168256294Y-48721555D01*
X168254206Y-48706245D01*
X168252455Y-48700322D01*
X168222560Y-48644668D01*
X168175542Y-48599815D01*
X168134049Y-48580105D01*
X168078926Y-48581295D01*
X168023068Y-48605875D01*
X167976212Y-48646570D01*
X167948094Y-48696108D01*
X167944105Y-48721997D01*
X167774329Y-48721997D01*
X167787074Y-48655133D01*
X167829611Y-48560727D01*
X167890747Y-48487088D01*
X167967985Y-48436893D01*
X168058830Y-48412822D01*
X168160784Y-48417554D01*
G36*
X168160784Y-48417554D02*
G01*
X168203574Y-48427949D01*
X168285609Y-48466013D01*
X168355757Y-48524149D01*
X168404305Y-48593852D01*
X168410975Y-48609502D01*
X168420124Y-48650496D01*
X168426529Y-48711138D01*
X168428710Y-48772430D01*
X168428710Y-48888316D01*
X168186407Y-48888316D01*
X168086471Y-48888693D01*
X168016069Y-48890987D01*
X167971313Y-48896938D01*
X167948315Y-48908285D01*
X167943189Y-48926771D01*
X167952048Y-48954136D01*
X167967917Y-48986155D01*
X168012184Y-49039592D01*
X168073699Y-49066215D01*
X168148885Y-49065347D01*
X168234053Y-49036371D01*
X168307659Y-49000611D01*
X168368734Y-49048904D01*
X168429810Y-49097197D01*
X168372351Y-49150285D01*
X168295641Y-49200445D01*
X168201302Y-49230688D01*
X168099827Y-49239151D01*
X168001711Y-49223974D01*
X167985881Y-49218824D01*
X167899647Y-49173791D01*
X167835501Y-49106652D01*
X167792091Y-49015405D01*
X167768064Y-48898044D01*
X167767784Y-48895529D01*
X167765633Y-48767627D01*
X167774329Y-48721997D01*
X167944105Y-48721997D01*
X167959697Y-48729013D01*
X168002029Y-48734388D01*
X168064434Y-48737457D01*
X168103981Y-48737921D01*
X168177728Y-48737630D01*
X168223840Y-48735783D01*
X168248100Y-48730912D01*
X168256294Y-48721555D01*
X168254206Y-48706245D01*
X168252455Y-48700322D01*
X168222560Y-48644668D01*
X168175542Y-48599815D01*
X168134049Y-48580105D01*
X168078926Y-48581295D01*
X168023068Y-48605875D01*
X167976212Y-48646570D01*
X167948094Y-48696108D01*
X167944105Y-48721997D01*
X167774329Y-48721997D01*
X167787074Y-48655133D01*
X167829611Y-48560727D01*
X167890747Y-48487088D01*
X167967985Y-48436893D01*
X168058830Y-48412822D01*
X168160784Y-48417554D01*
G37*
X164620628Y-48417547D02*
X164683908Y-48429548D01*
X164749557Y-48454648D01*
X164756572Y-48457848D01*
X164806356Y-48484026D01*
X164840834Y-48508353D01*
X164851978Y-48523937D01*
X164841366Y-48549353D01*
X164815588Y-48586853D01*
X164804146Y-48600852D01*
X164756992Y-48655954D01*
X164696201Y-48620086D01*
X164638347Y-48596192D01*
X164571500Y-48583420D01*
X164507394Y-48582613D01*
X164457764Y-48594615D01*
X164445854Y-48602105D01*
X164423172Y-48636450D01*
X164420416Y-48676013D01*
X164437388Y-48706920D01*
X164447427Y-48712913D01*
X164477510Y-48720357D01*
X164530389Y-48729106D01*
X164595575Y-48737467D01*
X164607600Y-48738778D01*
X164712297Y-48756888D01*
X164788232Y-48787651D01*
X164838592Y-48833907D01*
X164866564Y-48898497D01*
X164875278Y-48977387D01*
X164863240Y-49067065D01*
X164824151Y-49137486D01*
X164757855Y-49188777D01*
X164664194Y-49221067D01*
X164560223Y-49233807D01*
X164475438Y-49233654D01*
X164406665Y-49222083D01*
X164359697Y-49206109D01*
X164300350Y-49178275D01*
X164245506Y-49145973D01*
X164226013Y-49131755D01*
X164175881Y-49090835D01*
X164296803Y-48968477D01*
X164365543Y-49013967D01*
X164434488Y-49048133D01*
X164508111Y-49066004D01*
X164578883Y-49067889D01*
X164639274Y-49054101D01*
X164681757Y-49024949D01*
X164695474Y-49000352D01*
X164693417Y-48960904D01*
X164659330Y-48930737D01*
X164593308Y-48909906D01*
X164520974Y-48900279D01*
X164409652Y-48881910D01*
X164326952Y-48847254D01*
X164271765Y-48795297D01*
X164242988Y-48725023D01*
X164239001Y-48641707D01*
X164258693Y-48554681D01*
X164303589Y-48488902D01*
X164374091Y-48444068D01*
X164470601Y-48419879D01*
X164542100Y-48415137D01*
X164620628Y-48417547D01*
G36*
X164620628Y-48417547D02*
G01*
X164683908Y-48429548D01*
X164749557Y-48454648D01*
X164756572Y-48457848D01*
X164806356Y-48484026D01*
X164840834Y-48508353D01*
X164851978Y-48523937D01*
X164841366Y-48549353D01*
X164815588Y-48586853D01*
X164804146Y-48600852D01*
X164756992Y-48655954D01*
X164696201Y-48620086D01*
X164638347Y-48596192D01*
X164571500Y-48583420D01*
X164507394Y-48582613D01*
X164457764Y-48594615D01*
X164445854Y-48602105D01*
X164423172Y-48636450D01*
X164420416Y-48676013D01*
X164437388Y-48706920D01*
X164447427Y-48712913D01*
X164477510Y-48720357D01*
X164530389Y-48729106D01*
X164595575Y-48737467D01*
X164607600Y-48738778D01*
X164712297Y-48756888D01*
X164788232Y-48787651D01*
X164838592Y-48833907D01*
X164866564Y-48898497D01*
X164875278Y-48977387D01*
X164863240Y-49067065D01*
X164824151Y-49137486D01*
X164757855Y-49188777D01*
X164664194Y-49221067D01*
X164560223Y-49233807D01*
X164475438Y-49233654D01*
X164406665Y-49222083D01*
X164359697Y-49206109D01*
X164300350Y-49178275D01*
X164245506Y-49145973D01*
X164226013Y-49131755D01*
X164175881Y-49090835D01*
X164296803Y-48968477D01*
X164365543Y-49013967D01*
X164434488Y-49048133D01*
X164508111Y-49066004D01*
X164578883Y-49067889D01*
X164639274Y-49054101D01*
X164681757Y-49024949D01*
X164695474Y-49000352D01*
X164693417Y-48960904D01*
X164659330Y-48930737D01*
X164593308Y-48909906D01*
X164520974Y-48900279D01*
X164409652Y-48881910D01*
X164326952Y-48847254D01*
X164271765Y-48795297D01*
X164242988Y-48725023D01*
X164239001Y-48641707D01*
X164258693Y-48554681D01*
X164303589Y-48488902D01*
X164374091Y-48444068D01*
X164470601Y-48419879D01*
X164542100Y-48415137D01*
X164620628Y-48417547D01*
G37*
X167303193Y-49678078D02*
X167383068Y-49698845D01*
X167449962Y-49741705D01*
X167482351Y-49773723D01*
X167535445Y-49849413D01*
X167565873Y-49937216D01*
X167576327Y-50045150D01*
X167576380Y-50053875D01*
X167576473Y-50141605D01*
X167071534Y-50141605D01*
X167082298Y-50187559D01*
X167101732Y-50229178D01*
X167135745Y-50272544D01*
X167142860Y-50279467D01*
X167204003Y-50316935D01*
X167273729Y-50323289D01*
X167353987Y-50298638D01*
X167367592Y-50292000D01*
X167409319Y-50271819D01*
X167437268Y-50260321D01*
X167442145Y-50259258D01*
X167459168Y-50269583D01*
X167491633Y-50294845D01*
X167508114Y-50308650D01*
X167542264Y-50340361D01*
X167553478Y-50361299D01*
X167545695Y-50380560D01*
X167541535Y-50385827D01*
X167513357Y-50408878D01*
X167466862Y-50436892D01*
X167434434Y-50453246D01*
X167342385Y-50482059D01*
X167240476Y-50491395D01*
X167143963Y-50480332D01*
X167116934Y-50472412D01*
X167033276Y-50427581D01*
X166971266Y-50358598D01*
X166930545Y-50264794D01*
X166910755Y-50145498D01*
X166908582Y-50083118D01*
X166914926Y-49992298D01*
X167075157Y-49992298D01*
X167090655Y-49999012D01*
X167132312Y-50004280D01*
X167192876Y-50007389D01*
X167233907Y-50007921D01*
X167307711Y-50007408D01*
X167354293Y-50005006D01*
X167379848Y-49999422D01*
X167390569Y-49989361D01*
X167392657Y-49974763D01*
X167378331Y-49929796D01*
X167342262Y-49885353D01*
X167294815Y-49851242D01*
X167247349Y-49837288D01*
X167182879Y-49849666D01*
X167127070Y-49885452D01*
X167088374Y-49937033D01*
X167075157Y-49992298D01*
X166914926Y-49992298D01*
X166917821Y-49950866D01*
X166946336Y-49845498D01*
X166994729Y-49766178D01*
X167063604Y-49712071D01*
X167153565Y-49682343D01*
X167202300Y-49676618D01*
X167303193Y-49678078D01*
G36*
X167303193Y-49678078D02*
G01*
X167383068Y-49698845D01*
X167449962Y-49741705D01*
X167482351Y-49773723D01*
X167535445Y-49849413D01*
X167565873Y-49937216D01*
X167576327Y-50045150D01*
X167576380Y-50053875D01*
X167576473Y-50141605D01*
X167071534Y-50141605D01*
X167082298Y-50187559D01*
X167101732Y-50229178D01*
X167135745Y-50272544D01*
X167142860Y-50279467D01*
X167204003Y-50316935D01*
X167273729Y-50323289D01*
X167353987Y-50298638D01*
X167367592Y-50292000D01*
X167409319Y-50271819D01*
X167437268Y-50260321D01*
X167442145Y-50259258D01*
X167459168Y-50269583D01*
X167491633Y-50294845D01*
X167508114Y-50308650D01*
X167542264Y-50340361D01*
X167553478Y-50361299D01*
X167545695Y-50380560D01*
X167541535Y-50385827D01*
X167513357Y-50408878D01*
X167466862Y-50436892D01*
X167434434Y-50453246D01*
X167342385Y-50482059D01*
X167240476Y-50491395D01*
X167143963Y-50480332D01*
X167116934Y-50472412D01*
X167033276Y-50427581D01*
X166971266Y-50358598D01*
X166930545Y-50264794D01*
X166910755Y-50145498D01*
X166908582Y-50083118D01*
X166914926Y-49992298D01*
X167075157Y-49992298D01*
X167090655Y-49999012D01*
X167132312Y-50004280D01*
X167192876Y-50007389D01*
X167233907Y-50007921D01*
X167307711Y-50007408D01*
X167354293Y-50005006D01*
X167379848Y-49999422D01*
X167390569Y-49989361D01*
X167392657Y-49974763D01*
X167378331Y-49929796D01*
X167342262Y-49885353D01*
X167294815Y-49851242D01*
X167247349Y-49837288D01*
X167182879Y-49849666D01*
X167127070Y-49885452D01*
X167088374Y-49937033D01*
X167075157Y-49992298D01*
X166914926Y-49992298D01*
X166917821Y-49950866D01*
X166946336Y-49845498D01*
X166994729Y-49766178D01*
X167063604Y-49712071D01*
X167153565Y-49682343D01*
X167202300Y-49676618D01*
X167303193Y-49678078D01*
G37*
X162799018Y-48439027D02*
X162815670Y-48446866D01*
X162873305Y-48489086D01*
X162927805Y-48550700D01*
X162968499Y-48618543D01*
X162980074Y-48649734D01*
X162990634Y-48705449D01*
X162996931Y-48772781D01*
X162997696Y-48800585D01*
X162997789Y-48888316D01*
X162492850Y-48888316D01*
X162503613Y-48934270D01*
X162530033Y-48988620D01*
X162576222Y-49035591D01*
X162631172Y-49065848D01*
X162666189Y-49072131D01*
X162713677Y-49064506D01*
X162770335Y-49045383D01*
X162789582Y-49036584D01*
X162860759Y-49001036D01*
X162921502Y-49047367D01*
X162956552Y-49078703D01*
X162975202Y-49104567D01*
X162976147Y-49112158D01*
X162959485Y-49130556D01*
X162922970Y-49158515D01*
X162889828Y-49180327D01*
X162800393Y-49219537D01*
X162700129Y-49237285D01*
X162600754Y-49232670D01*
X162521539Y-49208551D01*
X162439880Y-49156884D01*
X162381849Y-49088856D01*
X162345546Y-49000843D01*
X162329072Y-48889216D01*
X162327611Y-48838138D01*
X162333457Y-48721091D01*
X162334175Y-48717686D01*
X162501489Y-48717686D01*
X162506097Y-48728662D01*
X162525036Y-48734715D01*
X162564098Y-48737310D01*
X162629077Y-48737910D01*
X162654097Y-48737921D01*
X162730221Y-48737014D01*
X162778496Y-48733720D01*
X162804460Y-48727181D01*
X162813648Y-48716537D01*
X162813973Y-48713119D01*
X162803487Y-48685956D01*
X162777242Y-48647903D01*
X162765959Y-48634579D01*
X162724072Y-48596896D01*
X162680409Y-48582080D01*
X162656885Y-48580842D01*
X162593243Y-48596329D01*
X162539873Y-48637930D01*
X162506019Y-48698353D01*
X162505419Y-48700322D01*
X162501489Y-48717686D01*
X162334175Y-48717686D01*
X162352899Y-48628928D01*
X162387922Y-48555190D01*
X162430756Y-48502848D01*
X162509948Y-48446092D01*
X162603040Y-48415762D01*
X162702055Y-48413021D01*
X162799018Y-48439027D01*
G36*
X162799018Y-48439027D02*
G01*
X162815670Y-48446866D01*
X162873305Y-48489086D01*
X162927805Y-48550700D01*
X162968499Y-48618543D01*
X162980074Y-48649734D01*
X162990634Y-48705449D01*
X162996931Y-48772781D01*
X162997696Y-48800585D01*
X162997789Y-48888316D01*
X162492850Y-48888316D01*
X162503613Y-48934270D01*
X162530033Y-48988620D01*
X162576222Y-49035591D01*
X162631172Y-49065848D01*
X162666189Y-49072131D01*
X162713677Y-49064506D01*
X162770335Y-49045383D01*
X162789582Y-49036584D01*
X162860759Y-49001036D01*
X162921502Y-49047367D01*
X162956552Y-49078703D01*
X162975202Y-49104567D01*
X162976147Y-49112158D01*
X162959485Y-49130556D01*
X162922970Y-49158515D01*
X162889828Y-49180327D01*
X162800393Y-49219537D01*
X162700129Y-49237285D01*
X162600754Y-49232670D01*
X162521539Y-49208551D01*
X162439880Y-49156884D01*
X162381849Y-49088856D01*
X162345546Y-49000843D01*
X162329072Y-48889216D01*
X162327611Y-48838138D01*
X162333457Y-48721091D01*
X162334175Y-48717686D01*
X162501489Y-48717686D01*
X162506097Y-48728662D01*
X162525036Y-48734715D01*
X162564098Y-48737310D01*
X162629077Y-48737910D01*
X162654097Y-48737921D01*
X162730221Y-48737014D01*
X162778496Y-48733720D01*
X162804460Y-48727181D01*
X162813648Y-48716537D01*
X162813973Y-48713119D01*
X162803487Y-48685956D01*
X162777242Y-48647903D01*
X162765959Y-48634579D01*
X162724072Y-48596896D01*
X162680409Y-48582080D01*
X162656885Y-48580842D01*
X162593243Y-48596329D01*
X162539873Y-48637930D01*
X162506019Y-48698353D01*
X162505419Y-48700322D01*
X162501489Y-48717686D01*
X162334175Y-48717686D01*
X162352899Y-48628928D01*
X162387922Y-48555190D01*
X162430756Y-48502848D01*
X162509948Y-48446092D01*
X162603040Y-48415762D01*
X162702055Y-48413021D01*
X162799018Y-48439027D01*
G37*
X165981992Y-49678673D02*
X166052427Y-49695780D01*
X166072787Y-49704844D01*
X166112253Y-49728583D01*
X166142541Y-49755321D01*
X166164952Y-49789699D01*
X166180786Y-49836360D01*
X166191343Y-49899946D01*
X166197924Y-49985099D01*
X166201828Y-50096462D01*
X166203310Y-50170849D01*
X166208765Y-50492526D01*
X166115580Y-50492526D01*
X166059047Y-50490156D01*
X166029922Y-50482055D01*
X166022394Y-50468451D01*
X166018420Y-50453741D01*
X166000652Y-50456554D01*
X165976440Y-50468348D01*
X165915828Y-50486427D01*
X165837929Y-50491299D01*
X165755995Y-50483330D01*
X165683281Y-50462889D01*
X165676759Y-50460051D01*
X165610302Y-50413365D01*
X165566491Y-50348464D01*
X165546332Y-50272600D01*
X165547872Y-50245344D01*
X165712345Y-50245344D01*
X165726837Y-50282024D01*
X165769805Y-50308309D01*
X165839129Y-50322417D01*
X165876177Y-50324290D01*
X165937919Y-50319494D01*
X165978960Y-50300858D01*
X165988973Y-50292000D01*
X166016100Y-50243806D01*
X166022394Y-50200092D01*
X166022394Y-50141605D01*
X165940930Y-50141605D01*
X165846234Y-50146432D01*
X165779813Y-50161613D01*
X165737846Y-50188200D01*
X165728449Y-50200052D01*
X165712345Y-50245344D01*
X165547872Y-50245344D01*
X165550829Y-50193026D01*
X165580985Y-50116995D01*
X165622131Y-50065612D01*
X165647052Y-50043397D01*
X165671448Y-50028798D01*
X165703191Y-50019897D01*
X165750152Y-50014775D01*
X165820204Y-50011515D01*
X165847990Y-50010577D01*
X166022394Y-50004879D01*
X166022138Y-49952091D01*
X166015384Y-49896603D01*
X165990964Y-49863052D01*
X165941630Y-49841618D01*
X165940306Y-49841236D01*
X165870360Y-49832808D01*
X165801914Y-49843816D01*
X165751047Y-49870585D01*
X165730637Y-49883803D01*
X165708654Y-49881974D01*
X165674826Y-49862824D01*
X165654961Y-49849308D01*
X165616106Y-49820432D01*
X165592038Y-49798786D01*
X165588176Y-49792589D01*
X165604079Y-49760519D01*
X165651065Y-49722219D01*
X165671473Y-49709297D01*
X165730143Y-49687041D01*
X165809212Y-49674432D01*
X165897041Y-49671600D01*
X165981992Y-49678673D01*
G36*
X165981992Y-49678673D02*
G01*
X166052427Y-49695780D01*
X166072787Y-49704844D01*
X166112253Y-49728583D01*
X166142541Y-49755321D01*
X166164952Y-49789699D01*
X166180786Y-49836360D01*
X166191343Y-49899946D01*
X166197924Y-49985099D01*
X166201828Y-50096462D01*
X166203310Y-50170849D01*
X166208765Y-50492526D01*
X166115580Y-50492526D01*
X166059047Y-50490156D01*
X166029922Y-50482055D01*
X166022394Y-50468451D01*
X166018420Y-50453741D01*
X166000652Y-50456554D01*
X165976440Y-50468348D01*
X165915828Y-50486427D01*
X165837929Y-50491299D01*
X165755995Y-50483330D01*
X165683281Y-50462889D01*
X165676759Y-50460051D01*
X165610302Y-50413365D01*
X165566491Y-50348464D01*
X165546332Y-50272600D01*
X165547872Y-50245344D01*
X165712345Y-50245344D01*
X165726837Y-50282024D01*
X165769805Y-50308309D01*
X165839129Y-50322417D01*
X165876177Y-50324290D01*
X165937919Y-50319494D01*
X165978960Y-50300858D01*
X165988973Y-50292000D01*
X166016100Y-50243806D01*
X166022394Y-50200092D01*
X166022394Y-50141605D01*
X165940930Y-50141605D01*
X165846234Y-50146432D01*
X165779813Y-50161613D01*
X165737846Y-50188200D01*
X165728449Y-50200052D01*
X165712345Y-50245344D01*
X165547872Y-50245344D01*
X165550829Y-50193026D01*
X165580985Y-50116995D01*
X165622131Y-50065612D01*
X165647052Y-50043397D01*
X165671448Y-50028798D01*
X165703191Y-50019897D01*
X165750152Y-50014775D01*
X165820204Y-50011515D01*
X165847990Y-50010577D01*
X166022394Y-50004879D01*
X166022138Y-49952091D01*
X166015384Y-49896603D01*
X165990964Y-49863052D01*
X165941630Y-49841618D01*
X165940306Y-49841236D01*
X165870360Y-49832808D01*
X165801914Y-49843816D01*
X165751047Y-49870585D01*
X165730637Y-49883803D01*
X165708654Y-49881974D01*
X165674826Y-49862824D01*
X165654961Y-49849308D01*
X165616106Y-49820432D01*
X165592038Y-49798786D01*
X165588176Y-49792589D01*
X165604079Y-49760519D01*
X165651065Y-49722219D01*
X165671473Y-49709297D01*
X165730143Y-49687041D01*
X165809212Y-49674432D01*
X165897041Y-49671600D01*
X165981992Y-49678673D01*
G37*
X162762457Y-49680184D02*
X162841070Y-49701160D01*
X162900916Y-49739180D01*
X162943147Y-49788978D01*
X162956275Y-49810230D01*
X162965968Y-49832492D01*
X162972744Y-49860970D01*
X162977123Y-49900871D01*
X162979624Y-49957401D01*
X162980768Y-50035767D01*
X162981072Y-50141176D01*
X162981078Y-50169142D01*
X162981078Y-50492526D01*
X162900868Y-50492526D01*
X162849706Y-50488943D01*
X162811877Y-50479866D01*
X162802399Y-50474268D01*
X162776488Y-50464606D01*
X162750024Y-50474268D01*
X162706452Y-50486330D01*
X162643160Y-50491185D01*
X162573010Y-50489078D01*
X162508860Y-50480256D01*
X162471407Y-50468937D01*
X162398933Y-50422412D01*
X162353640Y-50357846D01*
X162333278Y-50272000D01*
X162333088Y-50269796D01*
X162334875Y-50231713D01*
X162496473Y-50231713D01*
X162510601Y-50275030D01*
X162533612Y-50299408D01*
X162579804Y-50317845D01*
X162640775Y-50325205D01*
X162702949Y-50321583D01*
X162752751Y-50307074D01*
X162766703Y-50297765D01*
X162791085Y-50254753D01*
X162797263Y-50205857D01*
X162797263Y-50141605D01*
X162704818Y-50141605D01*
X162616995Y-50148366D01*
X162550418Y-50167520D01*
X162509002Y-50197376D01*
X162496473Y-50231713D01*
X162334875Y-50231713D01*
X162337490Y-50176004D01*
X162368424Y-50101847D01*
X162426581Y-50045767D01*
X162434620Y-50040665D01*
X162469163Y-50024055D01*
X162511918Y-50013996D01*
X162571686Y-50009107D01*
X162642690Y-50007983D01*
X162797263Y-50007921D01*
X162797263Y-49943125D01*
X162790706Y-49892850D01*
X162773975Y-49859169D01*
X162772016Y-49857376D01*
X162734783Y-49842642D01*
X162678580Y-49836931D01*
X162616467Y-49839737D01*
X162561510Y-49850556D01*
X162528899Y-49866782D01*
X162511228Y-49879780D01*
X162492569Y-49882262D01*
X162466819Y-49871613D01*
X162427873Y-49845218D01*
X162369630Y-49800465D01*
X162364284Y-49796273D01*
X162367023Y-49780760D01*
X162389876Y-49754960D01*
X162424609Y-49726289D01*
X162462990Y-49702166D01*
X162475048Y-49696470D01*
X162519034Y-49685103D01*
X162583487Y-49676995D01*
X162655497Y-49673743D01*
X162658864Y-49673736D01*
X162762457Y-49680184D01*
G36*
X162762457Y-49680184D02*
G01*
X162841070Y-49701160D01*
X162900916Y-49739180D01*
X162943147Y-49788978D01*
X162956275Y-49810230D01*
X162965968Y-49832492D01*
X162972744Y-49860970D01*
X162977123Y-49900871D01*
X162979624Y-49957401D01*
X162980768Y-50035767D01*
X162981072Y-50141176D01*
X162981078Y-50169142D01*
X162981078Y-50492526D01*
X162900868Y-50492526D01*
X162849706Y-50488943D01*
X162811877Y-50479866D01*
X162802399Y-50474268D01*
X162776488Y-50464606D01*
X162750024Y-50474268D01*
X162706452Y-50486330D01*
X162643160Y-50491185D01*
X162573010Y-50489078D01*
X162508860Y-50480256D01*
X162471407Y-50468937D01*
X162398933Y-50422412D01*
X162353640Y-50357846D01*
X162333278Y-50272000D01*
X162333088Y-50269796D01*
X162334875Y-50231713D01*
X162496473Y-50231713D01*
X162510601Y-50275030D01*
X162533612Y-50299408D01*
X162579804Y-50317845D01*
X162640775Y-50325205D01*
X162702949Y-50321583D01*
X162752751Y-50307074D01*
X162766703Y-50297765D01*
X162791085Y-50254753D01*
X162797263Y-50205857D01*
X162797263Y-50141605D01*
X162704818Y-50141605D01*
X162616995Y-50148366D01*
X162550418Y-50167520D01*
X162509002Y-50197376D01*
X162496473Y-50231713D01*
X162334875Y-50231713D01*
X162337490Y-50176004D01*
X162368424Y-50101847D01*
X162426581Y-50045767D01*
X162434620Y-50040665D01*
X162469163Y-50024055D01*
X162511918Y-50013996D01*
X162571686Y-50009107D01*
X162642690Y-50007983D01*
X162797263Y-50007921D01*
X162797263Y-49943125D01*
X162790706Y-49892850D01*
X162773975Y-49859169D01*
X162772016Y-49857376D01*
X162734783Y-49842642D01*
X162678580Y-49836931D01*
X162616467Y-49839737D01*
X162561510Y-49850556D01*
X162528899Y-49866782D01*
X162511228Y-49879780D01*
X162492569Y-49882262D01*
X162466819Y-49871613D01*
X162427873Y-49845218D01*
X162369630Y-49800465D01*
X162364284Y-49796273D01*
X162367023Y-49780760D01*
X162389876Y-49754960D01*
X162424609Y-49726289D01*
X162462990Y-49702166D01*
X162475048Y-49696470D01*
X162519034Y-49685103D01*
X162583487Y-49676995D01*
X162655497Y-49673743D01*
X162658864Y-49673736D01*
X162762457Y-49680184D01*
G37*
X162065360Y-48434468D02*
X162100592Y-48451874D01*
X162144040Y-48482206D01*
X162175706Y-48515283D01*
X162197394Y-48556817D01*
X162210903Y-48612522D01*
X162218038Y-48688111D01*
X162220600Y-48789296D01*
X162220750Y-48832797D01*
X162220312Y-48928135D01*
X162218496Y-48996271D01*
X162214545Y-49043418D01*
X162207702Y-49075790D01*
X162197211Y-49099600D01*
X162186296Y-49115843D01*
X162116619Y-49184952D01*
X162034566Y-49226521D01*
X161946050Y-49239023D01*
X161856981Y-49220934D01*
X161828763Y-49208142D01*
X161761210Y-49172931D01*
X161761210Y-49724700D01*
X161810512Y-49699205D01*
X161875473Y-49679480D01*
X161955320Y-49674427D01*
X162035052Y-49683756D01*
X162095265Y-49704714D01*
X162145208Y-49744627D01*
X162187881Y-49801741D01*
X162191090Y-49807605D01*
X162204622Y-49835227D01*
X162214505Y-49863068D01*
X162221309Y-49896794D01*
X162225601Y-49942071D01*
X162227951Y-50004562D01*
X162228928Y-50089935D01*
X162229105Y-50186010D01*
X162229105Y-50492526D01*
X162045289Y-50492526D01*
X162045289Y-49927339D01*
X161993875Y-49884077D01*
X161940466Y-49849472D01*
X161889888Y-49843180D01*
X161839030Y-49859372D01*
X161811925Y-49875227D01*
X161791751Y-49897810D01*
X161777403Y-49931940D01*
X161767776Y-49982434D01*
X161761763Y-50054111D01*
X161758260Y-50151788D01*
X161757026Y-50216802D01*
X161752855Y-50484171D01*
X161665125Y-50489222D01*
X161577394Y-50494273D01*
X161577394Y-48835101D01*
X161761210Y-48835101D01*
X161765896Y-48927600D01*
X161781688Y-48991809D01*
X161811183Y-49031759D01*
X161856980Y-49051480D01*
X161903250Y-49055421D01*
X161955628Y-49050892D01*
X161990390Y-49033069D01*
X162012128Y-49009519D01*
X162029240Y-48984189D01*
X162039427Y-48955969D01*
X162043960Y-48916431D01*
X162044109Y-48857142D01*
X162042584Y-48807498D01*
X162039081Y-48732710D01*
X162033867Y-48683611D01*
X162025087Y-48652467D01*
X162010886Y-48631545D01*
X161997484Y-48619452D01*
X161941487Y-48593081D01*
X161875211Y-48588822D01*
X161837156Y-48597906D01*
X161799477Y-48630196D01*
X161774519Y-48693006D01*
X161762422Y-48785894D01*
X161761210Y-48835101D01*
X161577394Y-48835101D01*
X161577394Y-48420421D01*
X161669302Y-48420421D01*
X161724483Y-48422603D01*
X161752952Y-48430351D01*
X161761206Y-48445468D01*
X161761210Y-48445916D01*
X161765040Y-48460720D01*
X161781933Y-48459039D01*
X161815519Y-48442772D01*
X161893778Y-48417887D01*
X161981827Y-48415271D01*
X162065360Y-48434468D01*
G36*
X162065360Y-48434468D02*
G01*
X162100592Y-48451874D01*
X162144040Y-48482206D01*
X162175706Y-48515283D01*
X162197394Y-48556817D01*
X162210903Y-48612522D01*
X162218038Y-48688111D01*
X162220600Y-48789296D01*
X162220750Y-48832797D01*
X162220312Y-48928135D01*
X162218496Y-48996271D01*
X162214545Y-49043418D01*
X162207702Y-49075790D01*
X162197211Y-49099600D01*
X162186296Y-49115843D01*
X162116619Y-49184952D01*
X162034566Y-49226521D01*
X161946050Y-49239023D01*
X161856981Y-49220934D01*
X161828763Y-49208142D01*
X161761210Y-49172931D01*
X161761210Y-49724700D01*
X161810512Y-49699205D01*
X161875473Y-49679480D01*
X161955320Y-49674427D01*
X162035052Y-49683756D01*
X162095265Y-49704714D01*
X162145208Y-49744627D01*
X162187881Y-49801741D01*
X162191090Y-49807605D01*
X162204622Y-49835227D01*
X162214505Y-49863068D01*
X162221309Y-49896794D01*
X162225601Y-49942071D01*
X162227951Y-50004562D01*
X162228928Y-50089935D01*
X162229105Y-50186010D01*
X162229105Y-50492526D01*
X162045289Y-50492526D01*
X162045289Y-49927339D01*
X161993875Y-49884077D01*
X161940466Y-49849472D01*
X161889888Y-49843180D01*
X161839030Y-49859372D01*
X161811925Y-49875227D01*
X161791751Y-49897810D01*
X161777403Y-49931940D01*
X161767776Y-49982434D01*
X161761763Y-50054111D01*
X161758260Y-50151788D01*
X161757026Y-50216802D01*
X161752855Y-50484171D01*
X161665125Y-50489222D01*
X161577394Y-50494273D01*
X161577394Y-48835101D01*
X161761210Y-48835101D01*
X161765896Y-48927600D01*
X161781688Y-48991809D01*
X161811183Y-49031759D01*
X161856980Y-49051480D01*
X161903250Y-49055421D01*
X161955628Y-49050892D01*
X161990390Y-49033069D01*
X162012128Y-49009519D01*
X162029240Y-48984189D01*
X162039427Y-48955969D01*
X162043960Y-48916431D01*
X162044109Y-48857142D01*
X162042584Y-48807498D01*
X162039081Y-48732710D01*
X162033867Y-48683611D01*
X162025087Y-48652467D01*
X162010886Y-48631545D01*
X161997484Y-48619452D01*
X161941487Y-48593081D01*
X161875211Y-48588822D01*
X161837156Y-48597906D01*
X161799477Y-48630196D01*
X161774519Y-48693006D01*
X161762422Y-48785894D01*
X161761210Y-48835101D01*
X161577394Y-48835101D01*
X161577394Y-48420421D01*
X161669302Y-48420421D01*
X161724483Y-48422603D01*
X161752952Y-48430351D01*
X161761206Y-48445468D01*
X161761210Y-48445916D01*
X161765040Y-48460720D01*
X161781933Y-48459039D01*
X161815519Y-48442772D01*
X161893778Y-48417887D01*
X161981827Y-48415271D01*
X162065360Y-48434468D01*
G37*
X165102964Y-42880576D02*
X165178513Y-43281322D01*
X165736041Y-43511154D01*
X166070465Y-43283748D01*
X166164122Y-43220431D01*
X166248782Y-43163896D01*
X166320495Y-43116727D01*
X166375311Y-43081502D01*
X166409280Y-43060805D01*
X166418530Y-43056342D01*
X166435195Y-43067820D01*
X166470806Y-43099551D01*
X166521371Y-43147483D01*
X166582900Y-43207562D01*
X166651399Y-43275733D01*
X166722879Y-43347945D01*
X166793347Y-43420142D01*
X166858811Y-43488273D01*
X166915280Y-43548283D01*
X166958763Y-43596119D01*
X166985268Y-43627727D01*
X166991605Y-43638305D01*
X166982486Y-43657806D01*
X166956920Y-43700531D01*
X166917597Y-43762298D01*
X166867203Y-43838931D01*
X166808427Y-43926248D01*
X166774368Y-43976052D01*
X166712289Y-44066993D01*
X166657126Y-44149059D01*
X166611554Y-44218163D01*
X166578250Y-44270222D01*
X166559890Y-44301150D01*
X166557131Y-44307650D01*
X166563385Y-44326121D01*
X166580434Y-44369172D01*
X166605703Y-44430749D01*
X166636622Y-44504799D01*
X166670618Y-44585270D01*
X166705118Y-44666107D01*
X166737551Y-44741258D01*
X166765343Y-44804671D01*
X166785923Y-44850293D01*
X166796719Y-44872069D01*
X166797356Y-44872926D01*
X166814307Y-44877084D01*
X166859451Y-44886361D01*
X166928110Y-44899844D01*
X167015602Y-44916621D01*
X167117250Y-44935781D01*
X167176556Y-44946830D01*
X167285172Y-44967510D01*
X167383277Y-44987189D01*
X167465909Y-45004789D01*
X167528104Y-45019233D01*
X167564899Y-45029446D01*
X167572296Y-45032686D01*
X167579540Y-45054617D01*
X167585385Y-45104147D01*
X167589835Y-45175485D01*
X167592893Y-45262839D01*
X167594565Y-45360417D01*
X167594853Y-45462426D01*
X167593761Y-45563075D01*
X167591294Y-45656572D01*
X167587456Y-45737125D01*
X167582250Y-45798942D01*
X167575681Y-45836230D01*
X167571741Y-45843993D01*
X167548188Y-45853298D01*
X167498282Y-45866600D01*
X167428623Y-45882337D01*
X167345813Y-45898946D01*
X167316905Y-45904319D01*
X167177531Y-45929848D01*
X167067436Y-45950408D01*
X166982982Y-45966815D01*
X166920530Y-45979887D01*
X166876444Y-45990441D01*
X166847085Y-45999294D01*
X166828815Y-46007263D01*
X166817998Y-46015165D01*
X166816485Y-46016727D01*
X166801377Y-46041886D01*
X166778329Y-46090850D01*
X166749644Y-46157621D01*
X166717622Y-46236205D01*
X166684565Y-46320607D01*
X166652773Y-46404830D01*
X166624549Y-46482879D01*
X166602193Y-46548759D01*
X166588007Y-46596473D01*
X166584293Y-46620027D01*
X166584602Y-46620852D01*
X166597189Y-46640104D01*
X166625744Y-46682463D01*
X166667267Y-46743521D01*
X166718756Y-46818868D01*
X166777211Y-46904096D01*
X166793858Y-46928315D01*
X166853215Y-47016123D01*
X166905447Y-47096238D01*
X166947708Y-47164062D01*
X166977153Y-47214993D01*
X166990937Y-47244431D01*
X166991605Y-47248048D01*
X166980024Y-47267057D01*
X166948024Y-47304714D01*
X166899718Y-47356973D01*
X166839220Y-47419786D01*
X166770644Y-47489106D01*
X166698104Y-47560885D01*
X166625712Y-47631077D01*
X166557584Y-47695635D01*
X166497832Y-47750510D01*
X166450571Y-47791656D01*
X166419913Y-47815026D01*
X166411432Y-47818842D01*
X166391691Y-47809855D01*
X166351274Y-47785616D01*
X166296763Y-47750209D01*
X166254823Y-47721711D01*
X166178829Y-47669418D01*
X166088834Y-47607845D01*
X165998564Y-47546370D01*
X165950032Y-47513469D01*
X165785762Y-47402359D01*
X165647869Y-47476916D01*
X165585049Y-47509578D01*
X165531629Y-47534966D01*
X165495484Y-47549446D01*
X165486284Y-47551460D01*
X165475221Y-47536584D01*
X165453394Y-47494547D01*
X165422434Y-47429227D01*
X165383970Y-47344500D01*
X165339632Y-47244245D01*
X165291047Y-47132339D01*
X165239846Y-47012659D01*
X165187659Y-46889084D01*
X165136113Y-46765491D01*
X165086840Y-46645757D01*
X165041467Y-46533759D01*
X165001625Y-46433377D01*
X164968942Y-46348486D01*
X164945049Y-46282965D01*
X164931574Y-46240690D01*
X164929406Y-46226172D01*
X164946583Y-46207653D01*
X164984190Y-46177590D01*
X165034366Y-46142232D01*
X165038578Y-46139434D01*
X165168264Y-46035625D01*
X165272834Y-45914515D01*
X165351381Y-45779976D01*
X165402999Y-45635882D01*
X165426782Y-45486105D01*
X165421823Y-45334517D01*
X165387217Y-45184992D01*
X165322057Y-45041400D01*
X165302886Y-45009984D01*
X165203174Y-44883125D01*
X165085377Y-44781255D01*
X164953571Y-44704904D01*
X164811833Y-44654602D01*
X164664242Y-44630879D01*
X164514873Y-44634265D01*
X164367803Y-44665288D01*
X164227111Y-44724480D01*
X164096873Y-44812369D01*
X164056586Y-44848042D01*
X163954055Y-44959706D01*
X163879341Y-45077257D01*
X163828090Y-45209020D01*
X163799546Y-45339507D01*
X163792500Y-45486216D01*
X163815996Y-45633653D01*
X163867649Y-45776834D01*
X163945071Y-45910777D01*
X164045875Y-46030498D01*
X164167676Y-46131014D01*
X164183684Y-46141609D01*
X164234398Y-46176306D01*
X164272950Y-46206370D01*
X164291381Y-46225565D01*
X164291649Y-46226172D01*
X164287692Y-46246936D01*
X164272007Y-46294062D01*
X164246222Y-46363673D01*
X164211969Y-46451893D01*
X164170877Y-46554844D01*
X164124576Y-46668650D01*
X164074696Y-46789435D01*
X164022867Y-46913321D01*
X163970719Y-47036432D01*
X163919882Y-47154891D01*
X163871987Y-47264823D01*
X163828662Y-47362349D01*
X163791538Y-47443593D01*
X163762244Y-47504679D01*
X163742412Y-47541730D01*
X163734426Y-47551460D01*
X163710021Y-47543883D01*
X163664358Y-47523560D01*
X163605310Y-47494125D01*
X163572840Y-47476916D01*
X163434947Y-47402359D01*
X163270677Y-47513469D01*
X163186821Y-47570390D01*
X163095013Y-47633030D01*
X163008980Y-47692011D01*
X162965887Y-47721711D01*
X162905277Y-47762410D01*
X162853955Y-47794663D01*
X162818615Y-47814384D01*
X162807137Y-47818554D01*
X162790430Y-47807307D01*
X162753454Y-47775911D01*
X162699795Y-47727624D01*
X162633038Y-47665708D01*
X162556766Y-47593421D01*
X162508527Y-47547008D01*
X162424133Y-47464087D01*
X162351197Y-47389920D01*
X162292669Y-47327680D01*
X162251497Y-47280541D01*
X162230628Y-47251673D01*
X162228626Y-47245815D01*
X162237917Y-47223532D01*
X162263591Y-47178477D01*
X162302800Y-47115211D01*
X162352697Y-47038295D01*
X162410433Y-46952292D01*
X162426851Y-46928315D01*
X162486677Y-46841170D01*
X162540350Y-46762710D01*
X162584870Y-46697345D01*
X162617235Y-46649484D01*
X162634445Y-46623535D01*
X162636107Y-46620852D01*
X162633621Y-46600172D01*
X162620423Y-46554704D01*
X162598814Y-46490444D01*
X162571096Y-46413387D01*
X162539570Y-46329529D01*
X162506537Y-46244866D01*
X162474299Y-46165392D01*
X162445157Y-46097104D01*
X162421412Y-46045997D01*
X162405365Y-46018067D01*
X162404225Y-46016727D01*
X162394412Y-46008745D01*
X162377839Y-46000851D01*
X162350868Y-45992229D01*
X162309861Y-45982062D01*
X162251180Y-45969531D01*
X162171187Y-45953821D01*
X162066245Y-45934113D01*
X161932715Y-45909592D01*
X161903804Y-45904319D01*
X161818118Y-45887764D01*
X161743418Y-45871569D01*
X161686306Y-45857296D01*
X161653383Y-45846508D01*
X161648969Y-45843993D01*
X161641694Y-45821696D01*
X161635781Y-45771869D01*
X161631234Y-45700304D01*
X161628055Y-45612793D01*
X161626251Y-45515128D01*
X161625823Y-45413101D01*
X161626777Y-45312503D01*
X161629116Y-45219127D01*
X161632844Y-45138765D01*
X161637966Y-45077209D01*
X161644484Y-45040250D01*
X161648414Y-45032686D01*
X161670292Y-45025056D01*
X161720109Y-45012642D01*
X161792903Y-44996522D01*
X161883711Y-44977773D01*
X161987569Y-44957471D01*
X162044154Y-44946830D01*
X162151514Y-44926760D01*
X162247254Y-44908580D01*
X162326694Y-44893199D01*
X162385154Y-44881531D01*
X162417955Y-44874488D01*
X162423354Y-44872926D01*
X162432478Y-44855322D01*
X162451765Y-44812918D01*
X162478645Y-44751772D01*
X162510546Y-44677943D01*
X162544898Y-44597489D01*
X162579129Y-44516468D01*
X162610669Y-44440937D01*
X162636946Y-44376955D01*
X162655389Y-44330580D01*
X162663429Y-44307869D01*
X162663578Y-44306876D01*
X162654465Y-44288961D01*
X162628914Y-44247733D01*
X162589612Y-44187291D01*
X162539243Y-44111731D01*
X162480494Y-44025152D01*
X162446342Y-43975421D01*
X162384110Y-43884236D01*
X162328836Y-43801449D01*
X162283218Y-43731249D01*
X162249952Y-43677824D01*
X162231736Y-43645361D01*
X162229105Y-43638083D01*
X162240414Y-43621145D01*
X162271681Y-43584978D01*
X162318910Y-43533635D01*
X162378108Y-43471167D01*
X162445281Y-43401626D01*
X162516434Y-43329065D01*
X162587574Y-43257535D01*
X162654707Y-43191087D01*
X162713839Y-43133774D01*
X162760975Y-43089647D01*
X162792123Y-43062759D01*
X162802543Y-43056342D01*
X162819509Y-43065365D01*
X162860089Y-43090715D01*
X162920337Y-43129810D01*
X162996307Y-43180071D01*
X163084054Y-43238917D01*
X163150244Y-43283748D01*
X163484668Y-43511154D01*
X163763433Y-43396238D01*
X164042197Y-43281322D01*
X164117746Y-42880576D01*
X164193294Y-42479829D01*
X165027415Y-42479829D01*
X165102964Y-42880576D01*
G36*
X165102964Y-42880576D02*
G01*
X165178513Y-43281322D01*
X165736041Y-43511154D01*
X166070465Y-43283748D01*
X166164122Y-43220431D01*
X166248782Y-43163896D01*
X166320495Y-43116727D01*
X166375311Y-43081502D01*
X166409280Y-43060805D01*
X166418530Y-43056342D01*
X166435195Y-43067820D01*
X166470806Y-43099551D01*
X166521371Y-43147483D01*
X166582900Y-43207562D01*
X166651399Y-43275733D01*
X166722879Y-43347945D01*
X166793347Y-43420142D01*
X166858811Y-43488273D01*
X166915280Y-43548283D01*
X166958763Y-43596119D01*
X166985268Y-43627727D01*
X166991605Y-43638305D01*
X166982486Y-43657806D01*
X166956920Y-43700531D01*
X166917597Y-43762298D01*
X166867203Y-43838931D01*
X166808427Y-43926248D01*
X166774368Y-43976052D01*
X166712289Y-44066993D01*
X166657126Y-44149059D01*
X166611554Y-44218163D01*
X166578250Y-44270222D01*
X166559890Y-44301150D01*
X166557131Y-44307650D01*
X166563385Y-44326121D01*
X166580434Y-44369172D01*
X166605703Y-44430749D01*
X166636622Y-44504799D01*
X166670618Y-44585270D01*
X166705118Y-44666107D01*
X166737551Y-44741258D01*
X166765343Y-44804671D01*
X166785923Y-44850293D01*
X166796719Y-44872069D01*
X166797356Y-44872926D01*
X166814307Y-44877084D01*
X166859451Y-44886361D01*
X166928110Y-44899844D01*
X167015602Y-44916621D01*
X167117250Y-44935781D01*
X167176556Y-44946830D01*
X167285172Y-44967510D01*
X167383277Y-44987189D01*
X167465909Y-45004789D01*
X167528104Y-45019233D01*
X167564899Y-45029446D01*
X167572296Y-45032686D01*
X167579540Y-45054617D01*
X167585385Y-45104147D01*
X167589835Y-45175485D01*
X167592893Y-45262839D01*
X167594565Y-45360417D01*
X167594853Y-45462426D01*
X167593761Y-45563075D01*
X167591294Y-45656572D01*
X167587456Y-45737125D01*
X167582250Y-45798942D01*
X167575681Y-45836230D01*
X167571741Y-45843993D01*
X167548188Y-45853298D01*
X167498282Y-45866600D01*
X167428623Y-45882337D01*
X167345813Y-45898946D01*
X167316905Y-45904319D01*
X167177531Y-45929848D01*
X167067436Y-45950408D01*
X166982982Y-45966815D01*
X166920530Y-45979887D01*
X166876444Y-45990441D01*
X166847085Y-45999294D01*
X166828815Y-46007263D01*
X166817998Y-46015165D01*
X166816485Y-46016727D01*
X166801377Y-46041886D01*
X166778329Y-46090850D01*
X166749644Y-46157621D01*
X166717622Y-46236205D01*
X166684565Y-46320607D01*
X166652773Y-46404830D01*
X166624549Y-46482879D01*
X166602193Y-46548759D01*
X166588007Y-46596473D01*
X166584293Y-46620027D01*
X166584602Y-46620852D01*
X166597189Y-46640104D01*
X166625744Y-46682463D01*
X166667267Y-46743521D01*
X166718756Y-46818868D01*
X166777211Y-46904096D01*
X166793858Y-46928315D01*
X166853215Y-47016123D01*
X166905447Y-47096238D01*
X166947708Y-47164062D01*
X166977153Y-47214993D01*
X166990937Y-47244431D01*
X166991605Y-47248048D01*
X166980024Y-47267057D01*
X166948024Y-47304714D01*
X166899718Y-47356973D01*
X166839220Y-47419786D01*
X166770644Y-47489106D01*
X166698104Y-47560885D01*
X166625712Y-47631077D01*
X166557584Y-47695635D01*
X166497832Y-47750510D01*
X166450571Y-47791656D01*
X166419913Y-47815026D01*
X166411432Y-47818842D01*
X166391691Y-47809855D01*
X166351274Y-47785616D01*
X166296763Y-47750209D01*
X166254823Y-47721711D01*
X166178829Y-47669418D01*
X166088834Y-47607845D01*
X165998564Y-47546370D01*
X165950032Y-47513469D01*
X165785762Y-47402359D01*
X165647869Y-47476916D01*
X165585049Y-47509578D01*
X165531629Y-47534966D01*
X165495484Y-47549446D01*
X165486284Y-47551460D01*
X165475221Y-47536584D01*
X165453394Y-47494547D01*
X165422434Y-47429227D01*
X165383970Y-47344500D01*
X165339632Y-47244245D01*
X165291047Y-47132339D01*
X165239846Y-47012659D01*
X165187659Y-46889084D01*
X165136113Y-46765491D01*
X165086840Y-46645757D01*
X165041467Y-46533759D01*
X165001625Y-46433377D01*
X164968942Y-46348486D01*
X164945049Y-46282965D01*
X164931574Y-46240690D01*
X164929406Y-46226172D01*
X164946583Y-46207653D01*
X164984190Y-46177590D01*
X165034366Y-46142232D01*
X165038578Y-46139434D01*
X165168264Y-46035625D01*
X165272834Y-45914515D01*
X165351381Y-45779976D01*
X165402999Y-45635882D01*
X165426782Y-45486105D01*
X165421823Y-45334517D01*
X165387217Y-45184992D01*
X165322057Y-45041400D01*
X165302886Y-45009984D01*
X165203174Y-44883125D01*
X165085377Y-44781255D01*
X164953571Y-44704904D01*
X164811833Y-44654602D01*
X164664242Y-44630879D01*
X164514873Y-44634265D01*
X164367803Y-44665288D01*
X164227111Y-44724480D01*
X164096873Y-44812369D01*
X164056586Y-44848042D01*
X163954055Y-44959706D01*
X163879341Y-45077257D01*
X163828090Y-45209020D01*
X163799546Y-45339507D01*
X163792500Y-45486216D01*
X163815996Y-45633653D01*
X163867649Y-45776834D01*
X163945071Y-45910777D01*
X164045875Y-46030498D01*
X164167676Y-46131014D01*
X164183684Y-46141609D01*
X164234398Y-46176306D01*
X164272950Y-46206370D01*
X164291381Y-46225565D01*
X164291649Y-46226172D01*
X164287692Y-46246936D01*
X164272007Y-46294062D01*
X164246222Y-46363673D01*
X164211969Y-46451893D01*
X164170877Y-46554844D01*
X164124576Y-46668650D01*
X164074696Y-46789435D01*
X164022867Y-46913321D01*
X163970719Y-47036432D01*
X163919882Y-47154891D01*
X163871987Y-47264823D01*
X163828662Y-47362349D01*
X163791538Y-47443593D01*
X163762244Y-47504679D01*
X163742412Y-47541730D01*
X163734426Y-47551460D01*
X163710021Y-47543883D01*
X163664358Y-47523560D01*
X163605310Y-47494125D01*
X163572840Y-47476916D01*
X163434947Y-47402359D01*
X163270677Y-47513469D01*
X163186821Y-47570390D01*
X163095013Y-47633030D01*
X163008980Y-47692011D01*
X162965887Y-47721711D01*
X162905277Y-47762410D01*
X162853955Y-47794663D01*
X162818615Y-47814384D01*
X162807137Y-47818554D01*
X162790430Y-47807307D01*
X162753454Y-47775911D01*
X162699795Y-47727624D01*
X162633038Y-47665708D01*
X162556766Y-47593421D01*
X162508527Y-47547008D01*
X162424133Y-47464087D01*
X162351197Y-47389920D01*
X162292669Y-47327680D01*
X162251497Y-47280541D01*
X162230628Y-47251673D01*
X162228626Y-47245815D01*
X162237917Y-47223532D01*
X162263591Y-47178477D01*
X162302800Y-47115211D01*
X162352697Y-47038295D01*
X162410433Y-46952292D01*
X162426851Y-46928315D01*
X162486677Y-46841170D01*
X162540350Y-46762710D01*
X162584870Y-46697345D01*
X162617235Y-46649484D01*
X162634445Y-46623535D01*
X162636107Y-46620852D01*
X162633621Y-46600172D01*
X162620423Y-46554704D01*
X162598814Y-46490444D01*
X162571096Y-46413387D01*
X162539570Y-46329529D01*
X162506537Y-46244866D01*
X162474299Y-46165392D01*
X162445157Y-46097104D01*
X162421412Y-46045997D01*
X162405365Y-46018067D01*
X162404225Y-46016727D01*
X162394412Y-46008745D01*
X162377839Y-46000851D01*
X162350868Y-45992229D01*
X162309861Y-45982062D01*
X162251180Y-45969531D01*
X162171187Y-45953821D01*
X162066245Y-45934113D01*
X161932715Y-45909592D01*
X161903804Y-45904319D01*
X161818118Y-45887764D01*
X161743418Y-45871569D01*
X161686306Y-45857296D01*
X161653383Y-45846508D01*
X161648969Y-45843993D01*
X161641694Y-45821696D01*
X161635781Y-45771869D01*
X161631234Y-45700304D01*
X161628055Y-45612793D01*
X161626251Y-45515128D01*
X161625823Y-45413101D01*
X161626777Y-45312503D01*
X161629116Y-45219127D01*
X161632844Y-45138765D01*
X161637966Y-45077209D01*
X161644484Y-45040250D01*
X161648414Y-45032686D01*
X161670292Y-45025056D01*
X161720109Y-45012642D01*
X161792903Y-44996522D01*
X161883711Y-44977773D01*
X161987569Y-44957471D01*
X162044154Y-44946830D01*
X162151514Y-44926760D01*
X162247254Y-44908580D01*
X162326694Y-44893199D01*
X162385154Y-44881531D01*
X162417955Y-44874488D01*
X162423354Y-44872926D01*
X162432478Y-44855322D01*
X162451765Y-44812918D01*
X162478645Y-44751772D01*
X162510546Y-44677943D01*
X162544898Y-44597489D01*
X162579129Y-44516468D01*
X162610669Y-44440937D01*
X162636946Y-44376955D01*
X162655389Y-44330580D01*
X162663429Y-44307869D01*
X162663578Y-44306876D01*
X162654465Y-44288961D01*
X162628914Y-44247733D01*
X162589612Y-44187291D01*
X162539243Y-44111731D01*
X162480494Y-44025152D01*
X162446342Y-43975421D01*
X162384110Y-43884236D01*
X162328836Y-43801449D01*
X162283218Y-43731249D01*
X162249952Y-43677824D01*
X162231736Y-43645361D01*
X162229105Y-43638083D01*
X162240414Y-43621145D01*
X162271681Y-43584978D01*
X162318910Y-43533635D01*
X162378108Y-43471167D01*
X162445281Y-43401626D01*
X162516434Y-43329065D01*
X162587574Y-43257535D01*
X162654707Y-43191087D01*
X162713839Y-43133774D01*
X162760975Y-43089647D01*
X162792123Y-43062759D01*
X162802543Y-43056342D01*
X162819509Y-43065365D01*
X162860089Y-43090715D01*
X162920337Y-43129810D01*
X162996307Y-43180071D01*
X163084054Y-43238917D01*
X163150244Y-43283748D01*
X163484668Y-43511154D01*
X163763433Y-43396238D01*
X164042197Y-43281322D01*
X164117746Y-42880576D01*
X164193294Y-42479829D01*
X165027415Y-42479829D01*
X165102964Y-42880576D01*
G37*
D12*
%TO.C,R1*%
X122391742Y-36053500D02*
X122866258Y-36053500D01*
X122391742Y-37098500D02*
X122866258Y-37098500D01*
%TO.C,C24*%
X153553580Y-39114000D02*
X153272420Y-39114000D01*
X153553580Y-40134000D02*
X153272420Y-40134000D01*
%TO.C,C4*%
X164702420Y-40892000D02*
X164983580Y-40892000D01*
X164702420Y-41912000D02*
X164983580Y-41912000D01*
%TO.C,C2*%
X131949420Y-40892000D02*
X132230580Y-40892000D01*
X131949420Y-41912000D02*
X132230580Y-41912000D01*
%TO.C,C19*%
X187206000Y-45579420D02*
X187206000Y-45860580D01*
X188226000Y-45579420D02*
X188226000Y-45860580D01*
%TO.C,C11*%
X140470000Y-45592420D02*
X140470000Y-45873580D01*
X141490000Y-45592420D02*
X141490000Y-45873580D01*
%TO.C,C3*%
X149462420Y-40892000D02*
X149743580Y-40892000D01*
X149462420Y-41912000D02*
X149743580Y-41912000D01*
%TO.C,C5*%
X180704420Y-40892000D02*
X180985580Y-40892000D01*
X180704420Y-41912000D02*
X180985580Y-41912000D01*
%TO.C,C20*%
X188984000Y-45592420D02*
X188984000Y-45873580D01*
X190004000Y-45592420D02*
X190004000Y-45873580D01*
%TO.C,U4*%
X171640000Y-40001500D02*
X171640000Y-39766500D01*
X171640000Y-42746500D02*
X171640000Y-42271500D01*
X172115000Y-39526500D02*
X171940000Y-39526500D01*
X172115000Y-42746500D02*
X171640000Y-42746500D01*
X174385000Y-39526500D02*
X174860000Y-39526500D01*
X174385000Y-42746500D02*
X174860000Y-42746500D01*
X174860000Y-39526500D02*
X174860000Y-40001500D01*
X174860000Y-42746500D02*
X174860000Y-42271500D01*
X171640000Y-39526500D02*
X171400000Y-39196500D01*
X171880000Y-39196500D01*
X171640000Y-39526500D01*
G36*
X171640000Y-39526500D02*
G01*
X171400000Y-39196500D01*
X171880000Y-39196500D01*
X171640000Y-39526500D01*
G37*
%TO.C,U3*%
X155622000Y-40001500D02*
X155622000Y-39766500D01*
X155622000Y-42746500D02*
X155622000Y-42271500D01*
X156097000Y-39526500D02*
X155922000Y-39526500D01*
X156097000Y-42746500D02*
X155622000Y-42746500D01*
X158367000Y-39526500D02*
X158842000Y-39526500D01*
X158367000Y-42746500D02*
X158842000Y-42746500D01*
X158842000Y-39526500D02*
X158842000Y-40001500D01*
X158842000Y-42746500D02*
X158842000Y-42271500D01*
X155622000Y-39526500D02*
X155382000Y-39196500D01*
X155862000Y-39196500D01*
X155622000Y-39526500D01*
G36*
X155622000Y-39526500D02*
G01*
X155382000Y-39196500D01*
X155862000Y-39196500D01*
X155622000Y-39526500D01*
G37*
%TO.C,OUT*%
X114678000Y-39480000D02*
X114678000Y-43080000D01*
X109198000Y-44960000D02*
X112798000Y-44960000D01*
X109198000Y-37600000D02*
X112798000Y-37600000D01*
X107318000Y-39480000D02*
X107318000Y-43080000D01*
%TO.C,C27*%
X224839000Y-37529759D02*
X224839000Y-38159759D01*
X225154000Y-37844759D02*
X224524000Y-37844759D01*
X226230000Y-41030000D02*
X219770000Y-41030000D01*
X226230000Y-41070000D02*
X219770000Y-41070000D01*
X226230000Y-41110000D02*
X219770000Y-41110000D01*
X226228000Y-41150000D02*
X219772000Y-41150000D01*
X226227000Y-41190000D02*
X219773000Y-41190000D01*
X226224000Y-41230000D02*
X219776000Y-41230000D01*
X226222000Y-41270000D02*
X224040000Y-41270000D01*
X221960000Y-41270000D02*
X219778000Y-41270000D01*
X226218000Y-41310000D02*
X224040000Y-41310000D01*
X221960000Y-41310000D02*
X219782000Y-41310000D01*
X226215000Y-41350000D02*
X224040000Y-41350000D01*
X221960000Y-41350000D02*
X219785000Y-41350000D01*
X226211000Y-41390000D02*
X224040000Y-41390000D01*
X221960000Y-41390000D02*
X219789000Y-41390000D01*
X226206000Y-41430000D02*
X224040000Y-41430000D01*
X221960000Y-41430000D02*
X219794000Y-41430000D01*
X226201000Y-41470000D02*
X224040000Y-41470000D01*
X221960000Y-41470000D02*
X219799000Y-41470000D01*
X226195000Y-41510000D02*
X224040000Y-41510000D01*
X221960000Y-41510000D02*
X219805000Y-41510000D01*
X226189000Y-41550000D02*
X224040000Y-41550000D01*
X221960000Y-41550000D02*
X219811000Y-41550000D01*
X226182000Y-41590000D02*
X224040000Y-41590000D01*
X221960000Y-41590000D02*
X219818000Y-41590000D01*
X226175000Y-41630000D02*
X224040000Y-41630000D01*
X221960000Y-41630000D02*
X219825000Y-41630000D01*
X226167000Y-41670000D02*
X224040000Y-41670000D01*
X221960000Y-41670000D02*
X219833000Y-41670000D01*
X226159000Y-41710000D02*
X224040000Y-41710000D01*
X221960000Y-41710000D02*
X219841000Y-41710000D01*
X226150000Y-41751000D02*
X224040000Y-41751000D01*
X221960000Y-41751000D02*
X219850000Y-41751000D01*
X226141000Y-41791000D02*
X224040000Y-41791000D01*
X221960000Y-41791000D02*
X219859000Y-41791000D01*
X226131000Y-41831000D02*
X224040000Y-41831000D01*
X221960000Y-41831000D02*
X219869000Y-41831000D01*
X226121000Y-41871000D02*
X224040000Y-41871000D01*
X221960000Y-41871000D02*
X219879000Y-41871000D01*
X226110000Y-41911000D02*
X224040000Y-41911000D01*
X221960000Y-41911000D02*
X219890000Y-41911000D01*
X226098000Y-41951000D02*
X224040000Y-41951000D01*
X221960000Y-41951000D02*
X219902000Y-41951000D01*
X226086000Y-41991000D02*
X224040000Y-41991000D01*
X221960000Y-41991000D02*
X219914000Y-41991000D01*
X226074000Y-42031000D02*
X224040000Y-42031000D01*
X221960000Y-42031000D02*
X219926000Y-42031000D01*
X226061000Y-42071000D02*
X224040000Y-42071000D01*
X221960000Y-42071000D02*
X219939000Y-42071000D01*
X226047000Y-42111000D02*
X224040000Y-42111000D01*
X221960000Y-42111000D02*
X219953000Y-42111000D01*
X226033000Y-42151000D02*
X224040000Y-42151000D01*
X221960000Y-42151000D02*
X219967000Y-42151000D01*
X226018000Y-42191000D02*
X224040000Y-42191000D01*
X221960000Y-42191000D02*
X219982000Y-42191000D01*
X226002000Y-42231000D02*
X224040000Y-42231000D01*
X221960000Y-42231000D02*
X219998000Y-42231000D01*
X225986000Y-42271000D02*
X224040000Y-42271000D01*
X221960000Y-42271000D02*
X220014000Y-42271000D01*
X225970000Y-42311000D02*
X224040000Y-42311000D01*
X221960000Y-42311000D02*
X220030000Y-42311000D01*
X225952000Y-42351000D02*
X224040000Y-42351000D01*
X221960000Y-42351000D02*
X220048000Y-42351000D01*
X225934000Y-42391000D02*
X224040000Y-42391000D01*
X221960000Y-42391000D02*
X220066000Y-42391000D01*
X225916000Y-42431000D02*
X224040000Y-42431000D01*
X221960000Y-42431000D02*
X220084000Y-42431000D01*
X225896000Y-42471000D02*
X224040000Y-42471000D01*
X221960000Y-42471000D02*
X220104000Y-42471000D01*
X225876000Y-42511000D02*
X224040000Y-42511000D01*
X221960000Y-42511000D02*
X220124000Y-42511000D01*
X225856000Y-42551000D02*
X224040000Y-42551000D01*
X221960000Y-42551000D02*
X220144000Y-42551000D01*
X225834000Y-42591000D02*
X224040000Y-42591000D01*
X221960000Y-42591000D02*
X220166000Y-42591000D01*
X225812000Y-42631000D02*
X224040000Y-42631000D01*
X221960000Y-42631000D02*
X220188000Y-42631000D01*
X225790000Y-42671000D02*
X224040000Y-42671000D01*
X221960000Y-42671000D02*
X220210000Y-42671000D01*
X225766000Y-42711000D02*
X224040000Y-42711000D01*
X221960000Y-42711000D02*
X220234000Y-42711000D01*
X225742000Y-42751000D02*
X224040000Y-42751000D01*
X221960000Y-42751000D02*
X220258000Y-42751000D01*
X225716000Y-42791000D02*
X224040000Y-42791000D01*
X221960000Y-42791000D02*
X220284000Y-42791000D01*
X225690000Y-42831000D02*
X224040000Y-42831000D01*
X221960000Y-42831000D02*
X220310000Y-42831000D01*
X225664000Y-42871000D02*
X224040000Y-42871000D01*
X221960000Y-42871000D02*
X220336000Y-42871000D01*
X225636000Y-42911000D02*
X224040000Y-42911000D01*
X221960000Y-42911000D02*
X220364000Y-42911000D01*
X225607000Y-42951000D02*
X224040000Y-42951000D01*
X221960000Y-42951000D02*
X220393000Y-42951000D01*
X225578000Y-42991000D02*
X224040000Y-42991000D01*
X221960000Y-42991000D02*
X220422000Y-42991000D01*
X225548000Y-43031000D02*
X224040000Y-43031000D01*
X221960000Y-43031000D02*
X220452000Y-43031000D01*
X225516000Y-43071000D02*
X224040000Y-43071000D01*
X221960000Y-43071000D02*
X220484000Y-43071000D01*
X225484000Y-43111000D02*
X224040000Y-43111000D01*
X221960000Y-43111000D02*
X220516000Y-43111000D01*
X225450000Y-43151000D02*
X224040000Y-43151000D01*
X221960000Y-43151000D02*
X220550000Y-43151000D01*
X225416000Y-43191000D02*
X224040000Y-43191000D01*
X221960000Y-43191000D02*
X220584000Y-43191000D01*
X225380000Y-43231000D02*
X224040000Y-43231000D01*
X221960000Y-43231000D02*
X220620000Y-43231000D01*
X225343000Y-43271000D02*
X224040000Y-43271000D01*
X221960000Y-43271000D02*
X220657000Y-43271000D01*
X225305000Y-43311000D02*
X224040000Y-43311000D01*
X221960000Y-43311000D02*
X220695000Y-43311000D01*
X225265000Y-43351000D02*
X220735000Y-43351000D01*
X225224000Y-43391000D02*
X220776000Y-43391000D01*
X225182000Y-43431000D02*
X220818000Y-43431000D01*
X225137000Y-43471000D02*
X220863000Y-43471000D01*
X225092000Y-43511000D02*
X220908000Y-43511000D01*
X225044000Y-43551000D02*
X220956000Y-43551000D01*
X224995000Y-43591000D02*
X221005000Y-43591000D01*
X224944000Y-43631000D02*
X221056000Y-43631000D01*
X224890000Y-43671000D02*
X221110000Y-43671000D01*
X224834000Y-43711000D02*
X221166000Y-43711000D01*
X224776000Y-43751000D02*
X221224000Y-43751000D01*
X224714000Y-43791000D02*
X221286000Y-43791000D01*
X224650000Y-43831000D02*
X221350000Y-43831000D01*
X224581000Y-43871000D02*
X221419000Y-43871000D01*
X224509000Y-43911000D02*
X221491000Y-43911000D01*
X224432000Y-43951000D02*
X221568000Y-43951000D01*
X224350000Y-43991000D02*
X221650000Y-43991000D01*
X224262000Y-44031000D02*
X221738000Y-44031000D01*
X224165000Y-44071000D02*
X221835000Y-44071000D01*
X224059000Y-44111000D02*
X221941000Y-44111000D01*
X223940000Y-44151000D02*
X222060000Y-44151000D01*
X223802000Y-44191000D02*
X222198000Y-44191000D01*
X223633000Y-44231000D02*
X222367000Y-44231000D01*
X223402000Y-44271000D02*
X222598000Y-44271000D01*
X226270000Y-41030000D02*
G75*
G02*
X219730000Y-41030000I-3270000J0D01*
G01*
X219730000Y-41030000D02*
G75*
G02*
X226270000Y-41030000I3270000J0D01*
G01*
%TO.C,IN*%
X201044000Y-39480000D02*
X201044000Y-43080000D01*
X202924000Y-37600000D02*
X206524000Y-37600000D01*
X202924000Y-44960000D02*
X206524000Y-44960000D01*
X208404000Y-39480000D02*
X208404000Y-43080000D01*
%TO.C,R2*%
X138901742Y-36053500D02*
X139376258Y-36053500D01*
X138901742Y-37098500D02*
X139376258Y-37098500D01*
%TO.C,C9*%
X125992000Y-45592420D02*
X125992000Y-45873580D01*
X127012000Y-45592420D02*
X127012000Y-45873580D01*
%TO.C,C25*%
X169568580Y-39114000D02*
X169287420Y-39114000D01*
X169568580Y-40134000D02*
X169287420Y-40134000D01*
%TO.C,C17*%
X172728000Y-45592420D02*
X172728000Y-45873580D01*
X173748000Y-45592420D02*
X173748000Y-45873580D01*
%TO.C,C8*%
X124214000Y-45592420D02*
X124214000Y-45873580D01*
X125234000Y-45592420D02*
X125234000Y-45873580D01*
%TO.C,C7*%
X122436000Y-45592420D02*
X122436000Y-45873580D01*
X123456000Y-45592420D02*
X123456000Y-45873580D01*
%TO.C,U1*%
X123125500Y-40001500D02*
X123125500Y-39766500D01*
X123125500Y-42746500D02*
X123125500Y-42271500D01*
X123600500Y-39526500D02*
X123425500Y-39526500D01*
X123600500Y-42746500D02*
X123125500Y-42746500D01*
X125870500Y-39526500D02*
X126345500Y-39526500D01*
X125870500Y-42746500D02*
X126345500Y-42746500D01*
X126345500Y-39526500D02*
X126345500Y-40001500D01*
X126345500Y-42746500D02*
X126345500Y-42271500D01*
X123125500Y-39526500D02*
X122885500Y-39196500D01*
X123365500Y-39196500D01*
X123125500Y-39526500D01*
G36*
X123125500Y-39526500D02*
G01*
X122885500Y-39196500D01*
X123365500Y-39196500D01*
X123125500Y-39526500D01*
G37*
%TO.C,C13*%
X154948000Y-45579420D02*
X154948000Y-45860580D01*
X155968000Y-45579420D02*
X155968000Y-45860580D01*
%TO.C,C1*%
X117308420Y-40892000D02*
X117589580Y-40892000D01*
X117308420Y-41912000D02*
X117589580Y-41912000D01*
%TO.C,PM3*%
X213808000Y-47685000D02*
X219008000Y-47685000D01*
X213808000Y-37465000D02*
X213808000Y-47685000D01*
X213808000Y-37465000D02*
X216408000Y-37465000D01*
X216408000Y-37465000D02*
X216408000Y-34865000D01*
X213808000Y-36195000D02*
X213808000Y-34865000D01*
X213808000Y-34865000D02*
X215138000Y-34865000D01*
X216408000Y-34865000D02*
X219008000Y-34865000D01*
X219008000Y-34865000D02*
X219008000Y-47685000D01*
%TO.C,C18*%
X174506000Y-45579420D02*
X174506000Y-45860580D01*
X175526000Y-45579420D02*
X175526000Y-45860580D01*
%TO.C,U5*%
X187642000Y-40001500D02*
X187642000Y-39766500D01*
X187642000Y-42746500D02*
X187642000Y-42271500D01*
X188117000Y-39526500D02*
X187942000Y-39526500D01*
X188117000Y-42746500D02*
X187642000Y-42746500D01*
X190387000Y-39526500D02*
X190862000Y-39526500D01*
X190387000Y-42746500D02*
X190862000Y-42746500D01*
X190862000Y-39526500D02*
X190862000Y-40001500D01*
X190862000Y-42746500D02*
X190862000Y-42271500D01*
X187642000Y-39526500D02*
X187402000Y-39196500D01*
X187882000Y-39196500D01*
X187642000Y-39526500D01*
G36*
X187642000Y-39526500D02*
G01*
X187402000Y-39196500D01*
X187882000Y-39196500D01*
X187642000Y-39526500D01*
G37*
%TO.C,C26*%
X185570580Y-39114000D02*
X185289420Y-39114000D01*
X185570580Y-40134000D02*
X185289420Y-40134000D01*
%TO.C,C10*%
X138692000Y-45592420D02*
X138692000Y-45873580D01*
X139712000Y-45592420D02*
X139712000Y-45873580D01*
%TO.C,C22*%
X121041580Y-39114000D02*
X120760420Y-39114000D01*
X121041580Y-40134000D02*
X120760420Y-40134000D01*
%TO.C,C16*%
X170950000Y-45579420D02*
X170950000Y-45860580D01*
X171970000Y-45579420D02*
X171970000Y-45860580D01*
%TO.C,C6*%
X195436420Y-40892000D02*
X195717580Y-40892000D01*
X195436420Y-41912000D02*
X195717580Y-41912000D01*
%TO.C,R4*%
X170905742Y-36053500D02*
X171380258Y-36053500D01*
X170905742Y-37098500D02*
X171380258Y-37098500D01*
%TD*%
M02*
