%TF.GenerationSoftware,KiCad,Pcbnew,8.0.1*%
%TF.CreationDate,2024-05-04T10:24:18+02:00*%
%TF.ProjectId,Marconi_2955_Step_Attenuator,4d617263-6f6e-4695-9f32-3935355f5374,rev?*%
%TF.SameCoordinates,Original*%
%TF.FileFunction,Copper,L3,Inr*%
%TF.FilePolarity,Positive*%
%FSLAX46Y46*%
G04 Gerber Fmt 4.6, Leading zero omitted, Abs format (unit mm)*
G04 Created by KiCad (PCBNEW 8.0.1) date 2024-05-04 10:24:18*
%MOMM*%
%LPD*%
G01*
G04 APERTURE LIST*
%TA.AperFunction,ComponentPad*%
%ADD10C,5.600000*%
%TD*%
%TA.AperFunction,ComponentPad*%
%ADD11C,2.250000*%
%TD*%
%TA.AperFunction,ComponentPad*%
%ADD12C,2.050000*%
%TD*%
%TA.AperFunction,ComponentPad*%
%ADD13R,1.600000X1.600000*%
%TD*%
%TA.AperFunction,ComponentPad*%
%ADD14C,1.600000*%
%TD*%
%TA.AperFunction,ComponentPad*%
%ADD15R,1.700000X1.700000*%
%TD*%
%TA.AperFunction,ComponentPad*%
%ADD16O,1.700000X1.700000*%
%TD*%
%TA.AperFunction,ViaPad*%
%ADD17C,0.600000*%
%TD*%
G04 APERTURE END LIST*
D10*
%TO.N,N/C*%
%TO.C,REF\u002A\u002A*%
X105181400Y-34467800D03*
%TD*%
%TO.N,N/C*%
%TO.C,REF\u002A\u002A*%
X105181400Y-48107600D03*
%TD*%
%TO.N,N/C*%
%TO.C,REF\u002A\u002A*%
X223824800Y-48107600D03*
%TD*%
%TO.N,N/C*%
%TO.C,REF\u002A\u002A*%
X223824800Y-34442400D03*
%TD*%
D11*
%TO.N,GND*%
%TO.C,OUT*%
X113538000Y-43820000D03*
X113538000Y-38740000D03*
X108458000Y-43820000D03*
X108458000Y-38740000D03*
D12*
%TO.N,Net-(J1-In)*%
X110998000Y-41280000D03*
%TD*%
D13*
%TO.N,+5V*%
%TO.C,C27*%
X223000000Y-39780000D03*
D14*
%TO.N,GND*%
X223000000Y-42280000D03*
%TD*%
D12*
%TO.N,Net-(J2-In)*%
%TO.C,IN*%
X204724000Y-41280000D03*
D11*
%TO.N,GND*%
X202184000Y-38740000D03*
X202184000Y-43820000D03*
X207264000Y-38740000D03*
X207264000Y-43820000D03*
%TD*%
D15*
%TO.N,unconnected-(J3-Pin_1-Pad1)*%
%TO.C,PM3*%
X215138000Y-36195000D03*
D16*
%TO.N,+5V*%
X217678000Y-36195000D03*
%TO.N,Net-(J3-Pin_3)*%
X215138000Y-38735000D03*
%TO.N,+5V*%
X217678000Y-38735000D03*
%TO.N,unconnected-(J3-Pin_5-Pad5)*%
X215138000Y-41275000D03*
%TO.N,+5V*%
X217678000Y-41275000D03*
%TO.N,Net-(J3-Pin_7)*%
X215138000Y-43815000D03*
%TO.N,unconnected-(J3-Pin_8-Pad8)*%
X217678000Y-43815000D03*
%TO.N,unconnected-(J3-Pin_9-Pad9)*%
X215138000Y-46355000D03*
%TO.N,Net-(J3-Pin_10)*%
X217678000Y-46355000D03*
%TD*%
D17*
%TO.N,GND*%
X126502000Y-46482000D03*
X124724000Y-46482000D03*
X173238000Y-41148000D03*
X184668000Y-39624000D03*
X140980000Y-46482000D03*
X136662000Y-39624000D03*
X175016000Y-46482000D03*
X173238000Y-46482000D03*
X120152000Y-39624000D03*
X122946000Y-46482000D03*
X189494000Y-46482000D03*
X155458000Y-46482000D03*
X152664000Y-39624000D03*
X159014000Y-46482000D03*
X191272000Y-46482000D03*
X171460000Y-46482000D03*
X157236000Y-46482000D03*
X141234000Y-41148000D03*
X139202000Y-46482000D03*
X187716000Y-46482000D03*
X168666000Y-39624000D03*
X157236000Y-41148000D03*
X189240000Y-41148000D03*
X142758000Y-46482000D03*
X124724000Y-41148000D03*
%TO.N,+5V*%
X186192000Y-39624000D03*
X121676000Y-36576000D03*
X138186000Y-39624000D03*
X154188000Y-39624000D03*
X186192000Y-36576000D03*
X170190000Y-36576000D03*
X121676000Y-39624000D03*
X170190000Y-39624000D03*
X138186000Y-36576000D03*
X154188000Y-36576000D03*
%TD*%
%TA.AperFunction,Conductor*%
%TO.N,GND*%
G36*
X221312477Y-31799454D02*
G01*
X221393259Y-31853430D01*
X221447235Y-31934212D01*
X221466189Y-32029500D01*
X221447235Y-32124788D01*
X221406967Y-32190699D01*
X221193437Y-32442086D01*
X220992592Y-32738308D01*
X220992587Y-32738317D01*
X220824951Y-33054510D01*
X220824950Y-33054512D01*
X220692477Y-33386992D01*
X220596729Y-33731845D01*
X220596727Y-33731852D01*
X220538827Y-34085032D01*
X220519452Y-34442400D01*
X220538827Y-34799767D01*
X220596727Y-35152947D01*
X220596729Y-35152954D01*
X220692477Y-35497807D01*
X220824950Y-35830287D01*
X220824951Y-35830289D01*
X220992587Y-36146482D01*
X220992592Y-36146491D01*
X221161121Y-36395052D01*
X221193435Y-36442711D01*
X221215010Y-36468111D01*
X221425131Y-36715485D01*
X221684955Y-36961604D01*
X221684958Y-36961607D01*
X221684963Y-36961611D01*
X221969881Y-37178200D01*
X222276547Y-37362715D01*
X222276551Y-37362717D01*
X222276553Y-37362718D01*
X222276555Y-37362719D01*
X222601349Y-37512984D01*
X222601353Y-37512985D01*
X222601365Y-37512991D01*
X222940526Y-37627268D01*
X223129980Y-37668970D01*
X223290048Y-37704204D01*
X223290051Y-37704204D01*
X223290054Y-37704205D01*
X223385344Y-37714568D01*
X223645846Y-37742900D01*
X223645852Y-37742900D01*
X224003754Y-37742900D01*
X224213150Y-37720126D01*
X224359546Y-37704205D01*
X224709074Y-37627268D01*
X225048235Y-37512991D01*
X225373053Y-37362715D01*
X225679719Y-37178200D01*
X225964637Y-36961611D01*
X226079263Y-36853031D01*
X226161475Y-36801262D01*
X226257242Y-36784895D01*
X226351982Y-36806422D01*
X226431272Y-36862566D01*
X226483042Y-36944779D01*
X226499500Y-37033804D01*
X226499500Y-45516195D01*
X226480546Y-45611483D01*
X226426570Y-45692265D01*
X226345788Y-45746241D01*
X226250500Y-45765195D01*
X226155212Y-45746241D01*
X226079263Y-45696968D01*
X225964644Y-45588395D01*
X225964639Y-45588391D01*
X225964637Y-45588389D01*
X225679719Y-45371800D01*
X225373053Y-45187285D01*
X225373051Y-45187284D01*
X225373046Y-45187281D01*
X225373044Y-45187280D01*
X225048250Y-45037015D01*
X225048239Y-45037010D01*
X225048235Y-45037009D01*
X224709074Y-44922732D01*
X224709063Y-44922729D01*
X224709061Y-44922729D01*
X224359551Y-44845795D01*
X224359552Y-44845795D01*
X224003754Y-44807100D01*
X224003748Y-44807100D01*
X223645852Y-44807100D01*
X223645846Y-44807100D01*
X223290048Y-44845795D01*
X222940538Y-44922729D01*
X222940532Y-44922730D01*
X222940526Y-44922732D01*
X222601365Y-45037009D01*
X222601349Y-45037015D01*
X222276555Y-45187280D01*
X222276553Y-45187281D01*
X221969880Y-45371800D01*
X221684960Y-45588391D01*
X221684955Y-45588395D01*
X221425131Y-45834514D01*
X221193433Y-46107291D01*
X220992592Y-46403508D01*
X220992587Y-46403517D01*
X220824951Y-46719710D01*
X220824950Y-46719712D01*
X220692477Y-47052192D01*
X220596729Y-47397045D01*
X220596727Y-47397052D01*
X220538827Y-47750232D01*
X220519452Y-48107600D01*
X220538827Y-48464967D01*
X220596727Y-48818147D01*
X220596729Y-48818154D01*
X220692477Y-49163007D01*
X220824950Y-49495487D01*
X220824951Y-49495489D01*
X220992587Y-49811682D01*
X220992592Y-49811691D01*
X221187228Y-50098757D01*
X221193435Y-50107911D01*
X221415462Y-50369301D01*
X221462704Y-50454197D01*
X221473862Y-50550709D01*
X221447237Y-50644144D01*
X221386882Y-50720279D01*
X221301986Y-50767521D01*
X221225683Y-50779500D01*
X107780517Y-50779500D01*
X107685229Y-50760546D01*
X107604447Y-50706570D01*
X107550471Y-50625788D01*
X107531517Y-50530500D01*
X107550471Y-50435212D01*
X107590738Y-50369301D01*
X107812765Y-50107911D01*
X108013611Y-49811685D01*
X108181253Y-49495480D01*
X108313724Y-49163003D01*
X108409471Y-48818152D01*
X108467372Y-48464971D01*
X108486748Y-48107600D01*
X108467372Y-47750229D01*
X108409471Y-47397048D01*
X108313724Y-47052197D01*
X108181253Y-46719720D01*
X108013611Y-46403515D01*
X108013610Y-46403514D01*
X108013607Y-46403508D01*
X107980721Y-46355005D01*
X213782341Y-46355005D01*
X213802935Y-46590401D01*
X213837585Y-46719720D01*
X213864097Y-46818663D01*
X213963965Y-47032830D01*
X214099505Y-47226401D01*
X214266599Y-47393495D01*
X214460170Y-47529035D01*
X214674337Y-47628903D01*
X214902592Y-47690063D01*
X214902595Y-47690063D01*
X214902598Y-47690064D01*
X215137995Y-47710659D01*
X215138000Y-47710659D01*
X215138005Y-47710659D01*
X215373401Y-47690064D01*
X215373403Y-47690063D01*
X215373408Y-47690063D01*
X215601663Y-47628903D01*
X215815830Y-47529035D01*
X216009401Y-47393495D01*
X216176495Y-47226401D01*
X216204032Y-47187074D01*
X216274211Y-47119891D01*
X216364760Y-47084678D01*
X216461892Y-47086797D01*
X216550819Y-47125925D01*
X216611967Y-47187073D01*
X216639505Y-47226401D01*
X216806599Y-47393495D01*
X217000170Y-47529035D01*
X217214337Y-47628903D01*
X217442592Y-47690063D01*
X217442595Y-47690063D01*
X217442598Y-47690064D01*
X217677995Y-47710659D01*
X217678000Y-47710659D01*
X217678005Y-47710659D01*
X217913401Y-47690064D01*
X217913403Y-47690063D01*
X217913408Y-47690063D01*
X218141663Y-47628903D01*
X218355830Y-47529035D01*
X218549401Y-47393495D01*
X218716495Y-47226401D01*
X218852035Y-47032830D01*
X218951903Y-46818663D01*
X219013063Y-46590408D01*
X219013064Y-46590401D01*
X219033659Y-46355005D01*
X219033659Y-46354994D01*
X219013064Y-46119598D01*
X219013063Y-46119595D01*
X219013063Y-46119592D01*
X218951903Y-45891337D01*
X218861267Y-45696968D01*
X218852038Y-45677177D01*
X218852034Y-45677169D01*
X218743431Y-45522068D01*
X218716495Y-45483599D01*
X218549401Y-45316505D01*
X218510074Y-45288967D01*
X218442891Y-45218789D01*
X218407678Y-45128240D01*
X218409797Y-45031108D01*
X218448925Y-44942181D01*
X218510073Y-44881032D01*
X218549401Y-44853495D01*
X218716495Y-44686401D01*
X218852035Y-44492830D01*
X218951903Y-44278663D01*
X219013063Y-44050408D01*
X219025897Y-43903718D01*
X219033659Y-43815005D01*
X219033659Y-43814994D01*
X219013064Y-43579598D01*
X219013063Y-43579595D01*
X219013063Y-43579592D01*
X218951903Y-43351337D01*
X218911955Y-43265670D01*
X218852038Y-43137177D01*
X218852034Y-43137169D01*
X218734981Y-42970000D01*
X218716495Y-42943599D01*
X218549401Y-42776505D01*
X218510074Y-42748967D01*
X218442891Y-42678789D01*
X218407678Y-42588240D01*
X218409797Y-42491108D01*
X218448925Y-42402181D01*
X218510073Y-42341032D01*
X218549401Y-42313495D01*
X218582896Y-42280000D01*
X221695034Y-42280000D01*
X221714859Y-42506602D01*
X221714859Y-42506603D01*
X221773732Y-42726323D01*
X221869867Y-42932486D01*
X221869869Y-42932488D01*
X221920972Y-43005471D01*
X221920974Y-43005471D01*
X222600000Y-42326445D01*
X222600000Y-42332661D01*
X222627259Y-42434394D01*
X222679920Y-42525606D01*
X222754394Y-42600080D01*
X222845606Y-42652741D01*
X222947339Y-42680000D01*
X222953552Y-42680000D01*
X222274527Y-43359023D01*
X222274527Y-43359025D01*
X222347515Y-43410132D01*
X222553676Y-43506267D01*
X222773396Y-43565140D01*
X223000000Y-43584965D01*
X223226602Y-43565140D01*
X223226603Y-43565140D01*
X223446326Y-43506266D01*
X223652476Y-43410137D01*
X223652483Y-43410133D01*
X223725471Y-43359025D01*
X223046446Y-42680000D01*
X223052661Y-42680000D01*
X223154394Y-42652741D01*
X223245606Y-42600080D01*
X223320080Y-42525606D01*
X223372741Y-42434394D01*
X223400000Y-42332661D01*
X223400000Y-42326446D01*
X224079025Y-43005471D01*
X224130133Y-42932483D01*
X224130137Y-42932476D01*
X224226266Y-42726326D01*
X224285140Y-42506603D01*
X224285140Y-42506602D01*
X224304965Y-42280000D01*
X224285140Y-42053397D01*
X224285140Y-42053396D01*
X224226267Y-41833676D01*
X224130132Y-41627515D01*
X224079025Y-41554527D01*
X224079022Y-41554527D01*
X223400000Y-42233551D01*
X223400000Y-42227339D01*
X223372741Y-42125606D01*
X223320080Y-42034394D01*
X223245606Y-41959920D01*
X223154394Y-41907259D01*
X223052661Y-41880000D01*
X223046446Y-41880000D01*
X223785300Y-41141145D01*
X223866082Y-41087168D01*
X223904095Y-41074891D01*
X223907476Y-41074091D01*
X223907483Y-41074091D01*
X223907488Y-41074088D01*
X223907797Y-41074016D01*
X223916100Y-41073718D01*
X223929656Y-41065820D01*
X224042331Y-41023796D01*
X224157546Y-40937546D01*
X224243796Y-40822331D01*
X224294091Y-40687483D01*
X224300500Y-40627873D01*
X224300499Y-38932128D01*
X224294091Y-38872517D01*
X224243796Y-38737669D01*
X224157546Y-38622454D01*
X224042331Y-38536204D01*
X223944169Y-38499592D01*
X223907481Y-38485908D01*
X223847873Y-38479500D01*
X222152134Y-38479500D01*
X222152130Y-38479500D01*
X222152128Y-38479501D01*
X222139314Y-38480878D01*
X222092519Y-38485908D01*
X222092515Y-38485909D01*
X221957670Y-38536203D01*
X221842455Y-38622453D01*
X221842453Y-38622455D01*
X221756204Y-38737669D01*
X221705908Y-38872518D01*
X221699500Y-38932123D01*
X221699500Y-40627865D01*
X221699500Y-40627868D01*
X221699501Y-40627872D01*
X221701567Y-40647093D01*
X221705908Y-40687480D01*
X221705909Y-40687484D01*
X221756203Y-40822329D01*
X221756204Y-40822331D01*
X221842454Y-40937546D01*
X221957669Y-41023796D01*
X222070342Y-41065820D01*
X222081607Y-41072779D01*
X222092186Y-41074012D01*
X222092511Y-41074088D01*
X222092517Y-41074091D01*
X222092523Y-41074091D01*
X222095889Y-41074887D01*
X222184264Y-41115246D01*
X222214698Y-41141144D01*
X222953554Y-41880000D01*
X222947339Y-41880000D01*
X222845606Y-41907259D01*
X222754394Y-41959920D01*
X222679920Y-42034394D01*
X222627259Y-42125606D01*
X222600000Y-42227339D01*
X222600000Y-42233554D01*
X221920973Y-41554527D01*
X221869870Y-41627510D01*
X221869867Y-41627514D01*
X221773732Y-41833676D01*
X221714859Y-42053396D01*
X221714859Y-42053397D01*
X221695034Y-42280000D01*
X218582896Y-42280000D01*
X218716495Y-42146401D01*
X218852035Y-41952830D01*
X218951903Y-41738663D01*
X219013063Y-41510408D01*
X219013064Y-41510401D01*
X219033659Y-41275005D01*
X219033659Y-41274994D01*
X219013064Y-41039598D01*
X219013063Y-41039595D01*
X219013063Y-41039592D01*
X218951903Y-40811337D01*
X218894149Y-40687484D01*
X218852038Y-40597177D01*
X218852034Y-40597169D01*
X218744031Y-40442925D01*
X218716495Y-40403599D01*
X218549401Y-40236505D01*
X218510074Y-40208967D01*
X218442891Y-40138789D01*
X218407678Y-40048240D01*
X218409797Y-39951108D01*
X218448925Y-39862181D01*
X218510073Y-39801032D01*
X218549401Y-39773495D01*
X218716495Y-39606401D01*
X218852035Y-39412830D01*
X218951903Y-39198663D01*
X219013063Y-38970408D01*
X219016412Y-38932130D01*
X219033659Y-38735005D01*
X219033659Y-38734994D01*
X219013064Y-38499598D01*
X219013063Y-38499595D01*
X219013063Y-38499592D01*
X218951903Y-38271337D01*
X218911955Y-38185670D01*
X218852038Y-38057177D01*
X218852034Y-38057169D01*
X218734981Y-37890000D01*
X218716495Y-37863599D01*
X218549401Y-37696505D01*
X218510074Y-37668967D01*
X218442891Y-37598789D01*
X218407678Y-37508240D01*
X218409797Y-37411108D01*
X218448925Y-37322181D01*
X218510073Y-37261032D01*
X218549401Y-37233495D01*
X218716495Y-37066401D01*
X218852035Y-36872830D01*
X218951903Y-36658663D01*
X219013063Y-36430408D01*
X219013064Y-36430401D01*
X219033659Y-36195005D01*
X219033659Y-36194994D01*
X219013064Y-35959598D01*
X219013063Y-35959595D01*
X219013063Y-35959592D01*
X218951903Y-35731337D01*
X218852035Y-35517171D01*
X218838476Y-35497807D01*
X218802724Y-35446747D01*
X218716495Y-35323599D01*
X218549401Y-35156505D01*
X218355830Y-35020965D01*
X218141663Y-34921097D01*
X218141660Y-34921096D01*
X217913401Y-34859935D01*
X217678005Y-34839341D01*
X217677995Y-34839341D01*
X217442598Y-34859935D01*
X217214335Y-34921097D01*
X217214333Y-34921098D01*
X217000177Y-35020961D01*
X217000169Y-35020965D01*
X216806587Y-35156513D01*
X216802605Y-35159855D01*
X216798960Y-35161853D01*
X216797694Y-35162741D01*
X216797596Y-35162602D01*
X216717423Y-35206580D01*
X216620845Y-35217150D01*
X216527573Y-35189957D01*
X216451808Y-35129140D01*
X216443133Y-35116429D01*
X216442469Y-35116927D01*
X216431796Y-35102670D01*
X216431796Y-35102669D01*
X216345546Y-34987454D01*
X216230331Y-34901204D01*
X216150117Y-34871286D01*
X216095481Y-34850908D01*
X216035873Y-34844500D01*
X214240134Y-34844500D01*
X214240130Y-34844500D01*
X214240128Y-34844501D01*
X214227314Y-34845878D01*
X214180519Y-34850908D01*
X214180515Y-34850909D01*
X214045670Y-34901203D01*
X213930455Y-34987453D01*
X213930453Y-34987455D01*
X213844204Y-35102669D01*
X213793908Y-35237518D01*
X213787500Y-35297123D01*
X213787500Y-37092865D01*
X213787501Y-37092869D01*
X213793908Y-37152480D01*
X213793909Y-37152484D01*
X213812974Y-37203599D01*
X213844204Y-37287331D01*
X213930454Y-37402546D01*
X214045669Y-37488796D01*
X214045670Y-37488796D01*
X214059927Y-37499469D01*
X214057454Y-37502771D01*
X214105965Y-37543305D01*
X214151006Y-37629389D01*
X214159675Y-37726156D01*
X214130653Y-37818875D01*
X214102855Y-37859605D01*
X214099513Y-37863587D01*
X213963965Y-38057169D01*
X213963961Y-38057177D01*
X213864098Y-38271333D01*
X213864097Y-38271335D01*
X213802935Y-38499598D01*
X213782341Y-38734994D01*
X213782341Y-38735005D01*
X213802935Y-38970401D01*
X213809306Y-38994180D01*
X213864097Y-39198663D01*
X213899450Y-39274478D01*
X213963965Y-39412830D01*
X214065148Y-39557335D01*
X214099505Y-39606401D01*
X214266599Y-39773495D01*
X214305925Y-39801031D01*
X214373107Y-39871209D01*
X214408321Y-39961758D01*
X214406202Y-40058890D01*
X214367074Y-40147818D01*
X214305928Y-40208965D01*
X214266603Y-40236501D01*
X214099504Y-40403600D01*
X213963965Y-40597169D01*
X213963961Y-40597177D01*
X213864098Y-40811333D01*
X213864097Y-40811335D01*
X213802935Y-41039598D01*
X213782341Y-41274994D01*
X213782341Y-41275005D01*
X213802935Y-41510401D01*
X213814758Y-41554527D01*
X213864097Y-41738663D01*
X213963965Y-41952830D01*
X214099505Y-42146401D01*
X214266599Y-42313495D01*
X214305925Y-42341031D01*
X214373107Y-42411209D01*
X214408321Y-42501758D01*
X214406202Y-42598890D01*
X214367074Y-42687818D01*
X214305928Y-42748965D01*
X214266603Y-42776501D01*
X214099504Y-42943600D01*
X213963965Y-43137169D01*
X213963961Y-43137177D01*
X213864098Y-43351333D01*
X213864097Y-43351335D01*
X213802935Y-43579598D01*
X213782341Y-43814994D01*
X213782341Y-43815005D01*
X213802935Y-44050401D01*
X213807633Y-44067936D01*
X213864097Y-44278663D01*
X213902885Y-44361844D01*
X213963965Y-44492830D01*
X214065148Y-44637335D01*
X214099505Y-44686401D01*
X214266599Y-44853495D01*
X214305925Y-44881031D01*
X214373107Y-44951209D01*
X214408321Y-45041758D01*
X214406202Y-45138890D01*
X214367074Y-45227818D01*
X214305928Y-45288965D01*
X214266603Y-45316501D01*
X214099504Y-45483600D01*
X213963965Y-45677169D01*
X213963961Y-45677177D01*
X213864098Y-45891333D01*
X213864097Y-45891335D01*
X213802935Y-46119598D01*
X213782341Y-46354994D01*
X213782341Y-46355005D01*
X107980721Y-46355005D01*
X107877644Y-46202979D01*
X107812765Y-46107289D01*
X107581068Y-45834514D01*
X107442063Y-45702841D01*
X107376815Y-45641035D01*
X107320671Y-45561744D01*
X107299143Y-45467004D01*
X107300195Y-45460846D01*
X107260064Y-45470482D01*
X107164105Y-45455286D01*
X107099596Y-45419902D01*
X107036319Y-45371800D01*
X106729653Y-45187285D01*
X106729651Y-45187284D01*
X106729646Y-45187281D01*
X106729644Y-45187280D01*
X106404850Y-45037015D01*
X106404839Y-45037010D01*
X106404835Y-45037009D01*
X106065674Y-44922732D01*
X106065663Y-44922729D01*
X106065661Y-44922729D01*
X105716151Y-44845795D01*
X105716152Y-44845795D01*
X105360354Y-44807100D01*
X105360348Y-44807100D01*
X105002452Y-44807100D01*
X105002446Y-44807100D01*
X104646648Y-44845795D01*
X104297138Y-44922729D01*
X104297132Y-44922730D01*
X104297126Y-44922732D01*
X103957965Y-45037009D01*
X103957949Y-45037015D01*
X103633155Y-45187280D01*
X103633153Y-45187281D01*
X103326480Y-45371800D01*
X103041560Y-45588391D01*
X103041555Y-45588395D01*
X102920737Y-45702841D01*
X102838524Y-45754610D01*
X102742757Y-45770977D01*
X102648017Y-45749449D01*
X102568727Y-45693305D01*
X102516958Y-45611092D01*
X102500500Y-45522068D01*
X102500500Y-43820005D01*
X106827975Y-43820005D01*
X106848042Y-44074989D01*
X106907753Y-44323703D01*
X106907756Y-44323711D01*
X107005634Y-44560010D01*
X107139281Y-44778103D01*
X107142532Y-44781910D01*
X107703883Y-44220558D01*
X107704740Y-44222626D01*
X107797762Y-44361844D01*
X107916156Y-44480238D01*
X108055374Y-44573260D01*
X108057438Y-44574114D01*
X107496086Y-45135467D01*
X107499091Y-45211893D01*
X107497603Y-45221284D01*
X107541310Y-45211353D01*
X107637076Y-45227720D01*
X107678155Y-45247955D01*
X107717987Y-45272364D01*
X107954288Y-45370243D01*
X107954296Y-45370246D01*
X108203010Y-45429957D01*
X108457994Y-45450025D01*
X108458006Y-45450025D01*
X108712989Y-45429957D01*
X108961703Y-45370246D01*
X108961711Y-45370243D01*
X109198010Y-45272365D01*
X109416106Y-45138716D01*
X109416108Y-45138714D01*
X109419911Y-45135466D01*
X108858560Y-44574115D01*
X108860626Y-44573260D01*
X108999844Y-44480238D01*
X109118238Y-44361844D01*
X109211260Y-44222626D01*
X109212114Y-44220562D01*
X109773465Y-44781912D01*
X109776714Y-44778108D01*
X109776716Y-44778106D01*
X109910365Y-44560010D01*
X110008243Y-44323711D01*
X110008246Y-44323703D01*
X110067957Y-44074989D01*
X110088025Y-43820005D01*
X110088025Y-43819994D01*
X110067957Y-43565010D01*
X110008246Y-43316296D01*
X110008243Y-43316288D01*
X109910363Y-43079986D01*
X109787600Y-42879652D01*
X109753973Y-42788502D01*
X109757788Y-42691422D01*
X109798463Y-42603192D01*
X109869807Y-42537243D01*
X109960957Y-42503616D01*
X110058037Y-42507431D01*
X110130007Y-42537242D01*
X110303296Y-42643433D01*
X110525135Y-42735322D01*
X110525137Y-42735323D01*
X110758620Y-42791377D01*
X110758627Y-42791378D01*
X110997996Y-42810217D01*
X110998000Y-42810217D01*
X110998004Y-42810217D01*
X111237372Y-42791378D01*
X111237379Y-42791377D01*
X111299334Y-42776503D01*
X111470863Y-42735323D01*
X111692704Y-42643433D01*
X111865990Y-42537243D01*
X111957139Y-42503617D01*
X112054219Y-42507431D01*
X112142450Y-42548106D01*
X112208398Y-42619449D01*
X112242025Y-42710599D01*
X112238211Y-42807679D01*
X112208399Y-42879652D01*
X112085636Y-43079985D01*
X111987756Y-43316288D01*
X111987753Y-43316296D01*
X111928042Y-43565010D01*
X111907975Y-43819994D01*
X111907975Y-43820005D01*
X111928042Y-44074989D01*
X111987753Y-44323703D01*
X111987756Y-44323711D01*
X112085634Y-44560010D01*
X112219281Y-44778103D01*
X112222533Y-44781911D01*
X112783884Y-44220561D01*
X112784740Y-44222626D01*
X112877762Y-44361844D01*
X112996156Y-44480238D01*
X113135374Y-44573260D01*
X113137438Y-44574114D01*
X112576087Y-45135466D01*
X112579883Y-45138709D01*
X112579901Y-45138721D01*
X112797984Y-45272363D01*
X113034288Y-45370243D01*
X113034296Y-45370246D01*
X113283010Y-45429957D01*
X113537994Y-45450025D01*
X113538006Y-45450025D01*
X113792989Y-45429957D01*
X114041703Y-45370246D01*
X114041711Y-45370243D01*
X114278010Y-45272365D01*
X114496106Y-45138716D01*
X114496108Y-45138714D01*
X114499911Y-45135466D01*
X113938560Y-44574115D01*
X113940626Y-44573260D01*
X114079844Y-44480238D01*
X114198238Y-44361844D01*
X114291260Y-44222626D01*
X114292115Y-44220560D01*
X114853466Y-44781911D01*
X114856714Y-44778108D01*
X114856716Y-44778106D01*
X114990365Y-44560010D01*
X115088243Y-44323711D01*
X115088246Y-44323703D01*
X115147957Y-44074989D01*
X115168025Y-43820005D01*
X200553975Y-43820005D01*
X200574042Y-44074989D01*
X200633753Y-44323703D01*
X200633756Y-44323711D01*
X200731634Y-44560010D01*
X200865281Y-44778103D01*
X200868533Y-44781911D01*
X201429883Y-44220559D01*
X201430740Y-44222626D01*
X201523762Y-44361844D01*
X201642156Y-44480238D01*
X201781374Y-44573260D01*
X201783438Y-44574114D01*
X201222087Y-45135466D01*
X201225883Y-45138709D01*
X201225901Y-45138721D01*
X201443984Y-45272363D01*
X201680288Y-45370243D01*
X201680296Y-45370246D01*
X201929010Y-45429957D01*
X202183994Y-45450025D01*
X202184006Y-45450025D01*
X202438989Y-45429957D01*
X202687703Y-45370246D01*
X202687711Y-45370243D01*
X202924010Y-45272365D01*
X203142106Y-45138716D01*
X203142108Y-45138714D01*
X203145911Y-45135466D01*
X202584560Y-44574115D01*
X202586626Y-44573260D01*
X202725844Y-44480238D01*
X202844238Y-44361844D01*
X202937260Y-44222626D01*
X202938114Y-44220562D01*
X203499465Y-44781912D01*
X203502714Y-44778108D01*
X203502716Y-44778106D01*
X203636365Y-44560010D01*
X203734243Y-44323711D01*
X203734246Y-44323703D01*
X203793957Y-44074989D01*
X203814025Y-43820005D01*
X203814025Y-43819994D01*
X203793957Y-43565010D01*
X203734246Y-43316296D01*
X203734243Y-43316288D01*
X203636363Y-43079986D01*
X203513600Y-42879652D01*
X203479973Y-42788502D01*
X203483788Y-42691422D01*
X203524463Y-42603192D01*
X203595807Y-42537243D01*
X203686957Y-42503616D01*
X203784037Y-42507431D01*
X203856007Y-42537242D01*
X204029296Y-42643433D01*
X204251135Y-42735322D01*
X204251137Y-42735323D01*
X204484620Y-42791377D01*
X204484627Y-42791378D01*
X204723996Y-42810217D01*
X204724000Y-42810217D01*
X204724004Y-42810217D01*
X204963372Y-42791378D01*
X204963379Y-42791377D01*
X205025334Y-42776503D01*
X205196863Y-42735323D01*
X205418704Y-42643433D01*
X205591990Y-42537243D01*
X205683139Y-42503617D01*
X205780219Y-42507431D01*
X205868450Y-42548106D01*
X205934398Y-42619449D01*
X205968025Y-42710599D01*
X205964211Y-42807679D01*
X205934399Y-42879652D01*
X205811636Y-43079985D01*
X205713756Y-43316288D01*
X205713753Y-43316296D01*
X205654042Y-43565010D01*
X205633975Y-43819994D01*
X205633975Y-43820005D01*
X205654042Y-44074989D01*
X205713753Y-44323703D01*
X205713756Y-44323711D01*
X205811634Y-44560010D01*
X205945281Y-44778103D01*
X205948533Y-44781911D01*
X206509884Y-44220561D01*
X206510740Y-44222626D01*
X206603762Y-44361844D01*
X206722156Y-44480238D01*
X206861374Y-44573260D01*
X206863438Y-44574114D01*
X206302087Y-45135466D01*
X206305883Y-45138709D01*
X206305901Y-45138721D01*
X206523984Y-45272363D01*
X206760288Y-45370243D01*
X206760296Y-45370246D01*
X207009010Y-45429957D01*
X207263994Y-45450025D01*
X207264006Y-45450025D01*
X207518989Y-45429957D01*
X207767703Y-45370246D01*
X207767711Y-45370243D01*
X208004010Y-45272365D01*
X208222106Y-45138716D01*
X208222108Y-45138714D01*
X208225911Y-45135466D01*
X207664560Y-44574115D01*
X207666626Y-44573260D01*
X207805844Y-44480238D01*
X207924238Y-44361844D01*
X208017260Y-44222626D01*
X208018115Y-44220560D01*
X208579466Y-44781911D01*
X208582714Y-44778108D01*
X208582716Y-44778106D01*
X208716365Y-44560010D01*
X208814243Y-44323711D01*
X208814246Y-44323703D01*
X208873957Y-44074989D01*
X208894025Y-43820005D01*
X208894025Y-43819994D01*
X208873957Y-43565010D01*
X208814246Y-43316296D01*
X208814243Y-43316288D01*
X208716363Y-43079984D01*
X208582721Y-42861901D01*
X208582709Y-42861883D01*
X208579466Y-42858087D01*
X208018114Y-43419438D01*
X208017260Y-43417374D01*
X207924238Y-43278156D01*
X207805844Y-43159762D01*
X207666626Y-43066740D01*
X207664561Y-43065884D01*
X208225911Y-42504533D01*
X208222103Y-42501281D01*
X208004010Y-42367634D01*
X207767711Y-42269756D01*
X207767703Y-42269753D01*
X207518989Y-42210042D01*
X207264006Y-42189975D01*
X207263994Y-42189975D01*
X207009010Y-42210042D01*
X206760296Y-42269753D01*
X206760288Y-42269756D01*
X206523985Y-42367636D01*
X206323652Y-42490399D01*
X206232501Y-42524026D01*
X206135421Y-42520211D01*
X206047191Y-42479535D01*
X205981243Y-42408192D01*
X205947616Y-42317041D01*
X205951431Y-42219961D01*
X205981244Y-42147989D01*
X206087433Y-41974704D01*
X206179323Y-41752863D01*
X206235377Y-41519379D01*
X206254217Y-41280000D01*
X206253824Y-41275005D01*
X206235378Y-41040627D01*
X206235377Y-41040620D01*
X206179323Y-40807137D01*
X206179322Y-40807135D01*
X206177596Y-40802967D01*
X206087433Y-40585296D01*
X205981242Y-40412008D01*
X205947616Y-40320859D01*
X205951431Y-40223779D01*
X205992106Y-40135549D01*
X206063450Y-40069600D01*
X206154600Y-40035973D01*
X206251680Y-40039788D01*
X206323652Y-40069600D01*
X206523986Y-40192363D01*
X206760288Y-40290243D01*
X206760296Y-40290246D01*
X207009010Y-40349957D01*
X207263994Y-40370025D01*
X207264006Y-40370025D01*
X207518989Y-40349957D01*
X207767703Y-40290246D01*
X207767711Y-40290243D01*
X208004010Y-40192365D01*
X208222106Y-40058716D01*
X208222108Y-40058714D01*
X208225912Y-40055465D01*
X207664562Y-39494114D01*
X207666626Y-39493260D01*
X207805844Y-39400238D01*
X207924238Y-39281844D01*
X208017260Y-39142626D01*
X208018115Y-39140560D01*
X208579466Y-39701911D01*
X208582714Y-39698108D01*
X208582716Y-39698106D01*
X208716365Y-39480010D01*
X208814243Y-39243711D01*
X208814246Y-39243703D01*
X208873957Y-38994989D01*
X208894025Y-38740005D01*
X208894025Y-38739994D01*
X208873957Y-38485010D01*
X208814246Y-38236296D01*
X208814243Y-38236288D01*
X208716363Y-37999984D01*
X208582721Y-37781901D01*
X208582709Y-37781883D01*
X208579466Y-37778087D01*
X208018114Y-38339438D01*
X208017260Y-38337374D01*
X207924238Y-38198156D01*
X207805844Y-38079762D01*
X207666626Y-37986740D01*
X207664559Y-37985883D01*
X208225911Y-37424533D01*
X208222103Y-37421281D01*
X208004010Y-37287634D01*
X207767711Y-37189756D01*
X207767703Y-37189753D01*
X207518989Y-37130042D01*
X207264006Y-37109975D01*
X207263994Y-37109975D01*
X207009010Y-37130042D01*
X206760296Y-37189753D01*
X206760288Y-37189756D01*
X206523989Y-37287634D01*
X206305891Y-37421284D01*
X206302087Y-37424532D01*
X206863439Y-37985884D01*
X206861374Y-37986740D01*
X206722156Y-38079762D01*
X206603762Y-38198156D01*
X206510740Y-38337374D01*
X206509884Y-38339438D01*
X205948533Y-37778087D01*
X205945284Y-37781891D01*
X205811634Y-37999989D01*
X205713756Y-38236288D01*
X205713753Y-38236296D01*
X205654042Y-38485010D01*
X205633975Y-38739994D01*
X205633975Y-38740005D01*
X205654042Y-38994989D01*
X205713753Y-39243703D01*
X205713756Y-39243711D01*
X205811636Y-39480014D01*
X205934399Y-39680347D01*
X205968026Y-39771497D01*
X205964211Y-39868577D01*
X205923536Y-39956807D01*
X205852192Y-40022756D01*
X205761042Y-40056383D01*
X205663962Y-40052568D01*
X205591990Y-40022756D01*
X205511648Y-39973523D01*
X205418704Y-39916567D01*
X205307783Y-39870622D01*
X205196864Y-39824677D01*
X205196862Y-39824676D01*
X204963379Y-39768622D01*
X204963372Y-39768621D01*
X204724004Y-39749783D01*
X204723996Y-39749783D01*
X204484627Y-39768621D01*
X204484620Y-39768622D01*
X204251137Y-39824676D01*
X204251135Y-39824677D01*
X204029295Y-39916567D01*
X203856009Y-40022756D01*
X203764858Y-40056383D01*
X203667778Y-40052568D01*
X203579548Y-40011892D01*
X203513600Y-39940549D01*
X203479973Y-39849398D01*
X203483788Y-39752318D01*
X203513600Y-39680346D01*
X203636365Y-39480010D01*
X203734243Y-39243711D01*
X203734246Y-39243703D01*
X203793957Y-38994989D01*
X203814025Y-38740005D01*
X203814025Y-38739994D01*
X203793957Y-38485010D01*
X203734246Y-38236296D01*
X203734243Y-38236288D01*
X203636363Y-37999984D01*
X203502721Y-37781901D01*
X203502709Y-37781883D01*
X203499466Y-37778087D01*
X202938114Y-38339438D01*
X202937260Y-38337374D01*
X202844238Y-38198156D01*
X202725844Y-38079762D01*
X202586626Y-37986740D01*
X202584559Y-37985883D01*
X203145911Y-37424533D01*
X203142103Y-37421281D01*
X202924010Y-37287634D01*
X202687711Y-37189756D01*
X202687703Y-37189753D01*
X202438989Y-37130042D01*
X202184006Y-37109975D01*
X202183994Y-37109975D01*
X201929010Y-37130042D01*
X201680296Y-37189753D01*
X201680288Y-37189756D01*
X201443989Y-37287634D01*
X201225891Y-37421284D01*
X201222087Y-37424532D01*
X201783439Y-37985884D01*
X201781374Y-37986740D01*
X201642156Y-38079762D01*
X201523762Y-38198156D01*
X201430740Y-38337374D01*
X201429884Y-38339439D01*
X200868532Y-37778087D01*
X200865284Y-37781891D01*
X200731634Y-37999989D01*
X200633756Y-38236288D01*
X200633753Y-38236296D01*
X200574042Y-38485010D01*
X200553975Y-38739994D01*
X200553975Y-38740005D01*
X200574042Y-38994989D01*
X200633753Y-39243703D01*
X200633756Y-39243711D01*
X200731634Y-39480010D01*
X200865281Y-39698103D01*
X200868532Y-39701910D01*
X201429883Y-39140558D01*
X201430740Y-39142626D01*
X201523762Y-39281844D01*
X201642156Y-39400238D01*
X201781374Y-39493260D01*
X201783438Y-39494114D01*
X201222087Y-40055466D01*
X201225883Y-40058709D01*
X201225901Y-40058721D01*
X201443984Y-40192363D01*
X201680288Y-40290243D01*
X201680296Y-40290246D01*
X201929010Y-40349957D01*
X202183994Y-40370025D01*
X202184006Y-40370025D01*
X202438989Y-40349957D01*
X202687703Y-40290246D01*
X202687711Y-40290243D01*
X202924010Y-40192365D01*
X203124346Y-40069600D01*
X203215496Y-40035974D01*
X203312576Y-40039788D01*
X203400807Y-40080463D01*
X203466756Y-40151806D01*
X203500382Y-40242956D01*
X203496568Y-40340036D01*
X203466756Y-40412009D01*
X203360567Y-40585295D01*
X203268677Y-40807135D01*
X203268676Y-40807137D01*
X203212622Y-41040620D01*
X203212621Y-41040627D01*
X203193783Y-41279995D01*
X203193783Y-41280004D01*
X203212621Y-41519372D01*
X203212622Y-41519379D01*
X203268676Y-41752862D01*
X203268677Y-41752863D01*
X203360567Y-41974704D01*
X203404211Y-42045925D01*
X203466756Y-42147990D01*
X203500383Y-42239140D01*
X203496568Y-42336220D01*
X203455893Y-42424450D01*
X203384549Y-42490399D01*
X203293399Y-42524026D01*
X203196319Y-42520211D01*
X203124347Y-42490399D01*
X202924014Y-42367636D01*
X202687711Y-42269756D01*
X202687703Y-42269753D01*
X202438989Y-42210042D01*
X202184006Y-42189975D01*
X202183994Y-42189975D01*
X201929010Y-42210042D01*
X201680296Y-42269753D01*
X201680288Y-42269756D01*
X201443989Y-42367634D01*
X201225891Y-42501284D01*
X201222086Y-42504533D01*
X201783437Y-43065885D01*
X201781374Y-43066740D01*
X201642156Y-43159762D01*
X201523762Y-43278156D01*
X201430740Y-43417374D01*
X201429884Y-43419439D01*
X200868532Y-42858087D01*
X200865284Y-42861891D01*
X200731634Y-43079989D01*
X200633756Y-43316288D01*
X200633753Y-43316296D01*
X200574042Y-43565010D01*
X200553975Y-43819994D01*
X200553975Y-43820005D01*
X115168025Y-43820005D01*
X115168025Y-43819994D01*
X115147957Y-43565010D01*
X115088246Y-43316296D01*
X115088243Y-43316288D01*
X114990363Y-43079984D01*
X114856721Y-42861901D01*
X114856709Y-42861883D01*
X114853466Y-42858087D01*
X114292114Y-43419438D01*
X114291260Y-43417374D01*
X114198238Y-43278156D01*
X114079844Y-43159762D01*
X113940626Y-43066740D01*
X113938561Y-43065884D01*
X114499911Y-42504533D01*
X114496103Y-42501281D01*
X114278010Y-42367634D01*
X114041711Y-42269756D01*
X114041703Y-42269753D01*
X113792989Y-42210042D01*
X113538006Y-42189975D01*
X113537994Y-42189975D01*
X113283010Y-42210042D01*
X113034296Y-42269753D01*
X113034288Y-42269756D01*
X112797985Y-42367636D01*
X112597652Y-42490399D01*
X112506501Y-42524026D01*
X112409421Y-42520211D01*
X112321191Y-42479535D01*
X112255243Y-42408192D01*
X112221616Y-42317041D01*
X112225431Y-42219961D01*
X112255244Y-42147989D01*
X112361433Y-41974704D01*
X112453323Y-41752863D01*
X112509377Y-41519379D01*
X112528217Y-41280000D01*
X112527824Y-41275005D01*
X112509378Y-41040627D01*
X112509377Y-41040620D01*
X112453323Y-40807137D01*
X112453322Y-40807135D01*
X112451596Y-40802967D01*
X112361433Y-40585296D01*
X112255242Y-40412008D01*
X112221616Y-40320859D01*
X112225431Y-40223779D01*
X112266106Y-40135549D01*
X112337450Y-40069600D01*
X112428600Y-40035973D01*
X112525680Y-40039788D01*
X112597652Y-40069600D01*
X112797986Y-40192363D01*
X113034288Y-40290243D01*
X113034296Y-40290246D01*
X113283010Y-40349957D01*
X113537994Y-40370025D01*
X113538006Y-40370025D01*
X113792989Y-40349957D01*
X114041703Y-40290246D01*
X114041711Y-40290243D01*
X114278010Y-40192365D01*
X114496106Y-40058716D01*
X114496108Y-40058714D01*
X114499912Y-40055465D01*
X113938562Y-39494114D01*
X113940626Y-39493260D01*
X114079844Y-39400238D01*
X114198238Y-39281844D01*
X114291260Y-39142626D01*
X114292115Y-39140560D01*
X114853466Y-39701911D01*
X114856714Y-39698108D01*
X114856716Y-39698106D01*
X114902126Y-39624003D01*
X120870435Y-39624003D01*
X120890630Y-39803245D01*
X120890631Y-39803251D01*
X120890632Y-39803255D01*
X120950211Y-39973522D01*
X120950212Y-39973523D01*
X120950214Y-39973529D01*
X121046180Y-40126257D01*
X121046182Y-40126259D01*
X121046184Y-40126262D01*
X121173738Y-40253816D01*
X121173740Y-40253817D01*
X121173742Y-40253819D01*
X121326470Y-40349785D01*
X121326473Y-40349786D01*
X121326478Y-40349789D01*
X121496745Y-40409368D01*
X121496754Y-40409369D01*
X121675996Y-40429565D01*
X121676000Y-40429565D01*
X121676004Y-40429565D01*
X121831815Y-40412009D01*
X121855255Y-40409368D01*
X122025522Y-40349789D01*
X122025527Y-40349785D01*
X122025529Y-40349785D01*
X122178257Y-40253819D01*
X122178256Y-40253819D01*
X122178262Y-40253816D01*
X122305816Y-40126262D01*
X122348259Y-40058714D01*
X122401785Y-39973529D01*
X122401785Y-39973527D01*
X122401789Y-39973522D01*
X122461368Y-39803255D01*
X122475216Y-39680347D01*
X122481565Y-39624003D01*
X137380435Y-39624003D01*
X137400630Y-39803245D01*
X137400631Y-39803251D01*
X137400632Y-39803255D01*
X137460211Y-39973522D01*
X137460212Y-39973523D01*
X137460214Y-39973529D01*
X137556180Y-40126257D01*
X137556182Y-40126259D01*
X137556184Y-40126262D01*
X137683738Y-40253816D01*
X137683740Y-40253817D01*
X137683742Y-40253819D01*
X137836470Y-40349785D01*
X137836473Y-40349786D01*
X137836478Y-40349789D01*
X138006745Y-40409368D01*
X138006754Y-40409369D01*
X138185996Y-40429565D01*
X138186000Y-40429565D01*
X138186004Y-40429565D01*
X138341815Y-40412009D01*
X138365255Y-40409368D01*
X138535522Y-40349789D01*
X138535527Y-40349785D01*
X138535529Y-40349785D01*
X138688257Y-40253819D01*
X138688256Y-40253819D01*
X138688262Y-40253816D01*
X138815816Y-40126262D01*
X138858259Y-40058714D01*
X138911785Y-39973529D01*
X138911785Y-39973527D01*
X138911789Y-39973522D01*
X138971368Y-39803255D01*
X138985216Y-39680347D01*
X138991565Y-39624003D01*
X153382435Y-39624003D01*
X153402630Y-39803245D01*
X153402631Y-39803251D01*
X153402632Y-39803255D01*
X153462211Y-39973522D01*
X153462212Y-39973523D01*
X153462214Y-39973529D01*
X153558180Y-40126257D01*
X153558182Y-40126259D01*
X153558184Y-40126262D01*
X153685738Y-40253816D01*
X153685740Y-40253817D01*
X153685742Y-40253819D01*
X153838470Y-40349785D01*
X153838473Y-40349786D01*
X153838478Y-40349789D01*
X154008745Y-40409368D01*
X154008754Y-40409369D01*
X154187996Y-40429565D01*
X154188000Y-40429565D01*
X154188004Y-40429565D01*
X154343815Y-40412009D01*
X154367255Y-40409368D01*
X154537522Y-40349789D01*
X154537527Y-40349785D01*
X154537529Y-40349785D01*
X154690257Y-40253819D01*
X154690256Y-40253819D01*
X154690262Y-40253816D01*
X154817816Y-40126262D01*
X154860259Y-40058714D01*
X154913785Y-39973529D01*
X154913785Y-39973527D01*
X154913789Y-39973522D01*
X154973368Y-39803255D01*
X154987216Y-39680347D01*
X154993565Y-39624003D01*
X169384435Y-39624003D01*
X169404630Y-39803245D01*
X169404631Y-39803251D01*
X169404632Y-39803255D01*
X169464211Y-39973522D01*
X169464212Y-39973523D01*
X169464214Y-39973529D01*
X169560180Y-40126257D01*
X169560182Y-40126259D01*
X169560184Y-40126262D01*
X169687738Y-40253816D01*
X169687740Y-40253817D01*
X169687742Y-40253819D01*
X169840470Y-40349785D01*
X169840473Y-40349786D01*
X169840478Y-40349789D01*
X170010745Y-40409368D01*
X170010754Y-40409369D01*
X170189996Y-40429565D01*
X170190000Y-40429565D01*
X170190004Y-40429565D01*
X170345815Y-40412009D01*
X170369255Y-40409368D01*
X170539522Y-40349789D01*
X170539527Y-40349785D01*
X170539529Y-40349785D01*
X170692257Y-40253819D01*
X170692256Y-40253819D01*
X170692262Y-40253816D01*
X170819816Y-40126262D01*
X170862259Y-40058714D01*
X170915785Y-39973529D01*
X170915785Y-39973527D01*
X170915789Y-39973522D01*
X170975368Y-39803255D01*
X170989216Y-39680347D01*
X170995565Y-39624003D01*
X185386435Y-39624003D01*
X185406630Y-39803245D01*
X185406631Y-39803251D01*
X185406632Y-39803255D01*
X185466211Y-39973522D01*
X185466212Y-39973523D01*
X185466214Y-39973529D01*
X185562180Y-40126257D01*
X185562182Y-40126259D01*
X185562184Y-40126262D01*
X185689738Y-40253816D01*
X185689740Y-40253817D01*
X185689742Y-40253819D01*
X185842470Y-40349785D01*
X185842473Y-40349786D01*
X185842478Y-40349789D01*
X186012745Y-40409368D01*
X186012754Y-40409369D01*
X186191996Y-40429565D01*
X186192000Y-40429565D01*
X186192004Y-40429565D01*
X186347815Y-40412009D01*
X186371255Y-40409368D01*
X186541522Y-40349789D01*
X186541527Y-40349785D01*
X186541529Y-40349785D01*
X186694257Y-40253819D01*
X186694256Y-40253819D01*
X186694262Y-40253816D01*
X186821816Y-40126262D01*
X186864259Y-40058714D01*
X186917785Y-39973529D01*
X186917785Y-39973527D01*
X186917789Y-39973522D01*
X186977368Y-39803255D01*
X186991216Y-39680347D01*
X186997565Y-39624003D01*
X186997565Y-39623996D01*
X186977369Y-39444754D01*
X186977368Y-39444745D01*
X186917789Y-39274478D01*
X186917786Y-39274473D01*
X186917785Y-39274470D01*
X186821819Y-39121742D01*
X186821817Y-39121740D01*
X186821816Y-39121738D01*
X186694262Y-38994184D01*
X186694259Y-38994182D01*
X186694257Y-38994180D01*
X186541529Y-38898214D01*
X186541524Y-38898212D01*
X186541522Y-38898211D01*
X186371255Y-38838632D01*
X186371251Y-38838631D01*
X186371245Y-38838630D01*
X186192004Y-38818435D01*
X186191996Y-38818435D01*
X186012754Y-38838630D01*
X186012746Y-38838631D01*
X186012745Y-38838632D01*
X185842478Y-38898211D01*
X185842476Y-38898211D01*
X185842476Y-38898212D01*
X185842470Y-38898214D01*
X185689742Y-38994180D01*
X185562180Y-39121742D01*
X185466214Y-39274470D01*
X185466212Y-39274476D01*
X185406632Y-39444746D01*
X185406630Y-39444754D01*
X185386435Y-39623996D01*
X185386435Y-39624003D01*
X170995565Y-39624003D01*
X170995565Y-39623996D01*
X170975369Y-39444754D01*
X170975368Y-39444745D01*
X170915789Y-39274478D01*
X170915786Y-39274473D01*
X170915785Y-39274470D01*
X170819819Y-39121742D01*
X170819817Y-39121740D01*
X170819816Y-39121738D01*
X170692262Y-38994184D01*
X170692259Y-38994182D01*
X170692257Y-38994180D01*
X170539529Y-38898214D01*
X170539524Y-38898212D01*
X170539522Y-38898211D01*
X170369255Y-38838632D01*
X170369251Y-38838631D01*
X170369245Y-38838630D01*
X170190004Y-38818435D01*
X170189996Y-38818435D01*
X170010754Y-38838630D01*
X170010746Y-38838631D01*
X170010745Y-38838632D01*
X169840478Y-38898211D01*
X169840476Y-38898211D01*
X169840476Y-38898212D01*
X169840470Y-38898214D01*
X169687742Y-38994180D01*
X169560180Y-39121742D01*
X169464214Y-39274470D01*
X169464212Y-39274476D01*
X169404632Y-39444746D01*
X169404630Y-39444754D01*
X169384435Y-39623996D01*
X169384435Y-39624003D01*
X154993565Y-39624003D01*
X154993565Y-39623996D01*
X154973369Y-39444754D01*
X154973368Y-39444745D01*
X154913789Y-39274478D01*
X154913786Y-39274473D01*
X154913785Y-39274470D01*
X154817819Y-39121742D01*
X154817817Y-39121740D01*
X154817816Y-39121738D01*
X154690262Y-38994184D01*
X154690259Y-38994182D01*
X154690257Y-38994180D01*
X154537529Y-38898214D01*
X154537524Y-38898212D01*
X154537522Y-38898211D01*
X154367255Y-38838632D01*
X154367251Y-38838631D01*
X154367245Y-38838630D01*
X154188004Y-38818435D01*
X154187996Y-38818435D01*
X154008754Y-38838630D01*
X154008746Y-38838631D01*
X154008745Y-38838632D01*
X153838478Y-38898211D01*
X153838476Y-38898211D01*
X153838476Y-38898212D01*
X153838470Y-38898214D01*
X153685742Y-38994180D01*
X153558180Y-39121742D01*
X153462214Y-39274470D01*
X153462212Y-39274476D01*
X153402632Y-39444746D01*
X153402630Y-39444754D01*
X153382435Y-39623996D01*
X153382435Y-39624003D01*
X138991565Y-39624003D01*
X138991565Y-39623996D01*
X138971369Y-39444754D01*
X138971368Y-39444745D01*
X138911789Y-39274478D01*
X138911786Y-39274473D01*
X138911785Y-39274470D01*
X138815819Y-39121742D01*
X138815817Y-39121740D01*
X138815816Y-39121738D01*
X138688262Y-38994184D01*
X138688259Y-38994182D01*
X138688257Y-38994180D01*
X138535529Y-38898214D01*
X138535524Y-38898212D01*
X138535522Y-38898211D01*
X138365255Y-38838632D01*
X138365251Y-38838631D01*
X138365245Y-38838630D01*
X138186004Y-38818435D01*
X138185996Y-38818435D01*
X138006754Y-38838630D01*
X138006746Y-38838631D01*
X138006745Y-38838632D01*
X137836478Y-38898211D01*
X137836476Y-38898211D01*
X137836476Y-38898212D01*
X137836470Y-38898214D01*
X137683742Y-38994180D01*
X137556180Y-39121742D01*
X137460214Y-39274470D01*
X137460212Y-39274476D01*
X137400632Y-39444746D01*
X137400630Y-39444754D01*
X137380435Y-39623996D01*
X137380435Y-39624003D01*
X122481565Y-39624003D01*
X122481565Y-39623996D01*
X122461369Y-39444754D01*
X122461368Y-39444745D01*
X122401789Y-39274478D01*
X122401786Y-39274473D01*
X122401785Y-39274470D01*
X122305819Y-39121742D01*
X122305817Y-39121740D01*
X122305816Y-39121738D01*
X122178262Y-38994184D01*
X122178259Y-38994182D01*
X122178257Y-38994180D01*
X122025529Y-38898214D01*
X122025524Y-38898212D01*
X122025522Y-38898211D01*
X121855255Y-38838632D01*
X121855251Y-38838631D01*
X121855245Y-38838630D01*
X121676004Y-38818435D01*
X121675996Y-38818435D01*
X121496754Y-38838630D01*
X121496746Y-38838631D01*
X121496745Y-38838632D01*
X121326478Y-38898211D01*
X121326476Y-38898211D01*
X121326476Y-38898212D01*
X121326470Y-38898214D01*
X121173742Y-38994180D01*
X121046180Y-39121742D01*
X120950214Y-39274470D01*
X120950212Y-39274476D01*
X120890632Y-39444746D01*
X120890630Y-39444754D01*
X120870435Y-39623996D01*
X120870435Y-39624003D01*
X114902126Y-39624003D01*
X114990365Y-39480010D01*
X115088243Y-39243711D01*
X115088246Y-39243703D01*
X115147957Y-38994989D01*
X115168025Y-38740005D01*
X115168025Y-38739994D01*
X115147957Y-38485010D01*
X115088246Y-38236296D01*
X115088243Y-38236288D01*
X114990363Y-37999984D01*
X114856721Y-37781901D01*
X114856709Y-37781883D01*
X114853466Y-37778087D01*
X114292114Y-38339438D01*
X114291260Y-38337374D01*
X114198238Y-38198156D01*
X114079844Y-38079762D01*
X113940626Y-37986740D01*
X113938559Y-37985883D01*
X114499911Y-37424533D01*
X114496103Y-37421281D01*
X114278010Y-37287634D01*
X114041711Y-37189756D01*
X114041703Y-37189753D01*
X113792989Y-37130042D01*
X113538006Y-37109975D01*
X113537994Y-37109975D01*
X113283010Y-37130042D01*
X113034296Y-37189753D01*
X113034288Y-37189756D01*
X112797989Y-37287634D01*
X112579891Y-37421284D01*
X112576087Y-37424532D01*
X113137439Y-37985884D01*
X113135374Y-37986740D01*
X112996156Y-38079762D01*
X112877762Y-38198156D01*
X112784740Y-38337374D01*
X112783884Y-38339438D01*
X112222533Y-37778087D01*
X112219284Y-37781891D01*
X112085634Y-37999989D01*
X111987756Y-38236288D01*
X111987753Y-38236296D01*
X111928042Y-38485010D01*
X111907975Y-38739994D01*
X111907975Y-38740005D01*
X111928042Y-38994989D01*
X111987753Y-39243703D01*
X111987756Y-39243711D01*
X112085636Y-39480014D01*
X112208399Y-39680347D01*
X112242026Y-39771497D01*
X112238211Y-39868577D01*
X112197536Y-39956807D01*
X112126192Y-40022756D01*
X112035042Y-40056383D01*
X111937962Y-40052568D01*
X111865990Y-40022756D01*
X111785648Y-39973523D01*
X111692704Y-39916567D01*
X111581783Y-39870622D01*
X111470864Y-39824677D01*
X111470862Y-39824676D01*
X111237379Y-39768622D01*
X111237372Y-39768621D01*
X110998004Y-39749783D01*
X110997996Y-39749783D01*
X110758627Y-39768621D01*
X110758620Y-39768622D01*
X110525137Y-39824676D01*
X110525135Y-39824677D01*
X110303295Y-39916567D01*
X110130009Y-40022756D01*
X110038858Y-40056383D01*
X109941778Y-40052568D01*
X109853548Y-40011892D01*
X109787600Y-39940549D01*
X109753973Y-39849398D01*
X109757788Y-39752318D01*
X109787600Y-39680346D01*
X109910365Y-39480010D01*
X110008243Y-39243711D01*
X110008246Y-39243703D01*
X110067957Y-38994989D01*
X110088025Y-38740005D01*
X110088025Y-38739994D01*
X110067957Y-38485010D01*
X110008246Y-38236296D01*
X110008243Y-38236288D01*
X109910363Y-37999984D01*
X109776721Y-37781901D01*
X109776709Y-37781883D01*
X109773466Y-37778087D01*
X109212114Y-38339438D01*
X109211260Y-38337374D01*
X109118238Y-38198156D01*
X108999844Y-38079762D01*
X108860626Y-37986740D01*
X108858559Y-37985883D01*
X109419911Y-37424533D01*
X109416103Y-37421281D01*
X109198010Y-37287634D01*
X108961711Y-37189756D01*
X108961703Y-37189753D01*
X108712989Y-37130042D01*
X108458006Y-37109975D01*
X108457994Y-37109975D01*
X108203010Y-37130042D01*
X107954296Y-37189753D01*
X107954288Y-37189756D01*
X107717982Y-37287637D01*
X107709272Y-37292076D01*
X107708098Y-37289772D01*
X107633013Y-37317461D01*
X107535934Y-37313633D01*
X107490677Y-37292761D01*
X107498471Y-37363997D01*
X107496086Y-37424532D01*
X108057439Y-37985884D01*
X108055374Y-37986740D01*
X107916156Y-38079762D01*
X107797762Y-38198156D01*
X107704740Y-38337374D01*
X107703884Y-38339439D01*
X107142532Y-37778087D01*
X107139284Y-37781891D01*
X107005634Y-37999989D01*
X106907756Y-38236288D01*
X106907753Y-38236296D01*
X106848042Y-38485010D01*
X106827975Y-38739994D01*
X106827975Y-38740005D01*
X106848042Y-38994989D01*
X106907753Y-39243703D01*
X106907756Y-39243711D01*
X107005634Y-39480010D01*
X107139281Y-39698103D01*
X107142532Y-39701910D01*
X107703883Y-39140558D01*
X107704740Y-39142626D01*
X107797762Y-39281844D01*
X107916156Y-39400238D01*
X108055374Y-39493260D01*
X108057438Y-39494114D01*
X107496087Y-40055466D01*
X107499883Y-40058709D01*
X107499901Y-40058721D01*
X107717984Y-40192363D01*
X107954288Y-40290243D01*
X107954296Y-40290246D01*
X108203010Y-40349957D01*
X108457994Y-40370025D01*
X108458006Y-40370025D01*
X108712989Y-40349957D01*
X108961703Y-40290246D01*
X108961711Y-40290243D01*
X109198010Y-40192365D01*
X109398346Y-40069600D01*
X109489496Y-40035974D01*
X109586576Y-40039788D01*
X109674807Y-40080463D01*
X109740756Y-40151806D01*
X109774382Y-40242956D01*
X109770568Y-40340036D01*
X109740756Y-40412009D01*
X109634567Y-40585295D01*
X109542677Y-40807135D01*
X109542676Y-40807137D01*
X109486622Y-41040620D01*
X109486621Y-41040627D01*
X109467783Y-41279995D01*
X109467783Y-41280004D01*
X109486621Y-41519372D01*
X109486622Y-41519379D01*
X109542676Y-41752862D01*
X109542677Y-41752863D01*
X109634567Y-41974704D01*
X109678211Y-42045925D01*
X109740756Y-42147990D01*
X109774383Y-42239140D01*
X109770568Y-42336220D01*
X109729893Y-42424450D01*
X109658549Y-42490399D01*
X109567399Y-42524026D01*
X109470319Y-42520211D01*
X109398347Y-42490399D01*
X109198014Y-42367636D01*
X108961711Y-42269756D01*
X108961703Y-42269753D01*
X108712989Y-42210042D01*
X108458006Y-42189975D01*
X108457994Y-42189975D01*
X108203010Y-42210042D01*
X107954296Y-42269753D01*
X107954288Y-42269756D01*
X107717989Y-42367634D01*
X107499891Y-42501284D01*
X107496087Y-42504533D01*
X108057437Y-43065885D01*
X108055374Y-43066740D01*
X107916156Y-43159762D01*
X107797762Y-43278156D01*
X107704740Y-43417374D01*
X107703884Y-43419439D01*
X107142532Y-42858087D01*
X107139284Y-42861891D01*
X107005634Y-43079989D01*
X106907756Y-43316288D01*
X106907753Y-43316296D01*
X106848042Y-43565010D01*
X106827975Y-43819994D01*
X106827975Y-43820005D01*
X102500500Y-43820005D01*
X102500500Y-37053331D01*
X102519454Y-36958043D01*
X102573430Y-36877261D01*
X102654212Y-36823285D01*
X102749500Y-36804331D01*
X102844788Y-36823285D01*
X102920736Y-36872557D01*
X102975495Y-36924428D01*
X103041555Y-36987004D01*
X103041558Y-36987007D01*
X103041563Y-36987011D01*
X103326481Y-37203600D01*
X103633147Y-37388115D01*
X103633151Y-37388117D01*
X103633153Y-37388118D01*
X103633155Y-37388119D01*
X103957949Y-37538384D01*
X103957953Y-37538385D01*
X103957965Y-37538391D01*
X104297126Y-37652668D01*
X104530144Y-37703959D01*
X104646648Y-37729604D01*
X104646651Y-37729604D01*
X104646654Y-37729605D01*
X104741944Y-37739968D01*
X105002446Y-37768300D01*
X105002452Y-37768300D01*
X105360354Y-37768300D01*
X105593899Y-37742900D01*
X105716146Y-37729605D01*
X106065674Y-37652668D01*
X106404835Y-37538391D01*
X106729653Y-37388115D01*
X107036319Y-37203600D01*
X107098977Y-37155968D01*
X107186302Y-37113393D01*
X107283277Y-37107475D01*
X107356347Y-37132647D01*
X107348157Y-37110437D01*
X107351985Y-37013358D01*
X107392673Y-36925133D01*
X107422856Y-36890751D01*
X107581068Y-36740886D01*
X107721121Y-36576003D01*
X120870435Y-36576003D01*
X120890630Y-36755245D01*
X120890631Y-36755251D01*
X120890632Y-36755255D01*
X120950211Y-36925522D01*
X120950212Y-36925523D01*
X120950214Y-36925529D01*
X121046180Y-37078257D01*
X121046182Y-37078259D01*
X121046184Y-37078262D01*
X121173738Y-37205816D01*
X121173740Y-37205817D01*
X121173742Y-37205819D01*
X121326470Y-37301785D01*
X121326473Y-37301786D01*
X121326478Y-37301789D01*
X121496745Y-37361368D01*
X121496754Y-37361369D01*
X121675996Y-37381565D01*
X121676000Y-37381565D01*
X121676004Y-37381565D01*
X121815908Y-37365801D01*
X121855255Y-37361368D01*
X122025522Y-37301789D01*
X122025527Y-37301785D01*
X122025529Y-37301785D01*
X122178257Y-37205819D01*
X122178256Y-37205819D01*
X122178262Y-37205816D01*
X122305816Y-37078262D01*
X122401789Y-36925522D01*
X122461368Y-36755255D01*
X122481565Y-36576003D01*
X137380435Y-36576003D01*
X137400630Y-36755245D01*
X137400631Y-36755251D01*
X137400632Y-36755255D01*
X137460211Y-36925522D01*
X137460212Y-36925523D01*
X137460214Y-36925529D01*
X137556180Y-37078257D01*
X137556182Y-37078259D01*
X137556184Y-37078262D01*
X137683738Y-37205816D01*
X137683740Y-37205817D01*
X137683742Y-37205819D01*
X137836470Y-37301785D01*
X137836473Y-37301786D01*
X137836478Y-37301789D01*
X138006745Y-37361368D01*
X138006754Y-37361369D01*
X138185996Y-37381565D01*
X138186000Y-37381565D01*
X138186004Y-37381565D01*
X138325908Y-37365801D01*
X138365255Y-37361368D01*
X138535522Y-37301789D01*
X138535527Y-37301785D01*
X138535529Y-37301785D01*
X138688257Y-37205819D01*
X138688256Y-37205819D01*
X138688262Y-37205816D01*
X138815816Y-37078262D01*
X138911789Y-36925522D01*
X138971368Y-36755255D01*
X138991565Y-36576003D01*
X153382435Y-36576003D01*
X153402630Y-36755245D01*
X153402631Y-36755251D01*
X153402632Y-36755255D01*
X153462211Y-36925522D01*
X153462212Y-36925523D01*
X153462214Y-36925529D01*
X153558180Y-37078257D01*
X153558182Y-37078259D01*
X153558184Y-37078262D01*
X153685738Y-37205816D01*
X153685740Y-37205817D01*
X153685742Y-37205819D01*
X153838470Y-37301785D01*
X153838473Y-37301786D01*
X153838478Y-37301789D01*
X154008745Y-37361368D01*
X154008754Y-37361369D01*
X154187996Y-37381565D01*
X154188000Y-37381565D01*
X154188004Y-37381565D01*
X154327908Y-37365801D01*
X154367255Y-37361368D01*
X154537522Y-37301789D01*
X154537527Y-37301785D01*
X154537529Y-37301785D01*
X154690257Y-37205819D01*
X154690256Y-37205819D01*
X154690262Y-37205816D01*
X154817816Y-37078262D01*
X154913789Y-36925522D01*
X154973368Y-36755255D01*
X154993565Y-36576003D01*
X169384435Y-36576003D01*
X169404630Y-36755245D01*
X169404631Y-36755251D01*
X169404632Y-36755255D01*
X169464211Y-36925522D01*
X169464212Y-36925523D01*
X169464214Y-36925529D01*
X169560180Y-37078257D01*
X169560182Y-37078259D01*
X169560184Y-37078262D01*
X169687738Y-37205816D01*
X169687740Y-37205817D01*
X169687742Y-37205819D01*
X169840470Y-37301785D01*
X169840473Y-37301786D01*
X169840478Y-37301789D01*
X170010745Y-37361368D01*
X170010754Y-37361369D01*
X170189996Y-37381565D01*
X170190000Y-37381565D01*
X170190004Y-37381565D01*
X170329908Y-37365801D01*
X170369255Y-37361368D01*
X170539522Y-37301789D01*
X170539527Y-37301785D01*
X170539529Y-37301785D01*
X170692257Y-37205819D01*
X170692256Y-37205819D01*
X170692262Y-37205816D01*
X170819816Y-37078262D01*
X170915789Y-36925522D01*
X170975368Y-36755255D01*
X170995565Y-36576003D01*
X185386435Y-36576003D01*
X185406630Y-36755245D01*
X185406631Y-36755251D01*
X185406632Y-36755255D01*
X185466211Y-36925522D01*
X185466212Y-36925523D01*
X185466214Y-36925529D01*
X185562180Y-37078257D01*
X185562182Y-37078259D01*
X185562184Y-37078262D01*
X185689738Y-37205816D01*
X185689740Y-37205817D01*
X185689742Y-37205819D01*
X185842470Y-37301785D01*
X185842473Y-37301786D01*
X185842478Y-37301789D01*
X186012745Y-37361368D01*
X186012754Y-37361369D01*
X186191996Y-37381565D01*
X186192000Y-37381565D01*
X186192004Y-37381565D01*
X186331908Y-37365801D01*
X186371255Y-37361368D01*
X186541522Y-37301789D01*
X186541527Y-37301785D01*
X186541529Y-37301785D01*
X186694257Y-37205819D01*
X186694256Y-37205819D01*
X186694262Y-37205816D01*
X186821816Y-37078262D01*
X186917789Y-36925522D01*
X186977368Y-36755255D01*
X186997565Y-36576000D01*
X186977368Y-36396745D01*
X186917789Y-36226478D01*
X186917786Y-36226473D01*
X186917785Y-36226470D01*
X186821819Y-36073742D01*
X186821817Y-36073740D01*
X186821816Y-36073738D01*
X186694262Y-35946184D01*
X186694259Y-35946182D01*
X186694257Y-35946180D01*
X186541529Y-35850214D01*
X186541524Y-35850212D01*
X186541522Y-35850211D01*
X186371255Y-35790632D01*
X186371251Y-35790631D01*
X186371245Y-35790630D01*
X186192004Y-35770435D01*
X186191996Y-35770435D01*
X186012754Y-35790630D01*
X186012746Y-35790631D01*
X186012745Y-35790632D01*
X185842478Y-35850211D01*
X185842476Y-35850211D01*
X185842476Y-35850212D01*
X185842470Y-35850214D01*
X185689742Y-35946180D01*
X185562180Y-36073742D01*
X185466214Y-36226470D01*
X185466211Y-36226476D01*
X185466211Y-36226478D01*
X185407225Y-36395052D01*
X185406632Y-36396746D01*
X185406630Y-36396754D01*
X185386435Y-36575996D01*
X185386435Y-36576003D01*
X170995565Y-36576003D01*
X170995565Y-36576000D01*
X170975368Y-36396745D01*
X170915789Y-36226478D01*
X170915786Y-36226473D01*
X170915785Y-36226470D01*
X170819819Y-36073742D01*
X170819817Y-36073740D01*
X170819816Y-36073738D01*
X170692262Y-35946184D01*
X170692259Y-35946182D01*
X170692257Y-35946180D01*
X170539529Y-35850214D01*
X170539524Y-35850212D01*
X170539522Y-35850211D01*
X170369255Y-35790632D01*
X170369251Y-35790631D01*
X170369245Y-35790630D01*
X170190004Y-35770435D01*
X170189996Y-35770435D01*
X170010754Y-35790630D01*
X170010746Y-35790631D01*
X170010745Y-35790632D01*
X169840478Y-35850211D01*
X169840476Y-35850211D01*
X169840476Y-35850212D01*
X169840470Y-35850214D01*
X169687742Y-35946180D01*
X169560180Y-36073742D01*
X169464214Y-36226470D01*
X169464211Y-36226476D01*
X169464211Y-36226478D01*
X169405225Y-36395052D01*
X169404632Y-36396746D01*
X169404630Y-36396754D01*
X169384435Y-36575996D01*
X169384435Y-36576003D01*
X154993565Y-36576003D01*
X154993565Y-36576000D01*
X154973368Y-36396745D01*
X154913789Y-36226478D01*
X154913786Y-36226473D01*
X154913785Y-36226470D01*
X154817819Y-36073742D01*
X154817817Y-36073740D01*
X154817816Y-36073738D01*
X154690262Y-35946184D01*
X154690259Y-35946182D01*
X154690257Y-35946180D01*
X154537529Y-35850214D01*
X154537524Y-35850212D01*
X154537522Y-35850211D01*
X154367255Y-35790632D01*
X154367251Y-35790631D01*
X154367245Y-35790630D01*
X154188004Y-35770435D01*
X154187996Y-35770435D01*
X154008754Y-35790630D01*
X154008746Y-35790631D01*
X154008745Y-35790632D01*
X153838478Y-35850211D01*
X153838476Y-35850211D01*
X153838476Y-35850212D01*
X153838470Y-35850214D01*
X153685742Y-35946180D01*
X153558180Y-36073742D01*
X153462214Y-36226470D01*
X153462211Y-36226476D01*
X153462211Y-36226478D01*
X153403225Y-36395052D01*
X153402632Y-36396746D01*
X153402630Y-36396754D01*
X153382435Y-36575996D01*
X153382435Y-36576003D01*
X138991565Y-36576003D01*
X138991565Y-36576000D01*
X138971368Y-36396745D01*
X138911789Y-36226478D01*
X138911786Y-36226473D01*
X138911785Y-36226470D01*
X138815819Y-36073742D01*
X138815817Y-36073740D01*
X138815816Y-36073738D01*
X138688262Y-35946184D01*
X138688259Y-35946182D01*
X138688257Y-35946180D01*
X138535529Y-35850214D01*
X138535524Y-35850212D01*
X138535522Y-35850211D01*
X138365255Y-35790632D01*
X138365251Y-35790631D01*
X138365245Y-35790630D01*
X138186004Y-35770435D01*
X138185996Y-35770435D01*
X138006754Y-35790630D01*
X138006746Y-35790631D01*
X138006745Y-35790632D01*
X137836478Y-35850211D01*
X137836476Y-35850211D01*
X137836476Y-35850212D01*
X137836470Y-35850214D01*
X137683742Y-35946180D01*
X137556180Y-36073742D01*
X137460214Y-36226470D01*
X137460211Y-36226476D01*
X137460211Y-36226478D01*
X137401225Y-36395052D01*
X137400632Y-36396746D01*
X137400630Y-36396754D01*
X137380435Y-36575996D01*
X137380435Y-36576003D01*
X122481565Y-36576003D01*
X122481565Y-36576000D01*
X122461368Y-36396745D01*
X122401789Y-36226478D01*
X122401786Y-36226473D01*
X122401785Y-36226470D01*
X122305819Y-36073742D01*
X122305817Y-36073740D01*
X122305816Y-36073738D01*
X122178262Y-35946184D01*
X122178259Y-35946182D01*
X122178257Y-35946180D01*
X122025529Y-35850214D01*
X122025524Y-35850212D01*
X122025522Y-35850211D01*
X121855255Y-35790632D01*
X121855251Y-35790631D01*
X121855245Y-35790630D01*
X121676004Y-35770435D01*
X121675996Y-35770435D01*
X121496754Y-35790630D01*
X121496746Y-35790631D01*
X121496745Y-35790632D01*
X121326478Y-35850211D01*
X121326476Y-35850211D01*
X121326476Y-35850212D01*
X121326470Y-35850214D01*
X121173742Y-35946180D01*
X121046180Y-36073742D01*
X120950214Y-36226470D01*
X120950211Y-36226476D01*
X120950211Y-36226478D01*
X120891225Y-36395052D01*
X120890632Y-36396746D01*
X120890630Y-36396754D01*
X120870435Y-36575996D01*
X120870435Y-36576003D01*
X107721121Y-36576003D01*
X107812765Y-36468111D01*
X108013611Y-36171885D01*
X108181253Y-35855680D01*
X108313724Y-35523203D01*
X108409471Y-35178352D01*
X108412504Y-35159855D01*
X108440767Y-34987453D01*
X108467372Y-34825171D01*
X108486748Y-34467800D01*
X108467372Y-34110429D01*
X108409471Y-33757248D01*
X108313724Y-33412397D01*
X108181253Y-33079920D01*
X108167782Y-33054512D01*
X108013612Y-32763717D01*
X108013607Y-32763708D01*
X107926079Y-32634615D01*
X107812765Y-32467489D01*
X107581068Y-32194714D01*
X107577658Y-32190699D01*
X107530415Y-32105803D01*
X107519257Y-32009291D01*
X107545882Y-31915856D01*
X107606237Y-31839722D01*
X107691133Y-31792479D01*
X107767436Y-31780500D01*
X221217189Y-31780500D01*
X221312477Y-31799454D01*
G37*
%TD.AperFunction*%
%TD*%
M02*
