%TF.GenerationSoftware,KiCad,Pcbnew,8.0.1*%
%TF.CreationDate,2024-05-04T10:24:18+02:00*%
%TF.ProjectId,Marconi_2955_Step_Attenuator,4d617263-6f6e-4695-9f32-3935355f5374,rev?*%
%TF.SameCoordinates,Original*%
%TF.FileFunction,Copper,L1,Top*%
%TF.FilePolarity,Positive*%
%FSLAX46Y46*%
G04 Gerber Fmt 4.6, Leading zero omitted, Abs format (unit mm)*
G04 Created by KiCad (PCBNEW 8.0.1) date 2024-05-04 10:24:18*
%MOMM*%
%LPD*%
G01*
G04 APERTURE LIST*
G04 Aperture macros list*
%AMRoundRect*
0 Rectangle with rounded corners*
0 $1 Rounding radius*
0 $2 $3 $4 $5 $6 $7 $8 $9 X,Y pos of 4 corners*
0 Add a 4 corners polygon primitive as box body*
4,1,4,$2,$3,$4,$5,$6,$7,$8,$9,$2,$3,0*
0 Add four circle primitives for the rounded corners*
1,1,$1+$1,$2,$3*
1,1,$1+$1,$4,$5*
1,1,$1+$1,$6,$7*
1,1,$1+$1,$8,$9*
0 Add four rect primitives between the rounded corners*
20,1,$1+$1,$2,$3,$4,$5,0*
20,1,$1+$1,$4,$5,$6,$7,0*
20,1,$1+$1,$6,$7,$8,$9,0*
20,1,$1+$1,$8,$9,$2,$3,0*%
G04 Aperture macros list end*
%TA.AperFunction,ComponentPad*%
%ADD10C,5.600000*%
%TD*%
%TA.AperFunction,SMDPad,CuDef*%
%ADD11RoundRect,0.200000X-0.200000X-0.275000X0.200000X-0.275000X0.200000X0.275000X-0.200000X0.275000X0*%
%TD*%
%TA.AperFunction,SMDPad,CuDef*%
%ADD12RoundRect,0.225000X0.225000X0.250000X-0.225000X0.250000X-0.225000X-0.250000X0.225000X-0.250000X0*%
%TD*%
%TA.AperFunction,SMDPad,CuDef*%
%ADD13RoundRect,0.225000X-0.250000X0.225000X-0.250000X-0.225000X0.250000X-0.225000X0.250000X0.225000X0*%
%TD*%
%TA.AperFunction,SMDPad,CuDef*%
%ADD14RoundRect,0.062500X-0.275000X-0.062500X0.275000X-0.062500X0.275000X0.062500X-0.275000X0.062500X0*%
%TD*%
%TA.AperFunction,SMDPad,CuDef*%
%ADD15RoundRect,0.062500X-0.062500X-0.275000X0.062500X-0.275000X0.062500X0.275000X-0.062500X0.275000X0*%
%TD*%
%TA.AperFunction,HeatsinkPad*%
%ADD16R,1.900000X1.900000*%
%TD*%
%TA.AperFunction,SMDPad,CuDef*%
%ADD17RoundRect,0.225000X-0.225000X-0.250000X0.225000X-0.250000X0.225000X0.250000X-0.225000X0.250000X0*%
%TD*%
%TA.AperFunction,ComponentPad*%
%ADD18C,2.250000*%
%TD*%
%TA.AperFunction,ComponentPad*%
%ADD19C,2.050000*%
%TD*%
%TA.AperFunction,ComponentPad*%
%ADD20R,1.600000X1.600000*%
%TD*%
%TA.AperFunction,ComponentPad*%
%ADD21C,1.600000*%
%TD*%
%TA.AperFunction,ComponentPad*%
%ADD22R,1.700000X1.700000*%
%TD*%
%TA.AperFunction,ComponentPad*%
%ADD23O,1.700000X1.700000*%
%TD*%
%TA.AperFunction,ViaPad*%
%ADD24C,0.600000*%
%TD*%
%TA.AperFunction,Conductor*%
%ADD25C,0.156500*%
%TD*%
%TA.AperFunction,Conductor*%
%ADD26C,0.250000*%
%TD*%
%TA.AperFunction,Conductor*%
%ADD27C,0.148300*%
%TD*%
%TA.AperFunction,Conductor*%
%ADD28C,0.200000*%
%TD*%
%TA.AperFunction,Conductor*%
%ADD29C,0.500000*%
%TD*%
G04 APERTURE END LIST*
D10*
%TO.P,REF\u002A\u002A,1*%
%TO.N,N/C*%
X105181400Y-34467800D03*
%TD*%
%TO.P,REF\u002A\u002A,1*%
%TO.N,N/C*%
X105181400Y-48107600D03*
%TD*%
%TO.P,REF\u002A\u002A,1*%
%TO.N,N/C*%
X223824800Y-48107600D03*
%TD*%
%TO.P,REF\u002A\u002A,1*%
%TO.N,N/C*%
X223824800Y-34442400D03*
%TD*%
D11*
%TO.P,R3,1*%
%TO.N,+5V*%
X154316000Y-36576000D03*
%TO.P,R3,2*%
%TO.N,Net-(J3-Pin_3)*%
X155966000Y-36576000D03*
%TD*%
%TO.P,R5,1*%
%TO.N,+5V*%
X186192000Y-36576000D03*
%TO.P,R5,2*%
%TO.N,Net-(J3-Pin_10)*%
X187842000Y-36576000D03*
%TD*%
D12*
%TO.P,C23,1*%
%TO.N,+5V*%
X138186000Y-39624000D03*
%TO.P,C23,2*%
%TO.N,GND*%
X136636000Y-39624000D03*
%TD*%
D13*
%TO.P,C12,1*%
%TO.N,Net-(U2-ACG3)*%
X142758000Y-44945000D03*
%TO.P,C12,2*%
%TO.N,GND*%
X142758000Y-46495000D03*
%TD*%
%TO.P,C15,1*%
%TO.N,Net-(U3-ACG3)*%
X159014000Y-44945000D03*
%TO.P,C15,2*%
%TO.N,GND*%
X159014000Y-46495000D03*
%TD*%
D14*
%TO.P,U2,1,Vdd*%
%TO.N,+5V*%
X139709500Y-40365000D03*
%TO.P,U2,2,GND*%
%TO.N,GND*%
X139709500Y-40865000D03*
%TO.P,U2,3,RF1*%
%TO.N,Net-(U2-RF1)*%
X139709500Y-41365000D03*
%TO.P,U2,4,GND*%
%TO.N,GND*%
X139709500Y-41865000D03*
D15*
%TO.P,U2,5,ACG1*%
%TO.N,Net-(U2-ACG1)*%
X140472000Y-42627500D03*
%TO.P,U2,6*%
%TO.N,N/C*%
X140972000Y-42627500D03*
%TO.P,U2,7,ACG2*%
%TO.N,Net-(U2-ACG2)*%
X141472000Y-42627500D03*
%TO.P,U2,8,ACG3*%
%TO.N,Net-(U2-ACG3)*%
X141972000Y-42627500D03*
D14*
%TO.P,U2,9,GND*%
%TO.N,GND*%
X142734500Y-41865000D03*
%TO.P,U2,10,RF2*%
%TO.N,Net-(U2-RF2)*%
X142734500Y-41365000D03*
%TO.P,U2,11,GND*%
%TO.N,GND*%
X142734500Y-40865000D03*
%TO.P,U2,12*%
%TO.N,N/C*%
X142734500Y-40365000D03*
D15*
%TO.P,U2,13*%
X141972000Y-39602500D03*
%TO.P,U2,14,V1*%
%TO.N,Net-(J3-Pin_3)*%
X141472000Y-39602500D03*
%TO.P,U2,15*%
%TO.N,N/C*%
X140972000Y-39602500D03*
%TO.P,U2,16*%
X140472000Y-39602500D03*
D16*
%TO.P,U2,17,GND*%
%TO.N,GND*%
X141222000Y-41115000D03*
%TD*%
D13*
%TO.P,C21,1*%
%TO.N,Net-(U5-ACG3)*%
X191272000Y-44958000D03*
%TO.P,C21,2*%
%TO.N,GND*%
X191272000Y-46508000D03*
%TD*%
%TO.P,C14,1*%
%TO.N,Net-(U3-ACG2)*%
X157236000Y-44945000D03*
%TO.P,C14,2*%
%TO.N,GND*%
X157236000Y-46495000D03*
%TD*%
D11*
%TO.P,R1,1*%
%TO.N,+5V*%
X121804000Y-36576000D03*
%TO.P,R1,2*%
%TO.N,Net-(J3-Pin_7)*%
X123454000Y-36576000D03*
%TD*%
D12*
%TO.P,C24,1*%
%TO.N,+5V*%
X154188000Y-39624000D03*
%TO.P,C24,2*%
%TO.N,GND*%
X152638000Y-39624000D03*
%TD*%
D17*
%TO.P,C4,1*%
%TO.N,Net-(U3-RF2)*%
X164068000Y-41402000D03*
%TO.P,C4,2*%
%TO.N,Net-(U4-RF1)*%
X165618000Y-41402000D03*
%TD*%
%TO.P,C2,1*%
%TO.N,Net-(U1-RF2)*%
X131315000Y-41402000D03*
%TO.P,C2,2*%
%TO.N,Net-(U2-RF1)*%
X132865000Y-41402000D03*
%TD*%
D13*
%TO.P,C19,1*%
%TO.N,Net-(U5-ACG1)*%
X187716000Y-44945000D03*
%TO.P,C19,2*%
%TO.N,GND*%
X187716000Y-46495000D03*
%TD*%
%TO.P,C11,1*%
%TO.N,Net-(U2-ACG2)*%
X140980000Y-44958000D03*
%TO.P,C11,2*%
%TO.N,GND*%
X140980000Y-46508000D03*
%TD*%
D17*
%TO.P,C3,1*%
%TO.N,Net-(U2-RF2)*%
X148828000Y-41402000D03*
%TO.P,C3,2*%
%TO.N,Net-(U3-RF1)*%
X150378000Y-41402000D03*
%TD*%
%TO.P,C5,1*%
%TO.N,Net-(U4-RF2)*%
X180070000Y-41402000D03*
%TO.P,C5,2*%
%TO.N,Net-(U5-RF1)*%
X181620000Y-41402000D03*
%TD*%
D13*
%TO.P,C20,1*%
%TO.N,Net-(U5-ACG2)*%
X189494000Y-44958000D03*
%TO.P,C20,2*%
%TO.N,GND*%
X189494000Y-46508000D03*
%TD*%
D14*
%TO.P,U4,1,Vdd*%
%TO.N,+5V*%
X171737500Y-40386500D03*
%TO.P,U4,2,GND*%
%TO.N,GND*%
X171737500Y-40886500D03*
%TO.P,U4,3,RF1*%
%TO.N,Net-(U4-RF1)*%
X171737500Y-41386500D03*
%TO.P,U4,4,GND*%
%TO.N,GND*%
X171737500Y-41886500D03*
D15*
%TO.P,U4,5,ACG1*%
%TO.N,Net-(U4-ACG1)*%
X172500000Y-42649000D03*
%TO.P,U4,6*%
%TO.N,N/C*%
X173000000Y-42649000D03*
%TO.P,U4,7,ACG2*%
%TO.N,Net-(U4-ACG2)*%
X173500000Y-42649000D03*
%TO.P,U4,8,ACG3*%
%TO.N,Net-(U4-ACG3)*%
X174000000Y-42649000D03*
D14*
%TO.P,U4,9,GND*%
%TO.N,GND*%
X174762500Y-41886500D03*
%TO.P,U4,10,RF2*%
%TO.N,Net-(U4-RF2)*%
X174762500Y-41386500D03*
%TO.P,U4,11,GND*%
%TO.N,GND*%
X174762500Y-40886500D03*
%TO.P,U4,12*%
%TO.N,N/C*%
X174762500Y-40386500D03*
D15*
%TO.P,U4,13*%
X174000000Y-39624000D03*
%TO.P,U4,14,V1*%
%TO.N,Net-(J3-Pin_10)*%
X173500000Y-39624000D03*
%TO.P,U4,15*%
%TO.N,N/C*%
X173000000Y-39624000D03*
%TO.P,U4,16*%
X172500000Y-39624000D03*
D16*
%TO.P,U4,17,GND*%
%TO.N,GND*%
X173250000Y-41136500D03*
%TD*%
D14*
%TO.P,U3,1,Vdd*%
%TO.N,+5V*%
X155719500Y-40386500D03*
%TO.P,U3,2,GND*%
%TO.N,GND*%
X155719500Y-40886500D03*
%TO.P,U3,3,RF1*%
%TO.N,Net-(U3-RF1)*%
X155719500Y-41386500D03*
%TO.P,U3,4,GND*%
%TO.N,GND*%
X155719500Y-41886500D03*
D15*
%TO.P,U3,5,ACG1*%
%TO.N,Net-(U3-ACG1)*%
X156482000Y-42649000D03*
%TO.P,U3,6*%
%TO.N,N/C*%
X156982000Y-42649000D03*
%TO.P,U3,7,ACG2*%
%TO.N,Net-(U3-ACG2)*%
X157482000Y-42649000D03*
%TO.P,U3,8,ACG3*%
%TO.N,Net-(U3-ACG3)*%
X157982000Y-42649000D03*
D14*
%TO.P,U3,9,GND*%
%TO.N,GND*%
X158744500Y-41886500D03*
%TO.P,U3,10,RF2*%
%TO.N,Net-(U3-RF2)*%
X158744500Y-41386500D03*
%TO.P,U3,11,GND*%
%TO.N,GND*%
X158744500Y-40886500D03*
%TO.P,U3,12*%
%TO.N,N/C*%
X158744500Y-40386500D03*
D15*
%TO.P,U3,13*%
X157982000Y-39624000D03*
%TO.P,U3,14,V1*%
%TO.N,Net-(J3-Pin_3)*%
X157482000Y-39624000D03*
%TO.P,U3,15*%
%TO.N,N/C*%
X156982000Y-39624000D03*
%TO.P,U3,16*%
X156482000Y-39624000D03*
D16*
%TO.P,U3,17,GND*%
%TO.N,GND*%
X157232000Y-41136500D03*
%TD*%
D18*
%TO.P,OUT,2,Ext*%
%TO.N,GND*%
X113538000Y-43820000D03*
X113538000Y-38740000D03*
X108458000Y-43820000D03*
X108458000Y-38740000D03*
D19*
%TO.P,OUT,1,In*%
%TO.N,Net-(J1-In)*%
X110998000Y-41280000D03*
%TD*%
D20*
%TO.P,C27,1*%
%TO.N,+5V*%
X223000000Y-39780000D03*
D21*
%TO.P,C27,2*%
%TO.N,GND*%
X223000000Y-42280000D03*
%TD*%
D19*
%TO.P,IN,1,In*%
%TO.N,Net-(J2-In)*%
X204724000Y-41280000D03*
D18*
%TO.P,IN,2,Ext*%
%TO.N,GND*%
X202184000Y-38740000D03*
X202184000Y-43820000D03*
X207264000Y-38740000D03*
X207264000Y-43820000D03*
%TD*%
D11*
%TO.P,R2,1*%
%TO.N,+5V*%
X138314000Y-36576000D03*
%TO.P,R2,2*%
%TO.N,Net-(J3-Pin_3)*%
X139964000Y-36576000D03*
%TD*%
D13*
%TO.P,C9,1*%
%TO.N,Net-(U1-ACG3)*%
X126502000Y-44958000D03*
%TO.P,C9,2*%
%TO.N,GND*%
X126502000Y-46508000D03*
%TD*%
D12*
%TO.P,C25,1*%
%TO.N,+5V*%
X170203000Y-39624000D03*
%TO.P,C25,2*%
%TO.N,GND*%
X168653000Y-39624000D03*
%TD*%
D13*
%TO.P,C17,1*%
%TO.N,Net-(U4-ACG2)*%
X173238000Y-44958000D03*
%TO.P,C17,2*%
%TO.N,GND*%
X173238000Y-46508000D03*
%TD*%
%TO.P,C8,1*%
%TO.N,Net-(U1-ACG2)*%
X124724000Y-44958000D03*
%TO.P,C8,2*%
%TO.N,GND*%
X124724000Y-46508000D03*
%TD*%
%TO.P,C7,1*%
%TO.N,Net-(U1-ACG1)*%
X122946000Y-44958000D03*
%TO.P,C7,2*%
%TO.N,GND*%
X122946000Y-46508000D03*
%TD*%
D14*
%TO.P,U1,1,Vdd*%
%TO.N,+5V*%
X123223000Y-40386500D03*
%TO.P,U1,2,GND*%
%TO.N,GND*%
X123223000Y-40886500D03*
%TO.P,U1,3,RF1*%
%TO.N,Net-(U1-RF1)*%
X123223000Y-41386500D03*
%TO.P,U1,4,GND*%
%TO.N,GND*%
X123223000Y-41886500D03*
D15*
%TO.P,U1,5,ACG1*%
%TO.N,Net-(U1-ACG1)*%
X123985500Y-42649000D03*
%TO.P,U1,6*%
%TO.N,N/C*%
X124485500Y-42649000D03*
%TO.P,U1,7,ACG2*%
%TO.N,Net-(U1-ACG2)*%
X124985500Y-42649000D03*
%TO.P,U1,8,ACG3*%
%TO.N,Net-(U1-ACG3)*%
X125485500Y-42649000D03*
D14*
%TO.P,U1,9,GND*%
%TO.N,GND*%
X126248000Y-41886500D03*
%TO.P,U1,10,RF2*%
%TO.N,Net-(U1-RF2)*%
X126248000Y-41386500D03*
%TO.P,U1,11,GND*%
%TO.N,GND*%
X126248000Y-40886500D03*
%TO.P,U1,12*%
%TO.N,N/C*%
X126248000Y-40386500D03*
D15*
%TO.P,U1,13*%
X125485500Y-39624000D03*
%TO.P,U1,14,V1*%
%TO.N,Net-(J3-Pin_7)*%
X124985500Y-39624000D03*
%TO.P,U1,15*%
%TO.N,N/C*%
X124485500Y-39624000D03*
%TO.P,U1,16*%
X123985500Y-39624000D03*
D16*
%TO.P,U1,17,GND*%
%TO.N,GND*%
X124735500Y-41136500D03*
%TD*%
D13*
%TO.P,C13,1*%
%TO.N,Net-(U3-ACG1)*%
X155458000Y-44945000D03*
%TO.P,C13,2*%
%TO.N,GND*%
X155458000Y-46495000D03*
%TD*%
D17*
%TO.P,C1,1*%
%TO.N,Net-(J1-In)*%
X116674000Y-41402000D03*
%TO.P,C1,2*%
%TO.N,Net-(U1-RF1)*%
X118224000Y-41402000D03*
%TD*%
D22*
%TO.P,PM3,1,Pin_1*%
%TO.N,unconnected-(J3-Pin_1-Pad1)*%
X215138000Y-36195000D03*
D23*
%TO.P,PM3,2,Pin_2*%
%TO.N,+5V*%
X217678000Y-36195000D03*
%TO.P,PM3,3,Pin_3*%
%TO.N,Net-(J3-Pin_3)*%
X215138000Y-38735000D03*
%TO.P,PM3,4,Pin_4*%
%TO.N,+5V*%
X217678000Y-38735000D03*
%TO.P,PM3,5,Pin_5*%
%TO.N,unconnected-(J3-Pin_5-Pad5)*%
X215138000Y-41275000D03*
%TO.P,PM3,6,Pin_6*%
%TO.N,+5V*%
X217678000Y-41275000D03*
%TO.P,PM3,7,Pin_7*%
%TO.N,Net-(J3-Pin_7)*%
X215138000Y-43815000D03*
%TO.P,PM3,8,Pin_8*%
%TO.N,unconnected-(J3-Pin_8-Pad8)*%
X217678000Y-43815000D03*
%TO.P,PM3,9,Pin_9*%
%TO.N,unconnected-(J3-Pin_9-Pad9)*%
X215138000Y-46355000D03*
%TO.P,PM3,10,Pin_10*%
%TO.N,Net-(J3-Pin_10)*%
X217678000Y-46355000D03*
%TD*%
D13*
%TO.P,C18,1*%
%TO.N,Net-(U4-ACG3)*%
X175016000Y-44945000D03*
%TO.P,C18,2*%
%TO.N,GND*%
X175016000Y-46495000D03*
%TD*%
D14*
%TO.P,U5,1,Vdd*%
%TO.N,+5V*%
X187739500Y-40386500D03*
%TO.P,U5,2,GND*%
%TO.N,GND*%
X187739500Y-40886500D03*
%TO.P,U5,3,RF1*%
%TO.N,Net-(U5-RF1)*%
X187739500Y-41386500D03*
%TO.P,U5,4,GND*%
%TO.N,GND*%
X187739500Y-41886500D03*
D15*
%TO.P,U5,5,ACG1*%
%TO.N,Net-(U5-ACG1)*%
X188502000Y-42649000D03*
%TO.P,U5,6*%
%TO.N,N/C*%
X189002000Y-42649000D03*
%TO.P,U5,7,ACG2*%
%TO.N,Net-(U5-ACG2)*%
X189502000Y-42649000D03*
%TO.P,U5,8,ACG3*%
%TO.N,Net-(U5-ACG3)*%
X190002000Y-42649000D03*
D14*
%TO.P,U5,9,GND*%
%TO.N,GND*%
X190764500Y-41886500D03*
%TO.P,U5,10,RF2*%
%TO.N,Net-(U5-RF2)*%
X190764500Y-41386500D03*
%TO.P,U5,11,GND*%
%TO.N,GND*%
X190764500Y-40886500D03*
%TO.P,U5,12*%
%TO.N,N/C*%
X190764500Y-40386500D03*
D15*
%TO.P,U5,13*%
X190002000Y-39624000D03*
%TO.P,U5,14,V1*%
%TO.N,Net-(J3-Pin_10)*%
X189502000Y-39624000D03*
%TO.P,U5,15*%
%TO.N,N/C*%
X189002000Y-39624000D03*
%TO.P,U5,16*%
X188502000Y-39624000D03*
D16*
%TO.P,U5,17,GND*%
%TO.N,GND*%
X189252000Y-41136500D03*
%TD*%
D12*
%TO.P,C26,1*%
%TO.N,+5V*%
X186205000Y-39624000D03*
%TO.P,C26,2*%
%TO.N,GND*%
X184655000Y-39624000D03*
%TD*%
D13*
%TO.P,C10,1*%
%TO.N,Net-(U2-ACG1)*%
X139202000Y-44958000D03*
%TO.P,C10,2*%
%TO.N,GND*%
X139202000Y-46508000D03*
%TD*%
D12*
%TO.P,C22,1*%
%TO.N,+5V*%
X121676000Y-39624000D03*
%TO.P,C22,2*%
%TO.N,GND*%
X120126000Y-39624000D03*
%TD*%
D13*
%TO.P,C16,1*%
%TO.N,Net-(U4-ACG1)*%
X171460000Y-44945000D03*
%TO.P,C16,2*%
%TO.N,GND*%
X171460000Y-46495000D03*
%TD*%
D17*
%TO.P,C6,1*%
%TO.N,Net-(U5-RF2)*%
X194802000Y-41402000D03*
%TO.P,C6,2*%
%TO.N,Net-(J2-In)*%
X196352000Y-41402000D03*
%TD*%
D11*
%TO.P,R4,1*%
%TO.N,+5V*%
X170318000Y-36576000D03*
%TO.P,R4,2*%
%TO.N,Net-(J3-Pin_10)*%
X171968000Y-36576000D03*
%TD*%
D24*
%TO.N,GND*%
X126502000Y-46482000D03*
X124724000Y-46482000D03*
X173238000Y-41148000D03*
X184668000Y-39624000D03*
X140980000Y-46482000D03*
X136662000Y-39624000D03*
X175016000Y-46482000D03*
X173238000Y-46482000D03*
X120152000Y-39624000D03*
X122946000Y-46482000D03*
X189494000Y-46482000D03*
X155458000Y-46482000D03*
X152664000Y-39624000D03*
X159014000Y-46482000D03*
X191272000Y-46482000D03*
X171460000Y-46482000D03*
X157236000Y-46482000D03*
X141234000Y-41148000D03*
X139202000Y-46482000D03*
X187716000Y-46482000D03*
X168666000Y-39624000D03*
X157236000Y-41148000D03*
X189240000Y-41148000D03*
X142758000Y-46482000D03*
X124724000Y-41148000D03*
%TO.N,+5V*%
X186192000Y-39624000D03*
X121676000Y-36576000D03*
X138186000Y-39624000D03*
X154188000Y-39624000D03*
X186192000Y-36576000D03*
X170190000Y-36576000D03*
X121676000Y-39624000D03*
X170190000Y-39624000D03*
X138186000Y-36576000D03*
X154188000Y-36576000D03*
%TD*%
D25*
%TO.N,Net-(J1-In)*%
X116674000Y-41402000D02*
X111120000Y-41402000D01*
X111120000Y-41402000D02*
X110998000Y-41280000D01*
D26*
%TO.N,Net-(J3-Pin_10)*%
X213360000Y-49530000D02*
X216154000Y-49530000D01*
X216154000Y-49530000D02*
X217678000Y-48006000D01*
X217678000Y-48006000D02*
X217678000Y-46355000D01*
X211582000Y-47752000D02*
X213360000Y-49530000D01*
%TO.N,Net-(J3-Pin_3)*%
X211836000Y-34290000D02*
X155448000Y-34290000D01*
X212598000Y-35052000D02*
X212598000Y-47498000D01*
X211836000Y-34290000D02*
X212598000Y-35052000D01*
%TO.N,Net-(J3-Pin_10)*%
X211582000Y-36322000D02*
X211582000Y-47752000D01*
X187716000Y-35306000D02*
X210566000Y-35306000D01*
X210566000Y-35306000D02*
X211582000Y-36322000D01*
%TO.N,Net-(J3-Pin_3)*%
X212598000Y-47498000D02*
X213614000Y-48514000D01*
X155966000Y-34290000D02*
X155448000Y-34290000D01*
X215900000Y-48514000D02*
X213614000Y-48514000D01*
X155448000Y-34290000D02*
X142250000Y-34290000D01*
X215138000Y-38735000D02*
X216313000Y-39910000D01*
X216313000Y-39910000D02*
X216313000Y-48101000D01*
X216313000Y-48101000D02*
X215900000Y-48514000D01*
%TO.N,Net-(J3-Pin_7)*%
X215138000Y-43815000D02*
X213995000Y-43815000D01*
X213995000Y-43815000D02*
X213614000Y-43434000D01*
X213614000Y-43434000D02*
X213614000Y-34036000D01*
X213614000Y-34036000D02*
X212852000Y-33274000D01*
X212852000Y-33274000D02*
X126756000Y-33274000D01*
X126756000Y-33274000D02*
X123454000Y-36576000D01*
%TO.N,Net-(J3-Pin_3)*%
X155966000Y-36576000D02*
X155966000Y-34290000D01*
X142250000Y-34290000D02*
X139964000Y-36576000D01*
%TO.N,Net-(J3-Pin_10)*%
X171968000Y-36576000D02*
X173238000Y-35306000D01*
X173238000Y-35306000D02*
X187716000Y-35306000D01*
X187716000Y-35306000D02*
X187842000Y-35432000D01*
X187842000Y-35432000D02*
X187842000Y-36576000D01*
X187842000Y-36450000D02*
X187842000Y-36576000D01*
D25*
%TO.N,Net-(U1-RF1)*%
X118239500Y-41386500D02*
X118224000Y-41402000D01*
D27*
X123223000Y-41386500D02*
X118239500Y-41386500D01*
D25*
%TO.N,Net-(J1-In)*%
X116552000Y-41280000D02*
X116674000Y-41402000D01*
%TO.N,Net-(U2-RF1)*%
X132902000Y-41365000D02*
X132865000Y-41402000D01*
D27*
X139709500Y-41365000D02*
X132902000Y-41365000D01*
D25*
%TO.N,Net-(U1-RF2)*%
X131299500Y-41386500D02*
X131315000Y-41402000D01*
D27*
X126248000Y-41386500D02*
X131299500Y-41386500D01*
D25*
%TO.N,Net-(U3-RF1)*%
X150393500Y-41386500D02*
X150378000Y-41402000D01*
D27*
X155719500Y-41386500D02*
X150393500Y-41386500D01*
%TO.N,Net-(U2-RF2)*%
X148828000Y-41402000D02*
X142771500Y-41402000D01*
D25*
X142771500Y-41402000D02*
X142734500Y-41365000D01*
%TO.N,Net-(U3-RF2)*%
X158760000Y-41402000D02*
X158744500Y-41386500D01*
D27*
X164068000Y-41402000D02*
X158760000Y-41402000D01*
D25*
%TO.N,Net-(U4-RF1)*%
X165633500Y-41386500D02*
X165618000Y-41402000D01*
D27*
X171737500Y-41386500D02*
X165633500Y-41386500D01*
%TO.N,Net-(U5-RF1)*%
X181620000Y-41402000D02*
X187724000Y-41402000D01*
D25*
X187724000Y-41402000D02*
X187739500Y-41386500D01*
D27*
%TO.N,Net-(U4-RF2)*%
X174762500Y-41386500D02*
X180054500Y-41386500D01*
D25*
X180054500Y-41386500D02*
X180070000Y-41402000D01*
D27*
%TO.N,Net-(J2-In)*%
X204724000Y-41280000D02*
X196474000Y-41280000D01*
D25*
X196474000Y-41280000D02*
X196352000Y-41402000D01*
%TO.N,Net-(U5-RF2)*%
X190780000Y-41402000D02*
X190764500Y-41386500D01*
D27*
X194802000Y-41402000D02*
X190780000Y-41402000D01*
D28*
%TO.N,GND*%
X124735500Y-41136500D02*
X124985500Y-40886500D01*
X139709500Y-40865000D02*
X140951000Y-40865000D01*
X141472000Y-40865000D02*
X141222000Y-41115000D01*
X171737500Y-41886500D02*
X172500000Y-41886500D01*
D26*
X173500000Y-40886500D02*
X173250000Y-41136500D01*
D28*
X155719500Y-41886500D02*
X156497500Y-41886500D01*
X188978500Y-40886500D02*
X189240000Y-41148000D01*
X156982000Y-40886500D02*
X157232000Y-41136500D01*
X190764500Y-40886500D02*
X189501500Y-40886500D01*
X155719500Y-40886500D02*
X156982000Y-40886500D01*
X140951000Y-40865000D02*
X141234000Y-41148000D01*
X171737500Y-41886500D02*
X170825000Y-41886500D01*
X124462500Y-40886500D02*
X123223000Y-40886500D01*
X187739500Y-41886500D02*
X188501500Y-41886500D01*
X158744500Y-40886500D02*
X157482000Y-40886500D01*
X142734500Y-40865000D02*
X141472000Y-40865000D01*
X141951000Y-41865000D02*
X141234000Y-41148000D01*
X172500000Y-41886500D02*
X173250000Y-41136500D01*
D26*
X174762500Y-40886500D02*
X174724000Y-40886500D01*
D28*
X124724000Y-41148000D02*
X125462500Y-41886500D01*
X173499500Y-40886500D02*
X173238000Y-41148000D01*
X124724000Y-41148000D02*
X124462500Y-40886500D01*
X157982000Y-41886500D02*
X157232000Y-41136500D01*
X140517000Y-41865000D02*
X141234000Y-41148000D01*
X187739500Y-40886500D02*
X188978500Y-40886500D01*
X124724000Y-41148000D02*
X123985500Y-41886500D01*
X190764500Y-41886500D02*
X189978500Y-41886500D01*
X125462500Y-41886500D02*
X126248000Y-41886500D01*
X173000000Y-40886500D02*
X173250000Y-41136500D01*
X124985500Y-40886500D02*
X126248000Y-40886500D01*
X142734500Y-41865000D02*
X141951000Y-41865000D01*
X156497500Y-41886500D02*
X157236000Y-41148000D01*
X174762500Y-41886500D02*
X173976500Y-41886500D01*
X139709500Y-41865000D02*
X140517000Y-41865000D01*
X189501500Y-40886500D02*
X189240000Y-41148000D01*
X189978500Y-41886500D02*
X189240000Y-41148000D01*
X173976500Y-41886500D02*
X173238000Y-41148000D01*
X158744500Y-41886500D02*
X157982000Y-41886500D01*
X188501500Y-41886500D02*
X189240000Y-41148000D01*
X123985500Y-41886500D02*
X123223000Y-41886500D01*
D26*
X174762500Y-40886500D02*
X173500000Y-40886500D01*
D28*
X171737500Y-40886500D02*
X173000000Y-40886500D01*
X157482000Y-40886500D02*
X157232000Y-41136500D01*
D26*
%TO.N,Net-(U1-ACG1)*%
X123985500Y-43918500D02*
X122946000Y-44958000D01*
X123985500Y-42649000D02*
X123985500Y-43918500D01*
%TO.N,Net-(U1-ACG2)*%
X124985500Y-44696500D02*
X124724000Y-44958000D01*
X124985500Y-42649000D02*
X124985500Y-44696500D01*
%TO.N,Net-(U1-ACG3)*%
X125485500Y-42649000D02*
X125485500Y-43941500D01*
X125485500Y-43941500D02*
X126502000Y-44958000D01*
%TO.N,Net-(U2-ACG1)*%
X140472000Y-42627500D02*
X140472000Y-43688000D01*
X140472000Y-43688000D02*
X139202000Y-44958000D01*
%TO.N,Net-(U2-ACG2)*%
X141472000Y-44466000D02*
X140980000Y-44958000D01*
X141472000Y-42627500D02*
X141472000Y-44466000D01*
%TO.N,Net-(U2-ACG3)*%
X141972000Y-42627500D02*
X141972000Y-44159000D01*
X141972000Y-44159000D02*
X142758000Y-44945000D01*
%TO.N,Net-(U3-ACG1)*%
X156482000Y-42649000D02*
X156482000Y-43921000D01*
X156482000Y-43921000D02*
X155458000Y-44945000D01*
%TO.N,Net-(U3-ACG2)*%
X157482000Y-44699000D02*
X157236000Y-44945000D01*
X157482000Y-42649000D02*
X157482000Y-44699000D01*
%TO.N,Net-(U3-ACG3)*%
X157982000Y-43913000D02*
X159014000Y-44945000D01*
X157982000Y-42649000D02*
X157982000Y-43913000D01*
%TO.N,Net-(U4-ACG1)*%
X172500000Y-43905000D02*
X171460000Y-44945000D01*
X172500000Y-42649000D02*
X172500000Y-43905000D01*
%TO.N,Net-(U4-ACG2)*%
X173500000Y-44696000D02*
X173238000Y-44958000D01*
X173500000Y-42649000D02*
X173500000Y-44696000D01*
%TO.N,Net-(U4-ACG3)*%
X174000000Y-42649000D02*
X174000000Y-43929000D01*
X174000000Y-43929000D02*
X175016000Y-44945000D01*
%TO.N,Net-(U5-ACG1)*%
X188502000Y-42649000D02*
X188502000Y-44159000D01*
X188502000Y-44159000D02*
X187716000Y-44945000D01*
%TO.N,Net-(U5-ACG2)*%
X189502000Y-42649000D02*
X189502000Y-44950000D01*
X189502000Y-44950000D02*
X189494000Y-44958000D01*
%TO.N,Net-(U5-ACG3)*%
X190002000Y-43688000D02*
X191272000Y-44958000D01*
X190002000Y-42649000D02*
X190002000Y-43688000D01*
%TO.N,+5V*%
X186967500Y-40386500D02*
X186205000Y-39624000D01*
D29*
X186205000Y-36589000D02*
X186192000Y-36576000D01*
X121676000Y-39624000D02*
X121676000Y-36704000D01*
X186205000Y-39624000D02*
X186205000Y-36589000D01*
X138186000Y-39624000D02*
X138186000Y-36704000D01*
X138186000Y-36704000D02*
X138314000Y-36576000D01*
D26*
X170965500Y-40386500D02*
X170203000Y-39624000D01*
X122438500Y-40386500D02*
X121676000Y-39624000D01*
X123223000Y-40386500D02*
X122438500Y-40386500D01*
X155719500Y-40386500D02*
X154950500Y-40386500D01*
D29*
X186192000Y-39611000D02*
X186192000Y-39611000D01*
D26*
X139709500Y-40365000D02*
X138927000Y-40365000D01*
D29*
X170203000Y-36691000D02*
X170318000Y-36576000D01*
D26*
X154950500Y-40386500D02*
X154188000Y-39624000D01*
X187739500Y-40386500D02*
X186967500Y-40386500D01*
D29*
X154188000Y-39624000D02*
X154188000Y-36576000D01*
X170318000Y-39509000D02*
X170203000Y-39624000D01*
X138314000Y-36576000D02*
X138186000Y-36576000D01*
X186192000Y-39611000D02*
X186192000Y-39624000D01*
D26*
X171737500Y-40386500D02*
X170965500Y-40386500D01*
D29*
X121804000Y-39496000D02*
X121676000Y-39624000D01*
X138314000Y-39496000D02*
X138186000Y-39624000D01*
X121676000Y-36704000D02*
X121804000Y-36576000D01*
X170190000Y-39624000D02*
X170203000Y-36691000D01*
X186205000Y-39624000D02*
X186205000Y-39624000D01*
X154316000Y-39496000D02*
X154188000Y-39624000D01*
X170203000Y-39624000D02*
X170190000Y-39624000D01*
D26*
X138927000Y-40365000D02*
X138186000Y-39624000D01*
D29*
X186192000Y-39624000D02*
X186205000Y-39624000D01*
X121804000Y-36576000D02*
X121676000Y-36576000D01*
D26*
%TO.N,Net-(J3-Pin_7)*%
X123454000Y-36576000D02*
X124985500Y-38107500D01*
X124985500Y-38107500D02*
X124985500Y-39624000D01*
%TO.N,Net-(J3-Pin_10)*%
X171968000Y-36576000D02*
X173500000Y-38108000D01*
X173500000Y-38108000D02*
X173500000Y-39624000D01*
X189502000Y-38236000D02*
X189502000Y-39624000D01*
X187842000Y-36576000D02*
X189502000Y-38236000D01*
%TO.N,Net-(J3-Pin_3)*%
X139964000Y-36576000D02*
X141472000Y-38084000D01*
X155966000Y-36576000D02*
X157482000Y-38092000D01*
X157482000Y-38092000D02*
X157482000Y-39624000D01*
X141472000Y-38084000D02*
X141472000Y-39602500D01*
%TD*%
%TA.AperFunction,Conductor*%
%TO.N,GND*%
G36*
X222139201Y-31799407D02*
G01*
X222175165Y-31848907D01*
X222175165Y-31910093D01*
X222139201Y-31959593D01*
X222135412Y-31962213D01*
X222029990Y-32031550D01*
X221762243Y-32256215D01*
X221522391Y-32510443D01*
X221313671Y-32790802D01*
X221313669Y-32790805D01*
X221138911Y-33093495D01*
X221138908Y-33093502D01*
X221000474Y-33414427D01*
X221000472Y-33414434D01*
X220900230Y-33749265D01*
X220900230Y-33749266D01*
X220839538Y-34093470D01*
X220819215Y-34442400D01*
X220839538Y-34791329D01*
X220900230Y-35135533D01*
X220900230Y-35135534D01*
X221000472Y-35470365D01*
X221000474Y-35470372D01*
X221099486Y-35699907D01*
X221138911Y-35791304D01*
X221313670Y-36093996D01*
X221522388Y-36374353D01*
X221762242Y-36628583D01*
X222029989Y-36853249D01*
X222322007Y-37045313D01*
X222634349Y-37202177D01*
X222962789Y-37321719D01*
X222962792Y-37321719D01*
X222962793Y-37321720D01*
X223302875Y-37402321D01*
X223302880Y-37402321D01*
X223302886Y-37402323D01*
X223650041Y-37442900D01*
X223650044Y-37442900D01*
X223999556Y-37442900D01*
X223999559Y-37442900D01*
X224346714Y-37402323D01*
X224346720Y-37402321D01*
X224346724Y-37402321D01*
X224579639Y-37347119D01*
X224686811Y-37321719D01*
X225015251Y-37202177D01*
X225327593Y-37045313D01*
X225619611Y-36853249D01*
X225887358Y-36628583D01*
X226127212Y-36374353D01*
X226321092Y-36113926D01*
X226371005Y-36078543D01*
X226432186Y-36079255D01*
X226481264Y-36115792D01*
X226499500Y-36173047D01*
X226499500Y-46376952D01*
X226480593Y-46435143D01*
X226431093Y-46471107D01*
X226369907Y-46471107D01*
X226321090Y-46436071D01*
X226320399Y-46435143D01*
X226127212Y-46175647D01*
X226127211Y-46175646D01*
X226127209Y-46175643D01*
X225887356Y-45921415D01*
X225796166Y-45844898D01*
X225619611Y-45696751D01*
X225485562Y-45608585D01*
X225327594Y-45504687D01*
X225015253Y-45347824D01*
X225015252Y-45347823D01*
X225015251Y-45347823D01*
X224686811Y-45228281D01*
X224686812Y-45228281D01*
X224686806Y-45228279D01*
X224346724Y-45147678D01*
X224233889Y-45134489D01*
X223999559Y-45107100D01*
X223650041Y-45107100D01*
X223458750Y-45129458D01*
X223302875Y-45147678D01*
X222962793Y-45228279D01*
X222767344Y-45299417D01*
X222634349Y-45347823D01*
X222634348Y-45347823D01*
X222634346Y-45347824D01*
X222322005Y-45504687D01*
X222029990Y-45696750D01*
X221762243Y-45921415D01*
X221522391Y-46175643D01*
X221313671Y-46456002D01*
X221313669Y-46456005D01*
X221138911Y-46758695D01*
X221138908Y-46758702D01*
X221000474Y-47079627D01*
X221000472Y-47079634D01*
X220900230Y-47414465D01*
X220900230Y-47414466D01*
X220839538Y-47758670D01*
X220819215Y-48107600D01*
X220839538Y-48456529D01*
X220900230Y-48800733D01*
X220900230Y-48800734D01*
X220905195Y-48817318D01*
X221000474Y-49135571D01*
X221138911Y-49456504D01*
X221313670Y-49759196D01*
X221522388Y-50039553D01*
X221762242Y-50293783D01*
X222029989Y-50518449D01*
X222150617Y-50597788D01*
X222188844Y-50645560D01*
X222191691Y-50706679D01*
X222158069Y-50757799D01*
X222100821Y-50779393D01*
X222096215Y-50779500D01*
X106909985Y-50779500D01*
X106851794Y-50760593D01*
X106815830Y-50711093D01*
X106815830Y-50649907D01*
X106851794Y-50600407D01*
X106855565Y-50597799D01*
X106976211Y-50518449D01*
X107243958Y-50293783D01*
X107483812Y-50039553D01*
X107692530Y-49759196D01*
X107867289Y-49456504D01*
X108005726Y-49135571D01*
X108105969Y-48800736D01*
X108166662Y-48456527D01*
X108186985Y-48107600D01*
X108166662Y-47758673D01*
X108105969Y-47414464D01*
X108005726Y-47079629D01*
X107877049Y-46781322D01*
X121971001Y-46781322D01*
X121981142Y-46880597D01*
X121981145Y-46880609D01*
X122034454Y-47041487D01*
X122123425Y-47185729D01*
X122243270Y-47305574D01*
X122387512Y-47394545D01*
X122548396Y-47447856D01*
X122647677Y-47457999D01*
X122696000Y-47457998D01*
X123196000Y-47457998D01*
X123196001Y-47457999D01*
X123244322Y-47457999D01*
X123343597Y-47447857D01*
X123343609Y-47447854D01*
X123504487Y-47394545D01*
X123648729Y-47305574D01*
X123648730Y-47305573D01*
X123764996Y-47189308D01*
X123819513Y-47161531D01*
X123879945Y-47171102D01*
X123905004Y-47189308D01*
X124021270Y-47305574D01*
X124165512Y-47394545D01*
X124326396Y-47447856D01*
X124425677Y-47457999D01*
X124474000Y-47457998D01*
X124974000Y-47457998D01*
X124974001Y-47457999D01*
X125022322Y-47457999D01*
X125121597Y-47447857D01*
X125121609Y-47447854D01*
X125282487Y-47394545D01*
X125426729Y-47305574D01*
X125426730Y-47305573D01*
X125542996Y-47189308D01*
X125597513Y-47161531D01*
X125657945Y-47171102D01*
X125683004Y-47189308D01*
X125799270Y-47305574D01*
X125943512Y-47394545D01*
X126104396Y-47447856D01*
X126203677Y-47457999D01*
X126252000Y-47457998D01*
X126752000Y-47457998D01*
X126752001Y-47457999D01*
X126800322Y-47457999D01*
X126899597Y-47447857D01*
X126899609Y-47447854D01*
X127060487Y-47394545D01*
X127204729Y-47305574D01*
X127324574Y-47185729D01*
X127413545Y-47041487D01*
X127466856Y-46880603D01*
X127477000Y-46781323D01*
X127477000Y-46781322D01*
X138227001Y-46781322D01*
X138237142Y-46880597D01*
X138237145Y-46880609D01*
X138290454Y-47041487D01*
X138379425Y-47185729D01*
X138499270Y-47305574D01*
X138643512Y-47394545D01*
X138804396Y-47447856D01*
X138903677Y-47457999D01*
X138952000Y-47457998D01*
X139452000Y-47457998D01*
X139452001Y-47457999D01*
X139500322Y-47457999D01*
X139599597Y-47447857D01*
X139599609Y-47447854D01*
X139760487Y-47394545D01*
X139904729Y-47305574D01*
X139904730Y-47305573D01*
X140020996Y-47189308D01*
X140075513Y-47161531D01*
X140135945Y-47171102D01*
X140161004Y-47189308D01*
X140277270Y-47305574D01*
X140421512Y-47394545D01*
X140582396Y-47447856D01*
X140681677Y-47457999D01*
X140730000Y-47457998D01*
X141230000Y-47457998D01*
X141230001Y-47457999D01*
X141278322Y-47457999D01*
X141377597Y-47447857D01*
X141377609Y-47447854D01*
X141538487Y-47394545D01*
X141682729Y-47305574D01*
X141682730Y-47305573D01*
X141805496Y-47182808D01*
X141860013Y-47155031D01*
X141920445Y-47164602D01*
X141945504Y-47182808D01*
X142055270Y-47292574D01*
X142199512Y-47381545D01*
X142360396Y-47434856D01*
X142459677Y-47444999D01*
X142508000Y-47444998D01*
X143008000Y-47444998D01*
X143008001Y-47444999D01*
X143056322Y-47444999D01*
X143155597Y-47434857D01*
X143155609Y-47434854D01*
X143316487Y-47381545D01*
X143460729Y-47292574D01*
X143580574Y-47172729D01*
X143669545Y-47028487D01*
X143722856Y-46867603D01*
X143733000Y-46768323D01*
X143733000Y-46768322D01*
X154483001Y-46768322D01*
X154493142Y-46867597D01*
X154493145Y-46867609D01*
X154546454Y-47028487D01*
X154635425Y-47172729D01*
X154755270Y-47292574D01*
X154899512Y-47381545D01*
X155060396Y-47434856D01*
X155159677Y-47444999D01*
X155208000Y-47444998D01*
X155708000Y-47444998D01*
X155708001Y-47444999D01*
X155756322Y-47444999D01*
X155855597Y-47434857D01*
X155855609Y-47434854D01*
X156016487Y-47381545D01*
X156160729Y-47292574D01*
X156160730Y-47292573D01*
X156276996Y-47176308D01*
X156331513Y-47148531D01*
X156391945Y-47158102D01*
X156417004Y-47176308D01*
X156533270Y-47292574D01*
X156677512Y-47381545D01*
X156838396Y-47434856D01*
X156937677Y-47444999D01*
X156986000Y-47444998D01*
X157486000Y-47444998D01*
X157486001Y-47444999D01*
X157534322Y-47444999D01*
X157633597Y-47434857D01*
X157633609Y-47434854D01*
X157794487Y-47381545D01*
X157938729Y-47292574D01*
X157938730Y-47292573D01*
X158054996Y-47176308D01*
X158109513Y-47148531D01*
X158169945Y-47158102D01*
X158195004Y-47176308D01*
X158311270Y-47292574D01*
X158455512Y-47381545D01*
X158616396Y-47434856D01*
X158715677Y-47444999D01*
X158764000Y-47444998D01*
X159264000Y-47444998D01*
X159264001Y-47444999D01*
X159312322Y-47444999D01*
X159411597Y-47434857D01*
X159411609Y-47434854D01*
X159572487Y-47381545D01*
X159716729Y-47292574D01*
X159836574Y-47172729D01*
X159925545Y-47028487D01*
X159978856Y-46867603D01*
X159989000Y-46768323D01*
X159989000Y-46768322D01*
X170485001Y-46768322D01*
X170495142Y-46867597D01*
X170495145Y-46867609D01*
X170548454Y-47028487D01*
X170637425Y-47172729D01*
X170757270Y-47292574D01*
X170901512Y-47381545D01*
X171062396Y-47434856D01*
X171161677Y-47444999D01*
X171210000Y-47444998D01*
X171710000Y-47444998D01*
X171710001Y-47444999D01*
X171758322Y-47444999D01*
X171857597Y-47434857D01*
X171857609Y-47434854D01*
X172018487Y-47381545D01*
X172162729Y-47292574D01*
X172162730Y-47292573D01*
X172272496Y-47182808D01*
X172327013Y-47155031D01*
X172387445Y-47164602D01*
X172412504Y-47182808D01*
X172535270Y-47305574D01*
X172679512Y-47394545D01*
X172840396Y-47447856D01*
X172939677Y-47457999D01*
X172988000Y-47457998D01*
X173488000Y-47457998D01*
X173488001Y-47457999D01*
X173536322Y-47457999D01*
X173635597Y-47447857D01*
X173635609Y-47447854D01*
X173796487Y-47394545D01*
X173940729Y-47305574D01*
X173940730Y-47305573D01*
X174063496Y-47182808D01*
X174118013Y-47155031D01*
X174178445Y-47164602D01*
X174203504Y-47182808D01*
X174313270Y-47292574D01*
X174457512Y-47381545D01*
X174618396Y-47434856D01*
X174717677Y-47444999D01*
X174766000Y-47444998D01*
X175266000Y-47444998D01*
X175266001Y-47444999D01*
X175314322Y-47444999D01*
X175413597Y-47434857D01*
X175413609Y-47434854D01*
X175574487Y-47381545D01*
X175718729Y-47292574D01*
X175838574Y-47172729D01*
X175927545Y-47028487D01*
X175980856Y-46867603D01*
X175991000Y-46768323D01*
X175991000Y-46768322D01*
X186741001Y-46768322D01*
X186751142Y-46867597D01*
X186751145Y-46867609D01*
X186804454Y-47028487D01*
X186893425Y-47172729D01*
X187013270Y-47292574D01*
X187157512Y-47381545D01*
X187318396Y-47434856D01*
X187417677Y-47444999D01*
X187466000Y-47444998D01*
X187966000Y-47444998D01*
X187966001Y-47444999D01*
X188014322Y-47444999D01*
X188113597Y-47434857D01*
X188113609Y-47434854D01*
X188274487Y-47381545D01*
X188418729Y-47292574D01*
X188418730Y-47292573D01*
X188528496Y-47182808D01*
X188583013Y-47155031D01*
X188643445Y-47164602D01*
X188668504Y-47182808D01*
X188791270Y-47305574D01*
X188935512Y-47394545D01*
X189096396Y-47447856D01*
X189195677Y-47457999D01*
X189244000Y-47457998D01*
X189744000Y-47457998D01*
X189744001Y-47457999D01*
X189792322Y-47457999D01*
X189891597Y-47447857D01*
X189891609Y-47447854D01*
X190052487Y-47394545D01*
X190196729Y-47305574D01*
X190196730Y-47305573D01*
X190312996Y-47189308D01*
X190367513Y-47161531D01*
X190427945Y-47171102D01*
X190453004Y-47189308D01*
X190569270Y-47305574D01*
X190713512Y-47394545D01*
X190874396Y-47447856D01*
X190973677Y-47457999D01*
X191022000Y-47457998D01*
X191522000Y-47457998D01*
X191522001Y-47457999D01*
X191570322Y-47457999D01*
X191669597Y-47447857D01*
X191669609Y-47447854D01*
X191830487Y-47394545D01*
X191974729Y-47305574D01*
X192094574Y-47185729D01*
X192183545Y-47041487D01*
X192236856Y-46880603D01*
X192247000Y-46781323D01*
X192247000Y-46758001D01*
X192246999Y-46758000D01*
X191522001Y-46758000D01*
X191522000Y-46758001D01*
X191522000Y-47457998D01*
X191022000Y-47457998D01*
X191022000Y-46758001D01*
X191021999Y-46758000D01*
X189744001Y-46758000D01*
X189744000Y-46758001D01*
X189744000Y-47457998D01*
X189244000Y-47457998D01*
X189244000Y-46758001D01*
X189243999Y-46758000D01*
X188530007Y-46758000D01*
X188489996Y-46745000D01*
X187966001Y-46745000D01*
X187966000Y-46745001D01*
X187966000Y-47444998D01*
X187466000Y-47444998D01*
X187466000Y-46745001D01*
X187465999Y-46745000D01*
X186741002Y-46745000D01*
X186741001Y-46745001D01*
X186741001Y-46768322D01*
X175991000Y-46768322D01*
X175991000Y-46745001D01*
X175990999Y-46745000D01*
X175266001Y-46745000D01*
X175266000Y-46745001D01*
X175266000Y-47444998D01*
X174766000Y-47444998D01*
X174766000Y-46745001D01*
X174765999Y-46745000D01*
X174240602Y-46745000D01*
X174217480Y-46756781D01*
X174201993Y-46758000D01*
X173488001Y-46758000D01*
X173488000Y-46758001D01*
X173488000Y-47457998D01*
X172988000Y-47457998D01*
X172988000Y-46758001D01*
X172987999Y-46758000D01*
X172274007Y-46758000D01*
X172233996Y-46745000D01*
X171710001Y-46745000D01*
X171710000Y-46745001D01*
X171710000Y-47444998D01*
X171210000Y-47444998D01*
X171210000Y-46745001D01*
X171209999Y-46745000D01*
X170485002Y-46745000D01*
X170485001Y-46745001D01*
X170485001Y-46768322D01*
X159989000Y-46768322D01*
X159989000Y-46745001D01*
X159988999Y-46745000D01*
X159264001Y-46745000D01*
X159264000Y-46745001D01*
X159264000Y-47444998D01*
X158764000Y-47444998D01*
X158764000Y-46745001D01*
X158763999Y-46745000D01*
X157486001Y-46745000D01*
X157486000Y-46745001D01*
X157486000Y-47444998D01*
X156986000Y-47444998D01*
X156986000Y-46745001D01*
X156985999Y-46745000D01*
X155708001Y-46745000D01*
X155708000Y-46745001D01*
X155708000Y-47444998D01*
X155208000Y-47444998D01*
X155208000Y-46745001D01*
X155207999Y-46745000D01*
X154483002Y-46745000D01*
X154483001Y-46745001D01*
X154483001Y-46768322D01*
X143733000Y-46768322D01*
X143733000Y-46745001D01*
X143732999Y-46745000D01*
X143008001Y-46745000D01*
X143008000Y-46745001D01*
X143008000Y-47444998D01*
X142508000Y-47444998D01*
X142508000Y-46745001D01*
X142507999Y-46745000D01*
X141982602Y-46745000D01*
X141959480Y-46756781D01*
X141943993Y-46758000D01*
X141230001Y-46758000D01*
X141230000Y-46758001D01*
X141230000Y-47457998D01*
X140730000Y-47457998D01*
X140730000Y-46758001D01*
X140729999Y-46758000D01*
X139452001Y-46758000D01*
X139452000Y-46758001D01*
X139452000Y-47457998D01*
X138952000Y-47457998D01*
X138952000Y-46758001D01*
X138951999Y-46758000D01*
X138227002Y-46758000D01*
X138227001Y-46758001D01*
X138227001Y-46781322D01*
X127477000Y-46781322D01*
X127477000Y-46758001D01*
X127476999Y-46758000D01*
X126752001Y-46758000D01*
X126752000Y-46758001D01*
X126752000Y-47457998D01*
X126252000Y-47457998D01*
X126252000Y-46758001D01*
X126251999Y-46758000D01*
X124974001Y-46758000D01*
X124974000Y-46758001D01*
X124974000Y-47457998D01*
X124474000Y-47457998D01*
X124474000Y-46758001D01*
X124473999Y-46758000D01*
X123196001Y-46758000D01*
X123196000Y-46758001D01*
X123196000Y-47457998D01*
X122696000Y-47457998D01*
X122696000Y-46758001D01*
X122695999Y-46758000D01*
X121971002Y-46758000D01*
X121971001Y-46758001D01*
X121971001Y-46781322D01*
X107877049Y-46781322D01*
X107867289Y-46758696D01*
X107692530Y-46456004D01*
X107545121Y-46257999D01*
X121971000Y-46257999D01*
X121971001Y-46258000D01*
X127476998Y-46258000D01*
X127476999Y-46257999D01*
X138227000Y-46257999D01*
X138227001Y-46258000D01*
X141755398Y-46258000D01*
X141778520Y-46246219D01*
X141794007Y-46245000D01*
X143732998Y-46245000D01*
X143732999Y-46244999D01*
X154483000Y-46244999D01*
X154483001Y-46245000D01*
X159988998Y-46245000D01*
X159988999Y-46244999D01*
X170485000Y-46244999D01*
X170485001Y-46245000D01*
X172423993Y-46245000D01*
X172464004Y-46258000D01*
X174013398Y-46258000D01*
X174036520Y-46246219D01*
X174052007Y-46245000D01*
X175990998Y-46245000D01*
X175990999Y-46244999D01*
X186741000Y-46244999D01*
X186741001Y-46245000D01*
X188679993Y-46245000D01*
X188720004Y-46258000D01*
X192246998Y-46258000D01*
X192246999Y-46257999D01*
X192246999Y-46234677D01*
X192236857Y-46135402D01*
X192236854Y-46135390D01*
X192183545Y-45974512D01*
X192094574Y-45830270D01*
X191974730Y-45710426D01*
X191847248Y-45631793D01*
X191807647Y-45585152D01*
X191803024Y-45524141D01*
X191829216Y-45477531D01*
X191870528Y-45436220D01*
X191929898Y-45319700D01*
X191931716Y-45316132D01*
X191931716Y-45316131D01*
X191931719Y-45316126D01*
X191947500Y-45216488D01*
X191947500Y-44699512D01*
X191946418Y-44692683D01*
X191937652Y-44637335D01*
X191931719Y-44599874D01*
X191931716Y-44599869D01*
X191931716Y-44599867D01*
X191870529Y-44479782D01*
X191870528Y-44479780D01*
X191775220Y-44384472D01*
X191775217Y-44384470D01*
X191655132Y-44323283D01*
X191655127Y-44323281D01*
X191655126Y-44323281D01*
X191605500Y-44315421D01*
X191555490Y-44307500D01*
X191555488Y-44307500D01*
X191122835Y-44307500D01*
X191064644Y-44288593D01*
X191052831Y-44278504D01*
X190594327Y-43820000D01*
X200553975Y-43820000D01*
X200574042Y-44074990D01*
X200633754Y-44323706D01*
X200731635Y-44560013D01*
X200731641Y-44560025D01*
X200865278Y-44778099D01*
X200865287Y-44778112D01*
X200868532Y-44781911D01*
X201429883Y-44220559D01*
X201430740Y-44222626D01*
X201523762Y-44361844D01*
X201642156Y-44480238D01*
X201781374Y-44573260D01*
X201783438Y-44574114D01*
X201222087Y-45135466D01*
X201222087Y-45135467D01*
X201225896Y-45138719D01*
X201443974Y-45272358D01*
X201443986Y-45272364D01*
X201680293Y-45370245D01*
X201680292Y-45370245D01*
X201929009Y-45429957D01*
X202184000Y-45450024D01*
X202438990Y-45429957D01*
X202687706Y-45370245D01*
X202924013Y-45272364D01*
X202924025Y-45272358D01*
X203142097Y-45138723D01*
X203142106Y-45138716D01*
X203145911Y-45135466D01*
X202584560Y-44574115D01*
X202586626Y-44573260D01*
X202725844Y-44480238D01*
X202844238Y-44361844D01*
X202937260Y-44222626D01*
X202938115Y-44220560D01*
X203499466Y-44781911D01*
X203502716Y-44778106D01*
X203502723Y-44778097D01*
X203636358Y-44560025D01*
X203636364Y-44560013D01*
X203734245Y-44323706D01*
X203793957Y-44074990D01*
X203814024Y-43820000D01*
X205633975Y-43820000D01*
X205654042Y-44074990D01*
X205713754Y-44323706D01*
X205811635Y-44560013D01*
X205811641Y-44560025D01*
X205945278Y-44778099D01*
X205945287Y-44778112D01*
X205948532Y-44781911D01*
X206509883Y-44220559D01*
X206510740Y-44222626D01*
X206603762Y-44361844D01*
X206722156Y-44480238D01*
X206861374Y-44573260D01*
X206863438Y-44574114D01*
X206302087Y-45135466D01*
X206302087Y-45135467D01*
X206305896Y-45138719D01*
X206523974Y-45272358D01*
X206523986Y-45272364D01*
X206760293Y-45370245D01*
X206760292Y-45370245D01*
X207009009Y-45429957D01*
X207264000Y-45450024D01*
X207518990Y-45429957D01*
X207767706Y-45370245D01*
X208004013Y-45272364D01*
X208004025Y-45272358D01*
X208222097Y-45138723D01*
X208222106Y-45138716D01*
X208225912Y-45135466D01*
X207664560Y-44574115D01*
X207666626Y-44573260D01*
X207805844Y-44480238D01*
X207924238Y-44361844D01*
X208017260Y-44222626D01*
X208018115Y-44220560D01*
X208579466Y-44781911D01*
X208582716Y-44778106D01*
X208582723Y-44778097D01*
X208716358Y-44560025D01*
X208716364Y-44560013D01*
X208814245Y-44323706D01*
X208873957Y-44074990D01*
X208894024Y-43820000D01*
X208873957Y-43565009D01*
X208814245Y-43316293D01*
X208716364Y-43079986D01*
X208716358Y-43079974D01*
X208582719Y-42861896D01*
X208579466Y-42858087D01*
X208018114Y-43419438D01*
X208017260Y-43417374D01*
X207924238Y-43278156D01*
X207805844Y-43159762D01*
X207666626Y-43066740D01*
X207664559Y-43065883D01*
X208225911Y-42504532D01*
X208225911Y-42504531D01*
X208222112Y-42501287D01*
X208222099Y-42501278D01*
X208004025Y-42367641D01*
X208004013Y-42367635D01*
X207767706Y-42269754D01*
X207767707Y-42269754D01*
X207518990Y-42210042D01*
X207264000Y-42189975D01*
X207009009Y-42210042D01*
X206760293Y-42269754D01*
X206523986Y-42367635D01*
X206523974Y-42367641D01*
X206305899Y-42501278D01*
X206305892Y-42501283D01*
X206302086Y-42504531D01*
X206863439Y-43065884D01*
X206861374Y-43066740D01*
X206722156Y-43159762D01*
X206603762Y-43278156D01*
X206510740Y-43417374D01*
X206509884Y-43419439D01*
X205948531Y-42858086D01*
X205945283Y-42861892D01*
X205945278Y-42861899D01*
X205811641Y-43079974D01*
X205811635Y-43079986D01*
X205713754Y-43316293D01*
X205654042Y-43565009D01*
X205633975Y-43820000D01*
X203814024Y-43820000D01*
X203793957Y-43565009D01*
X203734245Y-43316293D01*
X203636364Y-43079986D01*
X203636358Y-43079974D01*
X203502719Y-42861896D01*
X203499466Y-42858087D01*
X202938114Y-43419438D01*
X202937260Y-43417374D01*
X202844238Y-43278156D01*
X202725844Y-43159762D01*
X202586626Y-43066740D01*
X202584559Y-43065883D01*
X203145911Y-42504532D01*
X203145911Y-42504531D01*
X203142112Y-42501287D01*
X203142099Y-42501278D01*
X202924025Y-42367641D01*
X202924013Y-42367635D01*
X202687706Y-42269754D01*
X202687707Y-42269754D01*
X202438990Y-42210042D01*
X202184000Y-42189975D01*
X201929009Y-42210042D01*
X201680293Y-42269754D01*
X201443986Y-42367635D01*
X201443974Y-42367641D01*
X201225899Y-42501278D01*
X201225892Y-42501283D01*
X201222086Y-42504531D01*
X201783439Y-43065884D01*
X201781374Y-43066740D01*
X201642156Y-43159762D01*
X201523762Y-43278156D01*
X201430740Y-43417374D01*
X201429884Y-43419439D01*
X200868531Y-42858086D01*
X200865283Y-42861892D01*
X200865278Y-42861899D01*
X200731641Y-43079974D01*
X200731635Y-43079986D01*
X200633754Y-43316293D01*
X200574042Y-43565009D01*
X200553975Y-43820000D01*
X190594327Y-43820000D01*
X190356496Y-43582169D01*
X190328719Y-43527652D01*
X190327500Y-43512165D01*
X190327500Y-42607914D01*
X190346407Y-42549723D01*
X190395907Y-42513759D01*
X190439423Y-42509761D01*
X190452631Y-42511500D01*
X190639499Y-42511500D01*
X190639500Y-42511499D01*
X190889500Y-42511499D01*
X190889501Y-42511500D01*
X191076369Y-42511500D01*
X191076371Y-42511499D01*
X191186338Y-42497022D01*
X191186346Y-42497020D01*
X191323174Y-42440344D01*
X191323175Y-42440344D01*
X191440674Y-42350184D01*
X191440684Y-42350174D01*
X191530844Y-42232675D01*
X191530844Y-42232674D01*
X191587521Y-42095842D01*
X191587522Y-42095842D01*
X191598626Y-42011500D01*
X190889501Y-42011500D01*
X190889500Y-42011501D01*
X190889500Y-42511499D01*
X190639500Y-42511499D01*
X190639500Y-42011501D01*
X190639499Y-42011500D01*
X189930374Y-42011500D01*
X189930608Y-42013279D01*
X189919458Y-42073440D01*
X189875075Y-42115557D01*
X189851769Y-42123299D01*
X189836884Y-42126259D01*
X189817217Y-42139400D01*
X189807156Y-42146123D01*
X189807000Y-42146227D01*
X189748111Y-42162834D01*
X189696999Y-42146226D01*
X189667119Y-42126261D01*
X189667117Y-42126260D01*
X189667114Y-42126259D01*
X189667113Y-42126259D01*
X189590410Y-42111001D01*
X189590402Y-42111000D01*
X189590401Y-42111000D01*
X189590400Y-42111000D01*
X189413602Y-42111000D01*
X189413595Y-42111001D01*
X189336884Y-42126259D01*
X189317217Y-42139400D01*
X189307156Y-42146123D01*
X189307000Y-42146227D01*
X189248111Y-42162834D01*
X189196999Y-42146226D01*
X189167119Y-42126261D01*
X189167117Y-42126260D01*
X189167114Y-42126259D01*
X189167113Y-42126259D01*
X189090410Y-42111001D01*
X189090402Y-42111000D01*
X189090401Y-42111000D01*
X189090400Y-42111000D01*
X188913602Y-42111000D01*
X188913595Y-42111001D01*
X188836884Y-42126259D01*
X188817217Y-42139400D01*
X188807156Y-42146123D01*
X188807000Y-42146227D01*
X188748111Y-42162834D01*
X188696999Y-42146226D01*
X188667119Y-42126261D01*
X188667114Y-42126259D01*
X188652228Y-42123298D01*
X188598845Y-42093401D01*
X188573230Y-42037835D01*
X188573391Y-42013277D01*
X188573625Y-42011500D01*
X187864501Y-42011500D01*
X187864500Y-42011501D01*
X187864500Y-42511499D01*
X187864501Y-42511500D01*
X188051368Y-42511500D01*
X188064577Y-42509761D01*
X188124738Y-42520911D01*
X188166856Y-42565293D01*
X188176500Y-42607914D01*
X188176500Y-43983165D01*
X188157593Y-44041356D01*
X188147504Y-44053169D01*
X187935169Y-44265504D01*
X187880652Y-44293281D01*
X187865165Y-44294500D01*
X187432510Y-44294500D01*
X187332874Y-44310281D01*
X187332867Y-44310283D01*
X187212782Y-44371470D01*
X187117470Y-44466782D01*
X187056283Y-44586867D01*
X187056281Y-44586874D01*
X187040500Y-44686510D01*
X187040500Y-45203489D01*
X187056281Y-45303125D01*
X187056283Y-45303132D01*
X187117470Y-45423217D01*
X187117472Y-45423220D01*
X187158783Y-45464531D01*
X187186559Y-45519046D01*
X187176988Y-45579478D01*
X187140751Y-45618793D01*
X187013270Y-45697425D01*
X186893425Y-45817270D01*
X186804454Y-45961512D01*
X186751143Y-46122396D01*
X186741000Y-46221676D01*
X186741000Y-46244999D01*
X175990999Y-46244999D01*
X175990999Y-46221677D01*
X175980857Y-46122402D01*
X175980854Y-46122390D01*
X175927545Y-45961512D01*
X175838574Y-45817270D01*
X175718730Y-45697426D01*
X175591248Y-45618793D01*
X175551647Y-45572152D01*
X175547024Y-45511141D01*
X175573216Y-45464531D01*
X175614528Y-45423220D01*
X175675719Y-45303126D01*
X175691500Y-45203488D01*
X175691500Y-44686512D01*
X175691438Y-44686123D01*
X175683711Y-44637335D01*
X175675719Y-44586874D01*
X175675716Y-44586869D01*
X175675716Y-44586867D01*
X175614529Y-44466782D01*
X175614528Y-44466780D01*
X175519220Y-44371472D01*
X175519217Y-44371470D01*
X175399132Y-44310283D01*
X175399127Y-44310281D01*
X175399126Y-44310281D01*
X175350977Y-44302655D01*
X175299490Y-44294500D01*
X175299488Y-44294500D01*
X174866835Y-44294500D01*
X174808644Y-44275593D01*
X174796831Y-44265504D01*
X174354496Y-43823169D01*
X174326719Y-43768652D01*
X174325500Y-43753165D01*
X174325500Y-42607914D01*
X174344407Y-42549723D01*
X174393907Y-42513759D01*
X174437423Y-42509761D01*
X174450631Y-42511500D01*
X174637499Y-42511500D01*
X174637500Y-42511499D01*
X174887500Y-42511499D01*
X174887501Y-42511500D01*
X175074369Y-42511500D01*
X175074371Y-42511499D01*
X175184338Y-42497022D01*
X175184346Y-42497020D01*
X175321174Y-42440344D01*
X175321175Y-42440344D01*
X175438674Y-42350184D01*
X175438684Y-42350174D01*
X175528844Y-42232675D01*
X175528844Y-42232674D01*
X175585521Y-42095842D01*
X175585522Y-42095842D01*
X175596626Y-42011500D01*
X174887501Y-42011500D01*
X174887500Y-42011501D01*
X174887500Y-42511499D01*
X174637500Y-42511499D01*
X174637500Y-42011501D01*
X174637499Y-42011500D01*
X173928374Y-42011500D01*
X173928608Y-42013279D01*
X173917458Y-42073440D01*
X173873075Y-42115557D01*
X173849769Y-42123299D01*
X173834884Y-42126259D01*
X173815217Y-42139400D01*
X173805156Y-42146123D01*
X173805000Y-42146227D01*
X173746111Y-42162834D01*
X173694999Y-42146226D01*
X173665119Y-42126261D01*
X173665117Y-42126260D01*
X173665114Y-42126259D01*
X173665113Y-42126259D01*
X173588410Y-42111001D01*
X173588402Y-42111000D01*
X173588401Y-42111000D01*
X173588400Y-42111000D01*
X173411602Y-42111000D01*
X173411595Y-42111001D01*
X173334884Y-42126259D01*
X173315217Y-42139400D01*
X173305156Y-42146123D01*
X173305000Y-42146227D01*
X173246111Y-42162834D01*
X173194999Y-42146226D01*
X173165119Y-42126261D01*
X173165117Y-42126260D01*
X173165114Y-42126259D01*
X173165113Y-42126259D01*
X173088410Y-42111001D01*
X173088402Y-42111000D01*
X173088401Y-42111000D01*
X173088400Y-42111000D01*
X172911602Y-42111000D01*
X172911595Y-42111001D01*
X172834884Y-42126259D01*
X172815217Y-42139400D01*
X172805156Y-42146123D01*
X172805000Y-42146227D01*
X172746111Y-42162834D01*
X172694999Y-42146226D01*
X172665119Y-42126261D01*
X172665114Y-42126259D01*
X172650228Y-42123298D01*
X172596845Y-42093401D01*
X172571230Y-42037835D01*
X172571391Y-42013277D01*
X172571625Y-42011500D01*
X171862501Y-42011500D01*
X171862500Y-42011501D01*
X171862500Y-42511499D01*
X171862501Y-42511500D01*
X172049368Y-42511500D01*
X172062577Y-42509761D01*
X172122738Y-42520911D01*
X172164856Y-42565293D01*
X172174500Y-42607914D01*
X172174500Y-43729165D01*
X172155593Y-43787356D01*
X172145504Y-43799169D01*
X171679169Y-44265504D01*
X171624652Y-44293281D01*
X171609165Y-44294500D01*
X171176510Y-44294500D01*
X171076874Y-44310281D01*
X171076867Y-44310283D01*
X170956782Y-44371470D01*
X170861470Y-44466782D01*
X170800283Y-44586867D01*
X170800281Y-44586874D01*
X170784500Y-44686510D01*
X170784500Y-45203489D01*
X170800281Y-45303125D01*
X170800283Y-45303132D01*
X170861470Y-45423217D01*
X170861472Y-45423220D01*
X170902783Y-45464531D01*
X170930559Y-45519046D01*
X170920988Y-45579478D01*
X170884751Y-45618793D01*
X170757270Y-45697425D01*
X170637425Y-45817270D01*
X170548454Y-45961512D01*
X170495143Y-46122396D01*
X170485000Y-46221676D01*
X170485000Y-46244999D01*
X159988999Y-46244999D01*
X159988999Y-46221677D01*
X159978857Y-46122402D01*
X159978854Y-46122390D01*
X159925545Y-45961512D01*
X159836574Y-45817270D01*
X159716730Y-45697426D01*
X159589248Y-45618793D01*
X159549647Y-45572152D01*
X159545024Y-45511141D01*
X159571216Y-45464531D01*
X159612528Y-45423220D01*
X159673719Y-45303126D01*
X159689500Y-45203488D01*
X159689500Y-44686512D01*
X159689438Y-44686123D01*
X159681711Y-44637335D01*
X159673719Y-44586874D01*
X159673716Y-44586869D01*
X159673716Y-44586867D01*
X159612529Y-44466782D01*
X159612528Y-44466780D01*
X159517220Y-44371472D01*
X159517217Y-44371470D01*
X159397132Y-44310283D01*
X159397127Y-44310281D01*
X159397126Y-44310281D01*
X159348977Y-44302655D01*
X159297490Y-44294500D01*
X159297488Y-44294500D01*
X158864835Y-44294500D01*
X158806644Y-44275593D01*
X158794831Y-44265504D01*
X158336496Y-43807169D01*
X158308719Y-43752652D01*
X158307500Y-43737165D01*
X158307500Y-42607914D01*
X158326407Y-42549723D01*
X158375907Y-42513759D01*
X158419423Y-42509761D01*
X158432631Y-42511500D01*
X158619499Y-42511500D01*
X158619500Y-42511499D01*
X158869500Y-42511499D01*
X158869501Y-42511500D01*
X159056369Y-42511500D01*
X159056371Y-42511499D01*
X159166338Y-42497022D01*
X159166346Y-42497020D01*
X159303174Y-42440344D01*
X159303175Y-42440344D01*
X159420674Y-42350184D01*
X159420684Y-42350174D01*
X159510844Y-42232675D01*
X159510844Y-42232674D01*
X159567521Y-42095842D01*
X159567522Y-42095842D01*
X159578626Y-42011500D01*
X158869501Y-42011500D01*
X158869500Y-42011501D01*
X158869500Y-42511499D01*
X158619500Y-42511499D01*
X158619500Y-42011501D01*
X158619499Y-42011500D01*
X157910374Y-42011500D01*
X157910608Y-42013279D01*
X157899458Y-42073440D01*
X157855075Y-42115557D01*
X157831769Y-42123299D01*
X157816884Y-42126259D01*
X157797217Y-42139400D01*
X157787156Y-42146123D01*
X157787000Y-42146227D01*
X157728111Y-42162834D01*
X157676999Y-42146226D01*
X157647119Y-42126261D01*
X157647117Y-42126260D01*
X157647114Y-42126259D01*
X157647113Y-42126259D01*
X157570410Y-42111001D01*
X157570402Y-42111000D01*
X157570401Y-42111000D01*
X157570400Y-42111000D01*
X157393602Y-42111000D01*
X157393595Y-42111001D01*
X157316884Y-42126259D01*
X157297217Y-42139400D01*
X157287156Y-42146123D01*
X157287000Y-42146227D01*
X157228111Y-42162834D01*
X157176999Y-42146226D01*
X157147119Y-42126261D01*
X157147117Y-42126260D01*
X157147114Y-42126259D01*
X157147113Y-42126259D01*
X157070410Y-42111001D01*
X157070402Y-42111000D01*
X157070401Y-42111000D01*
X157070400Y-42111000D01*
X156893602Y-42111000D01*
X156893595Y-42111001D01*
X156816884Y-42126259D01*
X156797217Y-42139400D01*
X156787156Y-42146123D01*
X156787000Y-42146227D01*
X156728111Y-42162834D01*
X156676999Y-42146226D01*
X156647119Y-42126261D01*
X156647114Y-42126259D01*
X156632228Y-42123298D01*
X156578845Y-42093401D01*
X156553230Y-42037835D01*
X156553391Y-42013277D01*
X156553625Y-42011500D01*
X155844501Y-42011500D01*
X155844500Y-42011501D01*
X155844500Y-42511499D01*
X155844501Y-42511500D01*
X156031368Y-42511500D01*
X156044577Y-42509761D01*
X156104738Y-42520911D01*
X156146856Y-42565293D01*
X156156500Y-42607914D01*
X156156500Y-43745165D01*
X156137593Y-43803356D01*
X156127504Y-43815169D01*
X155677169Y-44265504D01*
X155622652Y-44293281D01*
X155607165Y-44294500D01*
X155174510Y-44294500D01*
X155074874Y-44310281D01*
X155074867Y-44310283D01*
X154954782Y-44371470D01*
X154859470Y-44466782D01*
X154798283Y-44586867D01*
X154798281Y-44586874D01*
X154782500Y-44686510D01*
X154782500Y-45203489D01*
X154798281Y-45303125D01*
X154798283Y-45303132D01*
X154859470Y-45423217D01*
X154859472Y-45423220D01*
X154900783Y-45464531D01*
X154928559Y-45519046D01*
X154918988Y-45579478D01*
X154882751Y-45618793D01*
X154755270Y-45697425D01*
X154635425Y-45817270D01*
X154546454Y-45961512D01*
X154493143Y-46122396D01*
X154483000Y-46221676D01*
X154483000Y-46244999D01*
X143732999Y-46244999D01*
X143732999Y-46221677D01*
X143722857Y-46122402D01*
X143722854Y-46122390D01*
X143669545Y-45961512D01*
X143580574Y-45817270D01*
X143460730Y-45697426D01*
X143333248Y-45618793D01*
X143293647Y-45572152D01*
X143289024Y-45511141D01*
X143315216Y-45464531D01*
X143356528Y-45423220D01*
X143417719Y-45303126D01*
X143433500Y-45203488D01*
X143433500Y-44686512D01*
X143433438Y-44686123D01*
X143425711Y-44637335D01*
X143417719Y-44586874D01*
X143417716Y-44586869D01*
X143417716Y-44586867D01*
X143356529Y-44466782D01*
X143356528Y-44466780D01*
X143261220Y-44371472D01*
X143261217Y-44371470D01*
X143141132Y-44310283D01*
X143141127Y-44310281D01*
X143141126Y-44310281D01*
X143092977Y-44302655D01*
X143041490Y-44294500D01*
X143041488Y-44294500D01*
X142608835Y-44294500D01*
X142550644Y-44275593D01*
X142538831Y-44265504D01*
X142326496Y-44053169D01*
X142298719Y-43998652D01*
X142297500Y-43983165D01*
X142297500Y-42586414D01*
X142316407Y-42528223D01*
X142365907Y-42492259D01*
X142409423Y-42488261D01*
X142422631Y-42490000D01*
X142609499Y-42490000D01*
X142609500Y-42489999D01*
X142859500Y-42489999D01*
X142859501Y-42490000D01*
X143046369Y-42490000D01*
X143046371Y-42489999D01*
X143156338Y-42475522D01*
X143156346Y-42475520D01*
X143293174Y-42418844D01*
X143293175Y-42418844D01*
X143410674Y-42328684D01*
X143410684Y-42328674D01*
X143500844Y-42211175D01*
X143500844Y-42211174D01*
X143557521Y-42074342D01*
X143557522Y-42074342D01*
X143568626Y-41990000D01*
X142859501Y-41990000D01*
X142859500Y-41990001D01*
X142859500Y-42489999D01*
X142609500Y-42489999D01*
X142609500Y-41990001D01*
X142609499Y-41990000D01*
X141900374Y-41990000D01*
X141900608Y-41991779D01*
X141889458Y-42051940D01*
X141845075Y-42094057D01*
X141821769Y-42101799D01*
X141806884Y-42104759D01*
X141790724Y-42115557D01*
X141779139Y-42123298D01*
X141777000Y-42124727D01*
X141718111Y-42141334D01*
X141666999Y-42124726D01*
X141637119Y-42104761D01*
X141637117Y-42104760D01*
X141637114Y-42104759D01*
X141637113Y-42104759D01*
X141560410Y-42089501D01*
X141560402Y-42089500D01*
X141560401Y-42089500D01*
X141560400Y-42089500D01*
X141383602Y-42089500D01*
X141383595Y-42089501D01*
X141306884Y-42104759D01*
X141290724Y-42115557D01*
X141279139Y-42123298D01*
X141277000Y-42124727D01*
X141218111Y-42141334D01*
X141166999Y-42124726D01*
X141137119Y-42104761D01*
X141137117Y-42104760D01*
X141137114Y-42104759D01*
X141137113Y-42104759D01*
X141060410Y-42089501D01*
X141060402Y-42089500D01*
X141060401Y-42089500D01*
X141060400Y-42089500D01*
X140883602Y-42089500D01*
X140883595Y-42089501D01*
X140806884Y-42104759D01*
X140790724Y-42115557D01*
X140779139Y-42123298D01*
X140777000Y-42124727D01*
X140718111Y-42141334D01*
X140666999Y-42124726D01*
X140637119Y-42104761D01*
X140637114Y-42104759D01*
X140622228Y-42101798D01*
X140568845Y-42071901D01*
X140543230Y-42016335D01*
X140543391Y-41991777D01*
X140543625Y-41990000D01*
X139834501Y-41990000D01*
X139834500Y-41990001D01*
X139834500Y-42489999D01*
X139834501Y-42490000D01*
X140021368Y-42490000D01*
X140034577Y-42488261D01*
X140094738Y-42499411D01*
X140136856Y-42543793D01*
X140146500Y-42586414D01*
X140146500Y-43512165D01*
X140127593Y-43570356D01*
X140117504Y-43582169D01*
X139421169Y-44278504D01*
X139366652Y-44306281D01*
X139351165Y-44307500D01*
X138918510Y-44307500D01*
X138818874Y-44323281D01*
X138818867Y-44323283D01*
X138698782Y-44384470D01*
X138603470Y-44479782D01*
X138542283Y-44599867D01*
X138542281Y-44599874D01*
X138526500Y-44699510D01*
X138526500Y-45216489D01*
X138542281Y-45316125D01*
X138542283Y-45316132D01*
X138603470Y-45436217D01*
X138603472Y-45436220D01*
X138644783Y-45477531D01*
X138672559Y-45532046D01*
X138662988Y-45592478D01*
X138626751Y-45631793D01*
X138499270Y-45710425D01*
X138379425Y-45830270D01*
X138290454Y-45974512D01*
X138237143Y-46135396D01*
X138227000Y-46234676D01*
X138227000Y-46257999D01*
X127476999Y-46257999D01*
X127476999Y-46234677D01*
X127466857Y-46135402D01*
X127466854Y-46135390D01*
X127413545Y-45974512D01*
X127324574Y-45830270D01*
X127204730Y-45710426D01*
X127077248Y-45631793D01*
X127037647Y-45585152D01*
X127033024Y-45524141D01*
X127059216Y-45477531D01*
X127100528Y-45436220D01*
X127159898Y-45319700D01*
X127161716Y-45316132D01*
X127161716Y-45316131D01*
X127161719Y-45316126D01*
X127177500Y-45216488D01*
X127177500Y-44699512D01*
X127176418Y-44692683D01*
X127167652Y-44637335D01*
X127161719Y-44599874D01*
X127161716Y-44599869D01*
X127161716Y-44599867D01*
X127100529Y-44479782D01*
X127100528Y-44479780D01*
X127005220Y-44384472D01*
X127005217Y-44384470D01*
X126885132Y-44323283D01*
X126885127Y-44323281D01*
X126885126Y-44323281D01*
X126835500Y-44315421D01*
X126785490Y-44307500D01*
X126785488Y-44307500D01*
X126352835Y-44307500D01*
X126294644Y-44288593D01*
X126282831Y-44278504D01*
X125839996Y-43835669D01*
X125812219Y-43781152D01*
X125811000Y-43765665D01*
X125811000Y-42607914D01*
X125829907Y-42549723D01*
X125879407Y-42513759D01*
X125922923Y-42509761D01*
X125936131Y-42511500D01*
X126122999Y-42511500D01*
X126123000Y-42511499D01*
X126373000Y-42511499D01*
X126373001Y-42511500D01*
X126559869Y-42511500D01*
X126559871Y-42511499D01*
X126669838Y-42497022D01*
X126669846Y-42497020D01*
X126806674Y-42440344D01*
X126806675Y-42440344D01*
X126924174Y-42350184D01*
X126924184Y-42350174D01*
X127014344Y-42232675D01*
X127014344Y-42232674D01*
X127071021Y-42095842D01*
X127071022Y-42095842D01*
X127082126Y-42011500D01*
X126373001Y-42011500D01*
X126373000Y-42011501D01*
X126373000Y-42511499D01*
X126123000Y-42511499D01*
X126123000Y-42011501D01*
X126122999Y-42011500D01*
X125413874Y-42011500D01*
X125414108Y-42013279D01*
X125402958Y-42073440D01*
X125358575Y-42115557D01*
X125335269Y-42123299D01*
X125320384Y-42126259D01*
X125300717Y-42139400D01*
X125290656Y-42146123D01*
X125290500Y-42146227D01*
X125231611Y-42162834D01*
X125180499Y-42146226D01*
X125150619Y-42126261D01*
X125150617Y-42126260D01*
X125150614Y-42126259D01*
X125150613Y-42126259D01*
X125073910Y-42111001D01*
X125073902Y-42111000D01*
X125073901Y-42111000D01*
X125073900Y-42111000D01*
X124897102Y-42111000D01*
X124897095Y-42111001D01*
X124820384Y-42126259D01*
X124800717Y-42139400D01*
X124790656Y-42146123D01*
X124790500Y-42146227D01*
X124731611Y-42162834D01*
X124680499Y-42146226D01*
X124650619Y-42126261D01*
X124650617Y-42126260D01*
X124650614Y-42126259D01*
X124650613Y-42126259D01*
X124573910Y-42111001D01*
X124573902Y-42111000D01*
X124573901Y-42111000D01*
X124573900Y-42111000D01*
X124397102Y-42111000D01*
X124397095Y-42111001D01*
X124320384Y-42126259D01*
X124300717Y-42139400D01*
X124290656Y-42146123D01*
X124290500Y-42146227D01*
X124231611Y-42162834D01*
X124180499Y-42146226D01*
X124150619Y-42126261D01*
X124150614Y-42126259D01*
X124135728Y-42123298D01*
X124082345Y-42093401D01*
X124056730Y-42037835D01*
X124056891Y-42013277D01*
X124057125Y-42011500D01*
X123348001Y-42011500D01*
X123348000Y-42011501D01*
X123348000Y-42511499D01*
X123348001Y-42511500D01*
X123534868Y-42511500D01*
X123548077Y-42509761D01*
X123608238Y-42520911D01*
X123650356Y-42565293D01*
X123660000Y-42607914D01*
X123660000Y-43742665D01*
X123641093Y-43800856D01*
X123631004Y-43812669D01*
X123165169Y-44278504D01*
X123110652Y-44306281D01*
X123095165Y-44307500D01*
X122662510Y-44307500D01*
X122562874Y-44323281D01*
X122562867Y-44323283D01*
X122442782Y-44384470D01*
X122347470Y-44479782D01*
X122286283Y-44599867D01*
X122286281Y-44599874D01*
X122270500Y-44699510D01*
X122270500Y-45216489D01*
X122286281Y-45316125D01*
X122286283Y-45316132D01*
X122347470Y-45436217D01*
X122347472Y-45436220D01*
X122388783Y-45477531D01*
X122416559Y-45532046D01*
X122406988Y-45592478D01*
X122370751Y-45631793D01*
X122243270Y-45710425D01*
X122123425Y-45830270D01*
X122034454Y-45974512D01*
X121981143Y-46135396D01*
X121971000Y-46234676D01*
X121971000Y-46257999D01*
X107545121Y-46257999D01*
X107483812Y-46175647D01*
X107243958Y-45921417D01*
X106976211Y-45696751D01*
X106842162Y-45608585D01*
X106684194Y-45504687D01*
X106371853Y-45347824D01*
X106371852Y-45347823D01*
X106371851Y-45347823D01*
X106043411Y-45228281D01*
X106043412Y-45228281D01*
X106043406Y-45228279D01*
X105703324Y-45147678D01*
X105590489Y-45134489D01*
X105356159Y-45107100D01*
X105006641Y-45107100D01*
X104815350Y-45129458D01*
X104659475Y-45147678D01*
X104319393Y-45228279D01*
X104123944Y-45299417D01*
X103990949Y-45347823D01*
X103990948Y-45347823D01*
X103990946Y-45347824D01*
X103678605Y-45504687D01*
X103386590Y-45696750D01*
X103118843Y-45921415D01*
X102878990Y-46175643D01*
X102817679Y-46257999D01*
X102680298Y-46442535D01*
X102678910Y-46444399D01*
X102628995Y-46479784D01*
X102567814Y-46479072D01*
X102518736Y-46442535D01*
X102500500Y-46385280D01*
X102500500Y-43820000D01*
X106827975Y-43820000D01*
X106848042Y-44074990D01*
X106907754Y-44323706D01*
X107005635Y-44560013D01*
X107005641Y-44560025D01*
X107139278Y-44778099D01*
X107139287Y-44778112D01*
X107142532Y-44781911D01*
X107703883Y-44220559D01*
X107704740Y-44222626D01*
X107797762Y-44361844D01*
X107916156Y-44480238D01*
X108055374Y-44573260D01*
X108057438Y-44574114D01*
X107496087Y-45135466D01*
X107496087Y-45135467D01*
X107499896Y-45138719D01*
X107717974Y-45272358D01*
X107717986Y-45272364D01*
X107954293Y-45370245D01*
X107954292Y-45370245D01*
X108203009Y-45429957D01*
X108458000Y-45450024D01*
X108712990Y-45429957D01*
X108961706Y-45370245D01*
X109198013Y-45272364D01*
X109198025Y-45272358D01*
X109416097Y-45138723D01*
X109416106Y-45138716D01*
X109419912Y-45135466D01*
X108858560Y-44574115D01*
X108860626Y-44573260D01*
X108999844Y-44480238D01*
X109118238Y-44361844D01*
X109211260Y-44222626D01*
X109212115Y-44220560D01*
X109773466Y-44781911D01*
X109776716Y-44778106D01*
X109776723Y-44778097D01*
X109910358Y-44560025D01*
X109910364Y-44560013D01*
X110008245Y-44323706D01*
X110067957Y-44074990D01*
X110088024Y-43820000D01*
X111907975Y-43820000D01*
X111928042Y-44074990D01*
X111987754Y-44323706D01*
X112085635Y-44560013D01*
X112085641Y-44560025D01*
X112219278Y-44778099D01*
X112219287Y-44778112D01*
X112222532Y-44781911D01*
X112783883Y-44220559D01*
X112784740Y-44222626D01*
X112877762Y-44361844D01*
X112996156Y-44480238D01*
X113135374Y-44573260D01*
X113137438Y-44574114D01*
X112576087Y-45135466D01*
X112576087Y-45135467D01*
X112579896Y-45138719D01*
X112797974Y-45272358D01*
X112797986Y-45272364D01*
X113034293Y-45370245D01*
X113034292Y-45370245D01*
X113283009Y-45429957D01*
X113538000Y-45450024D01*
X113792990Y-45429957D01*
X114041706Y-45370245D01*
X114278013Y-45272364D01*
X114278025Y-45272358D01*
X114496097Y-45138723D01*
X114496106Y-45138716D01*
X114499911Y-45135466D01*
X113938560Y-44574115D01*
X113940626Y-44573260D01*
X114079844Y-44480238D01*
X114198238Y-44361844D01*
X114291260Y-44222626D01*
X114292115Y-44220560D01*
X114853466Y-44781911D01*
X114856716Y-44778106D01*
X114856723Y-44778097D01*
X114990358Y-44560025D01*
X114990364Y-44560013D01*
X115088245Y-44323706D01*
X115147957Y-44074990D01*
X115168024Y-43820000D01*
X115147957Y-43565009D01*
X115088245Y-43316293D01*
X114990364Y-43079986D01*
X114990358Y-43079974D01*
X114856719Y-42861896D01*
X114853466Y-42858087D01*
X114292114Y-43419438D01*
X114291260Y-43417374D01*
X114198238Y-43278156D01*
X114079844Y-43159762D01*
X113940626Y-43066740D01*
X113938559Y-43065883D01*
X114499911Y-42504532D01*
X114499911Y-42504531D01*
X114496112Y-42501287D01*
X114496099Y-42501278D01*
X114278025Y-42367641D01*
X114278013Y-42367635D01*
X114041706Y-42269754D01*
X114041707Y-42269754D01*
X113792990Y-42210042D01*
X113538000Y-42189975D01*
X113283009Y-42210042D01*
X113034293Y-42269754D01*
X112797986Y-42367635D01*
X112797974Y-42367641D01*
X112579899Y-42501278D01*
X112579892Y-42501283D01*
X112576086Y-42504531D01*
X113137439Y-43065884D01*
X113135374Y-43066740D01*
X112996156Y-43159762D01*
X112877762Y-43278156D01*
X112784740Y-43417374D01*
X112783884Y-43419439D01*
X112222531Y-42858086D01*
X112219283Y-42861892D01*
X112219278Y-42861899D01*
X112085641Y-43079974D01*
X112085635Y-43079986D01*
X111987754Y-43316293D01*
X111928042Y-43565009D01*
X111907975Y-43820000D01*
X110088024Y-43820000D01*
X110067957Y-43565009D01*
X110008245Y-43316293D01*
X109910364Y-43079986D01*
X109910358Y-43079974D01*
X109776719Y-42861896D01*
X109773466Y-42858087D01*
X109212114Y-43419438D01*
X109211260Y-43417374D01*
X109118238Y-43278156D01*
X108999844Y-43159762D01*
X108860626Y-43066740D01*
X108858559Y-43065883D01*
X109419911Y-42504532D01*
X109419911Y-42504531D01*
X109416112Y-42501287D01*
X109416099Y-42501278D01*
X109198025Y-42367641D01*
X109198013Y-42367635D01*
X108961706Y-42269754D01*
X108961707Y-42269754D01*
X108712990Y-42210042D01*
X108458000Y-42189975D01*
X108203009Y-42210042D01*
X107954293Y-42269754D01*
X107717986Y-42367635D01*
X107717974Y-42367641D01*
X107499899Y-42501278D01*
X107499892Y-42501283D01*
X107496086Y-42504531D01*
X108057439Y-43065884D01*
X108055374Y-43066740D01*
X107916156Y-43159762D01*
X107797762Y-43278156D01*
X107704740Y-43417374D01*
X107703884Y-43419439D01*
X107142531Y-42858086D01*
X107139283Y-42861892D01*
X107139278Y-42861899D01*
X107005641Y-43079974D01*
X107005635Y-43079986D01*
X106907754Y-43316293D01*
X106848042Y-43565009D01*
X106827975Y-43820000D01*
X102500500Y-43820000D01*
X102500500Y-41280003D01*
X109767819Y-41280003D01*
X109786506Y-41493611D01*
X109786507Y-41493618D01*
X109786508Y-41493619D01*
X109842008Y-41700747D01*
X109925595Y-41880000D01*
X109932632Y-41895091D01*
X109932632Y-41895092D01*
X110055623Y-42070740D01*
X110055627Y-42070745D01*
X110207255Y-42222373D01*
X110207258Y-42222375D01*
X110207259Y-42222376D01*
X110382907Y-42345367D01*
X110382908Y-42345367D01*
X110382909Y-42345368D01*
X110577253Y-42435992D01*
X110784381Y-42491492D01*
X110784385Y-42491492D01*
X110784388Y-42491493D01*
X110997997Y-42510181D01*
X110998000Y-42510181D01*
X110998003Y-42510181D01*
X111211611Y-42491493D01*
X111211612Y-42491492D01*
X111211619Y-42491492D01*
X111418747Y-42435992D01*
X111613091Y-42345368D01*
X111788745Y-42222373D01*
X111940373Y-42070745D01*
X112063368Y-41895091D01*
X112136662Y-41737910D01*
X112178391Y-41693163D01*
X112226387Y-41680750D01*
X115938196Y-41680750D01*
X115996387Y-41699657D01*
X116032351Y-41749157D01*
X116035977Y-41764263D01*
X116039281Y-41785125D01*
X116039283Y-41785132D01*
X116100470Y-41905217D01*
X116100472Y-41905220D01*
X116195780Y-42000528D01*
X116195782Y-42000529D01*
X116315867Y-42061716D01*
X116315869Y-42061716D01*
X116315874Y-42061719D01*
X116389878Y-42073440D01*
X116415510Y-42077500D01*
X116415512Y-42077500D01*
X116932490Y-42077500D01*
X116958122Y-42073440D01*
X117032126Y-42061719D01*
X117152220Y-42000528D01*
X117247528Y-41905220D01*
X117308719Y-41785126D01*
X117324500Y-41685489D01*
X117573500Y-41685489D01*
X117589281Y-41785125D01*
X117589283Y-41785132D01*
X117650470Y-41905217D01*
X117650472Y-41905220D01*
X117745780Y-42000528D01*
X117745782Y-42000529D01*
X117865867Y-42061716D01*
X117865869Y-42061716D01*
X117865874Y-42061719D01*
X117939878Y-42073440D01*
X117965510Y-42077500D01*
X117965512Y-42077500D01*
X118482490Y-42077500D01*
X118508122Y-42073440D01*
X118582126Y-42061719D01*
X118680686Y-42011500D01*
X122388874Y-42011500D01*
X122399978Y-42095842D01*
X122456655Y-42232674D01*
X122456655Y-42232675D01*
X122546815Y-42350174D01*
X122546825Y-42350184D01*
X122664325Y-42440344D01*
X122801153Y-42497020D01*
X122801161Y-42497022D01*
X122911128Y-42511499D01*
X122911131Y-42511500D01*
X123097999Y-42511500D01*
X123098000Y-42511499D01*
X123098000Y-42011501D01*
X123097999Y-42011500D01*
X122388874Y-42011500D01*
X118680686Y-42011500D01*
X118702220Y-42000528D01*
X118797528Y-41905220D01*
X118858719Y-41785126D01*
X118865128Y-41744662D01*
X118892906Y-41690146D01*
X118947423Y-41662369D01*
X118962909Y-41661150D01*
X122289197Y-41661150D01*
X122347388Y-41680057D01*
X122383352Y-41729557D01*
X122385984Y-41758204D01*
X122388874Y-41761500D01*
X123097999Y-41761500D01*
X123118504Y-41740995D01*
X123173021Y-41713218D01*
X123188500Y-41711999D01*
X123257493Y-41711999D01*
X123315683Y-41730906D01*
X123327496Y-41740995D01*
X123348001Y-41761500D01*
X124057126Y-41761500D01*
X124057126Y-41761499D01*
X125413873Y-41761499D01*
X125413874Y-41761500D01*
X126122999Y-41761500D01*
X126143504Y-41740995D01*
X126198021Y-41713218D01*
X126213500Y-41711999D01*
X126282493Y-41711999D01*
X126340683Y-41730906D01*
X126352496Y-41740995D01*
X126373001Y-41761500D01*
X127082126Y-41761500D01*
X127086777Y-41756195D01*
X127094801Y-41712910D01*
X127139183Y-41670794D01*
X127181803Y-41661150D01*
X130576091Y-41661150D01*
X130634282Y-41680057D01*
X130670246Y-41729557D01*
X130673872Y-41744662D01*
X130680281Y-41785125D01*
X130680283Y-41785132D01*
X130741470Y-41905217D01*
X130741472Y-41905220D01*
X130836780Y-42000528D01*
X130836782Y-42000529D01*
X130956867Y-42061716D01*
X130956869Y-42061716D01*
X130956874Y-42061719D01*
X131030878Y-42073440D01*
X131056510Y-42077500D01*
X131056512Y-42077500D01*
X131573490Y-42077500D01*
X131599122Y-42073440D01*
X131673126Y-42061719D01*
X131793220Y-42000528D01*
X131888528Y-41905220D01*
X131949719Y-41785126D01*
X131965500Y-41685489D01*
X132214500Y-41685489D01*
X132230281Y-41785125D01*
X132230283Y-41785132D01*
X132291470Y-41905217D01*
X132291472Y-41905220D01*
X132386780Y-42000528D01*
X132386782Y-42000529D01*
X132506867Y-42061716D01*
X132506869Y-42061716D01*
X132506874Y-42061719D01*
X132580878Y-42073440D01*
X132606510Y-42077500D01*
X132606512Y-42077500D01*
X133123490Y-42077500D01*
X133149122Y-42073440D01*
X133223126Y-42061719D01*
X133343220Y-42000528D01*
X133353748Y-41990000D01*
X138875374Y-41990000D01*
X138886478Y-42074342D01*
X138943155Y-42211174D01*
X138943155Y-42211175D01*
X139033315Y-42328674D01*
X139033325Y-42328684D01*
X139150825Y-42418844D01*
X139287653Y-42475520D01*
X139287661Y-42475522D01*
X139397628Y-42489999D01*
X139397631Y-42490000D01*
X139584499Y-42490000D01*
X139584500Y-42489999D01*
X139584500Y-41990001D01*
X139584499Y-41990000D01*
X138875374Y-41990000D01*
X133353748Y-41990000D01*
X133438528Y-41905220D01*
X133499719Y-41785126D01*
X133509533Y-41723163D01*
X133537311Y-41668646D01*
X133591827Y-41640869D01*
X133607314Y-41639650D01*
X138775697Y-41639650D01*
X138833888Y-41658557D01*
X138869852Y-41708057D01*
X138872484Y-41736704D01*
X138875374Y-41740000D01*
X139584499Y-41740000D01*
X139605004Y-41719495D01*
X139659521Y-41691718D01*
X139675000Y-41690499D01*
X139743993Y-41690499D01*
X139802183Y-41709406D01*
X139813996Y-41719495D01*
X139834501Y-41740000D01*
X140543626Y-41740000D01*
X140543626Y-41739999D01*
X141900373Y-41739999D01*
X141900374Y-41740000D01*
X142609499Y-41740000D01*
X142630004Y-41719495D01*
X142684521Y-41691718D01*
X142700000Y-41690499D01*
X142768993Y-41690499D01*
X142827183Y-41709406D01*
X142838996Y-41719495D01*
X142859501Y-41740000D01*
X143568625Y-41740000D01*
X143594607Y-41710374D01*
X143647190Y-41679091D01*
X143669039Y-41676650D01*
X148091546Y-41676650D01*
X148149737Y-41695557D01*
X148185701Y-41745057D01*
X148189327Y-41760162D01*
X148193281Y-41785125D01*
X148193283Y-41785132D01*
X148254470Y-41905217D01*
X148254472Y-41905220D01*
X148349780Y-42000528D01*
X148349782Y-42000529D01*
X148469867Y-42061716D01*
X148469869Y-42061716D01*
X148469874Y-42061719D01*
X148543878Y-42073440D01*
X148569510Y-42077500D01*
X148569512Y-42077500D01*
X149086490Y-42077500D01*
X149112122Y-42073440D01*
X149186126Y-42061719D01*
X149306220Y-42000528D01*
X149401528Y-41905220D01*
X149462719Y-41785126D01*
X149478500Y-41685489D01*
X149727500Y-41685489D01*
X149743281Y-41785125D01*
X149743283Y-41785132D01*
X149804470Y-41905217D01*
X149804472Y-41905220D01*
X149899780Y-42000528D01*
X149899782Y-42000529D01*
X150019867Y-42061716D01*
X150019869Y-42061716D01*
X150019874Y-42061719D01*
X150093878Y-42073440D01*
X150119510Y-42077500D01*
X150119512Y-42077500D01*
X150636490Y-42077500D01*
X150662122Y-42073440D01*
X150736126Y-42061719D01*
X150834686Y-42011500D01*
X154885374Y-42011500D01*
X154896478Y-42095842D01*
X154953155Y-42232674D01*
X154953155Y-42232675D01*
X155043315Y-42350174D01*
X155043325Y-42350184D01*
X155160825Y-42440344D01*
X155297653Y-42497020D01*
X155297661Y-42497022D01*
X155407628Y-42511499D01*
X155407631Y-42511500D01*
X155594499Y-42511500D01*
X155594500Y-42511499D01*
X155594500Y-42011501D01*
X155594499Y-42011500D01*
X154885374Y-42011500D01*
X150834686Y-42011500D01*
X150856220Y-42000528D01*
X150951528Y-41905220D01*
X151012719Y-41785126D01*
X151019128Y-41744662D01*
X151046906Y-41690146D01*
X151101423Y-41662369D01*
X151116909Y-41661150D01*
X154785697Y-41661150D01*
X154843888Y-41680057D01*
X154879852Y-41729557D01*
X154882484Y-41758204D01*
X154885374Y-41761500D01*
X155594499Y-41761500D01*
X155615004Y-41740995D01*
X155669521Y-41713218D01*
X155685000Y-41711999D01*
X155753993Y-41711999D01*
X155812183Y-41730906D01*
X155823996Y-41740995D01*
X155844501Y-41761500D01*
X156553626Y-41761500D01*
X156553626Y-41761499D01*
X157910373Y-41761499D01*
X157910374Y-41761500D01*
X158619499Y-41761500D01*
X158640004Y-41740995D01*
X158694521Y-41713218D01*
X158710000Y-41711999D01*
X158778993Y-41711999D01*
X158837183Y-41730906D01*
X158848996Y-41740995D01*
X158869501Y-41761500D01*
X159578626Y-41761500D01*
X159589506Y-41749093D01*
X159593339Y-41728412D01*
X159637721Y-41686295D01*
X159680343Y-41676650D01*
X163331546Y-41676650D01*
X163389737Y-41695557D01*
X163425701Y-41745057D01*
X163429327Y-41760162D01*
X163433281Y-41785125D01*
X163433283Y-41785132D01*
X163494470Y-41905217D01*
X163494472Y-41905220D01*
X163589780Y-42000528D01*
X163589782Y-42000529D01*
X163709867Y-42061716D01*
X163709869Y-42061716D01*
X163709874Y-42061719D01*
X163783878Y-42073440D01*
X163809510Y-42077500D01*
X163809512Y-42077500D01*
X164326490Y-42077500D01*
X164352122Y-42073440D01*
X164426126Y-42061719D01*
X164546220Y-42000528D01*
X164641528Y-41905220D01*
X164702719Y-41785126D01*
X164718500Y-41685489D01*
X164967500Y-41685489D01*
X164983281Y-41785125D01*
X164983283Y-41785132D01*
X165044470Y-41905217D01*
X165044472Y-41905220D01*
X165139780Y-42000528D01*
X165139782Y-42000529D01*
X165259867Y-42061716D01*
X165259869Y-42061716D01*
X165259874Y-42061719D01*
X165333878Y-42073440D01*
X165359510Y-42077500D01*
X165359512Y-42077500D01*
X165876490Y-42077500D01*
X165902122Y-42073440D01*
X165976126Y-42061719D01*
X166074686Y-42011500D01*
X170903374Y-42011500D01*
X170914478Y-42095842D01*
X170971155Y-42232674D01*
X170971155Y-42232675D01*
X171061315Y-42350174D01*
X171061325Y-42350184D01*
X171178825Y-42440344D01*
X171315653Y-42497020D01*
X171315661Y-42497022D01*
X171425628Y-42511499D01*
X171425631Y-42511500D01*
X171612499Y-42511500D01*
X171612500Y-42511499D01*
X171612500Y-42011501D01*
X171612499Y-42011500D01*
X170903374Y-42011500D01*
X166074686Y-42011500D01*
X166096220Y-42000528D01*
X166191528Y-41905220D01*
X166252719Y-41785126D01*
X166259128Y-41744662D01*
X166286906Y-41690146D01*
X166341423Y-41662369D01*
X166356909Y-41661150D01*
X170803697Y-41661150D01*
X170861888Y-41680057D01*
X170897852Y-41729557D01*
X170900484Y-41758204D01*
X170903374Y-41761500D01*
X171612499Y-41761500D01*
X171633004Y-41740995D01*
X171687521Y-41713218D01*
X171703000Y-41711999D01*
X171771993Y-41711999D01*
X171830183Y-41730906D01*
X171841996Y-41740995D01*
X171862501Y-41761500D01*
X172571626Y-41761500D01*
X172571626Y-41761499D01*
X173928373Y-41761499D01*
X173928374Y-41761500D01*
X174637499Y-41761500D01*
X174658004Y-41740995D01*
X174712521Y-41713218D01*
X174728000Y-41711999D01*
X174796993Y-41711999D01*
X174855183Y-41730906D01*
X174866996Y-41740995D01*
X174887501Y-41761500D01*
X175596626Y-41761500D01*
X175601277Y-41756195D01*
X175609301Y-41712910D01*
X175653683Y-41670794D01*
X175696303Y-41661150D01*
X179331091Y-41661150D01*
X179389282Y-41680057D01*
X179425246Y-41729557D01*
X179428872Y-41744662D01*
X179435281Y-41785125D01*
X179435283Y-41785132D01*
X179496470Y-41905217D01*
X179496472Y-41905220D01*
X179591780Y-42000528D01*
X179591782Y-42000529D01*
X179711867Y-42061716D01*
X179711869Y-42061716D01*
X179711874Y-42061719D01*
X179785878Y-42073440D01*
X179811510Y-42077500D01*
X179811512Y-42077500D01*
X180328490Y-42077500D01*
X180354122Y-42073440D01*
X180428126Y-42061719D01*
X180548220Y-42000528D01*
X180643528Y-41905220D01*
X180704719Y-41785126D01*
X180720500Y-41685489D01*
X180969500Y-41685489D01*
X180985281Y-41785125D01*
X180985283Y-41785132D01*
X181046470Y-41905217D01*
X181046472Y-41905220D01*
X181141780Y-42000528D01*
X181141782Y-42000529D01*
X181261867Y-42061716D01*
X181261869Y-42061716D01*
X181261874Y-42061719D01*
X181335878Y-42073440D01*
X181361510Y-42077500D01*
X181361512Y-42077500D01*
X181878490Y-42077500D01*
X181904122Y-42073440D01*
X181978126Y-42061719D01*
X182076686Y-42011500D01*
X186905374Y-42011500D01*
X186916478Y-42095842D01*
X186973155Y-42232674D01*
X186973155Y-42232675D01*
X187063315Y-42350174D01*
X187063325Y-42350184D01*
X187180825Y-42440344D01*
X187317653Y-42497020D01*
X187317661Y-42497022D01*
X187427628Y-42511499D01*
X187427631Y-42511500D01*
X187614499Y-42511500D01*
X187614500Y-42511499D01*
X187614500Y-42011501D01*
X187614499Y-42011500D01*
X186905374Y-42011500D01*
X182076686Y-42011500D01*
X182098220Y-42000528D01*
X182193528Y-41905220D01*
X182254719Y-41785126D01*
X182258673Y-41760162D01*
X182286451Y-41705645D01*
X182340968Y-41677869D01*
X182356454Y-41676650D01*
X186803657Y-41676650D01*
X186861848Y-41695557D01*
X186897812Y-41745057D01*
X186898614Y-41753792D01*
X186905374Y-41761500D01*
X187614499Y-41761500D01*
X187635004Y-41740995D01*
X187689521Y-41713218D01*
X187705000Y-41711999D01*
X187773993Y-41711999D01*
X187832183Y-41730906D01*
X187843996Y-41740995D01*
X187864501Y-41761500D01*
X188573626Y-41761500D01*
X188573626Y-41761499D01*
X189930373Y-41761499D01*
X189930374Y-41761500D01*
X190639499Y-41761500D01*
X190660004Y-41740995D01*
X190714521Y-41713218D01*
X190730000Y-41711999D01*
X190798993Y-41711999D01*
X190857183Y-41730906D01*
X190868996Y-41740995D01*
X190889501Y-41761500D01*
X191598626Y-41761500D01*
X191609506Y-41749093D01*
X191613339Y-41728412D01*
X191657721Y-41686295D01*
X191700343Y-41676650D01*
X194065546Y-41676650D01*
X194123737Y-41695557D01*
X194159701Y-41745057D01*
X194163327Y-41760162D01*
X194167281Y-41785125D01*
X194167283Y-41785132D01*
X194228470Y-41905217D01*
X194228472Y-41905220D01*
X194323780Y-42000528D01*
X194323782Y-42000529D01*
X194443867Y-42061716D01*
X194443869Y-42061716D01*
X194443874Y-42061719D01*
X194517878Y-42073440D01*
X194543510Y-42077500D01*
X194543512Y-42077500D01*
X195060490Y-42077500D01*
X195086122Y-42073440D01*
X195160126Y-42061719D01*
X195280220Y-42000528D01*
X195375528Y-41905220D01*
X195436719Y-41785126D01*
X195452500Y-41685489D01*
X195701500Y-41685489D01*
X195717281Y-41785125D01*
X195717283Y-41785132D01*
X195778470Y-41905217D01*
X195778472Y-41905220D01*
X195873780Y-42000528D01*
X195873782Y-42000529D01*
X195993867Y-42061716D01*
X195993869Y-42061716D01*
X195993874Y-42061719D01*
X196067878Y-42073440D01*
X196093510Y-42077500D01*
X196093512Y-42077500D01*
X196610490Y-42077500D01*
X196636122Y-42073440D01*
X196710126Y-42061719D01*
X196830220Y-42000528D01*
X196925528Y-41905220D01*
X196986719Y-41785126D01*
X197002500Y-41685488D01*
X197002500Y-41653650D01*
X197021407Y-41595459D01*
X197070907Y-41559495D01*
X197101500Y-41554650D01*
X203452896Y-41554650D01*
X203511087Y-41573557D01*
X203547051Y-41623057D01*
X203548517Y-41628010D01*
X203568008Y-41700747D01*
X203651595Y-41880000D01*
X203658632Y-41895091D01*
X203658632Y-41895092D01*
X203781623Y-42070740D01*
X203781627Y-42070745D01*
X203933255Y-42222373D01*
X203933258Y-42222375D01*
X203933259Y-42222376D01*
X204108907Y-42345367D01*
X204108908Y-42345367D01*
X204108909Y-42345368D01*
X204303253Y-42435992D01*
X204510381Y-42491492D01*
X204510385Y-42491492D01*
X204510388Y-42491493D01*
X204723997Y-42510181D01*
X204724000Y-42510181D01*
X204724003Y-42510181D01*
X204937611Y-42491493D01*
X204937612Y-42491492D01*
X204937619Y-42491492D01*
X205144747Y-42435992D01*
X205339091Y-42345368D01*
X205514745Y-42222373D01*
X205666373Y-42070745D01*
X205789368Y-41895091D01*
X205879992Y-41700747D01*
X205935492Y-41493619D01*
X205936603Y-41480929D01*
X205954181Y-41280003D01*
X205954181Y-41279996D01*
X205935493Y-41066388D01*
X205935492Y-41066385D01*
X205935492Y-41066381D01*
X205879992Y-40859253D01*
X205837844Y-40768867D01*
X205789373Y-40664919D01*
X205789368Y-40664911D01*
X205789368Y-40664910D01*
X205666373Y-40489255D01*
X205514745Y-40337627D01*
X205514741Y-40337624D01*
X205514740Y-40337623D01*
X205339092Y-40214632D01*
X205238732Y-40167834D01*
X205144747Y-40124008D01*
X204937619Y-40068508D01*
X204937618Y-40068507D01*
X204937611Y-40068506D01*
X204724003Y-40049819D01*
X204723997Y-40049819D01*
X204510388Y-40068506D01*
X204303249Y-40124009D01*
X204108919Y-40214626D01*
X204108912Y-40214630D01*
X203933259Y-40337623D01*
X203781623Y-40489259D01*
X203711885Y-40588857D01*
X203658632Y-40664910D01*
X203658632Y-40664911D01*
X203658626Y-40664919D01*
X203568009Y-40859249D01*
X203548523Y-40931973D01*
X203515199Y-40983287D01*
X203458077Y-41005214D01*
X203452896Y-41005350D01*
X197040495Y-41005350D01*
X196982304Y-40986443D01*
X196952286Y-40951296D01*
X196925528Y-40898780D01*
X196830220Y-40803472D01*
X196830217Y-40803470D01*
X196710132Y-40742283D01*
X196710127Y-40742281D01*
X196710126Y-40742281D01*
X196676913Y-40737020D01*
X196610490Y-40726500D01*
X196610488Y-40726500D01*
X196093512Y-40726500D01*
X196093510Y-40726500D01*
X195993874Y-40742281D01*
X195993867Y-40742283D01*
X195873782Y-40803470D01*
X195778470Y-40898782D01*
X195717283Y-41018867D01*
X195717281Y-41018874D01*
X195701500Y-41118510D01*
X195701500Y-41685489D01*
X195452500Y-41685489D01*
X195452500Y-41685488D01*
X195452500Y-41118512D01*
X195452372Y-41117706D01*
X195448040Y-41090350D01*
X195436719Y-41018874D01*
X195436716Y-41018869D01*
X195436716Y-41018867D01*
X195375529Y-40898782D01*
X195375528Y-40898780D01*
X195280220Y-40803472D01*
X195280217Y-40803470D01*
X195160132Y-40742283D01*
X195160127Y-40742281D01*
X195160126Y-40742281D01*
X195126913Y-40737020D01*
X195060490Y-40726500D01*
X195060488Y-40726500D01*
X194543512Y-40726500D01*
X194543510Y-40726500D01*
X194443874Y-40742281D01*
X194443867Y-40742283D01*
X194323782Y-40803470D01*
X194228470Y-40898782D01*
X194167283Y-41018867D01*
X194167281Y-41018874D01*
X194163327Y-41043838D01*
X194135549Y-41098355D01*
X194081032Y-41126131D01*
X194065546Y-41127350D01*
X191696262Y-41127350D01*
X191638071Y-41108443D01*
X191602107Y-41058943D01*
X191598109Y-41015428D01*
X191598626Y-41011500D01*
X190889501Y-41011500D01*
X190868997Y-41032004D01*
X190814480Y-41059781D01*
X190798993Y-41061000D01*
X190730007Y-41061000D01*
X190671816Y-41042093D01*
X190660003Y-41032004D01*
X190639499Y-41011500D01*
X189930374Y-41011500D01*
X189941478Y-41095842D01*
X189998155Y-41232674D01*
X189998155Y-41232675D01*
X190069944Y-41326233D01*
X190090368Y-41383909D01*
X190072990Y-41442575D01*
X190069944Y-41446767D01*
X189998155Y-41540324D01*
X189998155Y-41540325D01*
X189941478Y-41677157D01*
X189941477Y-41677157D01*
X189930373Y-41761499D01*
X188573626Y-41761499D01*
X188562521Y-41677157D01*
X188505844Y-41540325D01*
X188505844Y-41540324D01*
X188434055Y-41446767D01*
X188413631Y-41389091D01*
X188431009Y-41330426D01*
X188434055Y-41326233D01*
X188505844Y-41232675D01*
X188505844Y-41232674D01*
X188562521Y-41095842D01*
X188562522Y-41095842D01*
X188573626Y-41011500D01*
X187864501Y-41011500D01*
X187843997Y-41032004D01*
X187789480Y-41059781D01*
X187773993Y-41061000D01*
X187705007Y-41061000D01*
X187646816Y-41042093D01*
X187635003Y-41032004D01*
X187614499Y-41011500D01*
X186905374Y-41011500D01*
X186905891Y-41015428D01*
X186894741Y-41075589D01*
X186850359Y-41117706D01*
X186807738Y-41127350D01*
X182356454Y-41127350D01*
X182298263Y-41108443D01*
X182262299Y-41058943D01*
X182258673Y-41043838D01*
X182257986Y-41039500D01*
X182254719Y-41018874D01*
X182254716Y-41018869D01*
X182254716Y-41018867D01*
X182193529Y-40898782D01*
X182193528Y-40898780D01*
X182098220Y-40803472D01*
X182098217Y-40803470D01*
X181978132Y-40742283D01*
X181978127Y-40742281D01*
X181978126Y-40742281D01*
X181944913Y-40737020D01*
X181878490Y-40726500D01*
X181878488Y-40726500D01*
X181361512Y-40726500D01*
X181361510Y-40726500D01*
X181261874Y-40742281D01*
X181261867Y-40742283D01*
X181141782Y-40803470D01*
X181046470Y-40898782D01*
X180985283Y-41018867D01*
X180985281Y-41018874D01*
X180969500Y-41118510D01*
X180969500Y-41685489D01*
X180720500Y-41685489D01*
X180720500Y-41685488D01*
X180720500Y-41118512D01*
X180720372Y-41117706D01*
X180716040Y-41090350D01*
X180704719Y-41018874D01*
X180704716Y-41018869D01*
X180704716Y-41018867D01*
X180643529Y-40898782D01*
X180643528Y-40898780D01*
X180548220Y-40803472D01*
X180548217Y-40803470D01*
X180428132Y-40742283D01*
X180428127Y-40742281D01*
X180428126Y-40742281D01*
X180394913Y-40737020D01*
X180328490Y-40726500D01*
X180328488Y-40726500D01*
X179811512Y-40726500D01*
X179811510Y-40726500D01*
X179711874Y-40742281D01*
X179711867Y-40742283D01*
X179591782Y-40803470D01*
X179496470Y-40898782D01*
X179435282Y-41018870D01*
X179435281Y-41018871D01*
X179433782Y-41028339D01*
X179406003Y-41082855D01*
X179351486Y-41110631D01*
X179336001Y-41111850D01*
X175696303Y-41111850D01*
X175638112Y-41092943D01*
X175602148Y-41043443D01*
X175599515Y-41014795D01*
X175596626Y-41011500D01*
X174887501Y-41011500D01*
X174866997Y-41032004D01*
X174812480Y-41059781D01*
X174796993Y-41061000D01*
X174728007Y-41061000D01*
X174669816Y-41042093D01*
X174658003Y-41032004D01*
X174637499Y-41011500D01*
X173928374Y-41011500D01*
X173939478Y-41095842D01*
X173996155Y-41232674D01*
X173996155Y-41232675D01*
X174067944Y-41326233D01*
X174088368Y-41383909D01*
X174070990Y-41442575D01*
X174067944Y-41446767D01*
X173996155Y-41540324D01*
X173996155Y-41540325D01*
X173939478Y-41677157D01*
X173939477Y-41677157D01*
X173928373Y-41761499D01*
X172571626Y-41761499D01*
X172560521Y-41677157D01*
X172503844Y-41540325D01*
X172503844Y-41540324D01*
X172432055Y-41446767D01*
X172411631Y-41389091D01*
X172429009Y-41330426D01*
X172432055Y-41326233D01*
X172503844Y-41232675D01*
X172503844Y-41232674D01*
X172560521Y-41095842D01*
X172560522Y-41095842D01*
X172571626Y-41011500D01*
X171862501Y-41011500D01*
X171841997Y-41032004D01*
X171787480Y-41059781D01*
X171771993Y-41061000D01*
X171703007Y-41061000D01*
X171644816Y-41042093D01*
X171633003Y-41032004D01*
X171612499Y-41011500D01*
X170903374Y-41011500D01*
X170898722Y-41016804D01*
X170890699Y-41060090D01*
X170846317Y-41102206D01*
X170803697Y-41111850D01*
X166351999Y-41111850D01*
X166293808Y-41092943D01*
X166257844Y-41043443D01*
X166254218Y-41028339D01*
X166252719Y-41018874D01*
X166252718Y-41018872D01*
X166252718Y-41018871D01*
X166252717Y-41018870D01*
X166191529Y-40898782D01*
X166191528Y-40898780D01*
X166096220Y-40803472D01*
X166096217Y-40803470D01*
X165976132Y-40742283D01*
X165976127Y-40742281D01*
X165976126Y-40742281D01*
X165942913Y-40737020D01*
X165876490Y-40726500D01*
X165876488Y-40726500D01*
X165359512Y-40726500D01*
X165359510Y-40726500D01*
X165259874Y-40742281D01*
X165259867Y-40742283D01*
X165139782Y-40803470D01*
X165044470Y-40898782D01*
X164983283Y-41018867D01*
X164983281Y-41018874D01*
X164967500Y-41118510D01*
X164967500Y-41685489D01*
X164718500Y-41685489D01*
X164718500Y-41685488D01*
X164718500Y-41118512D01*
X164718372Y-41117706D01*
X164714040Y-41090350D01*
X164702719Y-41018874D01*
X164702716Y-41018869D01*
X164702716Y-41018867D01*
X164641529Y-40898782D01*
X164641528Y-40898780D01*
X164546220Y-40803472D01*
X164546217Y-40803470D01*
X164426132Y-40742283D01*
X164426127Y-40742281D01*
X164426126Y-40742281D01*
X164392913Y-40737020D01*
X164326490Y-40726500D01*
X164326488Y-40726500D01*
X163809512Y-40726500D01*
X163809510Y-40726500D01*
X163709874Y-40742281D01*
X163709867Y-40742283D01*
X163589782Y-40803470D01*
X163494470Y-40898782D01*
X163433283Y-41018867D01*
X163433281Y-41018874D01*
X163429327Y-41043838D01*
X163401549Y-41098355D01*
X163347032Y-41126131D01*
X163331546Y-41127350D01*
X159676262Y-41127350D01*
X159618071Y-41108443D01*
X159582107Y-41058943D01*
X159578109Y-41015428D01*
X159578626Y-41011500D01*
X158869501Y-41011500D01*
X158848997Y-41032004D01*
X158794480Y-41059781D01*
X158778993Y-41061000D01*
X158710007Y-41061000D01*
X158651816Y-41042093D01*
X158640003Y-41032004D01*
X158619499Y-41011500D01*
X157910374Y-41011500D01*
X157921478Y-41095842D01*
X157978155Y-41232674D01*
X157978155Y-41232675D01*
X158049944Y-41326233D01*
X158070368Y-41383909D01*
X158052990Y-41442575D01*
X158049944Y-41446767D01*
X157978155Y-41540324D01*
X157978155Y-41540325D01*
X157921478Y-41677157D01*
X157921477Y-41677157D01*
X157910373Y-41761499D01*
X156553626Y-41761499D01*
X156542521Y-41677157D01*
X156485844Y-41540325D01*
X156485844Y-41540324D01*
X156414055Y-41446767D01*
X156393631Y-41389091D01*
X156411009Y-41330426D01*
X156414055Y-41326233D01*
X156485844Y-41232675D01*
X156485844Y-41232674D01*
X156542521Y-41095842D01*
X156542522Y-41095842D01*
X156553626Y-41011500D01*
X155844501Y-41011500D01*
X155823997Y-41032004D01*
X155769480Y-41059781D01*
X155753993Y-41061000D01*
X155685007Y-41061000D01*
X155626816Y-41042093D01*
X155615003Y-41032004D01*
X155594499Y-41011500D01*
X154885374Y-41011500D01*
X154880722Y-41016804D01*
X154872699Y-41060090D01*
X154828317Y-41102206D01*
X154785697Y-41111850D01*
X151111999Y-41111850D01*
X151053808Y-41092943D01*
X151017844Y-41043443D01*
X151014218Y-41028339D01*
X151012719Y-41018874D01*
X151012718Y-41018872D01*
X151012718Y-41018871D01*
X151012717Y-41018870D01*
X150951529Y-40898782D01*
X150951528Y-40898780D01*
X150856220Y-40803472D01*
X150856217Y-40803470D01*
X150736132Y-40742283D01*
X150736127Y-40742281D01*
X150736126Y-40742281D01*
X150702913Y-40737020D01*
X150636490Y-40726500D01*
X150636488Y-40726500D01*
X150119512Y-40726500D01*
X150119510Y-40726500D01*
X150019874Y-40742281D01*
X150019867Y-40742283D01*
X149899782Y-40803470D01*
X149804470Y-40898782D01*
X149743283Y-41018867D01*
X149743281Y-41018874D01*
X149727500Y-41118510D01*
X149727500Y-41685489D01*
X149478500Y-41685489D01*
X149478500Y-41685488D01*
X149478500Y-41118512D01*
X149478372Y-41117706D01*
X149474040Y-41090350D01*
X149462719Y-41018874D01*
X149462716Y-41018869D01*
X149462716Y-41018867D01*
X149401529Y-40898782D01*
X149401528Y-40898780D01*
X149306220Y-40803472D01*
X149306217Y-40803470D01*
X149186132Y-40742283D01*
X149186127Y-40742281D01*
X149186126Y-40742281D01*
X149152913Y-40737020D01*
X149086490Y-40726500D01*
X149086488Y-40726500D01*
X148569512Y-40726500D01*
X148569510Y-40726500D01*
X148469874Y-40742281D01*
X148469867Y-40742283D01*
X148349782Y-40803470D01*
X148254470Y-40898782D01*
X148193283Y-41018867D01*
X148193281Y-41018874D01*
X148189327Y-41043838D01*
X148161549Y-41098355D01*
X148107032Y-41126131D01*
X148091546Y-41127350D01*
X143663431Y-41127350D01*
X143605240Y-41108443D01*
X143569276Y-41058943D01*
X143565278Y-41015427D01*
X143568626Y-40990000D01*
X142859501Y-40990000D01*
X142838997Y-41010504D01*
X142784480Y-41038281D01*
X142768993Y-41039500D01*
X142700007Y-41039500D01*
X142641816Y-41020593D01*
X142630003Y-41010504D01*
X142609499Y-40990000D01*
X141900374Y-40990000D01*
X141911478Y-41074342D01*
X141968155Y-41211174D01*
X141968155Y-41211175D01*
X142039944Y-41304733D01*
X142060368Y-41362409D01*
X142042990Y-41421075D01*
X142039944Y-41425267D01*
X141968155Y-41518824D01*
X141968155Y-41518825D01*
X141911478Y-41655657D01*
X141911477Y-41655657D01*
X141900373Y-41739999D01*
X140543626Y-41739999D01*
X140532521Y-41655657D01*
X140475844Y-41518825D01*
X140475844Y-41518824D01*
X140404055Y-41425267D01*
X140383631Y-41367591D01*
X140401009Y-41308926D01*
X140404055Y-41304733D01*
X140475844Y-41211175D01*
X140475844Y-41211174D01*
X140532521Y-41074342D01*
X140532522Y-41074342D01*
X140543626Y-40990000D01*
X139834501Y-40990000D01*
X139813997Y-41010504D01*
X139759480Y-41038281D01*
X139743993Y-41039500D01*
X139675007Y-41039500D01*
X139616816Y-41020593D01*
X139605003Y-41010504D01*
X139584499Y-40990000D01*
X138875374Y-40990000D01*
X138870722Y-40995304D01*
X138862699Y-41038590D01*
X138818317Y-41080706D01*
X138775697Y-41090350D01*
X133594871Y-41090350D01*
X133536680Y-41071443D01*
X133503456Y-41025714D01*
X133503257Y-41025816D01*
X133502615Y-41024557D01*
X133500717Y-41021944D01*
X133499718Y-41018871D01*
X133438529Y-40898782D01*
X133438528Y-40898780D01*
X133343220Y-40803472D01*
X133343217Y-40803470D01*
X133223132Y-40742283D01*
X133223127Y-40742281D01*
X133223126Y-40742281D01*
X133189913Y-40737020D01*
X133123490Y-40726500D01*
X133123488Y-40726500D01*
X132606512Y-40726500D01*
X132606510Y-40726500D01*
X132506874Y-40742281D01*
X132506867Y-40742283D01*
X132386782Y-40803470D01*
X132291470Y-40898782D01*
X132230283Y-41018867D01*
X132230281Y-41018874D01*
X132214500Y-41118510D01*
X132214500Y-41685489D01*
X131965500Y-41685489D01*
X131965500Y-41685488D01*
X131965500Y-41118512D01*
X131965372Y-41117706D01*
X131961040Y-41090350D01*
X131949719Y-41018874D01*
X131949716Y-41018869D01*
X131949716Y-41018867D01*
X131888529Y-40898782D01*
X131888528Y-40898780D01*
X131793220Y-40803472D01*
X131793217Y-40803470D01*
X131673132Y-40742283D01*
X131673127Y-40742281D01*
X131673126Y-40742281D01*
X131639913Y-40737020D01*
X131573490Y-40726500D01*
X131573488Y-40726500D01*
X131056512Y-40726500D01*
X131056510Y-40726500D01*
X130956874Y-40742281D01*
X130956867Y-40742283D01*
X130836782Y-40803470D01*
X130741470Y-40898782D01*
X130680282Y-41018870D01*
X130680281Y-41018871D01*
X130678782Y-41028339D01*
X130651003Y-41082855D01*
X130596486Y-41110631D01*
X130581001Y-41111850D01*
X127181803Y-41111850D01*
X127123612Y-41092943D01*
X127087648Y-41043443D01*
X127085015Y-41014795D01*
X127082126Y-41011500D01*
X126373001Y-41011500D01*
X126352497Y-41032004D01*
X126297980Y-41059781D01*
X126282493Y-41061000D01*
X126213507Y-41061000D01*
X126155316Y-41042093D01*
X126143503Y-41032004D01*
X126122999Y-41011500D01*
X125413874Y-41011500D01*
X125424978Y-41095842D01*
X125481655Y-41232674D01*
X125481655Y-41232675D01*
X125553444Y-41326233D01*
X125573868Y-41383909D01*
X125556490Y-41442575D01*
X125553444Y-41446767D01*
X125481655Y-41540324D01*
X125481655Y-41540325D01*
X125424978Y-41677157D01*
X125424977Y-41677157D01*
X125413873Y-41761499D01*
X124057126Y-41761499D01*
X124046021Y-41677157D01*
X123989344Y-41540325D01*
X123989344Y-41540324D01*
X123917555Y-41446767D01*
X123897131Y-41389091D01*
X123914509Y-41330426D01*
X123917555Y-41326233D01*
X123989344Y-41232675D01*
X123989344Y-41232674D01*
X124046021Y-41095842D01*
X124046022Y-41095842D01*
X124057126Y-41011500D01*
X123348001Y-41011500D01*
X123327497Y-41032004D01*
X123272980Y-41059781D01*
X123257493Y-41061000D01*
X123188507Y-41061000D01*
X123130316Y-41042093D01*
X123118503Y-41032004D01*
X123097999Y-41011500D01*
X122388874Y-41011500D01*
X122384222Y-41016804D01*
X122376199Y-41060090D01*
X122331817Y-41102206D01*
X122289197Y-41111850D01*
X118957999Y-41111850D01*
X118899808Y-41092943D01*
X118863844Y-41043443D01*
X118860218Y-41028339D01*
X118858719Y-41018874D01*
X118858718Y-41018872D01*
X118858718Y-41018871D01*
X118858717Y-41018870D01*
X118797529Y-40898782D01*
X118797528Y-40898780D01*
X118702220Y-40803472D01*
X118702217Y-40803470D01*
X118582132Y-40742283D01*
X118582127Y-40742281D01*
X118582126Y-40742281D01*
X118548913Y-40737020D01*
X118482490Y-40726500D01*
X118482488Y-40726500D01*
X117965512Y-40726500D01*
X117965510Y-40726500D01*
X117865874Y-40742281D01*
X117865867Y-40742283D01*
X117745782Y-40803470D01*
X117650470Y-40898782D01*
X117589283Y-41018867D01*
X117589281Y-41018874D01*
X117573500Y-41118510D01*
X117573500Y-41685489D01*
X117324500Y-41685489D01*
X117324500Y-41685488D01*
X117324500Y-41118512D01*
X117324372Y-41117706D01*
X117320040Y-41090350D01*
X117308719Y-41018874D01*
X117308716Y-41018869D01*
X117308716Y-41018867D01*
X117247529Y-40898782D01*
X117247528Y-40898780D01*
X117152220Y-40803472D01*
X117152217Y-40803470D01*
X117032132Y-40742283D01*
X117032127Y-40742281D01*
X117032126Y-40742281D01*
X116998913Y-40737020D01*
X116932490Y-40726500D01*
X116932488Y-40726500D01*
X116415512Y-40726500D01*
X116415510Y-40726500D01*
X116315874Y-40742281D01*
X116315867Y-40742283D01*
X116195782Y-40803470D01*
X116100470Y-40898782D01*
X116039283Y-41018867D01*
X116039281Y-41018874D01*
X116036015Y-41039500D01*
X116035977Y-41039737D01*
X116008200Y-41094253D01*
X115953683Y-41122031D01*
X115938196Y-41123250D01*
X112300695Y-41123250D01*
X112242504Y-41104343D01*
X112206540Y-41054843D01*
X112205075Y-41049896D01*
X112153992Y-40859253D01*
X112111844Y-40768867D01*
X112063373Y-40664919D01*
X112063368Y-40664911D01*
X112063368Y-40664910D01*
X111940373Y-40489255D01*
X111788745Y-40337627D01*
X111788741Y-40337624D01*
X111788740Y-40337623D01*
X111613092Y-40214632D01*
X111512732Y-40167834D01*
X111418747Y-40124008D01*
X111211619Y-40068508D01*
X111211618Y-40068507D01*
X111211611Y-40068506D01*
X110998003Y-40049819D01*
X110997997Y-40049819D01*
X110784388Y-40068506D01*
X110577249Y-40124009D01*
X110382919Y-40214626D01*
X110382912Y-40214630D01*
X110207259Y-40337623D01*
X110055623Y-40489259D01*
X109985885Y-40588857D01*
X109932632Y-40664910D01*
X109932632Y-40664911D01*
X109932626Y-40664919D01*
X109842009Y-40859249D01*
X109786506Y-41066388D01*
X109767819Y-41279996D01*
X109767819Y-41280003D01*
X102500500Y-41280003D01*
X102500500Y-38740000D01*
X106827975Y-38740000D01*
X106848042Y-38994990D01*
X106907754Y-39243706D01*
X107005635Y-39480013D01*
X107005641Y-39480025D01*
X107139278Y-39698099D01*
X107139287Y-39698112D01*
X107142532Y-39701911D01*
X107703883Y-39140559D01*
X107704740Y-39142626D01*
X107797762Y-39281844D01*
X107916156Y-39400238D01*
X108055374Y-39493260D01*
X108057438Y-39494114D01*
X107496087Y-40055466D01*
X107496087Y-40055467D01*
X107499896Y-40058719D01*
X107717974Y-40192358D01*
X107717986Y-40192364D01*
X107954293Y-40290245D01*
X107954292Y-40290245D01*
X108203009Y-40349957D01*
X108458000Y-40370024D01*
X108712990Y-40349957D01*
X108961706Y-40290245D01*
X109198013Y-40192364D01*
X109198025Y-40192358D01*
X109416097Y-40058723D01*
X109416106Y-40058716D01*
X109419912Y-40055466D01*
X108858560Y-39494115D01*
X108860626Y-39493260D01*
X108999844Y-39400238D01*
X109118238Y-39281844D01*
X109211260Y-39142626D01*
X109212115Y-39140560D01*
X109773466Y-39701911D01*
X109776716Y-39698106D01*
X109776723Y-39698097D01*
X109910358Y-39480025D01*
X109910364Y-39480013D01*
X110008245Y-39243706D01*
X110067957Y-38994990D01*
X110088024Y-38740000D01*
X111907975Y-38740000D01*
X111928042Y-38994990D01*
X111987754Y-39243706D01*
X112085635Y-39480013D01*
X112085641Y-39480025D01*
X112219278Y-39698099D01*
X112219287Y-39698112D01*
X112222532Y-39701911D01*
X112783883Y-39140559D01*
X112784740Y-39142626D01*
X112877762Y-39281844D01*
X112996156Y-39400238D01*
X113135374Y-39493260D01*
X113137438Y-39494114D01*
X112576087Y-40055466D01*
X112576087Y-40055467D01*
X112579896Y-40058719D01*
X112797974Y-40192358D01*
X112797986Y-40192364D01*
X113034293Y-40290245D01*
X113034292Y-40290245D01*
X113283009Y-40349957D01*
X113538000Y-40370024D01*
X113792990Y-40349957D01*
X114041706Y-40290245D01*
X114278013Y-40192364D01*
X114278025Y-40192358D01*
X114496097Y-40058723D01*
X114496106Y-40058716D01*
X114499911Y-40055466D01*
X114366767Y-39922322D01*
X119176001Y-39922322D01*
X119186142Y-40021597D01*
X119186145Y-40021609D01*
X119239454Y-40182487D01*
X119328426Y-40326730D01*
X119448270Y-40446574D01*
X119592512Y-40535545D01*
X119753396Y-40588856D01*
X119852676Y-40598999D01*
X119876000Y-40598998D01*
X120376000Y-40598998D01*
X120376001Y-40598999D01*
X120399322Y-40598999D01*
X120498597Y-40588857D01*
X120498609Y-40588854D01*
X120659487Y-40535545D01*
X120803729Y-40446574D01*
X120923571Y-40326732D01*
X121002205Y-40199248D01*
X121048847Y-40159647D01*
X121109857Y-40155024D01*
X121156467Y-40181215D01*
X121197780Y-40222528D01*
X121197782Y-40222529D01*
X121317867Y-40283716D01*
X121317869Y-40283716D01*
X121317874Y-40283719D01*
X121393541Y-40295703D01*
X121417510Y-40299500D01*
X121417512Y-40299500D01*
X121850166Y-40299500D01*
X121908357Y-40318407D01*
X121920170Y-40328496D01*
X122178033Y-40586359D01*
X122178035Y-40586362D01*
X122238638Y-40646965D01*
X122251180Y-40654206D01*
X122269717Y-40664909D01*
X122269720Y-40664910D01*
X122287612Y-40675240D01*
X122312859Y-40689817D01*
X122318851Y-40692299D01*
X122318225Y-40693808D01*
X122362846Y-40722779D01*
X122369021Y-40738862D01*
X122388874Y-40761500D01*
X124057126Y-40761500D01*
X124057126Y-40761499D01*
X124046021Y-40677157D01*
X123989344Y-40540325D01*
X123989344Y-40540324D01*
X123899184Y-40422825D01*
X123899177Y-40422818D01*
X123794947Y-40342839D01*
X123760292Y-40292414D01*
X123758118Y-40283614D01*
X123756111Y-40273526D01*
X123763300Y-40212765D01*
X123804831Y-40167834D01*
X123864841Y-40155895D01*
X123872524Y-40157112D01*
X123885270Y-40159647D01*
X123897099Y-40162000D01*
X124073900Y-40161999D01*
X124150617Y-40146740D01*
X124180498Y-40126773D01*
X124239386Y-40110165D01*
X124290502Y-40126774D01*
X124320379Y-40146738D01*
X124320380Y-40146738D01*
X124320383Y-40146740D01*
X124397099Y-40162000D01*
X124573900Y-40161999D01*
X124650617Y-40146740D01*
X124680498Y-40126773D01*
X124739386Y-40110165D01*
X124790502Y-40126774D01*
X124820379Y-40146738D01*
X124820380Y-40146738D01*
X124820383Y-40146740D01*
X124897099Y-40162000D01*
X125073900Y-40161999D01*
X125150617Y-40146740D01*
X125180498Y-40126773D01*
X125239386Y-40110165D01*
X125290502Y-40126774D01*
X125320379Y-40146738D01*
X125320380Y-40146738D01*
X125320383Y-40146740D01*
X125397099Y-40162000D01*
X125573900Y-40161999D01*
X125573903Y-40161998D01*
X125573907Y-40161998D01*
X125589270Y-40158941D01*
X125598474Y-40157111D01*
X125659236Y-40164301D01*
X125704166Y-40205833D01*
X125716104Y-40265843D01*
X125714888Y-40273522D01*
X125712881Y-40283612D01*
X125682984Y-40336996D01*
X125676051Y-40342840D01*
X125571822Y-40422818D01*
X125571815Y-40422825D01*
X125481655Y-40540324D01*
X125481655Y-40540325D01*
X125424978Y-40677157D01*
X125424977Y-40677157D01*
X125413873Y-40761499D01*
X125413874Y-40761500D01*
X127082126Y-40761500D01*
X127082126Y-40761499D01*
X127071021Y-40677157D01*
X127014344Y-40540325D01*
X127014344Y-40540324D01*
X126924184Y-40422825D01*
X126924177Y-40422818D01*
X126819947Y-40342839D01*
X126785292Y-40292414D01*
X126783117Y-40283610D01*
X126770740Y-40221383D01*
X126770739Y-40221381D01*
X126729489Y-40159647D01*
X126712612Y-40134388D01*
X126625617Y-40076260D01*
X126625613Y-40076259D01*
X126548911Y-40061001D01*
X126548901Y-40061000D01*
X126548900Y-40061000D01*
X125947102Y-40061000D01*
X125947093Y-40061001D01*
X125922521Y-40065889D01*
X125861760Y-40058696D01*
X125816831Y-40017163D01*
X125804895Y-39957153D01*
X125806112Y-39949475D01*
X125810999Y-39924908D01*
X125810999Y-39924906D01*
X125811000Y-39924901D01*
X125811000Y-39922322D01*
X135686001Y-39922322D01*
X135696142Y-40021597D01*
X135696145Y-40021609D01*
X135749454Y-40182487D01*
X135838426Y-40326730D01*
X135958270Y-40446574D01*
X136102512Y-40535545D01*
X136263396Y-40588856D01*
X136362676Y-40598999D01*
X136386000Y-40598998D01*
X136386000Y-39874001D01*
X136385999Y-39874000D01*
X135686002Y-39874000D01*
X135686001Y-39874001D01*
X135686001Y-39922322D01*
X125811000Y-39922322D01*
X125810999Y-39373999D01*
X135686000Y-39373999D01*
X135686001Y-39374000D01*
X136385999Y-39374000D01*
X136386000Y-39373999D01*
X136386000Y-38649000D01*
X136385999Y-38648999D01*
X136362689Y-38649000D01*
X136362684Y-38649001D01*
X136263401Y-38659142D01*
X136263390Y-38659145D01*
X136102512Y-38712454D01*
X135958270Y-38801425D01*
X135838425Y-38921270D01*
X135749454Y-39065512D01*
X135696143Y-39226396D01*
X135686000Y-39325676D01*
X135686000Y-39373999D01*
X125810999Y-39373999D01*
X125810999Y-39323100D01*
X125795740Y-39246383D01*
X125795737Y-39246379D01*
X125737613Y-39159390D01*
X125737612Y-39159388D01*
X125650617Y-39101260D01*
X125650613Y-39101259D01*
X125573910Y-39086001D01*
X125573902Y-39086000D01*
X125573901Y-39086000D01*
X125573900Y-39086000D01*
X125410000Y-39086000D01*
X125351809Y-39067093D01*
X125315845Y-39017593D01*
X125311000Y-38987000D01*
X125311000Y-38064648D01*
X125311000Y-38064647D01*
X125290621Y-37988590D01*
X125288818Y-37981861D01*
X125288818Y-37981860D01*
X125245968Y-37907642D01*
X125245967Y-37907641D01*
X125245966Y-37907640D01*
X125245965Y-37907638D01*
X124083495Y-36745168D01*
X124055718Y-36690651D01*
X124054499Y-36675164D01*
X124054499Y-36476835D01*
X124073406Y-36418644D01*
X124083495Y-36406831D01*
X126861831Y-33628496D01*
X126916348Y-33600719D01*
X126931835Y-33599500D01*
X212676165Y-33599500D01*
X212734356Y-33618407D01*
X212746169Y-33628496D01*
X213259504Y-34141830D01*
X213287281Y-34196347D01*
X213288500Y-34211834D01*
X213288500Y-43391147D01*
X213288500Y-43476853D01*
X213291889Y-43489500D01*
X213310683Y-43559643D01*
X213353531Y-43633857D01*
X213353535Y-43633862D01*
X213734533Y-44014861D01*
X213734534Y-44014861D01*
X213734535Y-44014862D01*
X213734534Y-44014862D01*
X213766312Y-44046639D01*
X213795138Y-44075465D01*
X213869362Y-44118318D01*
X213952147Y-44140500D01*
X214037853Y-44140500D01*
X214065546Y-44140500D01*
X214123737Y-44159407D01*
X214159701Y-44208907D01*
X214160267Y-44210709D01*
X214162768Y-44218954D01*
X214162769Y-44218956D01*
X214260316Y-44401452D01*
X214390453Y-44560025D01*
X214391590Y-44561410D01*
X214391595Y-44561414D01*
X214551547Y-44692683D01*
X214551548Y-44692683D01*
X214551550Y-44692685D01*
X214734046Y-44790232D01*
X214871997Y-44832078D01*
X214932065Y-44850300D01*
X214932070Y-44850301D01*
X215137997Y-44870583D01*
X215138000Y-44870583D01*
X215138003Y-44870583D01*
X215343929Y-44850301D01*
X215343934Y-44850300D01*
X215541954Y-44790232D01*
X215724450Y-44692685D01*
X215825697Y-44609594D01*
X215882671Y-44587295D01*
X215941874Y-44602743D01*
X215980690Y-44650040D01*
X215987500Y-44686123D01*
X215987500Y-45483876D01*
X215968593Y-45542067D01*
X215919093Y-45578031D01*
X215857907Y-45578031D01*
X215825695Y-45560404D01*
X215757803Y-45504687D01*
X215724452Y-45477316D01*
X215541954Y-45379768D01*
X215343934Y-45319699D01*
X215343929Y-45319698D01*
X215138003Y-45299417D01*
X215137997Y-45299417D01*
X214932070Y-45319698D01*
X214932065Y-45319699D01*
X214734045Y-45379768D01*
X214551547Y-45477316D01*
X214391595Y-45608585D01*
X214391585Y-45608595D01*
X214260316Y-45768547D01*
X214162768Y-45951045D01*
X214102699Y-46149065D01*
X214102698Y-46149070D01*
X214082417Y-46354996D01*
X214082417Y-46355003D01*
X214102698Y-46560929D01*
X214102699Y-46560934D01*
X214162768Y-46758954D01*
X214260316Y-46941452D01*
X214373713Y-47079627D01*
X214391590Y-47101410D01*
X214391595Y-47101414D01*
X214551547Y-47232683D01*
X214551548Y-47232683D01*
X214551550Y-47232685D01*
X214734046Y-47330232D01*
X214857553Y-47367697D01*
X214932065Y-47390300D01*
X214932070Y-47390301D01*
X215137997Y-47410583D01*
X215138000Y-47410583D01*
X215138003Y-47410583D01*
X215343929Y-47390301D01*
X215343934Y-47390300D01*
X215541954Y-47330232D01*
X215724450Y-47232685D01*
X215825697Y-47149594D01*
X215882671Y-47127295D01*
X215941874Y-47142743D01*
X215980690Y-47190040D01*
X215987500Y-47226123D01*
X215987500Y-47925165D01*
X215968593Y-47983356D01*
X215958504Y-47995169D01*
X215794169Y-48159504D01*
X215739652Y-48187281D01*
X215724165Y-48188500D01*
X213789835Y-48188500D01*
X213731644Y-48169593D01*
X213719831Y-48159504D01*
X212952496Y-47392169D01*
X212924719Y-47337652D01*
X212923500Y-47322165D01*
X212923500Y-35102840D01*
X212923501Y-35102827D01*
X212923501Y-35009149D01*
X212923501Y-35009147D01*
X212901318Y-34926361D01*
X212899737Y-34923622D01*
X212879893Y-34889251D01*
X212879889Y-34889247D01*
X212858465Y-34852138D01*
X212797862Y-34791535D01*
X212797859Y-34791533D01*
X212035862Y-34029535D01*
X212035859Y-34029533D01*
X212035857Y-34029531D01*
X211961642Y-33986683D01*
X211961644Y-33986683D01*
X211929521Y-33978076D01*
X211878853Y-33964500D01*
X156008853Y-33964500D01*
X155490853Y-33964500D01*
X142292853Y-33964500D01*
X142207147Y-33964500D01*
X142156478Y-33978076D01*
X142124356Y-33986683D01*
X142050142Y-34029531D01*
X142050141Y-34029532D01*
X140208167Y-35871504D01*
X140153650Y-35899281D01*
X140138163Y-35900500D01*
X139732479Y-35900500D01*
X139732476Y-35900501D01*
X139638700Y-35915352D01*
X139638695Y-35915354D01*
X139525659Y-35972949D01*
X139435949Y-36062659D01*
X139378354Y-36175695D01*
X139363500Y-36269477D01*
X139363500Y-36882520D01*
X139363501Y-36882523D01*
X139378352Y-36976299D01*
X139378354Y-36976304D01*
X139435950Y-37089342D01*
X139525658Y-37179050D01*
X139638696Y-37236646D01*
X139732481Y-37251500D01*
X140138164Y-37251499D01*
X140196355Y-37270406D01*
X140208168Y-37280495D01*
X141117504Y-38189831D01*
X141145281Y-38244348D01*
X141146500Y-38259835D01*
X141146500Y-38965500D01*
X141127593Y-39023691D01*
X141078093Y-39059655D01*
X141047501Y-39064500D01*
X140883602Y-39064500D01*
X140883595Y-39064501D01*
X140806884Y-39079759D01*
X140777000Y-39099727D01*
X140718111Y-39116334D01*
X140666999Y-39099726D01*
X140637119Y-39079761D01*
X140637117Y-39079760D01*
X140637114Y-39079759D01*
X140637113Y-39079759D01*
X140560410Y-39064501D01*
X140560402Y-39064500D01*
X140560401Y-39064500D01*
X140560400Y-39064500D01*
X140383602Y-39064500D01*
X140383595Y-39064501D01*
X140306883Y-39079759D01*
X140306881Y-39079760D01*
X140219890Y-39137886D01*
X140219886Y-39137890D01*
X140161762Y-39224879D01*
X140161759Y-39224886D01*
X140146501Y-39301588D01*
X140146500Y-39301599D01*
X140146500Y-39903397D01*
X140146501Y-39903406D01*
X140151389Y-39927978D01*
X140144197Y-39988739D01*
X140102663Y-40033668D01*
X140042653Y-40045604D01*
X140034978Y-40044388D01*
X140010406Y-40039500D01*
X140010401Y-40039500D01*
X139752354Y-40039500D01*
X139752353Y-40039500D01*
X139102835Y-40039500D01*
X139044644Y-40020593D01*
X139032831Y-40010504D01*
X138865496Y-39843169D01*
X138837719Y-39788652D01*
X138836500Y-39773165D01*
X138836500Y-39340510D01*
X138827208Y-39281844D01*
X138820719Y-39240874D01*
X138820716Y-39240869D01*
X138820716Y-39240867D01*
X138759529Y-39120782D01*
X138759528Y-39120780D01*
X138665494Y-39026746D01*
X138637719Y-38972232D01*
X138636500Y-38956745D01*
X138636500Y-37298741D01*
X138655407Y-37240550D01*
X138690551Y-37210533D01*
X138752342Y-37179050D01*
X138842050Y-37089342D01*
X138899646Y-36976304D01*
X138914500Y-36882519D01*
X138914499Y-36269482D01*
X138914498Y-36269478D01*
X138914498Y-36269476D01*
X138899647Y-36175700D01*
X138899646Y-36175698D01*
X138899646Y-36175696D01*
X138842050Y-36062658D01*
X138752342Y-35972950D01*
X138639304Y-35915354D01*
X138639305Y-35915354D01*
X138545522Y-35900500D01*
X138082479Y-35900500D01*
X138082476Y-35900501D01*
X137988700Y-35915352D01*
X137988695Y-35915354D01*
X137875659Y-35972949D01*
X137785949Y-36062659D01*
X137728354Y-36175695D01*
X137713500Y-36269478D01*
X137713500Y-36384274D01*
X137704554Y-36425399D01*
X137700834Y-36433544D01*
X137680353Y-36575997D01*
X137680353Y-36576002D01*
X137700834Y-36718455D01*
X137704553Y-36726598D01*
X137713500Y-36767724D01*
X137713500Y-36882520D01*
X137713501Y-36882521D01*
X137728353Y-36976302D01*
X137730654Y-36983381D01*
X137735500Y-37013975D01*
X137735500Y-38956745D01*
X137716593Y-39014936D01*
X137706503Y-39026749D01*
X137666469Y-39066782D01*
X137611952Y-39094559D01*
X137551520Y-39084987D01*
X137512206Y-39048751D01*
X137433573Y-38921269D01*
X137313729Y-38801425D01*
X137169487Y-38712454D01*
X137008603Y-38659143D01*
X136909323Y-38649000D01*
X136886001Y-38649000D01*
X136886000Y-38649001D01*
X136886000Y-40598998D01*
X136886001Y-40598999D01*
X136909322Y-40598999D01*
X137008597Y-40588857D01*
X137008609Y-40588854D01*
X137169487Y-40535545D01*
X137313729Y-40446574D01*
X137433571Y-40326732D01*
X137512205Y-40199248D01*
X137558847Y-40159647D01*
X137619857Y-40155024D01*
X137666467Y-40181215D01*
X137707780Y-40222528D01*
X137707782Y-40222529D01*
X137827867Y-40283716D01*
X137827869Y-40283716D01*
X137827874Y-40283719D01*
X137903541Y-40295703D01*
X137927510Y-40299500D01*
X137927512Y-40299500D01*
X138360165Y-40299500D01*
X138418356Y-40318407D01*
X138430168Y-40328496D01*
X138727137Y-40625464D01*
X138727142Y-40625468D01*
X138801357Y-40668316D01*
X138801358Y-40668316D01*
X138801361Y-40668318D01*
X138801363Y-40668318D01*
X138807353Y-40670800D01*
X138806487Y-40672890D01*
X138849414Y-40700761D01*
X138855996Y-40717904D01*
X138875374Y-40740000D01*
X140543626Y-40740000D01*
X140543626Y-40739999D01*
X140532521Y-40655657D01*
X140475844Y-40518825D01*
X140475844Y-40518824D01*
X140385684Y-40401325D01*
X140385677Y-40401318D01*
X140281447Y-40321339D01*
X140246792Y-40270914D01*
X140244618Y-40262114D01*
X140242611Y-40252026D01*
X140249800Y-40191265D01*
X140291331Y-40146334D01*
X140351341Y-40134395D01*
X140359024Y-40135612D01*
X140374503Y-40138690D01*
X140383599Y-40140500D01*
X140560400Y-40140499D01*
X140637117Y-40125240D01*
X140666998Y-40105273D01*
X140725886Y-40088665D01*
X140777002Y-40105274D01*
X140806879Y-40125238D01*
X140806880Y-40125238D01*
X140806883Y-40125240D01*
X140883599Y-40140500D01*
X141060400Y-40140499D01*
X141137117Y-40125240D01*
X141166998Y-40105273D01*
X141225886Y-40088665D01*
X141277002Y-40105274D01*
X141306879Y-40125238D01*
X141306880Y-40125238D01*
X141306883Y-40125240D01*
X141383599Y-40140500D01*
X141560400Y-40140499D01*
X141637117Y-40125240D01*
X141666998Y-40105273D01*
X141725886Y-40088665D01*
X141777002Y-40105274D01*
X141806879Y-40125238D01*
X141806880Y-40125238D01*
X141806883Y-40125240D01*
X141883599Y-40140500D01*
X142060400Y-40140499D01*
X142060403Y-40140498D01*
X142060407Y-40140498D01*
X142075770Y-40137441D01*
X142084974Y-40135611D01*
X142145736Y-40142801D01*
X142190666Y-40184333D01*
X142202604Y-40244343D01*
X142201388Y-40252022D01*
X142199381Y-40262112D01*
X142169484Y-40315496D01*
X142162551Y-40321340D01*
X142058322Y-40401318D01*
X142058315Y-40401325D01*
X141968155Y-40518824D01*
X141968155Y-40518825D01*
X141911478Y-40655657D01*
X141911477Y-40655657D01*
X141900373Y-40739999D01*
X141900374Y-40740000D01*
X143568626Y-40740000D01*
X143568626Y-40739999D01*
X143557521Y-40655657D01*
X143500844Y-40518825D01*
X143500844Y-40518824D01*
X143410684Y-40401325D01*
X143410677Y-40401318D01*
X143306447Y-40321339D01*
X143271792Y-40270914D01*
X143269617Y-40262110D01*
X143257240Y-40199883D01*
X143257239Y-40199881D01*
X143217560Y-40140498D01*
X143199112Y-40112888D01*
X143112117Y-40054760D01*
X143112113Y-40054759D01*
X143035411Y-40039501D01*
X143035401Y-40039500D01*
X143035400Y-40039500D01*
X142433602Y-40039500D01*
X142433593Y-40039501D01*
X142409021Y-40044389D01*
X142348260Y-40037196D01*
X142303331Y-39995663D01*
X142291395Y-39935653D01*
X142292612Y-39927975D01*
X142293737Y-39922322D01*
X151688001Y-39922322D01*
X151698142Y-40021597D01*
X151698145Y-40021609D01*
X151751454Y-40182487D01*
X151840426Y-40326730D01*
X151960270Y-40446574D01*
X152104512Y-40535545D01*
X152265396Y-40588856D01*
X152364676Y-40598999D01*
X152388000Y-40598998D01*
X152388000Y-39874001D01*
X152387999Y-39874000D01*
X151688002Y-39874000D01*
X151688001Y-39874001D01*
X151688001Y-39922322D01*
X142293737Y-39922322D01*
X142297499Y-39903408D01*
X142297499Y-39903406D01*
X142297500Y-39903401D01*
X142297499Y-39373999D01*
X151688000Y-39373999D01*
X151688001Y-39374000D01*
X152387999Y-39374000D01*
X152388000Y-39373999D01*
X152388000Y-38649000D01*
X152387999Y-38648999D01*
X152364689Y-38649000D01*
X152364684Y-38649001D01*
X152265401Y-38659142D01*
X152265390Y-38659145D01*
X152104512Y-38712454D01*
X151960270Y-38801425D01*
X151840425Y-38921270D01*
X151751454Y-39065512D01*
X151698143Y-39226396D01*
X151688000Y-39325676D01*
X151688000Y-39373999D01*
X142297499Y-39373999D01*
X142297499Y-39301600D01*
X142282240Y-39224883D01*
X142282237Y-39224879D01*
X142237534Y-39157976D01*
X142224112Y-39137888D01*
X142137117Y-39079760D01*
X142137113Y-39079759D01*
X142060410Y-39064501D01*
X142060402Y-39064500D01*
X142060401Y-39064500D01*
X142060400Y-39064500D01*
X141896500Y-39064500D01*
X141838309Y-39045593D01*
X141802345Y-38996093D01*
X141797500Y-38965500D01*
X141797500Y-38041148D01*
X141797500Y-38041147D01*
X141783418Y-37988590D01*
X141781749Y-37982361D01*
X141781749Y-37982360D01*
X141775318Y-37958361D01*
X141775316Y-37958357D01*
X141732468Y-37884142D01*
X141732467Y-37884141D01*
X141732466Y-37884140D01*
X141732465Y-37884138D01*
X140593495Y-36745168D01*
X140565718Y-36690651D01*
X140564499Y-36675164D01*
X140564499Y-36476835D01*
X140583406Y-36418644D01*
X140593495Y-36406831D01*
X142355831Y-34644496D01*
X142410348Y-34616719D01*
X142425835Y-34615500D01*
X155405147Y-34615500D01*
X155541500Y-34615500D01*
X155599691Y-34634407D01*
X155635655Y-34683907D01*
X155640500Y-34714500D01*
X155640500Y-35854786D01*
X155621593Y-35912977D01*
X155586446Y-35942995D01*
X155527660Y-35972948D01*
X155437949Y-36062659D01*
X155380354Y-36175695D01*
X155365500Y-36269477D01*
X155365500Y-36882520D01*
X155365501Y-36882523D01*
X155380352Y-36976299D01*
X155380354Y-36976304D01*
X155437950Y-37089342D01*
X155527658Y-37179050D01*
X155640696Y-37236646D01*
X155734481Y-37251500D01*
X156140164Y-37251499D01*
X156198355Y-37270406D01*
X156210168Y-37280495D01*
X157127504Y-38197830D01*
X157155281Y-38252347D01*
X157156500Y-38267834D01*
X157156500Y-38987000D01*
X157137593Y-39045191D01*
X157088093Y-39081155D01*
X157057501Y-39086000D01*
X156893602Y-39086000D01*
X156893595Y-39086001D01*
X156816884Y-39101259D01*
X156787000Y-39121227D01*
X156728111Y-39137834D01*
X156676999Y-39121226D01*
X156647119Y-39101261D01*
X156647117Y-39101260D01*
X156647114Y-39101259D01*
X156647113Y-39101259D01*
X156570410Y-39086001D01*
X156570402Y-39086000D01*
X156570401Y-39086000D01*
X156570400Y-39086000D01*
X156393602Y-39086000D01*
X156393595Y-39086001D01*
X156316883Y-39101259D01*
X156316881Y-39101260D01*
X156229890Y-39159386D01*
X156229886Y-39159390D01*
X156171762Y-39246379D01*
X156171759Y-39246386D01*
X156156501Y-39323088D01*
X156156500Y-39323099D01*
X156156500Y-39924897D01*
X156156501Y-39924906D01*
X156161389Y-39949478D01*
X156154197Y-40010239D01*
X156112663Y-40055168D01*
X156052653Y-40067104D01*
X156044978Y-40065888D01*
X156020406Y-40061000D01*
X156020401Y-40061000D01*
X155762354Y-40061000D01*
X155762353Y-40061000D01*
X155126333Y-40061000D01*
X155068142Y-40042093D01*
X155056329Y-40032003D01*
X154867496Y-39843169D01*
X154839719Y-39788653D01*
X154838500Y-39773166D01*
X154838500Y-39340510D01*
X154829208Y-39281844D01*
X154822719Y-39240874D01*
X154822716Y-39240869D01*
X154822716Y-39240867D01*
X154761529Y-39120782D01*
X154761528Y-39120780D01*
X154667494Y-39026746D01*
X154639719Y-38972232D01*
X154638500Y-38956745D01*
X154638500Y-37298741D01*
X154657407Y-37240550D01*
X154692551Y-37210533D01*
X154754342Y-37179050D01*
X154844050Y-37089342D01*
X154901646Y-36976304D01*
X154916500Y-36882519D01*
X154916499Y-36269482D01*
X154916498Y-36269478D01*
X154916498Y-36269476D01*
X154901647Y-36175700D01*
X154901646Y-36175698D01*
X154901646Y-36175696D01*
X154844050Y-36062658D01*
X154754342Y-35972950D01*
X154641304Y-35915354D01*
X154641305Y-35915354D01*
X154547522Y-35900500D01*
X154084479Y-35900500D01*
X154084476Y-35900501D01*
X153990700Y-35915352D01*
X153990695Y-35915354D01*
X153877659Y-35972949D01*
X153787949Y-36062659D01*
X153730354Y-36175695D01*
X153715500Y-36269478D01*
X153715500Y-36384274D01*
X153706554Y-36425399D01*
X153702834Y-36433544D01*
X153682353Y-36575997D01*
X153682353Y-36576002D01*
X153702834Y-36718455D01*
X153706553Y-36726598D01*
X153715500Y-36767724D01*
X153715500Y-36882520D01*
X153715501Y-36882521D01*
X153730353Y-36976302D01*
X153732654Y-36983381D01*
X153737500Y-37013975D01*
X153737500Y-38956745D01*
X153718593Y-39014936D01*
X153708503Y-39026749D01*
X153668469Y-39066782D01*
X153613952Y-39094559D01*
X153553520Y-39084987D01*
X153514206Y-39048751D01*
X153435573Y-38921269D01*
X153315729Y-38801425D01*
X153171487Y-38712454D01*
X153010603Y-38659143D01*
X152911323Y-38649000D01*
X152888001Y-38649000D01*
X152888000Y-38649001D01*
X152888000Y-40598998D01*
X152888001Y-40598999D01*
X152911322Y-40598999D01*
X153010597Y-40588857D01*
X153010609Y-40588854D01*
X153171487Y-40535545D01*
X153315729Y-40446574D01*
X153435571Y-40326732D01*
X153514205Y-40199248D01*
X153560847Y-40159647D01*
X153621857Y-40155024D01*
X153668467Y-40181215D01*
X153709780Y-40222528D01*
X153709782Y-40222529D01*
X153829867Y-40283716D01*
X153829869Y-40283716D01*
X153829874Y-40283719D01*
X153905541Y-40295703D01*
X153929510Y-40299500D01*
X153929512Y-40299500D01*
X154362166Y-40299500D01*
X154420357Y-40318407D01*
X154432170Y-40328496D01*
X154690033Y-40586359D01*
X154690035Y-40586362D01*
X154750638Y-40646965D01*
X154763180Y-40654206D01*
X154781717Y-40664909D01*
X154781722Y-40664911D01*
X154830482Y-40693064D01*
X154829223Y-40695243D01*
X154867526Y-40727943D01*
X154871896Y-40746131D01*
X154885374Y-40761500D01*
X156553626Y-40761500D01*
X156553626Y-40761499D01*
X156542521Y-40677157D01*
X156485844Y-40540325D01*
X156485844Y-40540324D01*
X156395684Y-40422825D01*
X156395677Y-40422818D01*
X156291447Y-40342839D01*
X156256792Y-40292414D01*
X156254618Y-40283614D01*
X156252611Y-40273526D01*
X156259800Y-40212765D01*
X156301331Y-40167834D01*
X156361341Y-40155895D01*
X156369024Y-40157112D01*
X156381770Y-40159647D01*
X156393599Y-40162000D01*
X156570400Y-40161999D01*
X156647117Y-40146740D01*
X156676998Y-40126773D01*
X156735886Y-40110165D01*
X156787002Y-40126774D01*
X156816879Y-40146738D01*
X156816880Y-40146738D01*
X156816883Y-40146740D01*
X156893599Y-40162000D01*
X157070400Y-40161999D01*
X157147117Y-40146740D01*
X157176998Y-40126773D01*
X157235886Y-40110165D01*
X157287002Y-40126774D01*
X157316879Y-40146738D01*
X157316880Y-40146738D01*
X157316883Y-40146740D01*
X157393599Y-40162000D01*
X157570400Y-40161999D01*
X157647117Y-40146740D01*
X157676998Y-40126773D01*
X157735886Y-40110165D01*
X157787002Y-40126774D01*
X157816879Y-40146738D01*
X157816880Y-40146738D01*
X157816883Y-40146740D01*
X157893599Y-40162000D01*
X158070400Y-40161999D01*
X158070403Y-40161998D01*
X158070407Y-40161998D01*
X158085770Y-40158941D01*
X158094974Y-40157111D01*
X158155736Y-40164301D01*
X158200666Y-40205833D01*
X158212604Y-40265843D01*
X158211388Y-40273522D01*
X158209381Y-40283612D01*
X158179484Y-40336996D01*
X158172551Y-40342840D01*
X158068322Y-40422818D01*
X158068315Y-40422825D01*
X157978155Y-40540324D01*
X157978155Y-40540325D01*
X157921478Y-40677157D01*
X157921477Y-40677157D01*
X157910373Y-40761499D01*
X157910374Y-40761500D01*
X159578626Y-40761500D01*
X159578626Y-40761499D01*
X159567521Y-40677157D01*
X159510844Y-40540325D01*
X159510844Y-40540324D01*
X159420684Y-40422825D01*
X159420677Y-40422818D01*
X159316447Y-40342839D01*
X159281792Y-40292414D01*
X159279617Y-40283610D01*
X159267240Y-40221383D01*
X159267239Y-40221381D01*
X159225989Y-40159647D01*
X159209112Y-40134388D01*
X159122117Y-40076260D01*
X159122113Y-40076259D01*
X159045411Y-40061001D01*
X159045401Y-40061000D01*
X159045400Y-40061000D01*
X158443602Y-40061000D01*
X158443593Y-40061001D01*
X158419021Y-40065889D01*
X158358260Y-40058696D01*
X158313331Y-40017163D01*
X158301395Y-39957153D01*
X158302612Y-39949475D01*
X158307499Y-39924908D01*
X158307499Y-39924906D01*
X158307500Y-39924901D01*
X158307500Y-39922322D01*
X167703001Y-39922322D01*
X167713142Y-40021597D01*
X167713145Y-40021609D01*
X167766454Y-40182487D01*
X167855426Y-40326730D01*
X167975270Y-40446574D01*
X168119512Y-40535545D01*
X168280396Y-40588856D01*
X168379676Y-40598999D01*
X168403000Y-40598998D01*
X168403000Y-39874001D01*
X168402999Y-39874000D01*
X167703002Y-39874000D01*
X167703001Y-39874001D01*
X167703001Y-39922322D01*
X158307500Y-39922322D01*
X158307499Y-39373999D01*
X167703000Y-39373999D01*
X167703001Y-39374000D01*
X168402999Y-39374000D01*
X168403000Y-39373999D01*
X168403000Y-38649000D01*
X168402999Y-38648999D01*
X168379689Y-38649000D01*
X168379684Y-38649001D01*
X168280401Y-38659142D01*
X168280390Y-38659145D01*
X168119512Y-38712454D01*
X167975270Y-38801425D01*
X167855425Y-38921270D01*
X167766454Y-39065512D01*
X167713143Y-39226396D01*
X167703000Y-39325676D01*
X167703000Y-39373999D01*
X158307499Y-39373999D01*
X158307499Y-39323100D01*
X158292240Y-39246383D01*
X158292237Y-39246379D01*
X158234113Y-39159390D01*
X158234112Y-39159388D01*
X158147117Y-39101260D01*
X158147113Y-39101259D01*
X158070410Y-39086001D01*
X158070402Y-39086000D01*
X158070401Y-39086000D01*
X158070400Y-39086000D01*
X157906500Y-39086000D01*
X157848309Y-39067093D01*
X157812345Y-39017593D01*
X157807500Y-38987000D01*
X157807500Y-38142840D01*
X157807501Y-38142827D01*
X157807501Y-38049146D01*
X157807500Y-38049144D01*
X157805357Y-38041148D01*
X157785318Y-37966361D01*
X157753066Y-37910500D01*
X157742465Y-37892138D01*
X157681862Y-37831535D01*
X157681859Y-37831533D01*
X157137961Y-37287635D01*
X156595495Y-36745168D01*
X156567718Y-36690651D01*
X156566499Y-36675164D01*
X156566499Y-36269478D01*
X156566498Y-36269476D01*
X156551647Y-36175700D01*
X156551646Y-36175698D01*
X156551646Y-36175696D01*
X156494050Y-36062658D01*
X156404342Y-35972950D01*
X156404339Y-35972948D01*
X156345554Y-35942995D01*
X156302290Y-35899730D01*
X156291500Y-35854786D01*
X156291500Y-34714500D01*
X156310407Y-34656309D01*
X156359907Y-34620345D01*
X156390500Y-34615500D01*
X211660165Y-34615500D01*
X211718356Y-34634407D01*
X211730169Y-34644496D01*
X212243504Y-35157830D01*
X212271281Y-35212347D01*
X212272500Y-35227834D01*
X212272500Y-47455147D01*
X212272500Y-47540853D01*
X212281962Y-47576165D01*
X212294683Y-47623643D01*
X212337531Y-47697857D01*
X212337533Y-47697859D01*
X212337535Y-47697862D01*
X213414138Y-48774465D01*
X213414140Y-48774466D01*
X213414142Y-48774468D01*
X213488357Y-48817316D01*
X213488355Y-48817316D01*
X213488359Y-48817317D01*
X213488361Y-48817318D01*
X213571147Y-48839500D01*
X213571149Y-48839500D01*
X215942851Y-48839500D01*
X215942853Y-48839500D01*
X216025639Y-48817318D01*
X216025641Y-48817316D01*
X216025643Y-48817316D01*
X216099857Y-48774468D01*
X216099857Y-48774467D01*
X216099862Y-48774465D01*
X216573465Y-48300862D01*
X216616318Y-48226639D01*
X216638500Y-48143853D01*
X216638500Y-48058147D01*
X216638500Y-47020964D01*
X216657407Y-46962773D01*
X216706907Y-46926809D01*
X216768093Y-46926809D01*
X216814027Y-46958158D01*
X216931590Y-47101410D01*
X216931595Y-47101414D01*
X217091547Y-47232683D01*
X217091548Y-47232683D01*
X217091550Y-47232685D01*
X217274046Y-47330232D01*
X217282236Y-47332716D01*
X217332431Y-47367697D01*
X217352481Y-47425504D01*
X217352500Y-47427453D01*
X217352500Y-47830165D01*
X217333593Y-47888356D01*
X217323504Y-47900169D01*
X216048169Y-49175504D01*
X215993652Y-49203281D01*
X215978165Y-49204500D01*
X213535834Y-49204500D01*
X213477643Y-49185593D01*
X213465830Y-49175504D01*
X211936496Y-47646169D01*
X211908719Y-47591652D01*
X211907500Y-47576165D01*
X211907500Y-36279147D01*
X211893932Y-36228511D01*
X211893932Y-36228509D01*
X211885320Y-36196366D01*
X211885319Y-36196364D01*
X211885318Y-36196363D01*
X211885318Y-36196361D01*
X211842465Y-36122138D01*
X210765862Y-35045535D01*
X210765859Y-35045533D01*
X210765857Y-35045531D01*
X210691642Y-35002683D01*
X210691644Y-35002683D01*
X210659521Y-34994076D01*
X210608853Y-34980500D01*
X187758853Y-34980500D01*
X173280853Y-34980500D01*
X173195147Y-34980500D01*
X173144478Y-34994076D01*
X173112356Y-35002683D01*
X173038142Y-35045531D01*
X173038137Y-35045535D01*
X172212166Y-35871504D01*
X172157650Y-35899281D01*
X172142163Y-35900500D01*
X171736479Y-35900500D01*
X171736476Y-35900501D01*
X171642700Y-35915352D01*
X171642695Y-35915354D01*
X171529659Y-35972949D01*
X171439949Y-36062659D01*
X171382354Y-36175695D01*
X171367500Y-36269477D01*
X171367500Y-36882520D01*
X171367501Y-36882523D01*
X171382352Y-36976299D01*
X171382354Y-36976304D01*
X171439950Y-37089342D01*
X171529658Y-37179050D01*
X171642696Y-37236646D01*
X171736481Y-37251500D01*
X172142164Y-37251499D01*
X172200355Y-37270406D01*
X172212168Y-37280495D01*
X173145504Y-38213831D01*
X173173281Y-38268348D01*
X173174500Y-38283835D01*
X173174500Y-38987000D01*
X173155593Y-39045191D01*
X173106093Y-39081155D01*
X173075501Y-39086000D01*
X172911602Y-39086000D01*
X172911595Y-39086001D01*
X172834884Y-39101259D01*
X172805000Y-39121227D01*
X172746111Y-39137834D01*
X172694999Y-39121226D01*
X172665119Y-39101261D01*
X172665117Y-39101260D01*
X172665114Y-39101259D01*
X172665113Y-39101259D01*
X172588410Y-39086001D01*
X172588402Y-39086000D01*
X172588401Y-39086000D01*
X172588400Y-39086000D01*
X172411602Y-39086000D01*
X172411595Y-39086001D01*
X172334883Y-39101259D01*
X172334881Y-39101260D01*
X172247890Y-39159386D01*
X172247886Y-39159390D01*
X172189762Y-39246379D01*
X172189759Y-39246386D01*
X172174501Y-39323088D01*
X172174500Y-39323099D01*
X172174500Y-39924897D01*
X172174501Y-39924906D01*
X172179389Y-39949478D01*
X172172197Y-40010239D01*
X172130663Y-40055168D01*
X172070653Y-40067104D01*
X172062978Y-40065888D01*
X172038406Y-40061000D01*
X172038401Y-40061000D01*
X171780354Y-40061000D01*
X171780353Y-40061000D01*
X171141333Y-40061000D01*
X171083142Y-40042093D01*
X171071329Y-40032003D01*
X170882496Y-39843169D01*
X170854719Y-39788653D01*
X170853500Y-39773166D01*
X170853500Y-39340510D01*
X170844208Y-39281844D01*
X170837719Y-39240874D01*
X170837716Y-39240869D01*
X170837716Y-39240867D01*
X170776529Y-39120782D01*
X170776528Y-39120780D01*
X170681220Y-39025472D01*
X170681217Y-39025470D01*
X170675710Y-39019963D01*
X170677428Y-39018244D01*
X170648348Y-38978217D01*
X170643504Y-38947187D01*
X170643705Y-38901769D01*
X170650835Y-37293034D01*
X170670000Y-37234930D01*
X170704886Y-37205267D01*
X170756342Y-37179050D01*
X170846050Y-37089342D01*
X170903646Y-36976304D01*
X170918500Y-36882519D01*
X170918499Y-36269482D01*
X170918498Y-36269478D01*
X170918498Y-36269476D01*
X170903647Y-36175700D01*
X170903646Y-36175698D01*
X170903646Y-36175696D01*
X170846050Y-36062658D01*
X170756342Y-35972950D01*
X170643304Y-35915354D01*
X170643305Y-35915354D01*
X170549522Y-35900500D01*
X170086479Y-35900500D01*
X170086476Y-35900501D01*
X169992700Y-35915352D01*
X169992695Y-35915354D01*
X169879659Y-35972949D01*
X169789949Y-36062659D01*
X169732354Y-36175695D01*
X169717500Y-36269478D01*
X169717500Y-36384274D01*
X169708554Y-36425399D01*
X169704834Y-36433544D01*
X169684353Y-36575997D01*
X169684353Y-36576002D01*
X169704834Y-36718455D01*
X169708553Y-36726598D01*
X169717500Y-36767724D01*
X169717500Y-36882520D01*
X169717501Y-36882523D01*
X169732352Y-36976299D01*
X169732354Y-36976305D01*
X169740172Y-36991649D01*
X169750961Y-37037032D01*
X169742406Y-38967276D01*
X169723241Y-39025382D01*
X169713411Y-39036841D01*
X169683470Y-39066782D01*
X169628953Y-39094559D01*
X169568521Y-39084988D01*
X169529206Y-39048751D01*
X169450573Y-38921269D01*
X169330729Y-38801425D01*
X169186487Y-38712454D01*
X169025603Y-38659143D01*
X168926323Y-38649000D01*
X168903001Y-38649000D01*
X168903000Y-38649001D01*
X168903000Y-40598998D01*
X168903001Y-40598999D01*
X168926322Y-40598999D01*
X169025597Y-40588857D01*
X169025609Y-40588854D01*
X169186487Y-40535545D01*
X169330729Y-40446574D01*
X169450571Y-40326732D01*
X169529205Y-40199248D01*
X169575847Y-40159647D01*
X169636857Y-40155024D01*
X169683467Y-40181215D01*
X169724780Y-40222528D01*
X169724782Y-40222529D01*
X169844867Y-40283716D01*
X169844869Y-40283716D01*
X169844874Y-40283719D01*
X169920541Y-40295703D01*
X169944510Y-40299500D01*
X169944512Y-40299500D01*
X170377166Y-40299500D01*
X170435357Y-40318407D01*
X170447170Y-40328496D01*
X170705033Y-40586359D01*
X170705035Y-40586362D01*
X170765638Y-40646965D01*
X170778180Y-40654206D01*
X170796717Y-40664909D01*
X170796722Y-40664911D01*
X170845482Y-40693064D01*
X170844708Y-40694404D01*
X170885373Y-40729124D01*
X170889293Y-40745444D01*
X170903374Y-40761500D01*
X172571626Y-40761500D01*
X172571626Y-40761499D01*
X172560521Y-40677157D01*
X172503844Y-40540325D01*
X172503844Y-40540324D01*
X172413684Y-40422825D01*
X172413677Y-40422818D01*
X172309447Y-40342839D01*
X172274792Y-40292414D01*
X172272618Y-40283614D01*
X172270611Y-40273526D01*
X172277800Y-40212765D01*
X172319331Y-40167834D01*
X172379341Y-40155895D01*
X172387024Y-40157112D01*
X172399770Y-40159647D01*
X172411599Y-40162000D01*
X172588400Y-40161999D01*
X172665117Y-40146740D01*
X172694998Y-40126773D01*
X172753886Y-40110165D01*
X172805002Y-40126774D01*
X172834879Y-40146738D01*
X172834880Y-40146738D01*
X172834883Y-40146740D01*
X172911599Y-40162000D01*
X173088400Y-40161999D01*
X173165117Y-40146740D01*
X173194998Y-40126773D01*
X173253886Y-40110165D01*
X173305002Y-40126774D01*
X173334879Y-40146738D01*
X173334880Y-40146738D01*
X173334883Y-40146740D01*
X173411599Y-40162000D01*
X173588400Y-40161999D01*
X173665117Y-40146740D01*
X173694998Y-40126773D01*
X173753886Y-40110165D01*
X173805002Y-40126774D01*
X173834879Y-40146738D01*
X173834880Y-40146738D01*
X173834883Y-40146740D01*
X173911599Y-40162000D01*
X174088400Y-40161999D01*
X174088403Y-40161998D01*
X174088407Y-40161998D01*
X174103770Y-40158941D01*
X174112974Y-40157111D01*
X174173736Y-40164301D01*
X174218666Y-40205833D01*
X174230604Y-40265843D01*
X174229388Y-40273522D01*
X174227381Y-40283612D01*
X174197484Y-40336996D01*
X174190551Y-40342840D01*
X174086322Y-40422818D01*
X174086315Y-40422825D01*
X173996155Y-40540324D01*
X173996155Y-40540325D01*
X173939478Y-40677157D01*
X173939477Y-40677157D01*
X173928373Y-40761499D01*
X173928374Y-40761500D01*
X175596626Y-40761500D01*
X175596626Y-40761499D01*
X175585521Y-40677157D01*
X175528844Y-40540325D01*
X175528844Y-40540324D01*
X175438684Y-40422825D01*
X175438677Y-40422818D01*
X175334447Y-40342839D01*
X175299792Y-40292414D01*
X175297617Y-40283610D01*
X175285240Y-40221383D01*
X175285239Y-40221381D01*
X175243989Y-40159647D01*
X175227112Y-40134388D01*
X175140117Y-40076260D01*
X175140113Y-40076259D01*
X175063411Y-40061001D01*
X175063401Y-40061000D01*
X175063400Y-40061000D01*
X174461602Y-40061000D01*
X174461593Y-40061001D01*
X174437021Y-40065889D01*
X174376260Y-40058696D01*
X174331331Y-40017163D01*
X174319395Y-39957153D01*
X174320612Y-39949475D01*
X174325499Y-39924908D01*
X174325499Y-39924906D01*
X174325500Y-39924901D01*
X174325500Y-39922322D01*
X183705001Y-39922322D01*
X183715142Y-40021597D01*
X183715145Y-40021609D01*
X183768454Y-40182487D01*
X183857426Y-40326730D01*
X183977270Y-40446574D01*
X184121512Y-40535545D01*
X184282396Y-40588856D01*
X184381676Y-40598999D01*
X184405000Y-40598998D01*
X184405000Y-39874001D01*
X184404999Y-39874000D01*
X183705002Y-39874000D01*
X183705001Y-39874001D01*
X183705001Y-39922322D01*
X174325500Y-39922322D01*
X174325499Y-39373999D01*
X183705000Y-39373999D01*
X183705001Y-39374000D01*
X184404999Y-39374000D01*
X184405000Y-39373999D01*
X184405000Y-38649000D01*
X184404999Y-38648999D01*
X184381689Y-38649000D01*
X184381684Y-38649001D01*
X184282401Y-38659142D01*
X184282390Y-38659145D01*
X184121512Y-38712454D01*
X183977270Y-38801425D01*
X183857425Y-38921270D01*
X183768454Y-39065512D01*
X183715143Y-39226396D01*
X183705000Y-39325676D01*
X183705000Y-39373999D01*
X174325499Y-39373999D01*
X174325499Y-39323100D01*
X174310240Y-39246383D01*
X174310237Y-39246379D01*
X174252113Y-39159390D01*
X174252112Y-39159388D01*
X174165117Y-39101260D01*
X174165113Y-39101259D01*
X174088410Y-39086001D01*
X174088402Y-39086000D01*
X174088401Y-39086000D01*
X174088400Y-39086000D01*
X173924500Y-39086000D01*
X173866309Y-39067093D01*
X173830345Y-39017593D01*
X173825500Y-38987000D01*
X173825500Y-38065148D01*
X173825500Y-38065147D01*
X173804987Y-37988590D01*
X173803318Y-37982361D01*
X173803318Y-37982360D01*
X173760468Y-37908142D01*
X173760467Y-37908141D01*
X173760466Y-37908140D01*
X173760465Y-37908138D01*
X172597495Y-36745168D01*
X172569718Y-36690651D01*
X172568499Y-36675164D01*
X172568499Y-36476835D01*
X172587406Y-36418644D01*
X172597495Y-36406831D01*
X173343831Y-35660496D01*
X173398348Y-35632719D01*
X173413835Y-35631500D01*
X187417500Y-35631500D01*
X187475691Y-35650407D01*
X187511655Y-35699907D01*
X187516500Y-35730500D01*
X187516500Y-35854786D01*
X187497593Y-35912977D01*
X187462446Y-35942995D01*
X187403660Y-35972948D01*
X187313949Y-36062659D01*
X187256354Y-36175695D01*
X187241500Y-36269477D01*
X187241500Y-36882520D01*
X187241501Y-36882523D01*
X187256352Y-36976299D01*
X187256354Y-36976304D01*
X187313950Y-37089342D01*
X187403658Y-37179050D01*
X187516696Y-37236646D01*
X187610481Y-37251500D01*
X188016164Y-37251499D01*
X188074355Y-37270406D01*
X188086168Y-37280495D01*
X189147504Y-38341830D01*
X189175281Y-38396347D01*
X189176500Y-38411834D01*
X189176500Y-38987000D01*
X189157593Y-39045191D01*
X189108093Y-39081155D01*
X189077501Y-39086000D01*
X188913602Y-39086000D01*
X188913595Y-39086001D01*
X188836884Y-39101259D01*
X188807000Y-39121227D01*
X188748111Y-39137834D01*
X188696999Y-39121226D01*
X188667119Y-39101261D01*
X188667117Y-39101260D01*
X188667114Y-39101259D01*
X188667113Y-39101259D01*
X188590410Y-39086001D01*
X188590402Y-39086000D01*
X188590401Y-39086000D01*
X188590400Y-39086000D01*
X188413602Y-39086000D01*
X188413595Y-39086001D01*
X188336883Y-39101259D01*
X188336881Y-39101260D01*
X188249890Y-39159386D01*
X188249886Y-39159390D01*
X188191762Y-39246379D01*
X188191759Y-39246386D01*
X188176501Y-39323088D01*
X188176500Y-39323099D01*
X188176500Y-39924897D01*
X188176501Y-39924906D01*
X188181389Y-39949478D01*
X188174197Y-40010239D01*
X188132663Y-40055168D01*
X188072653Y-40067104D01*
X188064978Y-40065888D01*
X188040406Y-40061000D01*
X188040401Y-40061000D01*
X187782354Y-40061000D01*
X187782353Y-40061000D01*
X187143333Y-40061000D01*
X187085142Y-40042093D01*
X187073329Y-40032003D01*
X186884496Y-39843169D01*
X186856719Y-39788653D01*
X186855500Y-39773166D01*
X186855500Y-39340510D01*
X186846208Y-39281844D01*
X186839719Y-39240874D01*
X186839716Y-39240869D01*
X186839716Y-39240867D01*
X186778529Y-39120782D01*
X186778528Y-39120780D01*
X186684494Y-39026746D01*
X186656719Y-38972232D01*
X186655500Y-38956745D01*
X186655500Y-37194899D01*
X186674407Y-37136708D01*
X186684490Y-37124901D01*
X186720050Y-37089342D01*
X186777646Y-36976304D01*
X186792500Y-36882519D01*
X186792499Y-36269482D01*
X186792498Y-36269478D01*
X186792498Y-36269476D01*
X186777647Y-36175700D01*
X186777646Y-36175698D01*
X186777646Y-36175696D01*
X186720050Y-36062658D01*
X186630342Y-35972950D01*
X186517304Y-35915354D01*
X186517305Y-35915354D01*
X186423522Y-35900500D01*
X185960479Y-35900500D01*
X185960476Y-35900501D01*
X185866700Y-35915352D01*
X185866695Y-35915354D01*
X185753659Y-35972949D01*
X185663949Y-36062659D01*
X185606354Y-36175695D01*
X185591500Y-36269477D01*
X185591500Y-36882520D01*
X185591501Y-36882523D01*
X185606352Y-36976299D01*
X185606354Y-36976304D01*
X185663950Y-37089342D01*
X185725505Y-37150897D01*
X185753281Y-37205412D01*
X185754500Y-37220899D01*
X185754500Y-38956745D01*
X185735593Y-39014936D01*
X185725503Y-39026749D01*
X185685469Y-39066782D01*
X185630952Y-39094559D01*
X185570520Y-39084987D01*
X185531206Y-39048751D01*
X185452573Y-38921269D01*
X185332729Y-38801425D01*
X185188487Y-38712454D01*
X185027603Y-38659143D01*
X184928323Y-38649000D01*
X184905001Y-38649000D01*
X184905000Y-38649001D01*
X184905000Y-40598998D01*
X184905001Y-40598999D01*
X184928322Y-40598999D01*
X185027597Y-40588857D01*
X185027609Y-40588854D01*
X185188487Y-40535545D01*
X185332729Y-40446574D01*
X185452571Y-40326732D01*
X185531205Y-40199248D01*
X185577847Y-40159647D01*
X185638857Y-40155024D01*
X185685467Y-40181215D01*
X185726780Y-40222528D01*
X185726782Y-40222529D01*
X185846867Y-40283716D01*
X185846869Y-40283716D01*
X185846874Y-40283719D01*
X185922541Y-40295703D01*
X185946510Y-40299500D01*
X185946512Y-40299500D01*
X186379166Y-40299500D01*
X186437357Y-40318407D01*
X186449170Y-40328496D01*
X186707033Y-40586359D01*
X186707035Y-40586362D01*
X186767638Y-40646965D01*
X186780180Y-40654206D01*
X186798717Y-40664909D01*
X186798722Y-40664911D01*
X186847482Y-40693064D01*
X186846708Y-40694404D01*
X186887373Y-40729124D01*
X186891293Y-40745444D01*
X186905374Y-40761500D01*
X188573626Y-40761500D01*
X188573626Y-40761499D01*
X188562521Y-40677157D01*
X188505844Y-40540325D01*
X188505844Y-40540324D01*
X188415684Y-40422825D01*
X188415677Y-40422818D01*
X188311447Y-40342839D01*
X188276792Y-40292414D01*
X188274618Y-40283614D01*
X188272611Y-40273526D01*
X188279800Y-40212765D01*
X188321331Y-40167834D01*
X188381341Y-40155895D01*
X188389024Y-40157112D01*
X188401770Y-40159647D01*
X188413599Y-40162000D01*
X188590400Y-40161999D01*
X188667117Y-40146740D01*
X188696998Y-40126773D01*
X188755886Y-40110165D01*
X188807002Y-40126774D01*
X188836879Y-40146738D01*
X188836880Y-40146738D01*
X188836883Y-40146740D01*
X188913599Y-40162000D01*
X189090400Y-40161999D01*
X189167117Y-40146740D01*
X189196998Y-40126773D01*
X189255886Y-40110165D01*
X189307002Y-40126774D01*
X189336879Y-40146738D01*
X189336880Y-40146738D01*
X189336883Y-40146740D01*
X189413599Y-40162000D01*
X189590400Y-40161999D01*
X189667117Y-40146740D01*
X189696998Y-40126773D01*
X189755886Y-40110165D01*
X189807002Y-40126774D01*
X189836879Y-40146738D01*
X189836880Y-40146738D01*
X189836883Y-40146740D01*
X189913599Y-40162000D01*
X190090400Y-40161999D01*
X190090403Y-40161998D01*
X190090407Y-40161998D01*
X190105770Y-40158941D01*
X190114974Y-40157111D01*
X190175736Y-40164301D01*
X190220666Y-40205833D01*
X190232604Y-40265843D01*
X190231388Y-40273522D01*
X190229381Y-40283612D01*
X190199484Y-40336996D01*
X190192551Y-40342840D01*
X190088322Y-40422818D01*
X190088315Y-40422825D01*
X189998155Y-40540324D01*
X189998155Y-40540325D01*
X189941478Y-40677157D01*
X189941477Y-40677157D01*
X189930373Y-40761499D01*
X189930374Y-40761500D01*
X191598626Y-40761500D01*
X191598626Y-40761499D01*
X191587521Y-40677157D01*
X191530844Y-40540325D01*
X191530844Y-40540324D01*
X191440684Y-40422825D01*
X191440677Y-40422818D01*
X191336447Y-40342839D01*
X191301792Y-40292414D01*
X191299617Y-40283610D01*
X191287240Y-40221383D01*
X191287239Y-40221381D01*
X191245989Y-40159647D01*
X191229112Y-40134388D01*
X191142117Y-40076260D01*
X191142113Y-40076259D01*
X191065411Y-40061001D01*
X191065401Y-40061000D01*
X191065400Y-40061000D01*
X190463602Y-40061000D01*
X190463593Y-40061001D01*
X190439021Y-40065889D01*
X190378260Y-40058696D01*
X190333331Y-40017163D01*
X190321395Y-39957153D01*
X190322612Y-39949475D01*
X190327499Y-39924908D01*
X190327499Y-39924906D01*
X190327500Y-39924901D01*
X190327499Y-39323100D01*
X190312240Y-39246383D01*
X190312237Y-39246379D01*
X190254113Y-39159390D01*
X190254112Y-39159388D01*
X190167117Y-39101260D01*
X190167113Y-39101259D01*
X190090410Y-39086001D01*
X190090402Y-39086000D01*
X190090401Y-39086000D01*
X190090400Y-39086000D01*
X189926500Y-39086000D01*
X189868309Y-39067093D01*
X189832345Y-39017593D01*
X189827500Y-38987000D01*
X189827500Y-38740000D01*
X200553975Y-38740000D01*
X200574042Y-38994990D01*
X200633754Y-39243706D01*
X200731635Y-39480013D01*
X200731641Y-39480025D01*
X200865278Y-39698099D01*
X200865287Y-39698112D01*
X200868532Y-39701911D01*
X201429883Y-39140559D01*
X201430740Y-39142626D01*
X201523762Y-39281844D01*
X201642156Y-39400238D01*
X201781374Y-39493260D01*
X201783438Y-39494114D01*
X201222087Y-40055466D01*
X201222087Y-40055467D01*
X201225896Y-40058719D01*
X201443974Y-40192358D01*
X201443986Y-40192364D01*
X201680293Y-40290245D01*
X201680292Y-40290245D01*
X201929009Y-40349957D01*
X202184000Y-40370024D01*
X202438990Y-40349957D01*
X202687706Y-40290245D01*
X202924013Y-40192364D01*
X202924025Y-40192358D01*
X203142097Y-40058723D01*
X203142106Y-40058716D01*
X203145911Y-40055466D01*
X202584560Y-39494115D01*
X202586626Y-39493260D01*
X202725844Y-39400238D01*
X202844238Y-39281844D01*
X202937260Y-39142626D01*
X202938115Y-39140560D01*
X203499466Y-39701911D01*
X203502716Y-39698106D01*
X203502723Y-39698097D01*
X203636358Y-39480025D01*
X203636364Y-39480013D01*
X203734245Y-39243706D01*
X203793957Y-38994990D01*
X203814024Y-38740000D01*
X205633975Y-38740000D01*
X205654042Y-38994990D01*
X205713754Y-39243706D01*
X205811635Y-39480013D01*
X205811641Y-39480025D01*
X205945278Y-39698099D01*
X205945287Y-39698112D01*
X205948532Y-39701911D01*
X206509883Y-39140559D01*
X206510740Y-39142626D01*
X206603762Y-39281844D01*
X206722156Y-39400238D01*
X206861374Y-39493260D01*
X206863438Y-39494114D01*
X206302087Y-40055466D01*
X206302087Y-40055467D01*
X206305896Y-40058719D01*
X206523974Y-40192358D01*
X206523986Y-40192364D01*
X206760293Y-40290245D01*
X206760292Y-40290245D01*
X207009009Y-40349957D01*
X207264000Y-40370024D01*
X207518990Y-40349957D01*
X207767706Y-40290245D01*
X208004013Y-40192364D01*
X208004025Y-40192358D01*
X208222097Y-40058723D01*
X208222106Y-40058716D01*
X208225911Y-40055466D01*
X207664560Y-39494115D01*
X207666626Y-39493260D01*
X207805844Y-39400238D01*
X207924238Y-39281844D01*
X208017260Y-39142626D01*
X208018115Y-39140560D01*
X208579466Y-39701911D01*
X208582716Y-39698106D01*
X208582723Y-39698097D01*
X208716358Y-39480025D01*
X208716364Y-39480013D01*
X208814245Y-39243706D01*
X208873957Y-38994990D01*
X208894024Y-38740000D01*
X208873957Y-38485009D01*
X208814245Y-38236293D01*
X208716364Y-37999986D01*
X208716358Y-37999974D01*
X208582719Y-37781896D01*
X208579466Y-37778087D01*
X208018114Y-38339438D01*
X208017260Y-38337374D01*
X207924238Y-38198156D01*
X207805844Y-38079762D01*
X207666626Y-37986740D01*
X207664559Y-37985883D01*
X208225911Y-37424532D01*
X208225911Y-37424531D01*
X208222112Y-37421287D01*
X208222099Y-37421278D01*
X208004025Y-37287641D01*
X208004013Y-37287635D01*
X207767706Y-37189754D01*
X207767707Y-37189754D01*
X207518990Y-37130042D01*
X207264000Y-37109975D01*
X207009009Y-37130042D01*
X206760293Y-37189754D01*
X206523986Y-37287635D01*
X206523974Y-37287641D01*
X206305899Y-37421278D01*
X206305892Y-37421283D01*
X206302086Y-37424531D01*
X206863439Y-37985884D01*
X206861374Y-37986740D01*
X206722156Y-38079762D01*
X206603762Y-38198156D01*
X206510740Y-38337374D01*
X206509884Y-38339439D01*
X205948531Y-37778086D01*
X205945283Y-37781892D01*
X205945278Y-37781899D01*
X205811641Y-37999974D01*
X205811635Y-37999986D01*
X205713754Y-38236293D01*
X205654042Y-38485009D01*
X205633975Y-38740000D01*
X203814024Y-38740000D01*
X203793957Y-38485009D01*
X203734245Y-38236293D01*
X203636364Y-37999986D01*
X203636358Y-37999974D01*
X203502719Y-37781896D01*
X203499466Y-37778087D01*
X202938114Y-38339438D01*
X202937260Y-38337374D01*
X202844238Y-38198156D01*
X202725844Y-38079762D01*
X202586626Y-37986740D01*
X202584559Y-37985883D01*
X203145911Y-37424532D01*
X203145911Y-37424531D01*
X203142112Y-37421287D01*
X203142099Y-37421278D01*
X202924025Y-37287641D01*
X202924013Y-37287635D01*
X202687706Y-37189754D01*
X202687707Y-37189754D01*
X202438990Y-37130042D01*
X202184000Y-37109975D01*
X201929009Y-37130042D01*
X201680293Y-37189754D01*
X201443986Y-37287635D01*
X201443974Y-37287641D01*
X201225899Y-37421278D01*
X201225892Y-37421283D01*
X201222086Y-37424531D01*
X201783439Y-37985884D01*
X201781374Y-37986740D01*
X201642156Y-38079762D01*
X201523762Y-38198156D01*
X201430740Y-38337374D01*
X201429884Y-38339439D01*
X200868531Y-37778086D01*
X200865283Y-37781892D01*
X200865278Y-37781899D01*
X200731641Y-37999974D01*
X200731635Y-37999986D01*
X200633754Y-38236293D01*
X200574042Y-38485009D01*
X200553975Y-38740000D01*
X189827500Y-38740000D01*
X189827500Y-38286840D01*
X189827501Y-38286827D01*
X189827501Y-38193147D01*
X189827500Y-38193145D01*
X189805319Y-38110365D01*
X189805318Y-38110364D01*
X189805318Y-38110362D01*
X189762465Y-38036138D01*
X189701862Y-37975535D01*
X189701859Y-37975533D01*
X189128647Y-37402321D01*
X188471495Y-36745168D01*
X188443718Y-36690651D01*
X188442499Y-36675164D01*
X188442499Y-36269478D01*
X188442498Y-36269476D01*
X188427647Y-36175700D01*
X188427646Y-36175698D01*
X188427646Y-36175696D01*
X188370050Y-36062658D01*
X188280342Y-35972950D01*
X188280339Y-35972948D01*
X188221554Y-35942995D01*
X188178290Y-35899730D01*
X188167500Y-35854786D01*
X188167500Y-35730500D01*
X188186407Y-35672309D01*
X188235907Y-35636345D01*
X188266500Y-35631500D01*
X210390165Y-35631500D01*
X210448356Y-35650407D01*
X210460169Y-35660496D01*
X211227504Y-36427831D01*
X211255281Y-36482348D01*
X211256500Y-36497835D01*
X211256500Y-47709147D01*
X211256500Y-47794853D01*
X211265962Y-47830165D01*
X211278683Y-47877643D01*
X211321531Y-47951857D01*
X211321533Y-47951859D01*
X211321535Y-47951862D01*
X213099533Y-49729859D01*
X213099535Y-49729862D01*
X213160138Y-49790465D01*
X213197247Y-49811889D01*
X213197249Y-49811891D01*
X213228276Y-49829805D01*
X213234361Y-49833318D01*
X213317147Y-49855501D01*
X213317149Y-49855501D01*
X213408916Y-49855501D01*
X213408932Y-49855500D01*
X216196851Y-49855500D01*
X216196853Y-49855500D01*
X216279639Y-49833318D01*
X216279641Y-49833316D01*
X216279643Y-49833316D01*
X216353857Y-49790468D01*
X216353857Y-49790467D01*
X216353862Y-49790465D01*
X217938465Y-48205862D01*
X217948489Y-48188500D01*
X217981318Y-48131638D01*
X218003500Y-48048853D01*
X218003500Y-47427453D01*
X218022407Y-47369262D01*
X218071907Y-47333298D01*
X218073633Y-47332755D01*
X218081954Y-47330232D01*
X218264450Y-47232685D01*
X218424410Y-47101410D01*
X218555685Y-46941450D01*
X218653232Y-46758954D01*
X218713300Y-46560934D01*
X218713301Y-46560929D01*
X218733583Y-46355003D01*
X218733583Y-46354996D01*
X218713301Y-46149070D01*
X218713300Y-46149065D01*
X218660350Y-45974512D01*
X218653232Y-45951046D01*
X218555685Y-45768550D01*
X218507983Y-45710425D01*
X218424414Y-45608595D01*
X218424410Y-45608590D01*
X218405071Y-45592719D01*
X218264452Y-45477316D01*
X218081954Y-45379768D01*
X217883934Y-45319699D01*
X217883929Y-45319698D01*
X217678003Y-45299417D01*
X217677997Y-45299417D01*
X217472070Y-45319698D01*
X217472065Y-45319699D01*
X217274045Y-45379768D01*
X217091547Y-45477316D01*
X216931595Y-45608585D01*
X216931585Y-45608595D01*
X216814028Y-45751840D01*
X216762497Y-45784827D01*
X216701417Y-45781225D01*
X216654121Y-45742410D01*
X216638500Y-45689035D01*
X216638500Y-44480964D01*
X216657407Y-44422773D01*
X216706907Y-44386809D01*
X216768093Y-44386809D01*
X216814027Y-44418158D01*
X216864600Y-44479782D01*
X216930443Y-44560013D01*
X216931590Y-44561410D01*
X216931595Y-44561414D01*
X217091547Y-44692683D01*
X217091548Y-44692683D01*
X217091550Y-44692685D01*
X217274046Y-44790232D01*
X217411997Y-44832078D01*
X217472065Y-44850300D01*
X217472070Y-44850301D01*
X217677997Y-44870583D01*
X217678000Y-44870583D01*
X217678003Y-44870583D01*
X217883929Y-44850301D01*
X217883934Y-44850300D01*
X218081954Y-44790232D01*
X218264450Y-44692685D01*
X218424410Y-44561410D01*
X218555685Y-44401450D01*
X218653232Y-44218954D01*
X218713300Y-44020934D01*
X218713301Y-44020929D01*
X218733583Y-43815003D01*
X218733583Y-43814996D01*
X218713301Y-43609070D01*
X218713300Y-43609065D01*
X218673193Y-43476851D01*
X218653232Y-43411046D01*
X218555685Y-43228550D01*
X218555076Y-43227808D01*
X218433762Y-43079986D01*
X218424410Y-43068590D01*
X218343351Y-43002067D01*
X218264452Y-42937316D01*
X218081954Y-42839768D01*
X217883934Y-42779699D01*
X217883929Y-42779698D01*
X217678003Y-42759417D01*
X217677997Y-42759417D01*
X217472070Y-42779698D01*
X217472065Y-42779699D01*
X217274045Y-42839768D01*
X217091547Y-42937316D01*
X216931595Y-43068585D01*
X216931585Y-43068595D01*
X216814028Y-43211840D01*
X216762497Y-43244827D01*
X216701417Y-43241225D01*
X216654121Y-43202410D01*
X216638500Y-43149035D01*
X216638500Y-41940964D01*
X216657407Y-41882773D01*
X216706907Y-41846809D01*
X216768093Y-41846809D01*
X216814027Y-41878158D01*
X216853655Y-41926445D01*
X216914453Y-42000529D01*
X216931590Y-42021410D01*
X216931595Y-42021414D01*
X217091547Y-42152683D01*
X217091548Y-42152683D01*
X217091550Y-42152685D01*
X217274046Y-42250232D01*
X217411997Y-42292078D01*
X217472065Y-42310300D01*
X217472070Y-42310301D01*
X217677997Y-42330583D01*
X217678000Y-42330583D01*
X217678003Y-42330583D01*
X217883929Y-42310301D01*
X217883934Y-42310300D01*
X217983811Y-42280003D01*
X221695034Y-42280003D01*
X221714857Y-42506597D01*
X221773733Y-42726323D01*
X221869866Y-42932483D01*
X221869866Y-42932484D01*
X221920973Y-43005471D01*
X222600000Y-42326444D01*
X222600000Y-42332661D01*
X222627259Y-42434394D01*
X222679920Y-42525606D01*
X222754394Y-42600080D01*
X222845606Y-42652741D01*
X222947339Y-42680000D01*
X222953552Y-42680000D01*
X222274526Y-43359024D01*
X222347518Y-43410134D01*
X222553676Y-43506266D01*
X222773402Y-43565142D01*
X222999997Y-43584966D01*
X223000003Y-43584966D01*
X223226597Y-43565142D01*
X223446323Y-43506266D01*
X223652483Y-43410133D01*
X223652486Y-43410132D01*
X223725471Y-43359025D01*
X223046446Y-42680000D01*
X223052661Y-42680000D01*
X223154394Y-42652741D01*
X223245606Y-42600080D01*
X223320080Y-42525606D01*
X223372741Y-42434394D01*
X223400000Y-42332661D01*
X223400000Y-42326446D01*
X224079025Y-43005471D01*
X224130132Y-42932486D01*
X224130133Y-42932483D01*
X224226266Y-42726323D01*
X224285142Y-42506597D01*
X224304966Y-42280003D01*
X224304966Y-42279996D01*
X224285142Y-42053402D01*
X224226266Y-41833676D01*
X224130134Y-41627518D01*
X224079024Y-41554526D01*
X223400000Y-42233551D01*
X223400000Y-42227339D01*
X223372741Y-42125606D01*
X223320080Y-42034394D01*
X223245606Y-41959920D01*
X223154394Y-41907259D01*
X223052661Y-41880000D01*
X223046444Y-41880000D01*
X223725471Y-41200973D01*
X223652484Y-41149866D01*
X223446323Y-41053733D01*
X223226597Y-40994857D01*
X223035312Y-40978123D01*
X223002238Y-40964084D01*
X222964688Y-40978123D01*
X222773402Y-40994857D01*
X222553676Y-41053733D01*
X222347518Y-41149865D01*
X222274527Y-41200973D01*
X222953554Y-41880000D01*
X222947339Y-41880000D01*
X222845606Y-41907259D01*
X222754394Y-41959920D01*
X222679920Y-42034394D01*
X222627259Y-42125606D01*
X222600000Y-42227339D01*
X222600000Y-42233554D01*
X221920973Y-41554527D01*
X221869865Y-41627518D01*
X221773733Y-41833676D01*
X221714857Y-42053402D01*
X221695034Y-42279996D01*
X221695034Y-42280003D01*
X217983811Y-42280003D01*
X218081954Y-42250232D01*
X218264450Y-42152685D01*
X218424410Y-42021410D01*
X218555685Y-41861450D01*
X218653232Y-41678954D01*
X218713300Y-41480934D01*
X218713301Y-41480929D01*
X218733583Y-41275003D01*
X218733583Y-41274996D01*
X218713301Y-41069070D01*
X218713300Y-41069065D01*
X218688237Y-40986443D01*
X218653232Y-40871046D01*
X218555685Y-40688550D01*
X218542833Y-40672890D01*
X218482806Y-40599746D01*
X221999500Y-40599746D01*
X221999501Y-40599758D01*
X222011132Y-40658227D01*
X222011134Y-40658233D01*
X222033897Y-40692299D01*
X222055448Y-40724552D01*
X222121769Y-40768867D01*
X222166231Y-40777711D01*
X222180241Y-40780498D01*
X222180246Y-40780498D01*
X222180252Y-40780500D01*
X222180253Y-40780500D01*
X222956060Y-40780500D01*
X222996528Y-40793648D01*
X223043940Y-40780500D01*
X223819747Y-40780500D01*
X223819748Y-40780500D01*
X223878231Y-40768867D01*
X223944552Y-40724552D01*
X223988867Y-40658231D01*
X224000500Y-40599748D01*
X224000500Y-38960252D01*
X223999802Y-38956745D01*
X223992746Y-38921270D01*
X223988867Y-38901769D01*
X223944552Y-38835448D01*
X223944548Y-38835445D01*
X223878233Y-38791134D01*
X223878231Y-38791133D01*
X223878228Y-38791132D01*
X223878227Y-38791132D01*
X223819758Y-38779501D01*
X223819748Y-38779500D01*
X222180252Y-38779500D01*
X222180251Y-38779500D01*
X222180241Y-38779501D01*
X222121772Y-38791132D01*
X222121766Y-38791134D01*
X222055451Y-38835445D01*
X222055445Y-38835451D01*
X222011134Y-38901766D01*
X222011132Y-38901772D01*
X221999501Y-38960241D01*
X221999500Y-38960253D01*
X221999500Y-40599746D01*
X218482806Y-40599746D01*
X218424414Y-40528595D01*
X218424410Y-40528590D01*
X218365695Y-40480404D01*
X218264452Y-40397316D01*
X218081954Y-40299768D01*
X217883934Y-40239699D01*
X217883929Y-40239698D01*
X217678003Y-40219417D01*
X217677997Y-40219417D01*
X217472070Y-40239698D01*
X217472065Y-40239699D01*
X217274045Y-40299768D01*
X217091547Y-40397316D01*
X216931595Y-40528585D01*
X216931585Y-40528595D01*
X216814028Y-40671840D01*
X216762497Y-40704827D01*
X216701417Y-40701225D01*
X216654121Y-40662410D01*
X216638500Y-40609035D01*
X216638500Y-39867148D01*
X216616653Y-39785613D01*
X216616646Y-39785586D01*
X216616319Y-39784366D01*
X216616318Y-39784361D01*
X216573465Y-39710138D01*
X216356587Y-39493260D01*
X216126502Y-39263174D01*
X216098725Y-39208658D01*
X216108296Y-39148226D01*
X216109154Y-39146582D01*
X216113232Y-39138954D01*
X216173300Y-38940934D01*
X216173301Y-38940929D01*
X216193583Y-38735003D01*
X216622417Y-38735003D01*
X216642698Y-38940929D01*
X216642699Y-38940934D01*
X216702768Y-39138954D01*
X216800316Y-39321452D01*
X216930453Y-39480025D01*
X216931590Y-39481410D01*
X216931595Y-39481414D01*
X217091547Y-39612683D01*
X217091548Y-39612683D01*
X217091550Y-39612685D01*
X217274046Y-39710232D01*
X217411997Y-39752078D01*
X217472065Y-39770300D01*
X217472070Y-39770301D01*
X217677997Y-39790583D01*
X217678000Y-39790583D01*
X217678003Y-39790583D01*
X217883929Y-39770301D01*
X217883934Y-39770300D01*
X218081954Y-39710232D01*
X218264450Y-39612685D01*
X218424410Y-39481410D01*
X218555685Y-39321450D01*
X218653232Y-39138954D01*
X218713300Y-38940934D01*
X218713301Y-38940929D01*
X218733583Y-38735003D01*
X218733583Y-38734996D01*
X218713301Y-38529070D01*
X218713300Y-38529065D01*
X218674045Y-38399659D01*
X218653232Y-38331046D01*
X218555685Y-38148550D01*
X218550988Y-38142827D01*
X218433762Y-37999986D01*
X218424410Y-37988590D01*
X218416211Y-37981861D01*
X218264452Y-37857316D01*
X218081954Y-37759768D01*
X217883934Y-37699699D01*
X217883929Y-37699698D01*
X217678003Y-37679417D01*
X217677997Y-37679417D01*
X217472070Y-37699698D01*
X217472065Y-37699699D01*
X217274045Y-37759768D01*
X217091547Y-37857316D01*
X216931595Y-37988585D01*
X216931585Y-37988595D01*
X216800316Y-38148547D01*
X216702768Y-38331045D01*
X216642699Y-38529065D01*
X216642698Y-38529070D01*
X216622417Y-38734996D01*
X216622417Y-38735003D01*
X216193583Y-38735003D01*
X216193583Y-38734996D01*
X216173301Y-38529070D01*
X216173300Y-38529065D01*
X216134045Y-38399659D01*
X216113232Y-38331046D01*
X216015685Y-38148550D01*
X216010988Y-38142827D01*
X215893762Y-37999986D01*
X215884410Y-37988590D01*
X215876211Y-37981861D01*
X215724452Y-37857316D01*
X215541954Y-37759768D01*
X215343934Y-37699699D01*
X215343929Y-37699698D01*
X215138003Y-37679417D01*
X215137997Y-37679417D01*
X214932070Y-37699698D01*
X214932065Y-37699699D01*
X214734045Y-37759768D01*
X214551547Y-37857316D01*
X214391595Y-37988585D01*
X214391585Y-37988595D01*
X214260316Y-38148547D01*
X214162768Y-38331045D01*
X214133237Y-38428397D01*
X214098252Y-38478594D01*
X214040444Y-38498640D01*
X213981893Y-38480879D01*
X213944964Y-38432094D01*
X213939500Y-38399659D01*
X213939500Y-37210681D01*
X213958407Y-37152490D01*
X214007907Y-37116526D01*
X214069093Y-37116526D01*
X214118593Y-37152490D01*
X214120793Y-37155648D01*
X214143448Y-37189552D01*
X214143451Y-37189554D01*
X214200355Y-37227577D01*
X214209769Y-37233867D01*
X214243367Y-37240550D01*
X214268241Y-37245498D01*
X214268246Y-37245498D01*
X214268252Y-37245500D01*
X214268253Y-37245500D01*
X216007747Y-37245500D01*
X216007748Y-37245500D01*
X216066231Y-37233867D01*
X216132552Y-37189552D01*
X216176867Y-37123231D01*
X216188500Y-37064748D01*
X216188500Y-36195003D01*
X216622417Y-36195003D01*
X216642698Y-36400929D01*
X216642699Y-36400934D01*
X216702768Y-36598954D01*
X216800316Y-36781452D01*
X216883261Y-36882521D01*
X216931590Y-36941410D01*
X216931595Y-36941414D01*
X217091547Y-37072683D01*
X217091548Y-37072683D01*
X217091550Y-37072685D01*
X217274046Y-37170232D01*
X217406896Y-37210531D01*
X217472065Y-37230300D01*
X217472070Y-37230301D01*
X217677997Y-37250583D01*
X217678000Y-37250583D01*
X217678003Y-37250583D01*
X217883929Y-37230301D01*
X217883934Y-37230300D01*
X218081954Y-37170232D01*
X218264450Y-37072685D01*
X218424410Y-36941410D01*
X218555685Y-36781450D01*
X218653232Y-36598954D01*
X218713300Y-36400934D01*
X218713301Y-36400929D01*
X218733583Y-36195003D01*
X218733583Y-36194996D01*
X218713301Y-35989070D01*
X218713300Y-35989065D01*
X218686434Y-35900500D01*
X218653232Y-35791046D01*
X218555685Y-35608550D01*
X218424410Y-35448590D01*
X218274123Y-35325253D01*
X218264452Y-35317316D01*
X218081954Y-35219768D01*
X217883934Y-35159699D01*
X217883929Y-35159698D01*
X217678003Y-35139417D01*
X217677997Y-35139417D01*
X217472070Y-35159698D01*
X217472065Y-35159699D01*
X217274045Y-35219768D01*
X217091547Y-35317316D01*
X216931595Y-35448585D01*
X216931585Y-35448595D01*
X216800316Y-35608547D01*
X216702768Y-35791045D01*
X216642699Y-35989065D01*
X216642698Y-35989070D01*
X216622417Y-36194996D01*
X216622417Y-36195003D01*
X216188500Y-36195003D01*
X216188500Y-35325252D01*
X216186921Y-35317316D01*
X216185711Y-35311231D01*
X216176867Y-35266769D01*
X216132552Y-35200448D01*
X216106745Y-35183204D01*
X216066233Y-35156134D01*
X216066231Y-35156133D01*
X216066228Y-35156132D01*
X216066227Y-35156132D01*
X216007758Y-35144501D01*
X216007748Y-35144500D01*
X214268252Y-35144500D01*
X214268251Y-35144500D01*
X214268241Y-35144501D01*
X214209772Y-35156132D01*
X214209766Y-35156134D01*
X214143451Y-35200445D01*
X214143445Y-35200451D01*
X214120815Y-35234320D01*
X214072765Y-35272199D01*
X214011627Y-35274601D01*
X213960753Y-35240608D01*
X213939576Y-35183204D01*
X213939500Y-35179318D01*
X213939500Y-34086840D01*
X213939501Y-34086827D01*
X213939501Y-33993146D01*
X213939500Y-33993144D01*
X213937768Y-33986682D01*
X213917318Y-33910361D01*
X213880332Y-33846300D01*
X213874465Y-33836138D01*
X213813862Y-33775535D01*
X213813859Y-33775533D01*
X213051862Y-33013535D01*
X213051859Y-33013533D01*
X213051857Y-33013531D01*
X212977642Y-32970683D01*
X212977644Y-32970683D01*
X212945521Y-32962076D01*
X212894853Y-32948500D01*
X126798853Y-32948500D01*
X126713147Y-32948500D01*
X126662478Y-32962076D01*
X126630356Y-32970683D01*
X126556142Y-33013531D01*
X126556141Y-33013532D01*
X123698167Y-35871504D01*
X123643650Y-35899281D01*
X123628163Y-35900500D01*
X123222479Y-35900500D01*
X123222476Y-35900501D01*
X123128700Y-35915352D01*
X123128695Y-35915354D01*
X123015659Y-35972949D01*
X122925949Y-36062659D01*
X122868354Y-36175695D01*
X122853500Y-36269477D01*
X122853500Y-36882520D01*
X122853501Y-36882523D01*
X122868352Y-36976299D01*
X122868354Y-36976304D01*
X122925950Y-37089342D01*
X123015658Y-37179050D01*
X123128696Y-37236646D01*
X123222481Y-37251500D01*
X123628164Y-37251499D01*
X123686355Y-37270406D01*
X123698168Y-37280495D01*
X124631004Y-38213331D01*
X124658781Y-38267848D01*
X124660000Y-38283335D01*
X124660000Y-38987000D01*
X124641093Y-39045191D01*
X124591593Y-39081155D01*
X124561001Y-39086000D01*
X124397102Y-39086000D01*
X124397095Y-39086001D01*
X124320384Y-39101259D01*
X124290500Y-39121227D01*
X124231611Y-39137834D01*
X124180499Y-39121226D01*
X124150619Y-39101261D01*
X124150617Y-39101260D01*
X124150614Y-39101259D01*
X124150613Y-39101259D01*
X124073910Y-39086001D01*
X124073902Y-39086000D01*
X124073901Y-39086000D01*
X124073900Y-39086000D01*
X123897102Y-39086000D01*
X123897095Y-39086001D01*
X123820383Y-39101259D01*
X123820381Y-39101260D01*
X123733390Y-39159386D01*
X123733386Y-39159390D01*
X123675262Y-39246379D01*
X123675259Y-39246386D01*
X123660001Y-39323088D01*
X123660000Y-39323099D01*
X123660000Y-39924897D01*
X123660001Y-39924906D01*
X123664889Y-39949478D01*
X123657697Y-40010239D01*
X123616163Y-40055168D01*
X123556153Y-40067104D01*
X123548478Y-40065888D01*
X123523906Y-40061000D01*
X123523901Y-40061000D01*
X123265854Y-40061000D01*
X123265853Y-40061000D01*
X122614333Y-40061000D01*
X122556142Y-40042093D01*
X122544329Y-40032003D01*
X122355496Y-39843169D01*
X122327719Y-39788653D01*
X122326500Y-39773166D01*
X122326500Y-39340510D01*
X122317208Y-39281844D01*
X122310719Y-39240874D01*
X122310716Y-39240869D01*
X122310716Y-39240867D01*
X122249529Y-39120782D01*
X122249528Y-39120780D01*
X122155494Y-39026746D01*
X122127719Y-38972232D01*
X122126500Y-38956745D01*
X122126500Y-37298741D01*
X122145407Y-37240550D01*
X122180551Y-37210533D01*
X122242342Y-37179050D01*
X122332050Y-37089342D01*
X122389646Y-36976304D01*
X122404500Y-36882519D01*
X122404499Y-36269482D01*
X122404498Y-36269478D01*
X122404498Y-36269476D01*
X122389647Y-36175700D01*
X122389646Y-36175698D01*
X122389646Y-36175696D01*
X122332050Y-36062658D01*
X122242342Y-35972950D01*
X122129304Y-35915354D01*
X122129305Y-35915354D01*
X122035522Y-35900500D01*
X121572479Y-35900500D01*
X121572476Y-35900501D01*
X121478700Y-35915352D01*
X121478695Y-35915354D01*
X121365659Y-35972949D01*
X121275949Y-36062659D01*
X121218354Y-36175695D01*
X121203500Y-36269478D01*
X121203500Y-36384274D01*
X121194554Y-36425399D01*
X121190834Y-36433544D01*
X121170353Y-36575997D01*
X121170353Y-36576002D01*
X121190834Y-36718455D01*
X121194553Y-36726598D01*
X121203500Y-36767724D01*
X121203500Y-36882520D01*
X121203501Y-36882521D01*
X121218353Y-36976302D01*
X121220654Y-36983381D01*
X121225500Y-37013975D01*
X121225500Y-38956745D01*
X121206593Y-39014936D01*
X121196503Y-39026749D01*
X121156469Y-39066782D01*
X121101952Y-39094559D01*
X121041520Y-39084987D01*
X121002206Y-39048751D01*
X120923573Y-38921269D01*
X120803729Y-38801425D01*
X120659487Y-38712454D01*
X120498603Y-38659143D01*
X120399323Y-38649000D01*
X120376001Y-38649000D01*
X120376000Y-38649001D01*
X120376000Y-40598998D01*
X119876000Y-40598998D01*
X119876000Y-39874001D01*
X119875999Y-39874000D01*
X119176002Y-39874000D01*
X119176001Y-39874001D01*
X119176001Y-39922322D01*
X114366767Y-39922322D01*
X113938560Y-39494115D01*
X113940626Y-39493260D01*
X114079844Y-39400238D01*
X114198238Y-39281844D01*
X114291260Y-39142626D01*
X114292115Y-39140560D01*
X114853466Y-39701911D01*
X114856716Y-39698106D01*
X114856723Y-39698097D01*
X114990358Y-39480025D01*
X114990364Y-39480013D01*
X115034276Y-39373999D01*
X119176000Y-39373999D01*
X119176001Y-39374000D01*
X119875999Y-39374000D01*
X119876000Y-39373999D01*
X119876000Y-38649000D01*
X119875999Y-38648999D01*
X119852689Y-38649000D01*
X119852684Y-38649001D01*
X119753401Y-38659142D01*
X119753390Y-38659145D01*
X119592512Y-38712454D01*
X119448270Y-38801425D01*
X119328425Y-38921270D01*
X119239454Y-39065512D01*
X119186143Y-39226396D01*
X119176000Y-39325676D01*
X119176000Y-39373999D01*
X115034276Y-39373999D01*
X115088245Y-39243706D01*
X115147957Y-38994990D01*
X115168024Y-38740000D01*
X115147957Y-38485009D01*
X115088245Y-38236293D01*
X114990364Y-37999986D01*
X114990358Y-37999974D01*
X114856719Y-37781896D01*
X114853466Y-37778087D01*
X114292114Y-38339438D01*
X114291260Y-38337374D01*
X114198238Y-38198156D01*
X114079844Y-38079762D01*
X113940626Y-37986740D01*
X113938559Y-37985883D01*
X114499911Y-37424532D01*
X114499911Y-37424531D01*
X114496112Y-37421287D01*
X114496099Y-37421278D01*
X114278025Y-37287641D01*
X114278013Y-37287635D01*
X114041706Y-37189754D01*
X114041707Y-37189754D01*
X113792990Y-37130042D01*
X113538000Y-37109975D01*
X113283009Y-37130042D01*
X113034293Y-37189754D01*
X112797986Y-37287635D01*
X112797974Y-37287641D01*
X112579899Y-37421278D01*
X112579892Y-37421283D01*
X112576086Y-37424531D01*
X113137439Y-37985884D01*
X113135374Y-37986740D01*
X112996156Y-38079762D01*
X112877762Y-38198156D01*
X112784740Y-38337374D01*
X112783884Y-38339439D01*
X112222531Y-37778086D01*
X112219283Y-37781892D01*
X112219278Y-37781899D01*
X112085641Y-37999974D01*
X112085635Y-37999986D01*
X111987754Y-38236293D01*
X111928042Y-38485009D01*
X111907975Y-38740000D01*
X110088024Y-38740000D01*
X110067957Y-38485009D01*
X110008245Y-38236293D01*
X109910364Y-37999986D01*
X109910358Y-37999974D01*
X109776719Y-37781896D01*
X109773466Y-37778087D01*
X109212114Y-38339438D01*
X109211260Y-38337374D01*
X109118238Y-38198156D01*
X108999844Y-38079762D01*
X108860626Y-37986740D01*
X108858559Y-37985883D01*
X109419911Y-37424532D01*
X109419911Y-37424531D01*
X109416112Y-37421287D01*
X109416099Y-37421278D01*
X109198025Y-37287641D01*
X109198013Y-37287635D01*
X108961706Y-37189754D01*
X108961707Y-37189754D01*
X108712990Y-37130042D01*
X108458000Y-37109975D01*
X108203009Y-37130042D01*
X107954293Y-37189754D01*
X107717986Y-37287635D01*
X107717974Y-37287641D01*
X107499899Y-37421278D01*
X107499892Y-37421283D01*
X107496086Y-37424531D01*
X108057439Y-37985884D01*
X108055374Y-37986740D01*
X107916156Y-38079762D01*
X107797762Y-38198156D01*
X107704740Y-38337374D01*
X107703884Y-38339439D01*
X107142531Y-37778086D01*
X107139283Y-37781892D01*
X107139278Y-37781899D01*
X107005641Y-37999974D01*
X107005635Y-37999986D01*
X106907754Y-38236293D01*
X106848042Y-38485009D01*
X106827975Y-38740000D01*
X102500500Y-38740000D01*
X102500500Y-36190119D01*
X102519407Y-36131928D01*
X102568907Y-36095964D01*
X102630093Y-36095964D01*
X102678907Y-36130998D01*
X102878988Y-36399753D01*
X102971524Y-36497835D01*
X103118843Y-36653984D01*
X103161924Y-36690133D01*
X103386589Y-36878649D01*
X103583953Y-37008458D01*
X103669552Y-37064758D01*
X103678607Y-37070713D01*
X103990949Y-37227577D01*
X104319389Y-37347119D01*
X104319392Y-37347119D01*
X104319393Y-37347120D01*
X104659475Y-37427721D01*
X104659480Y-37427721D01*
X104659486Y-37427723D01*
X105006641Y-37468300D01*
X105006644Y-37468300D01*
X105356156Y-37468300D01*
X105356159Y-37468300D01*
X105703314Y-37427723D01*
X105703320Y-37427721D01*
X105703324Y-37427721D01*
X105930045Y-37373987D01*
X106043411Y-37347119D01*
X106371851Y-37227577D01*
X106684193Y-37070713D01*
X106976211Y-36878649D01*
X107243958Y-36653983D01*
X107483812Y-36399753D01*
X107692530Y-36119396D01*
X107867289Y-35816704D01*
X108005726Y-35495771D01*
X108105969Y-35160936D01*
X108166662Y-34816727D01*
X108186985Y-34467800D01*
X108166662Y-34118873D01*
X108105969Y-33774664D01*
X108005726Y-33439829D01*
X107867289Y-33118896D01*
X107692530Y-32816204D01*
X107483812Y-32535847D01*
X107243958Y-32281617D01*
X107213687Y-32256217D01*
X107157794Y-32209316D01*
X106976211Y-32056951D01*
X106832168Y-31962212D01*
X106793942Y-31914440D01*
X106791095Y-31853321D01*
X106824717Y-31802201D01*
X106881965Y-31780607D01*
X106886571Y-31780500D01*
X222081010Y-31780500D01*
X222139201Y-31799407D01*
G37*
%TD.AperFunction*%
%TD*%
M02*
