%TF.GenerationSoftware,KiCad,Pcbnew,8.0.1*%
%TF.CreationDate,2024-05-04T10:24:18+02:00*%
%TF.ProjectId,Marconi_2955_Step_Attenuator,4d617263-6f6e-4695-9f32-3935355f5374,rev?*%
%TF.SameCoordinates,Original*%
%TF.FileFunction,Paste,Top*%
%TF.FilePolarity,Positive*%
%FSLAX46Y46*%
G04 Gerber Fmt 4.6, Leading zero omitted, Abs format (unit mm)*
G04 Created by KiCad (PCBNEW 8.0.1) date 2024-05-04 10:24:18*
%MOMM*%
%LPD*%
G01*
G04 APERTURE LIST*
G04 Aperture macros list*
%AMRoundRect*
0 Rectangle with rounded corners*
0 $1 Rounding radius*
0 $2 $3 $4 $5 $6 $7 $8 $9 X,Y pos of 4 corners*
0 Add a 4 corners polygon primitive as box body*
4,1,4,$2,$3,$4,$5,$6,$7,$8,$9,$2,$3,0*
0 Add four circle primitives for the rounded corners*
1,1,$1+$1,$2,$3*
1,1,$1+$1,$4,$5*
1,1,$1+$1,$6,$7*
1,1,$1+$1,$8,$9*
0 Add four rect primitives between the rounded corners*
20,1,$1+$1,$2,$3,$4,$5,0*
20,1,$1+$1,$4,$5,$6,$7,0*
20,1,$1+$1,$6,$7,$8,$9,0*
20,1,$1+$1,$8,$9,$2,$3,0*%
G04 Aperture macros list end*
%ADD10RoundRect,0.200000X-0.200000X-0.275000X0.200000X-0.275000X0.200000X0.275000X-0.200000X0.275000X0*%
%ADD11RoundRect,0.225000X0.225000X0.250000X-0.225000X0.250000X-0.225000X-0.250000X0.225000X-0.250000X0*%
%ADD12RoundRect,0.225000X-0.250000X0.225000X-0.250000X-0.225000X0.250000X-0.225000X0.250000X0.225000X0*%
%ADD13RoundRect,0.192500X-0.192500X-0.192500X0.192500X-0.192500X0.192500X0.192500X-0.192500X0.192500X0*%
%ADD14RoundRect,0.062500X-0.275000X-0.062500X0.275000X-0.062500X0.275000X0.062500X-0.275000X0.062500X0*%
%ADD15RoundRect,0.062500X-0.062500X-0.275000X0.062500X-0.275000X0.062500X0.275000X-0.062500X0.275000X0*%
%ADD16RoundRect,0.225000X-0.225000X-0.250000X0.225000X-0.250000X0.225000X0.250000X-0.225000X0.250000X0*%
G04 APERTURE END LIST*
D10*
%TO.C,R3*%
X154316000Y-36576000D03*
X155966000Y-36576000D03*
%TD*%
%TO.C,R5*%
X186192000Y-36576000D03*
X187842000Y-36576000D03*
%TD*%
D11*
%TO.C,C23*%
X138186000Y-39624000D03*
X136636000Y-39624000D03*
%TD*%
D12*
%TO.C,C12*%
X142758000Y-44945000D03*
X142758000Y-46495000D03*
%TD*%
%TO.C,C15*%
X159014000Y-44945000D03*
X159014000Y-46495000D03*
%TD*%
D13*
%TO.C,U2*%
X140747000Y-40640000D03*
X140747000Y-41590000D03*
X141697000Y-40640000D03*
X141697000Y-41590000D03*
D14*
X139709500Y-40365000D03*
X139709500Y-40865000D03*
X139709500Y-41365000D03*
X139709500Y-41865000D03*
D15*
X140472000Y-42627500D03*
X140972000Y-42627500D03*
X141472000Y-42627500D03*
X141972000Y-42627500D03*
D14*
X142734500Y-41865000D03*
X142734500Y-41365000D03*
X142734500Y-40865000D03*
X142734500Y-40365000D03*
D15*
X141972000Y-39602500D03*
X141472000Y-39602500D03*
X140972000Y-39602500D03*
X140472000Y-39602500D03*
%TD*%
D12*
%TO.C,C21*%
X191272000Y-44958000D03*
X191272000Y-46508000D03*
%TD*%
%TO.C,C14*%
X157236000Y-44945000D03*
X157236000Y-46495000D03*
%TD*%
D10*
%TO.C,R1*%
X121804000Y-36576000D03*
X123454000Y-36576000D03*
%TD*%
D11*
%TO.C,C24*%
X154188000Y-39624000D03*
X152638000Y-39624000D03*
%TD*%
D16*
%TO.C,C4*%
X164068000Y-41402000D03*
X165618000Y-41402000D03*
%TD*%
%TO.C,C2*%
X131315000Y-41402000D03*
X132865000Y-41402000D03*
%TD*%
D12*
%TO.C,C19*%
X187716000Y-44945000D03*
X187716000Y-46495000D03*
%TD*%
%TO.C,C11*%
X140980000Y-44958000D03*
X140980000Y-46508000D03*
%TD*%
D16*
%TO.C,C3*%
X148828000Y-41402000D03*
X150378000Y-41402000D03*
%TD*%
%TO.C,C5*%
X180070000Y-41402000D03*
X181620000Y-41402000D03*
%TD*%
D12*
%TO.C,C20*%
X189494000Y-44958000D03*
X189494000Y-46508000D03*
%TD*%
D13*
%TO.C,U4*%
X172775000Y-40661500D03*
X172775000Y-41611500D03*
X173725000Y-40661500D03*
X173725000Y-41611500D03*
D14*
X171737500Y-40386500D03*
X171737500Y-40886500D03*
X171737500Y-41386500D03*
X171737500Y-41886500D03*
D15*
X172500000Y-42649000D03*
X173000000Y-42649000D03*
X173500000Y-42649000D03*
X174000000Y-42649000D03*
D14*
X174762500Y-41886500D03*
X174762500Y-41386500D03*
X174762500Y-40886500D03*
X174762500Y-40386500D03*
D15*
X174000000Y-39624000D03*
X173500000Y-39624000D03*
X173000000Y-39624000D03*
X172500000Y-39624000D03*
%TD*%
D13*
%TO.C,U3*%
X156757000Y-40661500D03*
X156757000Y-41611500D03*
X157707000Y-40661500D03*
X157707000Y-41611500D03*
D14*
X155719500Y-40386500D03*
X155719500Y-40886500D03*
X155719500Y-41386500D03*
X155719500Y-41886500D03*
D15*
X156482000Y-42649000D03*
X156982000Y-42649000D03*
X157482000Y-42649000D03*
X157982000Y-42649000D03*
D14*
X158744500Y-41886500D03*
X158744500Y-41386500D03*
X158744500Y-40886500D03*
X158744500Y-40386500D03*
D15*
X157982000Y-39624000D03*
X157482000Y-39624000D03*
X156982000Y-39624000D03*
X156482000Y-39624000D03*
%TD*%
D10*
%TO.C,R2*%
X138314000Y-36576000D03*
X139964000Y-36576000D03*
%TD*%
D12*
%TO.C,C9*%
X126502000Y-44958000D03*
X126502000Y-46508000D03*
%TD*%
D11*
%TO.C,C25*%
X170203000Y-39624000D03*
X168653000Y-39624000D03*
%TD*%
D12*
%TO.C,C17*%
X173238000Y-44958000D03*
X173238000Y-46508000D03*
%TD*%
%TO.C,C8*%
X124724000Y-44958000D03*
X124724000Y-46508000D03*
%TD*%
%TO.C,C7*%
X122946000Y-44958000D03*
X122946000Y-46508000D03*
%TD*%
D13*
%TO.C,U1*%
X124260500Y-40661500D03*
X124260500Y-41611500D03*
X125210500Y-40661500D03*
X125210500Y-41611500D03*
D14*
X123223000Y-40386500D03*
X123223000Y-40886500D03*
X123223000Y-41386500D03*
X123223000Y-41886500D03*
D15*
X123985500Y-42649000D03*
X124485500Y-42649000D03*
X124985500Y-42649000D03*
X125485500Y-42649000D03*
D14*
X126248000Y-41886500D03*
X126248000Y-41386500D03*
X126248000Y-40886500D03*
X126248000Y-40386500D03*
D15*
X125485500Y-39624000D03*
X124985500Y-39624000D03*
X124485500Y-39624000D03*
X123985500Y-39624000D03*
%TD*%
D12*
%TO.C,C13*%
X155458000Y-44945000D03*
X155458000Y-46495000D03*
%TD*%
D16*
%TO.C,C1*%
X116674000Y-41402000D03*
X118224000Y-41402000D03*
%TD*%
D12*
%TO.C,C18*%
X175016000Y-44945000D03*
X175016000Y-46495000D03*
%TD*%
D13*
%TO.C,U5*%
X188777000Y-40661500D03*
X188777000Y-41611500D03*
X189727000Y-40661500D03*
X189727000Y-41611500D03*
D14*
X187739500Y-40386500D03*
X187739500Y-40886500D03*
X187739500Y-41386500D03*
X187739500Y-41886500D03*
D15*
X188502000Y-42649000D03*
X189002000Y-42649000D03*
X189502000Y-42649000D03*
X190002000Y-42649000D03*
D14*
X190764500Y-41886500D03*
X190764500Y-41386500D03*
X190764500Y-40886500D03*
X190764500Y-40386500D03*
D15*
X190002000Y-39624000D03*
X189502000Y-39624000D03*
X189002000Y-39624000D03*
X188502000Y-39624000D03*
%TD*%
D11*
%TO.C,C26*%
X186205000Y-39624000D03*
X184655000Y-39624000D03*
%TD*%
D12*
%TO.C,C10*%
X139202000Y-44958000D03*
X139202000Y-46508000D03*
%TD*%
D11*
%TO.C,C22*%
X121676000Y-39624000D03*
X120126000Y-39624000D03*
%TD*%
D12*
%TO.C,C16*%
X171460000Y-44945000D03*
X171460000Y-46495000D03*
%TD*%
D16*
%TO.C,C6*%
X194802000Y-41402000D03*
X196352000Y-41402000D03*
%TD*%
D10*
%TO.C,R4*%
X170318000Y-36576000D03*
X171968000Y-36576000D03*
%TD*%
M02*
