M48
; DRILL file {KiCad 8.0.1} date 2024-05-04T10:24:20+0200
; FORMAT={-:-/ absolute / inch / decimal}
; #@! TF.CreationDate,2024-05-04T10:24:20+02:00
; #@! TF.GenerationSoftware,Kicad,Pcbnew,8.0.1
; #@! TF.FileFunction,Plated,1,4,PTH
FMAT,2
INCH
; #@! TA.AperFunction,Plated,PTH,ViaDrill
T1C0.0118
; #@! TA.AperFunction,Plated,PTH,ComponentDrill
T2C0.0315
; #@! TA.AperFunction,Plated,PTH,ComponentDrill
T3C0.0394
; #@! TA.AperFunction,Plated,PTH,ComponentDrill
T4C0.0591
; #@! TA.AperFunction,Plated,PTH,ComponentDrill
T5C0.0669
; #@! TA.AperFunction,Plated,PTH,ComponentDrill
T6C0.1260
%
G90
G05
T1
X4.7304Y-1.56
X4.7904Y-1.44
X4.7904Y-1.56
X4.8404Y-1.83
X4.9104Y-1.62
X4.9104Y-1.83
X4.9804Y-1.83
X5.3804Y-1.56
X5.4404Y-1.44
X5.4404Y-1.56
X5.4804Y-1.83
X5.5504Y-1.83
X5.5604Y-1.62
X5.6204Y-1.83
X6.0104Y-1.56
X6.0704Y-1.44
X6.0704Y-1.56
X6.1204Y-1.83
X6.1904Y-1.62
X6.1904Y-1.83
X6.2604Y-1.83
X6.6404Y-1.56
X6.7004Y-1.44
X6.7004Y-1.56
X6.7504Y-1.83
X6.8204Y-1.62
X6.8204Y-1.83
X6.8904Y-1.83
X7.2704Y-1.56
X7.3304Y-1.44
X7.3304Y-1.56
X7.3904Y-1.83
X7.4504Y-1.62
X7.4604Y-1.83
X7.5304Y-1.83
T2
X8.7795Y-1.5661
X8.7795Y-1.6646
T3
X8.47Y-1.425
X8.47Y-1.525
X8.47Y-1.625
X8.47Y-1.725
X8.47Y-1.825
X8.57Y-1.425
X8.57Y-1.525
X8.57Y-1.625
X8.57Y-1.725
X8.57Y-1.825
T4
X4.37Y-1.6252
X8.06Y-1.6252
T5
X4.27Y-1.5252
X4.27Y-1.7252
X4.47Y-1.5252
X4.47Y-1.7252
X7.96Y-1.5252
X7.96Y-1.7252
X8.16Y-1.5252
X8.16Y-1.7252
T6
X4.141Y-1.357
X4.141Y-1.894
X8.812Y-1.356
X8.812Y-1.894
M30
