%TF.GenerationSoftware,KiCad,Pcbnew,8.0.1*%
%TF.CreationDate,2024-05-04T10:24:18+02:00*%
%TF.ProjectId,Marconi_2955_Step_Attenuator,4d617263-6f6e-4695-9f32-3935355f5374,rev?*%
%TF.SameCoordinates,Original*%
%TF.FileFunction,Copper,L4,Bot*%
%TF.FilePolarity,Positive*%
%FSLAX46Y46*%
G04 Gerber Fmt 4.6, Leading zero omitted, Abs format (unit mm)*
G04 Created by KiCad (PCBNEW 8.0.1) date 2024-05-04 10:24:18*
%MOMM*%
%LPD*%
G01*
G04 APERTURE LIST*
%TA.AperFunction,ComponentPad*%
%ADD10C,5.600000*%
%TD*%
%TA.AperFunction,ComponentPad*%
%ADD11C,2.250000*%
%TD*%
%TA.AperFunction,ComponentPad*%
%ADD12C,2.050000*%
%TD*%
%TA.AperFunction,ComponentPad*%
%ADD13R,1.600000X1.600000*%
%TD*%
%TA.AperFunction,ComponentPad*%
%ADD14C,1.600000*%
%TD*%
%TA.AperFunction,ComponentPad*%
%ADD15R,1.700000X1.700000*%
%TD*%
%TA.AperFunction,ComponentPad*%
%ADD16O,1.700000X1.700000*%
%TD*%
%TA.AperFunction,ViaPad*%
%ADD17C,0.600000*%
%TD*%
G04 APERTURE END LIST*
D10*
%TO.P,REF\u002A\u002A,1*%
%TO.N,N/C*%
X105181400Y-34467800D03*
%TD*%
%TO.P,REF\u002A\u002A,1*%
%TO.N,N/C*%
X105181400Y-48107600D03*
%TD*%
%TO.P,REF\u002A\u002A,1*%
%TO.N,N/C*%
X223824800Y-48107600D03*
%TD*%
%TO.P,REF\u002A\u002A,1*%
%TO.N,N/C*%
X223824800Y-34442400D03*
%TD*%
D11*
%TO.P,OUT,2,Ext*%
%TO.N,GND*%
X113538000Y-43820000D03*
X113538000Y-38740000D03*
X108458000Y-43820000D03*
X108458000Y-38740000D03*
D12*
%TO.P,OUT,1,In*%
%TO.N,Net-(J1-In)*%
X110998000Y-41280000D03*
%TD*%
D13*
%TO.P,C27,1*%
%TO.N,+5V*%
X223000000Y-39780000D03*
D14*
%TO.P,C27,2*%
%TO.N,GND*%
X223000000Y-42280000D03*
%TD*%
D12*
%TO.P,IN,1,In*%
%TO.N,Net-(J2-In)*%
X204724000Y-41280000D03*
D11*
%TO.P,IN,2,Ext*%
%TO.N,GND*%
X202184000Y-38740000D03*
X202184000Y-43820000D03*
X207264000Y-38740000D03*
X207264000Y-43820000D03*
%TD*%
D15*
%TO.P,PM3,1,Pin_1*%
%TO.N,unconnected-(J3-Pin_1-Pad1)*%
X215138000Y-36195000D03*
D16*
%TO.P,PM3,2,Pin_2*%
%TO.N,+5V*%
X217678000Y-36195000D03*
%TO.P,PM3,3,Pin_3*%
%TO.N,Net-(J3-Pin_3)*%
X215138000Y-38735000D03*
%TO.P,PM3,4,Pin_4*%
%TO.N,+5V*%
X217678000Y-38735000D03*
%TO.P,PM3,5,Pin_5*%
%TO.N,unconnected-(J3-Pin_5-Pad5)*%
X215138000Y-41275000D03*
%TO.P,PM3,6,Pin_6*%
%TO.N,+5V*%
X217678000Y-41275000D03*
%TO.P,PM3,7,Pin_7*%
%TO.N,Net-(J3-Pin_7)*%
X215138000Y-43815000D03*
%TO.P,PM3,8,Pin_8*%
%TO.N,unconnected-(J3-Pin_8-Pad8)*%
X217678000Y-43815000D03*
%TO.P,PM3,9,Pin_9*%
%TO.N,unconnected-(J3-Pin_9-Pad9)*%
X215138000Y-46355000D03*
%TO.P,PM3,10,Pin_10*%
%TO.N,Net-(J3-Pin_10)*%
X217678000Y-46355000D03*
%TD*%
D17*
%TO.N,GND*%
X126502000Y-46482000D03*
X124724000Y-46482000D03*
X173238000Y-41148000D03*
X184668000Y-39624000D03*
X140980000Y-46482000D03*
X136662000Y-39624000D03*
X175016000Y-46482000D03*
X173238000Y-46482000D03*
X120152000Y-39624000D03*
X122946000Y-46482000D03*
X189494000Y-46482000D03*
X155458000Y-46482000D03*
X152664000Y-39624000D03*
X159014000Y-46482000D03*
X191272000Y-46482000D03*
X171460000Y-46482000D03*
X157236000Y-46482000D03*
X141234000Y-41148000D03*
X139202000Y-46482000D03*
X187716000Y-46482000D03*
X168666000Y-39624000D03*
X157236000Y-41148000D03*
X189240000Y-41148000D03*
X142758000Y-46482000D03*
X124724000Y-41148000D03*
%TO.N,+5V*%
X186192000Y-39624000D03*
X121676000Y-36576000D03*
X138186000Y-39624000D03*
X154188000Y-39624000D03*
X186192000Y-36576000D03*
X170190000Y-36576000D03*
X121676000Y-39624000D03*
X170190000Y-39624000D03*
X138186000Y-36576000D03*
X154188000Y-36576000D03*
%TD*%
%TA.AperFunction,Conductor*%
%TO.N,+5V*%
G36*
X217928000Y-40841988D02*
G01*
X217870993Y-40809075D01*
X217743826Y-40775000D01*
X217612174Y-40775000D01*
X217485007Y-40809075D01*
X217428000Y-40841988D01*
X217428000Y-39168012D01*
X217485007Y-39200925D01*
X217612174Y-39235000D01*
X217743826Y-39235000D01*
X217870993Y-39200925D01*
X217928000Y-39168012D01*
X217928000Y-40841988D01*
G37*
%TD.AperFunction*%
%TA.AperFunction,Conductor*%
G36*
X217928000Y-38301988D02*
G01*
X217870993Y-38269075D01*
X217743826Y-38235000D01*
X217612174Y-38235000D01*
X217485007Y-38269075D01*
X217428000Y-38301988D01*
X217428000Y-36628012D01*
X217485007Y-36660925D01*
X217612174Y-36695000D01*
X217743826Y-36695000D01*
X217870993Y-36660925D01*
X217928000Y-36628012D01*
X217928000Y-38301988D01*
G37*
%TD.AperFunction*%
%TA.AperFunction,Conductor*%
G36*
X221982831Y-31800185D02*
G01*
X222028586Y-31852989D01*
X222038530Y-31922147D01*
X222009505Y-31985703D01*
X221987549Y-32005627D01*
X221962383Y-32023483D01*
X221919840Y-32053669D01*
X221664373Y-32281970D01*
X221664370Y-32281973D01*
X221436069Y-32537440D01*
X221237798Y-32816878D01*
X221072063Y-33116753D01*
X220940946Y-33433299D01*
X220846097Y-33762524D01*
X220846095Y-33762533D01*
X220788705Y-34100306D01*
X220788703Y-34100318D01*
X220769493Y-34442400D01*
X220788703Y-34784481D01*
X220788705Y-34784493D01*
X220846095Y-35122266D01*
X220846097Y-35122275D01*
X220904192Y-35323926D01*
X220940947Y-35451504D01*
X221044908Y-35702487D01*
X221072063Y-35768046D01*
X221237798Y-36067921D01*
X221436069Y-36347359D01*
X221664370Y-36602826D01*
X221664373Y-36602829D01*
X221919840Y-36831130D01*
X221919846Y-36831134D01*
X221919847Y-36831135D01*
X222199279Y-37029402D01*
X222499152Y-37195136D01*
X222815696Y-37326253D01*
X223144930Y-37421104D01*
X223482714Y-37478496D01*
X223824800Y-37497707D01*
X224166886Y-37478496D01*
X224504670Y-37421104D01*
X224833904Y-37326253D01*
X225150448Y-37195136D01*
X225450321Y-37029402D01*
X225729753Y-36831135D01*
X225985228Y-36602828D01*
X226213535Y-36347353D01*
X226274371Y-36261611D01*
X226329218Y-36218329D01*
X226398760Y-36211569D01*
X226460917Y-36243479D01*
X226495955Y-36303929D01*
X226499500Y-36333368D01*
X226499500Y-46216631D01*
X226479815Y-46283670D01*
X226427011Y-46329425D01*
X226357853Y-46339369D01*
X226294297Y-46310344D01*
X226274371Y-46288386D01*
X226213537Y-46202650D01*
X226213531Y-46202642D01*
X225985229Y-45947173D01*
X225985226Y-45947170D01*
X225729759Y-45718869D01*
X225450321Y-45520598D01*
X225169967Y-45365652D01*
X225150448Y-45354864D01*
X224833904Y-45223747D01*
X224735857Y-45195500D01*
X224504675Y-45128897D01*
X224504666Y-45128895D01*
X224166893Y-45071505D01*
X224166881Y-45071503D01*
X223824800Y-45052293D01*
X223482718Y-45071503D01*
X223482706Y-45071505D01*
X223144933Y-45128895D01*
X223144924Y-45128897D01*
X222815699Y-45223746D01*
X222815696Y-45223747D01*
X222741452Y-45254500D01*
X222499153Y-45354863D01*
X222199278Y-45520598D01*
X221919840Y-45718869D01*
X221664373Y-45947170D01*
X221664370Y-45947173D01*
X221436069Y-46202640D01*
X221237798Y-46482078D01*
X221072063Y-46781953D01*
X220940946Y-47098499D01*
X220846097Y-47427724D01*
X220846095Y-47427733D01*
X220788705Y-47765506D01*
X220788703Y-47765518D01*
X220769493Y-48107600D01*
X220788703Y-48449681D01*
X220788704Y-48449686D01*
X220846096Y-48787470D01*
X220940947Y-49116704D01*
X221044908Y-49367687D01*
X221072063Y-49433246D01*
X221237798Y-49733121D01*
X221436069Y-50012559D01*
X221664370Y-50268026D01*
X221664373Y-50268029D01*
X221919842Y-50496331D01*
X221919850Y-50496337D01*
X222001640Y-50554371D01*
X222044924Y-50609218D01*
X222051684Y-50678760D01*
X222019773Y-50740917D01*
X221959324Y-50775955D01*
X221929885Y-50779500D01*
X107076315Y-50779500D01*
X107009276Y-50759815D01*
X106963521Y-50707011D01*
X106953577Y-50637853D01*
X106982602Y-50574297D01*
X107004560Y-50554371D01*
X107047809Y-50523683D01*
X107086353Y-50496335D01*
X107341828Y-50268028D01*
X107570135Y-50012553D01*
X107768402Y-49733121D01*
X107934136Y-49433248D01*
X108065253Y-49116704D01*
X108160104Y-48787470D01*
X108217496Y-48449686D01*
X108236707Y-48107600D01*
X108217496Y-47765514D01*
X108160104Y-47427730D01*
X108065253Y-47098496D01*
X107934136Y-46781952D01*
X107768402Y-46482079D01*
X107768346Y-46482000D01*
X122390750Y-46482000D01*
X122409670Y-46625708D01*
X122409671Y-46625712D01*
X122465137Y-46759622D01*
X122465138Y-46759624D01*
X122465139Y-46759625D01*
X122553379Y-46874621D01*
X122668375Y-46962861D01*
X122802291Y-47018330D01*
X122929280Y-47035048D01*
X122945999Y-47037250D01*
X122946000Y-47037250D01*
X122946001Y-47037250D01*
X122960977Y-47035278D01*
X123089709Y-47018330D01*
X123223625Y-46962861D01*
X123338621Y-46874621D01*
X123426861Y-46759625D01*
X123482330Y-46625709D01*
X123501250Y-46482000D01*
X124168750Y-46482000D01*
X124187670Y-46625708D01*
X124187671Y-46625712D01*
X124243137Y-46759622D01*
X124243138Y-46759624D01*
X124243139Y-46759625D01*
X124331379Y-46874621D01*
X124446375Y-46962861D01*
X124580291Y-47018330D01*
X124707280Y-47035048D01*
X124723999Y-47037250D01*
X124724000Y-47037250D01*
X124724001Y-47037250D01*
X124738977Y-47035278D01*
X124867709Y-47018330D01*
X125001625Y-46962861D01*
X125116621Y-46874621D01*
X125204861Y-46759625D01*
X125260330Y-46625709D01*
X125279250Y-46482000D01*
X125946750Y-46482000D01*
X125965670Y-46625708D01*
X125965671Y-46625712D01*
X126021137Y-46759622D01*
X126021138Y-46759624D01*
X126021139Y-46759625D01*
X126109379Y-46874621D01*
X126224375Y-46962861D01*
X126358291Y-47018330D01*
X126485280Y-47035048D01*
X126501999Y-47037250D01*
X126502000Y-47037250D01*
X126502001Y-47037250D01*
X126516977Y-47035278D01*
X126645709Y-47018330D01*
X126779625Y-46962861D01*
X126894621Y-46874621D01*
X126982861Y-46759625D01*
X127038330Y-46625709D01*
X127057250Y-46482000D01*
X138646750Y-46482000D01*
X138665670Y-46625708D01*
X138665671Y-46625712D01*
X138721137Y-46759622D01*
X138721138Y-46759624D01*
X138721139Y-46759625D01*
X138809379Y-46874621D01*
X138924375Y-46962861D01*
X139058291Y-47018330D01*
X139185280Y-47035048D01*
X139201999Y-47037250D01*
X139202000Y-47037250D01*
X139202001Y-47037250D01*
X139216977Y-47035278D01*
X139345709Y-47018330D01*
X139479625Y-46962861D01*
X139594621Y-46874621D01*
X139682861Y-46759625D01*
X139738330Y-46625709D01*
X139757250Y-46482000D01*
X140424750Y-46482000D01*
X140443670Y-46625708D01*
X140443671Y-46625712D01*
X140499137Y-46759622D01*
X140499138Y-46759624D01*
X140499139Y-46759625D01*
X140587379Y-46874621D01*
X140702375Y-46962861D01*
X140836291Y-47018330D01*
X140963280Y-47035048D01*
X140979999Y-47037250D01*
X140980000Y-47037250D01*
X140980001Y-47037250D01*
X140994977Y-47035278D01*
X141123709Y-47018330D01*
X141257625Y-46962861D01*
X141372621Y-46874621D01*
X141460861Y-46759625D01*
X141516330Y-46625709D01*
X141535250Y-46482000D01*
X142202750Y-46482000D01*
X142221670Y-46625708D01*
X142221671Y-46625712D01*
X142277137Y-46759622D01*
X142277138Y-46759624D01*
X142277139Y-46759625D01*
X142365379Y-46874621D01*
X142480375Y-46962861D01*
X142614291Y-47018330D01*
X142741280Y-47035048D01*
X142757999Y-47037250D01*
X142758000Y-47037250D01*
X142758001Y-47037250D01*
X142772977Y-47035278D01*
X142901709Y-47018330D01*
X143035625Y-46962861D01*
X143150621Y-46874621D01*
X143238861Y-46759625D01*
X143294330Y-46625709D01*
X143313250Y-46482000D01*
X154902750Y-46482000D01*
X154921670Y-46625708D01*
X154921671Y-46625712D01*
X154977137Y-46759622D01*
X154977138Y-46759624D01*
X154977139Y-46759625D01*
X155065379Y-46874621D01*
X155180375Y-46962861D01*
X155314291Y-47018330D01*
X155441280Y-47035048D01*
X155457999Y-47037250D01*
X155458000Y-47037250D01*
X155458001Y-47037250D01*
X155472977Y-47035278D01*
X155601709Y-47018330D01*
X155735625Y-46962861D01*
X155850621Y-46874621D01*
X155938861Y-46759625D01*
X155994330Y-46625709D01*
X156013250Y-46482000D01*
X156680750Y-46482000D01*
X156699670Y-46625708D01*
X156699671Y-46625712D01*
X156755137Y-46759622D01*
X156755138Y-46759624D01*
X156755139Y-46759625D01*
X156843379Y-46874621D01*
X156958375Y-46962861D01*
X157092291Y-47018330D01*
X157219280Y-47035048D01*
X157235999Y-47037250D01*
X157236000Y-47037250D01*
X157236001Y-47037250D01*
X157250977Y-47035278D01*
X157379709Y-47018330D01*
X157513625Y-46962861D01*
X157628621Y-46874621D01*
X157716861Y-46759625D01*
X157772330Y-46625709D01*
X157791250Y-46482000D01*
X158458750Y-46482000D01*
X158477670Y-46625708D01*
X158477671Y-46625712D01*
X158533137Y-46759622D01*
X158533138Y-46759624D01*
X158533139Y-46759625D01*
X158621379Y-46874621D01*
X158736375Y-46962861D01*
X158870291Y-47018330D01*
X158997280Y-47035048D01*
X159013999Y-47037250D01*
X159014000Y-47037250D01*
X159014001Y-47037250D01*
X159028977Y-47035278D01*
X159157709Y-47018330D01*
X159291625Y-46962861D01*
X159406621Y-46874621D01*
X159494861Y-46759625D01*
X159550330Y-46625709D01*
X159569250Y-46482000D01*
X170904750Y-46482000D01*
X170923670Y-46625708D01*
X170923671Y-46625712D01*
X170979137Y-46759622D01*
X170979138Y-46759624D01*
X170979139Y-46759625D01*
X171067379Y-46874621D01*
X171182375Y-46962861D01*
X171316291Y-47018330D01*
X171443280Y-47035048D01*
X171459999Y-47037250D01*
X171460000Y-47037250D01*
X171460001Y-47037250D01*
X171474977Y-47035278D01*
X171603709Y-47018330D01*
X171737625Y-46962861D01*
X171852621Y-46874621D01*
X171940861Y-46759625D01*
X171996330Y-46625709D01*
X172015250Y-46482000D01*
X172682750Y-46482000D01*
X172701670Y-46625708D01*
X172701671Y-46625712D01*
X172757137Y-46759622D01*
X172757138Y-46759624D01*
X172757139Y-46759625D01*
X172845379Y-46874621D01*
X172960375Y-46962861D01*
X173094291Y-47018330D01*
X173221280Y-47035048D01*
X173237999Y-47037250D01*
X173238000Y-47037250D01*
X173238001Y-47037250D01*
X173252977Y-47035278D01*
X173381709Y-47018330D01*
X173515625Y-46962861D01*
X173630621Y-46874621D01*
X173718861Y-46759625D01*
X173774330Y-46625709D01*
X173793250Y-46482000D01*
X174460750Y-46482000D01*
X174479670Y-46625708D01*
X174479671Y-46625712D01*
X174535137Y-46759622D01*
X174535138Y-46759624D01*
X174535139Y-46759625D01*
X174623379Y-46874621D01*
X174738375Y-46962861D01*
X174872291Y-47018330D01*
X174999280Y-47035048D01*
X175015999Y-47037250D01*
X175016000Y-47037250D01*
X175016001Y-47037250D01*
X175030977Y-47035278D01*
X175159709Y-47018330D01*
X175293625Y-46962861D01*
X175408621Y-46874621D01*
X175496861Y-46759625D01*
X175552330Y-46625709D01*
X175571250Y-46482000D01*
X187160750Y-46482000D01*
X187179670Y-46625708D01*
X187179671Y-46625712D01*
X187235137Y-46759622D01*
X187235138Y-46759624D01*
X187235139Y-46759625D01*
X187323379Y-46874621D01*
X187438375Y-46962861D01*
X187572291Y-47018330D01*
X187699280Y-47035048D01*
X187715999Y-47037250D01*
X187716000Y-47037250D01*
X187716001Y-47037250D01*
X187730977Y-47035278D01*
X187859709Y-47018330D01*
X187993625Y-46962861D01*
X188108621Y-46874621D01*
X188196861Y-46759625D01*
X188252330Y-46625709D01*
X188271250Y-46482000D01*
X188938750Y-46482000D01*
X188957670Y-46625708D01*
X188957671Y-46625712D01*
X189013137Y-46759622D01*
X189013138Y-46759624D01*
X189013139Y-46759625D01*
X189101379Y-46874621D01*
X189216375Y-46962861D01*
X189350291Y-47018330D01*
X189477280Y-47035048D01*
X189493999Y-47037250D01*
X189494000Y-47037250D01*
X189494001Y-47037250D01*
X189508977Y-47035278D01*
X189637709Y-47018330D01*
X189771625Y-46962861D01*
X189886621Y-46874621D01*
X189974861Y-46759625D01*
X190030330Y-46625709D01*
X190049250Y-46482000D01*
X190716750Y-46482000D01*
X190735670Y-46625708D01*
X190735671Y-46625712D01*
X190791137Y-46759622D01*
X190791138Y-46759624D01*
X190791139Y-46759625D01*
X190879379Y-46874621D01*
X190994375Y-46962861D01*
X191128291Y-47018330D01*
X191255280Y-47035048D01*
X191271999Y-47037250D01*
X191272000Y-47037250D01*
X191272001Y-47037250D01*
X191286977Y-47035278D01*
X191415709Y-47018330D01*
X191549625Y-46962861D01*
X191664621Y-46874621D01*
X191752861Y-46759625D01*
X191808330Y-46625709D01*
X191827250Y-46482000D01*
X191810530Y-46355000D01*
X214032785Y-46355000D01*
X214051602Y-46558082D01*
X214107417Y-46754247D01*
X214107422Y-46754260D01*
X214198327Y-46936821D01*
X214321237Y-47099581D01*
X214471958Y-47236980D01*
X214471960Y-47236982D01*
X214571141Y-47298392D01*
X214645363Y-47344348D01*
X214835544Y-47418024D01*
X215036024Y-47455500D01*
X215036026Y-47455500D01*
X215239974Y-47455500D01*
X215239976Y-47455500D01*
X215440456Y-47418024D01*
X215630637Y-47344348D01*
X215804041Y-47236981D01*
X215954764Y-47099579D01*
X216077673Y-46936821D01*
X216168582Y-46754250D01*
X216224397Y-46558083D01*
X216243215Y-46355000D01*
X216572785Y-46355000D01*
X216591602Y-46558082D01*
X216647417Y-46754247D01*
X216647422Y-46754260D01*
X216738327Y-46936821D01*
X216861237Y-47099581D01*
X217011958Y-47236980D01*
X217011960Y-47236982D01*
X217111141Y-47298392D01*
X217185363Y-47344348D01*
X217375544Y-47418024D01*
X217576024Y-47455500D01*
X217576026Y-47455500D01*
X217779974Y-47455500D01*
X217779976Y-47455500D01*
X217980456Y-47418024D01*
X218170637Y-47344348D01*
X218344041Y-47236981D01*
X218494764Y-47099579D01*
X218617673Y-46936821D01*
X218708582Y-46754250D01*
X218764397Y-46558083D01*
X218783215Y-46355000D01*
X218777042Y-46288386D01*
X218764397Y-46151917D01*
X218721496Y-46001139D01*
X218708582Y-45955750D01*
X218704311Y-45947173D01*
X218664272Y-45866764D01*
X218617673Y-45773179D01*
X218494764Y-45610421D01*
X218494762Y-45610418D01*
X218344041Y-45473019D01*
X218344039Y-45473017D01*
X218170642Y-45365655D01*
X218170635Y-45365651D01*
X218075546Y-45328814D01*
X217980456Y-45291976D01*
X217779976Y-45254500D01*
X217576024Y-45254500D01*
X217375544Y-45291976D01*
X217375541Y-45291976D01*
X217375541Y-45291977D01*
X217185364Y-45365651D01*
X217185357Y-45365655D01*
X217011960Y-45473017D01*
X217011958Y-45473019D01*
X216861237Y-45610418D01*
X216738327Y-45773178D01*
X216647422Y-45955739D01*
X216647417Y-45955752D01*
X216591602Y-46151917D01*
X216572785Y-46354999D01*
X216572785Y-46355000D01*
X216243215Y-46355000D01*
X216237042Y-46288386D01*
X216224397Y-46151917D01*
X216181496Y-46001139D01*
X216168582Y-45955750D01*
X216164311Y-45947173D01*
X216124272Y-45866764D01*
X216077673Y-45773179D01*
X215954764Y-45610421D01*
X215954762Y-45610418D01*
X215804041Y-45473019D01*
X215804039Y-45473017D01*
X215630642Y-45365655D01*
X215630635Y-45365651D01*
X215535546Y-45328814D01*
X215440456Y-45291976D01*
X215239976Y-45254500D01*
X215036024Y-45254500D01*
X214835544Y-45291976D01*
X214835541Y-45291976D01*
X214835541Y-45291977D01*
X214645364Y-45365651D01*
X214645357Y-45365655D01*
X214471960Y-45473017D01*
X214471958Y-45473019D01*
X214321237Y-45610418D01*
X214198327Y-45773178D01*
X214107422Y-45955739D01*
X214107417Y-45955752D01*
X214051602Y-46151917D01*
X214032785Y-46354999D01*
X214032785Y-46355000D01*
X191810530Y-46355000D01*
X191808330Y-46338291D01*
X191752861Y-46204375D01*
X191664621Y-46089379D01*
X191549625Y-46001139D01*
X191549624Y-46001138D01*
X191549622Y-46001137D01*
X191415712Y-45945671D01*
X191415710Y-45945670D01*
X191415709Y-45945670D01*
X191343854Y-45936210D01*
X191272001Y-45926750D01*
X191271999Y-45926750D01*
X191128291Y-45945670D01*
X191128287Y-45945671D01*
X190994377Y-46001137D01*
X190879379Y-46089379D01*
X190791137Y-46204377D01*
X190735671Y-46338287D01*
X190735670Y-46338291D01*
X190716750Y-46481999D01*
X190716750Y-46482000D01*
X190049250Y-46482000D01*
X190030330Y-46338291D01*
X189974861Y-46204375D01*
X189886621Y-46089379D01*
X189771625Y-46001139D01*
X189771624Y-46001138D01*
X189771622Y-46001137D01*
X189637712Y-45945671D01*
X189637710Y-45945670D01*
X189637709Y-45945670D01*
X189565854Y-45936210D01*
X189494001Y-45926750D01*
X189493999Y-45926750D01*
X189350291Y-45945670D01*
X189350287Y-45945671D01*
X189216377Y-46001137D01*
X189101379Y-46089379D01*
X189013137Y-46204377D01*
X188957671Y-46338287D01*
X188957670Y-46338291D01*
X188938750Y-46481999D01*
X188938750Y-46482000D01*
X188271250Y-46482000D01*
X188252330Y-46338291D01*
X188196861Y-46204375D01*
X188108621Y-46089379D01*
X187993625Y-46001139D01*
X187993624Y-46001138D01*
X187993622Y-46001137D01*
X187859712Y-45945671D01*
X187859710Y-45945670D01*
X187859709Y-45945670D01*
X187787854Y-45936210D01*
X187716001Y-45926750D01*
X187715999Y-45926750D01*
X187572291Y-45945670D01*
X187572287Y-45945671D01*
X187438377Y-46001137D01*
X187323379Y-46089379D01*
X187235137Y-46204377D01*
X187179671Y-46338287D01*
X187179670Y-46338291D01*
X187160750Y-46481999D01*
X187160750Y-46482000D01*
X175571250Y-46482000D01*
X175552330Y-46338291D01*
X175496861Y-46204375D01*
X175408621Y-46089379D01*
X175293625Y-46001139D01*
X175293624Y-46001138D01*
X175293622Y-46001137D01*
X175159712Y-45945671D01*
X175159710Y-45945670D01*
X175159709Y-45945670D01*
X175087854Y-45936210D01*
X175016001Y-45926750D01*
X175015999Y-45926750D01*
X174872291Y-45945670D01*
X174872287Y-45945671D01*
X174738377Y-46001137D01*
X174623379Y-46089379D01*
X174535137Y-46204377D01*
X174479671Y-46338287D01*
X174479670Y-46338291D01*
X174460750Y-46481999D01*
X174460750Y-46482000D01*
X173793250Y-46482000D01*
X173774330Y-46338291D01*
X173718861Y-46204375D01*
X173630621Y-46089379D01*
X173515625Y-46001139D01*
X173515624Y-46001138D01*
X173515622Y-46001137D01*
X173381712Y-45945671D01*
X173381710Y-45945670D01*
X173381709Y-45945670D01*
X173309854Y-45936210D01*
X173238001Y-45926750D01*
X173237999Y-45926750D01*
X173094291Y-45945670D01*
X173094287Y-45945671D01*
X172960377Y-46001137D01*
X172845379Y-46089379D01*
X172757137Y-46204377D01*
X172701671Y-46338287D01*
X172701670Y-46338291D01*
X172682750Y-46481999D01*
X172682750Y-46482000D01*
X172015250Y-46482000D01*
X171996330Y-46338291D01*
X171940861Y-46204375D01*
X171852621Y-46089379D01*
X171737625Y-46001139D01*
X171737624Y-46001138D01*
X171737622Y-46001137D01*
X171603712Y-45945671D01*
X171603710Y-45945670D01*
X171603709Y-45945670D01*
X171531854Y-45936210D01*
X171460001Y-45926750D01*
X171459999Y-45926750D01*
X171316291Y-45945670D01*
X171316287Y-45945671D01*
X171182377Y-46001137D01*
X171067379Y-46089379D01*
X170979137Y-46204377D01*
X170923671Y-46338287D01*
X170923670Y-46338291D01*
X170904750Y-46481999D01*
X170904750Y-46482000D01*
X159569250Y-46482000D01*
X159550330Y-46338291D01*
X159494861Y-46204375D01*
X159406621Y-46089379D01*
X159291625Y-46001139D01*
X159291624Y-46001138D01*
X159291622Y-46001137D01*
X159157712Y-45945671D01*
X159157710Y-45945670D01*
X159157709Y-45945670D01*
X159085854Y-45936210D01*
X159014001Y-45926750D01*
X159013999Y-45926750D01*
X158870291Y-45945670D01*
X158870287Y-45945671D01*
X158736377Y-46001137D01*
X158621379Y-46089379D01*
X158533137Y-46204377D01*
X158477671Y-46338287D01*
X158477670Y-46338291D01*
X158458750Y-46481999D01*
X158458750Y-46482000D01*
X157791250Y-46482000D01*
X157772330Y-46338291D01*
X157716861Y-46204375D01*
X157628621Y-46089379D01*
X157513625Y-46001139D01*
X157513624Y-46001138D01*
X157513622Y-46001137D01*
X157379712Y-45945671D01*
X157379710Y-45945670D01*
X157379709Y-45945670D01*
X157307854Y-45936210D01*
X157236001Y-45926750D01*
X157235999Y-45926750D01*
X157092291Y-45945670D01*
X157092287Y-45945671D01*
X156958377Y-46001137D01*
X156843379Y-46089379D01*
X156755137Y-46204377D01*
X156699671Y-46338287D01*
X156699670Y-46338291D01*
X156680750Y-46481999D01*
X156680750Y-46482000D01*
X156013250Y-46482000D01*
X155994330Y-46338291D01*
X155938861Y-46204375D01*
X155850621Y-46089379D01*
X155735625Y-46001139D01*
X155735624Y-46001138D01*
X155735622Y-46001137D01*
X155601712Y-45945671D01*
X155601710Y-45945670D01*
X155601709Y-45945670D01*
X155529854Y-45936210D01*
X155458001Y-45926750D01*
X155457999Y-45926750D01*
X155314291Y-45945670D01*
X155314287Y-45945671D01*
X155180377Y-46001137D01*
X155065379Y-46089379D01*
X154977137Y-46204377D01*
X154921671Y-46338287D01*
X154921670Y-46338291D01*
X154902750Y-46481999D01*
X154902750Y-46482000D01*
X143313250Y-46482000D01*
X143294330Y-46338291D01*
X143238861Y-46204375D01*
X143150621Y-46089379D01*
X143035625Y-46001139D01*
X143035624Y-46001138D01*
X143035622Y-46001137D01*
X142901712Y-45945671D01*
X142901710Y-45945670D01*
X142901709Y-45945670D01*
X142829854Y-45936210D01*
X142758001Y-45926750D01*
X142757999Y-45926750D01*
X142614291Y-45945670D01*
X142614287Y-45945671D01*
X142480377Y-46001137D01*
X142365379Y-46089379D01*
X142277137Y-46204377D01*
X142221671Y-46338287D01*
X142221670Y-46338291D01*
X142202750Y-46481999D01*
X142202750Y-46482000D01*
X141535250Y-46482000D01*
X141516330Y-46338291D01*
X141460861Y-46204375D01*
X141372621Y-46089379D01*
X141257625Y-46001139D01*
X141257624Y-46001138D01*
X141257622Y-46001137D01*
X141123712Y-45945671D01*
X141123710Y-45945670D01*
X141123709Y-45945670D01*
X141051854Y-45936210D01*
X140980001Y-45926750D01*
X140979999Y-45926750D01*
X140836291Y-45945670D01*
X140836287Y-45945671D01*
X140702377Y-46001137D01*
X140587379Y-46089379D01*
X140499137Y-46204377D01*
X140443671Y-46338287D01*
X140443670Y-46338291D01*
X140424750Y-46481999D01*
X140424750Y-46482000D01*
X139757250Y-46482000D01*
X139738330Y-46338291D01*
X139682861Y-46204375D01*
X139594621Y-46089379D01*
X139479625Y-46001139D01*
X139479624Y-46001138D01*
X139479622Y-46001137D01*
X139345712Y-45945671D01*
X139345710Y-45945670D01*
X139345709Y-45945670D01*
X139273854Y-45936210D01*
X139202001Y-45926750D01*
X139201999Y-45926750D01*
X139058291Y-45945670D01*
X139058287Y-45945671D01*
X138924377Y-46001137D01*
X138809379Y-46089379D01*
X138721137Y-46204377D01*
X138665671Y-46338287D01*
X138665670Y-46338291D01*
X138646750Y-46481999D01*
X138646750Y-46482000D01*
X127057250Y-46482000D01*
X127038330Y-46338291D01*
X126982861Y-46204375D01*
X126894621Y-46089379D01*
X126779625Y-46001139D01*
X126779624Y-46001138D01*
X126779622Y-46001137D01*
X126645712Y-45945671D01*
X126645710Y-45945670D01*
X126645709Y-45945670D01*
X126573854Y-45936210D01*
X126502001Y-45926750D01*
X126501999Y-45926750D01*
X126358291Y-45945670D01*
X126358287Y-45945671D01*
X126224377Y-46001137D01*
X126109379Y-46089379D01*
X126021137Y-46204377D01*
X125965671Y-46338287D01*
X125965670Y-46338291D01*
X125946750Y-46481999D01*
X125946750Y-46482000D01*
X125279250Y-46482000D01*
X125260330Y-46338291D01*
X125204861Y-46204375D01*
X125116621Y-46089379D01*
X125001625Y-46001139D01*
X125001624Y-46001138D01*
X125001622Y-46001137D01*
X124867712Y-45945671D01*
X124867710Y-45945670D01*
X124867709Y-45945670D01*
X124795854Y-45936210D01*
X124724001Y-45926750D01*
X124723999Y-45926750D01*
X124580291Y-45945670D01*
X124580287Y-45945671D01*
X124446377Y-46001137D01*
X124331379Y-46089379D01*
X124243137Y-46204377D01*
X124187671Y-46338287D01*
X124187670Y-46338291D01*
X124168750Y-46481999D01*
X124168750Y-46482000D01*
X123501250Y-46482000D01*
X123482330Y-46338291D01*
X123426861Y-46204375D01*
X123338621Y-46089379D01*
X123223625Y-46001139D01*
X123223624Y-46001138D01*
X123223622Y-46001137D01*
X123089712Y-45945671D01*
X123089710Y-45945670D01*
X123089709Y-45945670D01*
X123017854Y-45936210D01*
X122946001Y-45926750D01*
X122945999Y-45926750D01*
X122802291Y-45945670D01*
X122802287Y-45945671D01*
X122668377Y-46001137D01*
X122553379Y-46089379D01*
X122465137Y-46204377D01*
X122409671Y-46338287D01*
X122409670Y-46338291D01*
X122390750Y-46481999D01*
X122390750Y-46482000D01*
X107768346Y-46482000D01*
X107570135Y-46202647D01*
X107570131Y-46202642D01*
X107570130Y-46202640D01*
X107341829Y-45947173D01*
X107341826Y-45947170D01*
X107086359Y-45718869D01*
X106806921Y-45520598D01*
X106526567Y-45365652D01*
X106507048Y-45354864D01*
X106190504Y-45223747D01*
X106092457Y-45195500D01*
X105861275Y-45128897D01*
X105861266Y-45128895D01*
X105523493Y-45071505D01*
X105523481Y-45071503D01*
X105181400Y-45052293D01*
X104839318Y-45071503D01*
X104839306Y-45071505D01*
X104501533Y-45128895D01*
X104501524Y-45128897D01*
X104172299Y-45223746D01*
X104172296Y-45223747D01*
X104098052Y-45254500D01*
X103855753Y-45354863D01*
X103555878Y-45520598D01*
X103276440Y-45718869D01*
X103020973Y-45947170D01*
X103020970Y-45947173D01*
X102792668Y-46202642D01*
X102792662Y-46202650D01*
X102725629Y-46297124D01*
X102670782Y-46340408D01*
X102601240Y-46347168D01*
X102539083Y-46315257D01*
X102504045Y-46254808D01*
X102500500Y-46225369D01*
X102500500Y-43820006D01*
X107077786Y-43820006D01*
X107096608Y-44047168D01*
X107096610Y-44047179D01*
X107152569Y-44268155D01*
X107244137Y-44476908D01*
X107368814Y-44667742D01*
X107523208Y-44835458D01*
X107523212Y-44835461D01*
X107577897Y-44878024D01*
X107703094Y-44975469D01*
X107703096Y-44975470D01*
X107703099Y-44975472D01*
X107819646Y-45038543D01*
X107903574Y-45083963D01*
X108015529Y-45122397D01*
X108119173Y-45157979D01*
X108119175Y-45157979D01*
X108119177Y-45157980D01*
X108344023Y-45195500D01*
X108344024Y-45195500D01*
X108571976Y-45195500D01*
X108571977Y-45195500D01*
X108796823Y-45157980D01*
X109012426Y-45083963D01*
X109212906Y-44975469D01*
X109392794Y-44835456D01*
X109547183Y-44667745D01*
X109671862Y-44476909D01*
X109763430Y-44268155D01*
X109819390Y-44047176D01*
X109838214Y-43820006D01*
X112157786Y-43820006D01*
X112176608Y-44047168D01*
X112176610Y-44047179D01*
X112232569Y-44268155D01*
X112324137Y-44476908D01*
X112448814Y-44667742D01*
X112603208Y-44835458D01*
X112603212Y-44835461D01*
X112657897Y-44878024D01*
X112783094Y-44975469D01*
X112783096Y-44975470D01*
X112783099Y-44975472D01*
X112899646Y-45038543D01*
X112983574Y-45083963D01*
X113095529Y-45122397D01*
X113199173Y-45157979D01*
X113199175Y-45157979D01*
X113199177Y-45157980D01*
X113424023Y-45195500D01*
X113424024Y-45195500D01*
X113651976Y-45195500D01*
X113651977Y-45195500D01*
X113876823Y-45157980D01*
X114092426Y-45083963D01*
X114292906Y-44975469D01*
X114472794Y-44835456D01*
X114627183Y-44667745D01*
X114751862Y-44476909D01*
X114843430Y-44268155D01*
X114899390Y-44047176D01*
X114918214Y-43820006D01*
X200803786Y-43820006D01*
X200822608Y-44047168D01*
X200822610Y-44047179D01*
X200878569Y-44268155D01*
X200970137Y-44476908D01*
X201094814Y-44667742D01*
X201249208Y-44835458D01*
X201249212Y-44835461D01*
X201303897Y-44878024D01*
X201429094Y-44975469D01*
X201429096Y-44975470D01*
X201429099Y-44975472D01*
X201545646Y-45038543D01*
X201629574Y-45083963D01*
X201741529Y-45122397D01*
X201845173Y-45157979D01*
X201845175Y-45157979D01*
X201845177Y-45157980D01*
X202070023Y-45195500D01*
X202070024Y-45195500D01*
X202297976Y-45195500D01*
X202297977Y-45195500D01*
X202522823Y-45157980D01*
X202738426Y-45083963D01*
X202938906Y-44975469D01*
X203118794Y-44835456D01*
X203273183Y-44667745D01*
X203397862Y-44476909D01*
X203489430Y-44268155D01*
X203545390Y-44047176D01*
X203564214Y-43820006D01*
X205883786Y-43820006D01*
X205902608Y-44047168D01*
X205902610Y-44047179D01*
X205958569Y-44268155D01*
X206050137Y-44476908D01*
X206174814Y-44667742D01*
X206329208Y-44835458D01*
X206329212Y-44835461D01*
X206383897Y-44878024D01*
X206509094Y-44975469D01*
X206509096Y-44975470D01*
X206509099Y-44975472D01*
X206625646Y-45038543D01*
X206709574Y-45083963D01*
X206821529Y-45122397D01*
X206925173Y-45157979D01*
X206925175Y-45157979D01*
X206925177Y-45157980D01*
X207150023Y-45195500D01*
X207150024Y-45195500D01*
X207377976Y-45195500D01*
X207377977Y-45195500D01*
X207602823Y-45157980D01*
X207818426Y-45083963D01*
X208018906Y-44975469D01*
X208198794Y-44835456D01*
X208353183Y-44667745D01*
X208477862Y-44476909D01*
X208569430Y-44268155D01*
X208625390Y-44047176D01*
X208644214Y-43820000D01*
X208644214Y-43819993D01*
X208643800Y-43815000D01*
X214032785Y-43815000D01*
X214051602Y-44018082D01*
X214107417Y-44214247D01*
X214107422Y-44214260D01*
X214198327Y-44396821D01*
X214321237Y-44559581D01*
X214471958Y-44696980D01*
X214471960Y-44696982D01*
X214571141Y-44758392D01*
X214645363Y-44804348D01*
X214835544Y-44878024D01*
X215036024Y-44915500D01*
X215036026Y-44915500D01*
X215239974Y-44915500D01*
X215239976Y-44915500D01*
X215440456Y-44878024D01*
X215630637Y-44804348D01*
X215804041Y-44696981D01*
X215954764Y-44559579D01*
X216077673Y-44396821D01*
X216168582Y-44214250D01*
X216224397Y-44018083D01*
X216243215Y-43815000D01*
X216224397Y-43611917D01*
X216168582Y-43415750D01*
X216077673Y-43233179D01*
X215954764Y-43070421D01*
X215954762Y-43070418D01*
X215804041Y-42933019D01*
X215804039Y-42933017D01*
X215630642Y-42825655D01*
X215630635Y-42825651D01*
X215516321Y-42781366D01*
X215440456Y-42751976D01*
X215239976Y-42714500D01*
X215036024Y-42714500D01*
X214835544Y-42751976D01*
X214835541Y-42751976D01*
X214835541Y-42751977D01*
X214645364Y-42825651D01*
X214645357Y-42825655D01*
X214471960Y-42933017D01*
X214471958Y-42933019D01*
X214321237Y-43070418D01*
X214198327Y-43233178D01*
X214107422Y-43415739D01*
X214107417Y-43415752D01*
X214051602Y-43611917D01*
X214032785Y-43814999D01*
X214032785Y-43815000D01*
X208643800Y-43815000D01*
X208625391Y-43592831D01*
X208625389Y-43592820D01*
X208569430Y-43371844D01*
X208477862Y-43163091D01*
X208353185Y-42972257D01*
X208255784Y-42866452D01*
X208198794Y-42804544D01*
X208198793Y-42804543D01*
X208198791Y-42804541D01*
X208198787Y-42804538D01*
X208018909Y-42664533D01*
X208018900Y-42664527D01*
X207818432Y-42556040D01*
X207818429Y-42556039D01*
X207818426Y-42556037D01*
X207818420Y-42556035D01*
X207818418Y-42556034D01*
X207602826Y-42482020D01*
X207434188Y-42453880D01*
X207377977Y-42444500D01*
X207150023Y-42444500D01*
X207125453Y-42448600D01*
X206925173Y-42482020D01*
X206709581Y-42556034D01*
X206709567Y-42556040D01*
X206509099Y-42664527D01*
X206509090Y-42664533D01*
X206329212Y-42804538D01*
X206329208Y-42804541D01*
X206174814Y-42972257D01*
X206050137Y-43163091D01*
X205958569Y-43371844D01*
X205902610Y-43592820D01*
X205902608Y-43592831D01*
X205883786Y-43819993D01*
X205883786Y-43820006D01*
X203564214Y-43820006D01*
X203564214Y-43820000D01*
X203564214Y-43819993D01*
X203545391Y-43592831D01*
X203545389Y-43592820D01*
X203489430Y-43371844D01*
X203397862Y-43163091D01*
X203273185Y-42972257D01*
X203175784Y-42866452D01*
X203118794Y-42804544D01*
X203118793Y-42804543D01*
X203118791Y-42804541D01*
X203118787Y-42804538D01*
X202938909Y-42664533D01*
X202938900Y-42664527D01*
X202738432Y-42556040D01*
X202738429Y-42556039D01*
X202738426Y-42556037D01*
X202738420Y-42556035D01*
X202738418Y-42556034D01*
X202522826Y-42482020D01*
X202354188Y-42453880D01*
X202297977Y-42444500D01*
X202070023Y-42444500D01*
X202045453Y-42448600D01*
X201845173Y-42482020D01*
X201629581Y-42556034D01*
X201629567Y-42556040D01*
X201429099Y-42664527D01*
X201429090Y-42664533D01*
X201249212Y-42804538D01*
X201249208Y-42804541D01*
X201094814Y-42972257D01*
X200970137Y-43163091D01*
X200878569Y-43371844D01*
X200822610Y-43592820D01*
X200822608Y-43592831D01*
X200803786Y-43819993D01*
X200803786Y-43820006D01*
X114918214Y-43820006D01*
X114918214Y-43820000D01*
X114918214Y-43819993D01*
X114899391Y-43592831D01*
X114899389Y-43592820D01*
X114843430Y-43371844D01*
X114751862Y-43163091D01*
X114627185Y-42972257D01*
X114529784Y-42866452D01*
X114472794Y-42804544D01*
X114472793Y-42804543D01*
X114472791Y-42804541D01*
X114472787Y-42804538D01*
X114292909Y-42664533D01*
X114292900Y-42664527D01*
X114092432Y-42556040D01*
X114092429Y-42556039D01*
X114092426Y-42556037D01*
X114092420Y-42556035D01*
X114092418Y-42556034D01*
X113876826Y-42482020D01*
X113708188Y-42453880D01*
X113651977Y-42444500D01*
X113424023Y-42444500D01*
X113399453Y-42448600D01*
X113199173Y-42482020D01*
X112983581Y-42556034D01*
X112983567Y-42556040D01*
X112783099Y-42664527D01*
X112783090Y-42664533D01*
X112603212Y-42804538D01*
X112603208Y-42804541D01*
X112448814Y-42972257D01*
X112324137Y-43163091D01*
X112232569Y-43371844D01*
X112176610Y-43592820D01*
X112176608Y-43592831D01*
X112157786Y-43819993D01*
X112157786Y-43820006D01*
X109838214Y-43820006D01*
X109838214Y-43820000D01*
X109838214Y-43819993D01*
X109819391Y-43592831D01*
X109819389Y-43592820D01*
X109763430Y-43371844D01*
X109671862Y-43163091D01*
X109547185Y-42972257D01*
X109449784Y-42866452D01*
X109392794Y-42804544D01*
X109392793Y-42804543D01*
X109392791Y-42804541D01*
X109392787Y-42804538D01*
X109212909Y-42664533D01*
X109212900Y-42664527D01*
X109012432Y-42556040D01*
X109012429Y-42556039D01*
X109012426Y-42556037D01*
X109012420Y-42556035D01*
X109012418Y-42556034D01*
X108796826Y-42482020D01*
X108628188Y-42453880D01*
X108571977Y-42444500D01*
X108344023Y-42444500D01*
X108319453Y-42448600D01*
X108119173Y-42482020D01*
X107903581Y-42556034D01*
X107903567Y-42556040D01*
X107703099Y-42664527D01*
X107703090Y-42664533D01*
X107523212Y-42804538D01*
X107523208Y-42804541D01*
X107368814Y-42972257D01*
X107244137Y-43163091D01*
X107152569Y-43371844D01*
X107096610Y-43592820D01*
X107096608Y-43592831D01*
X107077786Y-43819993D01*
X107077786Y-43820006D01*
X102500500Y-43820006D01*
X102500500Y-41280000D01*
X109717628Y-41280000D01*
X109737079Y-41502329D01*
X109737081Y-41502339D01*
X109794841Y-41717905D01*
X109794843Y-41717909D01*
X109794844Y-41717913D01*
X109889165Y-41920186D01*
X110017178Y-42103007D01*
X110174993Y-42260822D01*
X110357814Y-42388835D01*
X110560087Y-42483156D01*
X110560093Y-42483157D01*
X110560094Y-42483158D01*
X110611980Y-42497060D01*
X110775666Y-42540920D01*
X110948486Y-42556040D01*
X110997999Y-42560372D01*
X110998000Y-42560372D01*
X110998001Y-42560372D01*
X111047514Y-42556040D01*
X111220334Y-42540920D01*
X111435913Y-42483156D01*
X111638186Y-42388835D01*
X111821007Y-42260822D01*
X111978822Y-42103007D01*
X112106835Y-41920186D01*
X112201156Y-41717913D01*
X112258920Y-41502334D01*
X112278372Y-41280000D01*
X112277934Y-41274999D01*
X112266823Y-41148000D01*
X124168750Y-41148000D01*
X124186813Y-41285203D01*
X124187670Y-41291708D01*
X124187671Y-41291712D01*
X124243137Y-41425622D01*
X124243138Y-41425624D01*
X124243139Y-41425625D01*
X124331379Y-41540621D01*
X124446375Y-41628861D01*
X124580291Y-41684330D01*
X124707280Y-41701048D01*
X124723999Y-41703250D01*
X124724000Y-41703250D01*
X124724001Y-41703250D01*
X124738977Y-41701278D01*
X124867709Y-41684330D01*
X125001625Y-41628861D01*
X125116621Y-41540621D01*
X125204861Y-41425625D01*
X125260330Y-41291709D01*
X125279250Y-41148000D01*
X140678750Y-41148000D01*
X140696813Y-41285203D01*
X140697670Y-41291708D01*
X140697671Y-41291712D01*
X140753137Y-41425622D01*
X140753138Y-41425624D01*
X140753139Y-41425625D01*
X140841379Y-41540621D01*
X140956375Y-41628861D01*
X141090291Y-41684330D01*
X141217280Y-41701048D01*
X141233999Y-41703250D01*
X141234000Y-41703250D01*
X141234001Y-41703250D01*
X141248977Y-41701278D01*
X141377709Y-41684330D01*
X141511625Y-41628861D01*
X141626621Y-41540621D01*
X141714861Y-41425625D01*
X141770330Y-41291709D01*
X141789250Y-41148000D01*
X156680750Y-41148000D01*
X156698813Y-41285203D01*
X156699670Y-41291708D01*
X156699671Y-41291712D01*
X156755137Y-41425622D01*
X156755138Y-41425624D01*
X156755139Y-41425625D01*
X156843379Y-41540621D01*
X156958375Y-41628861D01*
X157092291Y-41684330D01*
X157219280Y-41701048D01*
X157235999Y-41703250D01*
X157236000Y-41703250D01*
X157236001Y-41703250D01*
X157250977Y-41701278D01*
X157379709Y-41684330D01*
X157513625Y-41628861D01*
X157628621Y-41540621D01*
X157716861Y-41425625D01*
X157772330Y-41291709D01*
X157791250Y-41148000D01*
X172682750Y-41148000D01*
X172700813Y-41285203D01*
X172701670Y-41291708D01*
X172701671Y-41291712D01*
X172757137Y-41425622D01*
X172757138Y-41425624D01*
X172757139Y-41425625D01*
X172845379Y-41540621D01*
X172960375Y-41628861D01*
X173094291Y-41684330D01*
X173221280Y-41701048D01*
X173237999Y-41703250D01*
X173238000Y-41703250D01*
X173238001Y-41703250D01*
X173252977Y-41701278D01*
X173381709Y-41684330D01*
X173515625Y-41628861D01*
X173630621Y-41540621D01*
X173718861Y-41425625D01*
X173774330Y-41291709D01*
X173793250Y-41148000D01*
X188684750Y-41148000D01*
X188702813Y-41285203D01*
X188703670Y-41291708D01*
X188703671Y-41291712D01*
X188759137Y-41425622D01*
X188759138Y-41425624D01*
X188759139Y-41425625D01*
X188847379Y-41540621D01*
X188962375Y-41628861D01*
X189096291Y-41684330D01*
X189223280Y-41701048D01*
X189239999Y-41703250D01*
X189240000Y-41703250D01*
X189240001Y-41703250D01*
X189254977Y-41701278D01*
X189383709Y-41684330D01*
X189517625Y-41628861D01*
X189632621Y-41540621D01*
X189720861Y-41425625D01*
X189776330Y-41291709D01*
X189777872Y-41280000D01*
X203443628Y-41280000D01*
X203463079Y-41502329D01*
X203463081Y-41502339D01*
X203520841Y-41717905D01*
X203520843Y-41717909D01*
X203520844Y-41717913D01*
X203615165Y-41920186D01*
X203743178Y-42103007D01*
X203900993Y-42260822D01*
X204083814Y-42388835D01*
X204286087Y-42483156D01*
X204286093Y-42483157D01*
X204286094Y-42483158D01*
X204337980Y-42497060D01*
X204501666Y-42540920D01*
X204674486Y-42556040D01*
X204723999Y-42560372D01*
X204724000Y-42560372D01*
X204724001Y-42560372D01*
X204773514Y-42556040D01*
X204946334Y-42540920D01*
X205161913Y-42483156D01*
X205364186Y-42388835D01*
X205547007Y-42260822D01*
X205704822Y-42103007D01*
X205832835Y-41920186D01*
X205927156Y-41717913D01*
X205984920Y-41502334D01*
X206004372Y-41280000D01*
X206003934Y-41275000D01*
X214032785Y-41275000D01*
X214051602Y-41478082D01*
X214107417Y-41674247D01*
X214107422Y-41674260D01*
X214198327Y-41856821D01*
X214321237Y-42019581D01*
X214471958Y-42156980D01*
X214471960Y-42156982D01*
X214571141Y-42218392D01*
X214645363Y-42264348D01*
X214835544Y-42338024D01*
X215036024Y-42375500D01*
X215036026Y-42375500D01*
X215239974Y-42375500D01*
X215239976Y-42375500D01*
X215440456Y-42338024D01*
X215630637Y-42264348D01*
X215804041Y-42156981D01*
X215954764Y-42019579D01*
X216077673Y-41856821D01*
X216158972Y-41693550D01*
X216164817Y-41681812D01*
X216212319Y-41630575D01*
X216279982Y-41613153D01*
X216346323Y-41635078D01*
X216390278Y-41689389D01*
X216395592Y-41704989D01*
X216404567Y-41738485D01*
X216404570Y-41738492D01*
X216504399Y-41952578D01*
X216639894Y-42146082D01*
X216806917Y-42313105D01*
X217000421Y-42448600D01*
X217214507Y-42548429D01*
X217214516Y-42548433D01*
X217253583Y-42558901D01*
X217313244Y-42595266D01*
X217343773Y-42658113D01*
X217335479Y-42727488D01*
X217290993Y-42781366D01*
X217266284Y-42794302D01*
X217185373Y-42825647D01*
X217185357Y-42825655D01*
X217011960Y-42933017D01*
X217011958Y-42933019D01*
X216861237Y-43070418D01*
X216738327Y-43233178D01*
X216647422Y-43415739D01*
X216647417Y-43415752D01*
X216591602Y-43611917D01*
X216572785Y-43814999D01*
X216572785Y-43815000D01*
X216591602Y-44018082D01*
X216647417Y-44214247D01*
X216647422Y-44214260D01*
X216738327Y-44396821D01*
X216861237Y-44559581D01*
X217011958Y-44696980D01*
X217011960Y-44696982D01*
X217111141Y-44758392D01*
X217185363Y-44804348D01*
X217375544Y-44878024D01*
X217576024Y-44915500D01*
X217576026Y-44915500D01*
X217779974Y-44915500D01*
X217779976Y-44915500D01*
X217980456Y-44878024D01*
X218170637Y-44804348D01*
X218344041Y-44696981D01*
X218494764Y-44559579D01*
X218617673Y-44396821D01*
X218708582Y-44214250D01*
X218764397Y-44018083D01*
X218783215Y-43815000D01*
X218764397Y-43611917D01*
X218708582Y-43415750D01*
X218617673Y-43233179D01*
X218494764Y-43070421D01*
X218494762Y-43070418D01*
X218344041Y-42933019D01*
X218344039Y-42933017D01*
X218170642Y-42825655D01*
X218170635Y-42825651D01*
X218089715Y-42794303D01*
X218034313Y-42751730D01*
X218010723Y-42685963D01*
X218026434Y-42617883D01*
X218076458Y-42569104D01*
X218102417Y-42558901D01*
X218141481Y-42548434D01*
X218141492Y-42548429D01*
X218355578Y-42448600D01*
X218549082Y-42313105D01*
X218716105Y-42146082D01*
X218851600Y-41952578D01*
X218951429Y-41738492D01*
X218951432Y-41738486D01*
X219008636Y-41525000D01*
X218111012Y-41525000D01*
X218143925Y-41467993D01*
X218178000Y-41340826D01*
X218178000Y-41209174D01*
X218143925Y-41082007D01*
X218111012Y-41025000D01*
X219008636Y-41025000D01*
X219008635Y-41024999D01*
X218951432Y-40811513D01*
X218951429Y-40811507D01*
X218865786Y-40627844D01*
X221700000Y-40627844D01*
X221706401Y-40687372D01*
X221706403Y-40687379D01*
X221756645Y-40822086D01*
X221756649Y-40822093D01*
X221842809Y-40937187D01*
X221842812Y-40937190D01*
X221957906Y-41023350D01*
X221957913Y-41023354D01*
X222092620Y-41073596D01*
X222092627Y-41073598D01*
X222152155Y-41079999D01*
X222152172Y-41080000D01*
X222521521Y-41080000D01*
X222588560Y-41099685D01*
X222634315Y-41152489D01*
X222644259Y-41221647D01*
X222615234Y-41285203D01*
X222579974Y-41313358D01*
X222413550Y-41402315D01*
X222413548Y-41402316D01*
X222413547Y-41402317D01*
X222253589Y-41533589D01*
X222122317Y-41693547D01*
X222122315Y-41693550D01*
X222116201Y-41704989D01*
X222024769Y-41876043D01*
X221964699Y-42074067D01*
X221944417Y-42280000D01*
X221964699Y-42485932D01*
X221983659Y-42548434D01*
X222024768Y-42683954D01*
X222122315Y-42866450D01*
X222122317Y-42866452D01*
X222253589Y-43026410D01*
X222350209Y-43105702D01*
X222413550Y-43157685D01*
X222596046Y-43255232D01*
X222794066Y-43315300D01*
X222794065Y-43315300D01*
X222812529Y-43317118D01*
X223000000Y-43335583D01*
X223205934Y-43315300D01*
X223403954Y-43255232D01*
X223586450Y-43157685D01*
X223746410Y-43026410D01*
X223877685Y-42866450D01*
X223975232Y-42683954D01*
X224035300Y-42485934D01*
X224055583Y-42280000D01*
X224035300Y-42074066D01*
X223975232Y-41876046D01*
X223877685Y-41693550D01*
X223786145Y-41582007D01*
X223746410Y-41533589D01*
X223586452Y-41402317D01*
X223586453Y-41402317D01*
X223586450Y-41402315D01*
X223420025Y-41313358D01*
X223370181Y-41264395D01*
X223354721Y-41196257D01*
X223378553Y-41130578D01*
X223434111Y-41088209D01*
X223478479Y-41080000D01*
X223847828Y-41080000D01*
X223847844Y-41079999D01*
X223907372Y-41073598D01*
X223907379Y-41073596D01*
X224042086Y-41023354D01*
X224042093Y-41023350D01*
X224157187Y-40937190D01*
X224157190Y-40937187D01*
X224243350Y-40822093D01*
X224243354Y-40822086D01*
X224293596Y-40687379D01*
X224293598Y-40687372D01*
X224299999Y-40627844D01*
X224300000Y-40627827D01*
X224300000Y-40030000D01*
X223315686Y-40030000D01*
X223320080Y-40025606D01*
X223372741Y-39934394D01*
X223400000Y-39832661D01*
X223400000Y-39727339D01*
X223372741Y-39625606D01*
X223320080Y-39534394D01*
X223315686Y-39530000D01*
X224300000Y-39530000D01*
X224300000Y-38932172D01*
X224299999Y-38932155D01*
X224293598Y-38872627D01*
X224293596Y-38872620D01*
X224243354Y-38737913D01*
X224243350Y-38737906D01*
X224157190Y-38622812D01*
X224157187Y-38622809D01*
X224042093Y-38536649D01*
X224042086Y-38536645D01*
X223907379Y-38486403D01*
X223907372Y-38486401D01*
X223847844Y-38480000D01*
X223250000Y-38480000D01*
X223250000Y-39464314D01*
X223245606Y-39459920D01*
X223154394Y-39407259D01*
X223052661Y-39380000D01*
X222947339Y-39380000D01*
X222845606Y-39407259D01*
X222754394Y-39459920D01*
X222750000Y-39464314D01*
X222750000Y-38480000D01*
X222152155Y-38480000D01*
X222092627Y-38486401D01*
X222092620Y-38486403D01*
X221957913Y-38536645D01*
X221957906Y-38536649D01*
X221842812Y-38622809D01*
X221842809Y-38622812D01*
X221756649Y-38737906D01*
X221756645Y-38737913D01*
X221706403Y-38872620D01*
X221706401Y-38872627D01*
X221700000Y-38932155D01*
X221700000Y-39530000D01*
X222684314Y-39530000D01*
X222679920Y-39534394D01*
X222627259Y-39625606D01*
X222600000Y-39727339D01*
X222600000Y-39832661D01*
X222627259Y-39934394D01*
X222679920Y-40025606D01*
X222684314Y-40030000D01*
X221700000Y-40030000D01*
X221700000Y-40627844D01*
X218865786Y-40627844D01*
X218851600Y-40597422D01*
X218851599Y-40597420D01*
X218716113Y-40403926D01*
X218716108Y-40403920D01*
X218549082Y-40236894D01*
X218362968Y-40106575D01*
X218319344Y-40051998D01*
X218312151Y-39982499D01*
X218343673Y-39920145D01*
X218362968Y-39903425D01*
X218549082Y-39773105D01*
X218716105Y-39606082D01*
X218851600Y-39412578D01*
X218951429Y-39198492D01*
X218951432Y-39198486D01*
X219008636Y-38985000D01*
X218111012Y-38985000D01*
X218143925Y-38927993D01*
X218178000Y-38800826D01*
X218178000Y-38669174D01*
X218143925Y-38542007D01*
X218111012Y-38485000D01*
X219008636Y-38485000D01*
X219008635Y-38484999D01*
X218951432Y-38271513D01*
X218951429Y-38271507D01*
X218851600Y-38057422D01*
X218851599Y-38057420D01*
X218716113Y-37863926D01*
X218716108Y-37863920D01*
X218549082Y-37696894D01*
X218362968Y-37566575D01*
X218319344Y-37511998D01*
X218312151Y-37442499D01*
X218343673Y-37380145D01*
X218362968Y-37363425D01*
X218549082Y-37233105D01*
X218716105Y-37066082D01*
X218851600Y-36872578D01*
X218951429Y-36658492D01*
X218951432Y-36658486D01*
X219008636Y-36445000D01*
X218111012Y-36445000D01*
X218143925Y-36387993D01*
X218178000Y-36260826D01*
X218178000Y-36129174D01*
X218143925Y-36002007D01*
X218111012Y-35945000D01*
X219008636Y-35945000D01*
X219008635Y-35944999D01*
X218951432Y-35731513D01*
X218951429Y-35731507D01*
X218851600Y-35517422D01*
X218851599Y-35517420D01*
X218716113Y-35323926D01*
X218716108Y-35323920D01*
X218549082Y-35156894D01*
X218355578Y-35021399D01*
X218141492Y-34921570D01*
X218141486Y-34921567D01*
X217928000Y-34864364D01*
X217928000Y-35761988D01*
X217870993Y-35729075D01*
X217743826Y-35695000D01*
X217612174Y-35695000D01*
X217485007Y-35729075D01*
X217428000Y-35761988D01*
X217428000Y-34864364D01*
X217427999Y-34864364D01*
X217214513Y-34921567D01*
X217214507Y-34921570D01*
X217000422Y-35021399D01*
X217000420Y-35021400D01*
X216806926Y-35156886D01*
X216806920Y-35156891D01*
X216639891Y-35323920D01*
X216639886Y-35323926D01*
X216504400Y-35517420D01*
X216504399Y-35517422D01*
X216474882Y-35580723D01*
X216428710Y-35633162D01*
X216361516Y-35652314D01*
X216294635Y-35632098D01*
X216249300Y-35578933D01*
X216238500Y-35528318D01*
X216238500Y-35320323D01*
X216238499Y-35320321D01*
X216223967Y-35247264D01*
X216223966Y-35247260D01*
X216168601Y-35164399D01*
X216105557Y-35122275D01*
X216085739Y-35109033D01*
X216085735Y-35109032D01*
X216012677Y-35094500D01*
X216012674Y-35094500D01*
X214263326Y-35094500D01*
X214263323Y-35094500D01*
X214190264Y-35109032D01*
X214190260Y-35109033D01*
X214107399Y-35164399D01*
X214052033Y-35247260D01*
X214052032Y-35247264D01*
X214037500Y-35320321D01*
X214037500Y-37069678D01*
X214052032Y-37142735D01*
X214052033Y-37142739D01*
X214052034Y-37142740D01*
X214107399Y-37225601D01*
X214190260Y-37280966D01*
X214190264Y-37280967D01*
X214263321Y-37295499D01*
X214263324Y-37295500D01*
X214263326Y-37295500D01*
X216012676Y-37295500D01*
X216012677Y-37295499D01*
X216085740Y-37280966D01*
X216168601Y-37225601D01*
X216223966Y-37142740D01*
X216238500Y-37069674D01*
X216238500Y-36861681D01*
X216258185Y-36794642D01*
X216310989Y-36748887D01*
X216380147Y-36738943D01*
X216443703Y-36767968D01*
X216474882Y-36809277D01*
X216504398Y-36872575D01*
X216504399Y-36872577D01*
X216639894Y-37066082D01*
X216806917Y-37233105D01*
X216993031Y-37363425D01*
X217036656Y-37418003D01*
X217043848Y-37487501D01*
X217012326Y-37549856D01*
X216993031Y-37566575D01*
X216806922Y-37696890D01*
X216806920Y-37696891D01*
X216639891Y-37863920D01*
X216639886Y-37863926D01*
X216504400Y-38057420D01*
X216504399Y-38057422D01*
X216404570Y-38271507D01*
X216404568Y-38271511D01*
X216395592Y-38305011D01*
X216359226Y-38364671D01*
X216296379Y-38395199D01*
X216227003Y-38386904D01*
X216173126Y-38342418D01*
X216164817Y-38328188D01*
X216118415Y-38235000D01*
X216077673Y-38153179D01*
X215954764Y-37990421D01*
X215954762Y-37990418D01*
X215804041Y-37853019D01*
X215804039Y-37853017D01*
X215630642Y-37745655D01*
X215630635Y-37745651D01*
X215504767Y-37696890D01*
X215440456Y-37671976D01*
X215239976Y-37634500D01*
X215036024Y-37634500D01*
X214835544Y-37671976D01*
X214835541Y-37671976D01*
X214835541Y-37671977D01*
X214645364Y-37745651D01*
X214645357Y-37745655D01*
X214471960Y-37853017D01*
X214471958Y-37853019D01*
X214321237Y-37990418D01*
X214198327Y-38153178D01*
X214107422Y-38335739D01*
X214107417Y-38335752D01*
X214051602Y-38531917D01*
X214032785Y-38734999D01*
X214032785Y-38735000D01*
X214051602Y-38938082D01*
X214107417Y-39134247D01*
X214107422Y-39134260D01*
X214198327Y-39316821D01*
X214321237Y-39479581D01*
X214471958Y-39616980D01*
X214471960Y-39616982D01*
X214571141Y-39678392D01*
X214645363Y-39724348D01*
X214835544Y-39798024D01*
X215036024Y-39835500D01*
X215036026Y-39835500D01*
X215239974Y-39835500D01*
X215239976Y-39835500D01*
X215440456Y-39798024D01*
X215630637Y-39724348D01*
X215804041Y-39616981D01*
X215953983Y-39480291D01*
X215954762Y-39479581D01*
X215954764Y-39479579D01*
X216077673Y-39316821D01*
X216164817Y-39141812D01*
X216212319Y-39090575D01*
X216279982Y-39073153D01*
X216346323Y-39095078D01*
X216390278Y-39149389D01*
X216395592Y-39164989D01*
X216404567Y-39198485D01*
X216404570Y-39198492D01*
X216504399Y-39412578D01*
X216639894Y-39606082D01*
X216806917Y-39773105D01*
X216993031Y-39903425D01*
X217036656Y-39958003D01*
X217043848Y-40027501D01*
X217012326Y-40089856D01*
X216993031Y-40106575D01*
X216806922Y-40236890D01*
X216806920Y-40236891D01*
X216639891Y-40403920D01*
X216639886Y-40403926D01*
X216504400Y-40597420D01*
X216504399Y-40597422D01*
X216404570Y-40811507D01*
X216404568Y-40811511D01*
X216395592Y-40845011D01*
X216359226Y-40904671D01*
X216296379Y-40935199D01*
X216227003Y-40926904D01*
X216173126Y-40882418D01*
X216164817Y-40868188D01*
X216108645Y-40755379D01*
X216077673Y-40693179D01*
X215954764Y-40530421D01*
X215954762Y-40530418D01*
X215804041Y-40393019D01*
X215804039Y-40393017D01*
X215630642Y-40285655D01*
X215630635Y-40285651D01*
X215504767Y-40236890D01*
X215440456Y-40211976D01*
X215239976Y-40174500D01*
X215036024Y-40174500D01*
X214835544Y-40211976D01*
X214835541Y-40211976D01*
X214835541Y-40211977D01*
X214645364Y-40285651D01*
X214645357Y-40285655D01*
X214471960Y-40393017D01*
X214471958Y-40393019D01*
X214321237Y-40530418D01*
X214198327Y-40693178D01*
X214107422Y-40875739D01*
X214107417Y-40875752D01*
X214051602Y-41071917D01*
X214032785Y-41274999D01*
X214032785Y-41275000D01*
X206003934Y-41275000D01*
X206003934Y-41274999D01*
X205987592Y-41088209D01*
X205984920Y-41057666D01*
X205937963Y-40882418D01*
X205927158Y-40842094D01*
X205927157Y-40842093D01*
X205927156Y-40842087D01*
X205832835Y-40639814D01*
X205704822Y-40456993D01*
X205547007Y-40299178D01*
X205364186Y-40171165D01*
X205161913Y-40076844D01*
X205161909Y-40076843D01*
X205161905Y-40076841D01*
X204946339Y-40019081D01*
X204946329Y-40019079D01*
X204724001Y-39999628D01*
X204723999Y-39999628D01*
X204501670Y-40019079D01*
X204501660Y-40019081D01*
X204286094Y-40076841D01*
X204286087Y-40076843D01*
X204286087Y-40076844D01*
X204083814Y-40171165D01*
X203900993Y-40299178D01*
X203900991Y-40299179D01*
X203900988Y-40299182D01*
X203743182Y-40456988D01*
X203615165Y-40639814D01*
X203520845Y-40842085D01*
X203520841Y-40842094D01*
X203463081Y-41057660D01*
X203463079Y-41057670D01*
X203443628Y-41279999D01*
X203443628Y-41280000D01*
X189777872Y-41280000D01*
X189795250Y-41148000D01*
X189776330Y-41004291D01*
X189723088Y-40875752D01*
X189720862Y-40870377D01*
X189720861Y-40870376D01*
X189720861Y-40870375D01*
X189632621Y-40755379D01*
X189517625Y-40667139D01*
X189517624Y-40667138D01*
X189517622Y-40667137D01*
X189383712Y-40611671D01*
X189383710Y-40611670D01*
X189383709Y-40611670D01*
X189275472Y-40597420D01*
X189240001Y-40592750D01*
X189239999Y-40592750D01*
X189096291Y-40611670D01*
X189096287Y-40611671D01*
X188962377Y-40667137D01*
X188847379Y-40755379D01*
X188759137Y-40870377D01*
X188703671Y-41004287D01*
X188703670Y-41004291D01*
X188693703Y-41080000D01*
X188684750Y-41148000D01*
X173793250Y-41148000D01*
X173774330Y-41004291D01*
X173721088Y-40875752D01*
X173718862Y-40870377D01*
X173718861Y-40870376D01*
X173718861Y-40870375D01*
X173630621Y-40755379D01*
X173515625Y-40667139D01*
X173515624Y-40667138D01*
X173515622Y-40667137D01*
X173381712Y-40611671D01*
X173381710Y-40611670D01*
X173381709Y-40611670D01*
X173273472Y-40597420D01*
X173238001Y-40592750D01*
X173237999Y-40592750D01*
X173094291Y-40611670D01*
X173094287Y-40611671D01*
X172960377Y-40667137D01*
X172845379Y-40755379D01*
X172757137Y-40870377D01*
X172701671Y-41004287D01*
X172701670Y-41004291D01*
X172691703Y-41080000D01*
X172682750Y-41148000D01*
X157791250Y-41148000D01*
X157772330Y-41004291D01*
X157719088Y-40875752D01*
X157716862Y-40870377D01*
X157716861Y-40870376D01*
X157716861Y-40870375D01*
X157628621Y-40755379D01*
X157513625Y-40667139D01*
X157513624Y-40667138D01*
X157513622Y-40667137D01*
X157379712Y-40611671D01*
X157379710Y-40611670D01*
X157379709Y-40611670D01*
X157271472Y-40597420D01*
X157236001Y-40592750D01*
X157235999Y-40592750D01*
X157092291Y-40611670D01*
X157092287Y-40611671D01*
X156958377Y-40667137D01*
X156843379Y-40755379D01*
X156755137Y-40870377D01*
X156699671Y-41004287D01*
X156699670Y-41004291D01*
X156689703Y-41080000D01*
X156680750Y-41148000D01*
X141789250Y-41148000D01*
X141770330Y-41004291D01*
X141717088Y-40875752D01*
X141714862Y-40870377D01*
X141714861Y-40870376D01*
X141714861Y-40870375D01*
X141626621Y-40755379D01*
X141511625Y-40667139D01*
X141511624Y-40667138D01*
X141511622Y-40667137D01*
X141377712Y-40611671D01*
X141377710Y-40611670D01*
X141377709Y-40611670D01*
X141269472Y-40597420D01*
X141234001Y-40592750D01*
X141233999Y-40592750D01*
X141090291Y-40611670D01*
X141090287Y-40611671D01*
X140956377Y-40667137D01*
X140841379Y-40755379D01*
X140753137Y-40870377D01*
X140697671Y-41004287D01*
X140697670Y-41004291D01*
X140687703Y-41080000D01*
X140678750Y-41148000D01*
X125279250Y-41148000D01*
X125260330Y-41004291D01*
X125207088Y-40875752D01*
X125204862Y-40870377D01*
X125204861Y-40870376D01*
X125204861Y-40870375D01*
X125116621Y-40755379D01*
X125001625Y-40667139D01*
X125001624Y-40667138D01*
X125001622Y-40667137D01*
X124867712Y-40611671D01*
X124867710Y-40611670D01*
X124867709Y-40611670D01*
X124759472Y-40597420D01*
X124724001Y-40592750D01*
X124723999Y-40592750D01*
X124580291Y-40611670D01*
X124580287Y-40611671D01*
X124446377Y-40667137D01*
X124331379Y-40755379D01*
X124243137Y-40870377D01*
X124187671Y-41004287D01*
X124187670Y-41004291D01*
X124177703Y-41080000D01*
X124168750Y-41148000D01*
X112266823Y-41148000D01*
X112261592Y-41088209D01*
X112258920Y-41057666D01*
X112211963Y-40882418D01*
X112201158Y-40842094D01*
X112201157Y-40842093D01*
X112201156Y-40842087D01*
X112106835Y-40639814D01*
X111978822Y-40456993D01*
X111821007Y-40299178D01*
X111638186Y-40171165D01*
X111435913Y-40076844D01*
X111435909Y-40076843D01*
X111435905Y-40076841D01*
X111220339Y-40019081D01*
X111220329Y-40019079D01*
X110998001Y-39999628D01*
X110997999Y-39999628D01*
X110775670Y-40019079D01*
X110775660Y-40019081D01*
X110560094Y-40076841D01*
X110560087Y-40076843D01*
X110560087Y-40076844D01*
X110357814Y-40171165D01*
X110174993Y-40299178D01*
X110174991Y-40299179D01*
X110174988Y-40299182D01*
X110017182Y-40456988D01*
X109889165Y-40639814D01*
X109794845Y-40842085D01*
X109794841Y-40842094D01*
X109737081Y-41057660D01*
X109737079Y-41057670D01*
X109717628Y-41279999D01*
X109717628Y-41280000D01*
X102500500Y-41280000D01*
X102500500Y-38740006D01*
X107077786Y-38740006D01*
X107096608Y-38967168D01*
X107096610Y-38967179D01*
X107152569Y-39188155D01*
X107244137Y-39396908D01*
X107368814Y-39587742D01*
X107461450Y-39688371D01*
X107497322Y-39727339D01*
X107523208Y-39755458D01*
X107523212Y-39755461D01*
X107626046Y-39835500D01*
X107703094Y-39895469D01*
X107703096Y-39895470D01*
X107703099Y-39895472D01*
X107714469Y-39901625D01*
X107903574Y-40003963D01*
X107979417Y-40030000D01*
X108119173Y-40077979D01*
X108119175Y-40077979D01*
X108119177Y-40077980D01*
X108344023Y-40115500D01*
X108344024Y-40115500D01*
X108571976Y-40115500D01*
X108571977Y-40115500D01*
X108796823Y-40077980D01*
X109012426Y-40003963D01*
X109212906Y-39895469D01*
X109392794Y-39755456D01*
X109547183Y-39587745D01*
X109671862Y-39396909D01*
X109763430Y-39188155D01*
X109819390Y-38967176D01*
X109821801Y-38938082D01*
X109838214Y-38740006D01*
X112157786Y-38740006D01*
X112176608Y-38967168D01*
X112176610Y-38967179D01*
X112232569Y-39188155D01*
X112324137Y-39396908D01*
X112448814Y-39587742D01*
X112541450Y-39688371D01*
X112577322Y-39727339D01*
X112603208Y-39755458D01*
X112603212Y-39755461D01*
X112706046Y-39835500D01*
X112783094Y-39895469D01*
X112783096Y-39895470D01*
X112783099Y-39895472D01*
X112794469Y-39901625D01*
X112983574Y-40003963D01*
X113059417Y-40030000D01*
X113199173Y-40077979D01*
X113199175Y-40077979D01*
X113199177Y-40077980D01*
X113424023Y-40115500D01*
X113424024Y-40115500D01*
X113651976Y-40115500D01*
X113651977Y-40115500D01*
X113876823Y-40077980D01*
X114092426Y-40003963D01*
X114292906Y-39895469D01*
X114472794Y-39755456D01*
X114593808Y-39624000D01*
X119596750Y-39624000D01*
X119614057Y-39755461D01*
X119615670Y-39767708D01*
X119615671Y-39767712D01*
X119671137Y-39901622D01*
X119671138Y-39901624D01*
X119671139Y-39901625D01*
X119759379Y-40016621D01*
X119874375Y-40104861D01*
X120008291Y-40160330D01*
X120135280Y-40177048D01*
X120151999Y-40179250D01*
X120152000Y-40179250D01*
X120152001Y-40179250D01*
X120166977Y-40177278D01*
X120295709Y-40160330D01*
X120429625Y-40104861D01*
X120544621Y-40016621D01*
X120632861Y-39901625D01*
X120688330Y-39767709D01*
X120707250Y-39624000D01*
X136106750Y-39624000D01*
X136124057Y-39755461D01*
X136125670Y-39767708D01*
X136125671Y-39767712D01*
X136181137Y-39901622D01*
X136181138Y-39901624D01*
X136181139Y-39901625D01*
X136269379Y-40016621D01*
X136384375Y-40104861D01*
X136518291Y-40160330D01*
X136645280Y-40177048D01*
X136661999Y-40179250D01*
X136662000Y-40179250D01*
X136662001Y-40179250D01*
X136676977Y-40177278D01*
X136805709Y-40160330D01*
X136939625Y-40104861D01*
X137054621Y-40016621D01*
X137142861Y-39901625D01*
X137198330Y-39767709D01*
X137217250Y-39624000D01*
X152108750Y-39624000D01*
X152126057Y-39755461D01*
X152127670Y-39767708D01*
X152127671Y-39767712D01*
X152183137Y-39901622D01*
X152183138Y-39901624D01*
X152183139Y-39901625D01*
X152271379Y-40016621D01*
X152386375Y-40104861D01*
X152520291Y-40160330D01*
X152647280Y-40177048D01*
X152663999Y-40179250D01*
X152664000Y-40179250D01*
X152664001Y-40179250D01*
X152678977Y-40177278D01*
X152807709Y-40160330D01*
X152941625Y-40104861D01*
X153056621Y-40016621D01*
X153144861Y-39901625D01*
X153200330Y-39767709D01*
X153219250Y-39624000D01*
X168110750Y-39624000D01*
X168128057Y-39755461D01*
X168129670Y-39767708D01*
X168129671Y-39767712D01*
X168185137Y-39901622D01*
X168185138Y-39901624D01*
X168185139Y-39901625D01*
X168273379Y-40016621D01*
X168388375Y-40104861D01*
X168522291Y-40160330D01*
X168649280Y-40177048D01*
X168665999Y-40179250D01*
X168666000Y-40179250D01*
X168666001Y-40179250D01*
X168680977Y-40177278D01*
X168809709Y-40160330D01*
X168943625Y-40104861D01*
X169058621Y-40016621D01*
X169146861Y-39901625D01*
X169202330Y-39767709D01*
X169221250Y-39624000D01*
X184112750Y-39624000D01*
X184130057Y-39755461D01*
X184131670Y-39767708D01*
X184131671Y-39767712D01*
X184187137Y-39901622D01*
X184187138Y-39901624D01*
X184187139Y-39901625D01*
X184275379Y-40016621D01*
X184390375Y-40104861D01*
X184524291Y-40160330D01*
X184651280Y-40177048D01*
X184667999Y-40179250D01*
X184668000Y-40179250D01*
X184668001Y-40179250D01*
X184682977Y-40177278D01*
X184811709Y-40160330D01*
X184945625Y-40104861D01*
X185060621Y-40016621D01*
X185148861Y-39901625D01*
X185204330Y-39767709D01*
X185223250Y-39624000D01*
X185204330Y-39480291D01*
X185148861Y-39346375D01*
X185060621Y-39231379D01*
X184945625Y-39143139D01*
X184945624Y-39143138D01*
X184945622Y-39143137D01*
X184811712Y-39087671D01*
X184811710Y-39087670D01*
X184811709Y-39087670D01*
X184739854Y-39078210D01*
X184668001Y-39068750D01*
X184667999Y-39068750D01*
X184524291Y-39087670D01*
X184524287Y-39087671D01*
X184390377Y-39143137D01*
X184275379Y-39231379D01*
X184187137Y-39346377D01*
X184131671Y-39480287D01*
X184131670Y-39480291D01*
X184117524Y-39587742D01*
X184112750Y-39624000D01*
X169221250Y-39624000D01*
X169202330Y-39480291D01*
X169146861Y-39346375D01*
X169058621Y-39231379D01*
X168943625Y-39143139D01*
X168943624Y-39143138D01*
X168943622Y-39143137D01*
X168809712Y-39087671D01*
X168809710Y-39087670D01*
X168809709Y-39087670D01*
X168737854Y-39078210D01*
X168666001Y-39068750D01*
X168665999Y-39068750D01*
X168522291Y-39087670D01*
X168522287Y-39087671D01*
X168388377Y-39143137D01*
X168273379Y-39231379D01*
X168185137Y-39346377D01*
X168129671Y-39480287D01*
X168129670Y-39480291D01*
X168115524Y-39587742D01*
X168110750Y-39624000D01*
X153219250Y-39624000D01*
X153200330Y-39480291D01*
X153144861Y-39346375D01*
X153056621Y-39231379D01*
X152941625Y-39143139D01*
X152941624Y-39143138D01*
X152941622Y-39143137D01*
X152807712Y-39087671D01*
X152807710Y-39087670D01*
X152807709Y-39087670D01*
X152735854Y-39078210D01*
X152664001Y-39068750D01*
X152663999Y-39068750D01*
X152520291Y-39087670D01*
X152520287Y-39087671D01*
X152386377Y-39143137D01*
X152271379Y-39231379D01*
X152183137Y-39346377D01*
X152127671Y-39480287D01*
X152127670Y-39480291D01*
X152113524Y-39587742D01*
X152108750Y-39624000D01*
X137217250Y-39624000D01*
X137198330Y-39480291D01*
X137142861Y-39346375D01*
X137054621Y-39231379D01*
X136939625Y-39143139D01*
X136939624Y-39143138D01*
X136939622Y-39143137D01*
X136805712Y-39087671D01*
X136805710Y-39087670D01*
X136805709Y-39087670D01*
X136733854Y-39078210D01*
X136662001Y-39068750D01*
X136661999Y-39068750D01*
X136518291Y-39087670D01*
X136518287Y-39087671D01*
X136384377Y-39143137D01*
X136269379Y-39231379D01*
X136181137Y-39346377D01*
X136125671Y-39480287D01*
X136125670Y-39480291D01*
X136111524Y-39587742D01*
X136106750Y-39624000D01*
X120707250Y-39624000D01*
X120688330Y-39480291D01*
X120632861Y-39346375D01*
X120544621Y-39231379D01*
X120429625Y-39143139D01*
X120429624Y-39143138D01*
X120429622Y-39143137D01*
X120295712Y-39087671D01*
X120295710Y-39087670D01*
X120295709Y-39087670D01*
X120223854Y-39078210D01*
X120152001Y-39068750D01*
X120151999Y-39068750D01*
X120008291Y-39087670D01*
X120008287Y-39087671D01*
X119874377Y-39143137D01*
X119759379Y-39231379D01*
X119671137Y-39346377D01*
X119615671Y-39480287D01*
X119615670Y-39480291D01*
X119601524Y-39587742D01*
X119596750Y-39624000D01*
X114593808Y-39624000D01*
X114627183Y-39587745D01*
X114751862Y-39396909D01*
X114843430Y-39188155D01*
X114899390Y-38967176D01*
X114901801Y-38938082D01*
X114918214Y-38740006D01*
X200803786Y-38740006D01*
X200822608Y-38967168D01*
X200822610Y-38967179D01*
X200878569Y-39188155D01*
X200970137Y-39396908D01*
X201094814Y-39587742D01*
X201187450Y-39688371D01*
X201223322Y-39727339D01*
X201249208Y-39755458D01*
X201249212Y-39755461D01*
X201352046Y-39835500D01*
X201429094Y-39895469D01*
X201429096Y-39895470D01*
X201429099Y-39895472D01*
X201440469Y-39901625D01*
X201629574Y-40003963D01*
X201705417Y-40030000D01*
X201845173Y-40077979D01*
X201845175Y-40077979D01*
X201845177Y-40077980D01*
X202070023Y-40115500D01*
X202070024Y-40115500D01*
X202297976Y-40115500D01*
X202297977Y-40115500D01*
X202522823Y-40077980D01*
X202738426Y-40003963D01*
X202938906Y-39895469D01*
X203118794Y-39755456D01*
X203273183Y-39587745D01*
X203397862Y-39396909D01*
X203489430Y-39188155D01*
X203545390Y-38967176D01*
X203547801Y-38938082D01*
X203564214Y-38740006D01*
X205883786Y-38740006D01*
X205902608Y-38967168D01*
X205902610Y-38967179D01*
X205958569Y-39188155D01*
X206050137Y-39396908D01*
X206174814Y-39587742D01*
X206267450Y-39688371D01*
X206303322Y-39727339D01*
X206329208Y-39755458D01*
X206329212Y-39755461D01*
X206432046Y-39835500D01*
X206509094Y-39895469D01*
X206509096Y-39895470D01*
X206509099Y-39895472D01*
X206520469Y-39901625D01*
X206709574Y-40003963D01*
X206785417Y-40030000D01*
X206925173Y-40077979D01*
X206925175Y-40077979D01*
X206925177Y-40077980D01*
X207150023Y-40115500D01*
X207150024Y-40115500D01*
X207377976Y-40115500D01*
X207377977Y-40115500D01*
X207602823Y-40077980D01*
X207818426Y-40003963D01*
X208018906Y-39895469D01*
X208198794Y-39755456D01*
X208353183Y-39587745D01*
X208477862Y-39396909D01*
X208569430Y-39188155D01*
X208625390Y-38967176D01*
X208627801Y-38938082D01*
X208644214Y-38740006D01*
X208644214Y-38739993D01*
X208625391Y-38512831D01*
X208625389Y-38512820D01*
X208569430Y-38291844D01*
X208477862Y-38083091D01*
X208353185Y-37892257D01*
X208198791Y-37724541D01*
X208198787Y-37724538D01*
X208018909Y-37584533D01*
X208018900Y-37584527D01*
X207818432Y-37476040D01*
X207818429Y-37476039D01*
X207818426Y-37476037D01*
X207818420Y-37476035D01*
X207818418Y-37476034D01*
X207602826Y-37402020D01*
X207434188Y-37373880D01*
X207377977Y-37364500D01*
X207150023Y-37364500D01*
X207105053Y-37372004D01*
X206925173Y-37402020D01*
X206709581Y-37476034D01*
X206709567Y-37476040D01*
X206509099Y-37584527D01*
X206509090Y-37584533D01*
X206329212Y-37724538D01*
X206329208Y-37724541D01*
X206174814Y-37892257D01*
X206050137Y-38083091D01*
X205958569Y-38291844D01*
X205902610Y-38512820D01*
X205902608Y-38512831D01*
X205883786Y-38739993D01*
X205883786Y-38740006D01*
X203564214Y-38740006D01*
X203564214Y-38739993D01*
X203545391Y-38512831D01*
X203545389Y-38512820D01*
X203489430Y-38291844D01*
X203397862Y-38083091D01*
X203273185Y-37892257D01*
X203118791Y-37724541D01*
X203118787Y-37724538D01*
X202938909Y-37584533D01*
X202938900Y-37584527D01*
X202738432Y-37476040D01*
X202738429Y-37476039D01*
X202738426Y-37476037D01*
X202738420Y-37476035D01*
X202738418Y-37476034D01*
X202522826Y-37402020D01*
X202354188Y-37373880D01*
X202297977Y-37364500D01*
X202070023Y-37364500D01*
X202025053Y-37372004D01*
X201845173Y-37402020D01*
X201629581Y-37476034D01*
X201629567Y-37476040D01*
X201429099Y-37584527D01*
X201429090Y-37584533D01*
X201249212Y-37724538D01*
X201249208Y-37724541D01*
X201094814Y-37892257D01*
X200970137Y-38083091D01*
X200878569Y-38291844D01*
X200822610Y-38512820D01*
X200822608Y-38512831D01*
X200803786Y-38739993D01*
X200803786Y-38740006D01*
X114918214Y-38740006D01*
X114918214Y-38739993D01*
X114899391Y-38512831D01*
X114899389Y-38512820D01*
X114843430Y-38291844D01*
X114751862Y-38083091D01*
X114627185Y-37892257D01*
X114472791Y-37724541D01*
X114472787Y-37724538D01*
X114292909Y-37584533D01*
X114292900Y-37584527D01*
X114092432Y-37476040D01*
X114092429Y-37476039D01*
X114092426Y-37476037D01*
X114092420Y-37476035D01*
X114092418Y-37476034D01*
X113876826Y-37402020D01*
X113708188Y-37373880D01*
X113651977Y-37364500D01*
X113424023Y-37364500D01*
X113379053Y-37372004D01*
X113199173Y-37402020D01*
X112983581Y-37476034D01*
X112983567Y-37476040D01*
X112783099Y-37584527D01*
X112783090Y-37584533D01*
X112603212Y-37724538D01*
X112603208Y-37724541D01*
X112448814Y-37892257D01*
X112324137Y-38083091D01*
X112232569Y-38291844D01*
X112176610Y-38512820D01*
X112176608Y-38512831D01*
X112157786Y-38739993D01*
X112157786Y-38740006D01*
X109838214Y-38740006D01*
X109838214Y-38739993D01*
X109819391Y-38512831D01*
X109819389Y-38512820D01*
X109763430Y-38291844D01*
X109671862Y-38083091D01*
X109547185Y-37892257D01*
X109392791Y-37724541D01*
X109392787Y-37724538D01*
X109212909Y-37584533D01*
X109212900Y-37584527D01*
X109012432Y-37476040D01*
X109012429Y-37476039D01*
X109012426Y-37476037D01*
X109012420Y-37476035D01*
X109012418Y-37476034D01*
X108796826Y-37402020D01*
X108628188Y-37373880D01*
X108571977Y-37364500D01*
X108344023Y-37364500D01*
X108299053Y-37372004D01*
X108119173Y-37402020D01*
X107903581Y-37476034D01*
X107903567Y-37476040D01*
X107703099Y-37584527D01*
X107703090Y-37584533D01*
X107523212Y-37724538D01*
X107523208Y-37724541D01*
X107368814Y-37892257D01*
X107244137Y-38083091D01*
X107152569Y-38291844D01*
X107096610Y-38512820D01*
X107096608Y-38512831D01*
X107077786Y-38739993D01*
X107077786Y-38740006D01*
X102500500Y-38740006D01*
X102500500Y-36350030D01*
X102520185Y-36282991D01*
X102572989Y-36237236D01*
X102642147Y-36227292D01*
X102705703Y-36256317D01*
X102725627Y-36278272D01*
X102728976Y-36282991D01*
X102792669Y-36372759D01*
X103020970Y-36628226D01*
X103020973Y-36628229D01*
X103276440Y-36856530D01*
X103276446Y-36856534D01*
X103276447Y-36856535D01*
X103555879Y-37054802D01*
X103855752Y-37220536D01*
X104172296Y-37351653D01*
X104501530Y-37446504D01*
X104839314Y-37503896D01*
X105181400Y-37523107D01*
X105523486Y-37503896D01*
X105861270Y-37446504D01*
X106190504Y-37351653D01*
X106507048Y-37220536D01*
X106806921Y-37054802D01*
X107086353Y-36856535D01*
X107341828Y-36628228D01*
X107570135Y-36372753D01*
X107768402Y-36093321D01*
X107934136Y-35793448D01*
X108065253Y-35476904D01*
X108160104Y-35147670D01*
X108217496Y-34809886D01*
X108236707Y-34467800D01*
X108217496Y-34125714D01*
X108160104Y-33787930D01*
X108065253Y-33458696D01*
X107934136Y-33142152D01*
X107768402Y-32842279D01*
X107570135Y-32562847D01*
X107570131Y-32562842D01*
X107570130Y-32562840D01*
X107341829Y-32307373D01*
X107341826Y-32307370D01*
X107086359Y-32079069D01*
X107050555Y-32053665D01*
X106982854Y-32005628D01*
X106939571Y-31950782D01*
X106932811Y-31881240D01*
X106964721Y-31819083D01*
X107025171Y-31784045D01*
X107054610Y-31780500D01*
X221915792Y-31780500D01*
X221982831Y-31800185D01*
G37*
%TD.AperFunction*%
%TD*%
M02*
