%TF.GenerationSoftware,KiCad,Pcbnew,8.0.1*%
%TF.CreationDate,2024-04-20T09:08:37+02:00*%
%TF.ProjectId,Quarzfilter,51756172-7a66-4696-9c74-65722e6b6963,rev?*%
%TF.SameCoordinates,Original*%
%TF.FileFunction,Legend,Top*%
%TF.FilePolarity,Positive*%
%FSLAX46Y46*%
G04 Gerber Fmt 4.6, Leading zero omitted, Abs format (unit mm)*
G04 Created by KiCad (PCBNEW 8.0.1) date 2024-04-20 09:08:37*
%MOMM*%
%LPD*%
G01*
G04 APERTURE LIST*
%ADD10C,0.100000*%
%ADD11C,0.150000*%
%ADD12C,0.120000*%
G04 APERTURE END LIST*
D10*
X118413884Y-81152419D02*
X118413884Y-80152419D01*
X118413884Y-80152419D02*
X118651979Y-80152419D01*
X118651979Y-80152419D02*
X118794836Y-80200038D01*
X118794836Y-80200038D02*
X118890074Y-80295276D01*
X118890074Y-80295276D02*
X118937693Y-80390514D01*
X118937693Y-80390514D02*
X118985312Y-80580990D01*
X118985312Y-80580990D02*
X118985312Y-80723847D01*
X118985312Y-80723847D02*
X118937693Y-80914323D01*
X118937693Y-80914323D02*
X118890074Y-81009561D01*
X118890074Y-81009561D02*
X118794836Y-81104800D01*
X118794836Y-81104800D02*
X118651979Y-81152419D01*
X118651979Y-81152419D02*
X118413884Y-81152419D01*
X119413884Y-81152419D02*
X119413884Y-80152419D01*
X119985312Y-81152419D02*
X119556741Y-80580990D01*
X119985312Y-80152419D02*
X119413884Y-80723847D01*
X120318646Y-80152419D02*
X120937693Y-80152419D01*
X120937693Y-80152419D02*
X120604360Y-80533371D01*
X120604360Y-80533371D02*
X120747217Y-80533371D01*
X120747217Y-80533371D02*
X120842455Y-80580990D01*
X120842455Y-80580990D02*
X120890074Y-80628609D01*
X120890074Y-80628609D02*
X120937693Y-80723847D01*
X120937693Y-80723847D02*
X120937693Y-80961942D01*
X120937693Y-80961942D02*
X120890074Y-81057180D01*
X120890074Y-81057180D02*
X120842455Y-81104800D01*
X120842455Y-81104800D02*
X120747217Y-81152419D01*
X120747217Y-81152419D02*
X120461503Y-81152419D01*
X120461503Y-81152419D02*
X120366265Y-81104800D01*
X120366265Y-81104800D02*
X120318646Y-81057180D01*
X121651979Y-80152419D02*
X121651979Y-80866704D01*
X121651979Y-80866704D02*
X121604360Y-81009561D01*
X121604360Y-81009561D02*
X121509122Y-81104800D01*
X121509122Y-81104800D02*
X121366265Y-81152419D01*
X121366265Y-81152419D02*
X121271027Y-81152419D01*
X122461503Y-80628609D02*
X122128170Y-80628609D01*
X122128170Y-81152419D02*
X122128170Y-80152419D01*
X122128170Y-80152419D02*
X122604360Y-80152419D01*
X124413884Y-81247657D02*
X124318646Y-81200038D01*
X124318646Y-81200038D02*
X124223408Y-81104800D01*
X124223408Y-81104800D02*
X124080551Y-80961942D01*
X124080551Y-80961942D02*
X123985313Y-80914323D01*
X123985313Y-80914323D02*
X123890075Y-80914323D01*
X123937694Y-81152419D02*
X123842456Y-81104800D01*
X123842456Y-81104800D02*
X123747218Y-81009561D01*
X123747218Y-81009561D02*
X123699599Y-80819085D01*
X123699599Y-80819085D02*
X123699599Y-80485752D01*
X123699599Y-80485752D02*
X123747218Y-80295276D01*
X123747218Y-80295276D02*
X123842456Y-80200038D01*
X123842456Y-80200038D02*
X123937694Y-80152419D01*
X123937694Y-80152419D02*
X124128170Y-80152419D01*
X124128170Y-80152419D02*
X124223408Y-80200038D01*
X124223408Y-80200038D02*
X124318646Y-80295276D01*
X124318646Y-80295276D02*
X124366265Y-80485752D01*
X124366265Y-80485752D02*
X124366265Y-80819085D01*
X124366265Y-80819085D02*
X124318646Y-81009561D01*
X124318646Y-81009561D02*
X124223408Y-81104800D01*
X124223408Y-81104800D02*
X124128170Y-81152419D01*
X124128170Y-81152419D02*
X123937694Y-81152419D01*
X125223408Y-80485752D02*
X125223408Y-81152419D01*
X124794837Y-80485752D02*
X124794837Y-81009561D01*
X124794837Y-81009561D02*
X124842456Y-81104800D01*
X124842456Y-81104800D02*
X124937694Y-81152419D01*
X124937694Y-81152419D02*
X125080551Y-81152419D01*
X125080551Y-81152419D02*
X125175789Y-81104800D01*
X125175789Y-81104800D02*
X125223408Y-81057180D01*
X126128170Y-81152419D02*
X126128170Y-80628609D01*
X126128170Y-80628609D02*
X126080551Y-80533371D01*
X126080551Y-80533371D02*
X125985313Y-80485752D01*
X125985313Y-80485752D02*
X125794837Y-80485752D01*
X125794837Y-80485752D02*
X125699599Y-80533371D01*
X126128170Y-81104800D02*
X126032932Y-81152419D01*
X126032932Y-81152419D02*
X125794837Y-81152419D01*
X125794837Y-81152419D02*
X125699599Y-81104800D01*
X125699599Y-81104800D02*
X125651980Y-81009561D01*
X125651980Y-81009561D02*
X125651980Y-80914323D01*
X125651980Y-80914323D02*
X125699599Y-80819085D01*
X125699599Y-80819085D02*
X125794837Y-80771466D01*
X125794837Y-80771466D02*
X126032932Y-80771466D01*
X126032932Y-80771466D02*
X126128170Y-80723847D01*
X126604361Y-81152419D02*
X126604361Y-80485752D01*
X126604361Y-80676228D02*
X126651980Y-80580990D01*
X126651980Y-80580990D02*
X126699599Y-80533371D01*
X126699599Y-80533371D02*
X126794837Y-80485752D01*
X126794837Y-80485752D02*
X126890075Y-80485752D01*
X127128171Y-80485752D02*
X127651980Y-80485752D01*
X127651980Y-80485752D02*
X127128171Y-81152419D01*
X127128171Y-81152419D02*
X127651980Y-81152419D01*
X127890076Y-80485752D02*
X128271028Y-80485752D01*
X128032933Y-81152419D02*
X128032933Y-80295276D01*
X128032933Y-80295276D02*
X128080552Y-80200038D01*
X128080552Y-80200038D02*
X128175790Y-80152419D01*
X128175790Y-80152419D02*
X128271028Y-80152419D01*
X128604362Y-81152419D02*
X128604362Y-80485752D01*
X128604362Y-80152419D02*
X128556743Y-80200038D01*
X128556743Y-80200038D02*
X128604362Y-80247657D01*
X128604362Y-80247657D02*
X128651981Y-80200038D01*
X128651981Y-80200038D02*
X128604362Y-80152419D01*
X128604362Y-80152419D02*
X128604362Y-80247657D01*
X129223409Y-81152419D02*
X129128171Y-81104800D01*
X129128171Y-81104800D02*
X129080552Y-81009561D01*
X129080552Y-81009561D02*
X129080552Y-80152419D01*
X129461505Y-80485752D02*
X129842457Y-80485752D01*
X129604362Y-80152419D02*
X129604362Y-81009561D01*
X129604362Y-81009561D02*
X129651981Y-81104800D01*
X129651981Y-81104800D02*
X129747219Y-81152419D01*
X129747219Y-81152419D02*
X129842457Y-81152419D01*
X130556743Y-81104800D02*
X130461505Y-81152419D01*
X130461505Y-81152419D02*
X130271029Y-81152419D01*
X130271029Y-81152419D02*
X130175791Y-81104800D01*
X130175791Y-81104800D02*
X130128172Y-81009561D01*
X130128172Y-81009561D02*
X130128172Y-80628609D01*
X130128172Y-80628609D02*
X130175791Y-80533371D01*
X130175791Y-80533371D02*
X130271029Y-80485752D01*
X130271029Y-80485752D02*
X130461505Y-80485752D01*
X130461505Y-80485752D02*
X130556743Y-80533371D01*
X130556743Y-80533371D02*
X130604362Y-80628609D01*
X130604362Y-80628609D02*
X130604362Y-80723847D01*
X130604362Y-80723847D02*
X130128172Y-80819085D01*
X131032934Y-81152419D02*
X131032934Y-80485752D01*
X131032934Y-80676228D02*
X131080553Y-80580990D01*
X131080553Y-80580990D02*
X131128172Y-80533371D01*
X131128172Y-80533371D02*
X131223410Y-80485752D01*
X131223410Y-80485752D02*
X131318648Y-80485752D01*
D11*
X151108628Y-89286190D02*
X151584819Y-89286190D01*
X150584819Y-89619523D02*
X151108628Y-89286190D01*
X151108628Y-89286190D02*
X150584819Y-88952857D01*
X150918152Y-88190952D02*
X151584819Y-88190952D01*
X150537200Y-88429047D02*
X151251485Y-88667142D01*
X151251485Y-88667142D02*
X151251485Y-88048095D01*
X142218628Y-89266190D02*
X142694819Y-89266190D01*
X141694819Y-89599523D02*
X142218628Y-89266190D01*
X142218628Y-89266190D02*
X141694819Y-88932857D01*
X141694819Y-88694761D02*
X141694819Y-88075714D01*
X141694819Y-88075714D02*
X142075771Y-88409047D01*
X142075771Y-88409047D02*
X142075771Y-88266190D01*
X142075771Y-88266190D02*
X142123390Y-88170952D01*
X142123390Y-88170952D02*
X142171009Y-88123333D01*
X142171009Y-88123333D02*
X142266247Y-88075714D01*
X142266247Y-88075714D02*
X142504342Y-88075714D01*
X142504342Y-88075714D02*
X142599580Y-88123333D01*
X142599580Y-88123333D02*
X142647200Y-88170952D01*
X142647200Y-88170952D02*
X142694819Y-88266190D01*
X142694819Y-88266190D02*
X142694819Y-88551904D01*
X142694819Y-88551904D02*
X142647200Y-88647142D01*
X142647200Y-88647142D02*
X142599580Y-88694761D01*
X133328628Y-89286190D02*
X133804819Y-89286190D01*
X132804819Y-89619523D02*
X133328628Y-89286190D01*
X133328628Y-89286190D02*
X132804819Y-88952857D01*
X132900057Y-88667142D02*
X132852438Y-88619523D01*
X132852438Y-88619523D02*
X132804819Y-88524285D01*
X132804819Y-88524285D02*
X132804819Y-88286190D01*
X132804819Y-88286190D02*
X132852438Y-88190952D01*
X132852438Y-88190952D02*
X132900057Y-88143333D01*
X132900057Y-88143333D02*
X132995295Y-88095714D01*
X132995295Y-88095714D02*
X133090533Y-88095714D01*
X133090533Y-88095714D02*
X133233390Y-88143333D01*
X133233390Y-88143333D02*
X133804819Y-88714761D01*
X133804819Y-88714761D02*
X133804819Y-88095714D01*
X124438628Y-89266190D02*
X124914819Y-89266190D01*
X123914819Y-89599523D02*
X124438628Y-89266190D01*
X124438628Y-89266190D02*
X123914819Y-88932857D01*
X124914819Y-88075714D02*
X124914819Y-88647142D01*
X124914819Y-88361428D02*
X123914819Y-88361428D01*
X123914819Y-88361428D02*
X124057676Y-88456666D01*
X124057676Y-88456666D02*
X124152914Y-88551904D01*
X124152914Y-88551904D02*
X124200533Y-88647142D01*
X167306666Y-88354819D02*
X167306666Y-89069104D01*
X167306666Y-89069104D02*
X167259047Y-89211961D01*
X167259047Y-89211961D02*
X167163809Y-89307200D01*
X167163809Y-89307200D02*
X167020952Y-89354819D01*
X167020952Y-89354819D02*
X166925714Y-89354819D01*
X167735238Y-88450057D02*
X167782857Y-88402438D01*
X167782857Y-88402438D02*
X167878095Y-88354819D01*
X167878095Y-88354819D02*
X168116190Y-88354819D01*
X168116190Y-88354819D02*
X168211428Y-88402438D01*
X168211428Y-88402438D02*
X168259047Y-88450057D01*
X168259047Y-88450057D02*
X168306666Y-88545295D01*
X168306666Y-88545295D02*
X168306666Y-88640533D01*
X168306666Y-88640533D02*
X168259047Y-88783390D01*
X168259047Y-88783390D02*
X167687619Y-89354819D01*
X167687619Y-89354819D02*
X168306666Y-89354819D01*
X108886666Y-88354819D02*
X108886666Y-89069104D01*
X108886666Y-89069104D02*
X108839047Y-89211961D01*
X108839047Y-89211961D02*
X108743809Y-89307200D01*
X108743809Y-89307200D02*
X108600952Y-89354819D01*
X108600952Y-89354819D02*
X108505714Y-89354819D01*
X109886666Y-89354819D02*
X109315238Y-89354819D01*
X109600952Y-89354819D02*
X109600952Y-88354819D01*
X109600952Y-88354819D02*
X109505714Y-88497676D01*
X109505714Y-88497676D02*
X109410476Y-88592914D01*
X109410476Y-88592914D02*
X109315238Y-88640533D01*
X156678333Y-87579580D02*
X156630714Y-87627200D01*
X156630714Y-87627200D02*
X156487857Y-87674819D01*
X156487857Y-87674819D02*
X156392619Y-87674819D01*
X156392619Y-87674819D02*
X156249762Y-87627200D01*
X156249762Y-87627200D02*
X156154524Y-87531961D01*
X156154524Y-87531961D02*
X156106905Y-87436723D01*
X156106905Y-87436723D02*
X156059286Y-87246247D01*
X156059286Y-87246247D02*
X156059286Y-87103390D01*
X156059286Y-87103390D02*
X156106905Y-86912914D01*
X156106905Y-86912914D02*
X156154524Y-86817676D01*
X156154524Y-86817676D02*
X156249762Y-86722438D01*
X156249762Y-86722438D02*
X156392619Y-86674819D01*
X156392619Y-86674819D02*
X156487857Y-86674819D01*
X156487857Y-86674819D02*
X156630714Y-86722438D01*
X156630714Y-86722438D02*
X156678333Y-86770057D01*
X157583095Y-86674819D02*
X157106905Y-86674819D01*
X157106905Y-86674819D02*
X157059286Y-87151009D01*
X157059286Y-87151009D02*
X157106905Y-87103390D01*
X157106905Y-87103390D02*
X157202143Y-87055771D01*
X157202143Y-87055771D02*
X157440238Y-87055771D01*
X157440238Y-87055771D02*
X157535476Y-87103390D01*
X157535476Y-87103390D02*
X157583095Y-87151009D01*
X157583095Y-87151009D02*
X157630714Y-87246247D01*
X157630714Y-87246247D02*
X157630714Y-87484342D01*
X157630714Y-87484342D02*
X157583095Y-87579580D01*
X157583095Y-87579580D02*
X157535476Y-87627200D01*
X157535476Y-87627200D02*
X157440238Y-87674819D01*
X157440238Y-87674819D02*
X157202143Y-87674819D01*
X157202143Y-87674819D02*
X157106905Y-87627200D01*
X157106905Y-87627200D02*
X157059286Y-87579580D01*
X146391333Y-83163580D02*
X146343714Y-83211200D01*
X146343714Y-83211200D02*
X146200857Y-83258819D01*
X146200857Y-83258819D02*
X146105619Y-83258819D01*
X146105619Y-83258819D02*
X145962762Y-83211200D01*
X145962762Y-83211200D02*
X145867524Y-83115961D01*
X145867524Y-83115961D02*
X145819905Y-83020723D01*
X145819905Y-83020723D02*
X145772286Y-82830247D01*
X145772286Y-82830247D02*
X145772286Y-82687390D01*
X145772286Y-82687390D02*
X145819905Y-82496914D01*
X145819905Y-82496914D02*
X145867524Y-82401676D01*
X145867524Y-82401676D02*
X145962762Y-82306438D01*
X145962762Y-82306438D02*
X146105619Y-82258819D01*
X146105619Y-82258819D02*
X146200857Y-82258819D01*
X146200857Y-82258819D02*
X146343714Y-82306438D01*
X146343714Y-82306438D02*
X146391333Y-82354057D01*
X147248476Y-82592152D02*
X147248476Y-83258819D01*
X147010381Y-82211200D02*
X146772286Y-82925485D01*
X146772286Y-82925485D02*
X147391333Y-82925485D01*
X137628333Y-89894580D02*
X137580714Y-89942200D01*
X137580714Y-89942200D02*
X137437857Y-89989819D01*
X137437857Y-89989819D02*
X137342619Y-89989819D01*
X137342619Y-89989819D02*
X137199762Y-89942200D01*
X137199762Y-89942200D02*
X137104524Y-89846961D01*
X137104524Y-89846961D02*
X137056905Y-89751723D01*
X137056905Y-89751723D02*
X137009286Y-89561247D01*
X137009286Y-89561247D02*
X137009286Y-89418390D01*
X137009286Y-89418390D02*
X137056905Y-89227914D01*
X137056905Y-89227914D02*
X137104524Y-89132676D01*
X137104524Y-89132676D02*
X137199762Y-89037438D01*
X137199762Y-89037438D02*
X137342619Y-88989819D01*
X137342619Y-88989819D02*
X137437857Y-88989819D01*
X137437857Y-88989819D02*
X137580714Y-89037438D01*
X137580714Y-89037438D02*
X137628333Y-89085057D01*
X137961667Y-88989819D02*
X138580714Y-88989819D01*
X138580714Y-88989819D02*
X138247381Y-89370771D01*
X138247381Y-89370771D02*
X138390238Y-89370771D01*
X138390238Y-89370771D02*
X138485476Y-89418390D01*
X138485476Y-89418390D02*
X138533095Y-89466009D01*
X138533095Y-89466009D02*
X138580714Y-89561247D01*
X138580714Y-89561247D02*
X138580714Y-89799342D01*
X138580714Y-89799342D02*
X138533095Y-89894580D01*
X138533095Y-89894580D02*
X138485476Y-89942200D01*
X138485476Y-89942200D02*
X138390238Y-89989819D01*
X138390238Y-89989819D02*
X138104524Y-89989819D01*
X138104524Y-89989819D02*
X138009286Y-89942200D01*
X138009286Y-89942200D02*
X137961667Y-89894580D01*
X128738333Y-82909580D02*
X128690714Y-82957200D01*
X128690714Y-82957200D02*
X128547857Y-83004819D01*
X128547857Y-83004819D02*
X128452619Y-83004819D01*
X128452619Y-83004819D02*
X128309762Y-82957200D01*
X128309762Y-82957200D02*
X128214524Y-82861961D01*
X128214524Y-82861961D02*
X128166905Y-82766723D01*
X128166905Y-82766723D02*
X128119286Y-82576247D01*
X128119286Y-82576247D02*
X128119286Y-82433390D01*
X128119286Y-82433390D02*
X128166905Y-82242914D01*
X128166905Y-82242914D02*
X128214524Y-82147676D01*
X128214524Y-82147676D02*
X128309762Y-82052438D01*
X128309762Y-82052438D02*
X128452619Y-82004819D01*
X128452619Y-82004819D02*
X128547857Y-82004819D01*
X128547857Y-82004819D02*
X128690714Y-82052438D01*
X128690714Y-82052438D02*
X128738333Y-82100057D01*
X129119286Y-82100057D02*
X129166905Y-82052438D01*
X129166905Y-82052438D02*
X129262143Y-82004819D01*
X129262143Y-82004819D02*
X129500238Y-82004819D01*
X129500238Y-82004819D02*
X129595476Y-82052438D01*
X129595476Y-82052438D02*
X129643095Y-82100057D01*
X129643095Y-82100057D02*
X129690714Y-82195295D01*
X129690714Y-82195295D02*
X129690714Y-82290533D01*
X129690714Y-82290533D02*
X129643095Y-82433390D01*
X129643095Y-82433390D02*
X129071667Y-83004819D01*
X129071667Y-83004819D02*
X129690714Y-83004819D01*
X118705333Y-87481580D02*
X118657714Y-87529200D01*
X118657714Y-87529200D02*
X118514857Y-87576819D01*
X118514857Y-87576819D02*
X118419619Y-87576819D01*
X118419619Y-87576819D02*
X118276762Y-87529200D01*
X118276762Y-87529200D02*
X118181524Y-87433961D01*
X118181524Y-87433961D02*
X118133905Y-87338723D01*
X118133905Y-87338723D02*
X118086286Y-87148247D01*
X118086286Y-87148247D02*
X118086286Y-87005390D01*
X118086286Y-87005390D02*
X118133905Y-86814914D01*
X118133905Y-86814914D02*
X118181524Y-86719676D01*
X118181524Y-86719676D02*
X118276762Y-86624438D01*
X118276762Y-86624438D02*
X118419619Y-86576819D01*
X118419619Y-86576819D02*
X118514857Y-86576819D01*
X118514857Y-86576819D02*
X118657714Y-86624438D01*
X118657714Y-86624438D02*
X118705333Y-86672057D01*
X119657714Y-87576819D02*
X119086286Y-87576819D01*
X119372000Y-87576819D02*
X119372000Y-86576819D01*
X119372000Y-86576819D02*
X119276762Y-86719676D01*
X119276762Y-86719676D02*
X119181524Y-86814914D01*
X119181524Y-86814914D02*
X119086286Y-86862533D01*
D12*
%TO.C,Y4*%
X153655000Y-85675000D02*
X153655000Y-91925000D01*
X148605000Y-85675000D02*
X148605000Y-91925000D01*
X148605000Y-85675000D02*
G75*
G02*
X153655000Y-85675000I2525000J0D01*
G01*
X153655000Y-91925000D02*
G75*
G02*
X148605000Y-91925000I-2525000J0D01*
G01*
%TO.C,Y3*%
X139715000Y-91925000D02*
X139715000Y-85675000D01*
X144765000Y-91925000D02*
X144765000Y-85675000D01*
X144765000Y-91925000D02*
G75*
G02*
X139715000Y-91925000I-2525000J0D01*
G01*
X139715000Y-85675000D02*
G75*
G02*
X144765000Y-85675000I2525000J0D01*
G01*
%TO.C,Y2*%
X135875000Y-85675000D02*
X135875000Y-91925000D01*
X130825000Y-85675000D02*
X130825000Y-91925000D01*
X130825000Y-85675000D02*
G75*
G02*
X135875000Y-85675000I2525000J0D01*
G01*
X135875000Y-91925000D02*
G75*
G02*
X130825000Y-91925000I-2525000J0D01*
G01*
%TO.C,Y1*%
X121935000Y-91925000D02*
X121935000Y-85675000D01*
X126985000Y-91925000D02*
X126985000Y-85675000D01*
X126985000Y-91925000D02*
G75*
G02*
X121935000Y-91925000I-2525000J0D01*
G01*
X121935000Y-85675000D02*
G75*
G02*
X126985000Y-85675000I2525000J0D01*
G01*
%TO.C,J2*%
X175260000Y-81400000D02*
X175260000Y-96400000D01*
X160260000Y-81400000D02*
X175260000Y-81400000D01*
X175060000Y-88900000D02*
X174060000Y-87900000D01*
X175060000Y-88900000D02*
X174060000Y-89900000D01*
X175260000Y-96400000D02*
X160260000Y-96400000D01*
X160260000Y-96400000D02*
X160260000Y-81400000D01*
%TO.C,J1*%
X101600000Y-96400000D02*
X101600000Y-81400000D01*
X116600000Y-96400000D02*
X101600000Y-96400000D01*
X101800000Y-88900000D02*
X102800000Y-89900000D01*
X101800000Y-88900000D02*
X102800000Y-87900000D01*
X101600000Y-81400000D02*
X116600000Y-81400000D01*
X116600000Y-81400000D02*
X116600000Y-96400000D01*
%TO.C,C5*%
X156583748Y-88165000D02*
X157106252Y-88165000D01*
X156583748Y-89635000D02*
X157106252Y-89635000D01*
%TO.C,C4*%
X147420000Y-85143748D02*
X147420000Y-85666252D01*
X145950000Y-85143748D02*
X145950000Y-85666252D01*
%TO.C,C3*%
X137060000Y-92651252D02*
X137060000Y-92128748D01*
X138530000Y-92651252D02*
X138530000Y-92128748D01*
%TO.C,C2*%
X128170000Y-85671252D02*
X128170000Y-85148748D01*
X129640000Y-85671252D02*
X129640000Y-85148748D01*
%TO.C,C1*%
X118798748Y-88165000D02*
X119321252Y-88165000D01*
X118798748Y-89635000D02*
X119321252Y-89635000D01*
%TD*%
M02*
