%TF.GenerationSoftware,KiCad,Pcbnew,8.0.1*%
%TF.CreationDate,2024-04-20T09:08:36+02:00*%
%TF.ProjectId,Quarzfilter,51756172-7a66-4696-9c74-65722e6b6963,rev?*%
%TF.SameCoordinates,Original*%
%TF.FileFunction,Copper,L1,Top*%
%TF.FilePolarity,Positive*%
%FSLAX46Y46*%
G04 Gerber Fmt 4.6, Leading zero omitted, Abs format (unit mm)*
G04 Created by KiCad (PCBNEW 8.0.1) date 2024-04-20 09:08:36*
%MOMM*%
%LPD*%
G01*
G04 APERTURE LIST*
G04 Aperture macros list*
%AMRoundRect*
0 Rectangle with rounded corners*
0 $1 Rounding radius*
0 $2 $3 $4 $5 $6 $7 $8 $9 X,Y pos of 4 corners*
0 Add a 4 corners polygon primitive as box body*
4,1,4,$2,$3,$4,$5,$6,$7,$8,$9,$2,$3,0*
0 Add four circle primitives for the rounded corners*
1,1,$1+$1,$2,$3*
1,1,$1+$1,$4,$5*
1,1,$1+$1,$6,$7*
1,1,$1+$1,$8,$9*
0 Add four rect primitives between the rounded corners*
20,1,$1+$1,$2,$3,$4,$5,0*
20,1,$1+$1,$4,$5,$6,$7,0*
20,1,$1+$1,$6,$7,$8,$9,0*
20,1,$1+$1,$8,$9,$2,$3,0*%
G04 Aperture macros list end*
%TA.AperFunction,ComponentPad*%
%ADD10C,1.500000*%
%TD*%
%TA.AperFunction,ComponentPad*%
%ADD11O,2.500000X1.600000*%
%TD*%
%TA.AperFunction,ComponentPad*%
%ADD12O,7.000000X3.500000*%
%TD*%
%TA.AperFunction,SMDPad,CuDef*%
%ADD13RoundRect,0.250000X-0.250000X-0.475000X0.250000X-0.475000X0.250000X0.475000X-0.250000X0.475000X0*%
%TD*%
%TA.AperFunction,SMDPad,CuDef*%
%ADD14RoundRect,0.250000X-0.475000X0.250000X-0.475000X-0.250000X0.475000X-0.250000X0.475000X0.250000X0*%
%TD*%
%TA.AperFunction,SMDPad,CuDef*%
%ADD15RoundRect,0.250000X0.475000X-0.250000X0.475000X0.250000X-0.475000X0.250000X-0.475000X-0.250000X0*%
%TD*%
%TA.AperFunction,Conductor*%
%ADD16C,0.500000*%
%TD*%
%TA.AperFunction,Conductor*%
%ADD17C,0.200000*%
%TD*%
G04 APERTURE END LIST*
D10*
%TO.P,Y4,1,1*%
%TO.N,Net-(C4-Pad2)*%
X151130000Y-86360000D03*
%TO.P,Y4,2,2*%
%TO.N,Net-(C5-Pad1)*%
X151130000Y-91240000D03*
%TD*%
%TO.P,Y3,1,1*%
%TO.N,Net-(C3-Pad2)*%
X142240000Y-91240000D03*
%TO.P,Y3,2,2*%
%TO.N,Net-(C4-Pad2)*%
X142240000Y-86360000D03*
%TD*%
%TO.P,Y2,1,1*%
%TO.N,Net-(C2-Pad1)*%
X133350000Y-86360000D03*
%TO.P,Y2,2,2*%
%TO.N,Net-(C3-Pad2)*%
X133350000Y-91240000D03*
%TD*%
%TO.P,Y1,1,1*%
%TO.N,Net-(C1-Pad2)*%
X124460000Y-91240000D03*
%TO.P,Y1,2,2*%
%TO.N,Net-(C2-Pad1)*%
X124460000Y-86360000D03*
%TD*%
D11*
%TO.P,J2,1,In*%
%TO.N,Net-(J2-In)*%
X162560000Y-88900000D03*
D12*
%TO.P,J2,2,Ext*%
%TO.N,GND*%
X167640000Y-83820000D03*
D11*
X162560000Y-86360000D03*
D12*
X167640000Y-93980000D03*
%TD*%
D11*
%TO.P,J1,1,In*%
%TO.N,Net-(J1-In)*%
X114300000Y-88900000D03*
D12*
%TO.P,J1,2,Ext*%
%TO.N,GND*%
X109220000Y-93980000D03*
D11*
X114300000Y-91440000D03*
D12*
X109220000Y-83820000D03*
%TD*%
D13*
%TO.P,C5,1*%
%TO.N,Net-(C5-Pad1)*%
X155895000Y-88900000D03*
%TO.P,C5,2*%
%TO.N,Net-(J2-In)*%
X157795000Y-88900000D03*
%TD*%
D14*
%TO.P,C4,1*%
%TO.N,GND*%
X146685000Y-84455000D03*
%TO.P,C4,2*%
%TO.N,Net-(C4-Pad2)*%
X146685000Y-86355000D03*
%TD*%
D15*
%TO.P,C3,1*%
%TO.N,GND*%
X137795000Y-93340000D03*
%TO.P,C3,2*%
%TO.N,Net-(C3-Pad2)*%
X137795000Y-91440000D03*
%TD*%
%TO.P,C2,1*%
%TO.N,Net-(C2-Pad1)*%
X128905000Y-86360000D03*
%TO.P,C2,2*%
%TO.N,GND*%
X128905000Y-84460000D03*
%TD*%
D13*
%TO.P,C1,1*%
%TO.N,Net-(J1-In)*%
X118110000Y-88900000D03*
%TO.P,C1,2*%
%TO.N,Net-(C1-Pad2)*%
X120010000Y-88900000D03*
%TD*%
D16*
%TO.N,Net-(J1-In)*%
X118110000Y-88900000D02*
X114300000Y-88900000D01*
%TO.N,Net-(C1-Pad2)*%
X124460000Y-91240000D02*
X122350000Y-91240000D01*
X122350000Y-91240000D02*
X120010000Y-88900000D01*
%TO.N,Net-(C2-Pad1)*%
X128905000Y-86360000D02*
X124460000Y-86360000D01*
X133350000Y-86360000D02*
X128905000Y-86360000D01*
D17*
%TO.N,Net-(C3-Pad2)*%
X137795000Y-91440000D02*
X137160000Y-91440000D01*
X137160000Y-91440000D02*
X136960000Y-91240000D01*
D16*
X136960000Y-91240000D02*
X133350000Y-91240000D01*
X142240000Y-91240000D02*
X137995000Y-91240000D01*
D17*
X137995000Y-91240000D02*
X137795000Y-91440000D01*
D16*
%TO.N,Net-(C4-Pad2)*%
X146685000Y-86355000D02*
X142245000Y-86355000D01*
D17*
X142245000Y-86355000D02*
X142240000Y-86360000D01*
D16*
X151130000Y-86360000D02*
X146690000Y-86360000D01*
D17*
X146690000Y-86360000D02*
X146685000Y-86355000D01*
D16*
%TO.N,Net-(C5-Pad1)*%
X155895000Y-88900000D02*
X153555000Y-91240000D01*
X153555000Y-91240000D02*
X151130000Y-91240000D01*
%TO.N,Net-(J2-In)*%
X161925000Y-88900000D02*
X157795000Y-88900000D01*
%TD*%
%TA.AperFunction,Conductor*%
%TO.N,GND*%
G36*
X175972539Y-79260185D02*
G01*
X176018294Y-79312989D01*
X176029500Y-79364500D01*
X176029500Y-99705500D01*
X176009815Y-99772539D01*
X175957011Y-99818294D01*
X175905500Y-99829500D01*
X100954500Y-99829500D01*
X100887461Y-99809815D01*
X100841706Y-99757011D01*
X100830500Y-99705500D01*
X100830500Y-93730000D01*
X105233497Y-93730000D01*
X108245038Y-93730000D01*
X108215000Y-93881016D01*
X108215000Y-94078984D01*
X108245038Y-94230000D01*
X105233498Y-94230000D01*
X105258496Y-94419884D01*
X105258499Y-94419897D01*
X105334835Y-94704790D01*
X105334838Y-94704800D01*
X105447704Y-94977281D01*
X105447709Y-94977292D01*
X105595174Y-95232707D01*
X105595185Y-95232723D01*
X105774729Y-95466709D01*
X105774735Y-95466716D01*
X105983283Y-95675264D01*
X105983290Y-95675270D01*
X106217276Y-95854814D01*
X106217292Y-95854825D01*
X106472707Y-96002290D01*
X106472718Y-96002295D01*
X106745199Y-96115161D01*
X106745209Y-96115164D01*
X107030102Y-96191500D01*
X107030115Y-96191503D01*
X107322516Y-96229998D01*
X107322534Y-96230000D01*
X108970000Y-96230000D01*
X108970000Y-94954961D01*
X109121016Y-94985000D01*
X109318984Y-94985000D01*
X109470000Y-94954961D01*
X109470000Y-96230000D01*
X111117466Y-96230000D01*
X111117483Y-96229998D01*
X111409884Y-96191503D01*
X111409897Y-96191500D01*
X111694790Y-96115164D01*
X111694800Y-96115161D01*
X111967281Y-96002295D01*
X111967292Y-96002290D01*
X112222707Y-95854825D01*
X112222723Y-95854814D01*
X112456709Y-95675270D01*
X112456716Y-95675264D01*
X112665264Y-95466716D01*
X112665270Y-95466709D01*
X112844814Y-95232723D01*
X112844825Y-95232707D01*
X112992290Y-94977292D01*
X112992295Y-94977281D01*
X113105161Y-94704800D01*
X113105164Y-94704790D01*
X113181500Y-94419897D01*
X113181503Y-94419884D01*
X113206502Y-94230000D01*
X110194962Y-94230000D01*
X110225000Y-94078984D01*
X110225000Y-93881016D01*
X110194962Y-93730000D01*
X113206502Y-93730000D01*
X113188071Y-93590000D01*
X136570001Y-93590000D01*
X136570001Y-93639986D01*
X136580494Y-93742697D01*
X136635641Y-93909119D01*
X136635643Y-93909124D01*
X136727684Y-94058345D01*
X136851654Y-94182315D01*
X137000875Y-94274356D01*
X137000880Y-94274358D01*
X137167302Y-94329505D01*
X137167309Y-94329506D01*
X137270019Y-94339999D01*
X137544999Y-94339999D01*
X137545000Y-94339998D01*
X137545000Y-93590000D01*
X138045000Y-93590000D01*
X138045000Y-94339999D01*
X138319972Y-94339999D01*
X138319986Y-94339998D01*
X138422697Y-94329505D01*
X138589119Y-94274358D01*
X138589124Y-94274356D01*
X138738345Y-94182315D01*
X138862315Y-94058345D01*
X138954356Y-93909124D01*
X138954358Y-93909119D01*
X139009505Y-93742697D01*
X139009506Y-93742690D01*
X139010803Y-93730000D01*
X163653497Y-93730000D01*
X166665038Y-93730000D01*
X166635000Y-93881016D01*
X166635000Y-94078984D01*
X166665038Y-94230000D01*
X163653498Y-94230000D01*
X163678496Y-94419884D01*
X163678499Y-94419897D01*
X163754835Y-94704790D01*
X163754838Y-94704800D01*
X163867704Y-94977281D01*
X163867709Y-94977292D01*
X164015174Y-95232707D01*
X164015185Y-95232723D01*
X164194729Y-95466709D01*
X164194735Y-95466716D01*
X164403283Y-95675264D01*
X164403290Y-95675270D01*
X164637276Y-95854814D01*
X164637292Y-95854825D01*
X164892707Y-96002290D01*
X164892718Y-96002295D01*
X165165199Y-96115161D01*
X165165209Y-96115164D01*
X165450102Y-96191500D01*
X165450115Y-96191503D01*
X165742516Y-96229998D01*
X165742534Y-96230000D01*
X167390000Y-96230000D01*
X167390000Y-94954961D01*
X167541016Y-94985000D01*
X167738984Y-94985000D01*
X167890000Y-94954961D01*
X167890000Y-96230000D01*
X169537466Y-96230000D01*
X169537483Y-96229998D01*
X169829884Y-96191503D01*
X169829897Y-96191500D01*
X170114790Y-96115164D01*
X170114800Y-96115161D01*
X170387281Y-96002295D01*
X170387292Y-96002290D01*
X170642707Y-95854825D01*
X170642723Y-95854814D01*
X170876709Y-95675270D01*
X170876716Y-95675264D01*
X171085264Y-95466716D01*
X171085270Y-95466709D01*
X171264814Y-95232723D01*
X171264825Y-95232707D01*
X171412290Y-94977292D01*
X171412295Y-94977281D01*
X171525161Y-94704800D01*
X171525164Y-94704790D01*
X171601500Y-94419897D01*
X171601503Y-94419884D01*
X171626502Y-94230000D01*
X168614962Y-94230000D01*
X168645000Y-94078984D01*
X168645000Y-93881016D01*
X168614962Y-93730000D01*
X171626502Y-93730000D01*
X171601503Y-93540115D01*
X171601500Y-93540102D01*
X171525164Y-93255209D01*
X171525161Y-93255199D01*
X171412295Y-92982718D01*
X171412290Y-92982707D01*
X171264825Y-92727292D01*
X171264814Y-92727276D01*
X171085270Y-92493290D01*
X171085264Y-92493283D01*
X170876716Y-92284735D01*
X170876709Y-92284729D01*
X170642723Y-92105185D01*
X170642707Y-92105174D01*
X170387292Y-91957709D01*
X170387281Y-91957704D01*
X170114800Y-91844838D01*
X170114790Y-91844835D01*
X169829897Y-91768499D01*
X169829884Y-91768496D01*
X169537483Y-91730001D01*
X169537466Y-91730000D01*
X167890000Y-91730000D01*
X167890000Y-93005038D01*
X167738984Y-92975000D01*
X167541016Y-92975000D01*
X167390000Y-93005038D01*
X167390000Y-91730000D01*
X165742534Y-91730000D01*
X165742516Y-91730001D01*
X165450115Y-91768496D01*
X165450102Y-91768499D01*
X165165209Y-91844835D01*
X165165199Y-91844838D01*
X164892718Y-91957704D01*
X164892707Y-91957709D01*
X164637292Y-92105174D01*
X164637276Y-92105185D01*
X164403290Y-92284729D01*
X164403283Y-92284735D01*
X164194735Y-92493283D01*
X164194729Y-92493290D01*
X164015185Y-92727276D01*
X164015174Y-92727292D01*
X163867709Y-92982707D01*
X163867704Y-92982718D01*
X163754838Y-93255199D01*
X163754835Y-93255209D01*
X163678499Y-93540102D01*
X163678496Y-93540115D01*
X163653497Y-93730000D01*
X139010803Y-93730000D01*
X139019999Y-93639986D01*
X139020000Y-93639973D01*
X139020000Y-93590000D01*
X138045000Y-93590000D01*
X137545000Y-93590000D01*
X136570001Y-93590000D01*
X113188071Y-93590000D01*
X113181503Y-93540115D01*
X113181500Y-93540102D01*
X113105164Y-93255209D01*
X113105161Y-93255199D01*
X112992295Y-92982718D01*
X112992290Y-92982707D01*
X112844825Y-92727292D01*
X112844814Y-92727276D01*
X112665270Y-92493290D01*
X112665264Y-92493283D01*
X112456716Y-92284735D01*
X112456709Y-92284729D01*
X112222723Y-92105185D01*
X112222707Y-92105174D01*
X111967292Y-91957709D01*
X111967281Y-91957704D01*
X111694800Y-91844838D01*
X111694790Y-91844835D01*
X111409897Y-91768499D01*
X111409884Y-91768496D01*
X111117483Y-91730001D01*
X111117466Y-91730000D01*
X109470000Y-91730000D01*
X109470000Y-93005038D01*
X109318984Y-92975000D01*
X109121016Y-92975000D01*
X108970000Y-93005038D01*
X108970000Y-91730000D01*
X107322534Y-91730000D01*
X107322516Y-91730001D01*
X107030115Y-91768496D01*
X107030102Y-91768499D01*
X106745209Y-91844835D01*
X106745199Y-91844838D01*
X106472718Y-91957704D01*
X106472707Y-91957709D01*
X106217292Y-92105174D01*
X106217276Y-92105185D01*
X105983290Y-92284729D01*
X105983283Y-92284735D01*
X105774735Y-92493283D01*
X105774729Y-92493290D01*
X105595185Y-92727276D01*
X105595174Y-92727292D01*
X105447709Y-92982707D01*
X105447704Y-92982718D01*
X105334838Y-93255199D01*
X105334835Y-93255209D01*
X105258499Y-93540102D01*
X105258496Y-93540115D01*
X105233497Y-93730000D01*
X100830500Y-93730000D01*
X100830500Y-89002351D01*
X112549500Y-89002351D01*
X112581522Y-89204534D01*
X112644781Y-89399223D01*
X112737715Y-89581613D01*
X112858028Y-89747213D01*
X113002786Y-89891971D01*
X113107037Y-89967712D01*
X113168390Y-90012287D01*
X113240424Y-90048990D01*
X113261629Y-90059795D01*
X113312425Y-90107770D01*
X113329220Y-90175591D01*
X113306682Y-90241726D01*
X113261629Y-90280765D01*
X113168650Y-90328140D01*
X113003105Y-90448417D01*
X113003104Y-90448417D01*
X112858417Y-90593104D01*
X112858417Y-90593105D01*
X112738140Y-90758650D01*
X112645244Y-90940970D01*
X112582009Y-91135586D01*
X112573391Y-91190000D01*
X113930496Y-91190000D01*
X113885326Y-91268236D01*
X113855000Y-91381415D01*
X113855000Y-91498585D01*
X113885326Y-91611764D01*
X113930496Y-91690000D01*
X112573391Y-91690000D01*
X112582009Y-91744413D01*
X112645244Y-91939029D01*
X112738140Y-92121349D01*
X112858417Y-92286894D01*
X112858417Y-92286895D01*
X113003104Y-92431582D01*
X113168650Y-92551859D01*
X113350968Y-92644755D01*
X113545582Y-92707990D01*
X113747683Y-92740000D01*
X114050000Y-92740000D01*
X114050000Y-91809504D01*
X114128236Y-91854674D01*
X114241415Y-91885000D01*
X114358585Y-91885000D01*
X114471764Y-91854674D01*
X114550000Y-91809504D01*
X114550000Y-92740000D01*
X114852317Y-92740000D01*
X115054417Y-92707990D01*
X115249031Y-92644755D01*
X115431349Y-92551859D01*
X115596894Y-92431582D01*
X115596895Y-92431582D01*
X115741582Y-92286895D01*
X115741582Y-92286894D01*
X115861859Y-92121349D01*
X115954755Y-91939029D01*
X116017990Y-91744413D01*
X116026609Y-91690000D01*
X114669504Y-91690000D01*
X114714674Y-91611764D01*
X114745000Y-91498585D01*
X114745000Y-91381415D01*
X114714674Y-91268236D01*
X114669504Y-91190000D01*
X116026609Y-91190000D01*
X116017990Y-91135586D01*
X115954755Y-90940970D01*
X115861859Y-90758650D01*
X115741582Y-90593105D01*
X115741582Y-90593104D01*
X115596895Y-90448417D01*
X115431349Y-90328140D01*
X115338370Y-90280765D01*
X115287574Y-90232790D01*
X115270779Y-90164969D01*
X115293316Y-90098835D01*
X115338370Y-90059795D01*
X115431610Y-90012287D01*
X115492963Y-89967712D01*
X115597213Y-89891971D01*
X115597215Y-89891968D01*
X115597219Y-89891966D01*
X115741966Y-89747219D01*
X115744650Y-89743524D01*
X115775100Y-89701615D01*
X115830429Y-89658949D01*
X115875418Y-89650500D01*
X117078942Y-89650500D01*
X117145981Y-89670185D01*
X117184479Y-89709401D01*
X117267288Y-89843656D01*
X117391344Y-89967712D01*
X117540666Y-90059814D01*
X117707203Y-90114999D01*
X117809991Y-90125500D01*
X118410008Y-90125499D01*
X118410016Y-90125498D01*
X118410019Y-90125498D01*
X118466302Y-90119748D01*
X118512797Y-90114999D01*
X118679334Y-90059814D01*
X118828656Y-89967712D01*
X118952712Y-89843656D01*
X118954461Y-89840819D01*
X118956169Y-89839283D01*
X118957193Y-89837989D01*
X118957414Y-89838163D01*
X119006406Y-89794096D01*
X119075368Y-89782872D01*
X119139451Y-89810713D01*
X119165537Y-89840817D01*
X119167288Y-89843656D01*
X119291344Y-89967712D01*
X119440666Y-90059814D01*
X119607203Y-90114999D01*
X119709991Y-90125500D01*
X120122769Y-90125499D01*
X120189808Y-90145183D01*
X120210450Y-90161818D01*
X121871578Y-91822947D01*
X121871581Y-91822950D01*
X121871584Y-91822952D01*
X121938464Y-91867639D01*
X121994505Y-91905084D01*
X122031771Y-91920520D01*
X122131088Y-91961659D01*
X122247241Y-91984763D01*
X122266468Y-91988587D01*
X122276081Y-91990500D01*
X122276082Y-91990500D01*
X122276083Y-91990500D01*
X122423918Y-91990500D01*
X123394376Y-91990500D01*
X123461415Y-92010185D01*
X123495949Y-92043374D01*
X123498402Y-92046877D01*
X123653123Y-92201598D01*
X123832361Y-92327102D01*
X124030670Y-92419575D01*
X124242023Y-92476207D01*
X124424926Y-92492208D01*
X124459998Y-92495277D01*
X124460000Y-92495277D01*
X124460002Y-92495277D01*
X124488254Y-92492805D01*
X124677977Y-92476207D01*
X124889330Y-92419575D01*
X125087639Y-92327102D01*
X125266877Y-92201598D01*
X125421598Y-92046877D01*
X125547102Y-91867639D01*
X125639575Y-91669330D01*
X125696207Y-91457977D01*
X125715277Y-91240002D01*
X132094723Y-91240002D01*
X132113793Y-91457975D01*
X132113793Y-91457979D01*
X132170422Y-91669322D01*
X132170424Y-91669326D01*
X132170425Y-91669330D01*
X132205437Y-91744413D01*
X132262897Y-91867638D01*
X132262898Y-91867639D01*
X132388402Y-92046877D01*
X132543123Y-92201598D01*
X132722361Y-92327102D01*
X132920670Y-92419575D01*
X133132023Y-92476207D01*
X133314926Y-92492208D01*
X133349998Y-92495277D01*
X133350000Y-92495277D01*
X133350002Y-92495277D01*
X133378254Y-92492805D01*
X133567977Y-92476207D01*
X133779330Y-92419575D01*
X133977639Y-92327102D01*
X134156877Y-92201598D01*
X134311598Y-92046877D01*
X134314050Y-92043374D01*
X134368628Y-91999751D01*
X134415624Y-91990500D01*
X136554362Y-91990500D01*
X136621401Y-92010185D01*
X136659899Y-92049401D01*
X136727288Y-92158656D01*
X136851344Y-92282712D01*
X136854614Y-92284729D01*
X136854653Y-92284753D01*
X136856445Y-92286746D01*
X136857011Y-92287193D01*
X136856934Y-92287289D01*
X136901379Y-92336699D01*
X136912603Y-92405661D01*
X136884761Y-92469744D01*
X136854665Y-92495826D01*
X136851660Y-92497679D01*
X136851655Y-92497683D01*
X136727684Y-92621654D01*
X136635643Y-92770875D01*
X136635641Y-92770880D01*
X136580494Y-92937302D01*
X136580493Y-92937309D01*
X136570000Y-93040013D01*
X136570000Y-93090000D01*
X139019999Y-93090000D01*
X139019999Y-93040028D01*
X139019998Y-93040013D01*
X139009505Y-92937302D01*
X138954358Y-92770880D01*
X138954356Y-92770875D01*
X138862315Y-92621654D01*
X138738344Y-92497683D01*
X138738341Y-92497681D01*
X138735339Y-92495829D01*
X138733713Y-92494021D01*
X138732677Y-92493202D01*
X138732817Y-92493024D01*
X138688617Y-92443880D01*
X138677397Y-92374917D01*
X138705243Y-92310836D01*
X138735344Y-92284754D01*
X138738656Y-92282712D01*
X138862712Y-92158656D01*
X138930099Y-92049402D01*
X138982047Y-92002679D01*
X139035638Y-91990500D01*
X141174376Y-91990500D01*
X141241415Y-92010185D01*
X141275949Y-92043374D01*
X141278402Y-92046877D01*
X141433123Y-92201598D01*
X141612361Y-92327102D01*
X141810670Y-92419575D01*
X142022023Y-92476207D01*
X142204926Y-92492208D01*
X142239998Y-92495277D01*
X142240000Y-92495277D01*
X142240002Y-92495277D01*
X142268254Y-92492805D01*
X142457977Y-92476207D01*
X142669330Y-92419575D01*
X142867639Y-92327102D01*
X143046877Y-92201598D01*
X143201598Y-92046877D01*
X143327102Y-91867639D01*
X143419575Y-91669330D01*
X143476207Y-91457977D01*
X143495277Y-91240002D01*
X149874723Y-91240002D01*
X149893793Y-91457975D01*
X149893793Y-91457979D01*
X149950422Y-91669322D01*
X149950424Y-91669326D01*
X149950425Y-91669330D01*
X149985437Y-91744413D01*
X150042897Y-91867638D01*
X150042898Y-91867639D01*
X150168402Y-92046877D01*
X150323123Y-92201598D01*
X150502361Y-92327102D01*
X150700670Y-92419575D01*
X150912023Y-92476207D01*
X151094926Y-92492208D01*
X151129998Y-92495277D01*
X151130000Y-92495277D01*
X151130002Y-92495277D01*
X151158254Y-92492805D01*
X151347977Y-92476207D01*
X151559330Y-92419575D01*
X151757639Y-92327102D01*
X151936877Y-92201598D01*
X152091598Y-92046877D01*
X152094050Y-92043374D01*
X152148628Y-91999751D01*
X152195624Y-91990500D01*
X153628920Y-91990500D01*
X153726462Y-91971096D01*
X153773913Y-91961658D01*
X153910495Y-91905084D01*
X153966536Y-91867639D01*
X154033416Y-91822952D01*
X155694549Y-90161817D01*
X155755872Y-90128333D01*
X155782230Y-90125499D01*
X156195002Y-90125499D01*
X156195008Y-90125499D01*
X156297797Y-90114999D01*
X156464334Y-90059814D01*
X156613656Y-89967712D01*
X156737712Y-89843656D01*
X156739461Y-89840819D01*
X156741169Y-89839283D01*
X156742193Y-89837989D01*
X156742414Y-89838163D01*
X156791406Y-89794096D01*
X156860368Y-89782872D01*
X156924451Y-89810713D01*
X156950537Y-89840817D01*
X156952288Y-89843656D01*
X157076344Y-89967712D01*
X157225666Y-90059814D01*
X157392203Y-90114999D01*
X157494991Y-90125500D01*
X158095008Y-90125499D01*
X158095016Y-90125498D01*
X158095019Y-90125498D01*
X158151302Y-90119748D01*
X158197797Y-90114999D01*
X158364334Y-90059814D01*
X158513656Y-89967712D01*
X158637712Y-89843656D01*
X158720519Y-89709402D01*
X158772467Y-89662679D01*
X158826058Y-89650500D01*
X160984582Y-89650500D01*
X161051621Y-89670185D01*
X161084900Y-89701615D01*
X161118028Y-89747212D01*
X161118032Y-89747217D01*
X161262786Y-89891971D01*
X161367037Y-89967712D01*
X161428390Y-90012287D01*
X161521630Y-90059795D01*
X161610776Y-90105218D01*
X161610778Y-90105218D01*
X161610781Y-90105220D01*
X161715137Y-90139127D01*
X161805465Y-90168477D01*
X161850381Y-90175591D01*
X162007648Y-90200500D01*
X162007649Y-90200500D01*
X163112351Y-90200500D01*
X163112352Y-90200500D01*
X163314534Y-90168477D01*
X163509219Y-90105220D01*
X163691610Y-90012287D01*
X163784590Y-89944732D01*
X163857213Y-89891971D01*
X163857215Y-89891968D01*
X163857219Y-89891966D01*
X164001966Y-89747219D01*
X164001968Y-89747215D01*
X164001971Y-89747213D01*
X164073685Y-89648505D01*
X164122287Y-89581610D01*
X164215220Y-89399219D01*
X164278477Y-89204534D01*
X164310500Y-89002352D01*
X164310500Y-88797648D01*
X164278477Y-88595466D01*
X164215220Y-88400781D01*
X164215218Y-88400778D01*
X164215218Y-88400776D01*
X164181503Y-88334607D01*
X164122287Y-88218390D01*
X164072236Y-88149500D01*
X164001971Y-88052786D01*
X163857213Y-87908028D01*
X163691611Y-87787713D01*
X163598369Y-87740203D01*
X163547574Y-87692229D01*
X163530779Y-87624407D01*
X163553317Y-87558273D01*
X163598371Y-87519234D01*
X163691347Y-87471861D01*
X163856894Y-87351582D01*
X163856895Y-87351582D01*
X164001582Y-87206895D01*
X164001582Y-87206894D01*
X164121859Y-87041349D01*
X164214755Y-86859029D01*
X164277990Y-86664413D01*
X164286609Y-86610000D01*
X162929504Y-86610000D01*
X162974674Y-86531764D01*
X163005000Y-86418585D01*
X163005000Y-86301415D01*
X162974674Y-86188236D01*
X162929504Y-86110000D01*
X164286609Y-86110000D01*
X164277990Y-86055586D01*
X164214755Y-85860970D01*
X164121859Y-85678650D01*
X164001582Y-85513105D01*
X164001582Y-85513104D01*
X163856895Y-85368417D01*
X163691349Y-85248140D01*
X163509031Y-85155244D01*
X163314417Y-85092009D01*
X163112317Y-85060000D01*
X162810000Y-85060000D01*
X162810000Y-85990495D01*
X162731764Y-85945326D01*
X162618585Y-85915000D01*
X162501415Y-85915000D01*
X162388236Y-85945326D01*
X162310000Y-85990495D01*
X162310000Y-85060000D01*
X162007683Y-85060000D01*
X161805582Y-85092009D01*
X161610968Y-85155244D01*
X161428650Y-85248140D01*
X161263105Y-85368417D01*
X161263104Y-85368417D01*
X161118417Y-85513104D01*
X161118417Y-85513105D01*
X160998140Y-85678650D01*
X160905244Y-85860970D01*
X160842009Y-86055586D01*
X160833391Y-86110000D01*
X162190496Y-86110000D01*
X162145326Y-86188236D01*
X162115000Y-86301415D01*
X162115000Y-86418585D01*
X162145326Y-86531764D01*
X162190496Y-86610000D01*
X160833391Y-86610000D01*
X160842009Y-86664413D01*
X160905244Y-86859029D01*
X160998140Y-87041349D01*
X161118417Y-87206894D01*
X161118417Y-87206895D01*
X161263104Y-87351582D01*
X161428652Y-87471861D01*
X161521628Y-87519234D01*
X161572425Y-87567208D01*
X161589220Y-87635029D01*
X161566683Y-87701164D01*
X161521630Y-87740203D01*
X161428388Y-87787713D01*
X161262786Y-87908028D01*
X161118032Y-88052782D01*
X161118028Y-88052787D01*
X161084900Y-88098385D01*
X161029571Y-88141051D01*
X160984582Y-88149500D01*
X158826058Y-88149500D01*
X158759019Y-88129815D01*
X158720519Y-88090597D01*
X158697198Y-88052787D01*
X158637712Y-87956344D01*
X158513656Y-87832288D01*
X158364334Y-87740186D01*
X158197797Y-87685001D01*
X158197795Y-87685000D01*
X158095010Y-87674500D01*
X157494998Y-87674500D01*
X157494980Y-87674501D01*
X157392203Y-87685000D01*
X157392200Y-87685001D01*
X157225668Y-87740185D01*
X157225663Y-87740187D01*
X157076342Y-87832289D01*
X156952285Y-87956346D01*
X156950537Y-87959182D01*
X156948829Y-87960717D01*
X156947807Y-87962011D01*
X156947585Y-87961836D01*
X156898589Y-88005905D01*
X156829626Y-88017126D01*
X156765544Y-87989282D01*
X156739463Y-87959182D01*
X156737714Y-87956346D01*
X156613657Y-87832289D01*
X156613656Y-87832288D01*
X156464334Y-87740186D01*
X156297797Y-87685001D01*
X156297795Y-87685000D01*
X156195010Y-87674500D01*
X155594998Y-87674500D01*
X155594980Y-87674501D01*
X155492203Y-87685000D01*
X155492200Y-87685001D01*
X155325668Y-87740185D01*
X155325663Y-87740187D01*
X155176342Y-87832289D01*
X155052289Y-87956342D01*
X154960187Y-88105663D01*
X154960185Y-88105668D01*
X154945661Y-88149500D01*
X154905001Y-88272203D01*
X154905001Y-88272204D01*
X154905000Y-88272204D01*
X154894500Y-88374983D01*
X154894500Y-88787769D01*
X154874815Y-88854808D01*
X154858181Y-88875450D01*
X153280451Y-90453181D01*
X153219128Y-90486666D01*
X153192770Y-90489500D01*
X152195624Y-90489500D01*
X152128585Y-90469815D01*
X152094048Y-90436622D01*
X152091598Y-90433123D01*
X152091594Y-90433119D01*
X151936877Y-90278402D01*
X151757639Y-90152898D01*
X151757640Y-90152898D01*
X151757638Y-90152897D01*
X151655389Y-90105218D01*
X151559330Y-90060425D01*
X151559326Y-90060424D01*
X151559322Y-90060422D01*
X151347977Y-90003793D01*
X151130002Y-89984723D01*
X151129998Y-89984723D01*
X150984682Y-89997436D01*
X150912023Y-90003793D01*
X150912020Y-90003793D01*
X150700677Y-90060422D01*
X150700668Y-90060426D01*
X150502361Y-90152898D01*
X150502357Y-90152900D01*
X150323121Y-90278402D01*
X150168402Y-90433121D01*
X150042900Y-90612357D01*
X150042898Y-90612361D01*
X149950426Y-90810668D01*
X149950422Y-90810677D01*
X149893793Y-91022020D01*
X149893793Y-91022024D01*
X149874723Y-91239997D01*
X149874723Y-91240002D01*
X143495277Y-91240002D01*
X143495277Y-91240000D01*
X143476207Y-91022023D01*
X143419575Y-90810670D01*
X143327102Y-90612362D01*
X143327100Y-90612359D01*
X143327099Y-90612357D01*
X143201599Y-90433124D01*
X143201594Y-90433119D01*
X143046877Y-90278402D01*
X142867639Y-90152898D01*
X142867640Y-90152898D01*
X142867638Y-90152897D01*
X142765389Y-90105218D01*
X142669330Y-90060425D01*
X142669326Y-90060424D01*
X142669322Y-90060422D01*
X142457977Y-90003793D01*
X142240002Y-89984723D01*
X142239998Y-89984723D01*
X142094682Y-89997436D01*
X142022023Y-90003793D01*
X142022020Y-90003793D01*
X141810677Y-90060422D01*
X141810668Y-90060426D01*
X141612361Y-90152898D01*
X141612357Y-90152900D01*
X141433121Y-90278402D01*
X141278404Y-90433119D01*
X141275952Y-90436622D01*
X141221375Y-90480248D01*
X141174376Y-90489500D01*
X138562007Y-90489500D01*
X138523003Y-90483206D01*
X138514076Y-90480248D01*
X138422797Y-90450001D01*
X138422795Y-90450000D01*
X138320010Y-90439500D01*
X137269998Y-90439500D01*
X137269980Y-90439501D01*
X137167203Y-90450000D01*
X137167199Y-90450001D01*
X137066995Y-90483206D01*
X137027991Y-90489500D01*
X134415624Y-90489500D01*
X134348585Y-90469815D01*
X134314048Y-90436622D01*
X134311598Y-90433123D01*
X134311594Y-90433119D01*
X134156877Y-90278402D01*
X133977639Y-90152898D01*
X133977640Y-90152898D01*
X133977638Y-90152897D01*
X133875389Y-90105218D01*
X133779330Y-90060425D01*
X133779326Y-90060424D01*
X133779322Y-90060422D01*
X133567977Y-90003793D01*
X133350002Y-89984723D01*
X133349998Y-89984723D01*
X133204682Y-89997436D01*
X133132023Y-90003793D01*
X133132020Y-90003793D01*
X132920677Y-90060422D01*
X132920668Y-90060426D01*
X132722361Y-90152898D01*
X132722357Y-90152900D01*
X132543121Y-90278402D01*
X132388402Y-90433121D01*
X132262900Y-90612357D01*
X132262898Y-90612361D01*
X132170426Y-90810668D01*
X132170422Y-90810677D01*
X132113793Y-91022020D01*
X132113793Y-91022024D01*
X132094723Y-91239997D01*
X132094723Y-91240002D01*
X125715277Y-91240002D01*
X125715277Y-91240000D01*
X125696207Y-91022023D01*
X125639575Y-90810670D01*
X125547102Y-90612362D01*
X125547100Y-90612359D01*
X125547099Y-90612357D01*
X125421599Y-90433124D01*
X125421594Y-90433119D01*
X125266877Y-90278402D01*
X125087639Y-90152898D01*
X125087640Y-90152898D01*
X125087638Y-90152897D01*
X124985389Y-90105218D01*
X124889330Y-90060425D01*
X124889326Y-90060424D01*
X124889322Y-90060422D01*
X124677977Y-90003793D01*
X124460002Y-89984723D01*
X124459998Y-89984723D01*
X124314682Y-89997436D01*
X124242023Y-90003793D01*
X124242020Y-90003793D01*
X124030677Y-90060422D01*
X124030668Y-90060426D01*
X123832361Y-90152898D01*
X123832357Y-90152900D01*
X123653121Y-90278402D01*
X123498404Y-90433119D01*
X123495952Y-90436622D01*
X123441375Y-90480248D01*
X123394376Y-90489500D01*
X122712230Y-90489500D01*
X122645191Y-90469815D01*
X122624549Y-90453181D01*
X121046818Y-88875450D01*
X121013333Y-88814127D01*
X121010499Y-88787769D01*
X121010499Y-88374998D01*
X121010498Y-88374981D01*
X120999999Y-88272203D01*
X120999998Y-88272200D01*
X120982166Y-88218386D01*
X120944814Y-88105666D01*
X120852712Y-87956344D01*
X120728656Y-87832288D01*
X120579334Y-87740186D01*
X120412797Y-87685001D01*
X120412795Y-87685000D01*
X120310010Y-87674500D01*
X119709998Y-87674500D01*
X119709980Y-87674501D01*
X119607203Y-87685000D01*
X119607200Y-87685001D01*
X119440668Y-87740185D01*
X119440663Y-87740187D01*
X119291342Y-87832289D01*
X119167285Y-87956346D01*
X119165537Y-87959182D01*
X119163829Y-87960717D01*
X119162807Y-87962011D01*
X119162585Y-87961836D01*
X119113589Y-88005905D01*
X119044626Y-88017126D01*
X118980544Y-87989282D01*
X118954463Y-87959182D01*
X118952714Y-87956346D01*
X118828657Y-87832289D01*
X118828656Y-87832288D01*
X118679334Y-87740186D01*
X118512797Y-87685001D01*
X118512795Y-87685000D01*
X118410010Y-87674500D01*
X117809998Y-87674500D01*
X117809980Y-87674501D01*
X117707203Y-87685000D01*
X117707200Y-87685001D01*
X117540668Y-87740185D01*
X117540663Y-87740187D01*
X117391342Y-87832289D01*
X117267289Y-87956342D01*
X117246972Y-87989282D01*
X117207803Y-88052786D01*
X117184481Y-88090597D01*
X117132533Y-88137321D01*
X117078942Y-88149500D01*
X115875418Y-88149500D01*
X115808379Y-88129815D01*
X115775100Y-88098385D01*
X115741971Y-88052787D01*
X115741967Y-88052782D01*
X115597213Y-87908028D01*
X115431613Y-87787715D01*
X115431612Y-87787714D01*
X115431610Y-87787713D01*
X115338367Y-87740203D01*
X115249223Y-87694781D01*
X115054534Y-87631522D01*
X114879995Y-87603878D01*
X114852352Y-87599500D01*
X113747648Y-87599500D01*
X113723329Y-87603351D01*
X113545465Y-87631522D01*
X113350776Y-87694781D01*
X113168386Y-87787715D01*
X113002786Y-87908028D01*
X112858028Y-88052786D01*
X112737715Y-88218386D01*
X112644781Y-88400776D01*
X112581522Y-88595465D01*
X112549500Y-88797648D01*
X112549500Y-89002351D01*
X100830500Y-89002351D01*
X100830500Y-86360002D01*
X123204723Y-86360002D01*
X123223793Y-86577975D01*
X123223793Y-86577979D01*
X123280422Y-86789322D01*
X123280424Y-86789326D01*
X123280425Y-86789330D01*
X123287732Y-86805000D01*
X123372897Y-86987638D01*
X123372898Y-86987639D01*
X123498402Y-87166877D01*
X123653123Y-87321598D01*
X123832361Y-87447102D01*
X124030670Y-87539575D01*
X124242023Y-87596207D01*
X124424926Y-87612208D01*
X124459998Y-87615277D01*
X124460000Y-87615277D01*
X124460002Y-87615277D01*
X124488254Y-87612805D01*
X124677977Y-87596207D01*
X124889330Y-87539575D01*
X125087639Y-87447102D01*
X125266877Y-87321598D01*
X125421598Y-87166877D01*
X125424050Y-87163374D01*
X125478628Y-87119751D01*
X125525624Y-87110500D01*
X127817770Y-87110500D01*
X127884809Y-87130185D01*
X127905451Y-87146819D01*
X127961344Y-87202712D01*
X128110666Y-87294814D01*
X128277203Y-87349999D01*
X128379991Y-87360500D01*
X129430008Y-87360499D01*
X129430016Y-87360498D01*
X129430019Y-87360498D01*
X129517300Y-87351582D01*
X129532797Y-87349999D01*
X129699334Y-87294814D01*
X129848656Y-87202712D01*
X129904549Y-87146819D01*
X129965872Y-87113334D01*
X129992230Y-87110500D01*
X132284376Y-87110500D01*
X132351415Y-87130185D01*
X132385949Y-87163374D01*
X132388402Y-87166877D01*
X132543123Y-87321598D01*
X132722361Y-87447102D01*
X132920670Y-87539575D01*
X133132023Y-87596207D01*
X133314926Y-87612208D01*
X133349998Y-87615277D01*
X133350000Y-87615277D01*
X133350002Y-87615277D01*
X133378254Y-87612805D01*
X133567977Y-87596207D01*
X133779330Y-87539575D01*
X133977639Y-87447102D01*
X134156877Y-87321598D01*
X134311598Y-87166877D01*
X134437102Y-86987639D01*
X134529575Y-86789330D01*
X134586207Y-86577977D01*
X134605277Y-86360002D01*
X140984723Y-86360002D01*
X141003793Y-86577975D01*
X141003793Y-86577979D01*
X141060422Y-86789322D01*
X141060424Y-86789326D01*
X141060425Y-86789330D01*
X141067732Y-86805000D01*
X141152897Y-86987638D01*
X141152898Y-86987639D01*
X141278402Y-87166877D01*
X141433123Y-87321598D01*
X141612361Y-87447102D01*
X141810670Y-87539575D01*
X142022023Y-87596207D01*
X142204926Y-87612208D01*
X142239998Y-87615277D01*
X142240000Y-87615277D01*
X142240002Y-87615277D01*
X142268254Y-87612805D01*
X142457977Y-87596207D01*
X142669330Y-87539575D01*
X142867639Y-87447102D01*
X143046877Y-87321598D01*
X143201598Y-87166877D01*
X143207551Y-87158376D01*
X143262128Y-87114751D01*
X143309125Y-87105500D01*
X145597770Y-87105500D01*
X145664809Y-87125185D01*
X145685451Y-87141819D01*
X145741344Y-87197712D01*
X145890666Y-87289814D01*
X146057203Y-87344999D01*
X146159991Y-87355500D01*
X147210008Y-87355499D01*
X147210016Y-87355498D01*
X147210019Y-87355498D01*
X147266302Y-87349748D01*
X147312797Y-87344999D01*
X147479334Y-87289814D01*
X147628656Y-87197712D01*
X147679549Y-87146819D01*
X147740872Y-87113334D01*
X147767230Y-87110500D01*
X150064376Y-87110500D01*
X150131415Y-87130185D01*
X150165949Y-87163374D01*
X150168402Y-87166877D01*
X150323123Y-87321598D01*
X150502361Y-87447102D01*
X150700670Y-87539575D01*
X150912023Y-87596207D01*
X151094926Y-87612208D01*
X151129998Y-87615277D01*
X151130000Y-87615277D01*
X151130002Y-87615277D01*
X151158254Y-87612805D01*
X151347977Y-87596207D01*
X151559330Y-87539575D01*
X151757639Y-87447102D01*
X151936877Y-87321598D01*
X152091598Y-87166877D01*
X152217102Y-86987639D01*
X152309575Y-86789330D01*
X152366207Y-86577977D01*
X152385277Y-86360000D01*
X152366207Y-86142023D01*
X152309575Y-85930670D01*
X152217102Y-85732362D01*
X152217100Y-85732359D01*
X152217099Y-85732357D01*
X152091599Y-85553124D01*
X152022636Y-85484161D01*
X151936877Y-85398402D01*
X151792514Y-85297318D01*
X151757638Y-85272897D01*
X151658484Y-85226661D01*
X151559330Y-85180425D01*
X151559326Y-85180424D01*
X151559322Y-85180422D01*
X151347977Y-85123793D01*
X151130002Y-85104723D01*
X151129998Y-85104723D01*
X150984682Y-85117436D01*
X150912023Y-85123793D01*
X150912020Y-85123793D01*
X150700677Y-85180422D01*
X150700668Y-85180426D01*
X150502361Y-85272898D01*
X150502357Y-85272900D01*
X150323121Y-85398402D01*
X150168404Y-85553119D01*
X150165952Y-85556622D01*
X150111375Y-85600248D01*
X150064376Y-85609500D01*
X147777230Y-85609500D01*
X147710191Y-85589815D01*
X147689549Y-85573181D01*
X147628657Y-85512289D01*
X147628656Y-85512288D01*
X147625342Y-85510243D01*
X147623546Y-85508248D01*
X147622989Y-85507807D01*
X147623064Y-85507711D01*
X147578618Y-85458297D01*
X147567397Y-85389334D01*
X147595240Y-85325252D01*
X147625348Y-85299165D01*
X147628342Y-85297318D01*
X147752315Y-85173345D01*
X147844356Y-85024124D01*
X147844358Y-85024119D01*
X147899505Y-84857697D01*
X147899506Y-84857690D01*
X147909999Y-84754986D01*
X147910000Y-84754973D01*
X147910000Y-84705000D01*
X145460001Y-84705000D01*
X145460001Y-84754986D01*
X145470494Y-84857697D01*
X145525641Y-85024119D01*
X145525643Y-85024124D01*
X145617684Y-85173345D01*
X145741655Y-85297316D01*
X145741659Y-85297319D01*
X145744656Y-85299168D01*
X145746279Y-85300972D01*
X145747323Y-85301798D01*
X145747181Y-85301976D01*
X145791381Y-85351116D01*
X145802602Y-85420079D01*
X145774759Y-85484161D01*
X145744661Y-85510241D01*
X145741349Y-85512283D01*
X145741343Y-85512288D01*
X145685451Y-85568181D01*
X145624128Y-85601666D01*
X145597770Y-85604500D01*
X143302123Y-85604500D01*
X143235084Y-85584815D01*
X143205794Y-85556665D01*
X143205077Y-85557268D01*
X143201604Y-85553129D01*
X143132636Y-85484161D01*
X143046877Y-85398402D01*
X142902514Y-85297318D01*
X142867638Y-85272897D01*
X142768484Y-85226661D01*
X142669330Y-85180425D01*
X142669326Y-85180424D01*
X142669322Y-85180422D01*
X142457977Y-85123793D01*
X142240002Y-85104723D01*
X142239998Y-85104723D01*
X142094682Y-85117436D01*
X142022023Y-85123793D01*
X142022020Y-85123793D01*
X141810677Y-85180422D01*
X141810668Y-85180426D01*
X141612361Y-85272898D01*
X141612357Y-85272900D01*
X141433121Y-85398402D01*
X141278402Y-85553121D01*
X141152900Y-85732357D01*
X141152898Y-85732361D01*
X141060426Y-85930668D01*
X141060422Y-85930677D01*
X141003793Y-86142020D01*
X141003793Y-86142024D01*
X140984723Y-86359997D01*
X140984723Y-86360002D01*
X134605277Y-86360002D01*
X134605277Y-86360000D01*
X134586207Y-86142023D01*
X134529575Y-85930670D01*
X134437102Y-85732362D01*
X134437100Y-85732359D01*
X134437099Y-85732357D01*
X134311599Y-85553124D01*
X134242636Y-85484161D01*
X134156877Y-85398402D01*
X134012514Y-85297318D01*
X133977638Y-85272897D01*
X133878484Y-85226661D01*
X133779330Y-85180425D01*
X133779326Y-85180424D01*
X133779322Y-85180422D01*
X133567977Y-85123793D01*
X133350002Y-85104723D01*
X133349998Y-85104723D01*
X133204682Y-85117436D01*
X133132023Y-85123793D01*
X133132020Y-85123793D01*
X132920677Y-85180422D01*
X132920668Y-85180426D01*
X132722361Y-85272898D01*
X132722357Y-85272900D01*
X132543121Y-85398402D01*
X132388404Y-85553119D01*
X132385952Y-85556622D01*
X132331375Y-85600248D01*
X132284376Y-85609500D01*
X129992230Y-85609500D01*
X129925191Y-85589815D01*
X129904549Y-85573181D01*
X129848657Y-85517289D01*
X129848656Y-85517288D01*
X129845342Y-85515243D01*
X129843546Y-85513248D01*
X129842989Y-85512807D01*
X129843064Y-85512711D01*
X129798618Y-85463297D01*
X129787397Y-85394334D01*
X129815240Y-85330252D01*
X129845348Y-85304165D01*
X129848342Y-85302318D01*
X129972315Y-85178345D01*
X130064356Y-85029124D01*
X130064358Y-85029119D01*
X130119505Y-84862697D01*
X130119506Y-84862690D01*
X130129999Y-84759986D01*
X130130000Y-84759973D01*
X130130000Y-84710000D01*
X127680001Y-84710000D01*
X127680001Y-84759986D01*
X127690494Y-84862697D01*
X127745641Y-85029119D01*
X127745643Y-85029124D01*
X127837684Y-85178345D01*
X127961655Y-85302316D01*
X127961659Y-85302319D01*
X127964656Y-85304168D01*
X127966279Y-85305972D01*
X127967323Y-85306798D01*
X127967181Y-85306976D01*
X128011381Y-85356116D01*
X128022602Y-85425079D01*
X127994759Y-85489161D01*
X127964661Y-85515241D01*
X127961349Y-85517283D01*
X127961343Y-85517288D01*
X127905451Y-85573181D01*
X127844128Y-85606666D01*
X127817770Y-85609500D01*
X125525624Y-85609500D01*
X125458585Y-85589815D01*
X125424048Y-85556622D01*
X125421598Y-85553123D01*
X125352636Y-85484161D01*
X125266877Y-85398402D01*
X125122514Y-85297318D01*
X125087638Y-85272897D01*
X124988484Y-85226661D01*
X124889330Y-85180425D01*
X124889326Y-85180424D01*
X124889322Y-85180422D01*
X124677977Y-85123793D01*
X124460002Y-85104723D01*
X124459998Y-85104723D01*
X124314682Y-85117436D01*
X124242023Y-85123793D01*
X124242020Y-85123793D01*
X124030677Y-85180422D01*
X124030668Y-85180426D01*
X123832361Y-85272898D01*
X123832357Y-85272900D01*
X123653121Y-85398402D01*
X123498402Y-85553121D01*
X123372900Y-85732357D01*
X123372898Y-85732361D01*
X123280426Y-85930668D01*
X123280422Y-85930677D01*
X123223793Y-86142020D01*
X123223793Y-86142024D01*
X123204723Y-86359997D01*
X123204723Y-86360002D01*
X100830500Y-86360002D01*
X100830500Y-83570000D01*
X105233497Y-83570000D01*
X108245038Y-83570000D01*
X108215000Y-83721016D01*
X108215000Y-83918984D01*
X108245038Y-84070000D01*
X105233498Y-84070000D01*
X105258496Y-84259884D01*
X105258499Y-84259897D01*
X105334835Y-84544790D01*
X105334838Y-84544800D01*
X105447704Y-84817281D01*
X105447709Y-84817292D01*
X105595174Y-85072707D01*
X105595185Y-85072723D01*
X105774729Y-85306709D01*
X105774735Y-85306716D01*
X105983283Y-85515264D01*
X105983290Y-85515270D01*
X106217276Y-85694814D01*
X106217292Y-85694825D01*
X106472707Y-85842290D01*
X106472718Y-85842295D01*
X106745199Y-85955161D01*
X106745209Y-85955164D01*
X107030102Y-86031500D01*
X107030115Y-86031503D01*
X107322516Y-86069998D01*
X107322534Y-86070000D01*
X108970000Y-86070000D01*
X108970000Y-84794961D01*
X109121016Y-84825000D01*
X109318984Y-84825000D01*
X109470000Y-84794961D01*
X109470000Y-86070000D01*
X111117466Y-86070000D01*
X111117483Y-86069998D01*
X111409884Y-86031503D01*
X111409897Y-86031500D01*
X111694790Y-85955164D01*
X111694800Y-85955161D01*
X111967281Y-85842295D01*
X111967292Y-85842290D01*
X112222707Y-85694825D01*
X112222723Y-85694814D01*
X112456709Y-85515270D01*
X112456716Y-85515264D01*
X112665264Y-85306716D01*
X112665270Y-85306709D01*
X112844814Y-85072723D01*
X112844825Y-85072707D01*
X112992290Y-84817292D01*
X112992295Y-84817281D01*
X113105161Y-84544800D01*
X113105164Y-84544790D01*
X113181500Y-84259897D01*
X113181503Y-84259884D01*
X113188070Y-84210000D01*
X127680000Y-84210000D01*
X128655000Y-84210000D01*
X128655000Y-83460000D01*
X129155000Y-83460000D01*
X129155000Y-84210000D01*
X130129999Y-84210000D01*
X130129999Y-84205000D01*
X145460000Y-84205000D01*
X146435000Y-84205000D01*
X146435000Y-83455000D01*
X146935000Y-83455000D01*
X146935000Y-84205000D01*
X147909999Y-84205000D01*
X147909999Y-84155028D01*
X147909998Y-84155013D01*
X147899505Y-84052302D01*
X147844358Y-83885880D01*
X147844356Y-83885875D01*
X147752315Y-83736654D01*
X147628345Y-83612684D01*
X147559144Y-83570000D01*
X163653497Y-83570000D01*
X166665038Y-83570000D01*
X166635000Y-83721016D01*
X166635000Y-83918984D01*
X166665038Y-84070000D01*
X163653498Y-84070000D01*
X163678496Y-84259884D01*
X163678499Y-84259897D01*
X163754835Y-84544790D01*
X163754838Y-84544800D01*
X163867704Y-84817281D01*
X163867709Y-84817292D01*
X164015174Y-85072707D01*
X164015185Y-85072723D01*
X164194729Y-85306709D01*
X164194735Y-85306716D01*
X164403283Y-85515264D01*
X164403290Y-85515270D01*
X164637276Y-85694814D01*
X164637292Y-85694825D01*
X164892707Y-85842290D01*
X164892718Y-85842295D01*
X165165199Y-85955161D01*
X165165209Y-85955164D01*
X165450102Y-86031500D01*
X165450115Y-86031503D01*
X165742516Y-86069998D01*
X165742534Y-86070000D01*
X167390000Y-86070000D01*
X167390000Y-84794961D01*
X167541016Y-84825000D01*
X167738984Y-84825000D01*
X167890000Y-84794961D01*
X167890000Y-86070000D01*
X169537466Y-86070000D01*
X169537483Y-86069998D01*
X169829884Y-86031503D01*
X169829897Y-86031500D01*
X170114790Y-85955164D01*
X170114800Y-85955161D01*
X170387281Y-85842295D01*
X170387292Y-85842290D01*
X170642707Y-85694825D01*
X170642723Y-85694814D01*
X170876709Y-85515270D01*
X170876716Y-85515264D01*
X171085264Y-85306716D01*
X171085270Y-85306709D01*
X171264814Y-85072723D01*
X171264825Y-85072707D01*
X171412290Y-84817292D01*
X171412295Y-84817281D01*
X171525161Y-84544800D01*
X171525164Y-84544790D01*
X171601500Y-84259897D01*
X171601503Y-84259884D01*
X171626502Y-84070000D01*
X168614962Y-84070000D01*
X168645000Y-83918984D01*
X168645000Y-83721016D01*
X168614962Y-83570000D01*
X171626502Y-83570000D01*
X171601503Y-83380115D01*
X171601500Y-83380102D01*
X171525164Y-83095209D01*
X171525161Y-83095199D01*
X171412295Y-82822718D01*
X171412290Y-82822707D01*
X171264825Y-82567292D01*
X171264814Y-82567276D01*
X171085270Y-82333290D01*
X171085264Y-82333283D01*
X170876716Y-82124735D01*
X170876709Y-82124729D01*
X170642723Y-81945185D01*
X170642707Y-81945174D01*
X170387292Y-81797709D01*
X170387281Y-81797704D01*
X170114800Y-81684838D01*
X170114790Y-81684835D01*
X169829897Y-81608499D01*
X169829884Y-81608496D01*
X169537483Y-81570001D01*
X169537466Y-81570000D01*
X167890000Y-81570000D01*
X167890000Y-82845038D01*
X167738984Y-82815000D01*
X167541016Y-82815000D01*
X167390000Y-82845038D01*
X167390000Y-81570000D01*
X165742534Y-81570000D01*
X165742516Y-81570001D01*
X165450115Y-81608496D01*
X165450102Y-81608499D01*
X165165209Y-81684835D01*
X165165199Y-81684838D01*
X164892718Y-81797704D01*
X164892707Y-81797709D01*
X164637292Y-81945174D01*
X164637276Y-81945185D01*
X164403290Y-82124729D01*
X164403283Y-82124735D01*
X164194735Y-82333283D01*
X164194729Y-82333290D01*
X164015185Y-82567276D01*
X164015174Y-82567292D01*
X163867709Y-82822707D01*
X163867704Y-82822718D01*
X163754838Y-83095199D01*
X163754835Y-83095209D01*
X163678499Y-83380102D01*
X163678496Y-83380115D01*
X163653497Y-83570000D01*
X147559144Y-83570000D01*
X147479124Y-83520643D01*
X147479119Y-83520641D01*
X147312697Y-83465494D01*
X147312690Y-83465493D01*
X147209986Y-83455000D01*
X146935000Y-83455000D01*
X146435000Y-83455000D01*
X146160029Y-83455000D01*
X146160012Y-83455001D01*
X146057302Y-83465494D01*
X145890880Y-83520641D01*
X145890875Y-83520643D01*
X145741654Y-83612684D01*
X145617684Y-83736654D01*
X145525643Y-83885875D01*
X145525641Y-83885880D01*
X145470494Y-84052302D01*
X145470493Y-84052309D01*
X145460000Y-84155013D01*
X145460000Y-84205000D01*
X130129999Y-84205000D01*
X130129999Y-84160028D01*
X130129998Y-84160013D01*
X130119505Y-84057302D01*
X130064358Y-83890880D01*
X130064356Y-83890875D01*
X129972315Y-83741654D01*
X129848345Y-83617684D01*
X129699124Y-83525643D01*
X129699119Y-83525641D01*
X129532697Y-83470494D01*
X129532690Y-83470493D01*
X129429986Y-83460000D01*
X129155000Y-83460000D01*
X128655000Y-83460000D01*
X128380029Y-83460000D01*
X128380012Y-83460001D01*
X128277302Y-83470494D01*
X128110880Y-83525641D01*
X128110875Y-83525643D01*
X127961654Y-83617684D01*
X127837684Y-83741654D01*
X127745643Y-83890875D01*
X127745641Y-83890880D01*
X127690494Y-84057302D01*
X127690493Y-84057309D01*
X127680000Y-84160013D01*
X127680000Y-84210000D01*
X113188070Y-84210000D01*
X113206502Y-84070000D01*
X110194962Y-84070000D01*
X110225000Y-83918984D01*
X110225000Y-83721016D01*
X110194962Y-83570000D01*
X113206502Y-83570000D01*
X113181503Y-83380115D01*
X113181500Y-83380102D01*
X113105164Y-83095209D01*
X113105161Y-83095199D01*
X112992295Y-82822718D01*
X112992290Y-82822707D01*
X112844825Y-82567292D01*
X112844814Y-82567276D01*
X112665270Y-82333290D01*
X112665264Y-82333283D01*
X112456716Y-82124735D01*
X112456709Y-82124729D01*
X112222723Y-81945185D01*
X112222707Y-81945174D01*
X111967292Y-81797709D01*
X111967281Y-81797704D01*
X111694800Y-81684838D01*
X111694790Y-81684835D01*
X111409897Y-81608499D01*
X111409884Y-81608496D01*
X111117483Y-81570001D01*
X111117466Y-81570000D01*
X109470000Y-81570000D01*
X109470000Y-82845038D01*
X109318984Y-82815000D01*
X109121016Y-82815000D01*
X108970000Y-82845038D01*
X108970000Y-81570000D01*
X107322534Y-81570000D01*
X107322516Y-81570001D01*
X107030115Y-81608496D01*
X107030102Y-81608499D01*
X106745209Y-81684835D01*
X106745199Y-81684838D01*
X106472718Y-81797704D01*
X106472707Y-81797709D01*
X106217292Y-81945174D01*
X106217276Y-81945185D01*
X105983290Y-82124729D01*
X105983283Y-82124735D01*
X105774735Y-82333283D01*
X105774729Y-82333290D01*
X105595185Y-82567276D01*
X105595174Y-82567292D01*
X105447709Y-82822707D01*
X105447704Y-82822718D01*
X105334838Y-83095199D01*
X105334835Y-83095209D01*
X105258499Y-83380102D01*
X105258496Y-83380115D01*
X105233497Y-83570000D01*
X100830500Y-83570000D01*
X100830500Y-79364500D01*
X100850185Y-79297461D01*
X100902989Y-79251706D01*
X100954500Y-79240500D01*
X175905500Y-79240500D01*
X175972539Y-79260185D01*
G37*
%TD.AperFunction*%
%TD*%
M02*
