%TF.GenerationSoftware,KiCad,Pcbnew,9.0.3*%
%TF.CreationDate,2025-07-24T18:02:03+02:00*%
%TF.ProjectId,OM345_Testrig,4f4d3334-355f-4546-9573-747269672e6b,rev?*%
%TF.SameCoordinates,Original*%
%TF.FileFunction,Legend,Bot*%
%TF.FilePolarity,Positive*%
%FSLAX46Y46*%
G04 Gerber Fmt 4.6, Leading zero omitted, Abs format (unit mm)*
G04 Created by KiCad (PCBNEW 9.0.3) date 2025-07-24 18:02:03*
%MOMM*%
%LPD*%
G01*
G04 APERTURE LIST*
%ADD10C,0.381000*%
G04 APERTURE END LIST*
D10*
X147156714Y-75166109D02*
X147156714Y-73261109D01*
X147156714Y-73261109D02*
X146703143Y-73261109D01*
X146703143Y-73261109D02*
X146431000Y-73351823D01*
X146431000Y-73351823D02*
X146249571Y-73533252D01*
X146249571Y-73533252D02*
X146158857Y-73714680D01*
X146158857Y-73714680D02*
X146068143Y-74077537D01*
X146068143Y-74077537D02*
X146068143Y-74349680D01*
X146068143Y-74349680D02*
X146158857Y-74712537D01*
X146158857Y-74712537D02*
X146249571Y-74893966D01*
X146249571Y-74893966D02*
X146431000Y-75075395D01*
X146431000Y-75075395D02*
X146703143Y-75166109D01*
X146703143Y-75166109D02*
X147156714Y-75166109D01*
X145251714Y-75166109D02*
X145251714Y-73261109D01*
X144163143Y-75166109D02*
X144979571Y-74077537D01*
X144163143Y-73261109D02*
X145251714Y-74349680D01*
X143528143Y-73261109D02*
X142348857Y-73261109D01*
X142348857Y-73261109D02*
X142983857Y-73986823D01*
X142983857Y-73986823D02*
X142711714Y-73986823D01*
X142711714Y-73986823D02*
X142530286Y-74077537D01*
X142530286Y-74077537D02*
X142439571Y-74168252D01*
X142439571Y-74168252D02*
X142348857Y-74349680D01*
X142348857Y-74349680D02*
X142348857Y-74803252D01*
X142348857Y-74803252D02*
X142439571Y-74984680D01*
X142439571Y-74984680D02*
X142530286Y-75075395D01*
X142530286Y-75075395D02*
X142711714Y-75166109D01*
X142711714Y-75166109D02*
X143256000Y-75166109D01*
X143256000Y-75166109D02*
X143437428Y-75075395D01*
X143437428Y-75075395D02*
X143528143Y-74984680D01*
X140988142Y-73261109D02*
X140988142Y-74621823D01*
X140988142Y-74621823D02*
X141078857Y-74893966D01*
X141078857Y-74893966D02*
X141260285Y-75075395D01*
X141260285Y-75075395D02*
X141532428Y-75166109D01*
X141532428Y-75166109D02*
X141713857Y-75166109D01*
X139445999Y-74168252D02*
X140080999Y-74168252D01*
X140080999Y-75166109D02*
X140080999Y-73261109D01*
X140080999Y-73261109D02*
X139173856Y-73261109D01*
X156454929Y-76328052D02*
X156092072Y-76328052D01*
X156092072Y-76328052D02*
X155910643Y-76418766D01*
X155910643Y-76418766D02*
X155729215Y-76600195D01*
X155729215Y-76600195D02*
X155638500Y-76963052D01*
X155638500Y-76963052D02*
X155638500Y-77598052D01*
X155638500Y-77598052D02*
X155729215Y-77960909D01*
X155729215Y-77960909D02*
X155910643Y-78142338D01*
X155910643Y-78142338D02*
X156092072Y-78233052D01*
X156092072Y-78233052D02*
X156454929Y-78233052D01*
X156454929Y-78233052D02*
X156636358Y-78142338D01*
X156636358Y-78142338D02*
X156817786Y-77960909D01*
X156817786Y-77960909D02*
X156908500Y-77598052D01*
X156908500Y-77598052D02*
X156908500Y-76963052D01*
X156908500Y-76963052D02*
X156817786Y-76600195D01*
X156817786Y-76600195D02*
X156636358Y-76418766D01*
X156636358Y-76418766D02*
X156454929Y-76328052D01*
X154822072Y-78233052D02*
X154822072Y-76328052D01*
X154822072Y-76328052D02*
X154187072Y-77688766D01*
X154187072Y-77688766D02*
X153552072Y-76328052D01*
X153552072Y-76328052D02*
X153552072Y-78233052D01*
X152826358Y-76328052D02*
X151647072Y-76328052D01*
X151647072Y-76328052D02*
X152282072Y-77053766D01*
X152282072Y-77053766D02*
X152009929Y-77053766D01*
X152009929Y-77053766D02*
X151828501Y-77144480D01*
X151828501Y-77144480D02*
X151737786Y-77235195D01*
X151737786Y-77235195D02*
X151647072Y-77416623D01*
X151647072Y-77416623D02*
X151647072Y-77870195D01*
X151647072Y-77870195D02*
X151737786Y-78051623D01*
X151737786Y-78051623D02*
X151828501Y-78142338D01*
X151828501Y-78142338D02*
X152009929Y-78233052D01*
X152009929Y-78233052D02*
X152554215Y-78233052D01*
X152554215Y-78233052D02*
X152735643Y-78142338D01*
X152735643Y-78142338D02*
X152826358Y-78051623D01*
X150014215Y-76963052D02*
X150014215Y-78233052D01*
X150467786Y-76237338D02*
X150921357Y-77598052D01*
X150921357Y-77598052D02*
X149742072Y-77598052D01*
X148109214Y-76328052D02*
X149016357Y-76328052D01*
X149016357Y-76328052D02*
X149107071Y-77235195D01*
X149107071Y-77235195D02*
X149016357Y-77144480D01*
X149016357Y-77144480D02*
X148834929Y-77053766D01*
X148834929Y-77053766D02*
X148381357Y-77053766D01*
X148381357Y-77053766D02*
X148199929Y-77144480D01*
X148199929Y-77144480D02*
X148109214Y-77235195D01*
X148109214Y-77235195D02*
X148018500Y-77416623D01*
X148018500Y-77416623D02*
X148018500Y-77870195D01*
X148018500Y-77870195D02*
X148109214Y-78051623D01*
X148109214Y-78051623D02*
X148199929Y-78142338D01*
X148199929Y-78142338D02*
X148381357Y-78233052D01*
X148381357Y-78233052D02*
X148834929Y-78233052D01*
X148834929Y-78233052D02*
X149016357Y-78142338D01*
X149016357Y-78142338D02*
X149107071Y-78051623D01*
X146022785Y-76328052D02*
X144934214Y-76328052D01*
X145478499Y-78233052D02*
X145478499Y-76328052D01*
X143573499Y-78142338D02*
X143754927Y-78233052D01*
X143754927Y-78233052D02*
X144117785Y-78233052D01*
X144117785Y-78233052D02*
X144299213Y-78142338D01*
X144299213Y-78142338D02*
X144389927Y-77960909D01*
X144389927Y-77960909D02*
X144389927Y-77235195D01*
X144389927Y-77235195D02*
X144299213Y-77053766D01*
X144299213Y-77053766D02*
X144117785Y-76963052D01*
X144117785Y-76963052D02*
X143754927Y-76963052D01*
X143754927Y-76963052D02*
X143573499Y-77053766D01*
X143573499Y-77053766D02*
X143482785Y-77235195D01*
X143482785Y-77235195D02*
X143482785Y-77416623D01*
X143482785Y-77416623D02*
X144389927Y-77598052D01*
X142757070Y-78142338D02*
X142575642Y-78233052D01*
X142575642Y-78233052D02*
X142212785Y-78233052D01*
X142212785Y-78233052D02*
X142031356Y-78142338D01*
X142031356Y-78142338D02*
X141940642Y-77960909D01*
X141940642Y-77960909D02*
X141940642Y-77870195D01*
X141940642Y-77870195D02*
X142031356Y-77688766D01*
X142031356Y-77688766D02*
X142212785Y-77598052D01*
X142212785Y-77598052D02*
X142484928Y-77598052D01*
X142484928Y-77598052D02*
X142666356Y-77507338D01*
X142666356Y-77507338D02*
X142757070Y-77325909D01*
X142757070Y-77325909D02*
X142757070Y-77235195D01*
X142757070Y-77235195D02*
X142666356Y-77053766D01*
X142666356Y-77053766D02*
X142484928Y-76963052D01*
X142484928Y-76963052D02*
X142212785Y-76963052D01*
X142212785Y-76963052D02*
X142031356Y-77053766D01*
X141396356Y-76963052D02*
X140670642Y-76963052D01*
X141124213Y-76328052D02*
X141124213Y-77960909D01*
X141124213Y-77960909D02*
X141033499Y-78142338D01*
X141033499Y-78142338D02*
X140852070Y-78233052D01*
X140852070Y-78233052D02*
X140670642Y-78233052D01*
X140035642Y-78233052D02*
X140035642Y-76963052D01*
X140035642Y-77325909D02*
X139944928Y-77144480D01*
X139944928Y-77144480D02*
X139854214Y-77053766D01*
X139854214Y-77053766D02*
X139672785Y-76963052D01*
X139672785Y-76963052D02*
X139491356Y-76963052D01*
X138856356Y-78233052D02*
X138856356Y-76963052D01*
X138856356Y-76328052D02*
X138947070Y-76418766D01*
X138947070Y-76418766D02*
X138856356Y-76509480D01*
X138856356Y-76509480D02*
X138765642Y-76418766D01*
X138765642Y-76418766D02*
X138856356Y-76328052D01*
X138856356Y-76328052D02*
X138856356Y-76509480D01*
X137132785Y-76963052D02*
X137132785Y-78505195D01*
X137132785Y-78505195D02*
X137223499Y-78686623D01*
X137223499Y-78686623D02*
X137314213Y-78777338D01*
X137314213Y-78777338D02*
X137495642Y-78868052D01*
X137495642Y-78868052D02*
X137767785Y-78868052D01*
X137767785Y-78868052D02*
X137949213Y-78777338D01*
X137132785Y-78142338D02*
X137314213Y-78233052D01*
X137314213Y-78233052D02*
X137677070Y-78233052D01*
X137677070Y-78233052D02*
X137858499Y-78142338D01*
X137858499Y-78142338D02*
X137949213Y-78051623D01*
X137949213Y-78051623D02*
X138039927Y-77870195D01*
X138039927Y-77870195D02*
X138039927Y-77325909D01*
X138039927Y-77325909D02*
X137949213Y-77144480D01*
X137949213Y-77144480D02*
X137858499Y-77053766D01*
X137858499Y-77053766D02*
X137677070Y-76963052D01*
X137677070Y-76963052D02*
X137314213Y-76963052D01*
X137314213Y-76963052D02*
X137132785Y-77053766D01*
X134955642Y-76963052D02*
X134502070Y-78233052D01*
X134502070Y-78233052D02*
X134048499Y-76963052D01*
X132324927Y-78233052D02*
X133413498Y-78233052D01*
X132869213Y-78233052D02*
X132869213Y-76328052D01*
X132869213Y-76328052D02*
X133050641Y-76600195D01*
X133050641Y-76600195D02*
X133232070Y-76781623D01*
X133232070Y-76781623D02*
X133413498Y-76872338D01*
X131508498Y-78051623D02*
X131417784Y-78142338D01*
X131417784Y-78142338D02*
X131508498Y-78233052D01*
X131508498Y-78233052D02*
X131599212Y-78142338D01*
X131599212Y-78142338D02*
X131508498Y-78051623D01*
X131508498Y-78051623D02*
X131508498Y-78233052D01*
X130238498Y-76328052D02*
X130057069Y-76328052D01*
X130057069Y-76328052D02*
X129875641Y-76418766D01*
X129875641Y-76418766D02*
X129784927Y-76509480D01*
X129784927Y-76509480D02*
X129694212Y-76690909D01*
X129694212Y-76690909D02*
X129603498Y-77053766D01*
X129603498Y-77053766D02*
X129603498Y-77507338D01*
X129603498Y-77507338D02*
X129694212Y-77870195D01*
X129694212Y-77870195D02*
X129784927Y-78051623D01*
X129784927Y-78051623D02*
X129875641Y-78142338D01*
X129875641Y-78142338D02*
X130057069Y-78233052D01*
X130057069Y-78233052D02*
X130238498Y-78233052D01*
X130238498Y-78233052D02*
X130419927Y-78142338D01*
X130419927Y-78142338D02*
X130510641Y-78051623D01*
X130510641Y-78051623D02*
X130601355Y-77870195D01*
X130601355Y-77870195D02*
X130692069Y-77507338D01*
X130692069Y-77507338D02*
X130692069Y-77053766D01*
X130692069Y-77053766D02*
X130601355Y-76690909D01*
X130601355Y-76690909D02*
X130510641Y-76509480D01*
X130510641Y-76509480D02*
X130419927Y-76418766D01*
X130419927Y-76418766D02*
X130238498Y-76328052D01*
M02*
