%TF.GenerationSoftware,KiCad,Pcbnew,9.0.3*%
%TF.CreationDate,2025-07-24T18:02:03+02:00*%
%TF.ProjectId,OM345_Testrig,4f4d3334-355f-4546-9573-747269672e6b,rev?*%
%TF.SameCoordinates,Original*%
%TF.FileFunction,Copper,L1,Top*%
%TF.FilePolarity,Positive*%
%FSLAX46Y46*%
G04 Gerber Fmt 4.6, Leading zero omitted, Abs format (unit mm)*
G04 Created by KiCad (PCBNEW 9.0.3) date 2025-07-24 18:02:03*
%MOMM*%
%LPD*%
G01*
G04 APERTURE LIST*
G04 Aperture macros list*
%AMRoundRect*
0 Rectangle with rounded corners*
0 $1 Rounding radius*
0 $2 $3 $4 $5 $6 $7 $8 $9 X,Y pos of 4 corners*
0 Add a 4 corners polygon primitive as box body*
4,1,4,$2,$3,$4,$5,$6,$7,$8,$9,$2,$3,0*
0 Add four circle primitives for the rounded corners*
1,1,$1+$1,$2,$3*
1,1,$1+$1,$4,$5*
1,1,$1+$1,$6,$7*
1,1,$1+$1,$8,$9*
0 Add four rect primitives between the rounded corners*
20,1,$1+$1,$2,$3,$4,$5,0*
20,1,$1+$1,$4,$5,$6,$7,0*
20,1,$1+$1,$6,$7,$8,$9,0*
20,1,$1+$1,$8,$9,$2,$3,0*%
G04 Aperture macros list end*
%TA.AperFunction,ComponentPad*%
%ADD10RoundRect,0.250000X-0.550000X0.550000X-0.550000X-0.550000X0.550000X-0.550000X0.550000X0.550000X0*%
%TD*%
%TA.AperFunction,ComponentPad*%
%ADD11C,1.600000*%
%TD*%
%TA.AperFunction,SMDPad,CuDef*%
%ADD12RoundRect,0.250000X-0.450000X0.350000X-0.450000X-0.350000X0.450000X-0.350000X0.450000X0.350000X0*%
%TD*%
%TA.AperFunction,ComponentPad*%
%ADD13R,1.700000X1.700000*%
%TD*%
%TA.AperFunction,ComponentPad*%
%ADD14C,1.700000*%
%TD*%
%TA.AperFunction,ComponentPad*%
%ADD15O,2.500000X1.600000*%
%TD*%
%TA.AperFunction,ComponentPad*%
%ADD16O,7.000000X3.500000*%
%TD*%
%TA.AperFunction,SMDPad,CuDef*%
%ADD17RoundRect,0.250000X-0.337500X-0.475000X0.337500X-0.475000X0.337500X0.475000X-0.337500X0.475000X0*%
%TD*%
%TA.AperFunction,ViaPad*%
%ADD18C,0.600000*%
%TD*%
%TA.AperFunction,Conductor*%
%ADD19C,0.762000*%
%TD*%
G04 APERTURE END LIST*
D10*
%TO.P,C4,1*%
%TO.N,VCC*%
X151384000Y-84201000D03*
D11*
%TO.P,C4,2*%
%TO.N,GND*%
X151384000Y-86701000D03*
%TD*%
D12*
%TO.P,R1,1*%
%TO.N,VCC*%
X144780000Y-84090000D03*
%TO.P,R1,2*%
%TO.N,+12V*%
X144780000Y-86090000D03*
%TD*%
D13*
%TO.P,J3,1,Pin_1*%
%TO.N,Net-(J3-Pin_1)*%
X137160000Y-81280000D03*
D14*
%TO.P,J3,2,Pin_2*%
%TO.N,GND*%
X139700000Y-81280000D03*
%TO.P,J3,3,Pin_3*%
X142240000Y-81280000D03*
%TO.P,J3,4,Pin_4*%
%TO.N,VCC*%
X144780000Y-81280000D03*
%TO.P,J3,5,Pin_5*%
%TO.N,Net-(J3-Pin_5)*%
X147320000Y-81280000D03*
%TD*%
D15*
%TO.P,J1,1,In*%
%TO.N,Net-(J1-In)*%
X124770000Y-81280000D03*
D16*
%TO.P,J1,2,Ext*%
%TO.N,GND*%
X119690000Y-86360000D03*
D15*
X124770000Y-83820000D03*
D16*
X119690000Y-76200000D03*
%TD*%
D17*
%TO.P,C1,1*%
%TO.N,Net-(J1-In)*%
X129391500Y-81280000D03*
%TO.P,C1,2*%
%TO.N,Net-(J3-Pin_1)*%
X131466500Y-81280000D03*
%TD*%
%TO.P,C2,1*%
%TO.N,Net-(J3-Pin_5)*%
X155553500Y-81280000D03*
%TO.P,C2,2*%
%TO.N,Net-(J2-In)*%
X157628500Y-81280000D03*
%TD*%
D15*
%TO.P,J2,1,In*%
%TO.N,Net-(J2-In)*%
X162250000Y-81280000D03*
D16*
%TO.P,J2,2,Ext*%
%TO.N,GND*%
X167330000Y-76200000D03*
D15*
X162250000Y-78740000D03*
D16*
X167330000Y-86360000D03*
%TD*%
D13*
%TO.P,J4,1,Pin_1*%
%TO.N,+12V*%
X144780000Y-88900000D03*
D14*
%TO.P,J4,2,Pin_2*%
%TO.N,GND*%
X142240000Y-88900000D03*
%TD*%
D17*
%TO.P,C3,1*%
%TO.N,GND*%
X140694500Y-84328000D03*
%TO.P,C3,2*%
%TO.N,VCC*%
X142769500Y-84328000D03*
%TD*%
D18*
%TO.N,GND*%
X140694500Y-84328000D03*
%TD*%
D19*
%TO.N,VCC*%
X151384000Y-84201000D02*
X144891000Y-84201000D01*
X144891000Y-84201000D02*
X144780000Y-84090000D01*
%TO.N,+12V*%
X144780000Y-86090000D02*
X144780000Y-88900000D01*
%TO.N,VCC*%
X142769500Y-84328000D02*
X144542000Y-84328000D01*
X144542000Y-84328000D02*
X144780000Y-84090000D01*
X144780000Y-81280000D02*
X144780000Y-84090000D01*
%TO.N,Net-(J1-In)*%
X124770000Y-81280000D02*
X129391500Y-81280000D01*
%TO.N,Net-(J3-Pin_1)*%
X131466500Y-81280000D02*
X137160000Y-81280000D01*
%TO.N,Net-(J3-Pin_5)*%
X147320000Y-81280000D02*
X155553500Y-81280000D01*
%TO.N,Net-(J2-In)*%
X157628500Y-81280000D02*
X162250000Y-81280000D01*
%TD*%
%TA.AperFunction,Conductor*%
%TO.N,GND*%
G36*
X174702539Y-71640185D02*
G01*
X174748294Y-71692989D01*
X174759500Y-71744500D01*
X174759500Y-90815500D01*
X174739815Y-90882539D01*
X174687011Y-90928294D01*
X174635500Y-90939500D01*
X112384500Y-90939500D01*
X112317461Y-90919815D01*
X112271706Y-90867011D01*
X112260500Y-90815500D01*
X112260500Y-86110000D01*
X115703497Y-86110000D01*
X118715038Y-86110000D01*
X118685000Y-86261016D01*
X118685000Y-86458984D01*
X118715038Y-86610000D01*
X115703498Y-86610000D01*
X115728496Y-86799884D01*
X115728499Y-86799897D01*
X115804835Y-87084790D01*
X115804838Y-87084800D01*
X115917704Y-87357281D01*
X115917709Y-87357292D01*
X116065174Y-87612707D01*
X116065185Y-87612723D01*
X116244729Y-87846709D01*
X116244735Y-87846716D01*
X116453283Y-88055264D01*
X116453290Y-88055270D01*
X116687276Y-88234814D01*
X116687292Y-88234825D01*
X116942707Y-88382290D01*
X116942718Y-88382295D01*
X117215199Y-88495161D01*
X117215209Y-88495164D01*
X117500102Y-88571500D01*
X117500115Y-88571503D01*
X117792516Y-88609998D01*
X117792534Y-88610000D01*
X119440000Y-88610000D01*
X119440000Y-87334961D01*
X119591016Y-87365000D01*
X119788984Y-87365000D01*
X119940000Y-87334961D01*
X119940000Y-88610000D01*
X121587466Y-88610000D01*
X121587483Y-88609998D01*
X121879884Y-88571503D01*
X121879897Y-88571500D01*
X122164790Y-88495164D01*
X122164800Y-88495161D01*
X122437281Y-88382295D01*
X122437292Y-88382290D01*
X122692707Y-88234825D01*
X122692723Y-88234814D01*
X122926709Y-88055270D01*
X122926716Y-88055264D01*
X123135264Y-87846716D01*
X123135270Y-87846709D01*
X123314814Y-87612723D01*
X123314825Y-87612707D01*
X123462290Y-87357292D01*
X123462295Y-87357281D01*
X123575161Y-87084800D01*
X123575164Y-87084790D01*
X123651500Y-86799897D01*
X123651503Y-86799884D01*
X123676502Y-86610000D01*
X120664962Y-86610000D01*
X120695000Y-86458984D01*
X120695000Y-86261016D01*
X120664962Y-86110000D01*
X123676502Y-86110000D01*
X123651503Y-85920115D01*
X123651500Y-85920102D01*
X123575164Y-85635209D01*
X123575161Y-85635199D01*
X123462295Y-85362718D01*
X123462290Y-85362707D01*
X123314825Y-85107292D01*
X123314814Y-85107276D01*
X123135270Y-84873290D01*
X123135264Y-84873283D01*
X123114967Y-84852986D01*
X139607001Y-84852986D01*
X139617494Y-84955697D01*
X139672641Y-85122119D01*
X139672643Y-85122124D01*
X139764684Y-85271345D01*
X139888654Y-85395315D01*
X140037875Y-85487356D01*
X140037880Y-85487358D01*
X140204302Y-85542505D01*
X140204309Y-85542506D01*
X140307019Y-85552999D01*
X140444499Y-85552999D01*
X140444500Y-85552998D01*
X140444500Y-84578000D01*
X139607001Y-84578000D01*
X139607001Y-84852986D01*
X123114967Y-84852986D01*
X122926716Y-84664735D01*
X122874951Y-84625014D01*
X122874949Y-84625012D01*
X122692723Y-84485185D01*
X122692707Y-84485174D01*
X122437292Y-84337709D01*
X122437281Y-84337704D01*
X122164800Y-84224838D01*
X122164790Y-84224835D01*
X121879897Y-84148499D01*
X121879884Y-84148496D01*
X121587483Y-84110001D01*
X121587466Y-84110000D01*
X119940000Y-84110000D01*
X119940000Y-85385038D01*
X119788984Y-85355000D01*
X119591016Y-85355000D01*
X119440000Y-85385038D01*
X119440000Y-84110000D01*
X117792534Y-84110000D01*
X117792516Y-84110001D01*
X117500115Y-84148496D01*
X117500102Y-84148499D01*
X117215209Y-84224835D01*
X117215199Y-84224838D01*
X116942718Y-84337704D01*
X116942707Y-84337709D01*
X116687292Y-84485174D01*
X116687276Y-84485185D01*
X116453290Y-84664729D01*
X116453283Y-84664735D01*
X116244735Y-84873283D01*
X116244729Y-84873290D01*
X116065185Y-85107276D01*
X116065174Y-85107292D01*
X115917709Y-85362707D01*
X115917704Y-85362718D01*
X115804838Y-85635199D01*
X115804835Y-85635209D01*
X115728499Y-85920102D01*
X115728496Y-85920115D01*
X115703497Y-86110000D01*
X112260500Y-86110000D01*
X112260500Y-83803013D01*
X139607000Y-83803013D01*
X139607000Y-84078000D01*
X140444500Y-84078000D01*
X140444500Y-83103000D01*
X140944500Y-83103000D01*
X140944500Y-85552999D01*
X141081972Y-85552999D01*
X141081986Y-85552998D01*
X141184697Y-85542505D01*
X141351119Y-85487358D01*
X141351124Y-85487356D01*
X141500345Y-85395315D01*
X141624316Y-85271344D01*
X141628798Y-85265677D01*
X141630991Y-85267411D01*
X141673357Y-85229265D01*
X141742314Y-85218008D01*
X141806410Y-85245818D01*
X141828334Y-85271106D01*
X141828489Y-85270985D01*
X141831183Y-85274392D01*
X141832545Y-85275963D01*
X141832970Y-85276652D01*
X141958348Y-85402030D01*
X142109262Y-85495115D01*
X142277574Y-85550887D01*
X142381455Y-85561500D01*
X143157544Y-85561499D01*
X143261426Y-85550887D01*
X143415189Y-85499935D01*
X143485016Y-85497534D01*
X143545057Y-85533266D01*
X143576250Y-85595786D01*
X143577549Y-85630245D01*
X143571500Y-85689447D01*
X143571500Y-86490537D01*
X143571501Y-86490553D01*
X143582113Y-86594427D01*
X143637884Y-86762735D01*
X143637886Y-86762740D01*
X143725291Y-86904445D01*
X143737359Y-86930239D01*
X143804616Y-87131495D01*
X143807195Y-87201318D01*
X143795579Y-87230703D01*
X143484235Y-87794973D01*
X143482245Y-87798055D01*
X143479112Y-87803793D01*
X143453156Y-87873379D01*
X143453155Y-87873378D01*
X143452666Y-87874686D01*
X143437014Y-87914074D01*
X143435559Y-87919716D01*
X143435111Y-87921757D01*
X143432587Y-87928525D01*
X143432587Y-87928526D01*
X143428012Y-87940794D01*
X143428010Y-87940800D01*
X143421500Y-88001345D01*
X143421500Y-89798654D01*
X143428011Y-89859202D01*
X143428011Y-89859204D01*
X143479111Y-89996204D01*
X143566739Y-90113261D01*
X143683796Y-90200889D01*
X143820799Y-90251989D01*
X143848050Y-90254918D01*
X143881345Y-90258499D01*
X143881362Y-90258500D01*
X145678638Y-90258500D01*
X145678654Y-90258499D01*
X145705692Y-90255591D01*
X145739201Y-90251989D01*
X145876204Y-90200889D01*
X145993261Y-90113261D01*
X146080889Y-89996204D01*
X146131989Y-89859201D01*
X146135591Y-89825692D01*
X146138499Y-89798654D01*
X146138500Y-89798637D01*
X146138500Y-88001362D01*
X146138499Y-88001345D01*
X146135157Y-87970270D01*
X146131989Y-87940799D01*
X146131987Y-87940794D01*
X146080890Y-87803799D01*
X146080889Y-87803796D01*
X146080886Y-87803792D01*
X146077740Y-87798030D01*
X146075760Y-87794965D01*
X145975205Y-87612723D01*
X145764418Y-87230700D01*
X145757232Y-87198351D01*
X145749073Y-87166220D01*
X145749532Y-87163690D01*
X145749267Y-87162495D01*
X145755380Y-87131501D01*
X145822635Y-86930248D01*
X145834703Y-86904454D01*
X145834709Y-86904445D01*
X145922115Y-86762738D01*
X145977887Y-86594426D01*
X145988500Y-86490545D01*
X145988499Y-86110000D01*
X163343497Y-86110000D01*
X166355038Y-86110000D01*
X166325000Y-86261016D01*
X166325000Y-86458984D01*
X166355038Y-86610000D01*
X163343498Y-86610000D01*
X163368496Y-86799884D01*
X163368499Y-86799897D01*
X163444835Y-87084790D01*
X163444838Y-87084800D01*
X163557704Y-87357281D01*
X163557709Y-87357292D01*
X163705174Y-87612707D01*
X163705185Y-87612723D01*
X163884729Y-87846709D01*
X163884735Y-87846716D01*
X164093283Y-88055264D01*
X164093290Y-88055270D01*
X164327276Y-88234814D01*
X164327292Y-88234825D01*
X164582707Y-88382290D01*
X164582718Y-88382295D01*
X164855199Y-88495161D01*
X164855209Y-88495164D01*
X165140102Y-88571500D01*
X165140115Y-88571503D01*
X165432516Y-88609998D01*
X165432534Y-88610000D01*
X167080000Y-88610000D01*
X167080000Y-87334961D01*
X167231016Y-87365000D01*
X167428984Y-87365000D01*
X167580000Y-87334961D01*
X167580000Y-88610000D01*
X169227466Y-88610000D01*
X169227483Y-88609998D01*
X169519884Y-88571503D01*
X169519897Y-88571500D01*
X169804790Y-88495164D01*
X169804800Y-88495161D01*
X170077281Y-88382295D01*
X170077292Y-88382290D01*
X170332707Y-88234825D01*
X170332723Y-88234814D01*
X170566709Y-88055270D01*
X170566716Y-88055264D01*
X170775264Y-87846716D01*
X170775270Y-87846709D01*
X170954814Y-87612723D01*
X170954825Y-87612707D01*
X171102290Y-87357292D01*
X171102295Y-87357281D01*
X171215161Y-87084800D01*
X171215164Y-87084790D01*
X171291500Y-86799897D01*
X171291503Y-86799884D01*
X171316502Y-86610000D01*
X168304962Y-86610000D01*
X168335000Y-86458984D01*
X168335000Y-86261016D01*
X168304962Y-86110000D01*
X171316502Y-86110000D01*
X171291503Y-85920115D01*
X171291500Y-85920102D01*
X171215164Y-85635209D01*
X171215161Y-85635199D01*
X171102295Y-85362718D01*
X171102290Y-85362707D01*
X170954825Y-85107292D01*
X170954814Y-85107276D01*
X170775270Y-84873290D01*
X170775264Y-84873283D01*
X170566716Y-84664735D01*
X170566709Y-84664729D01*
X170332723Y-84485185D01*
X170332707Y-84485174D01*
X170077292Y-84337709D01*
X170077281Y-84337704D01*
X169804800Y-84224838D01*
X169804790Y-84224835D01*
X169519897Y-84148499D01*
X169519884Y-84148496D01*
X169227483Y-84110001D01*
X169227466Y-84110000D01*
X167580000Y-84110000D01*
X167580000Y-85385038D01*
X167428984Y-85355000D01*
X167231016Y-85355000D01*
X167080000Y-85385038D01*
X167080000Y-84110000D01*
X165432534Y-84110000D01*
X165432516Y-84110001D01*
X165140115Y-84148496D01*
X165140102Y-84148499D01*
X164855209Y-84224835D01*
X164855199Y-84224838D01*
X164582718Y-84337704D01*
X164582707Y-84337709D01*
X164327292Y-84485174D01*
X164327276Y-84485185D01*
X164093290Y-84664729D01*
X164093283Y-84664735D01*
X163884735Y-84873283D01*
X163884729Y-84873290D01*
X163705185Y-85107276D01*
X163705174Y-85107292D01*
X163557709Y-85362707D01*
X163557704Y-85362718D01*
X163444838Y-85635199D01*
X163444835Y-85635209D01*
X163368499Y-85920102D01*
X163368496Y-85920115D01*
X163343497Y-86110000D01*
X145988499Y-86110000D01*
X145988499Y-86066852D01*
X145988499Y-85689462D01*
X145988498Y-85689446D01*
X145982450Y-85630245D01*
X145977887Y-85585574D01*
X145922115Y-85417262D01*
X145852967Y-85305157D01*
X145843758Y-85271501D01*
X145834522Y-85238120D01*
X145834576Y-85237943D01*
X145834528Y-85237766D01*
X145844971Y-85204489D01*
X145855254Y-85171397D01*
X145855394Y-85171279D01*
X145855450Y-85171102D01*
X145882320Y-85148675D01*
X145908768Y-85126474D01*
X145908997Y-85126410D01*
X145909092Y-85126332D01*
X145942777Y-85117063D01*
X146134499Y-85092704D01*
X146141425Y-85091668D01*
X146142737Y-85091501D01*
X146143453Y-85091615D01*
X146158461Y-85090500D01*
X149643881Y-85090500D01*
X149691811Y-85100138D01*
X149927718Y-85199009D01*
X150531842Y-85452204D01*
X150574477Y-85464197D01*
X150579844Y-85465840D01*
X150679574Y-85498887D01*
X150783455Y-85509500D01*
X151984544Y-85509499D01*
X152088426Y-85498887D01*
X152256738Y-85443115D01*
X152407652Y-85350030D01*
X152533030Y-85224652D01*
X152626115Y-85073738D01*
X152681887Y-84905426D01*
X152692500Y-84801545D01*
X152692499Y-83600456D01*
X152681887Y-83496574D01*
X152626115Y-83328262D01*
X152533030Y-83177348D01*
X152407652Y-83051970D01*
X152256738Y-82958885D01*
X152224625Y-82948244D01*
X152088427Y-82903113D01*
X151984545Y-82892500D01*
X150783462Y-82892500D01*
X150783446Y-82892501D01*
X150679572Y-82903113D01*
X150567416Y-82940277D01*
X150559581Y-82942590D01*
X150531844Y-82949793D01*
X150531839Y-82949794D01*
X149691808Y-83301862D01*
X149643878Y-83311500D01*
X146214391Y-83311500D01*
X146168683Y-83302768D01*
X146166398Y-83301862D01*
X145843815Y-83173946D01*
X145843104Y-83173391D01*
X145842209Y-83173296D01*
X145815627Y-83151928D01*
X145788752Y-83130936D01*
X145788222Y-83129899D01*
X145787752Y-83129521D01*
X145771916Y-83097979D01*
X145770753Y-83094500D01*
X145723505Y-82953114D01*
X145720928Y-82883293D01*
X145722276Y-82878408D01*
X145964837Y-82065072D01*
X146002860Y-82006455D01*
X146066538Y-81977700D01*
X146135654Y-81987936D01*
X146183983Y-82027626D01*
X146260126Y-82132428D01*
X146283794Y-82165004D01*
X146434996Y-82316206D01*
X146607991Y-82441894D01*
X146701438Y-82489507D01*
X146798516Y-82538972D01*
X146798519Y-82538973D01*
X146859665Y-82558840D01*
X147001884Y-82605049D01*
X147213084Y-82638500D01*
X147213085Y-82638500D01*
X147426915Y-82638500D01*
X147426916Y-82638500D01*
X147638116Y-82605049D01*
X147672311Y-82593937D01*
X147675121Y-82593061D01*
X148940979Y-82215545D01*
X149078031Y-82174672D01*
X149113469Y-82169500D01*
X154259815Y-82169500D01*
X154299125Y-82175895D01*
X154669605Y-82299734D01*
X154717974Y-82329656D01*
X154742348Y-82354030D01*
X154893262Y-82447115D01*
X155061574Y-82502887D01*
X155165455Y-82513500D01*
X155941544Y-82513499D01*
X156045426Y-82502887D01*
X156213738Y-82447115D01*
X156364652Y-82354030D01*
X156490030Y-82228652D01*
X156490032Y-82228647D01*
X156493732Y-82223970D01*
X156550753Y-82183591D01*
X156620552Y-82180451D01*
X156680968Y-82215545D01*
X156688268Y-82223970D01*
X156691969Y-82228651D01*
X156691970Y-82228652D01*
X156817348Y-82354030D01*
X156968262Y-82447115D01*
X157136574Y-82502887D01*
X157240455Y-82513500D01*
X158016544Y-82513499D01*
X158120426Y-82502887D01*
X158288738Y-82447115D01*
X158439652Y-82354030D01*
X158464027Y-82329653D01*
X158512396Y-82299732D01*
X158882874Y-82175895D01*
X158922184Y-82169500D01*
X160109351Y-82169500D01*
X160143065Y-82174171D01*
X161481183Y-82552248D01*
X161493592Y-82556280D01*
X161504335Y-82557981D01*
X161598211Y-82574563D01*
X161598213Y-82574563D01*
X161598218Y-82574564D01*
X161602843Y-82574908D01*
X161602863Y-82574909D01*
X161602873Y-82574910D01*
X161610932Y-82575418D01*
X161622486Y-82576694D01*
X161697019Y-82588500D01*
X161697022Y-82588500D01*
X162802980Y-82588500D01*
X162802981Y-82588500D01*
X163006408Y-82556280D01*
X163202290Y-82492634D01*
X163385803Y-82399129D01*
X163552430Y-82278068D01*
X163698068Y-82132430D01*
X163819129Y-81965803D01*
X163912634Y-81782290D01*
X163976280Y-81586408D01*
X164008500Y-81382981D01*
X164008500Y-81177019D01*
X163976280Y-80973592D01*
X163912634Y-80777710D01*
X163912632Y-80777707D01*
X163912632Y-80777705D01*
X163878709Y-80711128D01*
X163819129Y-80594197D01*
X163737804Y-80482262D01*
X163698073Y-80427576D01*
X163698069Y-80427571D01*
X163552428Y-80281930D01*
X163552423Y-80281926D01*
X163385806Y-80160873D01*
X163385805Y-80160872D01*
X163385803Y-80160871D01*
X163328496Y-80131671D01*
X163202294Y-80067367D01*
X163006408Y-80003719D01*
X162830794Y-79975905D01*
X162802981Y-79971500D01*
X161697019Y-79971500D01*
X161658736Y-79977563D01*
X161493594Y-80003719D01*
X161493585Y-80003721D01*
X161483464Y-80007010D01*
X161478867Y-80008405D01*
X160695886Y-80229631D01*
X160144833Y-80385328D01*
X160143063Y-80385828D01*
X160109348Y-80390500D01*
X158922186Y-80390500D01*
X158882875Y-80384104D01*
X158874621Y-80381345D01*
X158688310Y-80319067D01*
X158512394Y-80260265D01*
X158464024Y-80230342D01*
X158439653Y-80205971D01*
X158439652Y-80205970D01*
X158288738Y-80112885D01*
X158288735Y-80112884D01*
X158120427Y-80057113D01*
X158016546Y-80046500D01*
X157240462Y-80046500D01*
X157240446Y-80046501D01*
X157136572Y-80057113D01*
X156968264Y-80112884D01*
X156968259Y-80112886D01*
X156817346Y-80205971D01*
X156691972Y-80331345D01*
X156688265Y-80336034D01*
X156631242Y-80376410D01*
X156561443Y-80379547D01*
X156501028Y-80344450D01*
X156493735Y-80336034D01*
X156490032Y-80331351D01*
X156490030Y-80331348D01*
X156364652Y-80205970D01*
X156213738Y-80112885D01*
X156213735Y-80112884D01*
X156045427Y-80057113D01*
X155941546Y-80046500D01*
X155165462Y-80046500D01*
X155165446Y-80046501D01*
X155061572Y-80057113D01*
X154893264Y-80112884D01*
X154893259Y-80112886D01*
X154742346Y-80205971D01*
X154717973Y-80230344D01*
X154669604Y-80260265D01*
X154456959Y-80331345D01*
X154322141Y-80376410D01*
X154299123Y-80384104D01*
X154259812Y-80390500D01*
X149113470Y-80390500D01*
X149078032Y-80385328D01*
X147675763Y-79967127D01*
X147675714Y-79967112D01*
X147673689Y-79966509D01*
X147638116Y-79954951D01*
X147628382Y-79953409D01*
X147621973Y-79951658D01*
X147621280Y-79951485D01*
X147620932Y-79951399D01*
X147543428Y-79938334D01*
X147536639Y-79937945D01*
X147536668Y-79937425D01*
X147522881Y-79936698D01*
X147426922Y-79921500D01*
X147426916Y-79921500D01*
X147213084Y-79921500D01*
X147142684Y-79932650D01*
X147001882Y-79954951D01*
X146798519Y-80021026D01*
X146798516Y-80021027D01*
X146607990Y-80118106D01*
X146434993Y-80243796D01*
X146283796Y-80394993D01*
X146158105Y-80567991D01*
X146155727Y-80571873D01*
X146103914Y-80618748D01*
X146034984Y-80630169D01*
X145970822Y-80602512D01*
X145944273Y-80571873D01*
X145941894Y-80567991D01*
X145879608Y-80482262D01*
X145816206Y-80394996D01*
X145665004Y-80243794D01*
X145492009Y-80118106D01*
X145481760Y-80112884D01*
X145301483Y-80021027D01*
X145301480Y-80021026D01*
X145098117Y-79954951D01*
X144982872Y-79936698D01*
X144886916Y-79921500D01*
X144673084Y-79921500D01*
X144602684Y-79932650D01*
X144461882Y-79954951D01*
X144258519Y-80021026D01*
X144258516Y-80021027D01*
X144067990Y-80118106D01*
X143894993Y-80243796D01*
X143743796Y-80394993D01*
X143618106Y-80567990D01*
X143521027Y-80758516D01*
X143521026Y-80758519D01*
X143454951Y-80961882D01*
X143421500Y-81173084D01*
X143421500Y-81386915D01*
X143454949Y-81598109D01*
X143454953Y-81598126D01*
X143466054Y-81632293D01*
X143466950Y-81635169D01*
X143837713Y-82878375D01*
X143837799Y-82898691D01*
X143842801Y-82918389D01*
X143837994Y-82944844D01*
X143838009Y-82948244D01*
X143836492Y-82953115D01*
X143762399Y-83174830D01*
X143722481Y-83232174D01*
X143703343Y-83244834D01*
X143692659Y-83250557D01*
X143662841Y-83256793D01*
X143657897Y-83258834D01*
X143655320Y-83258365D01*
X143624269Y-83264860D01*
X143569011Y-83246790D01*
X143528118Y-83221567D01*
X143456429Y-83177348D01*
X143429740Y-83160886D01*
X143429735Y-83160884D01*
X143261427Y-83105113D01*
X143157546Y-83094500D01*
X142381462Y-83094500D01*
X142381446Y-83094501D01*
X142277572Y-83105113D01*
X142109264Y-83160884D01*
X142109259Y-83160886D01*
X141958346Y-83253971D01*
X141832970Y-83379347D01*
X141832968Y-83379350D01*
X141832541Y-83380043D01*
X141832123Y-83380418D01*
X141828489Y-83385015D01*
X141827703Y-83384393D01*
X141780591Y-83426764D01*
X141711627Y-83437983D01*
X141647547Y-83410136D01*
X141629739Y-83389578D01*
X141628798Y-83390323D01*
X141624316Y-83384655D01*
X141500345Y-83260684D01*
X141351124Y-83168643D01*
X141351119Y-83168641D01*
X141184697Y-83113494D01*
X141184690Y-83113493D01*
X141081986Y-83103000D01*
X140944500Y-83103000D01*
X140444500Y-83103000D01*
X140307027Y-83103000D01*
X140307012Y-83103001D01*
X140204302Y-83113494D01*
X140037880Y-83168641D01*
X140037875Y-83168643D01*
X139888654Y-83260684D01*
X139764684Y-83384654D01*
X139672643Y-83533875D01*
X139672641Y-83533880D01*
X139617494Y-83700302D01*
X139617493Y-83700309D01*
X139607000Y-83803013D01*
X112260500Y-83803013D01*
X112260500Y-81177019D01*
X123011500Y-81177019D01*
X123011500Y-81382980D01*
X123043719Y-81586408D01*
X123107367Y-81782294D01*
X123200873Y-81965806D01*
X123321926Y-82132423D01*
X123321930Y-82132428D01*
X123467571Y-82278069D01*
X123467576Y-82278073D01*
X123538575Y-82329656D01*
X123634197Y-82399129D01*
X123751128Y-82458709D01*
X123817705Y-82492632D01*
X123817707Y-82492632D01*
X123817710Y-82492634D01*
X123881923Y-82513498D01*
X124013591Y-82556280D01*
X124114371Y-82572242D01*
X124217019Y-82588500D01*
X124217020Y-82588500D01*
X125322980Y-82588500D01*
X125322981Y-82588500D01*
X125526408Y-82556280D01*
X125536572Y-82552977D01*
X125541102Y-82551601D01*
X126876934Y-82174171D01*
X126910649Y-82169500D01*
X128097815Y-82169500D01*
X128137125Y-82175895D01*
X128507605Y-82299734D01*
X128555974Y-82329656D01*
X128580348Y-82354030D01*
X128731262Y-82447115D01*
X128899574Y-82502887D01*
X129003455Y-82513500D01*
X129779544Y-82513499D01*
X129883426Y-82502887D01*
X130051738Y-82447115D01*
X130202652Y-82354030D01*
X130328030Y-82228652D01*
X130328032Y-82228647D01*
X130331732Y-82223970D01*
X130388753Y-82183591D01*
X130458552Y-82180451D01*
X130518968Y-82215545D01*
X130526268Y-82223970D01*
X130529969Y-82228651D01*
X130529970Y-82228652D01*
X130655348Y-82354030D01*
X130806262Y-82447115D01*
X130974574Y-82502887D01*
X131078455Y-82513500D01*
X131854544Y-82513499D01*
X131958426Y-82502887D01*
X132126738Y-82447115D01*
X132277652Y-82354030D01*
X132302027Y-82329653D01*
X132350396Y-82299732D01*
X132720874Y-82175895D01*
X132760184Y-82169500D01*
X135286733Y-82169500D01*
X135346637Y-82184929D01*
X136054227Y-82575353D01*
X136058861Y-82577194D01*
X136063796Y-82580889D01*
X136134590Y-82607294D01*
X136147570Y-82612453D01*
X136174041Y-82622975D01*
X136174046Y-82622976D01*
X136174053Y-82622979D01*
X136176175Y-82623526D01*
X136188521Y-82627409D01*
X136200799Y-82631989D01*
X136217779Y-82633814D01*
X136261345Y-82638499D01*
X136261362Y-82638500D01*
X138058638Y-82638500D01*
X138058654Y-82638499D01*
X138085692Y-82635591D01*
X138119201Y-82631989D01*
X138256204Y-82580889D01*
X138373261Y-82493261D01*
X138460889Y-82376204D01*
X138511989Y-82239201D01*
X138517968Y-82183591D01*
X138518499Y-82178654D01*
X138518500Y-82178637D01*
X138518500Y-80381362D01*
X138518499Y-80381345D01*
X138513123Y-80331348D01*
X138511989Y-80320799D01*
X138497491Y-80281930D01*
X138483267Y-80243794D01*
X138460889Y-80183796D01*
X138373261Y-80066739D01*
X138256204Y-79979111D01*
X138119203Y-79928011D01*
X138058654Y-79921500D01*
X138058638Y-79921500D01*
X136261362Y-79921500D01*
X136261345Y-79921500D01*
X136200798Y-79928010D01*
X136063795Y-79979111D01*
X136058051Y-79982247D01*
X136054979Y-79984230D01*
X135346636Y-80375070D01*
X135286731Y-80390500D01*
X132760186Y-80390500D01*
X132720875Y-80384104D01*
X132712621Y-80381345D01*
X132526310Y-80319067D01*
X132350394Y-80260265D01*
X132302024Y-80230342D01*
X132277653Y-80205971D01*
X132277652Y-80205970D01*
X132126738Y-80112885D01*
X132126735Y-80112884D01*
X131958427Y-80057113D01*
X131854546Y-80046500D01*
X131078462Y-80046500D01*
X131078446Y-80046501D01*
X130974572Y-80057113D01*
X130806264Y-80112884D01*
X130806259Y-80112886D01*
X130655346Y-80205971D01*
X130529972Y-80331345D01*
X130526265Y-80336034D01*
X130469242Y-80376410D01*
X130399443Y-80379547D01*
X130339028Y-80344450D01*
X130331735Y-80336034D01*
X130328032Y-80331351D01*
X130328030Y-80331348D01*
X130202652Y-80205970D01*
X130051738Y-80112885D01*
X130051735Y-80112884D01*
X129883427Y-80057113D01*
X129779546Y-80046500D01*
X129003462Y-80046500D01*
X129003446Y-80046501D01*
X128899572Y-80057113D01*
X128731264Y-80112884D01*
X128731259Y-80112886D01*
X128580346Y-80205971D01*
X128555973Y-80230344D01*
X128507604Y-80260265D01*
X128294959Y-80331345D01*
X128160141Y-80376410D01*
X128137123Y-80384104D01*
X128097812Y-80390500D01*
X126910653Y-80390500D01*
X126876938Y-80385828D01*
X126875168Y-80385328D01*
X126240374Y-80205971D01*
X125543395Y-80009044D01*
X125543384Y-80009041D01*
X125538796Y-80007745D01*
X125526408Y-80003720D01*
X125515702Y-80002024D01*
X125510829Y-80001163D01*
X125510814Y-80001160D01*
X125444508Y-79989454D01*
X125421700Y-79985428D01*
X125420779Y-79985359D01*
X125417076Y-79985084D01*
X125411256Y-79984717D01*
X125409080Y-79984580D01*
X125397480Y-79983299D01*
X125322986Y-79971500D01*
X125322981Y-79971500D01*
X124217019Y-79971500D01*
X124192550Y-79975375D01*
X124013591Y-80003719D01*
X123817705Y-80067367D01*
X123634193Y-80160873D01*
X123467576Y-80281926D01*
X123467571Y-80281930D01*
X123321930Y-80427571D01*
X123321926Y-80427576D01*
X123200873Y-80594193D01*
X123107367Y-80777705D01*
X123043719Y-80973591D01*
X123011500Y-81177019D01*
X112260500Y-81177019D01*
X112260500Y-75950000D01*
X115703497Y-75950000D01*
X118715038Y-75950000D01*
X118685000Y-76101016D01*
X118685000Y-76298984D01*
X118715038Y-76450000D01*
X115703498Y-76450000D01*
X115728496Y-76639884D01*
X115728499Y-76639897D01*
X115804835Y-76924790D01*
X115804838Y-76924800D01*
X115917704Y-77197281D01*
X115917709Y-77197292D01*
X116065174Y-77452707D01*
X116065185Y-77452723D01*
X116244729Y-77686709D01*
X116244735Y-77686716D01*
X116453283Y-77895264D01*
X116453290Y-77895270D01*
X116687276Y-78074814D01*
X116687292Y-78074825D01*
X116942707Y-78222290D01*
X116942718Y-78222295D01*
X117215199Y-78335161D01*
X117215209Y-78335164D01*
X117500102Y-78411500D01*
X117500115Y-78411503D01*
X117792516Y-78449998D01*
X117792534Y-78450000D01*
X119440000Y-78450000D01*
X119440000Y-77174961D01*
X119591016Y-77205000D01*
X119788984Y-77205000D01*
X119940000Y-77174961D01*
X119940000Y-78450000D01*
X121587466Y-78450000D01*
X121587483Y-78449998D01*
X121879884Y-78411503D01*
X121879897Y-78411500D01*
X122164790Y-78335164D01*
X122164800Y-78335161D01*
X122437281Y-78222295D01*
X122437292Y-78222290D01*
X122692707Y-78074825D01*
X122692723Y-78074814D01*
X122926709Y-77895270D01*
X122926716Y-77895264D01*
X123135264Y-77686716D01*
X123135270Y-77686709D01*
X123314814Y-77452723D01*
X123314825Y-77452707D01*
X123462290Y-77197292D01*
X123462295Y-77197281D01*
X123575161Y-76924800D01*
X123575164Y-76924790D01*
X123651500Y-76639897D01*
X123651503Y-76639884D01*
X123676502Y-76450000D01*
X120664962Y-76450000D01*
X120695000Y-76298984D01*
X120695000Y-76101016D01*
X120664962Y-75950000D01*
X123676502Y-75950000D01*
X163343497Y-75950000D01*
X166355038Y-75950000D01*
X166325000Y-76101016D01*
X166325000Y-76298984D01*
X166355038Y-76450000D01*
X163343498Y-76450000D01*
X163368496Y-76639884D01*
X163368499Y-76639897D01*
X163444835Y-76924790D01*
X163444838Y-76924800D01*
X163557704Y-77197281D01*
X163557709Y-77197292D01*
X163705174Y-77452707D01*
X163705185Y-77452723D01*
X163884729Y-77686709D01*
X163884735Y-77686716D01*
X164093283Y-77895264D01*
X164093290Y-77895270D01*
X164327276Y-78074814D01*
X164327292Y-78074825D01*
X164582707Y-78222290D01*
X164582718Y-78222295D01*
X164855199Y-78335161D01*
X164855209Y-78335164D01*
X165140102Y-78411500D01*
X165140115Y-78411503D01*
X165432516Y-78449998D01*
X165432534Y-78450000D01*
X167080000Y-78450000D01*
X167080000Y-77174961D01*
X167231016Y-77205000D01*
X167428984Y-77205000D01*
X167580000Y-77174961D01*
X167580000Y-78450000D01*
X169227466Y-78450000D01*
X169227483Y-78449998D01*
X169519884Y-78411503D01*
X169519897Y-78411500D01*
X169804790Y-78335164D01*
X169804800Y-78335161D01*
X170077281Y-78222295D01*
X170077292Y-78222290D01*
X170332707Y-78074825D01*
X170332723Y-78074814D01*
X170566709Y-77895270D01*
X170566716Y-77895264D01*
X170775264Y-77686716D01*
X170775270Y-77686709D01*
X170954814Y-77452723D01*
X170954825Y-77452707D01*
X171102290Y-77197292D01*
X171102295Y-77197281D01*
X171215161Y-76924800D01*
X171215164Y-76924790D01*
X171291500Y-76639897D01*
X171291503Y-76639884D01*
X171316502Y-76450000D01*
X168304962Y-76450000D01*
X168335000Y-76298984D01*
X168335000Y-76101016D01*
X168304962Y-75950000D01*
X171316502Y-75950000D01*
X171291503Y-75760115D01*
X171291500Y-75760102D01*
X171215164Y-75475209D01*
X171215161Y-75475199D01*
X171102295Y-75202718D01*
X171102290Y-75202707D01*
X170954825Y-74947292D01*
X170954814Y-74947276D01*
X170775270Y-74713290D01*
X170775264Y-74713283D01*
X170566716Y-74504735D01*
X170566709Y-74504729D01*
X170332723Y-74325185D01*
X170332707Y-74325174D01*
X170077292Y-74177709D01*
X170077281Y-74177704D01*
X169804800Y-74064838D01*
X169804790Y-74064835D01*
X169519897Y-73988499D01*
X169519884Y-73988496D01*
X169227483Y-73950001D01*
X169227466Y-73950000D01*
X167580000Y-73950000D01*
X167580000Y-75225038D01*
X167428984Y-75195000D01*
X167231016Y-75195000D01*
X167080000Y-75225038D01*
X167080000Y-73950000D01*
X165432534Y-73950000D01*
X165432516Y-73950001D01*
X165140115Y-73988496D01*
X165140102Y-73988499D01*
X164855209Y-74064835D01*
X164855199Y-74064838D01*
X164582718Y-74177704D01*
X164582707Y-74177709D01*
X164327292Y-74325174D01*
X164327276Y-74325185D01*
X164093290Y-74504729D01*
X164093283Y-74504735D01*
X163884735Y-74713283D01*
X163884729Y-74713290D01*
X163705185Y-74947276D01*
X163705174Y-74947292D01*
X163557709Y-75202707D01*
X163557704Y-75202718D01*
X163444838Y-75475199D01*
X163444835Y-75475209D01*
X163368499Y-75760102D01*
X163368496Y-75760115D01*
X163343497Y-75950000D01*
X123676502Y-75950000D01*
X123651503Y-75760115D01*
X123651500Y-75760102D01*
X123575164Y-75475209D01*
X123575161Y-75475199D01*
X123462295Y-75202718D01*
X123462290Y-75202707D01*
X123314825Y-74947292D01*
X123314814Y-74947276D01*
X123135270Y-74713290D01*
X123135264Y-74713283D01*
X122926716Y-74504735D01*
X122926709Y-74504729D01*
X122692723Y-74325185D01*
X122692707Y-74325174D01*
X122437292Y-74177709D01*
X122437281Y-74177704D01*
X122164800Y-74064838D01*
X122164790Y-74064835D01*
X121879897Y-73988499D01*
X121879884Y-73988496D01*
X121587483Y-73950001D01*
X121587466Y-73950000D01*
X119940000Y-73950000D01*
X119940000Y-75225038D01*
X119788984Y-75195000D01*
X119591016Y-75195000D01*
X119440000Y-75225038D01*
X119440000Y-73950000D01*
X117792534Y-73950000D01*
X117792516Y-73950001D01*
X117500115Y-73988496D01*
X117500102Y-73988499D01*
X117215209Y-74064835D01*
X117215199Y-74064838D01*
X116942718Y-74177704D01*
X116942707Y-74177709D01*
X116687292Y-74325174D01*
X116687276Y-74325185D01*
X116453290Y-74504729D01*
X116453283Y-74504735D01*
X116244735Y-74713283D01*
X116244729Y-74713290D01*
X116065185Y-74947276D01*
X116065174Y-74947292D01*
X115917709Y-75202707D01*
X115917704Y-75202718D01*
X115804838Y-75475199D01*
X115804835Y-75475209D01*
X115728499Y-75760102D01*
X115728496Y-75760115D01*
X115703497Y-75950000D01*
X112260500Y-75950000D01*
X112260500Y-71744500D01*
X112280185Y-71677461D01*
X112332989Y-71631706D01*
X112384500Y-71620500D01*
X174635500Y-71620500D01*
X174702539Y-71640185D01*
G37*
%TD.AperFunction*%
%TD*%
%TA.AperFunction,Conductor*%
%TO.N,VCC*%
G36*
X150743862Y-83426712D02*
G01*
X151378821Y-84193538D01*
X151381458Y-84202096D01*
X151378821Y-84208462D01*
X150743862Y-84975287D01*
X150735946Y-84979474D01*
X150730328Y-84978616D01*
X149791178Y-84585008D01*
X149784872Y-84578649D01*
X149784000Y-84574217D01*
X149784000Y-83827782D01*
X149787427Y-83819509D01*
X149791175Y-83816992D01*
X150730328Y-83423382D01*
X150739282Y-83423346D01*
X150743862Y-83426712D01*
G37*
%TD.AperFunction*%
%TD*%
%TA.AperFunction,Conductor*%
%TO.N,VCC*%
G36*
X145376188Y-83540914D02*
G01*
X146072614Y-83817071D01*
X146079040Y-83823305D01*
X146080000Y-83827946D01*
X146080000Y-84571692D01*
X146076573Y-84579965D01*
X146069775Y-84583299D01*
X145236743Y-84689143D01*
X145228104Y-84686786D01*
X145225915Y-84684566D01*
X145141071Y-84571692D01*
X144785314Y-84098400D01*
X144783083Y-84089728D01*
X144786676Y-84082824D01*
X145363890Y-83543243D01*
X145372273Y-83540098D01*
X145376188Y-83540914D01*
G37*
%TD.AperFunction*%
%TD*%
%TA.AperFunction,Conductor*%
%TO.N,+12V*%
G36*
X144787872Y-86096159D02*
G01*
X145374357Y-86629536D01*
X145378172Y-86637638D01*
X145377582Y-86641900D01*
X145163671Y-87282008D01*
X145157798Y-87288769D01*
X145152574Y-87290000D01*
X144407426Y-87290000D01*
X144399153Y-87286573D01*
X144396329Y-87282008D01*
X144182417Y-86641900D01*
X144183045Y-86632968D01*
X144185639Y-86629538D01*
X144772128Y-86096158D01*
X144780554Y-86093128D01*
X144787872Y-86096159D01*
G37*
%TD.AperFunction*%
%TD*%
%TA.AperFunction,Conductor*%
%TO.N,+12V*%
G36*
X145162366Y-87203427D02*
G01*
X145164337Y-87206048D01*
X145625752Y-88042301D01*
X145626748Y-88051200D01*
X145623786Y-88056221D01*
X144788278Y-88892712D01*
X144780007Y-88896144D01*
X144771732Y-88892722D01*
X144771722Y-88892712D01*
X144542447Y-88663168D01*
X143936212Y-88056219D01*
X143932791Y-88047946D01*
X143934246Y-88042304D01*
X144395663Y-87206048D01*
X144402660Y-87200460D01*
X144405907Y-87200000D01*
X145154093Y-87200000D01*
X145162366Y-87203427D01*
G37*
%TD.AperFunction*%
%TD*%
%TA.AperFunction,Conductor*%
%TO.N,VCC*%
G36*
X143333783Y-83742859D02*
G01*
X143936510Y-83944329D01*
X143943269Y-83950200D01*
X143944500Y-83955424D01*
X143944500Y-84700575D01*
X143941073Y-84708848D01*
X143936509Y-84711671D01*
X143333787Y-84913139D01*
X143324854Y-84912512D01*
X143321596Y-84910102D01*
X142776157Y-84336059D01*
X142772943Y-84327701D01*
X142776157Y-84319941D01*
X143321597Y-83745896D01*
X143329779Y-83742260D01*
X143333783Y-83742859D01*
G37*
%TD.AperFunction*%
%TD*%
%TA.AperFunction,Conductor*%
%TO.N,VCC*%
G36*
X144135091Y-83603790D02*
G01*
X144776852Y-84086878D01*
X144781401Y-84094592D01*
X144781468Y-84095169D01*
X144834290Y-84677421D01*
X144831625Y-84685970D01*
X144823695Y-84690130D01*
X144822802Y-84690177D01*
X143491864Y-84708833D01*
X143483544Y-84705522D01*
X143480001Y-84697298D01*
X143480000Y-84697134D01*
X143480000Y-83954006D01*
X143483427Y-83945733D01*
X143486173Y-83943693D01*
X144122532Y-83602823D01*
X144131441Y-83601939D01*
X144135091Y-83603790D01*
G37*
%TD.AperFunction*%
%TD*%
%TA.AperFunction,Conductor*%
%TO.N,VCC*%
G36*
X145601084Y-81443309D02*
G01*
X145608523Y-81448292D01*
X145610260Y-81457077D01*
X145609999Y-81458125D01*
X145163492Y-82955311D01*
X145157844Y-82962259D01*
X145152280Y-82963667D01*
X144407720Y-82963667D01*
X144399447Y-82960240D01*
X144396508Y-82955311D01*
X144384024Y-82913452D01*
X143950000Y-81458123D01*
X143950920Y-81449217D01*
X143957868Y-81443569D01*
X143958895Y-81443313D01*
X144777706Y-81279459D01*
X144782294Y-81279459D01*
X145601084Y-81443309D01*
G37*
%TD.AperFunction*%
%TD*%
%TA.AperFunction,Conductor*%
%TO.N,VCC*%
G36*
X145160847Y-82893427D02*
G01*
X145163671Y-82897992D01*
X145377582Y-83538098D01*
X145376954Y-83547030D01*
X145374357Y-83550462D01*
X144787872Y-84083840D01*
X144779446Y-84086871D01*
X144772128Y-84083840D01*
X144185642Y-83550462D01*
X144181827Y-83542360D01*
X144182417Y-83538098D01*
X144396329Y-82897992D01*
X144402202Y-82891231D01*
X144407426Y-82890000D01*
X145152574Y-82890000D01*
X145160847Y-82893427D01*
G37*
%TD.AperFunction*%
%TD*%
%TA.AperFunction,Conductor*%
%TO.N,Net-(J1-In)*%
G36*
X128836145Y-80695487D02*
G01*
X128839403Y-80697897D01*
X129384842Y-81271941D01*
X129388056Y-81280299D01*
X129384842Y-81288059D01*
X128839403Y-81862102D01*
X128831220Y-81865739D01*
X128827212Y-81865139D01*
X128224491Y-81663671D01*
X128217731Y-81657799D01*
X128216500Y-81652575D01*
X128216500Y-80907424D01*
X128219927Y-80899151D01*
X128224487Y-80896329D01*
X128827214Y-80694860D01*
X128836145Y-80695487D01*
G37*
%TD.AperFunction*%
%TD*%
%TA.AperFunction,Conductor*%
%TO.N,Net-(J1-In)*%
G36*
X125383670Y-80497518D02*
G01*
X126796109Y-80896593D01*
X126803139Y-80902140D01*
X126804628Y-80907852D01*
X126804628Y-81652147D01*
X126801201Y-81660420D01*
X126796109Y-81663406D01*
X125383673Y-82062480D01*
X125374780Y-82061432D01*
X125371239Y-82058382D01*
X124774538Y-81287158D01*
X124772187Y-81278519D01*
X124774538Y-81272842D01*
X125371240Y-80501616D01*
X125379011Y-80497172D01*
X125383670Y-80497518D01*
G37*
%TD.AperFunction*%
%TD*%
%TA.AperFunction,Conductor*%
%TO.N,Net-(J3-Pin_1)*%
G36*
X132030783Y-80694859D02*
G01*
X132633510Y-80896329D01*
X132640269Y-80902200D01*
X132641500Y-80907424D01*
X132641500Y-81652575D01*
X132638073Y-81660848D01*
X132633509Y-81663671D01*
X132030787Y-81865139D01*
X132021854Y-81864512D01*
X132018596Y-81862102D01*
X131473157Y-81288059D01*
X131469943Y-81279701D01*
X131473157Y-81271941D01*
X132018597Y-80697896D01*
X132026779Y-80694260D01*
X132030783Y-80694859D01*
G37*
%TD.AperFunction*%
%TD*%
%TA.AperFunction,Conductor*%
%TO.N,Net-(J3-Pin_1)*%
G36*
X136316219Y-80436212D02*
G01*
X136776210Y-80895662D01*
X137152712Y-81271722D01*
X137156144Y-81279993D01*
X137152722Y-81288268D01*
X137152712Y-81288278D01*
X136316221Y-82123786D01*
X136307946Y-82127208D01*
X136302301Y-82125752D01*
X135466048Y-81664337D01*
X135460460Y-81657340D01*
X135460000Y-81654093D01*
X135460000Y-80905906D01*
X135463427Y-80897633D01*
X135466043Y-80895665D01*
X136302303Y-80434246D01*
X136311200Y-80433251D01*
X136316219Y-80436212D01*
G37*
%TD.AperFunction*%
%TD*%
%TA.AperFunction,Conductor*%
%TO.N,Net-(J3-Pin_5)*%
G36*
X154998145Y-80695487D02*
G01*
X155001403Y-80697897D01*
X155546842Y-81271941D01*
X155550056Y-81280299D01*
X155546842Y-81288059D01*
X155001403Y-81862102D01*
X154993220Y-81865739D01*
X154989212Y-81865139D01*
X154386491Y-81663671D01*
X154379731Y-81657799D01*
X154378500Y-81652575D01*
X154378500Y-80907424D01*
X154381927Y-80899151D01*
X154386487Y-80896329D01*
X154989214Y-80694860D01*
X154998145Y-80695487D01*
G37*
%TD.AperFunction*%
%TD*%
%TA.AperFunction,Conductor*%
%TO.N,Net-(J3-Pin_5)*%
G36*
X147498111Y-80449996D02*
G01*
X148995312Y-80896508D01*
X149002259Y-80902155D01*
X149003667Y-80907719D01*
X149003667Y-81652280D01*
X149000240Y-81660553D01*
X148995311Y-81663492D01*
X147498125Y-82109999D01*
X147489217Y-82109079D01*
X147483569Y-82102131D01*
X147483312Y-82101099D01*
X147319459Y-81282293D01*
X147319459Y-81277704D01*
X147483309Y-80458913D01*
X147488292Y-80451476D01*
X147497077Y-80449739D01*
X147498111Y-80449996D01*
G37*
%TD.AperFunction*%
%TD*%
%TA.AperFunction,Conductor*%
%TO.N,Net-(J2-In)*%
G36*
X158192783Y-80694859D02*
G01*
X158795510Y-80896329D01*
X158802269Y-80902200D01*
X158803500Y-80907424D01*
X158803500Y-81652575D01*
X158800073Y-81660848D01*
X158795509Y-81663671D01*
X158192787Y-81865139D01*
X158183854Y-81864512D01*
X158180596Y-81862102D01*
X157635157Y-81288059D01*
X157631943Y-81279701D01*
X157635157Y-81271941D01*
X158180597Y-80697896D01*
X158188779Y-80694260D01*
X158192783Y-80694859D01*
G37*
%TD.AperFunction*%
%TD*%
%TA.AperFunction,Conductor*%
%TO.N,Net-(J2-In)*%
G36*
X161645219Y-80498567D02*
G01*
X161648761Y-80501618D01*
X162245460Y-81272840D01*
X162247812Y-81281481D01*
X162245460Y-81287160D01*
X161648761Y-82058381D01*
X161640988Y-82062827D01*
X161636326Y-82062480D01*
X160223891Y-81663406D01*
X160216861Y-81657859D01*
X160215372Y-81652147D01*
X160215372Y-80907852D01*
X160218799Y-80899579D01*
X160223891Y-80896593D01*
X161636328Y-80497519D01*
X161645219Y-80498567D01*
G37*
%TD.AperFunction*%
%TD*%
M02*
