%TF.GenerationSoftware,KiCad,Pcbnew,9.0.3*%
%TF.CreationDate,2025-07-24T18:02:03+02:00*%
%TF.ProjectId,OM345_Testrig,4f4d3334-355f-4546-9573-747269672e6b,rev?*%
%TF.SameCoordinates,Original*%
%TF.FileFunction,Legend,Top*%
%TF.FilePolarity,Positive*%
%FSLAX46Y46*%
G04 Gerber Fmt 4.6, Leading zero omitted, Abs format (unit mm)*
G04 Created by KiCad (PCBNEW 9.0.3) date 2025-07-24 18:02:03*
%MOMM*%
%LPD*%
G01*
G04 APERTURE LIST*
%ADD10C,0.254000*%
%ADD11C,0.203200*%
%ADD12C,0.150000*%
%ADD13C,0.120000*%
G04 APERTURE END LIST*
D10*
X150843533Y-72270656D02*
X151206390Y-72270656D01*
X151206390Y-72270656D02*
X151387819Y-72361370D01*
X151387819Y-72361370D02*
X151569247Y-72542799D01*
X151569247Y-72542799D02*
X151659962Y-72905656D01*
X151659962Y-72905656D02*
X151659962Y-73540656D01*
X151659962Y-73540656D02*
X151569247Y-73903513D01*
X151569247Y-73903513D02*
X151387819Y-74084942D01*
X151387819Y-74084942D02*
X151206390Y-74175656D01*
X151206390Y-74175656D02*
X150843533Y-74175656D01*
X150843533Y-74175656D02*
X150662105Y-74084942D01*
X150662105Y-74084942D02*
X150480676Y-73903513D01*
X150480676Y-73903513D02*
X150389962Y-73540656D01*
X150389962Y-73540656D02*
X150389962Y-72905656D01*
X150389962Y-72905656D02*
X150480676Y-72542799D01*
X150480676Y-72542799D02*
X150662105Y-72361370D01*
X150662105Y-72361370D02*
X150843533Y-72270656D01*
X153292819Y-72905656D02*
X153292819Y-74175656D01*
X152476390Y-72905656D02*
X152476390Y-73903513D01*
X152476390Y-73903513D02*
X152567104Y-74084942D01*
X152567104Y-74084942D02*
X152748533Y-74175656D01*
X152748533Y-74175656D02*
X153020676Y-74175656D01*
X153020676Y-74175656D02*
X153202104Y-74084942D01*
X153202104Y-74084942D02*
X153292819Y-73994227D01*
X153927818Y-72905656D02*
X154653532Y-72905656D01*
X154199961Y-72270656D02*
X154199961Y-73903513D01*
X154199961Y-73903513D02*
X154290675Y-74084942D01*
X154290675Y-74084942D02*
X154472104Y-74175656D01*
X154472104Y-74175656D02*
X154653532Y-74175656D01*
X155288532Y-72905656D02*
X155288532Y-74810656D01*
X155288532Y-72996370D02*
X155469961Y-72905656D01*
X155469961Y-72905656D02*
X155832818Y-72905656D01*
X155832818Y-72905656D02*
X156014246Y-72996370D01*
X156014246Y-72996370D02*
X156104961Y-73087084D01*
X156104961Y-73087084D02*
X156195675Y-73268513D01*
X156195675Y-73268513D02*
X156195675Y-73812799D01*
X156195675Y-73812799D02*
X156104961Y-73994227D01*
X156104961Y-73994227D02*
X156014246Y-74084942D01*
X156014246Y-74084942D02*
X155832818Y-74175656D01*
X155832818Y-74175656D02*
X155469961Y-74175656D01*
X155469961Y-74175656D02*
X155288532Y-74084942D01*
X157828532Y-72905656D02*
X157828532Y-74175656D01*
X157012103Y-72905656D02*
X157012103Y-73903513D01*
X157012103Y-73903513D02*
X157102817Y-74084942D01*
X157102817Y-74084942D02*
X157284246Y-74175656D01*
X157284246Y-74175656D02*
X157556389Y-74175656D01*
X157556389Y-74175656D02*
X157737817Y-74084942D01*
X157737817Y-74084942D02*
X157828532Y-73994227D01*
X158463531Y-72905656D02*
X159189245Y-72905656D01*
X158735674Y-72270656D02*
X158735674Y-73903513D01*
X158735674Y-73903513D02*
X158826388Y-74084942D01*
X158826388Y-74084942D02*
X159007817Y-74175656D01*
X159007817Y-74175656D02*
X159189245Y-74175656D01*
D11*
X138194779Y-88686474D02*
X138098017Y-88638093D01*
X138098017Y-88638093D02*
X137952874Y-88638093D01*
X137952874Y-88638093D02*
X137807731Y-88686474D01*
X137807731Y-88686474D02*
X137710969Y-88783236D01*
X137710969Y-88783236D02*
X137662588Y-88879998D01*
X137662588Y-88879998D02*
X137614207Y-89073522D01*
X137614207Y-89073522D02*
X137614207Y-89218665D01*
X137614207Y-89218665D02*
X137662588Y-89412189D01*
X137662588Y-89412189D02*
X137710969Y-89508951D01*
X137710969Y-89508951D02*
X137807731Y-89605713D01*
X137807731Y-89605713D02*
X137952874Y-89654093D01*
X137952874Y-89654093D02*
X138049636Y-89654093D01*
X138049636Y-89654093D02*
X138194779Y-89605713D01*
X138194779Y-89605713D02*
X138243160Y-89557332D01*
X138243160Y-89557332D02*
X138243160Y-89218665D01*
X138243160Y-89218665D02*
X138049636Y-89218665D01*
X138678588Y-89654093D02*
X138678588Y-88638093D01*
X138678588Y-88638093D02*
X139259160Y-89654093D01*
X139259160Y-89654093D02*
X139259160Y-88638093D01*
X139742969Y-89654093D02*
X139742969Y-88638093D01*
X139742969Y-88638093D02*
X139984874Y-88638093D01*
X139984874Y-88638093D02*
X140130017Y-88686474D01*
X140130017Y-88686474D02*
X140226779Y-88783236D01*
X140226779Y-88783236D02*
X140275160Y-88879998D01*
X140275160Y-88879998D02*
X140323541Y-89073522D01*
X140323541Y-89073522D02*
X140323541Y-89218665D01*
X140323541Y-89218665D02*
X140275160Y-89412189D01*
X140275160Y-89412189D02*
X140226779Y-89508951D01*
X140226779Y-89508951D02*
X140130017Y-89605713D01*
X140130017Y-89605713D02*
X139984874Y-89654093D01*
X139984874Y-89654093D02*
X139742969Y-89654093D01*
D10*
X128128676Y-74175656D02*
X128128676Y-72270656D01*
X129035819Y-72905656D02*
X129035819Y-74175656D01*
X129035819Y-73087084D02*
X129126533Y-72996370D01*
X129126533Y-72996370D02*
X129307962Y-72905656D01*
X129307962Y-72905656D02*
X129580105Y-72905656D01*
X129580105Y-72905656D02*
X129761533Y-72996370D01*
X129761533Y-72996370D02*
X129852248Y-73177799D01*
X129852248Y-73177799D02*
X129852248Y-74175656D01*
X130759390Y-72905656D02*
X130759390Y-74810656D01*
X130759390Y-72996370D02*
X130940819Y-72905656D01*
X130940819Y-72905656D02*
X131303676Y-72905656D01*
X131303676Y-72905656D02*
X131485104Y-72996370D01*
X131485104Y-72996370D02*
X131575819Y-73087084D01*
X131575819Y-73087084D02*
X131666533Y-73268513D01*
X131666533Y-73268513D02*
X131666533Y-73812799D01*
X131666533Y-73812799D02*
X131575819Y-73994227D01*
X131575819Y-73994227D02*
X131485104Y-74084942D01*
X131485104Y-74084942D02*
X131303676Y-74175656D01*
X131303676Y-74175656D02*
X130940819Y-74175656D01*
X130940819Y-74175656D02*
X130759390Y-74084942D01*
X133299390Y-72905656D02*
X133299390Y-74175656D01*
X132482961Y-72905656D02*
X132482961Y-73903513D01*
X132482961Y-73903513D02*
X132573675Y-74084942D01*
X132573675Y-74084942D02*
X132755104Y-74175656D01*
X132755104Y-74175656D02*
X133027247Y-74175656D01*
X133027247Y-74175656D02*
X133208675Y-74084942D01*
X133208675Y-74084942D02*
X133299390Y-73994227D01*
X133934389Y-72905656D02*
X134660103Y-72905656D01*
X134206532Y-72270656D02*
X134206532Y-73903513D01*
X134206532Y-73903513D02*
X134297246Y-74084942D01*
X134297246Y-74084942D02*
X134478675Y-74175656D01*
X134478675Y-74175656D02*
X134660103Y-74175656D01*
D11*
X146806588Y-89267046D02*
X147580684Y-89267046D01*
X147193636Y-89654093D02*
X147193636Y-88879998D01*
X148596684Y-89654093D02*
X148016112Y-89654093D01*
X148306398Y-89654093D02*
X148306398Y-88638093D01*
X148306398Y-88638093D02*
X148209636Y-88783236D01*
X148209636Y-88783236D02*
X148112874Y-88879998D01*
X148112874Y-88879998D02*
X148016112Y-88928379D01*
X148983731Y-88734855D02*
X149032112Y-88686474D01*
X149032112Y-88686474D02*
X149128874Y-88638093D01*
X149128874Y-88638093D02*
X149370779Y-88638093D01*
X149370779Y-88638093D02*
X149467541Y-88686474D01*
X149467541Y-88686474D02*
X149515922Y-88734855D01*
X149515922Y-88734855D02*
X149564303Y-88831617D01*
X149564303Y-88831617D02*
X149564303Y-88928379D01*
X149564303Y-88928379D02*
X149515922Y-89073522D01*
X149515922Y-89073522D02*
X148935350Y-89654093D01*
X148935350Y-89654093D02*
X149564303Y-89654093D01*
X149854588Y-88638093D02*
X150193255Y-89654093D01*
X150193255Y-89654093D02*
X150531922Y-88638093D01*
D12*
X154900333Y-87100580D02*
X154852714Y-87148200D01*
X154852714Y-87148200D02*
X154709857Y-87195819D01*
X154709857Y-87195819D02*
X154614619Y-87195819D01*
X154614619Y-87195819D02*
X154471762Y-87148200D01*
X154471762Y-87148200D02*
X154376524Y-87052961D01*
X154376524Y-87052961D02*
X154328905Y-86957723D01*
X154328905Y-86957723D02*
X154281286Y-86767247D01*
X154281286Y-86767247D02*
X154281286Y-86624390D01*
X154281286Y-86624390D02*
X154328905Y-86433914D01*
X154328905Y-86433914D02*
X154376524Y-86338676D01*
X154376524Y-86338676D02*
X154471762Y-86243438D01*
X154471762Y-86243438D02*
X154614619Y-86195819D01*
X154614619Y-86195819D02*
X154709857Y-86195819D01*
X154709857Y-86195819D02*
X154852714Y-86243438D01*
X154852714Y-86243438D02*
X154900333Y-86291057D01*
X155757476Y-86529152D02*
X155757476Y-87195819D01*
X155519381Y-86148200D02*
X155281286Y-86862485D01*
X155281286Y-86862485D02*
X155900333Y-86862485D01*
X153376524Y-87719819D02*
X153995571Y-87719819D01*
X153995571Y-87719819D02*
X153662238Y-88100771D01*
X153662238Y-88100771D02*
X153805095Y-88100771D01*
X153805095Y-88100771D02*
X153900333Y-88148390D01*
X153900333Y-88148390D02*
X153947952Y-88196009D01*
X153947952Y-88196009D02*
X153995571Y-88291247D01*
X153995571Y-88291247D02*
X153995571Y-88529342D01*
X153995571Y-88529342D02*
X153947952Y-88624580D01*
X153947952Y-88624580D02*
X153900333Y-88672200D01*
X153900333Y-88672200D02*
X153805095Y-88719819D01*
X153805095Y-88719819D02*
X153519381Y-88719819D01*
X153519381Y-88719819D02*
X153424143Y-88672200D01*
X153424143Y-88672200D02*
X153376524Y-88624580D01*
X154328905Y-87719819D02*
X154947952Y-87719819D01*
X154947952Y-87719819D02*
X154614619Y-88100771D01*
X154614619Y-88100771D02*
X154757476Y-88100771D01*
X154757476Y-88100771D02*
X154852714Y-88148390D01*
X154852714Y-88148390D02*
X154900333Y-88196009D01*
X154900333Y-88196009D02*
X154947952Y-88291247D01*
X154947952Y-88291247D02*
X154947952Y-88529342D01*
X154947952Y-88529342D02*
X154900333Y-88624580D01*
X154900333Y-88624580D02*
X154852714Y-88672200D01*
X154852714Y-88672200D02*
X154757476Y-88719819D01*
X154757476Y-88719819D02*
X154471762Y-88719819D01*
X154471762Y-88719819D02*
X154376524Y-88672200D01*
X154376524Y-88672200D02*
X154328905Y-88624580D01*
X155805095Y-88053152D02*
X155805095Y-88719819D01*
X155376524Y-88053152D02*
X155376524Y-88576961D01*
X155376524Y-88576961D02*
X155424143Y-88672200D01*
X155424143Y-88672200D02*
X155519381Y-88719819D01*
X155519381Y-88719819D02*
X155662238Y-88719819D01*
X155662238Y-88719819D02*
X155757476Y-88672200D01*
X155757476Y-88672200D02*
X155805095Y-88624580D01*
X156614619Y-88196009D02*
X156281286Y-88196009D01*
X156281286Y-88719819D02*
X156281286Y-87719819D01*
X156281286Y-87719819D02*
X156757476Y-87719819D01*
X146518333Y-84782819D02*
X146185000Y-84306628D01*
X145946905Y-84782819D02*
X145946905Y-83782819D01*
X145946905Y-83782819D02*
X146327857Y-83782819D01*
X146327857Y-83782819D02*
X146423095Y-83830438D01*
X146423095Y-83830438D02*
X146470714Y-83878057D01*
X146470714Y-83878057D02*
X146518333Y-83973295D01*
X146518333Y-83973295D02*
X146518333Y-84116152D01*
X146518333Y-84116152D02*
X146470714Y-84211390D01*
X146470714Y-84211390D02*
X146423095Y-84259009D01*
X146423095Y-84259009D02*
X146327857Y-84306628D01*
X146327857Y-84306628D02*
X145946905Y-84306628D01*
X147470714Y-84782819D02*
X146899286Y-84782819D01*
X147185000Y-84782819D02*
X147185000Y-83782819D01*
X147185000Y-83782819D02*
X147089762Y-83925676D01*
X147089762Y-83925676D02*
X146994524Y-84020914D01*
X146994524Y-84020914D02*
X146899286Y-84068533D01*
X146494523Y-86687819D02*
X145923095Y-86687819D01*
X146208809Y-86687819D02*
X146208809Y-85687819D01*
X146208809Y-85687819D02*
X146113571Y-85830676D01*
X146113571Y-85830676D02*
X146018333Y-85925914D01*
X146018333Y-85925914D02*
X145923095Y-85973533D01*
X147113571Y-85687819D02*
X147208809Y-85687819D01*
X147208809Y-85687819D02*
X147304047Y-85735438D01*
X147304047Y-85735438D02*
X147351666Y-85783057D01*
X147351666Y-85783057D02*
X147399285Y-85878295D01*
X147399285Y-85878295D02*
X147446904Y-86068771D01*
X147446904Y-86068771D02*
X147446904Y-86306866D01*
X147446904Y-86306866D02*
X147399285Y-86497342D01*
X147399285Y-86497342D02*
X147351666Y-86592580D01*
X147351666Y-86592580D02*
X147304047Y-86640200D01*
X147304047Y-86640200D02*
X147208809Y-86687819D01*
X147208809Y-86687819D02*
X147113571Y-86687819D01*
X147113571Y-86687819D02*
X147018333Y-86640200D01*
X147018333Y-86640200D02*
X146970714Y-86592580D01*
X146970714Y-86592580D02*
X146923095Y-86497342D01*
X146923095Y-86497342D02*
X146875476Y-86306866D01*
X146875476Y-86306866D02*
X146875476Y-86068771D01*
X146875476Y-86068771D02*
X146923095Y-85878295D01*
X146923095Y-85878295D02*
X146970714Y-85783057D01*
X146970714Y-85783057D02*
X147018333Y-85735438D01*
X147018333Y-85735438D02*
X147113571Y-85687819D01*
X133844819Y-81613333D02*
X134559104Y-81613333D01*
X134559104Y-81613333D02*
X134701961Y-81660952D01*
X134701961Y-81660952D02*
X134797200Y-81756190D01*
X134797200Y-81756190D02*
X134844819Y-81899047D01*
X134844819Y-81899047D02*
X134844819Y-81994285D01*
X133844819Y-81232380D02*
X133844819Y-80613333D01*
X133844819Y-80613333D02*
X134225771Y-80946666D01*
X134225771Y-80946666D02*
X134225771Y-80803809D01*
X134225771Y-80803809D02*
X134273390Y-80708571D01*
X134273390Y-80708571D02*
X134321009Y-80660952D01*
X134321009Y-80660952D02*
X134416247Y-80613333D01*
X134416247Y-80613333D02*
X134654342Y-80613333D01*
X134654342Y-80613333D02*
X134749580Y-80660952D01*
X134749580Y-80660952D02*
X134797200Y-80708571D01*
X134797200Y-80708571D02*
X134844819Y-80803809D01*
X134844819Y-80803809D02*
X134844819Y-81089523D01*
X134844819Y-81089523D02*
X134797200Y-81184761D01*
X134797200Y-81184761D02*
X134749580Y-81232380D01*
X139763762Y-78194819D02*
X139954238Y-78194819D01*
X139954238Y-78194819D02*
X140049476Y-78242438D01*
X140049476Y-78242438D02*
X140144714Y-78337676D01*
X140144714Y-78337676D02*
X140192333Y-78528152D01*
X140192333Y-78528152D02*
X140192333Y-78861485D01*
X140192333Y-78861485D02*
X140144714Y-79051961D01*
X140144714Y-79051961D02*
X140049476Y-79147200D01*
X140049476Y-79147200D02*
X139954238Y-79194819D01*
X139954238Y-79194819D02*
X139763762Y-79194819D01*
X139763762Y-79194819D02*
X139668524Y-79147200D01*
X139668524Y-79147200D02*
X139573286Y-79051961D01*
X139573286Y-79051961D02*
X139525667Y-78861485D01*
X139525667Y-78861485D02*
X139525667Y-78528152D01*
X139525667Y-78528152D02*
X139573286Y-78337676D01*
X139573286Y-78337676D02*
X139668524Y-78242438D01*
X139668524Y-78242438D02*
X139763762Y-78194819D01*
X140620905Y-79194819D02*
X140620905Y-78194819D01*
X140620905Y-78194819D02*
X140954238Y-78909104D01*
X140954238Y-78909104D02*
X141287571Y-78194819D01*
X141287571Y-78194819D02*
X141287571Y-79194819D01*
X141668524Y-78194819D02*
X142287571Y-78194819D01*
X142287571Y-78194819D02*
X141954238Y-78575771D01*
X141954238Y-78575771D02*
X142097095Y-78575771D01*
X142097095Y-78575771D02*
X142192333Y-78623390D01*
X142192333Y-78623390D02*
X142239952Y-78671009D01*
X142239952Y-78671009D02*
X142287571Y-78766247D01*
X142287571Y-78766247D02*
X142287571Y-79004342D01*
X142287571Y-79004342D02*
X142239952Y-79099580D01*
X142239952Y-79099580D02*
X142192333Y-79147200D01*
X142192333Y-79147200D02*
X142097095Y-79194819D01*
X142097095Y-79194819D02*
X141811381Y-79194819D01*
X141811381Y-79194819D02*
X141716143Y-79147200D01*
X141716143Y-79147200D02*
X141668524Y-79099580D01*
X143144714Y-78528152D02*
X143144714Y-79194819D01*
X142906619Y-78147200D02*
X142668524Y-78861485D01*
X142668524Y-78861485D02*
X143287571Y-78861485D01*
X144144714Y-78194819D02*
X143668524Y-78194819D01*
X143668524Y-78194819D02*
X143620905Y-78671009D01*
X143620905Y-78671009D02*
X143668524Y-78623390D01*
X143668524Y-78623390D02*
X143763762Y-78575771D01*
X143763762Y-78575771D02*
X144001857Y-78575771D01*
X144001857Y-78575771D02*
X144097095Y-78623390D01*
X144097095Y-78623390D02*
X144144714Y-78671009D01*
X144144714Y-78671009D02*
X144192333Y-78766247D01*
X144192333Y-78766247D02*
X144192333Y-79004342D01*
X144192333Y-79004342D02*
X144144714Y-79099580D01*
X144144714Y-79099580D02*
X144097095Y-79147200D01*
X144097095Y-79147200D02*
X144001857Y-79194819D01*
X144001857Y-79194819D02*
X143763762Y-79194819D01*
X143763762Y-79194819D02*
X143668524Y-79147200D01*
X143668524Y-79147200D02*
X143620905Y-79099580D01*
X130262333Y-79861580D02*
X130214714Y-79909200D01*
X130214714Y-79909200D02*
X130071857Y-79956819D01*
X130071857Y-79956819D02*
X129976619Y-79956819D01*
X129976619Y-79956819D02*
X129833762Y-79909200D01*
X129833762Y-79909200D02*
X129738524Y-79813961D01*
X129738524Y-79813961D02*
X129690905Y-79718723D01*
X129690905Y-79718723D02*
X129643286Y-79528247D01*
X129643286Y-79528247D02*
X129643286Y-79385390D01*
X129643286Y-79385390D02*
X129690905Y-79194914D01*
X129690905Y-79194914D02*
X129738524Y-79099676D01*
X129738524Y-79099676D02*
X129833762Y-79004438D01*
X129833762Y-79004438D02*
X129976619Y-78956819D01*
X129976619Y-78956819D02*
X130071857Y-78956819D01*
X130071857Y-78956819D02*
X130214714Y-79004438D01*
X130214714Y-79004438D02*
X130262333Y-79052057D01*
X131214714Y-79956819D02*
X130643286Y-79956819D01*
X130929000Y-79956819D02*
X130929000Y-78956819D01*
X130929000Y-78956819D02*
X130833762Y-79099676D01*
X130833762Y-79099676D02*
X130738524Y-79194914D01*
X130738524Y-79194914D02*
X130643286Y-79242533D01*
X129484571Y-83766819D02*
X128913143Y-83766819D01*
X129198857Y-83766819D02*
X129198857Y-82766819D01*
X129198857Y-82766819D02*
X129103619Y-82909676D01*
X129103619Y-82909676D02*
X129008381Y-83004914D01*
X129008381Y-83004914D02*
X128913143Y-83052533D01*
X130103619Y-82766819D02*
X130198857Y-82766819D01*
X130198857Y-82766819D02*
X130294095Y-82814438D01*
X130294095Y-82814438D02*
X130341714Y-82862057D01*
X130341714Y-82862057D02*
X130389333Y-82957295D01*
X130389333Y-82957295D02*
X130436952Y-83147771D01*
X130436952Y-83147771D02*
X130436952Y-83385866D01*
X130436952Y-83385866D02*
X130389333Y-83576342D01*
X130389333Y-83576342D02*
X130341714Y-83671580D01*
X130341714Y-83671580D02*
X130294095Y-83719200D01*
X130294095Y-83719200D02*
X130198857Y-83766819D01*
X130198857Y-83766819D02*
X130103619Y-83766819D01*
X130103619Y-83766819D02*
X130008381Y-83719200D01*
X130008381Y-83719200D02*
X129960762Y-83671580D01*
X129960762Y-83671580D02*
X129913143Y-83576342D01*
X129913143Y-83576342D02*
X129865524Y-83385866D01*
X129865524Y-83385866D02*
X129865524Y-83147771D01*
X129865524Y-83147771D02*
X129913143Y-82957295D01*
X129913143Y-82957295D02*
X129960762Y-82862057D01*
X129960762Y-82862057D02*
X130008381Y-82814438D01*
X130008381Y-82814438D02*
X130103619Y-82766819D01*
X130865524Y-83100152D02*
X130865524Y-83766819D01*
X130865524Y-83195390D02*
X130913143Y-83147771D01*
X130913143Y-83147771D02*
X131008381Y-83100152D01*
X131008381Y-83100152D02*
X131151238Y-83100152D01*
X131151238Y-83100152D02*
X131246476Y-83147771D01*
X131246476Y-83147771D02*
X131294095Y-83243009D01*
X131294095Y-83243009D02*
X131294095Y-83766819D01*
X132103619Y-83243009D02*
X131770286Y-83243009D01*
X131770286Y-83766819D02*
X131770286Y-82766819D01*
X131770286Y-82766819D02*
X132246476Y-82766819D01*
X156424333Y-79861580D02*
X156376714Y-79909200D01*
X156376714Y-79909200D02*
X156233857Y-79956819D01*
X156233857Y-79956819D02*
X156138619Y-79956819D01*
X156138619Y-79956819D02*
X155995762Y-79909200D01*
X155995762Y-79909200D02*
X155900524Y-79813961D01*
X155900524Y-79813961D02*
X155852905Y-79718723D01*
X155852905Y-79718723D02*
X155805286Y-79528247D01*
X155805286Y-79528247D02*
X155805286Y-79385390D01*
X155805286Y-79385390D02*
X155852905Y-79194914D01*
X155852905Y-79194914D02*
X155900524Y-79099676D01*
X155900524Y-79099676D02*
X155995762Y-79004438D01*
X155995762Y-79004438D02*
X156138619Y-78956819D01*
X156138619Y-78956819D02*
X156233857Y-78956819D01*
X156233857Y-78956819D02*
X156376714Y-79004438D01*
X156376714Y-79004438D02*
X156424333Y-79052057D01*
X156805286Y-79052057D02*
X156852905Y-79004438D01*
X156852905Y-79004438D02*
X156948143Y-78956819D01*
X156948143Y-78956819D02*
X157186238Y-78956819D01*
X157186238Y-78956819D02*
X157281476Y-79004438D01*
X157281476Y-79004438D02*
X157329095Y-79052057D01*
X157329095Y-79052057D02*
X157376714Y-79147295D01*
X157376714Y-79147295D02*
X157376714Y-79242533D01*
X157376714Y-79242533D02*
X157329095Y-79385390D01*
X157329095Y-79385390D02*
X156757667Y-79956819D01*
X156757667Y-79956819D02*
X157376714Y-79956819D01*
X155773571Y-83766819D02*
X155202143Y-83766819D01*
X155487857Y-83766819D02*
X155487857Y-82766819D01*
X155487857Y-82766819D02*
X155392619Y-82909676D01*
X155392619Y-82909676D02*
X155297381Y-83004914D01*
X155297381Y-83004914D02*
X155202143Y-83052533D01*
X156392619Y-82766819D02*
X156487857Y-82766819D01*
X156487857Y-82766819D02*
X156583095Y-82814438D01*
X156583095Y-82814438D02*
X156630714Y-82862057D01*
X156630714Y-82862057D02*
X156678333Y-82957295D01*
X156678333Y-82957295D02*
X156725952Y-83147771D01*
X156725952Y-83147771D02*
X156725952Y-83385866D01*
X156725952Y-83385866D02*
X156678333Y-83576342D01*
X156678333Y-83576342D02*
X156630714Y-83671580D01*
X156630714Y-83671580D02*
X156583095Y-83719200D01*
X156583095Y-83719200D02*
X156487857Y-83766819D01*
X156487857Y-83766819D02*
X156392619Y-83766819D01*
X156392619Y-83766819D02*
X156297381Y-83719200D01*
X156297381Y-83719200D02*
X156249762Y-83671580D01*
X156249762Y-83671580D02*
X156202143Y-83576342D01*
X156202143Y-83576342D02*
X156154524Y-83385866D01*
X156154524Y-83385866D02*
X156154524Y-83147771D01*
X156154524Y-83147771D02*
X156202143Y-82957295D01*
X156202143Y-82957295D02*
X156249762Y-82862057D01*
X156249762Y-82862057D02*
X156297381Y-82814438D01*
X156297381Y-82814438D02*
X156392619Y-82766819D01*
X157154524Y-83100152D02*
X157154524Y-83766819D01*
X157154524Y-83195390D02*
X157202143Y-83147771D01*
X157202143Y-83147771D02*
X157297381Y-83100152D01*
X157297381Y-83100152D02*
X157440238Y-83100152D01*
X157440238Y-83100152D02*
X157535476Y-83147771D01*
X157535476Y-83147771D02*
X157583095Y-83243009D01*
X157583095Y-83243009D02*
X157583095Y-83766819D01*
X158392619Y-83243009D02*
X158059286Y-83243009D01*
X158059286Y-83766819D02*
X158059286Y-82766819D01*
X158059286Y-82766819D02*
X158535476Y-82766819D01*
X138517333Y-84814580D02*
X138469714Y-84862200D01*
X138469714Y-84862200D02*
X138326857Y-84909819D01*
X138326857Y-84909819D02*
X138231619Y-84909819D01*
X138231619Y-84909819D02*
X138088762Y-84862200D01*
X138088762Y-84862200D02*
X137993524Y-84766961D01*
X137993524Y-84766961D02*
X137945905Y-84671723D01*
X137945905Y-84671723D02*
X137898286Y-84481247D01*
X137898286Y-84481247D02*
X137898286Y-84338390D01*
X137898286Y-84338390D02*
X137945905Y-84147914D01*
X137945905Y-84147914D02*
X137993524Y-84052676D01*
X137993524Y-84052676D02*
X138088762Y-83957438D01*
X138088762Y-83957438D02*
X138231619Y-83909819D01*
X138231619Y-83909819D02*
X138326857Y-83909819D01*
X138326857Y-83909819D02*
X138469714Y-83957438D01*
X138469714Y-83957438D02*
X138517333Y-84005057D01*
X138850667Y-83909819D02*
X139469714Y-83909819D01*
X139469714Y-83909819D02*
X139136381Y-84290771D01*
X139136381Y-84290771D02*
X139279238Y-84290771D01*
X139279238Y-84290771D02*
X139374476Y-84338390D01*
X139374476Y-84338390D02*
X139422095Y-84386009D01*
X139422095Y-84386009D02*
X139469714Y-84481247D01*
X139469714Y-84481247D02*
X139469714Y-84719342D01*
X139469714Y-84719342D02*
X139422095Y-84814580D01*
X139422095Y-84814580D02*
X139374476Y-84862200D01*
X139374476Y-84862200D02*
X139279238Y-84909819D01*
X139279238Y-84909819D02*
X138993524Y-84909819D01*
X138993524Y-84909819D02*
X138898286Y-84862200D01*
X138898286Y-84862200D02*
X138850667Y-84814580D01*
X140533571Y-86687819D02*
X139962143Y-86687819D01*
X140247857Y-86687819D02*
X140247857Y-85687819D01*
X140247857Y-85687819D02*
X140152619Y-85830676D01*
X140152619Y-85830676D02*
X140057381Y-85925914D01*
X140057381Y-85925914D02*
X139962143Y-85973533D01*
X141152619Y-85687819D02*
X141247857Y-85687819D01*
X141247857Y-85687819D02*
X141343095Y-85735438D01*
X141343095Y-85735438D02*
X141390714Y-85783057D01*
X141390714Y-85783057D02*
X141438333Y-85878295D01*
X141438333Y-85878295D02*
X141485952Y-86068771D01*
X141485952Y-86068771D02*
X141485952Y-86306866D01*
X141485952Y-86306866D02*
X141438333Y-86497342D01*
X141438333Y-86497342D02*
X141390714Y-86592580D01*
X141390714Y-86592580D02*
X141343095Y-86640200D01*
X141343095Y-86640200D02*
X141247857Y-86687819D01*
X141247857Y-86687819D02*
X141152619Y-86687819D01*
X141152619Y-86687819D02*
X141057381Y-86640200D01*
X141057381Y-86640200D02*
X141009762Y-86592580D01*
X141009762Y-86592580D02*
X140962143Y-86497342D01*
X140962143Y-86497342D02*
X140914524Y-86306866D01*
X140914524Y-86306866D02*
X140914524Y-86068771D01*
X140914524Y-86068771D02*
X140962143Y-85878295D01*
X140962143Y-85878295D02*
X141009762Y-85783057D01*
X141009762Y-85783057D02*
X141057381Y-85735438D01*
X141057381Y-85735438D02*
X141152619Y-85687819D01*
X141914524Y-86021152D02*
X141914524Y-86687819D01*
X141914524Y-86116390D02*
X141962143Y-86068771D01*
X141962143Y-86068771D02*
X142057381Y-86021152D01*
X142057381Y-86021152D02*
X142200238Y-86021152D01*
X142200238Y-86021152D02*
X142295476Y-86068771D01*
X142295476Y-86068771D02*
X142343095Y-86164009D01*
X142343095Y-86164009D02*
X142343095Y-86687819D01*
X143152619Y-86164009D02*
X142819286Y-86164009D01*
X142819286Y-86687819D02*
X142819286Y-85687819D01*
X142819286Y-85687819D02*
X143295476Y-85687819D01*
D13*
%TO.C,C4*%
X152859000Y-82646225D02*
X152859000Y-83146225D01*
X153109000Y-82896225D02*
X152609000Y-82896225D01*
X153964000Y-85451000D02*
X148804000Y-85451000D01*
X153964000Y-85491000D02*
X148804000Y-85491000D01*
X153963000Y-85531000D02*
X148805000Y-85531000D01*
X153961000Y-85571000D02*
X148807000Y-85571000D01*
X153959000Y-85611000D02*
X148809000Y-85611000D01*
X153956000Y-85651000D02*
X148812000Y-85651000D01*
X153953000Y-85691000D02*
X152424000Y-85691000D01*
X150344000Y-85691000D02*
X148815000Y-85691000D01*
X153949000Y-85731000D02*
X152424000Y-85731000D01*
X150344000Y-85731000D02*
X148819000Y-85731000D01*
X153944000Y-85771000D02*
X152424000Y-85771000D01*
X150344000Y-85771000D02*
X148824000Y-85771000D01*
X153939000Y-85811000D02*
X152424000Y-85811000D01*
X150344000Y-85811000D02*
X148829000Y-85811000D01*
X153933000Y-85851000D02*
X152424000Y-85851000D01*
X150344000Y-85851000D02*
X148835000Y-85851000D01*
X153927000Y-85891000D02*
X152424000Y-85891000D01*
X150344000Y-85891000D02*
X148841000Y-85891000D01*
X153920000Y-85931000D02*
X152424000Y-85931000D01*
X150344000Y-85931000D02*
X148848000Y-85931000D01*
X153912000Y-85971000D02*
X152424000Y-85971000D01*
X150344000Y-85971000D02*
X148856000Y-85971000D01*
X153903000Y-86011000D02*
X152424000Y-86011000D01*
X150344000Y-86011000D02*
X148865000Y-86011000D01*
X153894000Y-86051000D02*
X152424000Y-86051000D01*
X150344000Y-86051000D02*
X148874000Y-86051000D01*
X153885000Y-86091000D02*
X152424000Y-86091000D01*
X150344000Y-86091000D02*
X148883000Y-86091000D01*
X153874000Y-86131000D02*
X152424000Y-86131000D01*
X150344000Y-86131000D02*
X148894000Y-86131000D01*
X153863000Y-86171000D02*
X152424000Y-86171000D01*
X150344000Y-86171000D02*
X148905000Y-86171000D01*
X153851000Y-86211000D02*
X152424000Y-86211000D01*
X150344000Y-86211000D02*
X148917000Y-86211000D01*
X153839000Y-86251000D02*
X152424000Y-86251000D01*
X150344000Y-86251000D02*
X148929000Y-86251000D01*
X153826000Y-86291000D02*
X152424000Y-86291000D01*
X150344000Y-86291000D02*
X148942000Y-86291000D01*
X153812000Y-86331000D02*
X152424000Y-86331000D01*
X150344000Y-86331000D02*
X148956000Y-86331000D01*
X153797000Y-86371000D02*
X152424000Y-86371000D01*
X150344000Y-86371000D02*
X148971000Y-86371000D01*
X153782000Y-86411000D02*
X152424000Y-86411000D01*
X150344000Y-86411000D02*
X148986000Y-86411000D01*
X153766000Y-86451000D02*
X152424000Y-86451000D01*
X150344000Y-86451000D02*
X149002000Y-86451000D01*
X153749000Y-86491000D02*
X152424000Y-86491000D01*
X150344000Y-86491000D02*
X149019000Y-86491000D01*
X153731000Y-86531000D02*
X152424000Y-86531000D01*
X150344000Y-86531000D02*
X149037000Y-86531000D01*
X153713000Y-86571000D02*
X152424000Y-86571000D01*
X150344000Y-86571000D02*
X149055000Y-86571000D01*
X153693000Y-86611000D02*
X152424000Y-86611000D01*
X150344000Y-86611000D02*
X149075000Y-86611000D01*
X153673000Y-86651000D02*
X152424000Y-86651000D01*
X150344000Y-86651000D02*
X149095000Y-86651000D01*
X153652000Y-86691000D02*
X152424000Y-86691000D01*
X150344000Y-86691000D02*
X149116000Y-86691000D01*
X153630000Y-86731000D02*
X152424000Y-86731000D01*
X150344000Y-86731000D02*
X149138000Y-86731000D01*
X153607000Y-86771000D02*
X152424000Y-86771000D01*
X150344000Y-86771000D02*
X149161000Y-86771000D01*
X153583000Y-86811000D02*
X152424000Y-86811000D01*
X150344000Y-86811000D02*
X149185000Y-86811000D01*
X153559000Y-86851000D02*
X152424000Y-86851000D01*
X150344000Y-86851000D02*
X149209000Y-86851000D01*
X153533000Y-86891000D02*
X152424000Y-86891000D01*
X150344000Y-86891000D02*
X149235000Y-86891000D01*
X153506000Y-86931000D02*
X152424000Y-86931000D01*
X150344000Y-86931000D02*
X149262000Y-86931000D01*
X153478000Y-86971000D02*
X152424000Y-86971000D01*
X150344000Y-86971000D02*
X149290000Y-86971000D01*
X153449000Y-87011000D02*
X152424000Y-87011000D01*
X150344000Y-87011000D02*
X149319000Y-87011000D01*
X153419000Y-87051000D02*
X152424000Y-87051000D01*
X150344000Y-87051000D02*
X149349000Y-87051000D01*
X153387000Y-87091000D02*
X152424000Y-87091000D01*
X150344000Y-87091000D02*
X149381000Y-87091000D01*
X153354000Y-87131000D02*
X152424000Y-87131000D01*
X150344000Y-87131000D02*
X149414000Y-87131000D01*
X153320000Y-87171000D02*
X152424000Y-87171000D01*
X150344000Y-87171000D02*
X149448000Y-87171000D01*
X153285000Y-87211000D02*
X152424000Y-87211000D01*
X150344000Y-87211000D02*
X149483000Y-87211000D01*
X153248000Y-87251000D02*
X152424000Y-87251000D01*
X150344000Y-87251000D02*
X149520000Y-87251000D01*
X153209000Y-87291000D02*
X152424000Y-87291000D01*
X150344000Y-87291000D02*
X149559000Y-87291000D01*
X153169000Y-87331000D02*
X152424000Y-87331000D01*
X150344000Y-87331000D02*
X149599000Y-87331000D01*
X153127000Y-87371000D02*
X152424000Y-87371000D01*
X150344000Y-87371000D02*
X149641000Y-87371000D01*
X153083000Y-87411000D02*
X152424000Y-87411000D01*
X150344000Y-87411000D02*
X149685000Y-87411000D01*
X153036000Y-87451000D02*
X152424000Y-87451000D01*
X150344000Y-87451000D02*
X149732000Y-87451000D01*
X152988000Y-87491000D02*
X152424000Y-87491000D01*
X150344000Y-87491000D02*
X149780000Y-87491000D01*
X152937000Y-87531000D02*
X152424000Y-87531000D01*
X150344000Y-87531000D02*
X149831000Y-87531000D01*
X152883000Y-87571000D02*
X152424000Y-87571000D01*
X150344000Y-87571000D02*
X149885000Y-87571000D01*
X152827000Y-87611000D02*
X152424000Y-87611000D01*
X150344000Y-87611000D02*
X149941000Y-87611000D01*
X152767000Y-87651000D02*
X152424000Y-87651000D01*
X150344000Y-87651000D02*
X150001000Y-87651000D01*
X152703000Y-87691000D02*
X152424000Y-87691000D01*
X150344000Y-87691000D02*
X150065000Y-87691000D01*
X152635000Y-87731000D02*
X152424000Y-87731000D01*
X150344000Y-87731000D02*
X150133000Y-87731000D01*
X152561000Y-87771000D02*
X150207000Y-87771000D01*
X152482000Y-87811000D02*
X150286000Y-87811000D01*
X152395000Y-87851000D02*
X150373000Y-87851000D01*
X152298000Y-87891000D02*
X150470000Y-87891000D01*
X152189000Y-87931000D02*
X150579000Y-87931000D01*
X152061000Y-87971000D02*
X150707000Y-87971000D01*
X151901000Y-88011000D02*
X150867000Y-88011000D01*
X151667000Y-88051000D02*
X151101000Y-88051000D01*
X154004000Y-85451000D02*
G75*
G02*
X148764000Y-85451000I-2620000J0D01*
G01*
X148764000Y-85451000D02*
G75*
G02*
X154004000Y-85451000I2620000J0D01*
G01*
%TO.C,R1*%
X145515000Y-84862936D02*
X145515000Y-85317064D01*
X144045000Y-84862936D02*
X144045000Y-85317064D01*
%TO.C,J3*%
X138430000Y-82610000D02*
X148650000Y-82610000D01*
X138430000Y-82610000D02*
X138430000Y-79950000D01*
X148650000Y-82610000D02*
X148650000Y-79950000D01*
X135830000Y-81280000D02*
X135830000Y-79950000D01*
X135830000Y-79950000D02*
X137160000Y-79950000D01*
X138430000Y-79950000D02*
X148650000Y-79950000D01*
%TO.C,J1*%
X112070000Y-73780000D02*
X127070000Y-73780000D01*
X112070000Y-88780000D02*
X112070000Y-73780000D01*
X112270000Y-81280000D02*
X113270000Y-80280000D01*
X112270000Y-81280000D02*
X113270000Y-82280000D01*
X127070000Y-73780000D02*
X127070000Y-88780000D01*
X127070000Y-88780000D02*
X112070000Y-88780000D01*
%TO.C,C1*%
X130167748Y-80545000D02*
X130690252Y-80545000D01*
X130167748Y-82015000D02*
X130690252Y-82015000D01*
%TO.C,C2*%
X156329748Y-80545000D02*
X156852252Y-80545000D01*
X156329748Y-82015000D02*
X156852252Y-82015000D01*
%TO.C,J2*%
X159950000Y-73780000D02*
X174950000Y-73780000D01*
X159950000Y-88780000D02*
X159950000Y-73780000D01*
X174750000Y-81280000D02*
X173750000Y-80280000D01*
X174750000Y-81280000D02*
X173750000Y-82280000D01*
X174950000Y-73780000D02*
X174950000Y-88780000D01*
X174950000Y-88780000D02*
X159950000Y-88780000D01*
%TO.C,J4*%
X140860000Y-87520000D02*
X140860000Y-90280000D01*
X143510000Y-87520000D02*
X140860000Y-87520000D01*
X143510000Y-87520000D02*
X143510000Y-90280000D01*
X143510000Y-90280000D02*
X140860000Y-90280000D01*
X144780000Y-87520000D02*
X146160000Y-87520000D01*
X146160000Y-87520000D02*
X146160000Y-88900000D01*
%TO.C,C3*%
X141470748Y-83593000D02*
X141993252Y-83593000D01*
X141470748Y-85063000D02*
X141993252Y-85063000D01*
%TD*%
M02*
