%TF.GenerationSoftware,KiCad,Pcbnew,9.0.3*%
%TF.CreationDate,2025-07-24T19:31:40+02:00*%
%TF.ProjectId,OM345-MMIC,4f4d3334-352d-44d4-9d49-432e6b696361,rev?*%
%TF.SameCoordinates,Original*%
%TF.FileFunction,Copper,L2,Bot*%
%TF.FilePolarity,Positive*%
%FSLAX46Y46*%
G04 Gerber Fmt 4.6, Leading zero omitted, Abs format (unit mm)*
G04 Created by KiCad (PCBNEW 9.0.3) date 2025-07-24 19:31:40*
%MOMM*%
%LPD*%
G01*
G04 APERTURE LIST*
%TA.AperFunction,ComponentPad*%
%ADD10C,1.700000*%
%TD*%
%TA.AperFunction,ComponentPad*%
%ADD11R,1.700000X1.700000*%
%TD*%
%TA.AperFunction,ViaPad*%
%ADD12C,0.600000*%
%TD*%
G04 APERTURE END LIST*
D10*
%TO.P,J1,5,Pin_5*%
%TO.N,Net-(IC1-RF-OUT_AND_DC-IN)*%
X139237000Y-86360000D03*
%TO.P,J1,4,Pin_4*%
%TO.N,Net-(J1-Pin_4)*%
X136697000Y-86360000D03*
%TO.P,J1,3,Pin_3*%
%TO.N,GND*%
X134157000Y-86360000D03*
%TO.P,J1,2,Pin_2*%
X131617000Y-86360000D03*
D11*
%TO.P,J1,1,Pin_1*%
%TO.N,Net-(IC1-RF_IN)*%
X129077000Y-86360000D03*
%TD*%
D12*
%TO.N,GND*%
X138557000Y-83820000D03*
X131318000Y-83820000D03*
X131318000Y-77216000D03*
X130429000Y-83312000D03*
X130429000Y-82550000D03*
X130429000Y-81788000D03*
X134598500Y-83566000D03*
X132207000Y-83312000D03*
X132207000Y-81788000D03*
X132207000Y-82550000D03*
X132207000Y-79121000D03*
X132207000Y-78359000D03*
X132207000Y-77597000D03*
X130429000Y-77597000D03*
X130429000Y-78359000D03*
X130429000Y-79121000D03*
%TD*%
%TA.AperFunction,Conductor*%
%TO.N,GND*%
G36*
X140539539Y-76974185D02*
G01*
X140585294Y-77026989D01*
X140596500Y-77078500D01*
X140596500Y-85551950D01*
X140576815Y-85618989D01*
X140524011Y-85664744D01*
X140454853Y-85674688D01*
X140391297Y-85645663D01*
X140372182Y-85624835D01*
X140267109Y-85480214D01*
X140267105Y-85480209D01*
X140116786Y-85329890D01*
X139944820Y-85204951D01*
X139755414Y-85108444D01*
X139755413Y-85108443D01*
X139755412Y-85108443D01*
X139553243Y-85042754D01*
X139553241Y-85042753D01*
X139553240Y-85042753D01*
X139391957Y-85017208D01*
X139343287Y-85009500D01*
X139130713Y-85009500D01*
X139082042Y-85017208D01*
X138920760Y-85042753D01*
X138718585Y-85108444D01*
X138529179Y-85204951D01*
X138357213Y-85329890D01*
X138206890Y-85480213D01*
X138081949Y-85652182D01*
X138077484Y-85660946D01*
X138029509Y-85711742D01*
X137961688Y-85728536D01*
X137895553Y-85705998D01*
X137856516Y-85660946D01*
X137852050Y-85652182D01*
X137727109Y-85480213D01*
X137576786Y-85329890D01*
X137404820Y-85204951D01*
X137215414Y-85108444D01*
X137215413Y-85108443D01*
X137215412Y-85108443D01*
X137013243Y-85042754D01*
X137013241Y-85042753D01*
X137013240Y-85042753D01*
X136851957Y-85017208D01*
X136803287Y-85009500D01*
X136590713Y-85009500D01*
X136542042Y-85017208D01*
X136380760Y-85042753D01*
X136178585Y-85108444D01*
X135989179Y-85204951D01*
X135817213Y-85329890D01*
X135666890Y-85480213D01*
X135541951Y-85652179D01*
X135445444Y-85841585D01*
X135379753Y-86043760D01*
X135346500Y-86253713D01*
X135346500Y-86466286D01*
X135379753Y-86676239D01*
X135445444Y-86878414D01*
X135541951Y-87067820D01*
X135666890Y-87239786D01*
X135817209Y-87390105D01*
X135817214Y-87390109D01*
X135848971Y-87413182D01*
X135891637Y-87468511D01*
X135897616Y-87538125D01*
X135865011Y-87599920D01*
X135804172Y-87634277D01*
X135776086Y-87637500D01*
X130478677Y-87637500D01*
X130411638Y-87617815D01*
X130365883Y-87565011D01*
X130355939Y-87495853D01*
X130369847Y-87454070D01*
X130370795Y-87452332D01*
X130370794Y-87452332D01*
X130370796Y-87452331D01*
X130421091Y-87317483D01*
X130427500Y-87257873D01*
X130427499Y-85462128D01*
X130421091Y-85402517D01*
X130370796Y-85267669D01*
X130370795Y-85267668D01*
X130370793Y-85267664D01*
X130284547Y-85152455D01*
X130284544Y-85152452D01*
X130169335Y-85066206D01*
X130169328Y-85066202D01*
X130034482Y-85015908D01*
X130034483Y-85015908D01*
X129974883Y-85009501D01*
X129974881Y-85009500D01*
X129974873Y-85009500D01*
X129974864Y-85009500D01*
X128179129Y-85009500D01*
X128179123Y-85009501D01*
X128119516Y-85015908D01*
X127984671Y-85066202D01*
X127984669Y-85066203D01*
X127952811Y-85090053D01*
X127887347Y-85114470D01*
X127819074Y-85099619D01*
X127769668Y-85050214D01*
X127754500Y-84990786D01*
X127754500Y-77078500D01*
X127774185Y-77011461D01*
X127826989Y-76965706D01*
X127878500Y-76954500D01*
X140472500Y-76954500D01*
X140539539Y-76974185D01*
G37*
%TD.AperFunction*%
%TD*%
M02*
