%TF.GenerationSoftware,KiCad,Pcbnew,9.0.3*%
%TF.CreationDate,2025-07-24T19:31:40+02:00*%
%TF.ProjectId,OM345-MMIC,4f4d3334-352d-44d4-9d49-432e6b696361,rev?*%
%TF.SameCoordinates,Original*%
%TF.FileFunction,Legend,Top*%
%TF.FilePolarity,Positive*%
%FSLAX46Y46*%
G04 Gerber Fmt 4.6, Leading zero omitted, Abs format (unit mm)*
G04 Created by KiCad (PCBNEW 9.0.3) date 2025-07-24 19:31:40*
%MOMM*%
%LPD*%
G01*
G04 APERTURE LIST*
%ADD10C,0.254000*%
%ADD11C,0.150000*%
%ADD12C,0.200000*%
%ADD13C,0.120000*%
G04 APERTURE END LIST*
D10*
X127792237Y-78806318D02*
X127792237Y-77536318D01*
X129122714Y-78685365D02*
X129062238Y-78745842D01*
X129062238Y-78745842D02*
X128880809Y-78806318D01*
X128880809Y-78806318D02*
X128759857Y-78806318D01*
X128759857Y-78806318D02*
X128578428Y-78745842D01*
X128578428Y-78745842D02*
X128457476Y-78624889D01*
X128457476Y-78624889D02*
X128396999Y-78503937D01*
X128396999Y-78503937D02*
X128336523Y-78262032D01*
X128336523Y-78262032D02*
X128336523Y-78080603D01*
X128336523Y-78080603D02*
X128396999Y-77838699D01*
X128396999Y-77838699D02*
X128457476Y-77717746D01*
X128457476Y-77717746D02*
X128578428Y-77596794D01*
X128578428Y-77596794D02*
X128759857Y-77536318D01*
X128759857Y-77536318D02*
X128880809Y-77536318D01*
X128880809Y-77536318D02*
X129062238Y-77596794D01*
X129062238Y-77596794D02*
X129122714Y-77657270D01*
X130332238Y-78806318D02*
X129606523Y-78806318D01*
X129969380Y-78806318D02*
X129969380Y-77536318D01*
X129969380Y-77536318D02*
X129848428Y-77717746D01*
X129848428Y-77717746D02*
X129727476Y-77838699D01*
X129727476Y-77838699D02*
X129606523Y-77899175D01*
D11*
X133691333Y-82401580D02*
X133643714Y-82449200D01*
X133643714Y-82449200D02*
X133500857Y-82496819D01*
X133500857Y-82496819D02*
X133405619Y-82496819D01*
X133405619Y-82496819D02*
X133262762Y-82449200D01*
X133262762Y-82449200D02*
X133167524Y-82353961D01*
X133167524Y-82353961D02*
X133119905Y-82258723D01*
X133119905Y-82258723D02*
X133072286Y-82068247D01*
X133072286Y-82068247D02*
X133072286Y-81925390D01*
X133072286Y-81925390D02*
X133119905Y-81734914D01*
X133119905Y-81734914D02*
X133167524Y-81639676D01*
X133167524Y-81639676D02*
X133262762Y-81544438D01*
X133262762Y-81544438D02*
X133405619Y-81496819D01*
X133405619Y-81496819D02*
X133500857Y-81496819D01*
X133500857Y-81496819D02*
X133643714Y-81544438D01*
X133643714Y-81544438D02*
X133691333Y-81592057D01*
X134643714Y-82496819D02*
X134072286Y-82496819D01*
X134358000Y-82496819D02*
X134358000Y-81496819D01*
X134358000Y-81496819D02*
X134262762Y-81639676D01*
X134262762Y-81639676D02*
X134167524Y-81734914D01*
X134167524Y-81734914D02*
X134072286Y-81782533D01*
X138390333Y-83385819D02*
X138057000Y-82909628D01*
X137818905Y-83385819D02*
X137818905Y-82385819D01*
X137818905Y-82385819D02*
X138199857Y-82385819D01*
X138199857Y-82385819D02*
X138295095Y-82433438D01*
X138295095Y-82433438D02*
X138342714Y-82481057D01*
X138342714Y-82481057D02*
X138390333Y-82576295D01*
X138390333Y-82576295D02*
X138390333Y-82719152D01*
X138390333Y-82719152D02*
X138342714Y-82814390D01*
X138342714Y-82814390D02*
X138295095Y-82862009D01*
X138295095Y-82862009D02*
X138199857Y-82909628D01*
X138199857Y-82909628D02*
X137818905Y-82909628D01*
X139342714Y-83385819D02*
X138771286Y-83385819D01*
X139057000Y-83385819D02*
X139057000Y-82385819D01*
X139057000Y-82385819D02*
X138961762Y-82528676D01*
X138961762Y-82528676D02*
X138866524Y-82623914D01*
X138866524Y-82623914D02*
X138771286Y-82671533D01*
X136953714Y-78083580D02*
X136906095Y-78131200D01*
X136906095Y-78131200D02*
X136763238Y-78178819D01*
X136763238Y-78178819D02*
X136668000Y-78178819D01*
X136668000Y-78178819D02*
X136525143Y-78131200D01*
X136525143Y-78131200D02*
X136429905Y-78035961D01*
X136429905Y-78035961D02*
X136382286Y-77940723D01*
X136382286Y-77940723D02*
X136334667Y-77750247D01*
X136334667Y-77750247D02*
X136334667Y-77607390D01*
X136334667Y-77607390D02*
X136382286Y-77416914D01*
X136382286Y-77416914D02*
X136429905Y-77321676D01*
X136429905Y-77321676D02*
X136525143Y-77226438D01*
X136525143Y-77226438D02*
X136668000Y-77178819D01*
X136668000Y-77178819D02*
X136763238Y-77178819D01*
X136763238Y-77178819D02*
X136906095Y-77226438D01*
X136906095Y-77226438D02*
X136953714Y-77274057D01*
X137382286Y-78178819D02*
X137382286Y-77178819D01*
X137382286Y-77655009D02*
X137953714Y-77655009D01*
X137953714Y-78178819D02*
X137953714Y-77178819D01*
X138429905Y-78178819D02*
X138429905Y-77178819D01*
X139001333Y-78178819D02*
X138572762Y-77607390D01*
X139001333Y-77178819D02*
X138429905Y-77750247D01*
D12*
%TO.C,IC1*%
X129280000Y-79318000D02*
G75*
G02*
X129280000Y-79218000I0J50000D01*
G01*
X129280000Y-79318000D02*
G75*
G02*
X129280000Y-79218000I0J50000D01*
G01*
X129280000Y-79218000D02*
G75*
G02*
X129280000Y-79318000I0J-50000D01*
G01*
X129280000Y-79318000D02*
X129280000Y-79318000D01*
X129280000Y-79218000D02*
X129280000Y-79218000D01*
X129280000Y-79218000D02*
X129280000Y-79218000D01*
D13*
%TO.C,C1*%
X135374748Y-84301000D02*
X135897252Y-84301000D01*
X135374748Y-82831000D02*
X135897252Y-82831000D01*
%TO.C,R1*%
X137440936Y-80545000D02*
X137895064Y-80545000D01*
X137440936Y-82015000D02*
X137895064Y-82015000D01*
%TO.C,J1*%
X130347000Y-84980000D02*
X140617000Y-84980000D01*
X140617000Y-87740000D02*
X140617000Y-84980000D01*
X130347000Y-87740000D02*
X130347000Y-84980000D01*
X130347000Y-87740000D02*
X140617000Y-87740000D01*
X129077000Y-87740000D02*
X127697000Y-87740000D01*
X127697000Y-87740000D02*
X127697000Y-86360000D01*
%TO.C,CHK*%
X137929252Y-78538000D02*
X137406748Y-78538000D01*
X137929252Y-79958000D02*
X137406748Y-79958000D01*
%TD*%
M02*
