M48
; DRILL file {KiCad 9.0.3} date 2025-07-24T19:31:38+0200
; FORMAT={-:-/ absolute / inch / decimal}
; #@! TF.CreationDate,2025-07-24T19:31:38+02:00
; #@! TF.GenerationSoftware,Kicad,Pcbnew,9.0.3
; #@! TF.FileFunction,Plated,1,2,PTH
FMAT,2
INCH
; #@! TA.AperFunction,Plated,PTH,ViaDrill
T1C0.0118
; #@! TA.AperFunction,Plated,PTH,ComponentDrill
T2C0.0394
%
G90
G05
T1
X5.135Y-3.055
X5.135Y-3.085
X5.135Y-3.115
X5.135Y-3.22
X5.135Y-3.25
X5.135Y-3.28
X5.17Y-3.04
X5.17Y-3.3
X5.205Y-3.055
X5.205Y-3.085
X5.205Y-3.115
X5.205Y-3.22
X5.205Y-3.25
X5.205Y-3.28
X5.2992Y-3.29
X5.455Y-3.3
T2
X5.0818Y-3.4
X5.1818Y-3.4
X5.2818Y-3.4
X5.3818Y-3.4
X5.4818Y-3.4
M30
