%TF.GenerationSoftware,KiCad,Pcbnew,9.0.3*%
%TF.CreationDate,2025-07-24T19:31:40+02:00*%
%TF.ProjectId,OM345-MMIC,4f4d3334-352d-44d4-9d49-432e6b696361,rev?*%
%TF.SameCoordinates,Original*%
%TF.FileFunction,Copper,L1,Top*%
%TF.FilePolarity,Positive*%
%FSLAX46Y46*%
G04 Gerber Fmt 4.6, Leading zero omitted, Abs format (unit mm)*
G04 Created by KiCad (PCBNEW 9.0.3) date 2025-07-24 19:31:40*
%MOMM*%
%LPD*%
G01*
G04 APERTURE LIST*
G04 Aperture macros list*
%AMRoundRect*
0 Rectangle with rounded corners*
0 $1 Rounding radius*
0 $2 $3 $4 $5 $6 $7 $8 $9 X,Y pos of 4 corners*
0 Add a 4 corners polygon primitive as box body*
4,1,4,$2,$3,$4,$5,$6,$7,$8,$9,$2,$3,0*
0 Add four circle primitives for the rounded corners*
1,1,$1+$1,$2,$3*
1,1,$1+$1,$4,$5*
1,1,$1+$1,$6,$7*
1,1,$1+$1,$8,$9*
0 Add four rect primitives between the rounded corners*
20,1,$1+$1,$2,$3,$4,$5,0*
20,1,$1+$1,$4,$5,$6,$7,0*
20,1,$1+$1,$6,$7,$8,$9,0*
20,1,$1+$1,$8,$9,$2,$3,0*%
G04 Aperture macros list end*
%TA.AperFunction,SMDPad,CuDef*%
%ADD10R,1.020000X1.830000*%
%TD*%
%TA.AperFunction,SMDPad,CuDef*%
%ADD11R,1.830000X1.020000*%
%TD*%
%TA.AperFunction,SMDPad,CuDef*%
%ADD12RoundRect,0.250000X-0.337500X-0.475000X0.337500X-0.475000X0.337500X0.475000X-0.337500X0.475000X0*%
%TD*%
%TA.AperFunction,SMDPad,CuDef*%
%ADD13RoundRect,0.250000X-0.350000X-0.450000X0.350000X-0.450000X0.350000X0.450000X-0.350000X0.450000X0*%
%TD*%
%TA.AperFunction,ComponentPad*%
%ADD14C,1.700000*%
%TD*%
%TA.AperFunction,ComponentPad*%
%ADD15R,1.700000X1.700000*%
%TD*%
%TA.AperFunction,SMDPad,CuDef*%
%ADD16RoundRect,0.250000X0.325000X0.450000X-0.325000X0.450000X-0.325000X-0.450000X0.325000X-0.450000X0*%
%TD*%
%TA.AperFunction,ViaPad*%
%ADD17C,0.600000*%
%TD*%
%TA.AperFunction,Conductor*%
%ADD18C,1.270000*%
%TD*%
%TA.AperFunction,Conductor*%
%ADD19C,1.016000*%
%TD*%
%TA.AperFunction,Conductor*%
%ADD20C,1.143000*%
%TD*%
G04 APERTURE END LIST*
D10*
%TO.P,IC1,4,GND_2*%
%TO.N,GND*%
X131280000Y-78448000D03*
D11*
%TO.P,IC1,3,RF-OUT_AND_DC-IN*%
%TO.N,Net-(IC1-RF-OUT_AND_DC-IN)*%
X133350000Y-80518000D03*
D10*
%TO.P,IC1,2,GND_1*%
%TO.N,GND*%
X131280000Y-82588000D03*
D11*
%TO.P,IC1,1,RF_IN*%
%TO.N,Net-(IC1-RF_IN)*%
X129210000Y-80518000D03*
%TD*%
D12*
%TO.P,C1,2*%
%TO.N,Net-(J1-Pin_4)*%
X136673500Y-83566000D03*
%TO.P,C1,1*%
%TO.N,GND*%
X134598500Y-83566000D03*
%TD*%
D13*
%TO.P,R1,1*%
%TO.N,Net-(J1-Pin_4)*%
X136668000Y-81280000D03*
%TO.P,R1,2*%
%TO.N,Net-(FB1-Pad1)*%
X138668000Y-81280000D03*
%TD*%
D14*
%TO.P,J1,5,Pin_5*%
%TO.N,Net-(IC1-RF-OUT_AND_DC-IN)*%
X139237000Y-86360000D03*
%TO.P,J1,4,Pin_4*%
%TO.N,Net-(J1-Pin_4)*%
X136697000Y-86360000D03*
%TO.P,J1,3,Pin_3*%
%TO.N,GND*%
X134157000Y-86360000D03*
%TO.P,J1,2,Pin_2*%
X131617000Y-86360000D03*
D15*
%TO.P,J1,1,Pin_1*%
%TO.N,Net-(IC1-RF_IN)*%
X129077000Y-86360000D03*
%TD*%
D16*
%TO.P,CHK,2*%
%TO.N,Net-(IC1-RF-OUT_AND_DC-IN)*%
X136643000Y-79248000D03*
%TO.P,CHK,1*%
%TO.N,Net-(FB1-Pad1)*%
X138693000Y-79248000D03*
%TD*%
D17*
%TO.N,GND*%
X138557000Y-83820000D03*
X131318000Y-83820000D03*
X131318000Y-77216000D03*
X130429000Y-83312000D03*
X130429000Y-82550000D03*
X130429000Y-81788000D03*
X134598500Y-83566000D03*
X132207000Y-83312000D03*
X132207000Y-81788000D03*
X132207000Y-82550000D03*
X132207000Y-79121000D03*
X132207000Y-78359000D03*
X132207000Y-77597000D03*
X130429000Y-77597000D03*
X130429000Y-78359000D03*
X130429000Y-79121000D03*
%TD*%
D18*
%TO.N,Net-(IC1-RF_IN)*%
X129077000Y-86360000D02*
X129077000Y-80651000D01*
D19*
X129077000Y-80651000D02*
X129210000Y-80518000D01*
%TO.N,Net-(J1-Pin_4)*%
X136673500Y-83566000D02*
X136673500Y-86336500D01*
X136673500Y-86336500D02*
X136697000Y-86360000D01*
X136668000Y-81280000D02*
X136668000Y-83560500D01*
X136668000Y-83560500D02*
X136673500Y-83566000D01*
%TO.N,Net-(FB1-Pad1)*%
X138693000Y-79248000D02*
X138693000Y-81255000D01*
X138693000Y-81255000D02*
X138668000Y-81280000D01*
%TO.N,Net-(IC1-RF-OUT_AND_DC-IN)*%
X136643000Y-79248000D02*
X136643000Y-78903870D01*
D20*
X136643000Y-78903870D02*
X137888870Y-77658000D01*
X140158000Y-85439000D02*
X139237000Y-86360000D01*
X137888870Y-77658000D02*
X139497130Y-77658000D01*
X139497130Y-77658000D02*
X140158000Y-78318870D01*
X140158000Y-78318870D02*
X140158000Y-85439000D01*
D18*
X133350000Y-80518000D02*
X134620000Y-79248000D01*
X134620000Y-79248000D02*
X136643000Y-79248000D01*
%TD*%
%TA.AperFunction,Conductor*%
%TO.N,GND*%
G36*
X136844010Y-76974185D02*
G01*
X136889765Y-77026989D01*
X136899709Y-77096147D01*
X136870684Y-77159703D01*
X136864652Y-77166181D01*
X135954652Y-78076181D01*
X135893329Y-78109666D01*
X135866971Y-78112500D01*
X134530634Y-78112500D01*
X134471790Y-78121820D01*
X134354101Y-78140460D01*
X134354098Y-78140460D01*
X134184121Y-78195689D01*
X134184118Y-78195690D01*
X134024866Y-78276834D01*
X133941116Y-78337681D01*
X133941115Y-78337680D01*
X133880279Y-78381881D01*
X133880271Y-78381888D01*
X132790977Y-79471181D01*
X132729654Y-79504666D01*
X132703296Y-79507500D01*
X132387130Y-79507500D01*
X132387123Y-79507501D01*
X132327516Y-79513908D01*
X132192671Y-79564202D01*
X132192664Y-79564206D01*
X132077455Y-79650452D01*
X132077452Y-79650455D01*
X131991206Y-79765664D01*
X131991202Y-79765671D01*
X131940908Y-79900517D01*
X131934501Y-79960116D01*
X131934501Y-79960123D01*
X131934500Y-79960135D01*
X131934500Y-81075870D01*
X131934501Y-81075876D01*
X131940908Y-81135483D01*
X131991202Y-81270328D01*
X131991206Y-81270335D01*
X132077452Y-81385544D01*
X132077455Y-81385547D01*
X132192664Y-81471793D01*
X132192671Y-81471797D01*
X132192674Y-81471798D01*
X132327517Y-81522091D01*
X132387127Y-81528500D01*
X132802294Y-81528499D01*
X132858588Y-81542014D01*
X132914120Y-81570309D01*
X133084103Y-81625541D01*
X133182175Y-81641073D01*
X133260630Y-81653500D01*
X133260634Y-81653500D01*
X133439370Y-81653500D01*
X133509978Y-81642316D01*
X133615897Y-81625541D01*
X133785880Y-81570309D01*
X133841412Y-81542014D01*
X133897706Y-81528499D01*
X134312871Y-81528499D01*
X134312872Y-81528499D01*
X134372483Y-81522091D01*
X134507331Y-81471796D01*
X134622546Y-81385546D01*
X134708796Y-81270331D01*
X134759091Y-81135483D01*
X134765500Y-81075873D01*
X134765499Y-80759701D01*
X134785183Y-80692663D01*
X134801818Y-80672020D01*
X135054022Y-80419818D01*
X135115345Y-80386334D01*
X135141703Y-80383500D01*
X135503605Y-80383500D01*
X135570644Y-80403185D01*
X135616399Y-80455989D01*
X135626343Y-80525147D01*
X135621312Y-80546498D01*
X135578001Y-80677203D01*
X135578001Y-80677204D01*
X135578000Y-80677204D01*
X135567500Y-80779983D01*
X135567500Y-81750247D01*
X135567424Y-81754582D01*
X135566149Y-81791002D01*
X135634893Y-82426138D01*
X135635132Y-82450395D01*
X135583009Y-83040305D01*
X135581065Y-83089097D01*
X135581084Y-83091342D01*
X135584750Y-83124521D01*
X135585500Y-83138137D01*
X135585500Y-84047487D01*
X135585356Y-84053453D01*
X135583354Y-84095010D01*
X135583354Y-84095023D01*
X135640544Y-84697498D01*
X135638713Y-84733426D01*
X135369839Y-86084035D01*
X135362157Y-86137307D01*
X135362156Y-86137328D01*
X135362162Y-86137426D01*
X135362090Y-86138797D01*
X135361883Y-86143389D01*
X135361850Y-86143387D01*
X135360809Y-86163361D01*
X135346500Y-86253712D01*
X135346500Y-86253713D01*
X135346500Y-86466287D01*
X135379754Y-86676243D01*
X135411237Y-86773138D01*
X135445444Y-86878414D01*
X135541951Y-87067820D01*
X135666890Y-87239786D01*
X135817209Y-87390105D01*
X135817214Y-87390109D01*
X135848971Y-87413182D01*
X135891637Y-87468511D01*
X135897616Y-87538125D01*
X135865011Y-87599920D01*
X135804172Y-87634277D01*
X135776086Y-87637500D01*
X130478677Y-87637500D01*
X130411638Y-87617815D01*
X130365883Y-87565011D01*
X130355939Y-87495853D01*
X130369847Y-87454070D01*
X130370795Y-87452332D01*
X130370794Y-87452332D01*
X130370796Y-87452331D01*
X130421091Y-87317483D01*
X130427500Y-87257873D01*
X130427499Y-85555521D01*
X130430509Y-85522692D01*
X130427499Y-85494116D01*
X130427499Y-85462128D01*
X130421091Y-85402517D01*
X130421090Y-85402515D01*
X130421090Y-85402512D01*
X130419522Y-85395874D01*
X130416111Y-85383389D01*
X130415438Y-85379615D01*
X130415437Y-85379603D01*
X130248926Y-84721301D01*
X130216286Y-84592258D01*
X130212500Y-84561851D01*
X130212500Y-81615639D01*
X130232185Y-81548600D01*
X130284989Y-81502845D01*
X130293168Y-81499457D01*
X130367326Y-81471798D01*
X130367326Y-81471797D01*
X130367331Y-81471796D01*
X130482546Y-81385546D01*
X130568796Y-81270331D01*
X130619091Y-81135483D01*
X130625500Y-81075873D01*
X130625499Y-79960128D01*
X130619091Y-79900517D01*
X130568796Y-79765669D01*
X130568795Y-79765668D01*
X130568793Y-79765664D01*
X130482547Y-79650455D01*
X130482544Y-79650452D01*
X130367335Y-79564206D01*
X130367328Y-79564202D01*
X130232482Y-79513908D01*
X130232483Y-79513908D01*
X130172883Y-79507501D01*
X130172881Y-79507500D01*
X130172873Y-79507500D01*
X130172864Y-79507500D01*
X128247129Y-79507500D01*
X128247123Y-79507501D01*
X128187516Y-79513908D01*
X128052671Y-79564202D01*
X128052669Y-79564203D01*
X127952811Y-79638958D01*
X127887347Y-79663375D01*
X127819074Y-79648524D01*
X127769668Y-79599119D01*
X127754500Y-79539691D01*
X127754500Y-77078500D01*
X127774185Y-77011461D01*
X127826989Y-76965706D01*
X127878500Y-76954500D01*
X136776971Y-76954500D01*
X136844010Y-76974185D01*
G37*
%TD.AperFunction*%
%TA.AperFunction,Conductor*%
G36*
X137894042Y-82350282D02*
G01*
X137998666Y-82414814D01*
X138165203Y-82469999D01*
X138267991Y-82480500D01*
X138962000Y-82480499D01*
X139029039Y-82500183D01*
X139074794Y-82552987D01*
X139086000Y-82604499D01*
X139086000Y-84732947D01*
X139066315Y-84799986D01*
X139034758Y-84833358D01*
X138477266Y-85237314D01*
X138442493Y-85264920D01*
X138438315Y-85268926D01*
X138437948Y-85268544D01*
X138423933Y-85281416D01*
X138357208Y-85329895D01*
X138206894Y-85480209D01*
X138206890Y-85480214D01*
X138122605Y-85596223D01*
X138067275Y-85638889D01*
X137997662Y-85644868D01*
X137935867Y-85612262D01*
X137901510Y-85551424D01*
X137901482Y-85551307D01*
X137710545Y-84721297D01*
X137707945Y-84681788D01*
X137763645Y-84095016D01*
X137765900Y-84044638D01*
X137765888Y-84042312D01*
X137762226Y-84008665D01*
X137761499Y-83995251D01*
X137761499Y-83040994D01*
X137761338Y-83037831D01*
X137761611Y-83037817D01*
X137761252Y-83025826D01*
X137761324Y-83024155D01*
X137705567Y-82468195D01*
X137718463Y-82399527D01*
X137766438Y-82348731D01*
X137834259Y-82331936D01*
X137894042Y-82350282D01*
G37*
%TD.AperFunction*%
%TD*%
%TA.AperFunction,Conductor*%
%TO.N,Net-(IC1-RF_IN)*%
G36*
X129711164Y-84663427D02*
G01*
X129714234Y-84668831D01*
X129925371Y-85503561D01*
X129924077Y-85512422D01*
X129922306Y-85514698D01*
X129085278Y-86352712D01*
X129077007Y-86356144D01*
X129068732Y-86352722D01*
X129068722Y-86352712D01*
X128231693Y-85514698D01*
X128228271Y-85506423D01*
X128228627Y-85503566D01*
X128439766Y-84668830D01*
X128445117Y-84661651D01*
X128451109Y-84660000D01*
X129702891Y-84660000D01*
X129711164Y-84663427D01*
G37*
%TD.AperFunction*%
%TD*%
%TA.AperFunction,Conductor*%
%TO.N,Net-(J1-Pin_4)*%
G36*
X137180459Y-84679760D02*
G01*
X137183588Y-84685410D01*
X137527967Y-86182439D01*
X137526482Y-86191270D01*
X137519188Y-86196464D01*
X137518861Y-86196535D01*
X136699296Y-86360540D01*
X136694704Y-86360540D01*
X135874794Y-86196466D01*
X135867354Y-86191482D01*
X135865615Y-86182709D01*
X136163625Y-84685749D01*
X136168601Y-84678304D01*
X136175100Y-84676333D01*
X137172186Y-84676333D01*
X137180459Y-84679760D01*
G37*
%TD.AperFunction*%
%TD*%
%TA.AperFunction,Conductor*%
%TO.N,Net-(J1-Pin_4)*%
G36*
X136680865Y-83570967D02*
G01*
X137256124Y-84037049D01*
X137260395Y-84044920D01*
X137260407Y-84047246D01*
X137182506Y-84867906D01*
X137178312Y-84875818D01*
X137170858Y-84878500D01*
X136176142Y-84878500D01*
X136167869Y-84875073D01*
X136164494Y-84867906D01*
X136086592Y-84047243D01*
X136089222Y-84038686D01*
X136090868Y-84037055D01*
X136666135Y-83570966D01*
X136674720Y-83568422D01*
X136680865Y-83570967D01*
G37*
%TD.AperFunction*%
%TD*%
%TA.AperFunction,Conductor*%
%TO.N,Net-(J1-Pin_4)*%
G36*
X136675029Y-81284283D02*
G01*
X137262682Y-81726003D01*
X137267236Y-81733713D01*
X137267284Y-81736614D01*
X137177130Y-82569559D01*
X137172833Y-82577415D01*
X137165498Y-82580000D01*
X136170502Y-82580000D01*
X136162229Y-82576573D01*
X136158870Y-82569559D01*
X136150856Y-82495519D01*
X136068715Y-81736611D01*
X136071232Y-81728020D01*
X136073310Y-81726008D01*
X136660970Y-81284283D01*
X136669642Y-81282053D01*
X136675029Y-81284283D01*
G37*
%TD.AperFunction*%
%TD*%
%TA.AperFunction,Conductor*%
%TO.N,Net-(J1-Pin_4)*%
G36*
X137173687Y-82256927D02*
G01*
X137177056Y-82264032D01*
X137258347Y-83074598D01*
X137255762Y-83083172D01*
X137254180Y-83084767D01*
X136680883Y-83560868D01*
X136672329Y-83563517D01*
X136666043Y-83560958D01*
X136090837Y-83094919D01*
X136086566Y-83087048D01*
X136086547Y-83084808D01*
X136159057Y-82264169D01*
X136163199Y-82256231D01*
X136170712Y-82253500D01*
X137165414Y-82253500D01*
X137173687Y-82256927D01*
G37*
%TD.AperFunction*%
%TD*%
%TA.AperFunction,Conductor*%
%TO.N,Net-(FB1-Pad1)*%
G36*
X138700218Y-79252662D02*
G01*
X139103792Y-79569203D01*
X139263049Y-79694117D01*
X139267443Y-79701919D01*
X139267490Y-79704270D01*
X139201873Y-80512247D01*
X139197787Y-80520216D01*
X139190211Y-80523000D01*
X138195789Y-80523000D01*
X138187516Y-80519573D01*
X138184127Y-80512247D01*
X138118509Y-79704270D01*
X138121255Y-79695747D01*
X138122947Y-79694119D01*
X138685780Y-79252662D01*
X138694404Y-79250254D01*
X138700218Y-79252662D01*
G37*
%TD.AperFunction*%
%TD*%
%TA.AperFunction,Conductor*%
%TO.N,Net-(FB1-Pad1)*%
G36*
X139198459Y-79983427D02*
G01*
X139201850Y-79990781D01*
X139267494Y-80823590D01*
X139264728Y-80832106D01*
X139262860Y-80833862D01*
X138675453Y-81275397D01*
X138666781Y-81277628D01*
X138660875Y-81274984D01*
X138138435Y-80833862D01*
X138082368Y-80786522D01*
X138078258Y-80778567D01*
X138078320Y-80776037D01*
X138183640Y-79990145D01*
X138188135Y-79982401D01*
X138195236Y-79980000D01*
X139190186Y-79980000D01*
X139198459Y-79983427D01*
G37*
%TD.AperFunction*%
%TD*%
%TA.AperFunction,Conductor*%
%TO.N,Net-(IC1-RF-OUT_AND_DC-IN)*%
G36*
X140593073Y-85061250D02*
G01*
X140596500Y-85069523D01*
X140596500Y-85355693D01*
X140595498Y-85360430D01*
X139949376Y-86819527D01*
X139942893Y-86825704D01*
X139933941Y-86825488D01*
X139932187Y-86824525D01*
X139238942Y-86362295D01*
X139235702Y-86359055D01*
X138771011Y-85662613D01*
X138769270Y-85653830D01*
X138773877Y-85646647D01*
X139570353Y-85069523D01*
X139583428Y-85060049D01*
X139590293Y-85057823D01*
X140584800Y-85057823D01*
X140593073Y-85061250D01*
G37*
%TD.AperFunction*%
%TD*%
M02*
