%TF.GenerationSoftware,KiCad,Pcbnew,9.0.3*%
%TF.CreationDate,2025-07-24T19:31:40+02:00*%
%TF.ProjectId,OM345-MMIC,4f4d3334-352d-44d4-9d49-432e6b696361,rev?*%
%TF.SameCoordinates,Original*%
%TF.FileFunction,Legend,Bot*%
%TF.FilePolarity,Positive*%
%FSLAX46Y46*%
G04 Gerber Fmt 4.6, Leading zero omitted, Abs format (unit mm)*
G04 Created by KiCad (PCBNEW 9.0.3) date 2025-07-24 19:31:40*
%MOMM*%
%LPD*%
G01*
G04 APERTURE LIST*
%ADD10C,0.254000*%
G04 APERTURE END LIST*
D10*
X139185952Y-79066739D02*
X138944047Y-79066739D01*
X138944047Y-79066739D02*
X138823095Y-79127215D01*
X138823095Y-79127215D02*
X138702142Y-79248167D01*
X138702142Y-79248167D02*
X138641666Y-79490072D01*
X138641666Y-79490072D02*
X138641666Y-79913405D01*
X138641666Y-79913405D02*
X138702142Y-80155310D01*
X138702142Y-80155310D02*
X138823095Y-80276263D01*
X138823095Y-80276263D02*
X138944047Y-80336739D01*
X138944047Y-80336739D02*
X139185952Y-80336739D01*
X139185952Y-80336739D02*
X139306904Y-80276263D01*
X139306904Y-80276263D02*
X139427857Y-80155310D01*
X139427857Y-80155310D02*
X139488333Y-79913405D01*
X139488333Y-79913405D02*
X139488333Y-79490072D01*
X139488333Y-79490072D02*
X139427857Y-79248167D01*
X139427857Y-79248167D02*
X139306904Y-79127215D01*
X139306904Y-79127215D02*
X139185952Y-79066739D01*
X138097381Y-80336739D02*
X138097381Y-79066739D01*
X138097381Y-79066739D02*
X137674047Y-79973882D01*
X137674047Y-79973882D02*
X137250714Y-79066739D01*
X137250714Y-79066739D02*
X137250714Y-80336739D01*
X136766904Y-79066739D02*
X135980713Y-79066739D01*
X135980713Y-79066739D02*
X136404047Y-79550548D01*
X136404047Y-79550548D02*
X136222618Y-79550548D01*
X136222618Y-79550548D02*
X136101666Y-79611024D01*
X136101666Y-79611024D02*
X136041190Y-79671501D01*
X136041190Y-79671501D02*
X135980713Y-79792453D01*
X135980713Y-79792453D02*
X135980713Y-80094834D01*
X135980713Y-80094834D02*
X136041190Y-80215786D01*
X136041190Y-80215786D02*
X136101666Y-80276263D01*
X136101666Y-80276263D02*
X136222618Y-80336739D01*
X136222618Y-80336739D02*
X136585475Y-80336739D01*
X136585475Y-80336739D02*
X136706428Y-80276263D01*
X136706428Y-80276263D02*
X136766904Y-80215786D01*
X134892142Y-79490072D02*
X134892142Y-80336739D01*
X135194523Y-79006263D02*
X135496904Y-79913405D01*
X135496904Y-79913405D02*
X134710713Y-79913405D01*
X133622142Y-79066739D02*
X134226904Y-79066739D01*
X134226904Y-79066739D02*
X134287380Y-79671501D01*
X134287380Y-79671501D02*
X134226904Y-79611024D01*
X134226904Y-79611024D02*
X134105951Y-79550548D01*
X134105951Y-79550548D02*
X133803570Y-79550548D01*
X133803570Y-79550548D02*
X133682618Y-79611024D01*
X133682618Y-79611024D02*
X133622142Y-79671501D01*
X133622142Y-79671501D02*
X133561665Y-79792453D01*
X133561665Y-79792453D02*
X133561665Y-80094834D01*
X133561665Y-80094834D02*
X133622142Y-80215786D01*
X133622142Y-80215786D02*
X133682618Y-80276263D01*
X133682618Y-80276263D02*
X133803570Y-80336739D01*
X133803570Y-80336739D02*
X134105951Y-80336739D01*
X134105951Y-80336739D02*
X134226904Y-80276263D01*
X134226904Y-80276263D02*
X134287380Y-80215786D01*
X138611429Y-82381368D02*
X138611429Y-81111368D01*
X138611429Y-81111368D02*
X138188095Y-82018511D01*
X138188095Y-82018511D02*
X137764762Y-81111368D01*
X137764762Y-81111368D02*
X137764762Y-82381368D01*
X137160000Y-82381368D02*
X137160000Y-81111368D01*
X137160000Y-81111368D02*
X136736666Y-82018511D01*
X136736666Y-82018511D02*
X136313333Y-81111368D01*
X136313333Y-81111368D02*
X136313333Y-82381368D01*
X135708571Y-82381368D02*
X135708571Y-81111368D01*
X134378094Y-82260415D02*
X134438570Y-82320892D01*
X134438570Y-82320892D02*
X134619999Y-82381368D01*
X134619999Y-82381368D02*
X134740951Y-82381368D01*
X134740951Y-82381368D02*
X134922380Y-82320892D01*
X134922380Y-82320892D02*
X135043332Y-82199939D01*
X135043332Y-82199939D02*
X135103809Y-82078987D01*
X135103809Y-82078987D02*
X135164285Y-81837082D01*
X135164285Y-81837082D02*
X135164285Y-81655653D01*
X135164285Y-81655653D02*
X135103809Y-81413749D01*
X135103809Y-81413749D02*
X135043332Y-81292796D01*
X135043332Y-81292796D02*
X134922380Y-81171844D01*
X134922380Y-81171844D02*
X134740951Y-81111368D01*
X134740951Y-81111368D02*
X134619999Y-81111368D01*
X134619999Y-81111368D02*
X134438570Y-81171844D01*
X134438570Y-81171844D02*
X134378094Y-81232320D01*
M02*
