%TF.GenerationSoftware,KiCad,Pcbnew,7.0.10*%
%TF.CreationDate,2024-02-22T19:55:08+01:00*%
%TF.ProjectId,Unibias,556e6962-6961-4732-9e6b-696361645f70,rev?*%
%TF.SameCoordinates,Original*%
%TF.FileFunction,Copper,L1,Top*%
%TF.FilePolarity,Positive*%
%FSLAX46Y46*%
G04 Gerber Fmt 4.6, Leading zero omitted, Abs format (unit mm)*
G04 Created by KiCad (PCBNEW 7.0.10) date 2024-02-22 19:55:08*
%MOMM*%
%LPD*%
G01*
G04 APERTURE LIST*
G04 Aperture macros list*
%AMRoundRect*
0 Rectangle with rounded corners*
0 $1 Rounding radius*
0 $2 $3 $4 $5 $6 $7 $8 $9 X,Y pos of 4 corners*
0 Add a 4 corners polygon primitive as box body*
4,1,4,$2,$3,$4,$5,$6,$7,$8,$9,$2,$3,0*
0 Add four circle primitives for the rounded corners*
1,1,$1+$1,$2,$3*
1,1,$1+$1,$4,$5*
1,1,$1+$1,$6,$7*
1,1,$1+$1,$8,$9*
0 Add four rect primitives between the rounded corners*
20,1,$1+$1,$2,$3,$4,$5,0*
20,1,$1+$1,$4,$5,$6,$7,0*
20,1,$1+$1,$6,$7,$8,$9,0*
20,1,$1+$1,$8,$9,$2,$3,0*%
G04 Aperture macros list end*
%TA.AperFunction,SMDPad,CuDef*%
%ADD10RoundRect,0.250000X-0.500000X-1.100000X0.500000X-1.100000X0.500000X1.100000X-0.500000X1.100000X0*%
%TD*%
%TA.AperFunction,SMDPad,CuDef*%
%ADD11RoundRect,0.112500X-0.187500X-0.112500X0.187500X-0.112500X0.187500X0.112500X-0.187500X0.112500X0*%
%TD*%
%TA.AperFunction,ComponentPad*%
%ADD12O,2.500000X1.600000*%
%TD*%
%TA.AperFunction,ComponentPad*%
%ADD13O,7.000000X3.500000*%
%TD*%
%TA.AperFunction,SMDPad,CuDef*%
%ADD14RoundRect,0.218750X-0.381250X0.218750X-0.381250X-0.218750X0.381250X-0.218750X0.381250X0.218750X0*%
%TD*%
%TA.AperFunction,SMDPad,CuDef*%
%ADD15RoundRect,0.250000X0.250000X0.475000X-0.250000X0.475000X-0.250000X-0.475000X0.250000X-0.475000X0*%
%TD*%
%TA.AperFunction,SMDPad,CuDef*%
%ADD16RoundRect,0.250000X-0.450000X0.262500X-0.450000X-0.262500X0.450000X-0.262500X0.450000X0.262500X0*%
%TD*%
%TA.AperFunction,ComponentPad*%
%ADD17R,1.600000X1.600000*%
%TD*%
%TA.AperFunction,ComponentPad*%
%ADD18O,1.600000X1.600000*%
%TD*%
%TA.AperFunction,ComponentPad*%
%ADD19C,2.000000*%
%TD*%
%TA.AperFunction,ComponentPad*%
%ADD20O,1.600000X2.000000*%
%TD*%
%TA.AperFunction,SMDPad,CuDef*%
%ADD21RoundRect,0.250000X0.262500X0.450000X-0.262500X0.450000X-0.262500X-0.450000X0.262500X-0.450000X0*%
%TD*%
%TA.AperFunction,SMDPad,CuDef*%
%ADD22RoundRect,0.250000X-1.500000X-0.550000X1.500000X-0.550000X1.500000X0.550000X-1.500000X0.550000X0*%
%TD*%
%TA.AperFunction,SMDPad,CuDef*%
%ADD23RoundRect,0.250000X-0.262500X-0.450000X0.262500X-0.450000X0.262500X0.450000X-0.262500X0.450000X0*%
%TD*%
%TA.AperFunction,ViaPad*%
%ADD24C,0.800000*%
%TD*%
%TA.AperFunction,Conductor*%
%ADD25C,0.500000*%
%TD*%
%TA.AperFunction,Conductor*%
%ADD26C,1.000000*%
%TD*%
G04 APERTURE END LIST*
D10*
%TO.P,D2,1,K*%
%TO.N,Net-(D1-K)*%
X157493000Y-93599000D03*
%TO.P,D2,2,A*%
%TO.N,Net-(D1-A)*%
X162293000Y-93599000D03*
%TD*%
D11*
%TO.P,D1,1,K*%
%TO.N,Net-(D1-K)*%
X158750000Y-96520000D03*
%TO.P,D1,2,A*%
%TO.N,Net-(D1-A)*%
X160850000Y-96520000D03*
%TD*%
D12*
%TO.P,J2,1,In*%
%TO.N,Net-(J2-In)*%
X184950000Y-96420000D03*
D13*
%TO.P,J2,2,Ext*%
%TO.N,GND*%
X190030000Y-91340000D03*
D12*
X184950000Y-93880000D03*
D13*
X190030000Y-101500000D03*
%TD*%
D14*
%TO.P,L1,1,1*%
%TO.N,Net-(L1-Pad1)*%
X156972000Y-102616000D03*
%TO.P,L1,2,2*%
%TO.N,GND*%
X156972000Y-104741000D03*
%TD*%
D15*
%TO.P,C1,1*%
%TO.N,Net-(D1-K)*%
X153670000Y-96520000D03*
%TO.P,C1,2*%
%TO.N,Net-(J1-In)*%
X151770000Y-96520000D03*
%TD*%
D16*
%TO.P,R2,1*%
%TO.N,Net-(L2-Pad2)*%
X164973000Y-92663000D03*
%TO.P,R2,2*%
%TO.N,Net-(D1-A)*%
X164973000Y-94488000D03*
%TD*%
%TO.P,R1,1*%
%TO.N,Net-(D1-K)*%
X156972000Y-98909500D03*
%TO.P,R1,2*%
%TO.N,Net-(L1-Pad1)*%
X156972000Y-100734500D03*
%TD*%
D15*
%TO.P,C2,1*%
%TO.N,Net-(J2-In)*%
X166878000Y-96520000D03*
%TO.P,C2,2*%
%TO.N,Net-(D1-A)*%
X164978000Y-96520000D03*
%TD*%
D14*
%TO.P,L2,1,1*%
%TO.N,Net-(A1-D11)*%
X164973000Y-88553000D03*
%TO.P,L2,2,2*%
%TO.N,Net-(L2-Pad2)*%
X164973000Y-90678000D03*
%TD*%
D17*
%TO.P,A1,1,D1/TX*%
%TO.N,unconnected-(A1-D1{slash}TX-Pad1)*%
X154940000Y-78740000D03*
D18*
%TO.P,A1,2,D0/RX*%
%TO.N,unconnected-(A1-D0{slash}RX-Pad2)*%
X157480000Y-78740000D03*
%TO.P,A1,3,~{RESET}*%
%TO.N,unconnected-(A1-~{RESET}-Pad3)*%
X160020000Y-78740000D03*
%TO.P,A1,4,GND*%
%TO.N,GND*%
X162560000Y-78740000D03*
%TO.P,A1,5,D2*%
%TO.N,Net-(A1-D2)*%
X165100000Y-78740000D03*
%TO.P,A1,6,D3*%
%TO.N,Net-(A1-D3)*%
X167640000Y-78740000D03*
%TO.P,A1,7,D4*%
%TO.N,Net-(A1-D4)*%
X170180000Y-78740000D03*
%TO.P,A1,8,D5*%
%TO.N,unconnected-(A1-D5-Pad8)*%
X172720000Y-78740000D03*
%TO.P,A1,9,D6*%
%TO.N,unconnected-(A1-D6-Pad9)*%
X175260000Y-78740000D03*
%TO.P,A1,10,D7*%
%TO.N,unconnected-(A1-D7-Pad10)*%
X177800000Y-78740000D03*
%TO.P,A1,11,D8*%
%TO.N,unconnected-(A1-D8-Pad11)*%
X180340000Y-78740000D03*
%TO.P,A1,12,D9*%
%TO.N,unconnected-(A1-D9-Pad12)*%
X182880000Y-78740000D03*
%TO.P,A1,13,D10*%
%TO.N,Net-(A1-D10)*%
X185420000Y-78740000D03*
%TO.P,A1,14,D11*%
%TO.N,Net-(A1-D11)*%
X187960000Y-78740000D03*
%TO.P,A1,15,D12*%
%TO.N,Net-(A1-D12)*%
X190500000Y-78740000D03*
%TO.P,A1,16,D13*%
%TO.N,unconnected-(A1-D13-Pad16)*%
X190500000Y-63500000D03*
%TO.P,A1,17,3V3*%
%TO.N,unconnected-(A1-3V3-Pad17)*%
X187960000Y-63500000D03*
%TO.P,A1,18,AREF*%
%TO.N,unconnected-(A1-AREF-Pad18)*%
X185420000Y-63500000D03*
%TO.P,A1,19,A0*%
%TO.N,unconnected-(A1-A0-Pad19)*%
X182880000Y-63500000D03*
%TO.P,A1,20,A1*%
%TO.N,unconnected-(A1-A1-Pad20)*%
X180340000Y-63500000D03*
%TO.P,A1,21,A2*%
%TO.N,unconnected-(A1-A2-Pad21)*%
X177800000Y-63500000D03*
%TO.P,A1,22,A3*%
%TO.N,unconnected-(A1-A3-Pad22)*%
X175260000Y-63500000D03*
%TO.P,A1,23,A4*%
%TO.N,Net-(A1-A4)*%
X172720000Y-63500000D03*
%TO.P,A1,24,A5*%
%TO.N,Net-(A1-A5)*%
X170180000Y-63500000D03*
%TO.P,A1,25,A6*%
%TO.N,unconnected-(A1-A6-Pad25)*%
X167640000Y-63500000D03*
%TO.P,A1,26,A7*%
%TO.N,unconnected-(A1-A7-Pad26)*%
X165100000Y-63500000D03*
%TO.P,A1,27,+5V*%
%TO.N,Net-(A1-+5V)*%
X162560000Y-63500000D03*
%TO.P,A1,28,~{RESET}*%
%TO.N,unconnected-(A1-~{RESET}-Pad28)*%
X160020000Y-63500000D03*
%TO.P,A1,29,GND*%
%TO.N,GND*%
X157480000Y-63500000D03*
%TO.P,A1,30,VIN*%
%TO.N,unconnected-(A1-VIN-Pad30)*%
X154940000Y-63500000D03*
%TD*%
D12*
%TO.P,J1,1,In*%
%TO.N,Net-(J1-In)*%
X133980000Y-96520000D03*
D13*
%TO.P,J1,2,Ext*%
%TO.N,GND*%
X128900000Y-101600000D03*
D12*
X133980000Y-99060000D03*
D13*
X128900000Y-91440000D03*
%TD*%
D14*
%TO.P,L3,1,1*%
%TO.N,Net-(A1-D10)*%
X150622000Y-88472500D03*
%TO.P,L3,2,2*%
%TO.N,Net-(L3-Pad2)*%
X150622000Y-90597500D03*
%TD*%
D19*
%TO.P,SW2,1,1*%
%TO.N,GND*%
X179780000Y-103596000D03*
X173280000Y-103596000D03*
%TO.P,SW2,2,2*%
%TO.N,Net-(R6-Pad2)*%
X179780000Y-99096000D03*
X173280000Y-99096000D03*
%TD*%
D16*
%TO.P,R7,1*%
%TO.N,Net-(A1-D4)*%
X170180000Y-82550000D03*
%TO.P,R7,2*%
%TO.N,Net-(R7-Pad2)*%
X170180000Y-84375000D03*
%TD*%
D20*
%TO.P,Brd1,1,GND*%
%TO.N,GND*%
X131000000Y-63060000D03*
%TO.P,Brd1,2,VCC*%
%TO.N,Net-(A1-+5V)*%
X133540000Y-63060000D03*
%TO.P,Brd1,3,SCL*%
%TO.N,Net-(A1-A5)*%
X136080000Y-63060000D03*
%TO.P,Brd1,4,SDA*%
%TO.N,Net-(A1-A4)*%
X138620000Y-63060000D03*
%TD*%
D19*
%TO.P,SW1,1,1*%
%TO.N,GND*%
X145490000Y-103560000D03*
X138990000Y-103560000D03*
%TO.P,SW1,2,2*%
%TO.N,Net-(R5-Pad2)*%
X145490000Y-99060000D03*
X138990000Y-99060000D03*
%TD*%
%TO.P,SW3,1,1*%
%TO.N,GND*%
X176680000Y-91876000D03*
X170180000Y-91876000D03*
%TO.P,SW3,2,2*%
%TO.N,Net-(R7-Pad2)*%
X176680000Y-87376000D03*
X170180000Y-87376000D03*
%TD*%
D16*
%TO.P,R4,1*%
%TO.N,Net-(L4-Pad2)*%
X179705000Y-92813500D03*
%TO.P,R4,2*%
%TO.N,Net-(J2-In)*%
X179705000Y-94638500D03*
%TD*%
D14*
%TO.P,L4,1,1*%
%TO.N,Net-(A1-D12)*%
X179705000Y-88599500D03*
%TO.P,L4,2,2*%
%TO.N,Net-(L4-Pad2)*%
X179705000Y-90724500D03*
%TD*%
D21*
%TO.P,R5,1*%
%TO.N,Net-(A1-D2)*%
X150518500Y-99060000D03*
%TO.P,R5,2*%
%TO.N,Net-(R5-Pad2)*%
X148693500Y-99060000D03*
%TD*%
D16*
%TO.P,R3,1*%
%TO.N,Net-(L3-Pad2)*%
X150622000Y-92559500D03*
%TO.P,R3,2*%
%TO.N,Net-(J1-In)*%
X150622000Y-94384500D03*
%TD*%
D22*
%TO.P,C3,1*%
%TO.N,Net-(A1-+5V)*%
X155001000Y-85725000D03*
%TO.P,C3,2*%
%TO.N,GND*%
X160401000Y-85725000D03*
%TD*%
D23*
%TO.P,R6,1*%
%TO.N,Net-(A1-D3)*%
X167640000Y-99060000D03*
%TO.P,R6,2*%
%TO.N,Net-(R6-Pad2)*%
X169465000Y-99060000D03*
%TD*%
D24*
%TO.N,GND*%
X168656000Y-81280000D03*
X161290000Y-85725000D03*
X196850000Y-80010000D03*
X121920000Y-105410000D03*
X148209000Y-81788000D03*
X121920000Y-62230000D03*
X156972000Y-104775000D03*
X174498000Y-81915000D03*
X159385000Y-85725000D03*
X144653000Y-63373000D03*
X196850000Y-105537000D03*
X196850000Y-62230000D03*
X121412000Y-81534000D03*
X165862000Y-65659000D03*
X165354000Y-81280000D03*
%TO.N,Net-(A1-+5V)*%
X155702000Y-85725000D03*
X154051000Y-85725000D03*
%TO.N,Net-(A1-D3)*%
X167640000Y-99060000D03*
%TO.N,Net-(A1-D2)*%
X150622000Y-99060000D03*
%TD*%
D25*
%TO.N,Net-(A1-D11)*%
X164973000Y-88553000D02*
X166350000Y-87176000D01*
X186690000Y-80010000D02*
X187960000Y-78740000D01*
X166350000Y-87176000D02*
X166350000Y-78252000D01*
X166350000Y-78252000D02*
X167112000Y-77490000D01*
X167112000Y-77490000D02*
X180868000Y-77490000D01*
X182382233Y-80010000D02*
X186690000Y-80010000D01*
X180868000Y-77490000D02*
X181610000Y-78232000D01*
X181610000Y-78232000D02*
X181610000Y-79237767D01*
X181610000Y-79237767D02*
X182382233Y-80010000D01*
D26*
%TO.N,Net-(D1-K)*%
X157493000Y-93599000D02*
X157493000Y-96507000D01*
D25*
X157493000Y-96507000D02*
X157480000Y-96520000D01*
D26*
%TO.N,Net-(D1-A)*%
X164978000Y-96520000D02*
X162306000Y-96520000D01*
D25*
X162293000Y-96507000D02*
X162306000Y-96520000D01*
D26*
X162306000Y-96520000D02*
X160850000Y-96520000D01*
X162293000Y-93599000D02*
X162293000Y-96507000D01*
D25*
%TO.N,Net-(A1-D10)*%
X150622000Y-88472500D02*
X150622000Y-77724000D01*
%TO.N,Net-(L3-Pad2)*%
X150622000Y-90597500D02*
X150622000Y-92559500D01*
%TO.N,Net-(J1-In)*%
X150622000Y-94384500D02*
X150622000Y-96520000D01*
%TO.N,Net-(A1-D12)*%
X190500000Y-78740000D02*
X180640500Y-88599500D01*
X180640500Y-88599500D02*
X179705000Y-88599500D01*
%TO.N,Net-(A1-D10)*%
X152019000Y-76327000D02*
X183007000Y-76327000D01*
X150622000Y-77724000D02*
X152019000Y-76327000D01*
X183007000Y-76327000D02*
X185420000Y-78740000D01*
%TO.N,Net-(A1-A5)*%
X136080000Y-63060000D02*
X136080000Y-61405000D01*
X168085000Y-61405000D02*
X170180000Y-63500000D01*
X136080000Y-61405000D02*
X168085000Y-61405000D01*
%TO.N,Net-(A1-A4)*%
X168656000Y-67564000D02*
X172720000Y-63500000D01*
X138620000Y-63060000D02*
X138620000Y-65849000D01*
X138620000Y-65849000D02*
X140335000Y-67564000D01*
X140335000Y-67564000D02*
X168656000Y-67564000D01*
%TO.N,Net-(A1-D4)*%
X170180000Y-82550000D02*
X170180000Y-78740000D01*
D26*
%TO.N,Net-(J1-In)*%
X150622000Y-96520000D02*
X151770000Y-96520000D01*
X133350000Y-96520000D02*
X150622000Y-96520000D01*
D25*
%TO.N,Net-(D1-K)*%
X156972000Y-98909500D02*
X156972000Y-96520000D01*
D26*
X156972000Y-96520000D02*
X153670000Y-96520000D01*
X157480000Y-96520000D02*
X156972000Y-96520000D01*
X158750000Y-96520000D02*
X157480000Y-96520000D01*
D25*
%TO.N,Net-(D1-A)*%
X164973000Y-96515000D02*
X164978000Y-96520000D01*
X164973000Y-94488000D02*
X164973000Y-96515000D01*
%TO.N,Net-(J2-In)*%
X179705000Y-94638500D02*
X179705000Y-96393000D01*
X184850000Y-96520000D02*
X184950000Y-96420000D01*
D26*
X166878000Y-96520000D02*
X179578000Y-96520000D01*
D25*
X179705000Y-96393000D02*
X179578000Y-96520000D01*
D26*
X179578000Y-96520000D02*
X184850000Y-96520000D01*
D25*
%TO.N,Net-(L1-Pad1)*%
X156972000Y-100734500D02*
X156972000Y-102616000D01*
%TO.N,Net-(L2-Pad2)*%
X164973000Y-90678000D02*
X164973000Y-92663000D01*
%TO.N,Net-(L4-Pad2)*%
X179705000Y-90724500D02*
X179705000Y-92813500D01*
%TO.N,Net-(R5-Pad2)*%
X138990000Y-99060000D02*
X145490000Y-99060000D01*
X145490000Y-99060000D02*
X148693500Y-99060000D01*
%TO.N,Net-(R6-Pad2)*%
X173280000Y-99096000D02*
X169501000Y-99096000D01*
X169501000Y-99096000D02*
X169465000Y-99060000D01*
X179780000Y-99096000D02*
X173280000Y-99096000D01*
%TO.N,Net-(R7-Pad2)*%
X176680000Y-87376000D02*
X170180000Y-87376000D01*
X170180000Y-87376000D02*
X170180000Y-84375000D01*
%TD*%
%TA.AperFunction,Conductor*%
%TO.N,GND*%
G36*
X135536227Y-61005185D02*
G01*
X135581982Y-61057989D01*
X135591926Y-61127147D01*
X135586019Y-61151050D01*
X135584494Y-61155338D01*
X135573617Y-61178206D01*
X135570330Y-61183610D01*
X135570328Y-61183616D01*
X135556132Y-61234280D01*
X135553572Y-61242344D01*
X135535946Y-61291941D01*
X135535514Y-61298259D01*
X135531206Y-61323243D01*
X135529500Y-61329329D01*
X135529500Y-61381944D01*
X135529211Y-61390406D01*
X135525618Y-61442918D01*
X135525619Y-61442920D01*
X135526906Y-61449113D01*
X135529500Y-61474344D01*
X135529500Y-61837073D01*
X135509815Y-61904112D01*
X135477427Y-61938080D01*
X135356052Y-62024510D01*
X135356040Y-62024520D01*
X135211014Y-62176620D01*
X135097388Y-62353425D01*
X135019274Y-62548544D01*
X134999570Y-62650782D01*
X134979500Y-62754915D01*
X134979500Y-63312425D01*
X134994472Y-63469218D01*
X135053684Y-63670875D01*
X135112344Y-63784660D01*
X135149991Y-63857686D01*
X135279905Y-64022883D01*
X135279909Y-64022887D01*
X135438746Y-64160521D01*
X135620750Y-64265601D01*
X135620752Y-64265601D01*
X135620756Y-64265604D01*
X135819367Y-64334344D01*
X136027398Y-64364254D01*
X136237330Y-64354254D01*
X136441576Y-64304704D01*
X136540215Y-64259657D01*
X136632743Y-64217401D01*
X136632746Y-64217399D01*
X136632753Y-64217396D01*
X136803952Y-64095486D01*
X136816982Y-64081821D01*
X136930856Y-63962391D01*
X136948986Y-63943378D01*
X137062613Y-63766572D01*
X137140725Y-63571457D01*
X137180500Y-63365085D01*
X137180500Y-62807575D01*
X137165528Y-62650782D01*
X137106316Y-62449125D01*
X137010011Y-62262318D01*
X137010009Y-62262316D01*
X137010008Y-62262313D01*
X136926521Y-62156152D01*
X136900553Y-62091288D01*
X136913775Y-62022680D01*
X136961990Y-61972113D01*
X137023991Y-61955500D01*
X137672286Y-61955500D01*
X137739325Y-61975185D01*
X137785080Y-62027989D01*
X137795024Y-62097147D01*
X137765999Y-62160703D01*
X137762029Y-62165070D01*
X137751012Y-62176623D01*
X137637388Y-62353425D01*
X137559274Y-62548544D01*
X137539570Y-62650782D01*
X137519500Y-62754915D01*
X137519500Y-63312425D01*
X137534472Y-63469218D01*
X137593684Y-63670875D01*
X137652344Y-63784660D01*
X137689991Y-63857686D01*
X137819905Y-64022883D01*
X137819909Y-64022887D01*
X137861187Y-64058655D01*
X137978744Y-64160519D01*
X138007500Y-64177121D01*
X138055714Y-64227685D01*
X138069500Y-64284508D01*
X138069500Y-65837477D01*
X138069428Y-65841709D01*
X138067238Y-65905829D01*
X138076963Y-65945733D01*
X138079334Y-65958208D01*
X138084930Y-65998920D01*
X138092079Y-66015379D01*
X138098819Y-66035420D01*
X138103067Y-66052852D01*
X138103067Y-66052853D01*
X138123206Y-66088671D01*
X138128846Y-66100025D01*
X138140854Y-66127670D01*
X138145221Y-66137723D01*
X138156541Y-66151636D01*
X138168439Y-66169117D01*
X138177234Y-66184760D01*
X138177236Y-66184761D01*
X138206286Y-66213811D01*
X138214784Y-66223226D01*
X138240722Y-66255108D01*
X138255381Y-66265455D01*
X138271552Y-66279077D01*
X139937578Y-67945102D01*
X139940521Y-67948147D01*
X139984317Y-67995041D01*
X139984317Y-67995042D01*
X139984319Y-67995043D01*
X139984320Y-67995044D01*
X140019439Y-68016399D01*
X140029913Y-68023529D01*
X140062658Y-68048361D01*
X140079353Y-68054944D01*
X140098290Y-68064351D01*
X140113618Y-68073672D01*
X140135436Y-68079785D01*
X140153183Y-68084758D01*
X140165213Y-68088803D01*
X140203436Y-68103876D01*
X140221287Y-68105711D01*
X140242052Y-68109657D01*
X140259335Y-68114500D01*
X140300418Y-68114500D01*
X140313098Y-68115150D01*
X140353971Y-68119352D01*
X140371655Y-68116303D01*
X140392723Y-68114500D01*
X168644478Y-68114500D01*
X168648710Y-68114572D01*
X168650674Y-68114639D01*
X168712826Y-68116762D01*
X168752755Y-68107030D01*
X168765192Y-68104667D01*
X168805920Y-68099070D01*
X168822383Y-68091918D01*
X168842416Y-68085181D01*
X168859852Y-68080933D01*
X168895695Y-68060778D01*
X168907015Y-68055157D01*
X168944720Y-68038780D01*
X168958632Y-68027460D01*
X168976123Y-68015557D01*
X168991755Y-68006768D01*
X168991753Y-68006768D01*
X168991759Y-68006766D01*
X169020822Y-67977701D01*
X169030229Y-67969212D01*
X169062108Y-67943278D01*
X169072456Y-67928616D01*
X169086074Y-67912449D01*
X172386456Y-64612067D01*
X172447777Y-64578584D01*
X172496915Y-64577861D01*
X172618024Y-64600500D01*
X172618026Y-64600500D01*
X172821974Y-64600500D01*
X172821976Y-64600500D01*
X173022456Y-64563024D01*
X173212637Y-64489348D01*
X173386041Y-64381981D01*
X173536764Y-64244579D01*
X173659673Y-64081821D01*
X173750582Y-63899250D01*
X173806397Y-63703083D01*
X173825215Y-63500000D01*
X174154785Y-63500000D01*
X174173602Y-63703082D01*
X174229417Y-63899247D01*
X174229422Y-63899260D01*
X174320327Y-64081821D01*
X174443237Y-64244581D01*
X174593958Y-64381980D01*
X174593960Y-64381982D01*
X174693141Y-64443392D01*
X174767363Y-64489348D01*
X174957544Y-64563024D01*
X175158024Y-64600500D01*
X175158026Y-64600500D01*
X175361974Y-64600500D01*
X175361976Y-64600500D01*
X175562456Y-64563024D01*
X175752637Y-64489348D01*
X175926041Y-64381981D01*
X176076764Y-64244579D01*
X176199673Y-64081821D01*
X176290582Y-63899250D01*
X176346397Y-63703083D01*
X176365215Y-63500000D01*
X176694785Y-63500000D01*
X176713602Y-63703082D01*
X176769417Y-63899247D01*
X176769422Y-63899260D01*
X176860327Y-64081821D01*
X176983237Y-64244581D01*
X177133958Y-64381980D01*
X177133960Y-64381982D01*
X177233141Y-64443392D01*
X177307363Y-64489348D01*
X177497544Y-64563024D01*
X177698024Y-64600500D01*
X177698026Y-64600500D01*
X177901974Y-64600500D01*
X177901976Y-64600500D01*
X178102456Y-64563024D01*
X178292637Y-64489348D01*
X178466041Y-64381981D01*
X178616764Y-64244579D01*
X178739673Y-64081821D01*
X178830582Y-63899250D01*
X178886397Y-63703083D01*
X178905215Y-63500000D01*
X179234785Y-63500000D01*
X179253602Y-63703082D01*
X179309417Y-63899247D01*
X179309422Y-63899260D01*
X179400327Y-64081821D01*
X179523237Y-64244581D01*
X179673958Y-64381980D01*
X179673960Y-64381982D01*
X179773141Y-64443392D01*
X179847363Y-64489348D01*
X180037544Y-64563024D01*
X180238024Y-64600500D01*
X180238026Y-64600500D01*
X180441974Y-64600500D01*
X180441976Y-64600500D01*
X180642456Y-64563024D01*
X180832637Y-64489348D01*
X181006041Y-64381981D01*
X181156764Y-64244579D01*
X181279673Y-64081821D01*
X181370582Y-63899250D01*
X181426397Y-63703083D01*
X181445215Y-63500000D01*
X181774785Y-63500000D01*
X181793602Y-63703082D01*
X181849417Y-63899247D01*
X181849422Y-63899260D01*
X181940327Y-64081821D01*
X182063237Y-64244581D01*
X182213958Y-64381980D01*
X182213960Y-64381982D01*
X182313141Y-64443392D01*
X182387363Y-64489348D01*
X182577544Y-64563024D01*
X182778024Y-64600500D01*
X182778026Y-64600500D01*
X182981974Y-64600500D01*
X182981976Y-64600500D01*
X183182456Y-64563024D01*
X183372637Y-64489348D01*
X183546041Y-64381981D01*
X183696764Y-64244579D01*
X183819673Y-64081821D01*
X183910582Y-63899250D01*
X183966397Y-63703083D01*
X183985215Y-63500000D01*
X184314785Y-63500000D01*
X184333602Y-63703082D01*
X184389417Y-63899247D01*
X184389422Y-63899260D01*
X184480327Y-64081821D01*
X184603237Y-64244581D01*
X184753958Y-64381980D01*
X184753960Y-64381982D01*
X184853141Y-64443392D01*
X184927363Y-64489348D01*
X185117544Y-64563024D01*
X185318024Y-64600500D01*
X185318026Y-64600500D01*
X185521974Y-64600500D01*
X185521976Y-64600500D01*
X185722456Y-64563024D01*
X185912637Y-64489348D01*
X186086041Y-64381981D01*
X186236764Y-64244579D01*
X186359673Y-64081821D01*
X186450582Y-63899250D01*
X186506397Y-63703083D01*
X186525215Y-63500000D01*
X186854785Y-63500000D01*
X186873602Y-63703082D01*
X186929417Y-63899247D01*
X186929422Y-63899260D01*
X187020327Y-64081821D01*
X187143237Y-64244581D01*
X187293958Y-64381980D01*
X187293960Y-64381982D01*
X187393141Y-64443392D01*
X187467363Y-64489348D01*
X187657544Y-64563024D01*
X187858024Y-64600500D01*
X187858026Y-64600500D01*
X188061974Y-64600500D01*
X188061976Y-64600500D01*
X188262456Y-64563024D01*
X188452637Y-64489348D01*
X188626041Y-64381981D01*
X188776764Y-64244579D01*
X188899673Y-64081821D01*
X188990582Y-63899250D01*
X189046397Y-63703083D01*
X189065215Y-63500000D01*
X189394785Y-63500000D01*
X189413602Y-63703082D01*
X189469417Y-63899247D01*
X189469422Y-63899260D01*
X189560327Y-64081821D01*
X189683237Y-64244581D01*
X189833958Y-64381980D01*
X189833960Y-64381982D01*
X189933141Y-64443392D01*
X190007363Y-64489348D01*
X190197544Y-64563024D01*
X190398024Y-64600500D01*
X190398026Y-64600500D01*
X190601974Y-64600500D01*
X190601976Y-64600500D01*
X190802456Y-64563024D01*
X190992637Y-64489348D01*
X191166041Y-64381981D01*
X191316764Y-64244579D01*
X191439673Y-64081821D01*
X191530582Y-63899250D01*
X191586397Y-63703083D01*
X191605215Y-63500000D01*
X191586397Y-63296917D01*
X191530582Y-63100750D01*
X191528437Y-63096443D01*
X191464539Y-62968117D01*
X191439673Y-62918179D01*
X191316764Y-62755421D01*
X191316762Y-62755418D01*
X191166041Y-62618019D01*
X191166039Y-62618017D01*
X190992642Y-62510655D01*
X190992635Y-62510651D01*
X190858514Y-62458693D01*
X190802456Y-62436976D01*
X190601976Y-62399500D01*
X190398024Y-62399500D01*
X190197544Y-62436976D01*
X190197541Y-62436976D01*
X190197541Y-62436977D01*
X190007364Y-62510651D01*
X190007357Y-62510655D01*
X189833960Y-62618017D01*
X189833958Y-62618019D01*
X189683237Y-62755418D01*
X189560327Y-62918178D01*
X189469422Y-63100739D01*
X189469417Y-63100752D01*
X189413602Y-63296917D01*
X189394785Y-63499999D01*
X189394785Y-63500000D01*
X189065215Y-63500000D01*
X189046397Y-63296917D01*
X188990582Y-63100750D01*
X188988437Y-63096443D01*
X188924539Y-62968117D01*
X188899673Y-62918179D01*
X188776764Y-62755421D01*
X188776762Y-62755418D01*
X188626041Y-62618019D01*
X188626039Y-62618017D01*
X188452642Y-62510655D01*
X188452635Y-62510651D01*
X188318514Y-62458693D01*
X188262456Y-62436976D01*
X188061976Y-62399500D01*
X187858024Y-62399500D01*
X187657544Y-62436976D01*
X187657541Y-62436976D01*
X187657541Y-62436977D01*
X187467364Y-62510651D01*
X187467357Y-62510655D01*
X187293960Y-62618017D01*
X187293958Y-62618019D01*
X187143237Y-62755418D01*
X187020327Y-62918178D01*
X186929422Y-63100739D01*
X186929417Y-63100752D01*
X186873602Y-63296917D01*
X186854785Y-63499999D01*
X186854785Y-63500000D01*
X186525215Y-63500000D01*
X186506397Y-63296917D01*
X186450582Y-63100750D01*
X186448437Y-63096443D01*
X186384539Y-62968117D01*
X186359673Y-62918179D01*
X186236764Y-62755421D01*
X186236762Y-62755418D01*
X186086041Y-62618019D01*
X186086039Y-62618017D01*
X185912642Y-62510655D01*
X185912635Y-62510651D01*
X185778514Y-62458693D01*
X185722456Y-62436976D01*
X185521976Y-62399500D01*
X185318024Y-62399500D01*
X185117544Y-62436976D01*
X185117541Y-62436976D01*
X185117541Y-62436977D01*
X184927364Y-62510651D01*
X184927357Y-62510655D01*
X184753960Y-62618017D01*
X184753958Y-62618019D01*
X184603237Y-62755418D01*
X184480327Y-62918178D01*
X184389422Y-63100739D01*
X184389417Y-63100752D01*
X184333602Y-63296917D01*
X184314785Y-63499999D01*
X184314785Y-63500000D01*
X183985215Y-63500000D01*
X183966397Y-63296917D01*
X183910582Y-63100750D01*
X183908437Y-63096443D01*
X183844539Y-62968117D01*
X183819673Y-62918179D01*
X183696764Y-62755421D01*
X183696762Y-62755418D01*
X183546041Y-62618019D01*
X183546039Y-62618017D01*
X183372642Y-62510655D01*
X183372635Y-62510651D01*
X183238514Y-62458693D01*
X183182456Y-62436976D01*
X182981976Y-62399500D01*
X182778024Y-62399500D01*
X182577544Y-62436976D01*
X182577541Y-62436976D01*
X182577541Y-62436977D01*
X182387364Y-62510651D01*
X182387357Y-62510655D01*
X182213960Y-62618017D01*
X182213958Y-62618019D01*
X182063237Y-62755418D01*
X181940327Y-62918178D01*
X181849422Y-63100739D01*
X181849417Y-63100752D01*
X181793602Y-63296917D01*
X181774785Y-63499999D01*
X181774785Y-63500000D01*
X181445215Y-63500000D01*
X181426397Y-63296917D01*
X181370582Y-63100750D01*
X181368437Y-63096443D01*
X181304539Y-62968117D01*
X181279673Y-62918179D01*
X181156764Y-62755421D01*
X181156762Y-62755418D01*
X181006041Y-62618019D01*
X181006039Y-62618017D01*
X180832642Y-62510655D01*
X180832635Y-62510651D01*
X180698514Y-62458693D01*
X180642456Y-62436976D01*
X180441976Y-62399500D01*
X180238024Y-62399500D01*
X180037544Y-62436976D01*
X180037541Y-62436976D01*
X180037541Y-62436977D01*
X179847364Y-62510651D01*
X179847357Y-62510655D01*
X179673960Y-62618017D01*
X179673958Y-62618019D01*
X179523237Y-62755418D01*
X179400327Y-62918178D01*
X179309422Y-63100739D01*
X179309417Y-63100752D01*
X179253602Y-63296917D01*
X179234785Y-63499999D01*
X179234785Y-63500000D01*
X178905215Y-63500000D01*
X178886397Y-63296917D01*
X178830582Y-63100750D01*
X178828437Y-63096443D01*
X178764539Y-62968117D01*
X178739673Y-62918179D01*
X178616764Y-62755421D01*
X178616762Y-62755418D01*
X178466041Y-62618019D01*
X178466039Y-62618017D01*
X178292642Y-62510655D01*
X178292635Y-62510651D01*
X178158514Y-62458693D01*
X178102456Y-62436976D01*
X177901976Y-62399500D01*
X177698024Y-62399500D01*
X177497544Y-62436976D01*
X177497541Y-62436976D01*
X177497541Y-62436977D01*
X177307364Y-62510651D01*
X177307357Y-62510655D01*
X177133960Y-62618017D01*
X177133958Y-62618019D01*
X176983237Y-62755418D01*
X176860327Y-62918178D01*
X176769422Y-63100739D01*
X176769417Y-63100752D01*
X176713602Y-63296917D01*
X176694785Y-63499999D01*
X176694785Y-63500000D01*
X176365215Y-63500000D01*
X176346397Y-63296917D01*
X176290582Y-63100750D01*
X176288437Y-63096443D01*
X176224539Y-62968117D01*
X176199673Y-62918179D01*
X176076764Y-62755421D01*
X176076762Y-62755418D01*
X175926041Y-62618019D01*
X175926039Y-62618017D01*
X175752642Y-62510655D01*
X175752635Y-62510651D01*
X175618514Y-62458693D01*
X175562456Y-62436976D01*
X175361976Y-62399500D01*
X175158024Y-62399500D01*
X174957544Y-62436976D01*
X174957541Y-62436976D01*
X174957541Y-62436977D01*
X174767364Y-62510651D01*
X174767357Y-62510655D01*
X174593960Y-62618017D01*
X174593958Y-62618019D01*
X174443237Y-62755418D01*
X174320327Y-62918178D01*
X174229422Y-63100739D01*
X174229417Y-63100752D01*
X174173602Y-63296917D01*
X174154785Y-63499999D01*
X174154785Y-63500000D01*
X173825215Y-63500000D01*
X173806397Y-63296917D01*
X173750582Y-63100750D01*
X173748437Y-63096443D01*
X173684539Y-62968117D01*
X173659673Y-62918179D01*
X173536764Y-62755421D01*
X173536762Y-62755418D01*
X173386041Y-62618019D01*
X173386039Y-62618017D01*
X173212642Y-62510655D01*
X173212635Y-62510651D01*
X173078514Y-62458693D01*
X173022456Y-62436976D01*
X172821976Y-62399500D01*
X172618024Y-62399500D01*
X172417544Y-62436976D01*
X172417541Y-62436976D01*
X172417541Y-62436977D01*
X172227364Y-62510651D01*
X172227357Y-62510655D01*
X172053960Y-62618017D01*
X172053958Y-62618019D01*
X171903237Y-62755418D01*
X171780327Y-62918178D01*
X171689422Y-63100739D01*
X171689417Y-63100752D01*
X171633602Y-63296917D01*
X171614785Y-63499999D01*
X171614785Y-63500000D01*
X171633602Y-63703081D01*
X171636873Y-63714577D01*
X171636283Y-63784444D01*
X171605286Y-63836187D01*
X171416303Y-64025170D01*
X171354980Y-64058655D01*
X171285288Y-64053671D01*
X171229355Y-64011799D01*
X171204938Y-63946335D01*
X171209356Y-63903554D01*
X171210578Y-63899256D01*
X171210582Y-63899250D01*
X171266397Y-63703083D01*
X171285215Y-63500000D01*
X171266397Y-63296917D01*
X171210582Y-63100750D01*
X171208437Y-63096443D01*
X171144539Y-62968117D01*
X171119673Y-62918179D01*
X170996764Y-62755421D01*
X170996762Y-62755418D01*
X170846041Y-62618019D01*
X170846039Y-62618017D01*
X170672642Y-62510655D01*
X170672635Y-62510651D01*
X170538514Y-62458693D01*
X170482456Y-62436976D01*
X170281976Y-62399500D01*
X170078024Y-62399500D01*
X170026923Y-62409052D01*
X169956919Y-62422138D01*
X169887404Y-62415107D01*
X169846454Y-62387930D01*
X168655706Y-61197181D01*
X168622221Y-61135858D01*
X168627205Y-61066166D01*
X168669077Y-61010233D01*
X168734541Y-60985816D01*
X168743387Y-60985500D01*
X197970500Y-60985500D01*
X198037539Y-61005185D01*
X198083294Y-61057989D01*
X198094500Y-61109500D01*
X198094500Y-106530500D01*
X198074815Y-106597539D01*
X198022011Y-106643294D01*
X197970500Y-106654500D01*
X120799500Y-106654500D01*
X120732461Y-106634815D01*
X120686706Y-106582011D01*
X120675500Y-106530500D01*
X120675500Y-101350000D01*
X124910385Y-101350000D01*
X127926589Y-101350000D01*
X127901466Y-101447030D01*
X127891114Y-101651165D01*
X127921574Y-101850000D01*
X124913793Y-101850000D01*
X124926375Y-101975076D01*
X124926376Y-101975079D01*
X124996208Y-102268107D01*
X124996210Y-102268116D01*
X125104474Y-102549216D01*
X125104481Y-102549231D01*
X125249248Y-102813395D01*
X125249252Y-102813401D01*
X125427935Y-103055911D01*
X125637355Y-103272451D01*
X125637362Y-103272457D01*
X125873768Y-103459145D01*
X126132948Y-103612657D01*
X126132966Y-103612666D01*
X126410283Y-103730260D01*
X126410300Y-103730265D01*
X126700826Y-103809848D01*
X126999384Y-103850000D01*
X128650000Y-103850000D01*
X128650000Y-102574625D01*
X128797801Y-102605000D01*
X128950967Y-102605000D01*
X129103348Y-102589504D01*
X129150000Y-102574867D01*
X129150000Y-103850000D01*
X130725236Y-103850000D01*
X130950564Y-103834915D01*
X130950573Y-103834913D01*
X131245758Y-103774916D01*
X131245773Y-103774912D01*
X131530343Y-103676098D01*
X131530346Y-103676096D01*
X131760084Y-103560005D01*
X137484859Y-103560005D01*
X137505385Y-103807729D01*
X137505387Y-103807738D01*
X137566412Y-104048717D01*
X137666266Y-104276364D01*
X137766564Y-104429882D01*
X138464070Y-103732376D01*
X138466884Y-103745915D01*
X138536442Y-103880156D01*
X138639638Y-103990652D01*
X138768819Y-104069209D01*
X138820002Y-104083549D01*
X138119942Y-104783609D01*
X138166768Y-104820055D01*
X138166770Y-104820056D01*
X138385385Y-104938364D01*
X138385396Y-104938369D01*
X138620506Y-105019083D01*
X138865707Y-105060000D01*
X139114293Y-105060000D01*
X139359493Y-105019083D01*
X139594603Y-104938369D01*
X139594614Y-104938364D01*
X139813228Y-104820057D01*
X139813231Y-104820055D01*
X139860056Y-104783609D01*
X139161568Y-104085121D01*
X139278458Y-104034349D01*
X139395739Y-103938934D01*
X139482928Y-103815415D01*
X139513354Y-103729802D01*
X140213434Y-104429882D01*
X140313731Y-104276369D01*
X140413587Y-104048717D01*
X140474612Y-103807738D01*
X140474614Y-103807729D01*
X140495141Y-103560005D01*
X143984859Y-103560005D01*
X144005385Y-103807729D01*
X144005387Y-103807738D01*
X144066412Y-104048717D01*
X144166266Y-104276364D01*
X144266564Y-104429882D01*
X144964070Y-103732376D01*
X144966884Y-103745915D01*
X145036442Y-103880156D01*
X145139638Y-103990652D01*
X145268819Y-104069209D01*
X145320002Y-104083549D01*
X144619942Y-104783609D01*
X144666768Y-104820055D01*
X144666770Y-104820056D01*
X144885385Y-104938364D01*
X144885396Y-104938369D01*
X145120506Y-105019083D01*
X145365707Y-105060000D01*
X145614293Y-105060000D01*
X145859493Y-105019083D01*
X145941295Y-104991000D01*
X155872001Y-104991000D01*
X155872001Y-105007652D01*
X155882056Y-105106083D01*
X155934906Y-105265572D01*
X155934908Y-105265577D01*
X156023114Y-105408580D01*
X156141919Y-105527385D01*
X156284922Y-105615591D01*
X156284927Y-105615593D01*
X156444416Y-105668442D01*
X156542855Y-105678499D01*
X156721999Y-105678499D01*
X156722000Y-105678498D01*
X156722000Y-104991000D01*
X157222000Y-104991000D01*
X157222000Y-105678499D01*
X157401136Y-105678499D01*
X157401152Y-105678498D01*
X157499583Y-105668443D01*
X157659072Y-105615593D01*
X157659077Y-105615591D01*
X157802080Y-105527385D01*
X157920885Y-105408580D01*
X158009091Y-105265577D01*
X158009093Y-105265572D01*
X158061942Y-105106083D01*
X158071999Y-105007650D01*
X158072000Y-105007637D01*
X158072000Y-104991000D01*
X157222000Y-104991000D01*
X156722000Y-104991000D01*
X155872001Y-104991000D01*
X145941295Y-104991000D01*
X146094603Y-104938369D01*
X146094614Y-104938364D01*
X146313228Y-104820057D01*
X146313231Y-104820055D01*
X146360056Y-104783609D01*
X146067447Y-104491000D01*
X155872000Y-104491000D01*
X156722000Y-104491000D01*
X156722000Y-103803500D01*
X157222000Y-103803500D01*
X157222000Y-104491000D01*
X158071999Y-104491000D01*
X158071999Y-104474364D01*
X158071998Y-104474347D01*
X158061943Y-104375916D01*
X158009093Y-104216427D01*
X158009091Y-104216422D01*
X157920885Y-104073419D01*
X157802080Y-103954614D01*
X157659077Y-103866408D01*
X157659072Y-103866406D01*
X157499583Y-103813557D01*
X157401150Y-103803500D01*
X157222000Y-103803500D01*
X156722000Y-103803500D01*
X156542865Y-103803500D01*
X156542846Y-103803501D01*
X156444416Y-103813556D01*
X156284927Y-103866406D01*
X156284922Y-103866408D01*
X156141919Y-103954614D01*
X156023114Y-104073419D01*
X155934908Y-104216422D01*
X155934906Y-104216427D01*
X155882057Y-104375916D01*
X155872000Y-104474349D01*
X155872000Y-104491000D01*
X146067447Y-104491000D01*
X145661568Y-104085121D01*
X145778458Y-104034349D01*
X145895739Y-103938934D01*
X145982928Y-103815415D01*
X146013354Y-103729802D01*
X146713434Y-104429882D01*
X146813731Y-104276369D01*
X146913587Y-104048717D01*
X146974612Y-103807738D01*
X146974614Y-103807729D01*
X146992158Y-103596005D01*
X171774859Y-103596005D01*
X171795385Y-103843729D01*
X171795387Y-103843738D01*
X171856412Y-104084717D01*
X171956266Y-104312364D01*
X172056564Y-104465882D01*
X172754070Y-103768376D01*
X172756884Y-103781915D01*
X172826442Y-103916156D01*
X172929638Y-104026652D01*
X173058819Y-104105209D01*
X173110002Y-104119549D01*
X172409942Y-104819609D01*
X172456768Y-104856055D01*
X172456770Y-104856056D01*
X172675385Y-104974364D01*
X172675396Y-104974369D01*
X172910506Y-105055083D01*
X173155707Y-105096000D01*
X173404293Y-105096000D01*
X173649493Y-105055083D01*
X173884603Y-104974369D01*
X173884614Y-104974364D01*
X174103228Y-104856057D01*
X174103231Y-104856055D01*
X174150056Y-104819609D01*
X173451568Y-104121121D01*
X173568458Y-104070349D01*
X173685739Y-103974934D01*
X173772928Y-103851415D01*
X173803354Y-103765802D01*
X174503434Y-104465882D01*
X174603731Y-104312369D01*
X174703587Y-104084717D01*
X174764612Y-103843738D01*
X174764614Y-103843729D01*
X174785141Y-103596005D01*
X178274859Y-103596005D01*
X178295385Y-103843729D01*
X178295387Y-103843738D01*
X178356412Y-104084717D01*
X178456266Y-104312364D01*
X178556564Y-104465882D01*
X179254070Y-103768376D01*
X179256884Y-103781915D01*
X179326442Y-103916156D01*
X179429638Y-104026652D01*
X179558819Y-104105209D01*
X179610002Y-104119549D01*
X178909942Y-104819609D01*
X178956768Y-104856055D01*
X178956770Y-104856056D01*
X179175385Y-104974364D01*
X179175396Y-104974369D01*
X179410506Y-105055083D01*
X179655707Y-105096000D01*
X179904293Y-105096000D01*
X180149493Y-105055083D01*
X180384603Y-104974369D01*
X180384614Y-104974364D01*
X180603228Y-104856057D01*
X180603231Y-104856055D01*
X180650056Y-104819609D01*
X179951568Y-104121121D01*
X180068458Y-104070349D01*
X180185739Y-103974934D01*
X180272928Y-103851415D01*
X180303354Y-103765802D01*
X181003434Y-104465882D01*
X181103731Y-104312369D01*
X181203587Y-104084717D01*
X181264612Y-103843738D01*
X181264614Y-103843729D01*
X181285141Y-103596005D01*
X181285141Y-103595994D01*
X181264614Y-103348270D01*
X181264612Y-103348261D01*
X181203587Y-103107282D01*
X181103731Y-102879630D01*
X181003434Y-102726116D01*
X180305929Y-103423622D01*
X180303116Y-103410085D01*
X180233558Y-103275844D01*
X180130362Y-103165348D01*
X180001181Y-103086791D01*
X179949997Y-103072450D01*
X180650057Y-102372390D01*
X180650056Y-102372389D01*
X180603229Y-102335943D01*
X180384614Y-102217635D01*
X180384603Y-102217630D01*
X180149493Y-102136916D01*
X179904293Y-102096000D01*
X179655707Y-102096000D01*
X179410506Y-102136916D01*
X179175396Y-102217630D01*
X179175390Y-102217632D01*
X178956761Y-102335949D01*
X178909942Y-102372388D01*
X178909942Y-102372390D01*
X179608431Y-103070878D01*
X179491542Y-103121651D01*
X179374261Y-103217066D01*
X179287072Y-103340585D01*
X179256645Y-103426197D01*
X178556564Y-102726116D01*
X178456267Y-102879632D01*
X178356412Y-103107282D01*
X178295387Y-103348261D01*
X178295385Y-103348270D01*
X178274859Y-103595994D01*
X178274859Y-103596005D01*
X174785141Y-103596005D01*
X174785141Y-103595994D01*
X174764614Y-103348270D01*
X174764612Y-103348261D01*
X174703587Y-103107282D01*
X174603731Y-102879630D01*
X174503434Y-102726116D01*
X173805929Y-103423622D01*
X173803116Y-103410085D01*
X173733558Y-103275844D01*
X173630362Y-103165348D01*
X173501181Y-103086791D01*
X173449997Y-103072450D01*
X174150057Y-102372390D01*
X174150056Y-102372389D01*
X174103229Y-102335943D01*
X173884614Y-102217635D01*
X173884603Y-102217630D01*
X173649493Y-102136916D01*
X173404293Y-102096000D01*
X173155707Y-102096000D01*
X172910506Y-102136916D01*
X172675396Y-102217630D01*
X172675390Y-102217632D01*
X172456761Y-102335949D01*
X172409942Y-102372388D01*
X172409942Y-102372390D01*
X173108431Y-103070878D01*
X172991542Y-103121651D01*
X172874261Y-103217066D01*
X172787072Y-103340585D01*
X172756645Y-103426197D01*
X172056564Y-102726116D01*
X171956267Y-102879632D01*
X171856412Y-103107282D01*
X171795387Y-103348261D01*
X171795385Y-103348270D01*
X171774859Y-103595994D01*
X171774859Y-103596005D01*
X146992158Y-103596005D01*
X146995141Y-103560005D01*
X146995141Y-103559994D01*
X146974614Y-103312270D01*
X146974612Y-103312261D01*
X146913587Y-103071282D01*
X146813731Y-102843630D01*
X146713434Y-102690116D01*
X146015929Y-103387622D01*
X146013116Y-103374085D01*
X145943558Y-103239844D01*
X145840362Y-103129348D01*
X145711181Y-103050791D01*
X145659997Y-103036450D01*
X146360057Y-102336390D01*
X146360056Y-102336389D01*
X146313229Y-102299943D01*
X146094614Y-102181635D01*
X146094603Y-102181630D01*
X145859493Y-102100916D01*
X145614293Y-102060000D01*
X145365707Y-102060000D01*
X145120506Y-102100916D01*
X144885396Y-102181630D01*
X144885390Y-102181632D01*
X144666761Y-102299949D01*
X144619942Y-102336388D01*
X144619942Y-102336390D01*
X145318431Y-103034878D01*
X145201542Y-103085651D01*
X145084261Y-103181066D01*
X144997072Y-103304585D01*
X144966645Y-103390197D01*
X144266564Y-102690116D01*
X144166267Y-102843632D01*
X144066412Y-103071282D01*
X144005387Y-103312261D01*
X144005385Y-103312270D01*
X143984859Y-103559994D01*
X143984859Y-103560005D01*
X140495141Y-103560005D01*
X140495141Y-103559994D01*
X140474614Y-103312270D01*
X140474612Y-103312261D01*
X140413587Y-103071282D01*
X140313731Y-102843630D01*
X140213434Y-102690116D01*
X139515929Y-103387622D01*
X139513116Y-103374085D01*
X139443558Y-103239844D01*
X139340362Y-103129348D01*
X139211181Y-103050791D01*
X139159997Y-103036450D01*
X139860057Y-102336390D01*
X139860056Y-102336389D01*
X139813229Y-102299943D01*
X139594614Y-102181635D01*
X139594603Y-102181630D01*
X139359493Y-102100916D01*
X139114293Y-102060000D01*
X138865707Y-102060000D01*
X138620506Y-102100916D01*
X138385396Y-102181630D01*
X138385390Y-102181632D01*
X138166761Y-102299949D01*
X138119942Y-102336388D01*
X138119942Y-102336390D01*
X138818431Y-103034878D01*
X138701542Y-103085651D01*
X138584261Y-103181066D01*
X138497072Y-103304585D01*
X138466645Y-103390197D01*
X137766564Y-102690116D01*
X137666267Y-102843632D01*
X137566412Y-103071282D01*
X137505387Y-103312261D01*
X137505385Y-103312270D01*
X137484859Y-103559994D01*
X137484859Y-103560005D01*
X131760084Y-103560005D01*
X131799198Y-103540240D01*
X132047564Y-103369745D01*
X132270971Y-103167685D01*
X132465464Y-102937638D01*
X132627554Y-102683728D01*
X132627555Y-102683726D01*
X132754351Y-102410485D01*
X132754356Y-102410471D01*
X132843605Y-102122765D01*
X132889615Y-101850000D01*
X129873411Y-101850000D01*
X129898534Y-101752970D01*
X129908886Y-101548835D01*
X129878426Y-101350000D01*
X132886207Y-101350000D01*
X132886207Y-101349999D01*
X132873624Y-101224923D01*
X132873623Y-101224920D01*
X132803791Y-100931892D01*
X132803789Y-100931883D01*
X132695525Y-100650783D01*
X132695518Y-100650768D01*
X132550751Y-100386604D01*
X132550747Y-100386598D01*
X132372064Y-100144088D01*
X132162644Y-99927548D01*
X132162637Y-99927542D01*
X131926231Y-99740854D01*
X131667051Y-99587342D01*
X131667033Y-99587333D01*
X131389716Y-99469739D01*
X131389699Y-99469734D01*
X131099173Y-99390151D01*
X130800617Y-99350000D01*
X129150000Y-99350000D01*
X129150000Y-100625374D01*
X129002199Y-100595000D01*
X128849033Y-100595000D01*
X128696652Y-100610496D01*
X128650000Y-100625132D01*
X128650000Y-99350000D01*
X127074764Y-99350000D01*
X126849435Y-99365084D01*
X126849426Y-99365086D01*
X126554241Y-99425083D01*
X126554226Y-99425087D01*
X126269656Y-99523901D01*
X126269653Y-99523903D01*
X126000801Y-99659759D01*
X125752435Y-99830254D01*
X125529028Y-100032314D01*
X125334535Y-100262361D01*
X125172445Y-100516271D01*
X125172444Y-100516273D01*
X125045648Y-100789514D01*
X125045643Y-100789528D01*
X124956394Y-101077234D01*
X124910385Y-101350000D01*
X120675500Y-101350000D01*
X120675500Y-98809999D01*
X132251127Y-98809999D01*
X132251128Y-98810000D01*
X133610497Y-98810000D01*
X133561083Y-98895587D01*
X133531232Y-99026370D01*
X133541257Y-99160140D01*
X133590266Y-99285013D01*
X133610193Y-99310000D01*
X132251128Y-99310000D01*
X132303730Y-99506317D01*
X132303734Y-99506326D01*
X132399865Y-99712482D01*
X132530342Y-99898820D01*
X132691179Y-100059657D01*
X132877517Y-100190134D01*
X133083673Y-100286265D01*
X133083682Y-100286269D01*
X133303389Y-100345139D01*
X133303400Y-100345141D01*
X133473233Y-100359999D01*
X133473236Y-100360000D01*
X133730000Y-100360000D01*
X133730000Y-99428137D01*
X133784741Y-99465459D01*
X133912927Y-99505000D01*
X134013346Y-99505000D01*
X134112647Y-99490033D01*
X134230000Y-99433518D01*
X134230000Y-100360000D01*
X134486764Y-100360000D01*
X134486766Y-100359999D01*
X134656599Y-100345141D01*
X134656610Y-100345139D01*
X134876317Y-100286269D01*
X134876326Y-100286265D01*
X135082482Y-100190134D01*
X135268820Y-100059657D01*
X135429657Y-99898820D01*
X135560134Y-99712482D01*
X135656265Y-99506326D01*
X135656269Y-99506317D01*
X135708872Y-99310000D01*
X134349503Y-99310000D01*
X134398917Y-99224413D01*
X134428768Y-99093630D01*
X134426248Y-99060001D01*
X137684532Y-99060001D01*
X137704364Y-99286686D01*
X137704366Y-99286697D01*
X137763258Y-99506488D01*
X137763261Y-99506497D01*
X137859431Y-99712732D01*
X137859432Y-99712734D01*
X137989954Y-99899141D01*
X138150858Y-100060045D01*
X138150861Y-100060047D01*
X138337266Y-100190568D01*
X138543504Y-100286739D01*
X138763308Y-100345635D01*
X138925230Y-100359801D01*
X138989998Y-100365468D01*
X138990000Y-100365468D01*
X138990002Y-100365468D01*
X139052511Y-100359999D01*
X139216692Y-100345635D01*
X139436496Y-100286739D01*
X139642734Y-100190568D01*
X139829139Y-100060047D01*
X139990047Y-99899139D01*
X140120568Y-99712734D01*
X140134855Y-99682093D01*
X140181026Y-99629657D01*
X140247237Y-99610500D01*
X144232763Y-99610500D01*
X144299802Y-99630185D01*
X144345144Y-99682093D01*
X144356593Y-99706645D01*
X144359432Y-99712734D01*
X144489954Y-99899141D01*
X144650858Y-100060045D01*
X144650861Y-100060047D01*
X144837266Y-100190568D01*
X145043504Y-100286739D01*
X145263308Y-100345635D01*
X145425230Y-100359801D01*
X145489998Y-100365468D01*
X145490000Y-100365468D01*
X145490002Y-100365468D01*
X145552511Y-100359999D01*
X145716692Y-100345635D01*
X145936496Y-100286739D01*
X146142734Y-100190568D01*
X146329139Y-100060047D01*
X146490047Y-99899139D01*
X146620568Y-99712734D01*
X146634855Y-99682093D01*
X146681026Y-99629657D01*
X146747237Y-99610500D01*
X147794479Y-99610500D01*
X147861518Y-99630185D01*
X147907273Y-99682989D01*
X147909825Y-99688990D01*
X147919189Y-99712734D01*
X147946639Y-99782343D01*
X148038077Y-99902922D01*
X148158656Y-99994360D01*
X148158657Y-99994360D01*
X148158658Y-99994361D01*
X148299436Y-100049877D01*
X148387898Y-100060500D01*
X148387903Y-100060500D01*
X148999097Y-100060500D01*
X148999102Y-100060500D01*
X149087564Y-100049877D01*
X149228342Y-99994361D01*
X149348922Y-99902922D01*
X149440361Y-99782342D01*
X149490646Y-99654826D01*
X149533551Y-99599685D01*
X149599459Y-99576492D01*
X149667443Y-99592612D01*
X149715920Y-99642929D01*
X149721348Y-99654814D01*
X149744189Y-99712734D01*
X149771639Y-99782343D01*
X149863077Y-99902922D01*
X149983656Y-99994360D01*
X149983657Y-99994360D01*
X149983658Y-99994361D01*
X150124436Y-100049877D01*
X150212898Y-100060500D01*
X150212903Y-100060500D01*
X150824097Y-100060500D01*
X150824102Y-100060500D01*
X150912564Y-100049877D01*
X151053342Y-99994361D01*
X151173922Y-99902922D01*
X151265361Y-99782342D01*
X151320877Y-99641564D01*
X151331500Y-99553102D01*
X151331500Y-98566898D01*
X151320877Y-98478436D01*
X151265361Y-98337658D01*
X151265360Y-98337657D01*
X151265360Y-98337656D01*
X151173922Y-98217077D01*
X151053343Y-98125639D01*
X150912561Y-98070122D01*
X150866926Y-98064642D01*
X150824102Y-98059500D01*
X150212898Y-98059500D01*
X150173853Y-98064188D01*
X150124438Y-98070122D01*
X149983656Y-98125639D01*
X149863077Y-98217077D01*
X149771639Y-98337656D01*
X149757048Y-98374658D01*
X149721353Y-98465171D01*
X149678449Y-98520314D01*
X149612541Y-98543507D01*
X149544556Y-98527386D01*
X149496080Y-98477070D01*
X149490648Y-98465178D01*
X149440361Y-98337658D01*
X149440360Y-98337657D01*
X149440360Y-98337656D01*
X149348922Y-98217077D01*
X149228343Y-98125639D01*
X149087561Y-98070122D01*
X149041926Y-98064642D01*
X148999102Y-98059500D01*
X148387898Y-98059500D01*
X148348853Y-98064188D01*
X148299438Y-98070122D01*
X148158656Y-98125639D01*
X148038077Y-98217077D01*
X147946639Y-98337656D01*
X147932049Y-98374656D01*
X147909832Y-98430991D01*
X147866928Y-98486134D01*
X147801020Y-98509327D01*
X147794479Y-98509500D01*
X146747237Y-98509500D01*
X146680198Y-98489815D01*
X146634855Y-98437906D01*
X146620568Y-98407266D01*
X146490047Y-98220861D01*
X146490045Y-98220858D01*
X146329141Y-98059954D01*
X146142734Y-97929432D01*
X146142732Y-97929431D01*
X145936497Y-97833261D01*
X145936488Y-97833258D01*
X145716697Y-97774366D01*
X145716693Y-97774365D01*
X145716692Y-97774365D01*
X145716691Y-97774364D01*
X145716686Y-97774364D01*
X145490002Y-97754532D01*
X145489998Y-97754532D01*
X145263313Y-97774364D01*
X145263302Y-97774366D01*
X145043511Y-97833258D01*
X145043502Y-97833261D01*
X144837267Y-97929431D01*
X144837265Y-97929432D01*
X144650858Y-98059954D01*
X144489954Y-98220858D01*
X144359432Y-98407265D01*
X144359315Y-98407517D01*
X144345144Y-98437906D01*
X144298974Y-98490343D01*
X144232763Y-98509500D01*
X140247237Y-98509500D01*
X140180198Y-98489815D01*
X140134855Y-98437906D01*
X140120568Y-98407266D01*
X139990047Y-98220861D01*
X139990045Y-98220858D01*
X139829141Y-98059954D01*
X139642734Y-97929432D01*
X139642732Y-97929431D01*
X139436497Y-97833261D01*
X139436488Y-97833258D01*
X139216697Y-97774366D01*
X139216693Y-97774365D01*
X139216692Y-97774365D01*
X139216691Y-97774364D01*
X139216686Y-97774364D01*
X138990002Y-97754532D01*
X138989998Y-97754532D01*
X138763313Y-97774364D01*
X138763302Y-97774366D01*
X138543511Y-97833258D01*
X138543502Y-97833261D01*
X138337267Y-97929431D01*
X138337265Y-97929432D01*
X138150858Y-98059954D01*
X137989954Y-98220858D01*
X137859432Y-98407265D01*
X137859431Y-98407267D01*
X137763261Y-98613502D01*
X137763258Y-98613511D01*
X137704366Y-98833302D01*
X137704364Y-98833313D01*
X137684532Y-99059998D01*
X137684532Y-99060001D01*
X134426248Y-99060001D01*
X134418743Y-98959860D01*
X134369734Y-98834987D01*
X134349807Y-98810000D01*
X135708872Y-98810000D01*
X135708872Y-98809999D01*
X135656269Y-98613682D01*
X135656265Y-98613673D01*
X135560134Y-98407517D01*
X135429657Y-98221179D01*
X135268820Y-98060342D01*
X135082482Y-97929865D01*
X134876326Y-97833734D01*
X134876320Y-97833731D01*
X134772616Y-97805944D01*
X134712956Y-97769579D01*
X134682427Y-97706732D01*
X134690722Y-97637356D01*
X134735207Y-97583478D01*
X134769772Y-97567193D01*
X134840875Y-97546316D01*
X135027682Y-97450011D01*
X135119936Y-97377461D01*
X135158632Y-97347030D01*
X135223496Y-97321062D01*
X135235284Y-97320500D01*
X150577046Y-97320500D01*
X151014360Y-97320500D01*
X151081399Y-97340185D01*
X151113163Y-97369573D01*
X151127078Y-97387922D01*
X151247656Y-97479360D01*
X151247657Y-97479360D01*
X151247658Y-97479361D01*
X151388436Y-97534877D01*
X151476898Y-97545500D01*
X151476903Y-97545500D01*
X152063097Y-97545500D01*
X152063102Y-97545500D01*
X152151564Y-97534877D01*
X152292342Y-97479361D01*
X152412922Y-97387922D01*
X152504361Y-97267342D01*
X152559877Y-97126564D01*
X152570500Y-97038102D01*
X152570500Y-96571914D01*
X152571280Y-96558029D01*
X152575565Y-96520001D01*
X152864435Y-96520001D01*
X152868720Y-96558029D01*
X152869500Y-96571914D01*
X152869500Y-97038102D01*
X152873661Y-97072753D01*
X152880122Y-97126561D01*
X152880122Y-97126563D01*
X152880123Y-97126564D01*
X152897722Y-97171192D01*
X152935639Y-97267343D01*
X153027077Y-97387922D01*
X153147656Y-97479360D01*
X153147657Y-97479360D01*
X153147658Y-97479361D01*
X153288436Y-97534877D01*
X153376898Y-97545500D01*
X153376903Y-97545500D01*
X153963097Y-97545500D01*
X153963102Y-97545500D01*
X154051564Y-97534877D01*
X154192342Y-97479361D01*
X154312922Y-97387922D01*
X154326837Y-97369573D01*
X154383030Y-97328051D01*
X154425640Y-97320500D01*
X156297500Y-97320500D01*
X156364539Y-97340185D01*
X156410294Y-97392989D01*
X156421500Y-97444500D01*
X156421500Y-98010478D01*
X156401815Y-98077517D01*
X156349011Y-98123272D01*
X156342991Y-98125832D01*
X156249658Y-98162638D01*
X156129077Y-98254077D01*
X156037639Y-98374656D01*
X155982122Y-98515438D01*
X155976188Y-98564853D01*
X155971500Y-98603898D01*
X155971500Y-99215102D01*
X155975691Y-99250000D01*
X155982122Y-99303561D01*
X156037639Y-99444343D01*
X156129077Y-99564922D01*
X156249656Y-99656360D01*
X156249657Y-99656360D01*
X156249658Y-99656361D01*
X156377171Y-99706646D01*
X156432314Y-99749551D01*
X156455507Y-99815459D01*
X156439386Y-99883444D01*
X156389070Y-99931920D01*
X156377178Y-99937351D01*
X156325663Y-99957665D01*
X156249656Y-99987639D01*
X156129077Y-100079077D01*
X156037639Y-100199656D01*
X155982122Y-100340438D01*
X155976580Y-100386598D01*
X155971500Y-100428898D01*
X155971500Y-101040102D01*
X155973304Y-101055121D01*
X155982122Y-101128561D01*
X156037639Y-101269343D01*
X156129077Y-101389922D01*
X156249656Y-101481360D01*
X156249657Y-101481360D01*
X156249658Y-101481361D01*
X156342991Y-101518167D01*
X156398134Y-101561072D01*
X156421327Y-101626980D01*
X156421500Y-101633521D01*
X156421500Y-101821433D01*
X156401815Y-101888472D01*
X156349011Y-101934227D01*
X156342999Y-101936783D01*
X156340511Y-101937764D01*
X156333866Y-101940385D01*
X156220132Y-102026632D01*
X156133886Y-102140365D01*
X156081520Y-102273155D01*
X156081520Y-102273156D01*
X156071500Y-102356597D01*
X156071500Y-102875402D01*
X156081520Y-102958843D01*
X156081520Y-102958844D01*
X156107703Y-103025239D01*
X156131526Y-103085651D01*
X156133886Y-103091634D01*
X156220132Y-103205367D01*
X156333865Y-103291613D01*
X156333868Y-103291615D01*
X156466654Y-103343979D01*
X156550098Y-103354000D01*
X157393902Y-103354000D01*
X157477346Y-103343979D01*
X157610132Y-103291615D01*
X157723867Y-103205367D01*
X157810115Y-103091632D01*
X157862479Y-102958846D01*
X157872500Y-102875402D01*
X157872500Y-102356598D01*
X157870019Y-102335943D01*
X157865696Y-102299943D01*
X157862479Y-102273154D01*
X157810115Y-102140368D01*
X157810113Y-102140365D01*
X157723867Y-102026632D01*
X157610133Y-101940385D01*
X157604907Y-101938324D01*
X157601009Y-101936787D01*
X157545866Y-101893882D01*
X157522673Y-101827974D01*
X157522500Y-101821433D01*
X157522500Y-101633521D01*
X157542185Y-101566482D01*
X157594989Y-101520727D01*
X157600990Y-101518174D01*
X157694342Y-101481361D01*
X157814922Y-101389922D01*
X157906361Y-101269342D01*
X157913989Y-101250000D01*
X186040385Y-101250000D01*
X189056589Y-101250000D01*
X189031466Y-101347030D01*
X189021114Y-101551165D01*
X189051574Y-101750000D01*
X186043793Y-101750000D01*
X186056375Y-101875076D01*
X186056376Y-101875079D01*
X186126208Y-102168107D01*
X186126210Y-102168116D01*
X186234474Y-102449216D01*
X186234481Y-102449231D01*
X186379248Y-102713395D01*
X186379252Y-102713401D01*
X186557935Y-102955911D01*
X186767355Y-103172451D01*
X186767362Y-103172457D01*
X187003768Y-103359145D01*
X187262948Y-103512657D01*
X187262966Y-103512666D01*
X187540283Y-103630260D01*
X187540300Y-103630265D01*
X187830826Y-103709848D01*
X188129384Y-103750000D01*
X189780000Y-103750000D01*
X189780000Y-102474625D01*
X189927801Y-102505000D01*
X190080967Y-102505000D01*
X190233348Y-102489504D01*
X190280000Y-102474867D01*
X190280000Y-103750000D01*
X191855236Y-103750000D01*
X192080564Y-103734915D01*
X192080573Y-103734913D01*
X192375758Y-103674916D01*
X192375773Y-103674912D01*
X192660343Y-103576098D01*
X192660346Y-103576096D01*
X192929198Y-103440240D01*
X193177564Y-103269745D01*
X193400971Y-103067685D01*
X193595464Y-102837638D01*
X193757554Y-102583728D01*
X193757555Y-102583726D01*
X193884351Y-102310485D01*
X193884356Y-102310471D01*
X193973605Y-102022765D01*
X194019615Y-101750000D01*
X191003411Y-101750000D01*
X191028534Y-101652970D01*
X191038886Y-101448835D01*
X191008426Y-101250000D01*
X194016207Y-101250000D01*
X194016207Y-101249999D01*
X194003624Y-101124923D01*
X194003623Y-101124920D01*
X193933791Y-100831892D01*
X193933789Y-100831883D01*
X193825525Y-100550783D01*
X193825518Y-100550768D01*
X193680751Y-100286604D01*
X193680747Y-100286598D01*
X193502064Y-100044088D01*
X193292644Y-99827548D01*
X193292637Y-99827542D01*
X193056231Y-99640854D01*
X192797051Y-99487342D01*
X192797033Y-99487333D01*
X192519716Y-99369739D01*
X192519699Y-99369734D01*
X192229173Y-99290151D01*
X191930617Y-99250000D01*
X190280000Y-99250000D01*
X190280000Y-100525374D01*
X190132199Y-100495000D01*
X189979033Y-100495000D01*
X189826652Y-100510496D01*
X189780000Y-100525132D01*
X189780000Y-99250000D01*
X188204764Y-99250000D01*
X187979435Y-99265084D01*
X187979426Y-99265086D01*
X187684241Y-99325083D01*
X187684226Y-99325087D01*
X187399656Y-99423901D01*
X187399653Y-99423903D01*
X187130801Y-99559759D01*
X186882435Y-99730254D01*
X186659028Y-99932314D01*
X186464535Y-100162361D01*
X186302445Y-100416271D01*
X186302444Y-100416273D01*
X186175648Y-100689514D01*
X186175643Y-100689528D01*
X186086394Y-100977234D01*
X186040385Y-101250000D01*
X157913989Y-101250000D01*
X157961877Y-101128564D01*
X157972500Y-101040102D01*
X157972500Y-100428898D01*
X157961877Y-100340436D01*
X157906361Y-100199658D01*
X157906360Y-100199657D01*
X157906360Y-100199656D01*
X157814922Y-100079077D01*
X157694343Y-99987639D01*
X157656339Y-99972652D01*
X157566826Y-99937353D01*
X157511685Y-99894449D01*
X157488492Y-99828541D01*
X157504612Y-99760557D01*
X157554929Y-99712080D01*
X157566814Y-99706651D01*
X157694342Y-99656361D01*
X157814922Y-99564922D01*
X157823885Y-99553102D01*
X166827000Y-99553102D01*
X166829809Y-99576492D01*
X166837622Y-99641561D01*
X166893139Y-99782343D01*
X166984577Y-99902922D01*
X167105156Y-99994360D01*
X167105157Y-99994360D01*
X167105158Y-99994361D01*
X167245936Y-100049877D01*
X167334398Y-100060500D01*
X167334403Y-100060500D01*
X167945597Y-100060500D01*
X167945602Y-100060500D01*
X168034064Y-100049877D01*
X168174842Y-99994361D01*
X168295422Y-99902922D01*
X168386861Y-99782342D01*
X168437146Y-99654826D01*
X168480051Y-99599685D01*
X168545959Y-99576492D01*
X168613943Y-99592612D01*
X168662420Y-99642929D01*
X168667848Y-99654814D01*
X168690689Y-99712734D01*
X168718139Y-99782343D01*
X168809577Y-99902922D01*
X168930156Y-99994360D01*
X168930157Y-99994360D01*
X168930158Y-99994361D01*
X169070936Y-100049877D01*
X169159398Y-100060500D01*
X169159403Y-100060500D01*
X169770597Y-100060500D01*
X169770602Y-100060500D01*
X169859064Y-100049877D01*
X169999842Y-99994361D01*
X170120422Y-99902922D01*
X170211861Y-99782342D01*
X170234470Y-99725008D01*
X170277375Y-99669866D01*
X170343283Y-99646673D01*
X170349824Y-99646500D01*
X172022763Y-99646500D01*
X172089802Y-99666185D01*
X172135144Y-99718093D01*
X172149431Y-99748732D01*
X172149432Y-99748734D01*
X172279954Y-99935141D01*
X172440858Y-100096045D01*
X172440861Y-100096047D01*
X172627266Y-100226568D01*
X172833504Y-100322739D01*
X173053308Y-100381635D01*
X173215230Y-100395801D01*
X173279998Y-100401468D01*
X173280000Y-100401468D01*
X173280002Y-100401468D01*
X173336673Y-100396509D01*
X173506692Y-100381635D01*
X173726496Y-100322739D01*
X173932734Y-100226568D01*
X174119139Y-100096047D01*
X174280047Y-99935139D01*
X174410568Y-99748734D01*
X174424855Y-99718093D01*
X174471026Y-99665657D01*
X174537237Y-99646500D01*
X178522763Y-99646500D01*
X178589802Y-99666185D01*
X178635144Y-99718093D01*
X178649431Y-99748732D01*
X178649432Y-99748734D01*
X178779954Y-99935141D01*
X178940858Y-100096045D01*
X178940861Y-100096047D01*
X179127266Y-100226568D01*
X179333504Y-100322739D01*
X179553308Y-100381635D01*
X179715230Y-100395801D01*
X179779998Y-100401468D01*
X179780000Y-100401468D01*
X179780002Y-100401468D01*
X179836673Y-100396509D01*
X180006692Y-100381635D01*
X180226496Y-100322739D01*
X180432734Y-100226568D01*
X180619139Y-100096047D01*
X180780047Y-99935139D01*
X180910568Y-99748734D01*
X181006739Y-99542496D01*
X181065635Y-99322692D01*
X181085468Y-99096000D01*
X181082318Y-99060001D01*
X181065635Y-98869313D01*
X181065635Y-98869308D01*
X181006739Y-98649504D01*
X180910568Y-98443266D01*
X180780047Y-98256861D01*
X180780045Y-98256858D01*
X180619141Y-98095954D01*
X180432734Y-97965432D01*
X180432732Y-97965431D01*
X180226497Y-97869261D01*
X180226488Y-97869258D01*
X180006697Y-97810366D01*
X180006693Y-97810365D01*
X180006692Y-97810365D01*
X180006691Y-97810364D01*
X180006686Y-97810364D01*
X179780002Y-97790532D01*
X179779998Y-97790532D01*
X179553313Y-97810364D01*
X179553302Y-97810366D01*
X179333511Y-97869258D01*
X179333502Y-97869261D01*
X179127267Y-97965431D01*
X179127265Y-97965432D01*
X178940858Y-98095954D01*
X178779954Y-98256858D01*
X178649432Y-98443265D01*
X178644501Y-98453840D01*
X178635144Y-98473906D01*
X178588974Y-98526343D01*
X178522763Y-98545500D01*
X174537237Y-98545500D01*
X174470198Y-98525815D01*
X174424855Y-98473906D01*
X174410568Y-98443266D01*
X174280047Y-98256861D01*
X174280045Y-98256858D01*
X174119141Y-98095954D01*
X173932734Y-97965432D01*
X173932732Y-97965431D01*
X173726497Y-97869261D01*
X173726488Y-97869258D01*
X173506697Y-97810366D01*
X173506693Y-97810365D01*
X173506692Y-97810365D01*
X173506691Y-97810364D01*
X173506686Y-97810364D01*
X173280002Y-97790532D01*
X173279998Y-97790532D01*
X173053313Y-97810364D01*
X173053302Y-97810366D01*
X172833511Y-97869258D01*
X172833502Y-97869261D01*
X172627267Y-97965431D01*
X172627265Y-97965432D01*
X172440858Y-98095954D01*
X172279954Y-98256858D01*
X172149432Y-98443265D01*
X172144501Y-98453840D01*
X172135144Y-98473906D01*
X172088974Y-98526343D01*
X172022763Y-98545500D01*
X170378218Y-98545500D01*
X170311179Y-98525815D01*
X170265424Y-98473011D01*
X170262864Y-98466990D01*
X170211862Y-98337660D01*
X170211861Y-98337658D01*
X170120422Y-98217077D01*
X169999843Y-98125639D01*
X169859061Y-98070122D01*
X169813426Y-98064642D01*
X169770602Y-98059500D01*
X169159398Y-98059500D01*
X169120353Y-98064188D01*
X169070938Y-98070122D01*
X168930156Y-98125639D01*
X168809577Y-98217077D01*
X168718139Y-98337656D01*
X168703548Y-98374658D01*
X168667853Y-98465171D01*
X168624949Y-98520314D01*
X168559041Y-98543507D01*
X168491056Y-98527386D01*
X168442580Y-98477070D01*
X168437148Y-98465178D01*
X168386861Y-98337658D01*
X168386860Y-98337657D01*
X168386860Y-98337656D01*
X168295422Y-98217077D01*
X168174843Y-98125639D01*
X168034061Y-98070122D01*
X167988426Y-98064642D01*
X167945602Y-98059500D01*
X167334398Y-98059500D01*
X167295353Y-98064188D01*
X167245938Y-98070122D01*
X167105156Y-98125639D01*
X166984577Y-98217077D01*
X166893139Y-98337656D01*
X166837622Y-98478438D01*
X166832594Y-98520314D01*
X166827000Y-98566898D01*
X166827000Y-99553102D01*
X157823885Y-99553102D01*
X157906361Y-99444342D01*
X157961877Y-99303564D01*
X157972500Y-99215102D01*
X157972500Y-98603898D01*
X157961877Y-98515436D01*
X157906361Y-98374658D01*
X157906360Y-98374657D01*
X157906360Y-98374656D01*
X157814922Y-98254077D01*
X157694341Y-98162638D01*
X157601009Y-98125832D01*
X157545866Y-98082926D01*
X157522673Y-98017018D01*
X157522500Y-98010478D01*
X157522500Y-97444500D01*
X157542185Y-97377461D01*
X157594989Y-97331706D01*
X157646500Y-97320500D01*
X158794957Y-97320500D01*
X158794958Y-97320499D01*
X158862104Y-97312934D01*
X158929249Y-97305369D01*
X158929252Y-97305368D01*
X158929255Y-97305368D01*
X159099522Y-97245789D01*
X159252262Y-97149816D01*
X159379816Y-97022262D01*
X159475789Y-96869522D01*
X159535368Y-96699255D01*
X159537466Y-96680634D01*
X159555565Y-96520003D01*
X160044435Y-96520003D01*
X160064630Y-96699249D01*
X160064631Y-96699254D01*
X160124211Y-96869523D01*
X160220184Y-97022262D01*
X160347738Y-97149816D01*
X160438080Y-97206582D01*
X160497565Y-97243959D01*
X160500478Y-97245789D01*
X160562073Y-97267342D01*
X160670745Y-97305368D01*
X160670750Y-97305369D01*
X160761246Y-97315565D01*
X160805040Y-97320499D01*
X160805043Y-97320500D01*
X160805046Y-97320500D01*
X162261046Y-97320500D01*
X164222360Y-97320500D01*
X164289399Y-97340185D01*
X164321163Y-97369573D01*
X164335078Y-97387922D01*
X164455656Y-97479360D01*
X164455657Y-97479360D01*
X164455658Y-97479361D01*
X164596436Y-97534877D01*
X164684898Y-97545500D01*
X164684903Y-97545500D01*
X165271097Y-97545500D01*
X165271102Y-97545500D01*
X165359564Y-97534877D01*
X165500342Y-97479361D01*
X165620922Y-97387922D01*
X165712361Y-97267342D01*
X165767877Y-97126564D01*
X165778500Y-97038102D01*
X165778500Y-96571914D01*
X165779280Y-96558029D01*
X165783565Y-96520001D01*
X166072435Y-96520001D01*
X166076720Y-96558029D01*
X166077500Y-96571914D01*
X166077500Y-97038102D01*
X166081661Y-97072753D01*
X166088122Y-97126561D01*
X166088122Y-97126563D01*
X166088123Y-97126564D01*
X166105722Y-97171192D01*
X166143639Y-97267343D01*
X166235077Y-97387922D01*
X166355656Y-97479360D01*
X166355657Y-97479360D01*
X166355658Y-97479361D01*
X166496436Y-97534877D01*
X166584898Y-97545500D01*
X166584903Y-97545500D01*
X167171097Y-97545500D01*
X167171102Y-97545500D01*
X167259564Y-97534877D01*
X167400342Y-97479361D01*
X167520922Y-97387922D01*
X167534837Y-97369573D01*
X167591030Y-97328051D01*
X167633640Y-97320500D01*
X179533046Y-97320500D01*
X183829248Y-97320500D01*
X183896287Y-97340185D01*
X183993423Y-97402610D01*
X183993428Y-97402613D01*
X184188543Y-97480725D01*
X184291729Y-97500612D01*
X184394914Y-97520500D01*
X184394915Y-97520500D01*
X185452419Y-97520500D01*
X185452425Y-97520500D01*
X185609218Y-97505528D01*
X185810875Y-97446316D01*
X185997682Y-97350011D01*
X186020959Y-97331706D01*
X186132537Y-97243959D01*
X186162886Y-97220092D01*
X186300519Y-97061256D01*
X186313891Y-97038096D01*
X186405601Y-96879249D01*
X186405600Y-96879249D01*
X186405604Y-96879244D01*
X186474344Y-96680633D01*
X186504254Y-96472602D01*
X186494254Y-96262670D01*
X186444704Y-96058424D01*
X186444701Y-96058417D01*
X186357401Y-95867256D01*
X186357398Y-95867251D01*
X186357397Y-95867250D01*
X186357396Y-95867247D01*
X186235486Y-95696048D01*
X186235484Y-95696046D01*
X186235479Y-95696040D01*
X186083379Y-95551014D01*
X185906574Y-95437388D01*
X185899290Y-95434472D01*
X185732814Y-95367825D01*
X185677892Y-95324634D01*
X185655040Y-95258607D01*
X185671513Y-95190707D01*
X185722080Y-95142491D01*
X185746808Y-95132932D01*
X185846315Y-95106270D01*
X185846326Y-95106265D01*
X186052482Y-95010134D01*
X186238820Y-94879657D01*
X186399657Y-94718820D01*
X186530134Y-94532482D01*
X186626265Y-94326326D01*
X186626269Y-94326317D01*
X186678872Y-94130000D01*
X185319503Y-94130000D01*
X185368917Y-94044413D01*
X185398768Y-93913630D01*
X185388743Y-93779860D01*
X185339734Y-93654987D01*
X185319807Y-93630000D01*
X186678872Y-93630000D01*
X186678872Y-93629999D01*
X186626269Y-93433682D01*
X186626265Y-93433673D01*
X186530134Y-93227517D01*
X186399657Y-93041179D01*
X186238820Y-92880342D01*
X186052482Y-92749865D01*
X185846326Y-92653734D01*
X185846317Y-92653730D01*
X185626610Y-92594860D01*
X185626599Y-92594858D01*
X185456766Y-92580000D01*
X185200000Y-92580000D01*
X185200000Y-93511862D01*
X185145259Y-93474541D01*
X185017073Y-93435000D01*
X184916654Y-93435000D01*
X184817353Y-93449967D01*
X184700000Y-93506481D01*
X184700000Y-92580000D01*
X184443233Y-92580000D01*
X184273400Y-92594858D01*
X184273389Y-92594860D01*
X184053682Y-92653730D01*
X184053673Y-92653734D01*
X183847517Y-92749865D01*
X183661179Y-92880342D01*
X183500342Y-93041179D01*
X183369865Y-93227517D01*
X183273734Y-93433673D01*
X183273730Y-93433682D01*
X183221127Y-93629999D01*
X183221128Y-93630000D01*
X184580497Y-93630000D01*
X184531083Y-93715587D01*
X184501232Y-93846370D01*
X184511257Y-93980140D01*
X184560266Y-94105013D01*
X184580193Y-94130000D01*
X183221128Y-94130000D01*
X183273730Y-94326317D01*
X183273734Y-94326326D01*
X183369865Y-94532482D01*
X183500342Y-94718820D01*
X183661179Y-94879657D01*
X183847517Y-95010134D01*
X184053673Y-95106265D01*
X184053682Y-95106269D01*
X184157382Y-95134055D01*
X184217043Y-95170420D01*
X184247572Y-95233266D01*
X184239278Y-95302642D01*
X184194792Y-95356520D01*
X184160225Y-95372807D01*
X184089126Y-95393683D01*
X183902313Y-95489991D01*
X183737116Y-95619905D01*
X183737113Y-95619908D01*
X183687901Y-95676703D01*
X183629123Y-95714477D01*
X183594188Y-95719500D01*
X180379500Y-95719500D01*
X180312461Y-95699815D01*
X180266706Y-95647011D01*
X180255500Y-95595500D01*
X180255500Y-95537521D01*
X180275185Y-95470482D01*
X180327989Y-95424727D01*
X180333990Y-95422174D01*
X180427342Y-95385361D01*
X180547922Y-95293922D01*
X180639361Y-95173342D01*
X180694877Y-95032564D01*
X180705500Y-94944102D01*
X180705500Y-94332898D01*
X180694877Y-94244436D01*
X180639361Y-94103658D01*
X180639360Y-94103657D01*
X180639360Y-94103656D01*
X180547922Y-93983077D01*
X180427343Y-93891639D01*
X180389339Y-93876652D01*
X180299826Y-93841353D01*
X180244685Y-93798449D01*
X180221492Y-93732541D01*
X180237612Y-93664557D01*
X180287929Y-93616080D01*
X180299814Y-93610651D01*
X180427342Y-93560361D01*
X180547922Y-93468922D01*
X180639361Y-93348342D01*
X180694877Y-93207564D01*
X180705500Y-93119102D01*
X180705500Y-92507898D01*
X180694877Y-92419436D01*
X180639361Y-92278658D01*
X180639360Y-92278657D01*
X180639360Y-92278656D01*
X180547922Y-92158077D01*
X180427341Y-92066638D01*
X180334009Y-92029832D01*
X180278866Y-91986926D01*
X180255673Y-91921018D01*
X180255500Y-91914478D01*
X180255500Y-91519066D01*
X180275185Y-91452027D01*
X180327989Y-91406272D01*
X180333994Y-91403718D01*
X180343132Y-91400115D01*
X180456867Y-91313867D01*
X180543115Y-91200132D01*
X180586545Y-91090000D01*
X186040385Y-91090000D01*
X189056589Y-91090000D01*
X189031466Y-91187030D01*
X189021114Y-91391165D01*
X189051574Y-91590000D01*
X186043793Y-91590000D01*
X186056375Y-91715076D01*
X186056376Y-91715079D01*
X186126208Y-92008107D01*
X186126210Y-92008116D01*
X186234474Y-92289216D01*
X186234481Y-92289231D01*
X186379248Y-92553395D01*
X186379252Y-92553401D01*
X186557935Y-92795911D01*
X186767355Y-93012451D01*
X186767362Y-93012457D01*
X187003768Y-93199145D01*
X187262948Y-93352657D01*
X187262966Y-93352666D01*
X187540283Y-93470260D01*
X187540300Y-93470265D01*
X187830826Y-93549848D01*
X188129384Y-93590000D01*
X189780000Y-93590000D01*
X189780000Y-92314625D01*
X189927801Y-92345000D01*
X190080967Y-92345000D01*
X190233348Y-92329504D01*
X190280000Y-92314867D01*
X190280000Y-93590000D01*
X191855236Y-93590000D01*
X192080564Y-93574915D01*
X192080573Y-93574913D01*
X192375758Y-93514916D01*
X192375773Y-93514912D01*
X192660343Y-93416098D01*
X192660346Y-93416096D01*
X192929198Y-93280240D01*
X193177564Y-93109745D01*
X193400971Y-92907685D01*
X193595464Y-92677638D01*
X193757554Y-92423728D01*
X193757555Y-92423726D01*
X193884351Y-92150485D01*
X193884356Y-92150471D01*
X193973605Y-91862765D01*
X194019615Y-91590000D01*
X191003411Y-91590000D01*
X191028534Y-91492970D01*
X191038886Y-91288835D01*
X191008426Y-91090000D01*
X194016207Y-91090000D01*
X194016207Y-91089999D01*
X194003624Y-90964923D01*
X194003623Y-90964920D01*
X193933791Y-90671892D01*
X193933789Y-90671883D01*
X193825525Y-90390783D01*
X193825518Y-90390768D01*
X193680751Y-90126604D01*
X193680747Y-90126598D01*
X193502064Y-89884088D01*
X193292644Y-89667548D01*
X193292637Y-89667542D01*
X193056231Y-89480854D01*
X192797051Y-89327342D01*
X192797033Y-89327333D01*
X192519716Y-89209739D01*
X192519699Y-89209734D01*
X192229173Y-89130151D01*
X191930617Y-89090000D01*
X190280000Y-89090000D01*
X190280000Y-90365374D01*
X190132199Y-90335000D01*
X189979033Y-90335000D01*
X189826652Y-90350496D01*
X189780000Y-90365132D01*
X189780000Y-89090000D01*
X188204764Y-89090000D01*
X187979435Y-89105084D01*
X187979426Y-89105086D01*
X187684241Y-89165083D01*
X187684226Y-89165087D01*
X187399656Y-89263901D01*
X187399653Y-89263903D01*
X187130801Y-89399759D01*
X186882435Y-89570254D01*
X186659028Y-89772314D01*
X186464535Y-90002361D01*
X186302445Y-90256271D01*
X186302444Y-90256273D01*
X186175648Y-90529514D01*
X186175643Y-90529528D01*
X186086394Y-90817234D01*
X186040385Y-91090000D01*
X180586545Y-91090000D01*
X180595479Y-91067346D01*
X180605500Y-90983902D01*
X180605500Y-90465098D01*
X180604497Y-90456750D01*
X180599916Y-90418598D01*
X180595479Y-90381654D01*
X180543115Y-90248868D01*
X180507851Y-90202365D01*
X180456867Y-90135132D01*
X180343134Y-90048886D01*
X180343132Y-90048885D01*
X180210346Y-89996521D01*
X180210345Y-89996520D01*
X180210343Y-89996520D01*
X180126902Y-89986500D01*
X179283098Y-89986500D01*
X179199656Y-89996520D01*
X179199655Y-89996520D01*
X179066865Y-90048886D01*
X178953132Y-90135132D01*
X178866886Y-90248865D01*
X178814520Y-90381655D01*
X178814520Y-90381656D01*
X178804500Y-90465097D01*
X178804500Y-90983902D01*
X178814520Y-91067343D01*
X178814520Y-91067344D01*
X178840703Y-91133739D01*
X178862889Y-91190000D01*
X178866886Y-91200134D01*
X178953132Y-91313867D01*
X179066865Y-91400113D01*
X179066868Y-91400115D01*
X179075987Y-91403711D01*
X179131131Y-91446614D01*
X179154327Y-91512521D01*
X179154500Y-91519066D01*
X179154500Y-91914478D01*
X179134815Y-91981517D01*
X179082011Y-92027272D01*
X179075991Y-92029832D01*
X178982658Y-92066638D01*
X178862077Y-92158077D01*
X178770639Y-92278656D01*
X178715122Y-92419438D01*
X178712053Y-92445000D01*
X178704500Y-92507898D01*
X178704500Y-93119102D01*
X178710126Y-93165954D01*
X178715122Y-93207561D01*
X178715122Y-93207563D01*
X178715123Y-93207564D01*
X178732722Y-93252192D01*
X178770639Y-93348343D01*
X178862077Y-93468922D01*
X178982656Y-93560360D01*
X178982657Y-93560360D01*
X178982658Y-93560361D01*
X179110171Y-93610646D01*
X179165314Y-93653551D01*
X179188507Y-93719459D01*
X179172386Y-93787444D01*
X179122070Y-93835920D01*
X179110178Y-93841351D01*
X179058663Y-93861665D01*
X178982656Y-93891639D01*
X178862077Y-93983077D01*
X178770639Y-94103656D01*
X178715122Y-94244438D01*
X178714235Y-94251829D01*
X178704500Y-94332898D01*
X178704500Y-94944102D01*
X178710126Y-94990954D01*
X178715122Y-95032561D01*
X178770639Y-95173343D01*
X178862077Y-95293922D01*
X178982656Y-95385360D01*
X178982657Y-95385360D01*
X178982658Y-95385361D01*
X179075991Y-95422167D01*
X179131134Y-95465072D01*
X179154327Y-95530980D01*
X179154500Y-95537521D01*
X179154500Y-95595500D01*
X179134815Y-95662539D01*
X179082011Y-95708294D01*
X179030500Y-95719500D01*
X167633640Y-95719500D01*
X167566601Y-95699815D01*
X167534837Y-95670427D01*
X167525877Y-95658612D01*
X167520922Y-95652078D01*
X167520921Y-95652077D01*
X167400343Y-95560639D01*
X167259561Y-95505122D01*
X167213926Y-95499642D01*
X167171102Y-95494500D01*
X166584898Y-95494500D01*
X166545853Y-95499188D01*
X166496438Y-95505122D01*
X166355656Y-95560639D01*
X166235077Y-95652077D01*
X166143639Y-95772656D01*
X166088122Y-95913438D01*
X166082188Y-95962853D01*
X166077500Y-96001898D01*
X166077500Y-96001903D01*
X166077500Y-96468085D01*
X166076720Y-96481969D01*
X166072435Y-96519998D01*
X166072435Y-96520001D01*
X165783565Y-96520001D01*
X165783565Y-96519998D01*
X165779280Y-96481969D01*
X165778500Y-96468085D01*
X165778500Y-96001903D01*
X165778500Y-96001898D01*
X165767877Y-95913436D01*
X165712361Y-95772658D01*
X165712360Y-95772657D01*
X165712360Y-95772656D01*
X165620921Y-95652076D01*
X165572574Y-95615413D01*
X165531051Y-95559220D01*
X165523500Y-95516610D01*
X165523500Y-95387021D01*
X165543185Y-95319982D01*
X165595989Y-95274227D01*
X165601990Y-95271674D01*
X165695342Y-95234861D01*
X165815922Y-95143422D01*
X165907361Y-95022842D01*
X165962877Y-94882064D01*
X165973500Y-94793602D01*
X165973500Y-94182398D01*
X165962877Y-94093936D01*
X165907361Y-93953158D01*
X165907360Y-93953157D01*
X165907360Y-93953156D01*
X165815922Y-93832577D01*
X165695343Y-93741139D01*
X165657339Y-93726152D01*
X165567826Y-93690853D01*
X165512685Y-93647949D01*
X165489492Y-93582041D01*
X165505612Y-93514057D01*
X165555929Y-93465580D01*
X165567814Y-93460151D01*
X165695342Y-93409861D01*
X165815922Y-93318422D01*
X165907361Y-93197842D01*
X165962877Y-93057064D01*
X165973500Y-92968602D01*
X165973500Y-92357398D01*
X165962877Y-92268936D01*
X165907361Y-92128158D01*
X165907360Y-92128157D01*
X165907360Y-92128156D01*
X165815922Y-92007577D01*
X165695341Y-91916138D01*
X165602009Y-91879332D01*
X165597733Y-91876005D01*
X168674859Y-91876005D01*
X168695385Y-92123729D01*
X168695387Y-92123738D01*
X168756412Y-92364717D01*
X168856266Y-92592364D01*
X168956564Y-92745882D01*
X169654070Y-92048376D01*
X169656884Y-92061915D01*
X169726442Y-92196156D01*
X169829638Y-92306652D01*
X169958819Y-92385209D01*
X170010002Y-92399549D01*
X169309942Y-93099609D01*
X169356768Y-93136055D01*
X169356770Y-93136056D01*
X169575385Y-93254364D01*
X169575396Y-93254369D01*
X169810506Y-93335083D01*
X170055707Y-93376000D01*
X170304293Y-93376000D01*
X170549493Y-93335083D01*
X170784603Y-93254369D01*
X170784614Y-93254364D01*
X171003228Y-93136057D01*
X171003231Y-93136055D01*
X171050056Y-93099609D01*
X170351568Y-92401121D01*
X170468458Y-92350349D01*
X170585739Y-92254934D01*
X170672928Y-92131415D01*
X170703354Y-92045802D01*
X171403434Y-92745882D01*
X171503731Y-92592369D01*
X171603587Y-92364717D01*
X171664612Y-92123738D01*
X171664614Y-92123729D01*
X171685141Y-91876005D01*
X175174859Y-91876005D01*
X175195385Y-92123729D01*
X175195387Y-92123738D01*
X175256412Y-92364717D01*
X175356266Y-92592364D01*
X175456564Y-92745882D01*
X176154070Y-92048376D01*
X176156884Y-92061915D01*
X176226442Y-92196156D01*
X176329638Y-92306652D01*
X176458819Y-92385209D01*
X176510002Y-92399549D01*
X175809942Y-93099609D01*
X175856768Y-93136055D01*
X175856770Y-93136056D01*
X176075385Y-93254364D01*
X176075396Y-93254369D01*
X176310506Y-93335083D01*
X176555707Y-93376000D01*
X176804293Y-93376000D01*
X177049493Y-93335083D01*
X177284603Y-93254369D01*
X177284614Y-93254364D01*
X177503228Y-93136057D01*
X177503231Y-93136055D01*
X177550056Y-93099609D01*
X176851568Y-92401121D01*
X176968458Y-92350349D01*
X177085739Y-92254934D01*
X177172928Y-92131415D01*
X177203354Y-92045802D01*
X177903434Y-92745882D01*
X178003731Y-92592369D01*
X178103587Y-92364717D01*
X178164612Y-92123738D01*
X178164614Y-92123729D01*
X178185141Y-91876005D01*
X178185141Y-91875994D01*
X178164614Y-91628270D01*
X178164612Y-91628261D01*
X178103587Y-91387282D01*
X178003731Y-91159630D01*
X177903434Y-91006116D01*
X177205929Y-91703622D01*
X177203116Y-91690085D01*
X177133558Y-91555844D01*
X177030362Y-91445348D01*
X176901181Y-91366791D01*
X176849997Y-91352450D01*
X177550057Y-90652390D01*
X177550056Y-90652389D01*
X177503229Y-90615943D01*
X177284614Y-90497635D01*
X177284603Y-90497630D01*
X177049493Y-90416916D01*
X176804293Y-90376000D01*
X176555707Y-90376000D01*
X176310506Y-90416916D01*
X176075396Y-90497630D01*
X176075390Y-90497632D01*
X175856761Y-90615949D01*
X175809942Y-90652388D01*
X175809942Y-90652390D01*
X176508431Y-91350878D01*
X176391542Y-91401651D01*
X176274261Y-91497066D01*
X176187072Y-91620585D01*
X176156645Y-91706197D01*
X175456564Y-91006116D01*
X175356267Y-91159632D01*
X175256412Y-91387282D01*
X175195387Y-91628261D01*
X175195385Y-91628270D01*
X175174859Y-91875994D01*
X175174859Y-91876005D01*
X171685141Y-91876005D01*
X171685141Y-91875994D01*
X171664614Y-91628270D01*
X171664612Y-91628261D01*
X171603587Y-91387282D01*
X171503731Y-91159630D01*
X171403434Y-91006116D01*
X170705929Y-91703622D01*
X170703116Y-91690085D01*
X170633558Y-91555844D01*
X170530362Y-91445348D01*
X170401181Y-91366791D01*
X170349997Y-91352450D01*
X171050057Y-90652390D01*
X171050056Y-90652389D01*
X171003229Y-90615943D01*
X170784614Y-90497635D01*
X170784603Y-90497630D01*
X170549493Y-90416916D01*
X170304293Y-90376000D01*
X170055707Y-90376000D01*
X169810506Y-90416916D01*
X169575396Y-90497630D01*
X169575390Y-90497632D01*
X169356761Y-90615949D01*
X169309942Y-90652388D01*
X169309942Y-90652390D01*
X170008431Y-91350878D01*
X169891542Y-91401651D01*
X169774261Y-91497066D01*
X169687072Y-91620585D01*
X169656645Y-91706197D01*
X168956564Y-91006116D01*
X168856267Y-91159632D01*
X168756412Y-91387282D01*
X168695387Y-91628261D01*
X168695385Y-91628270D01*
X168674859Y-91875994D01*
X168674859Y-91876005D01*
X165597733Y-91876005D01*
X165546866Y-91836426D01*
X165523673Y-91770518D01*
X165523500Y-91763978D01*
X165523500Y-91472566D01*
X165543185Y-91405527D01*
X165595989Y-91359772D01*
X165601994Y-91357218D01*
X165611132Y-91353615D01*
X165724867Y-91267367D01*
X165811115Y-91153632D01*
X165863479Y-91020846D01*
X165873500Y-90937402D01*
X165873500Y-90418598D01*
X165863479Y-90335154D01*
X165811115Y-90202368D01*
X165811113Y-90202365D01*
X165724867Y-90088632D01*
X165611134Y-90002386D01*
X165611132Y-90002385D01*
X165478346Y-89950021D01*
X165478345Y-89950020D01*
X165478343Y-89950020D01*
X165394902Y-89940000D01*
X164551098Y-89940000D01*
X164467656Y-89950020D01*
X164467655Y-89950020D01*
X164334865Y-90002386D01*
X164221132Y-90088632D01*
X164134886Y-90202365D01*
X164082520Y-90335155D01*
X164082520Y-90335156D01*
X164072500Y-90418597D01*
X164072500Y-90937402D01*
X164082520Y-91020843D01*
X164082520Y-91020844D01*
X164134886Y-91153634D01*
X164221132Y-91267367D01*
X164297169Y-91325027D01*
X164334868Y-91353615D01*
X164343987Y-91357211D01*
X164399131Y-91400114D01*
X164422327Y-91466021D01*
X164422500Y-91472566D01*
X164422500Y-91763978D01*
X164402815Y-91831017D01*
X164350011Y-91876772D01*
X164343991Y-91879332D01*
X164250658Y-91916138D01*
X164130077Y-92007577D01*
X164038639Y-92128156D01*
X163983122Y-92268938D01*
X163978930Y-92303855D01*
X163972500Y-92357398D01*
X163972500Y-92968602D01*
X163977193Y-93007685D01*
X163983122Y-93057061D01*
X164038639Y-93197843D01*
X164130077Y-93318422D01*
X164250656Y-93409860D01*
X164250657Y-93409860D01*
X164250658Y-93409861D01*
X164378171Y-93460146D01*
X164433314Y-93503051D01*
X164456507Y-93568959D01*
X164440386Y-93636944D01*
X164390070Y-93685420D01*
X164378178Y-93690851D01*
X164326663Y-93711165D01*
X164250656Y-93741139D01*
X164130077Y-93832577D01*
X164038639Y-93953156D01*
X163983122Y-94093938D01*
X163978792Y-94130000D01*
X163972500Y-94182398D01*
X163972500Y-94793602D01*
X163976938Y-94830561D01*
X163983122Y-94882061D01*
X164038639Y-95022843D01*
X164130077Y-95143422D01*
X164250656Y-95234860D01*
X164250657Y-95234860D01*
X164250658Y-95234861D01*
X164343991Y-95271667D01*
X164399134Y-95314572D01*
X164422327Y-95380480D01*
X164422500Y-95387021D01*
X164422500Y-95524194D01*
X164402815Y-95591233D01*
X164373427Y-95622997D01*
X164335076Y-95652079D01*
X164335075Y-95652080D01*
X164321163Y-95670427D01*
X164264970Y-95711949D01*
X164222360Y-95719500D01*
X163217500Y-95719500D01*
X163150461Y-95699815D01*
X163104706Y-95647011D01*
X163093500Y-95595500D01*
X163093500Y-95223597D01*
X163113185Y-95156558D01*
X163142575Y-95124793D01*
X163185922Y-95091922D01*
X163277360Y-94971343D01*
X163277359Y-94971343D01*
X163277361Y-94971342D01*
X163332877Y-94830564D01*
X163343500Y-94742102D01*
X163343500Y-92455898D01*
X163332877Y-92367436D01*
X163277361Y-92226658D01*
X163277360Y-92226657D01*
X163277360Y-92226656D01*
X163185922Y-92106077D01*
X163065343Y-92014639D01*
X162924561Y-91959122D01*
X162878926Y-91953642D01*
X162836102Y-91948500D01*
X161749898Y-91948500D01*
X161710853Y-91953188D01*
X161661438Y-91959122D01*
X161520656Y-92014639D01*
X161400077Y-92106077D01*
X161308639Y-92226656D01*
X161253122Y-92367438D01*
X161247188Y-92416853D01*
X161242500Y-92455898D01*
X161242500Y-94742102D01*
X161246878Y-94778561D01*
X161253122Y-94830561D01*
X161308639Y-94971343D01*
X161400077Y-95091922D01*
X161443425Y-95124793D01*
X161484948Y-95180985D01*
X161492500Y-95223597D01*
X161492500Y-95595500D01*
X161472815Y-95662539D01*
X161420011Y-95708294D01*
X161368500Y-95719500D01*
X160805039Y-95719500D01*
X160670750Y-95734630D01*
X160670745Y-95734631D01*
X160500476Y-95794211D01*
X160347737Y-95890184D01*
X160220184Y-96017737D01*
X160124211Y-96170476D01*
X160064631Y-96340745D01*
X160064630Y-96340750D01*
X160044435Y-96519996D01*
X160044435Y-96520003D01*
X159555565Y-96520003D01*
X159555565Y-96519996D01*
X159535369Y-96340750D01*
X159535368Y-96340745D01*
X159506893Y-96259368D01*
X159475789Y-96170478D01*
X159379816Y-96017738D01*
X159252262Y-95890184D01*
X159234055Y-95878744D01*
X159099523Y-95794211D01*
X158929254Y-95734631D01*
X158929249Y-95734630D01*
X158794960Y-95719500D01*
X158794954Y-95719500D01*
X158417500Y-95719500D01*
X158350461Y-95699815D01*
X158304706Y-95647011D01*
X158293500Y-95595500D01*
X158293500Y-95223597D01*
X158313185Y-95156558D01*
X158342575Y-95124793D01*
X158385922Y-95091922D01*
X158477360Y-94971343D01*
X158477359Y-94971343D01*
X158477361Y-94971342D01*
X158532877Y-94830564D01*
X158543500Y-94742102D01*
X158543500Y-92455898D01*
X158532877Y-92367436D01*
X158477361Y-92226658D01*
X158477360Y-92226657D01*
X158477360Y-92226656D01*
X158385922Y-92106077D01*
X158265343Y-92014639D01*
X158124561Y-91959122D01*
X158078926Y-91953642D01*
X158036102Y-91948500D01*
X156949898Y-91948500D01*
X156910853Y-91953188D01*
X156861438Y-91959122D01*
X156720656Y-92014639D01*
X156600077Y-92106077D01*
X156508639Y-92226656D01*
X156453122Y-92367438D01*
X156447188Y-92416853D01*
X156442500Y-92455898D01*
X156442500Y-94742102D01*
X156446878Y-94778561D01*
X156453122Y-94830561D01*
X156508639Y-94971343D01*
X156600077Y-95091922D01*
X156643425Y-95124793D01*
X156684948Y-95180985D01*
X156692500Y-95223597D01*
X156692500Y-95595500D01*
X156672815Y-95662539D01*
X156620011Y-95708294D01*
X156568500Y-95719500D01*
X154425640Y-95719500D01*
X154358601Y-95699815D01*
X154326837Y-95670427D01*
X154317877Y-95658612D01*
X154312922Y-95652078D01*
X154312921Y-95652077D01*
X154192343Y-95560639D01*
X154051561Y-95505122D01*
X154005926Y-95499642D01*
X153963102Y-95494500D01*
X153376898Y-95494500D01*
X153337853Y-95499188D01*
X153288438Y-95505122D01*
X153147656Y-95560639D01*
X153027077Y-95652077D01*
X152935639Y-95772656D01*
X152880122Y-95913438D01*
X152874188Y-95962853D01*
X152869500Y-96001898D01*
X152869500Y-96001903D01*
X152869500Y-96468085D01*
X152868720Y-96481969D01*
X152864435Y-96519998D01*
X152864435Y-96520001D01*
X152575565Y-96520001D01*
X152575565Y-96519998D01*
X152571280Y-96481969D01*
X152570500Y-96468085D01*
X152570500Y-96001903D01*
X152570500Y-96001898D01*
X152559877Y-95913436D01*
X152504361Y-95772658D01*
X152504360Y-95772657D01*
X152504360Y-95772656D01*
X152412922Y-95652077D01*
X152292343Y-95560639D01*
X152151561Y-95505122D01*
X152105926Y-95499642D01*
X152063102Y-95494500D01*
X151476898Y-95494500D01*
X151443713Y-95498485D01*
X151388436Y-95505122D01*
X151341989Y-95523439D01*
X151272402Y-95529720D01*
X151210466Y-95497382D01*
X151175845Y-95436693D01*
X151172500Y-95408084D01*
X151172500Y-95283521D01*
X151192185Y-95216482D01*
X151244989Y-95170727D01*
X151250990Y-95168174D01*
X151344342Y-95131361D01*
X151464922Y-95039922D01*
X151556361Y-94919342D01*
X151611877Y-94778564D01*
X151622500Y-94690102D01*
X151622500Y-94078898D01*
X151611877Y-93990436D01*
X151556361Y-93849658D01*
X151556360Y-93849657D01*
X151556360Y-93849656D01*
X151464922Y-93729077D01*
X151344343Y-93637639D01*
X151289672Y-93616080D01*
X151216826Y-93587353D01*
X151161685Y-93544449D01*
X151138492Y-93478541D01*
X151154612Y-93410557D01*
X151204929Y-93362080D01*
X151216814Y-93356651D01*
X151344342Y-93306361D01*
X151464922Y-93214922D01*
X151556361Y-93094342D01*
X151611877Y-92953564D01*
X151622500Y-92865102D01*
X151622500Y-92253898D01*
X151611877Y-92165436D01*
X151556361Y-92024658D01*
X151556360Y-92024657D01*
X151556360Y-92024656D01*
X151464922Y-91904077D01*
X151344341Y-91812638D01*
X151251009Y-91775832D01*
X151195866Y-91732926D01*
X151172673Y-91667018D01*
X151172500Y-91660478D01*
X151172500Y-91392066D01*
X151192185Y-91325027D01*
X151244989Y-91279272D01*
X151250994Y-91276718D01*
X151260132Y-91273115D01*
X151373867Y-91186867D01*
X151460115Y-91073132D01*
X151512479Y-90940346D01*
X151522500Y-90856902D01*
X151522500Y-90338098D01*
X151522146Y-90335154D01*
X151512479Y-90254656D01*
X151512479Y-90254655D01*
X151510196Y-90248865D01*
X151460115Y-90121868D01*
X151460113Y-90121865D01*
X151373867Y-90008132D01*
X151260134Y-89921886D01*
X151260132Y-89921885D01*
X151127346Y-89869521D01*
X151127345Y-89869520D01*
X151127343Y-89869520D01*
X151043902Y-89859500D01*
X150200098Y-89859500D01*
X150116656Y-89869520D01*
X150116655Y-89869520D01*
X149983865Y-89921886D01*
X149870132Y-90008132D01*
X149783886Y-90121865D01*
X149731520Y-90254655D01*
X149731520Y-90254656D01*
X149721500Y-90338097D01*
X149721500Y-90856902D01*
X149731520Y-90940343D01*
X149731520Y-90940344D01*
X149783886Y-91073134D01*
X149870132Y-91186867D01*
X149976288Y-91267367D01*
X149983868Y-91273115D01*
X149992987Y-91276711D01*
X150048131Y-91319614D01*
X150071327Y-91385521D01*
X150071500Y-91392066D01*
X150071500Y-91660478D01*
X150051815Y-91727517D01*
X149999011Y-91773272D01*
X149992991Y-91775832D01*
X149899658Y-91812638D01*
X149779077Y-91904077D01*
X149687639Y-92024656D01*
X149632122Y-92165438D01*
X149626188Y-92214853D01*
X149621500Y-92253898D01*
X149621500Y-92865102D01*
X149625200Y-92895911D01*
X149632122Y-92953561D01*
X149687639Y-93094343D01*
X149779077Y-93214922D01*
X149899656Y-93306360D01*
X149899657Y-93306360D01*
X149899658Y-93306361D01*
X150027171Y-93356646D01*
X150082314Y-93399551D01*
X150105507Y-93465459D01*
X150089386Y-93533444D01*
X150039070Y-93581920D01*
X150027178Y-93587351D01*
X149996592Y-93599413D01*
X149899656Y-93637639D01*
X149779077Y-93729077D01*
X149687639Y-93849656D01*
X149632122Y-93990438D01*
X149626188Y-94039853D01*
X149621500Y-94078898D01*
X149621500Y-94690102D01*
X149624949Y-94718820D01*
X149632122Y-94778561D01*
X149687639Y-94919343D01*
X149779077Y-95039922D01*
X149899656Y-95131360D01*
X149899657Y-95131360D01*
X149899658Y-95131361D01*
X149992991Y-95168167D01*
X150048134Y-95211072D01*
X150071327Y-95276980D01*
X150071500Y-95283521D01*
X150071500Y-95595500D01*
X150051815Y-95662539D01*
X149999011Y-95708294D01*
X149947500Y-95719500D01*
X135234846Y-95719500D01*
X135167807Y-95699815D01*
X135149276Y-95685243D01*
X135113376Y-95651012D01*
X134936574Y-95537388D01*
X134917420Y-95529720D01*
X134769451Y-95470482D01*
X134741455Y-95459274D01*
X134535086Y-95419500D01*
X134535085Y-95419500D01*
X133477575Y-95419500D01*
X133320782Y-95434472D01*
X133320778Y-95434473D01*
X133119127Y-95493683D01*
X132932313Y-95589991D01*
X132767116Y-95719905D01*
X132767112Y-95719909D01*
X132629478Y-95878746D01*
X132524398Y-96060750D01*
X132455656Y-96259365D01*
X132455656Y-96259368D01*
X132425746Y-96467401D01*
X132435745Y-96677327D01*
X132485296Y-96881578D01*
X132485298Y-96881582D01*
X132572598Y-97072743D01*
X132572601Y-97072748D01*
X132572602Y-97072750D01*
X132572604Y-97072753D01*
X132677525Y-97220094D01*
X132694515Y-97243953D01*
X132694520Y-97243959D01*
X132846620Y-97388985D01*
X132941578Y-97450011D01*
X133023428Y-97502613D01*
X133197186Y-97572175D01*
X133252106Y-97615365D01*
X133274959Y-97681392D01*
X133258486Y-97749292D01*
X133207919Y-97797508D01*
X133183193Y-97807067D01*
X133083679Y-97833731D01*
X133083673Y-97833734D01*
X132877517Y-97929865D01*
X132691179Y-98060342D01*
X132530342Y-98221179D01*
X132399865Y-98407517D01*
X132303734Y-98613673D01*
X132303730Y-98613682D01*
X132251127Y-98809999D01*
X120675500Y-98809999D01*
X120675500Y-91190000D01*
X124910385Y-91190000D01*
X127926589Y-91190000D01*
X127901466Y-91287030D01*
X127891114Y-91491165D01*
X127921574Y-91690000D01*
X124913793Y-91690000D01*
X124926375Y-91815076D01*
X124926376Y-91815079D01*
X124996208Y-92108107D01*
X124996210Y-92108116D01*
X125104474Y-92389216D01*
X125104481Y-92389231D01*
X125249248Y-92653395D01*
X125249252Y-92653401D01*
X125427935Y-92895911D01*
X125637355Y-93112451D01*
X125637362Y-93112457D01*
X125873768Y-93299145D01*
X126132948Y-93452657D01*
X126132966Y-93452666D01*
X126410283Y-93570260D01*
X126410300Y-93570265D01*
X126700826Y-93649848D01*
X126999384Y-93690000D01*
X128650000Y-93690000D01*
X128650000Y-92414625D01*
X128797801Y-92445000D01*
X128950967Y-92445000D01*
X129103348Y-92429504D01*
X129150000Y-92414867D01*
X129150000Y-93690000D01*
X130725236Y-93690000D01*
X130950564Y-93674915D01*
X130950573Y-93674913D01*
X131245758Y-93614916D01*
X131245773Y-93614912D01*
X131530343Y-93516098D01*
X131530346Y-93516096D01*
X131799198Y-93380240D01*
X132047564Y-93209745D01*
X132270971Y-93007685D01*
X132465464Y-92777638D01*
X132627554Y-92523728D01*
X132627555Y-92523726D01*
X132754351Y-92250485D01*
X132754356Y-92250471D01*
X132843605Y-91962765D01*
X132889615Y-91690000D01*
X129873411Y-91690000D01*
X129898534Y-91592970D01*
X129908886Y-91388835D01*
X129878426Y-91190000D01*
X132886207Y-91190000D01*
X132886207Y-91189999D01*
X132873624Y-91064923D01*
X132873623Y-91064920D01*
X132803791Y-90771892D01*
X132803789Y-90771883D01*
X132695525Y-90490783D01*
X132695518Y-90490768D01*
X132550751Y-90226604D01*
X132550747Y-90226598D01*
X132372064Y-89984088D01*
X132162644Y-89767548D01*
X132162637Y-89767542D01*
X131926231Y-89580854D01*
X131667051Y-89427342D01*
X131667033Y-89427333D01*
X131389716Y-89309739D01*
X131389699Y-89309734D01*
X131099173Y-89230151D01*
X130800617Y-89190000D01*
X129150000Y-89190000D01*
X129150000Y-90465374D01*
X129002199Y-90435000D01*
X128849033Y-90435000D01*
X128696652Y-90450496D01*
X128650000Y-90465132D01*
X128650000Y-89190000D01*
X127074764Y-89190000D01*
X126849435Y-89205084D01*
X126849426Y-89205086D01*
X126554241Y-89265083D01*
X126554226Y-89265087D01*
X126269656Y-89363901D01*
X126269653Y-89363903D01*
X126000801Y-89499759D01*
X125752435Y-89670254D01*
X125529028Y-89872314D01*
X125334535Y-90102361D01*
X125172445Y-90356271D01*
X125172444Y-90356273D01*
X125045648Y-90629514D01*
X125045643Y-90629528D01*
X124956394Y-90917234D01*
X124910385Y-91190000D01*
X120675500Y-91190000D01*
X120675500Y-88731902D01*
X149721500Y-88731902D01*
X149731520Y-88815343D01*
X149731520Y-88815344D01*
X149731521Y-88815346D01*
X149783810Y-88947943D01*
X149783886Y-88948134D01*
X149870132Y-89061867D01*
X149966006Y-89134570D01*
X149983868Y-89148115D01*
X150116654Y-89200479D01*
X150200098Y-89210500D01*
X151043902Y-89210500D01*
X151127346Y-89200479D01*
X151260132Y-89148115D01*
X151373867Y-89061867D01*
X151460115Y-88948132D01*
X151512479Y-88815346D01*
X151522500Y-88731902D01*
X151522500Y-88213098D01*
X151522146Y-88210154D01*
X151512479Y-88129656D01*
X151512479Y-88129655D01*
X151491860Y-88077368D01*
X151460115Y-87996868D01*
X151435782Y-87964780D01*
X151373867Y-87883132D01*
X151260133Y-87796885D01*
X151254907Y-87794824D01*
X151251009Y-87793287D01*
X151195866Y-87750382D01*
X151172673Y-87684474D01*
X151172500Y-87677933D01*
X151172500Y-86318102D01*
X152950500Y-86318102D01*
X152951327Y-86324986D01*
X152961122Y-86406561D01*
X153016639Y-86547343D01*
X153108077Y-86667922D01*
X153228656Y-86759360D01*
X153228657Y-86759360D01*
X153228658Y-86759361D01*
X153369436Y-86814877D01*
X153457898Y-86825500D01*
X153457903Y-86825500D01*
X156544097Y-86825500D01*
X156544102Y-86825500D01*
X156632564Y-86814877D01*
X156773342Y-86759361D01*
X156893922Y-86667922D01*
X156985361Y-86547342D01*
X157040877Y-86406564D01*
X157051500Y-86318102D01*
X157051500Y-85975000D01*
X158151001Y-85975000D01*
X158151001Y-86324986D01*
X158161494Y-86427697D01*
X158216641Y-86594119D01*
X158216643Y-86594124D01*
X158308684Y-86743345D01*
X158432654Y-86867315D01*
X158581875Y-86959356D01*
X158581880Y-86959358D01*
X158748302Y-87014505D01*
X158748309Y-87014506D01*
X158851019Y-87024999D01*
X160150999Y-87024999D01*
X160151000Y-87024998D01*
X160151000Y-85975000D01*
X160651000Y-85975000D01*
X160651000Y-87024999D01*
X161950972Y-87024999D01*
X161950986Y-87024998D01*
X162053697Y-87014505D01*
X162220119Y-86959358D01*
X162220124Y-86959356D01*
X162369345Y-86867315D01*
X162493315Y-86743345D01*
X162585356Y-86594124D01*
X162585358Y-86594119D01*
X162640505Y-86427697D01*
X162640506Y-86427690D01*
X162650999Y-86324986D01*
X162651000Y-86324973D01*
X162651000Y-85975000D01*
X160651000Y-85975000D01*
X160151000Y-85975000D01*
X158151001Y-85975000D01*
X157051500Y-85975000D01*
X157051500Y-85475000D01*
X158151000Y-85475000D01*
X160151000Y-85475000D01*
X160151000Y-84425000D01*
X160651000Y-84425000D01*
X160651000Y-85475000D01*
X162650999Y-85475000D01*
X162650999Y-85125028D01*
X162650998Y-85125013D01*
X162640505Y-85022302D01*
X162585358Y-84855880D01*
X162585356Y-84855875D01*
X162493315Y-84706654D01*
X162369345Y-84582684D01*
X162220124Y-84490643D01*
X162220119Y-84490641D01*
X162053697Y-84435494D01*
X162053690Y-84435493D01*
X161950986Y-84425000D01*
X160651000Y-84425000D01*
X160151000Y-84425000D01*
X158851028Y-84425000D01*
X158851012Y-84425001D01*
X158748302Y-84435494D01*
X158581880Y-84490641D01*
X158581875Y-84490643D01*
X158432654Y-84582684D01*
X158308684Y-84706654D01*
X158216643Y-84855875D01*
X158216641Y-84855880D01*
X158161494Y-85022302D01*
X158161493Y-85022309D01*
X158151000Y-85125013D01*
X158151000Y-85475000D01*
X157051500Y-85475000D01*
X157051500Y-85131898D01*
X157040877Y-85043436D01*
X156985361Y-84902658D01*
X156985360Y-84902657D01*
X156985360Y-84902656D01*
X156893922Y-84782077D01*
X156773343Y-84690639D01*
X156632561Y-84635122D01*
X156586926Y-84629642D01*
X156544102Y-84624500D01*
X153457898Y-84624500D01*
X153418853Y-84629188D01*
X153369438Y-84635122D01*
X153228656Y-84690639D01*
X153108077Y-84782077D01*
X153016639Y-84902656D01*
X152961122Y-85043438D01*
X152955188Y-85092853D01*
X152950500Y-85131898D01*
X152950500Y-86318102D01*
X151172500Y-86318102D01*
X151172500Y-79584856D01*
X153839500Y-79584856D01*
X153839502Y-79584882D01*
X153842413Y-79609987D01*
X153842415Y-79609991D01*
X153887793Y-79712764D01*
X153887794Y-79712765D01*
X153967235Y-79792206D01*
X154070009Y-79837585D01*
X154095135Y-79840500D01*
X155784864Y-79840499D01*
X155784879Y-79840497D01*
X155784882Y-79840497D01*
X155809987Y-79837586D01*
X155809988Y-79837585D01*
X155809991Y-79837585D01*
X155912765Y-79792206D01*
X155992206Y-79712765D01*
X156037585Y-79609991D01*
X156040500Y-79584865D01*
X156040499Y-78740000D01*
X156374785Y-78740000D01*
X156393602Y-78943082D01*
X156449417Y-79139247D01*
X156449422Y-79139260D01*
X156540327Y-79321821D01*
X156663237Y-79484581D01*
X156813958Y-79621980D01*
X156813960Y-79621982D01*
X156888030Y-79667844D01*
X156987363Y-79729348D01*
X157177544Y-79803024D01*
X157378024Y-79840500D01*
X157378026Y-79840500D01*
X157581974Y-79840500D01*
X157581976Y-79840500D01*
X157782456Y-79803024D01*
X157972637Y-79729348D01*
X158146041Y-79621981D01*
X158296764Y-79484579D01*
X158419673Y-79321821D01*
X158510582Y-79139250D01*
X158566397Y-78943083D01*
X158585215Y-78740000D01*
X158566397Y-78536917D01*
X158510582Y-78340750D01*
X158510574Y-78340734D01*
X158444539Y-78208117D01*
X158419673Y-78158179D01*
X158360704Y-78080091D01*
X158296762Y-77995418D01*
X158146041Y-77858019D01*
X158146039Y-77858017D01*
X157972642Y-77750655D01*
X157972635Y-77750651D01*
X157838514Y-77698693D01*
X157782456Y-77676976D01*
X157581976Y-77639500D01*
X157378024Y-77639500D01*
X157177544Y-77676976D01*
X157177541Y-77676976D01*
X157177541Y-77676977D01*
X156987364Y-77750651D01*
X156987357Y-77750655D01*
X156813960Y-77858017D01*
X156813958Y-77858019D01*
X156663237Y-77995418D01*
X156540327Y-78158178D01*
X156449422Y-78340739D01*
X156449417Y-78340752D01*
X156393602Y-78536917D01*
X156374785Y-78739999D01*
X156374785Y-78740000D01*
X156040499Y-78740000D01*
X156040499Y-77895136D01*
X156040497Y-77895117D01*
X156037586Y-77870012D01*
X156037585Y-77870010D01*
X156037585Y-77870009D01*
X155992206Y-77767235D01*
X155912765Y-77687794D01*
X155888267Y-77676977D01*
X155809992Y-77642415D01*
X155784865Y-77639500D01*
X154095143Y-77639500D01*
X154095117Y-77639502D01*
X154070012Y-77642413D01*
X154070008Y-77642415D01*
X153967235Y-77687793D01*
X153887794Y-77767234D01*
X153842415Y-77870006D01*
X153842415Y-77870008D01*
X153839500Y-77895131D01*
X153839500Y-79584856D01*
X151172500Y-79584856D01*
X151172500Y-78003386D01*
X151192185Y-77936347D01*
X151208819Y-77915705D01*
X152210705Y-76913819D01*
X152272028Y-76880334D01*
X152298386Y-76877500D01*
X166643657Y-76877500D01*
X166710696Y-76897185D01*
X166756451Y-76949989D01*
X166766395Y-77019147D01*
X166737370Y-77082703D01*
X166721913Y-77097687D01*
X166705895Y-77110718D01*
X166705891Y-77110722D01*
X166695542Y-77125383D01*
X166681923Y-77141550D01*
X165968894Y-77854579D01*
X165965852Y-77857519D01*
X165950506Y-77871852D01*
X165888077Y-77903226D01*
X165818595Y-77895867D01*
X165782331Y-77872869D01*
X165766041Y-77858019D01*
X165766034Y-77858015D01*
X165766032Y-77858013D01*
X165592642Y-77750655D01*
X165592635Y-77750651D01*
X165458514Y-77698693D01*
X165402456Y-77676976D01*
X165201976Y-77639500D01*
X164998024Y-77639500D01*
X164797544Y-77676976D01*
X164797541Y-77676976D01*
X164797541Y-77676977D01*
X164607364Y-77750651D01*
X164607357Y-77750655D01*
X164433960Y-77858017D01*
X164433958Y-77858019D01*
X164283237Y-77995418D01*
X164160327Y-78158178D01*
X164069422Y-78340739D01*
X164069418Y-78340750D01*
X164052943Y-78398653D01*
X164015663Y-78457746D01*
X163952353Y-78487303D01*
X163883113Y-78477939D01*
X163829927Y-78432629D01*
X163813902Y-78396810D01*
X163786269Y-78293682D01*
X163786265Y-78293673D01*
X163690134Y-78087517D01*
X163559657Y-77901179D01*
X163398820Y-77740342D01*
X163212482Y-77609865D01*
X163006328Y-77513734D01*
X162810000Y-77461127D01*
X162810000Y-78304498D01*
X162702315Y-78255320D01*
X162595763Y-78240000D01*
X162524237Y-78240000D01*
X162417685Y-78255320D01*
X162310000Y-78304498D01*
X162310000Y-77461127D01*
X162113671Y-77513734D01*
X161907517Y-77609865D01*
X161721179Y-77740342D01*
X161560342Y-77901179D01*
X161429865Y-78087517D01*
X161333734Y-78293673D01*
X161333731Y-78293680D01*
X161306097Y-78396811D01*
X161269731Y-78456471D01*
X161206884Y-78487000D01*
X161137509Y-78478705D01*
X161083631Y-78434219D01*
X161067056Y-78398651D01*
X161066532Y-78396811D01*
X161050582Y-78340750D01*
X161050574Y-78340734D01*
X160984539Y-78208117D01*
X160959673Y-78158179D01*
X160900704Y-78080091D01*
X160836762Y-77995418D01*
X160686041Y-77858019D01*
X160686039Y-77858017D01*
X160512642Y-77750655D01*
X160512635Y-77750651D01*
X160378514Y-77698693D01*
X160322456Y-77676976D01*
X160121976Y-77639500D01*
X159918024Y-77639500D01*
X159717544Y-77676976D01*
X159717541Y-77676976D01*
X159717541Y-77676977D01*
X159527364Y-77750651D01*
X159527357Y-77750655D01*
X159353960Y-77858017D01*
X159353958Y-77858019D01*
X159203237Y-77995418D01*
X159080327Y-78158178D01*
X158989422Y-78340739D01*
X158989417Y-78340752D01*
X158933602Y-78536917D01*
X158914785Y-78739999D01*
X158914785Y-78740000D01*
X158933602Y-78943082D01*
X158989417Y-79139247D01*
X158989422Y-79139260D01*
X159080327Y-79321821D01*
X159203237Y-79484581D01*
X159353958Y-79621980D01*
X159353960Y-79621982D01*
X159428030Y-79667844D01*
X159527363Y-79729348D01*
X159717544Y-79803024D01*
X159918024Y-79840500D01*
X159918026Y-79840500D01*
X160121974Y-79840500D01*
X160121976Y-79840500D01*
X160322456Y-79803024D01*
X160512637Y-79729348D01*
X160686041Y-79621981D01*
X160836764Y-79484579D01*
X160959673Y-79321821D01*
X161050582Y-79139250D01*
X161067058Y-79081342D01*
X161104334Y-79022255D01*
X161167644Y-78992697D01*
X161236884Y-79002059D01*
X161290070Y-79047368D01*
X161306097Y-79083188D01*
X161333731Y-79186319D01*
X161333734Y-79186326D01*
X161429865Y-79392482D01*
X161560342Y-79578820D01*
X161721179Y-79739657D01*
X161907517Y-79870134D01*
X162113673Y-79966265D01*
X162113682Y-79966269D01*
X162309999Y-80018872D01*
X162310000Y-80018871D01*
X162310000Y-79175501D01*
X162417685Y-79224680D01*
X162524237Y-79240000D01*
X162595763Y-79240000D01*
X162702315Y-79224680D01*
X162810000Y-79175501D01*
X162810000Y-80018872D01*
X163006317Y-79966269D01*
X163006326Y-79966265D01*
X163212482Y-79870134D01*
X163398820Y-79739657D01*
X163559657Y-79578820D01*
X163690134Y-79392482D01*
X163786265Y-79186326D01*
X163786269Y-79186317D01*
X163813902Y-79083189D01*
X163850267Y-79023528D01*
X163913113Y-78992999D01*
X163982489Y-79001293D01*
X164036367Y-79045779D01*
X164052943Y-79081347D01*
X164069417Y-79139247D01*
X164069422Y-79139260D01*
X164160327Y-79321821D01*
X164283237Y-79484581D01*
X164433958Y-79621980D01*
X164433960Y-79621982D01*
X164508030Y-79667844D01*
X164607363Y-79729348D01*
X164797544Y-79803024D01*
X164998024Y-79840500D01*
X164998026Y-79840500D01*
X165201974Y-79840500D01*
X165201976Y-79840500D01*
X165402456Y-79803024D01*
X165592637Y-79729348D01*
X165610222Y-79718459D01*
X165677582Y-79699903D01*
X165744281Y-79720711D01*
X165789143Y-79774275D01*
X165799500Y-79823886D01*
X165799500Y-86896613D01*
X165779815Y-86963652D01*
X165763181Y-86984294D01*
X164968794Y-87778681D01*
X164907471Y-87812166D01*
X164881113Y-87815000D01*
X164551098Y-87815000D01*
X164467656Y-87825020D01*
X164467655Y-87825020D01*
X164334865Y-87877386D01*
X164221132Y-87963632D01*
X164134886Y-88077365D01*
X164082520Y-88210155D01*
X164082520Y-88210156D01*
X164072500Y-88293597D01*
X164072500Y-88812402D01*
X164082520Y-88895843D01*
X164082520Y-88895844D01*
X164082521Y-88895846D01*
X164125447Y-89004700D01*
X164134886Y-89028634D01*
X164221132Y-89142367D01*
X164334865Y-89228613D01*
X164334868Y-89228615D01*
X164467654Y-89280979D01*
X164551098Y-89291000D01*
X165394902Y-89291000D01*
X165478346Y-89280979D01*
X165611132Y-89228615D01*
X165724867Y-89142367D01*
X165811115Y-89028632D01*
X165863479Y-88895846D01*
X165873500Y-88812402D01*
X165873500Y-88482385D01*
X165893185Y-88415346D01*
X165909815Y-88394708D01*
X166731130Y-87573392D01*
X166734115Y-87570507D01*
X166781044Y-87526680D01*
X166802391Y-87491572D01*
X166809539Y-87481072D01*
X166834359Y-87448345D01*
X166834359Y-87448344D01*
X166834361Y-87448342D01*
X166840945Y-87431643D01*
X166850344Y-87412719D01*
X166859672Y-87397382D01*
X166870760Y-87357805D01*
X166874800Y-87345792D01*
X166889876Y-87307564D01*
X166891711Y-87289716D01*
X166895658Y-87268944D01*
X166900500Y-87251665D01*
X166900500Y-87210581D01*
X166901150Y-87197901D01*
X166901375Y-87195703D01*
X166905352Y-87157028D01*
X166902303Y-87139343D01*
X166900500Y-87118275D01*
X166900500Y-79799119D01*
X166920185Y-79732080D01*
X166972989Y-79686325D01*
X167042147Y-79676381D01*
X167089774Y-79693690D01*
X167147363Y-79729348D01*
X167337544Y-79803024D01*
X167538024Y-79840500D01*
X167538026Y-79840500D01*
X167741974Y-79840500D01*
X167741976Y-79840500D01*
X167942456Y-79803024D01*
X168132637Y-79729348D01*
X168306041Y-79621981D01*
X168456764Y-79484579D01*
X168579673Y-79321821D01*
X168670582Y-79139250D01*
X168726397Y-78943083D01*
X168745215Y-78740000D01*
X168726397Y-78536917D01*
X168670582Y-78340750D01*
X168670577Y-78340739D01*
X168670575Y-78340734D01*
X168610343Y-78219771D01*
X168598082Y-78150986D01*
X168624955Y-78086491D01*
X168682431Y-78046764D01*
X168721343Y-78040500D01*
X169098657Y-78040500D01*
X169165696Y-78060185D01*
X169211451Y-78112989D01*
X169221395Y-78182147D01*
X169209657Y-78219771D01*
X169149424Y-78340734D01*
X169149417Y-78340752D01*
X169093602Y-78536917D01*
X169074785Y-78739999D01*
X169074785Y-78740000D01*
X169093602Y-78943082D01*
X169149417Y-79139247D01*
X169149422Y-79139260D01*
X169228792Y-79298655D01*
X169240327Y-79321821D01*
X169363236Y-79484579D01*
X169513959Y-79621981D01*
X169570778Y-79657161D01*
X169617412Y-79709187D01*
X169629500Y-79762587D01*
X169629500Y-81650978D01*
X169609815Y-81718017D01*
X169557011Y-81763772D01*
X169550991Y-81766332D01*
X169457658Y-81803138D01*
X169337077Y-81894577D01*
X169245639Y-82015156D01*
X169190122Y-82155938D01*
X169184188Y-82205353D01*
X169179500Y-82244398D01*
X169179500Y-82855602D01*
X169185126Y-82902454D01*
X169190122Y-82944061D01*
X169245639Y-83084843D01*
X169337077Y-83205422D01*
X169457656Y-83296860D01*
X169457657Y-83296860D01*
X169457658Y-83296861D01*
X169585171Y-83347146D01*
X169640314Y-83390051D01*
X169663507Y-83455959D01*
X169647386Y-83523944D01*
X169597070Y-83572420D01*
X169585178Y-83577851D01*
X169533663Y-83598165D01*
X169457656Y-83628139D01*
X169337077Y-83719577D01*
X169245639Y-83840156D01*
X169190122Y-83980938D01*
X169184188Y-84030353D01*
X169179500Y-84069398D01*
X169179500Y-84680602D01*
X169185126Y-84727454D01*
X169190122Y-84769061D01*
X169245639Y-84909843D01*
X169337077Y-85030422D01*
X169457656Y-85121860D01*
X169457657Y-85121860D01*
X169457658Y-85121861D01*
X169550991Y-85158667D01*
X169606134Y-85201572D01*
X169629327Y-85267480D01*
X169629500Y-85274021D01*
X169629500Y-86118762D01*
X169609815Y-86185801D01*
X169557906Y-86231143D01*
X169527273Y-86245427D01*
X169527268Y-86245430D01*
X169340858Y-86375954D01*
X169179954Y-86536858D01*
X169049432Y-86723265D01*
X169049431Y-86723267D01*
X168953261Y-86929502D01*
X168953258Y-86929511D01*
X168894366Y-87149302D01*
X168894364Y-87149313D01*
X168874532Y-87375998D01*
X168874532Y-87376001D01*
X168894364Y-87602686D01*
X168894366Y-87602697D01*
X168953258Y-87822488D01*
X168953261Y-87822497D01*
X169049431Y-88028732D01*
X169049432Y-88028734D01*
X169179954Y-88215141D01*
X169340858Y-88376045D01*
X169340861Y-88376047D01*
X169527266Y-88506568D01*
X169733504Y-88602739D01*
X169953308Y-88661635D01*
X170115230Y-88675801D01*
X170179998Y-88681468D01*
X170180000Y-88681468D01*
X170180002Y-88681468D01*
X170236673Y-88676509D01*
X170406692Y-88661635D01*
X170626496Y-88602739D01*
X170832734Y-88506568D01*
X171019139Y-88376047D01*
X171180047Y-88215139D01*
X171310568Y-88028734D01*
X171324855Y-87998093D01*
X171371026Y-87945657D01*
X171437237Y-87926500D01*
X175422763Y-87926500D01*
X175489802Y-87946185D01*
X175535144Y-87998093D01*
X175549431Y-88028732D01*
X175549432Y-88028734D01*
X175679954Y-88215141D01*
X175840858Y-88376045D01*
X175840861Y-88376047D01*
X176027266Y-88506568D01*
X176233504Y-88602739D01*
X176453308Y-88661635D01*
X176615230Y-88675801D01*
X176679998Y-88681468D01*
X176680000Y-88681468D01*
X176680002Y-88681468D01*
X176736673Y-88676509D01*
X176906692Y-88661635D01*
X177126496Y-88602739D01*
X177332734Y-88506568D01*
X177519139Y-88376047D01*
X177680047Y-88215139D01*
X177810568Y-88028734D01*
X177906739Y-87822496D01*
X177965635Y-87602692D01*
X177985468Y-87376000D01*
X177965635Y-87149308D01*
X177906739Y-86929504D01*
X177810568Y-86723266D01*
X177680047Y-86536861D01*
X177680045Y-86536858D01*
X177519141Y-86375954D01*
X177332734Y-86245432D01*
X177332732Y-86245431D01*
X177126497Y-86149261D01*
X177126488Y-86149258D01*
X176906697Y-86090366D01*
X176906693Y-86090365D01*
X176906692Y-86090365D01*
X176906691Y-86090364D01*
X176906686Y-86090364D01*
X176680002Y-86070532D01*
X176679998Y-86070532D01*
X176453313Y-86090364D01*
X176453302Y-86090366D01*
X176233511Y-86149258D01*
X176233502Y-86149261D01*
X176027267Y-86245431D01*
X176027265Y-86245432D01*
X175840858Y-86375954D01*
X175679954Y-86536858D01*
X175549432Y-86723265D01*
X175544501Y-86733840D01*
X175535144Y-86753906D01*
X175488974Y-86806343D01*
X175422763Y-86825500D01*
X171437237Y-86825500D01*
X171370198Y-86805815D01*
X171324855Y-86753906D01*
X171310568Y-86723266D01*
X171180047Y-86536861D01*
X171180045Y-86536858D01*
X171019141Y-86375954D01*
X170832731Y-86245430D01*
X170832726Y-86245427D01*
X170802094Y-86231143D01*
X170749655Y-86184970D01*
X170730500Y-86118762D01*
X170730500Y-85274021D01*
X170750185Y-85206982D01*
X170802989Y-85161227D01*
X170808990Y-85158674D01*
X170902342Y-85121861D01*
X171022922Y-85030422D01*
X171114361Y-84909842D01*
X171169877Y-84769064D01*
X171180500Y-84680602D01*
X171180500Y-84069398D01*
X171169877Y-83980936D01*
X171114361Y-83840158D01*
X171114360Y-83840157D01*
X171114360Y-83840156D01*
X171022922Y-83719577D01*
X170902343Y-83628139D01*
X170864339Y-83613152D01*
X170774826Y-83577853D01*
X170719685Y-83534949D01*
X170696492Y-83469041D01*
X170712612Y-83401057D01*
X170762929Y-83352580D01*
X170774814Y-83347151D01*
X170902342Y-83296861D01*
X171022922Y-83205422D01*
X171114361Y-83084842D01*
X171169877Y-82944064D01*
X171180500Y-82855602D01*
X171180500Y-82244398D01*
X171169877Y-82155936D01*
X171114361Y-82015158D01*
X171114360Y-82015157D01*
X171114360Y-82015156D01*
X171022922Y-81894577D01*
X170902341Y-81803138D01*
X170809009Y-81766332D01*
X170753866Y-81723426D01*
X170730673Y-81657518D01*
X170730500Y-81650978D01*
X170730500Y-79762587D01*
X170750185Y-79695548D01*
X170789220Y-79657162D01*
X170846041Y-79621981D01*
X170996764Y-79484579D01*
X171119673Y-79321821D01*
X171210582Y-79139250D01*
X171266397Y-78943083D01*
X171285215Y-78740000D01*
X171266397Y-78536917D01*
X171210582Y-78340750D01*
X171210577Y-78340739D01*
X171210575Y-78340734D01*
X171150343Y-78219771D01*
X171138082Y-78150986D01*
X171164955Y-78086491D01*
X171222431Y-78046764D01*
X171261343Y-78040500D01*
X171638657Y-78040500D01*
X171705696Y-78060185D01*
X171751451Y-78112989D01*
X171761395Y-78182147D01*
X171749657Y-78219771D01*
X171689424Y-78340734D01*
X171689417Y-78340752D01*
X171633602Y-78536917D01*
X171614785Y-78739999D01*
X171614785Y-78740000D01*
X171633602Y-78943082D01*
X171689417Y-79139247D01*
X171689422Y-79139260D01*
X171780327Y-79321821D01*
X171903237Y-79484581D01*
X172053958Y-79621980D01*
X172053960Y-79621982D01*
X172128030Y-79667844D01*
X172227363Y-79729348D01*
X172417544Y-79803024D01*
X172618024Y-79840500D01*
X172618026Y-79840500D01*
X172821974Y-79840500D01*
X172821976Y-79840500D01*
X173022456Y-79803024D01*
X173212637Y-79729348D01*
X173386041Y-79621981D01*
X173536764Y-79484579D01*
X173659673Y-79321821D01*
X173750582Y-79139250D01*
X173806397Y-78943083D01*
X173825215Y-78740000D01*
X173806397Y-78536917D01*
X173750582Y-78340750D01*
X173750577Y-78340739D01*
X173750575Y-78340734D01*
X173690343Y-78219771D01*
X173678082Y-78150986D01*
X173704955Y-78086491D01*
X173762431Y-78046764D01*
X173801343Y-78040500D01*
X174178657Y-78040500D01*
X174245696Y-78060185D01*
X174291451Y-78112989D01*
X174301395Y-78182147D01*
X174289657Y-78219771D01*
X174229424Y-78340734D01*
X174229417Y-78340752D01*
X174173602Y-78536917D01*
X174154785Y-78739999D01*
X174154785Y-78740000D01*
X174173602Y-78943082D01*
X174229417Y-79139247D01*
X174229422Y-79139260D01*
X174320327Y-79321821D01*
X174443237Y-79484581D01*
X174593958Y-79621980D01*
X174593960Y-79621982D01*
X174668030Y-79667844D01*
X174767363Y-79729348D01*
X174957544Y-79803024D01*
X175158024Y-79840500D01*
X175158026Y-79840500D01*
X175361974Y-79840500D01*
X175361976Y-79840500D01*
X175562456Y-79803024D01*
X175752637Y-79729348D01*
X175926041Y-79621981D01*
X176076764Y-79484579D01*
X176199673Y-79321821D01*
X176290582Y-79139250D01*
X176346397Y-78943083D01*
X176365215Y-78740000D01*
X176346397Y-78536917D01*
X176290582Y-78340750D01*
X176290577Y-78340739D01*
X176290575Y-78340734D01*
X176230343Y-78219771D01*
X176218082Y-78150986D01*
X176244955Y-78086491D01*
X176302431Y-78046764D01*
X176341343Y-78040500D01*
X176718657Y-78040500D01*
X176785696Y-78060185D01*
X176831451Y-78112989D01*
X176841395Y-78182147D01*
X176829657Y-78219771D01*
X176769424Y-78340734D01*
X176769417Y-78340752D01*
X176713602Y-78536917D01*
X176694785Y-78739999D01*
X176694785Y-78740000D01*
X176713602Y-78943082D01*
X176769417Y-79139247D01*
X176769422Y-79139260D01*
X176860327Y-79321821D01*
X176983237Y-79484581D01*
X177133958Y-79621980D01*
X177133960Y-79621982D01*
X177208030Y-79667844D01*
X177307363Y-79729348D01*
X177497544Y-79803024D01*
X177698024Y-79840500D01*
X177698026Y-79840500D01*
X177901974Y-79840500D01*
X177901976Y-79840500D01*
X178102456Y-79803024D01*
X178292637Y-79729348D01*
X178466041Y-79621981D01*
X178616764Y-79484579D01*
X178739673Y-79321821D01*
X178830582Y-79139250D01*
X178886397Y-78943083D01*
X178905215Y-78740000D01*
X178886397Y-78536917D01*
X178830582Y-78340750D01*
X178830577Y-78340739D01*
X178830575Y-78340734D01*
X178770343Y-78219771D01*
X178758082Y-78150986D01*
X178784955Y-78086491D01*
X178842431Y-78046764D01*
X178881343Y-78040500D01*
X179258657Y-78040500D01*
X179325696Y-78060185D01*
X179371451Y-78112989D01*
X179381395Y-78182147D01*
X179369657Y-78219771D01*
X179309424Y-78340734D01*
X179309417Y-78340752D01*
X179253602Y-78536917D01*
X179234785Y-78739999D01*
X179234785Y-78740000D01*
X179253602Y-78943082D01*
X179309417Y-79139247D01*
X179309422Y-79139260D01*
X179400327Y-79321821D01*
X179523237Y-79484581D01*
X179673958Y-79621980D01*
X179673960Y-79621982D01*
X179748030Y-79667844D01*
X179847363Y-79729348D01*
X180037544Y-79803024D01*
X180238024Y-79840500D01*
X180238026Y-79840500D01*
X180441974Y-79840500D01*
X180441976Y-79840500D01*
X180642456Y-79803024D01*
X180832637Y-79729348D01*
X181006041Y-79621981D01*
X181027875Y-79602076D01*
X181090677Y-79571458D01*
X181160064Y-79579654D01*
X181207601Y-79615456D01*
X181230720Y-79643873D01*
X181230722Y-79643875D01*
X181245381Y-79654222D01*
X181261552Y-79667844D01*
X181984811Y-80391102D01*
X181987754Y-80394147D01*
X182031550Y-80441041D01*
X182031550Y-80441042D01*
X182031552Y-80441043D01*
X182031553Y-80441044D01*
X182066672Y-80462399D01*
X182077146Y-80469529D01*
X182109891Y-80494361D01*
X182126586Y-80500944D01*
X182145523Y-80510351D01*
X182160851Y-80519672D01*
X182182263Y-80525671D01*
X182200411Y-80530756D01*
X182212448Y-80534804D01*
X182250665Y-80549875D01*
X182250668Y-80549876D01*
X182268517Y-80551710D01*
X182289289Y-80555658D01*
X182298647Y-80558280D01*
X182306567Y-80560500D01*
X182306568Y-80560500D01*
X182347658Y-80560500D01*
X182360337Y-80561149D01*
X182401204Y-80565351D01*
X182418883Y-80562302D01*
X182439951Y-80560500D01*
X186678478Y-80560500D01*
X186682710Y-80560572D01*
X186684674Y-80560639D01*
X186746826Y-80562762D01*
X186786755Y-80553030D01*
X186799192Y-80550667D01*
X186839920Y-80545070D01*
X186856383Y-80537918D01*
X186876416Y-80531181D01*
X186893852Y-80526933D01*
X186929695Y-80506778D01*
X186941015Y-80501157D01*
X186978720Y-80484780D01*
X186992632Y-80473460D01*
X187010123Y-80461557D01*
X187025755Y-80452768D01*
X187025753Y-80452768D01*
X187025759Y-80452766D01*
X187054822Y-80423701D01*
X187064229Y-80415212D01*
X187096108Y-80389278D01*
X187106456Y-80374616D01*
X187120074Y-80358449D01*
X187626455Y-79852067D01*
X187687776Y-79818584D01*
X187736919Y-79817861D01*
X187858024Y-79840500D01*
X187858026Y-79840500D01*
X188061974Y-79840500D01*
X188061976Y-79840500D01*
X188262456Y-79803024D01*
X188308874Y-79785041D01*
X188360743Y-79764948D01*
X188430366Y-79759085D01*
X188492106Y-79791795D01*
X188526361Y-79852691D01*
X188522256Y-79922440D01*
X188493218Y-79968255D01*
X180530178Y-87931295D01*
X180468855Y-87964780D01*
X180399163Y-87959796D01*
X180367572Y-87942418D01*
X180343134Y-87923886D01*
X180343132Y-87923885D01*
X180210346Y-87871521D01*
X180210345Y-87871520D01*
X180210343Y-87871520D01*
X180126902Y-87861500D01*
X179283098Y-87861500D01*
X179199656Y-87871520D01*
X179199655Y-87871520D01*
X179066865Y-87923886D01*
X178953132Y-88010132D01*
X178866886Y-88123865D01*
X178814520Y-88256655D01*
X178814520Y-88256656D01*
X178804500Y-88340097D01*
X178804500Y-88858902D01*
X178814520Y-88942343D01*
X178814520Y-88942344D01*
X178823108Y-88964121D01*
X178862085Y-89062961D01*
X178866886Y-89075134D01*
X178953132Y-89188867D01*
X179053644Y-89265087D01*
X179066868Y-89275115D01*
X179199654Y-89327479D01*
X179283098Y-89337500D01*
X180126902Y-89337500D01*
X180210346Y-89327479D01*
X180343132Y-89275115D01*
X180456867Y-89188867D01*
X180456869Y-89188865D01*
X180459416Y-89186319D01*
X180462315Y-89184735D01*
X180463626Y-89183742D01*
X180463775Y-89183938D01*
X180520739Y-89152834D01*
X180547097Y-89150000D01*
X180628978Y-89150000D01*
X180633210Y-89150072D01*
X180635174Y-89150139D01*
X180697326Y-89152262D01*
X180737255Y-89142530D01*
X180749692Y-89140167D01*
X180790420Y-89134570D01*
X180806883Y-89127418D01*
X180826916Y-89120681D01*
X180844352Y-89116433D01*
X180880195Y-89096278D01*
X180891515Y-89090657D01*
X180929220Y-89074280D01*
X180943132Y-89062960D01*
X180960623Y-89051057D01*
X180976255Y-89042268D01*
X180976253Y-89042268D01*
X180976259Y-89042266D01*
X181005322Y-89013201D01*
X181014729Y-89004712D01*
X181046608Y-88978778D01*
X181056956Y-88964116D01*
X181070574Y-88947949D01*
X190166456Y-79852067D01*
X190227777Y-79818584D01*
X190276915Y-79817861D01*
X190398024Y-79840500D01*
X190398026Y-79840500D01*
X190601974Y-79840500D01*
X190601976Y-79840500D01*
X190802456Y-79803024D01*
X190992637Y-79729348D01*
X191166041Y-79621981D01*
X191316764Y-79484579D01*
X191439673Y-79321821D01*
X191530582Y-79139250D01*
X191586397Y-78943083D01*
X191605215Y-78740000D01*
X191586397Y-78536917D01*
X191530582Y-78340750D01*
X191530574Y-78340734D01*
X191464539Y-78208117D01*
X191439673Y-78158179D01*
X191380704Y-78080091D01*
X191316762Y-77995418D01*
X191166041Y-77858019D01*
X191166039Y-77858017D01*
X190992642Y-77750655D01*
X190992635Y-77750651D01*
X190858514Y-77698693D01*
X190802456Y-77676976D01*
X190601976Y-77639500D01*
X190398024Y-77639500D01*
X190197544Y-77676976D01*
X190197541Y-77676976D01*
X190197541Y-77676977D01*
X190007364Y-77750651D01*
X190007357Y-77750655D01*
X189833960Y-77858017D01*
X189833958Y-77858019D01*
X189683237Y-77995418D01*
X189560327Y-78158178D01*
X189469422Y-78340739D01*
X189469417Y-78340752D01*
X189413602Y-78536917D01*
X189394785Y-78739999D01*
X189394785Y-78740000D01*
X189413602Y-78943081D01*
X189416873Y-78954577D01*
X189416283Y-79024444D01*
X189385286Y-79076187D01*
X189196303Y-79265170D01*
X189134980Y-79298655D01*
X189065288Y-79293671D01*
X189009355Y-79251799D01*
X188984938Y-79186335D01*
X188989356Y-79143554D01*
X188990578Y-79139256D01*
X188990582Y-79139250D01*
X189046397Y-78943083D01*
X189065215Y-78740000D01*
X189046397Y-78536917D01*
X188990582Y-78340750D01*
X188990574Y-78340734D01*
X188924539Y-78208117D01*
X188899673Y-78158179D01*
X188840704Y-78080091D01*
X188776762Y-77995418D01*
X188626041Y-77858019D01*
X188626039Y-77858017D01*
X188452642Y-77750655D01*
X188452635Y-77750651D01*
X188318514Y-77698693D01*
X188262456Y-77676976D01*
X188061976Y-77639500D01*
X187858024Y-77639500D01*
X187657544Y-77676976D01*
X187657541Y-77676976D01*
X187657541Y-77676977D01*
X187467364Y-77750651D01*
X187467357Y-77750655D01*
X187293960Y-77858017D01*
X187293958Y-77858019D01*
X187143237Y-77995418D01*
X187020327Y-78158178D01*
X186929422Y-78340739D01*
X186929417Y-78340752D01*
X186873602Y-78536917D01*
X186854785Y-78739999D01*
X186854785Y-78740000D01*
X186873602Y-78943080D01*
X186873603Y-78943082D01*
X186873603Y-78943083D01*
X186876871Y-78954572D01*
X186876286Y-79024438D01*
X186845287Y-79076187D01*
X186656303Y-79265171D01*
X186594980Y-79298656D01*
X186525288Y-79293672D01*
X186469355Y-79251800D01*
X186444938Y-79186336D01*
X186449356Y-79143555D01*
X186450579Y-79139255D01*
X186450582Y-79139250D01*
X186506397Y-78943083D01*
X186525215Y-78740000D01*
X186506397Y-78536917D01*
X186450582Y-78340750D01*
X186450574Y-78340734D01*
X186384539Y-78208117D01*
X186359673Y-78158179D01*
X186300704Y-78080091D01*
X186236762Y-77995418D01*
X186086041Y-77858019D01*
X186086039Y-77858017D01*
X185912642Y-77750655D01*
X185912635Y-77750651D01*
X185778514Y-77698693D01*
X185722456Y-77676976D01*
X185521976Y-77639500D01*
X185318024Y-77639500D01*
X185300590Y-77642759D01*
X185196919Y-77662138D01*
X185127404Y-77655107D01*
X185086454Y-77627930D01*
X183404406Y-75945881D01*
X183401464Y-75942837D01*
X183357680Y-75895956D01*
X183357679Y-75895955D01*
X183322575Y-75874608D01*
X183312079Y-75867464D01*
X183279341Y-75842638D01*
X183279342Y-75842638D01*
X183262642Y-75836052D01*
X183243716Y-75826652D01*
X183228380Y-75817327D01*
X183188816Y-75806241D01*
X183176786Y-75802196D01*
X183138564Y-75787124D01*
X183138556Y-75787122D01*
X183120716Y-75785288D01*
X183099951Y-75781342D01*
X183082669Y-75776500D01*
X183082665Y-75776500D01*
X183041582Y-75776500D01*
X183028902Y-75775850D01*
X182988029Y-75771648D01*
X182988024Y-75771648D01*
X182970344Y-75774697D01*
X182949276Y-75776500D01*
X152030522Y-75776500D01*
X152026290Y-75776428D01*
X152009367Y-75775850D01*
X151962174Y-75774238D01*
X151962173Y-75774238D01*
X151962171Y-75774238D01*
X151922255Y-75783965D01*
X151909784Y-75786335D01*
X151869079Y-75791930D01*
X151852616Y-75799081D01*
X151832575Y-75805820D01*
X151815150Y-75810066D01*
X151815145Y-75810068D01*
X151779334Y-75830203D01*
X151767970Y-75835847D01*
X151730278Y-75852220D01*
X151716357Y-75863546D01*
X151698883Y-75875438D01*
X151683244Y-75884231D01*
X151683240Y-75884235D01*
X151654186Y-75913287D01*
X151644767Y-75921788D01*
X151612892Y-75947722D01*
X151602541Y-75962385D01*
X151588920Y-75978554D01*
X150240880Y-77326593D01*
X150237837Y-77329534D01*
X150190958Y-77373317D01*
X150169606Y-77408427D01*
X150162470Y-77418911D01*
X150137639Y-77451658D01*
X150137636Y-77451663D01*
X150131055Y-77468352D01*
X150121653Y-77487283D01*
X150112327Y-77502619D01*
X150101242Y-77542181D01*
X150097198Y-77554208D01*
X150082122Y-77592440D01*
X150080288Y-77610284D01*
X150076342Y-77631048D01*
X150071501Y-77648328D01*
X150071500Y-77648337D01*
X150071500Y-77689418D01*
X150070850Y-77702098D01*
X150066648Y-77742970D01*
X150066648Y-77742975D01*
X150069697Y-77760656D01*
X150071500Y-77781724D01*
X150071500Y-87677933D01*
X150051815Y-87744972D01*
X149999011Y-87790727D01*
X149992999Y-87793283D01*
X149990511Y-87794264D01*
X149983866Y-87796885D01*
X149870132Y-87883132D01*
X149783886Y-87996865D01*
X149731520Y-88129655D01*
X149731520Y-88129656D01*
X149721500Y-88213097D01*
X149721500Y-88731902D01*
X120675500Y-88731902D01*
X120675500Y-63316766D01*
X129700000Y-63316766D01*
X129714858Y-63486599D01*
X129714860Y-63486610D01*
X129773730Y-63706317D01*
X129773734Y-63706326D01*
X129869865Y-63912482D01*
X130000342Y-64098820D01*
X130161179Y-64259657D01*
X130347517Y-64390134D01*
X130553673Y-64486265D01*
X130553682Y-64486269D01*
X130749999Y-64538872D01*
X130750000Y-64538871D01*
X130750000Y-63495501D01*
X130857685Y-63544680D01*
X130964237Y-63560000D01*
X131035763Y-63560000D01*
X131142315Y-63544680D01*
X131250000Y-63495501D01*
X131250000Y-64538872D01*
X131446317Y-64486269D01*
X131446326Y-64486265D01*
X131652482Y-64390134D01*
X131838820Y-64259657D01*
X131999657Y-64098820D01*
X132130134Y-63912482D01*
X132226265Y-63706326D01*
X132226269Y-63706317D01*
X132254055Y-63602617D01*
X132290419Y-63542957D01*
X132353266Y-63512427D01*
X132422642Y-63520721D01*
X132476520Y-63565206D01*
X132492807Y-63599775D01*
X132493641Y-63602617D01*
X132513684Y-63670875D01*
X132572344Y-63784660D01*
X132609991Y-63857686D01*
X132739905Y-64022883D01*
X132739909Y-64022887D01*
X132898746Y-64160521D01*
X133080750Y-64265601D01*
X133080752Y-64265601D01*
X133080756Y-64265604D01*
X133279367Y-64334344D01*
X133487398Y-64364254D01*
X133697330Y-64354254D01*
X133901576Y-64304704D01*
X134000215Y-64259657D01*
X134092743Y-64217401D01*
X134092746Y-64217399D01*
X134092753Y-64217396D01*
X134263952Y-64095486D01*
X134276982Y-64081821D01*
X134390856Y-63962391D01*
X134408986Y-63943378D01*
X134522613Y-63766572D01*
X134600725Y-63571457D01*
X134640500Y-63365085D01*
X134640500Y-62807575D01*
X134625528Y-62650782D01*
X134566316Y-62449125D01*
X134470011Y-62262318D01*
X134470009Y-62262316D01*
X134470008Y-62262313D01*
X134340094Y-62097116D01*
X134340090Y-62097112D01*
X134181253Y-61959478D01*
X133999249Y-61854398D01*
X133999245Y-61854396D01*
X133999244Y-61854396D01*
X133800633Y-61785656D01*
X133592602Y-61755746D01*
X133592598Y-61755746D01*
X133382672Y-61765745D01*
X133178421Y-61815296D01*
X133178417Y-61815298D01*
X132987256Y-61902598D01*
X132987251Y-61902601D01*
X132816046Y-62024515D01*
X132816040Y-62024520D01*
X132671014Y-62176620D01*
X132557386Y-62353428D01*
X132487824Y-62527186D01*
X132444634Y-62582107D01*
X132378607Y-62604959D01*
X132310707Y-62588486D01*
X132262491Y-62537919D01*
X132252932Y-62513192D01*
X132226269Y-62413682D01*
X132226265Y-62413673D01*
X132130134Y-62207517D01*
X131999657Y-62021179D01*
X131838820Y-61860342D01*
X131652482Y-61729865D01*
X131446328Y-61633734D01*
X131250000Y-61581127D01*
X131250000Y-62624498D01*
X131142315Y-62575320D01*
X131035763Y-62560000D01*
X130964237Y-62560000D01*
X130857685Y-62575320D01*
X130750000Y-62624498D01*
X130750000Y-61581127D01*
X130553671Y-61633734D01*
X130347517Y-61729865D01*
X130161179Y-61860342D01*
X130000342Y-62021179D01*
X129869865Y-62207517D01*
X129773734Y-62413673D01*
X129773730Y-62413682D01*
X129714860Y-62633389D01*
X129714858Y-62633400D01*
X129700000Y-62803233D01*
X129700000Y-62810000D01*
X130566314Y-62810000D01*
X130540507Y-62850156D01*
X130500000Y-62988111D01*
X130500000Y-63131889D01*
X130540507Y-63269844D01*
X130566314Y-63310000D01*
X129700000Y-63310000D01*
X129700000Y-63316766D01*
X120675500Y-63316766D01*
X120675500Y-61109500D01*
X120695185Y-61042461D01*
X120747989Y-60996706D01*
X120799500Y-60985500D01*
X135469188Y-60985500D01*
X135536227Y-61005185D01*
G37*
%TD.AperFunction*%
%TA.AperFunction,Conductor*%
G36*
X167872652Y-61975185D02*
G01*
X167893294Y-61991819D01*
X168173220Y-62271745D01*
X168206705Y-62333068D01*
X168201721Y-62402760D01*
X168159849Y-62458693D01*
X168094385Y-62483110D01*
X168040745Y-62475053D01*
X167942459Y-62436977D01*
X167942458Y-62436976D01*
X167942456Y-62436976D01*
X167741976Y-62399500D01*
X167538024Y-62399500D01*
X167337544Y-62436976D01*
X167337541Y-62436976D01*
X167337541Y-62436977D01*
X167147364Y-62510651D01*
X167147357Y-62510655D01*
X166973960Y-62618017D01*
X166973958Y-62618019D01*
X166823237Y-62755418D01*
X166700327Y-62918178D01*
X166609422Y-63100739D01*
X166609417Y-63100752D01*
X166553602Y-63296917D01*
X166534785Y-63499999D01*
X166534785Y-63500000D01*
X166553602Y-63703082D01*
X166609417Y-63899247D01*
X166609422Y-63899260D01*
X166700327Y-64081821D01*
X166823237Y-64244581D01*
X166973958Y-64381980D01*
X166973960Y-64381982D01*
X167073141Y-64443392D01*
X167147363Y-64489348D01*
X167337544Y-64563024D01*
X167538024Y-64600500D01*
X167538026Y-64600500D01*
X167741974Y-64600500D01*
X167741976Y-64600500D01*
X167942456Y-64563024D01*
X168132637Y-64489348D01*
X168306041Y-64381981D01*
X168456764Y-64244579D01*
X168579673Y-64081821D01*
X168670582Y-63899250D01*
X168726397Y-63703083D01*
X168745215Y-63500000D01*
X168726397Y-63296917D01*
X168670582Y-63100750D01*
X168670580Y-63100747D01*
X168669356Y-63096443D01*
X168669942Y-63026576D01*
X168708209Y-62968117D01*
X168772006Y-62939626D01*
X168841079Y-62950150D01*
X168876303Y-62974827D01*
X169065287Y-63163811D01*
X169098772Y-63225134D01*
X169096873Y-63285424D01*
X169093603Y-63296917D01*
X169074785Y-63499999D01*
X169074785Y-63500000D01*
X169093602Y-63703082D01*
X169149417Y-63899247D01*
X169149422Y-63899260D01*
X169240327Y-64081821D01*
X169363237Y-64244581D01*
X169513958Y-64381980D01*
X169513960Y-64381982D01*
X169613141Y-64443392D01*
X169687363Y-64489348D01*
X169877544Y-64563024D01*
X170078024Y-64600500D01*
X170078026Y-64600500D01*
X170281974Y-64600500D01*
X170281976Y-64600500D01*
X170482456Y-64563024D01*
X170580745Y-64524946D01*
X170650366Y-64519084D01*
X170712107Y-64551793D01*
X170746362Y-64612689D01*
X170742257Y-64682438D01*
X170713219Y-64728254D01*
X168464294Y-66977181D01*
X168402971Y-67010666D01*
X168376613Y-67013500D01*
X140614386Y-67013500D01*
X140547347Y-66993815D01*
X140526705Y-66977181D01*
X139206819Y-65657294D01*
X139173334Y-65595971D01*
X139170500Y-65569613D01*
X139170500Y-64282927D01*
X139190185Y-64215888D01*
X139222573Y-64181920D01*
X139284657Y-64137709D01*
X139343952Y-64095486D01*
X139356982Y-64081821D01*
X139470856Y-63962391D01*
X139488986Y-63943378D01*
X139602613Y-63766572D01*
X139680725Y-63571457D01*
X139694497Y-63500000D01*
X153834785Y-63500000D01*
X153853602Y-63703082D01*
X153909417Y-63899247D01*
X153909422Y-63899260D01*
X154000327Y-64081821D01*
X154123237Y-64244581D01*
X154273958Y-64381980D01*
X154273960Y-64381982D01*
X154373141Y-64443392D01*
X154447363Y-64489348D01*
X154637544Y-64563024D01*
X154838024Y-64600500D01*
X154838026Y-64600500D01*
X155041974Y-64600500D01*
X155041976Y-64600500D01*
X155242456Y-64563024D01*
X155432637Y-64489348D01*
X155606041Y-64381981D01*
X155756764Y-64244579D01*
X155879673Y-64081821D01*
X155970582Y-63899250D01*
X155987058Y-63841342D01*
X156024334Y-63782255D01*
X156087644Y-63752697D01*
X156156884Y-63762059D01*
X156210070Y-63807368D01*
X156226097Y-63843188D01*
X156253731Y-63946319D01*
X156253734Y-63946326D01*
X156349865Y-64152482D01*
X156480342Y-64338820D01*
X156641179Y-64499657D01*
X156827517Y-64630134D01*
X157033673Y-64726265D01*
X157033682Y-64726269D01*
X157229999Y-64778872D01*
X157230000Y-64778871D01*
X157230000Y-63935501D01*
X157337685Y-63984680D01*
X157444237Y-64000000D01*
X157515763Y-64000000D01*
X157622315Y-63984680D01*
X157730000Y-63935501D01*
X157730000Y-64778872D01*
X157926317Y-64726269D01*
X157926326Y-64726265D01*
X158132482Y-64630134D01*
X158318820Y-64499657D01*
X158479657Y-64338820D01*
X158610134Y-64152482D01*
X158706265Y-63946326D01*
X158706269Y-63946317D01*
X158733902Y-63843189D01*
X158770267Y-63783528D01*
X158833113Y-63752999D01*
X158902489Y-63761293D01*
X158956367Y-63805779D01*
X158972943Y-63841347D01*
X158989417Y-63899247D01*
X158989422Y-63899260D01*
X159080327Y-64081821D01*
X159203237Y-64244581D01*
X159353958Y-64381980D01*
X159353960Y-64381982D01*
X159453141Y-64443392D01*
X159527363Y-64489348D01*
X159717544Y-64563024D01*
X159918024Y-64600500D01*
X159918026Y-64600500D01*
X160121974Y-64600500D01*
X160121976Y-64600500D01*
X160322456Y-64563024D01*
X160512637Y-64489348D01*
X160686041Y-64381981D01*
X160836764Y-64244579D01*
X160959673Y-64081821D01*
X161050582Y-63899250D01*
X161106397Y-63703083D01*
X161125215Y-63500000D01*
X161454785Y-63500000D01*
X161473602Y-63703082D01*
X161529417Y-63899247D01*
X161529422Y-63899260D01*
X161620327Y-64081821D01*
X161743237Y-64244581D01*
X161893958Y-64381980D01*
X161893960Y-64381982D01*
X161993141Y-64443392D01*
X162067363Y-64489348D01*
X162257544Y-64563024D01*
X162458024Y-64600500D01*
X162458026Y-64600500D01*
X162661974Y-64600500D01*
X162661976Y-64600500D01*
X162862456Y-64563024D01*
X163052637Y-64489348D01*
X163226041Y-64381981D01*
X163376764Y-64244579D01*
X163499673Y-64081821D01*
X163590582Y-63899250D01*
X163646397Y-63703083D01*
X163665215Y-63500000D01*
X163994785Y-63500000D01*
X164013602Y-63703082D01*
X164069417Y-63899247D01*
X164069422Y-63899260D01*
X164160327Y-64081821D01*
X164283237Y-64244581D01*
X164433958Y-64381980D01*
X164433960Y-64381982D01*
X164533141Y-64443392D01*
X164607363Y-64489348D01*
X164797544Y-64563024D01*
X164998024Y-64600500D01*
X164998026Y-64600500D01*
X165201974Y-64600500D01*
X165201976Y-64600500D01*
X165402456Y-64563024D01*
X165592637Y-64489348D01*
X165766041Y-64381981D01*
X165916764Y-64244579D01*
X166039673Y-64081821D01*
X166130582Y-63899250D01*
X166186397Y-63703083D01*
X166205215Y-63500000D01*
X166186397Y-63296917D01*
X166130582Y-63100750D01*
X166128437Y-63096443D01*
X166064539Y-62968117D01*
X166039673Y-62918179D01*
X165916764Y-62755421D01*
X165916762Y-62755418D01*
X165766041Y-62618019D01*
X165766039Y-62618017D01*
X165592642Y-62510655D01*
X165592635Y-62510651D01*
X165458514Y-62458693D01*
X165402456Y-62436976D01*
X165201976Y-62399500D01*
X164998024Y-62399500D01*
X164797544Y-62436976D01*
X164797541Y-62436976D01*
X164797541Y-62436977D01*
X164607364Y-62510651D01*
X164607357Y-62510655D01*
X164433960Y-62618017D01*
X164433958Y-62618019D01*
X164283237Y-62755418D01*
X164160327Y-62918178D01*
X164069422Y-63100739D01*
X164069417Y-63100752D01*
X164013602Y-63296917D01*
X163994785Y-63499999D01*
X163994785Y-63500000D01*
X163665215Y-63500000D01*
X163646397Y-63296917D01*
X163590582Y-63100750D01*
X163588437Y-63096443D01*
X163524539Y-62968117D01*
X163499673Y-62918179D01*
X163376764Y-62755421D01*
X163376762Y-62755418D01*
X163226041Y-62618019D01*
X163226039Y-62618017D01*
X163052642Y-62510655D01*
X163052635Y-62510651D01*
X162918514Y-62458693D01*
X162862456Y-62436976D01*
X162661976Y-62399500D01*
X162458024Y-62399500D01*
X162257544Y-62436976D01*
X162257541Y-62436976D01*
X162257541Y-62436977D01*
X162067364Y-62510651D01*
X162067357Y-62510655D01*
X161893960Y-62618017D01*
X161893958Y-62618019D01*
X161743237Y-62755418D01*
X161620327Y-62918178D01*
X161529422Y-63100739D01*
X161529417Y-63100752D01*
X161473602Y-63296917D01*
X161454785Y-63499999D01*
X161454785Y-63500000D01*
X161125215Y-63500000D01*
X161106397Y-63296917D01*
X161050582Y-63100750D01*
X161048437Y-63096443D01*
X160984539Y-62968117D01*
X160959673Y-62918179D01*
X160836764Y-62755421D01*
X160836762Y-62755418D01*
X160686041Y-62618019D01*
X160686039Y-62618017D01*
X160512642Y-62510655D01*
X160512635Y-62510651D01*
X160378514Y-62458693D01*
X160322456Y-62436976D01*
X160121976Y-62399500D01*
X159918024Y-62399500D01*
X159717544Y-62436976D01*
X159717541Y-62436976D01*
X159717541Y-62436977D01*
X159527364Y-62510651D01*
X159527357Y-62510655D01*
X159353960Y-62618017D01*
X159353958Y-62618019D01*
X159203237Y-62755418D01*
X159080327Y-62918178D01*
X158989422Y-63100739D01*
X158989418Y-63100750D01*
X158972943Y-63158653D01*
X158935663Y-63217746D01*
X158872353Y-63247303D01*
X158803113Y-63237939D01*
X158749927Y-63192629D01*
X158733902Y-63156810D01*
X158706269Y-63053682D01*
X158706265Y-63053673D01*
X158610134Y-62847517D01*
X158479657Y-62661179D01*
X158318820Y-62500342D01*
X158132482Y-62369865D01*
X157926328Y-62273734D01*
X157730000Y-62221127D01*
X157730000Y-63064498D01*
X157622315Y-63015320D01*
X157515763Y-63000000D01*
X157444237Y-63000000D01*
X157337685Y-63015320D01*
X157230000Y-63064498D01*
X157230000Y-62221127D01*
X157033671Y-62273734D01*
X156827517Y-62369865D01*
X156641179Y-62500342D01*
X156480342Y-62661179D01*
X156349865Y-62847517D01*
X156253734Y-63053673D01*
X156253731Y-63053680D01*
X156226097Y-63156811D01*
X156189731Y-63216471D01*
X156126884Y-63247000D01*
X156057509Y-63238705D01*
X156003631Y-63194219D01*
X155987056Y-63158651D01*
X155986532Y-63156811D01*
X155970582Y-63100750D01*
X155968437Y-63096443D01*
X155904539Y-62968117D01*
X155879673Y-62918179D01*
X155756764Y-62755421D01*
X155756762Y-62755418D01*
X155606041Y-62618019D01*
X155606039Y-62618017D01*
X155432642Y-62510655D01*
X155432635Y-62510651D01*
X155298514Y-62458693D01*
X155242456Y-62436976D01*
X155041976Y-62399500D01*
X154838024Y-62399500D01*
X154637544Y-62436976D01*
X154637541Y-62436976D01*
X154637541Y-62436977D01*
X154447364Y-62510651D01*
X154447357Y-62510655D01*
X154273960Y-62618017D01*
X154273958Y-62618019D01*
X154123237Y-62755418D01*
X154000327Y-62918178D01*
X153909422Y-63100739D01*
X153909417Y-63100752D01*
X153853602Y-63296917D01*
X153834785Y-63499999D01*
X153834785Y-63500000D01*
X139694497Y-63500000D01*
X139720500Y-63365085D01*
X139720500Y-62807575D01*
X139705528Y-62650782D01*
X139646316Y-62449125D01*
X139550011Y-62262318D01*
X139550009Y-62262316D01*
X139550008Y-62262313D01*
X139466521Y-62156152D01*
X139440553Y-62091288D01*
X139453775Y-62022680D01*
X139501990Y-61972113D01*
X139563991Y-61955500D01*
X167805613Y-61955500D01*
X167872652Y-61975185D01*
G37*
%TD.AperFunction*%
%TD*%
M02*
