%TF.GenerationSoftware,KiCad,Pcbnew,7.0.10*%
%TF.CreationDate,2024-02-22T19:55:08+01:00*%
%TF.ProjectId,Unibias,556e6962-6961-4732-9e6b-696361645f70,rev?*%
%TF.SameCoordinates,Original*%
%TF.FileFunction,Legend,Top*%
%TF.FilePolarity,Positive*%
%FSLAX46Y46*%
G04 Gerber Fmt 4.6, Leading zero omitted, Abs format (unit mm)*
G04 Created by KiCad (PCBNEW 7.0.10) date 2024-02-22 19:55:08*
%MOMM*%
%LPD*%
G01*
G04 APERTURE LIST*
%ADD10C,0.200000*%
%ADD11C,0.150000*%
%ADD12C,0.120000*%
%ADD13C,0.010000*%
G04 APERTURE END LIST*
D10*
X171056571Y-95032742D02*
X171056571Y-93832742D01*
X171056571Y-93832742D02*
X171456571Y-94689885D01*
X171456571Y-94689885D02*
X171856571Y-93832742D01*
X171856571Y-93832742D02*
X171856571Y-95032742D01*
X172656571Y-93832742D02*
X172885143Y-93832742D01*
X172885143Y-93832742D02*
X172999428Y-93889885D01*
X172999428Y-93889885D02*
X173113714Y-94004171D01*
X173113714Y-94004171D02*
X173170857Y-94232742D01*
X173170857Y-94232742D02*
X173170857Y-94632742D01*
X173170857Y-94632742D02*
X173113714Y-94861314D01*
X173113714Y-94861314D02*
X172999428Y-94975600D01*
X172999428Y-94975600D02*
X172885143Y-95032742D01*
X172885143Y-95032742D02*
X172656571Y-95032742D01*
X172656571Y-95032742D02*
X172542286Y-94975600D01*
X172542286Y-94975600D02*
X172428000Y-94861314D01*
X172428000Y-94861314D02*
X172370857Y-94632742D01*
X172370857Y-94632742D02*
X172370857Y-94232742D01*
X172370857Y-94232742D02*
X172428000Y-94004171D01*
X172428000Y-94004171D02*
X172542286Y-93889885D01*
X172542286Y-93889885D02*
X172656571Y-93832742D01*
X173685143Y-95032742D02*
X173685143Y-93832742D01*
X173685143Y-93832742D02*
X173970857Y-93832742D01*
X173970857Y-93832742D02*
X174142286Y-93889885D01*
X174142286Y-93889885D02*
X174256571Y-94004171D01*
X174256571Y-94004171D02*
X174313714Y-94118457D01*
X174313714Y-94118457D02*
X174370857Y-94347028D01*
X174370857Y-94347028D02*
X174370857Y-94518457D01*
X174370857Y-94518457D02*
X174313714Y-94747028D01*
X174313714Y-94747028D02*
X174256571Y-94861314D01*
X174256571Y-94861314D02*
X174142286Y-94975600D01*
X174142286Y-94975600D02*
X173970857Y-95032742D01*
X173970857Y-95032742D02*
X173685143Y-95032742D01*
X174885143Y-94404171D02*
X175285143Y-94404171D01*
X175456571Y-95032742D02*
X174885143Y-95032742D01*
X174885143Y-95032742D02*
X174885143Y-93832742D01*
X174885143Y-93832742D02*
X175456571Y-93832742D01*
X139836857Y-105834171D02*
X140008285Y-105891314D01*
X140008285Y-105891314D02*
X140065428Y-105948457D01*
X140065428Y-105948457D02*
X140122571Y-106062742D01*
X140122571Y-106062742D02*
X140122571Y-106234171D01*
X140122571Y-106234171D02*
X140065428Y-106348457D01*
X140065428Y-106348457D02*
X140008285Y-106405600D01*
X140008285Y-106405600D02*
X139894000Y-106462742D01*
X139894000Y-106462742D02*
X139436857Y-106462742D01*
X139436857Y-106462742D02*
X139436857Y-105262742D01*
X139436857Y-105262742D02*
X139836857Y-105262742D01*
X139836857Y-105262742D02*
X139951143Y-105319885D01*
X139951143Y-105319885D02*
X140008285Y-105377028D01*
X140008285Y-105377028D02*
X140065428Y-105491314D01*
X140065428Y-105491314D02*
X140065428Y-105605600D01*
X140065428Y-105605600D02*
X140008285Y-105719885D01*
X140008285Y-105719885D02*
X139951143Y-105777028D01*
X139951143Y-105777028D02*
X139836857Y-105834171D01*
X139836857Y-105834171D02*
X139436857Y-105834171D01*
X140636857Y-106462742D02*
X140636857Y-105262742D01*
X141151143Y-106119885D02*
X141722572Y-106119885D01*
X141036857Y-106462742D02*
X141436857Y-105262742D01*
X141436857Y-105262742D02*
X141836857Y-106462742D01*
X142179714Y-106405600D02*
X142351143Y-106462742D01*
X142351143Y-106462742D02*
X142636857Y-106462742D01*
X142636857Y-106462742D02*
X142751143Y-106405600D01*
X142751143Y-106405600D02*
X142808285Y-106348457D01*
X142808285Y-106348457D02*
X142865428Y-106234171D01*
X142865428Y-106234171D02*
X142865428Y-106119885D01*
X142865428Y-106119885D02*
X142808285Y-106005600D01*
X142808285Y-106005600D02*
X142751143Y-105948457D01*
X142751143Y-105948457D02*
X142636857Y-105891314D01*
X142636857Y-105891314D02*
X142408285Y-105834171D01*
X142408285Y-105834171D02*
X142294000Y-105777028D01*
X142294000Y-105777028D02*
X142236857Y-105719885D01*
X142236857Y-105719885D02*
X142179714Y-105605600D01*
X142179714Y-105605600D02*
X142179714Y-105491314D01*
X142179714Y-105491314D02*
X142236857Y-105377028D01*
X142236857Y-105377028D02*
X142294000Y-105319885D01*
X142294000Y-105319885D02*
X142408285Y-105262742D01*
X142408285Y-105262742D02*
X142694000Y-105262742D01*
X142694000Y-105262742D02*
X142865428Y-105319885D01*
X143094000Y-106577028D02*
X144008285Y-106577028D01*
X144294000Y-106462742D02*
X144294000Y-105262742D01*
X144865429Y-106462742D02*
X144865429Y-105262742D01*
X144865429Y-105262742D02*
X145551143Y-106462742D01*
X145551143Y-106462742D02*
X145551143Y-105262742D01*
X173199857Y-105834171D02*
X173371285Y-105891314D01*
X173371285Y-105891314D02*
X173428428Y-105948457D01*
X173428428Y-105948457D02*
X173485571Y-106062742D01*
X173485571Y-106062742D02*
X173485571Y-106234171D01*
X173485571Y-106234171D02*
X173428428Y-106348457D01*
X173428428Y-106348457D02*
X173371285Y-106405600D01*
X173371285Y-106405600D02*
X173257000Y-106462742D01*
X173257000Y-106462742D02*
X172799857Y-106462742D01*
X172799857Y-106462742D02*
X172799857Y-105262742D01*
X172799857Y-105262742D02*
X173199857Y-105262742D01*
X173199857Y-105262742D02*
X173314143Y-105319885D01*
X173314143Y-105319885D02*
X173371285Y-105377028D01*
X173371285Y-105377028D02*
X173428428Y-105491314D01*
X173428428Y-105491314D02*
X173428428Y-105605600D01*
X173428428Y-105605600D02*
X173371285Y-105719885D01*
X173371285Y-105719885D02*
X173314143Y-105777028D01*
X173314143Y-105777028D02*
X173199857Y-105834171D01*
X173199857Y-105834171D02*
X172799857Y-105834171D01*
X173999857Y-106462742D02*
X173999857Y-105262742D01*
X174514143Y-106119885D02*
X175085572Y-106119885D01*
X174399857Y-106462742D02*
X174799857Y-105262742D01*
X174799857Y-105262742D02*
X175199857Y-106462742D01*
X175542714Y-106405600D02*
X175714143Y-106462742D01*
X175714143Y-106462742D02*
X175999857Y-106462742D01*
X175999857Y-106462742D02*
X176114143Y-106405600D01*
X176114143Y-106405600D02*
X176171285Y-106348457D01*
X176171285Y-106348457D02*
X176228428Y-106234171D01*
X176228428Y-106234171D02*
X176228428Y-106119885D01*
X176228428Y-106119885D02*
X176171285Y-106005600D01*
X176171285Y-106005600D02*
X176114143Y-105948457D01*
X176114143Y-105948457D02*
X175999857Y-105891314D01*
X175999857Y-105891314D02*
X175771285Y-105834171D01*
X175771285Y-105834171D02*
X175657000Y-105777028D01*
X175657000Y-105777028D02*
X175599857Y-105719885D01*
X175599857Y-105719885D02*
X175542714Y-105605600D01*
X175542714Y-105605600D02*
X175542714Y-105491314D01*
X175542714Y-105491314D02*
X175599857Y-105377028D01*
X175599857Y-105377028D02*
X175657000Y-105319885D01*
X175657000Y-105319885D02*
X175771285Y-105262742D01*
X175771285Y-105262742D02*
X176057000Y-105262742D01*
X176057000Y-105262742D02*
X176228428Y-105319885D01*
X176457000Y-106577028D02*
X177371285Y-106577028D01*
X177885571Y-105262742D02*
X178114143Y-105262742D01*
X178114143Y-105262742D02*
X178228428Y-105319885D01*
X178228428Y-105319885D02*
X178342714Y-105434171D01*
X178342714Y-105434171D02*
X178399857Y-105662742D01*
X178399857Y-105662742D02*
X178399857Y-106062742D01*
X178399857Y-106062742D02*
X178342714Y-106291314D01*
X178342714Y-106291314D02*
X178228428Y-106405600D01*
X178228428Y-106405600D02*
X178114143Y-106462742D01*
X178114143Y-106462742D02*
X177885571Y-106462742D01*
X177885571Y-106462742D02*
X177771286Y-106405600D01*
X177771286Y-106405600D02*
X177657000Y-106291314D01*
X177657000Y-106291314D02*
X177599857Y-106062742D01*
X177599857Y-106062742D02*
X177599857Y-105662742D01*
X177599857Y-105662742D02*
X177657000Y-105434171D01*
X177657000Y-105434171D02*
X177771286Y-105319885D01*
X177771286Y-105319885D02*
X177885571Y-105262742D01*
X178914143Y-105262742D02*
X178914143Y-106234171D01*
X178914143Y-106234171D02*
X178971286Y-106348457D01*
X178971286Y-106348457D02*
X179028429Y-106405600D01*
X179028429Y-106405600D02*
X179142714Y-106462742D01*
X179142714Y-106462742D02*
X179371286Y-106462742D01*
X179371286Y-106462742D02*
X179485571Y-106405600D01*
X179485571Y-106405600D02*
X179542714Y-106348457D01*
X179542714Y-106348457D02*
X179599857Y-106234171D01*
X179599857Y-106234171D02*
X179599857Y-105262742D01*
X179999857Y-105262742D02*
X180685572Y-105262742D01*
X180342714Y-106462742D02*
X180342714Y-105262742D01*
X187775999Y-104881742D02*
X188004571Y-104881742D01*
X188004571Y-104881742D02*
X188118856Y-104938885D01*
X188118856Y-104938885D02*
X188233142Y-105053171D01*
X188233142Y-105053171D02*
X188290285Y-105281742D01*
X188290285Y-105281742D02*
X188290285Y-105681742D01*
X188290285Y-105681742D02*
X188233142Y-105910314D01*
X188233142Y-105910314D02*
X188118856Y-106024600D01*
X188118856Y-106024600D02*
X188004571Y-106081742D01*
X188004571Y-106081742D02*
X187775999Y-106081742D01*
X187775999Y-106081742D02*
X187661714Y-106024600D01*
X187661714Y-106024600D02*
X187547428Y-105910314D01*
X187547428Y-105910314D02*
X187490285Y-105681742D01*
X187490285Y-105681742D02*
X187490285Y-105281742D01*
X187490285Y-105281742D02*
X187547428Y-105053171D01*
X187547428Y-105053171D02*
X187661714Y-104938885D01*
X187661714Y-104938885D02*
X187775999Y-104881742D01*
X188804571Y-104881742D02*
X188804571Y-105853171D01*
X188804571Y-105853171D02*
X188861714Y-105967457D01*
X188861714Y-105967457D02*
X188918857Y-106024600D01*
X188918857Y-106024600D02*
X189033142Y-106081742D01*
X189033142Y-106081742D02*
X189261714Y-106081742D01*
X189261714Y-106081742D02*
X189375999Y-106024600D01*
X189375999Y-106024600D02*
X189433142Y-105967457D01*
X189433142Y-105967457D02*
X189490285Y-105853171D01*
X189490285Y-105853171D02*
X189490285Y-104881742D01*
X189890285Y-104881742D02*
X190576000Y-104881742D01*
X190233142Y-106081742D02*
X190233142Y-104881742D01*
X176502571Y-81944742D02*
X176502571Y-82916171D01*
X176502571Y-82916171D02*
X176559714Y-83030457D01*
X176559714Y-83030457D02*
X176616857Y-83087600D01*
X176616857Y-83087600D02*
X176731142Y-83144742D01*
X176731142Y-83144742D02*
X176959714Y-83144742D01*
X176959714Y-83144742D02*
X177073999Y-83087600D01*
X177073999Y-83087600D02*
X177131142Y-83030457D01*
X177131142Y-83030457D02*
X177188285Y-82916171D01*
X177188285Y-82916171D02*
X177188285Y-81944742D01*
X177759714Y-82344742D02*
X177759714Y-83144742D01*
X177759714Y-82459028D02*
X177816857Y-82401885D01*
X177816857Y-82401885D02*
X177931142Y-82344742D01*
X177931142Y-82344742D02*
X178102571Y-82344742D01*
X178102571Y-82344742D02*
X178216857Y-82401885D01*
X178216857Y-82401885D02*
X178274000Y-82516171D01*
X178274000Y-82516171D02*
X178274000Y-83144742D01*
X178845428Y-83144742D02*
X178845428Y-82344742D01*
X178845428Y-81944742D02*
X178788285Y-82001885D01*
X178788285Y-82001885D02*
X178845428Y-82059028D01*
X178845428Y-82059028D02*
X178902571Y-82001885D01*
X178902571Y-82001885D02*
X178845428Y-81944742D01*
X178845428Y-81944742D02*
X178845428Y-82059028D01*
X179416857Y-83144742D02*
X179416857Y-81944742D01*
X179416857Y-82401885D02*
X179531143Y-82344742D01*
X179531143Y-82344742D02*
X179759714Y-82344742D01*
X179759714Y-82344742D02*
X179874000Y-82401885D01*
X179874000Y-82401885D02*
X179931143Y-82459028D01*
X179931143Y-82459028D02*
X179988285Y-82573314D01*
X179988285Y-82573314D02*
X179988285Y-82916171D01*
X179988285Y-82916171D02*
X179931143Y-83030457D01*
X179931143Y-83030457D02*
X179874000Y-83087600D01*
X179874000Y-83087600D02*
X179759714Y-83144742D01*
X179759714Y-83144742D02*
X179531143Y-83144742D01*
X179531143Y-83144742D02*
X179416857Y-83087600D01*
X180502571Y-83144742D02*
X180502571Y-82344742D01*
X180502571Y-81944742D02*
X180445428Y-82001885D01*
X180445428Y-82001885D02*
X180502571Y-82059028D01*
X180502571Y-82059028D02*
X180559714Y-82001885D01*
X180559714Y-82001885D02*
X180502571Y-81944742D01*
X180502571Y-81944742D02*
X180502571Y-82059028D01*
X181588286Y-83144742D02*
X181588286Y-82516171D01*
X181588286Y-82516171D02*
X181531143Y-82401885D01*
X181531143Y-82401885D02*
X181416857Y-82344742D01*
X181416857Y-82344742D02*
X181188286Y-82344742D01*
X181188286Y-82344742D02*
X181074000Y-82401885D01*
X181588286Y-83087600D02*
X181474000Y-83144742D01*
X181474000Y-83144742D02*
X181188286Y-83144742D01*
X181188286Y-83144742D02*
X181074000Y-83087600D01*
X181074000Y-83087600D02*
X181016857Y-82973314D01*
X181016857Y-82973314D02*
X181016857Y-82859028D01*
X181016857Y-82859028D02*
X181074000Y-82744742D01*
X181074000Y-82744742D02*
X181188286Y-82687600D01*
X181188286Y-82687600D02*
X181474000Y-82687600D01*
X181474000Y-82687600D02*
X181588286Y-82630457D01*
X182102571Y-83087600D02*
X182216857Y-83144742D01*
X182216857Y-83144742D02*
X182445428Y-83144742D01*
X182445428Y-83144742D02*
X182559714Y-83087600D01*
X182559714Y-83087600D02*
X182616857Y-82973314D01*
X182616857Y-82973314D02*
X182616857Y-82916171D01*
X182616857Y-82916171D02*
X182559714Y-82801885D01*
X182559714Y-82801885D02*
X182445428Y-82744742D01*
X182445428Y-82744742D02*
X182274000Y-82744742D01*
X182274000Y-82744742D02*
X182159714Y-82687600D01*
X182159714Y-82687600D02*
X182102571Y-82573314D01*
X182102571Y-82573314D02*
X182102571Y-82516171D01*
X182102571Y-82516171D02*
X182159714Y-82401885D01*
X182159714Y-82401885D02*
X182274000Y-82344742D01*
X182274000Y-82344742D02*
X182445428Y-82344742D01*
X182445428Y-82344742D02*
X182559714Y-82401885D01*
X184045429Y-82687600D02*
X184959715Y-82687600D01*
X184502572Y-83144742D02*
X184502572Y-82230457D01*
X186445429Y-83144742D02*
X186445429Y-81944742D01*
X186445429Y-82516171D02*
X187131143Y-82516171D01*
X187131143Y-83144742D02*
X187131143Y-81944742D01*
X188102572Y-82516171D02*
X187702572Y-82516171D01*
X187702572Y-83144742D02*
X187702572Y-81944742D01*
X187702572Y-81944742D02*
X188274000Y-81944742D01*
X189588286Y-83087600D02*
X189759715Y-83144742D01*
X189759715Y-83144742D02*
X190045429Y-83144742D01*
X190045429Y-83144742D02*
X190159715Y-83087600D01*
X190159715Y-83087600D02*
X190216857Y-83030457D01*
X190216857Y-83030457D02*
X190274000Y-82916171D01*
X190274000Y-82916171D02*
X190274000Y-82801885D01*
X190274000Y-82801885D02*
X190216857Y-82687600D01*
X190216857Y-82687600D02*
X190159715Y-82630457D01*
X190159715Y-82630457D02*
X190045429Y-82573314D01*
X190045429Y-82573314D02*
X189816857Y-82516171D01*
X189816857Y-82516171D02*
X189702572Y-82459028D01*
X189702572Y-82459028D02*
X189645429Y-82401885D01*
X189645429Y-82401885D02*
X189588286Y-82287600D01*
X189588286Y-82287600D02*
X189588286Y-82173314D01*
X189588286Y-82173314D02*
X189645429Y-82059028D01*
X189645429Y-82059028D02*
X189702572Y-82001885D01*
X189702572Y-82001885D02*
X189816857Y-81944742D01*
X189816857Y-81944742D02*
X190102572Y-81944742D01*
X190102572Y-81944742D02*
X190274000Y-82001885D01*
X190674000Y-82344742D02*
X190902572Y-83144742D01*
X190902572Y-83144742D02*
X191131143Y-82573314D01*
X191131143Y-82573314D02*
X191359714Y-83144742D01*
X191359714Y-83144742D02*
X191588286Y-82344742D01*
X192045429Y-83144742D02*
X192045429Y-82344742D01*
X192045429Y-81944742D02*
X191988286Y-82001885D01*
X191988286Y-82001885D02*
X192045429Y-82059028D01*
X192045429Y-82059028D02*
X192102572Y-82001885D01*
X192102572Y-82001885D02*
X192045429Y-81944742D01*
X192045429Y-81944742D02*
X192045429Y-82059028D01*
X192445429Y-82344742D02*
X192902572Y-82344742D01*
X192616858Y-81944742D02*
X192616858Y-82973314D01*
X192616858Y-82973314D02*
X192674001Y-83087600D01*
X192674001Y-83087600D02*
X192788286Y-83144742D01*
X192788286Y-83144742D02*
X192902572Y-83144742D01*
X193816858Y-83087600D02*
X193702572Y-83144742D01*
X193702572Y-83144742D02*
X193474000Y-83144742D01*
X193474000Y-83144742D02*
X193359715Y-83087600D01*
X193359715Y-83087600D02*
X193302572Y-83030457D01*
X193302572Y-83030457D02*
X193245429Y-82916171D01*
X193245429Y-82916171D02*
X193245429Y-82573314D01*
X193245429Y-82573314D02*
X193302572Y-82459028D01*
X193302572Y-82459028D02*
X193359715Y-82401885D01*
X193359715Y-82401885D02*
X193474000Y-82344742D01*
X193474000Y-82344742D02*
X193702572Y-82344742D01*
X193702572Y-82344742D02*
X193816858Y-82401885D01*
X194331143Y-83144742D02*
X194331143Y-81944742D01*
X194845429Y-83144742D02*
X194845429Y-82516171D01*
X194845429Y-82516171D02*
X194788286Y-82401885D01*
X194788286Y-82401885D02*
X194674000Y-82344742D01*
X194674000Y-82344742D02*
X194502571Y-82344742D01*
X194502571Y-82344742D02*
X194388286Y-82401885D01*
X194388286Y-82401885D02*
X194331143Y-82459028D01*
X183216857Y-85076742D02*
X183216857Y-83876742D01*
X183216857Y-83876742D02*
X183502571Y-83876742D01*
X183502571Y-83876742D02*
X183674000Y-83933885D01*
X183674000Y-83933885D02*
X183788285Y-84048171D01*
X183788285Y-84048171D02*
X183845428Y-84162457D01*
X183845428Y-84162457D02*
X183902571Y-84391028D01*
X183902571Y-84391028D02*
X183902571Y-84562457D01*
X183902571Y-84562457D02*
X183845428Y-84791028D01*
X183845428Y-84791028D02*
X183788285Y-84905314D01*
X183788285Y-84905314D02*
X183674000Y-85019600D01*
X183674000Y-85019600D02*
X183502571Y-85076742D01*
X183502571Y-85076742D02*
X183216857Y-85076742D01*
X184416857Y-85076742D02*
X184416857Y-83876742D01*
X185102571Y-85076742D02*
X184588285Y-84391028D01*
X185102571Y-83876742D02*
X184416857Y-84562457D01*
X185502571Y-83876742D02*
X186245428Y-83876742D01*
X186245428Y-83876742D02*
X185845428Y-84333885D01*
X185845428Y-84333885D02*
X186016857Y-84333885D01*
X186016857Y-84333885D02*
X186131143Y-84391028D01*
X186131143Y-84391028D02*
X186188285Y-84448171D01*
X186188285Y-84448171D02*
X186245428Y-84562457D01*
X186245428Y-84562457D02*
X186245428Y-84848171D01*
X186245428Y-84848171D02*
X186188285Y-84962457D01*
X186188285Y-84962457D02*
X186131143Y-85019600D01*
X186131143Y-85019600D02*
X186016857Y-85076742D01*
X186016857Y-85076742D02*
X185674000Y-85076742D01*
X185674000Y-85076742D02*
X185559714Y-85019600D01*
X185559714Y-85019600D02*
X185502571Y-84962457D01*
X187102571Y-83876742D02*
X187102571Y-84733885D01*
X187102571Y-84733885D02*
X187045428Y-84905314D01*
X187045428Y-84905314D02*
X186931142Y-85019600D01*
X186931142Y-85019600D02*
X186759714Y-85076742D01*
X186759714Y-85076742D02*
X186645428Y-85076742D01*
X188074000Y-84448171D02*
X187674000Y-84448171D01*
X187674000Y-85076742D02*
X187674000Y-83876742D01*
X187674000Y-83876742D02*
X188245428Y-83876742D01*
X127514428Y-105954742D02*
X127514428Y-104754742D01*
X128085857Y-105954742D02*
X128085857Y-104754742D01*
X128085857Y-104754742D02*
X128771571Y-105954742D01*
X128771571Y-105954742D02*
X128771571Y-104754742D01*
D11*
X159154905Y-91553819D02*
X159154905Y-90553819D01*
X159154905Y-90553819D02*
X159393000Y-90553819D01*
X159393000Y-90553819D02*
X159535857Y-90601438D01*
X159535857Y-90601438D02*
X159631095Y-90696676D01*
X159631095Y-90696676D02*
X159678714Y-90791914D01*
X159678714Y-90791914D02*
X159726333Y-90982390D01*
X159726333Y-90982390D02*
X159726333Y-91125247D01*
X159726333Y-91125247D02*
X159678714Y-91315723D01*
X159678714Y-91315723D02*
X159631095Y-91410961D01*
X159631095Y-91410961D02*
X159535857Y-91506200D01*
X159535857Y-91506200D02*
X159393000Y-91553819D01*
X159393000Y-91553819D02*
X159154905Y-91553819D01*
X160107286Y-90649057D02*
X160154905Y-90601438D01*
X160154905Y-90601438D02*
X160250143Y-90553819D01*
X160250143Y-90553819D02*
X160488238Y-90553819D01*
X160488238Y-90553819D02*
X160583476Y-90601438D01*
X160583476Y-90601438D02*
X160631095Y-90649057D01*
X160631095Y-90649057D02*
X160678714Y-90744295D01*
X160678714Y-90744295D02*
X160678714Y-90839533D01*
X160678714Y-90839533D02*
X160631095Y-90982390D01*
X160631095Y-90982390D02*
X160059667Y-91553819D01*
X160059667Y-91553819D02*
X160678714Y-91553819D01*
X159061905Y-98752819D02*
X159061905Y-97752819D01*
X159061905Y-97752819D02*
X159300000Y-97752819D01*
X159300000Y-97752819D02*
X159442857Y-97800438D01*
X159442857Y-97800438D02*
X159538095Y-97895676D01*
X159538095Y-97895676D02*
X159585714Y-97990914D01*
X159585714Y-97990914D02*
X159633333Y-98181390D01*
X159633333Y-98181390D02*
X159633333Y-98324247D01*
X159633333Y-98324247D02*
X159585714Y-98514723D01*
X159585714Y-98514723D02*
X159538095Y-98609961D01*
X159538095Y-98609961D02*
X159442857Y-98705200D01*
X159442857Y-98705200D02*
X159300000Y-98752819D01*
X159300000Y-98752819D02*
X159061905Y-98752819D01*
X160585714Y-98752819D02*
X160014286Y-98752819D01*
X160300000Y-98752819D02*
X160300000Y-97752819D01*
X160300000Y-97752819D02*
X160204762Y-97895676D01*
X160204762Y-97895676D02*
X160109524Y-97990914D01*
X160109524Y-97990914D02*
X160014286Y-98038533D01*
X189794819Y-96753333D02*
X190509104Y-96753333D01*
X190509104Y-96753333D02*
X190651961Y-96800952D01*
X190651961Y-96800952D02*
X190747200Y-96896190D01*
X190747200Y-96896190D02*
X190794819Y-97039047D01*
X190794819Y-97039047D02*
X190794819Y-97134285D01*
X189890057Y-96324761D02*
X189842438Y-96277142D01*
X189842438Y-96277142D02*
X189794819Y-96181904D01*
X189794819Y-96181904D02*
X189794819Y-95943809D01*
X189794819Y-95943809D02*
X189842438Y-95848571D01*
X189842438Y-95848571D02*
X189890057Y-95800952D01*
X189890057Y-95800952D02*
X189985295Y-95753333D01*
X189985295Y-95753333D02*
X190080533Y-95753333D01*
X190080533Y-95753333D02*
X190223390Y-95800952D01*
X190223390Y-95800952D02*
X190794819Y-96372380D01*
X190794819Y-96372380D02*
X190794819Y-95753333D01*
X158976819Y-103845166D02*
X158976819Y-104321356D01*
X158976819Y-104321356D02*
X157976819Y-104321356D01*
X158976819Y-102988023D02*
X158976819Y-103559451D01*
X158976819Y-103273737D02*
X157976819Y-103273737D01*
X157976819Y-103273737D02*
X158119676Y-103368975D01*
X158119676Y-103368975D02*
X158214914Y-103464213D01*
X158214914Y-103464213D02*
X158262533Y-103559451D01*
X152553333Y-98559580D02*
X152505714Y-98607200D01*
X152505714Y-98607200D02*
X152362857Y-98654819D01*
X152362857Y-98654819D02*
X152267619Y-98654819D01*
X152267619Y-98654819D02*
X152124762Y-98607200D01*
X152124762Y-98607200D02*
X152029524Y-98511961D01*
X152029524Y-98511961D02*
X151981905Y-98416723D01*
X151981905Y-98416723D02*
X151934286Y-98226247D01*
X151934286Y-98226247D02*
X151934286Y-98083390D01*
X151934286Y-98083390D02*
X151981905Y-97892914D01*
X151981905Y-97892914D02*
X152029524Y-97797676D01*
X152029524Y-97797676D02*
X152124762Y-97702438D01*
X152124762Y-97702438D02*
X152267619Y-97654819D01*
X152267619Y-97654819D02*
X152362857Y-97654819D01*
X152362857Y-97654819D02*
X152505714Y-97702438D01*
X152505714Y-97702438D02*
X152553333Y-97750057D01*
X153505714Y-98654819D02*
X152934286Y-98654819D01*
X153220000Y-98654819D02*
X153220000Y-97654819D01*
X153220000Y-97654819D02*
X153124762Y-97797676D01*
X153124762Y-97797676D02*
X153029524Y-97892914D01*
X153029524Y-97892914D02*
X152934286Y-97940533D01*
X167077819Y-93742166D02*
X166601628Y-94075499D01*
X167077819Y-94313594D02*
X166077819Y-94313594D01*
X166077819Y-94313594D02*
X166077819Y-93932642D01*
X166077819Y-93932642D02*
X166125438Y-93837404D01*
X166125438Y-93837404D02*
X166173057Y-93789785D01*
X166173057Y-93789785D02*
X166268295Y-93742166D01*
X166268295Y-93742166D02*
X166411152Y-93742166D01*
X166411152Y-93742166D02*
X166506390Y-93789785D01*
X166506390Y-93789785D02*
X166554009Y-93837404D01*
X166554009Y-93837404D02*
X166601628Y-93932642D01*
X166601628Y-93932642D02*
X166601628Y-94313594D01*
X166173057Y-93361213D02*
X166125438Y-93313594D01*
X166125438Y-93313594D02*
X166077819Y-93218356D01*
X166077819Y-93218356D02*
X166077819Y-92980261D01*
X166077819Y-92980261D02*
X166125438Y-92885023D01*
X166125438Y-92885023D02*
X166173057Y-92837404D01*
X166173057Y-92837404D02*
X166268295Y-92789785D01*
X166268295Y-92789785D02*
X166363533Y-92789785D01*
X166363533Y-92789785D02*
X166506390Y-92837404D01*
X166506390Y-92837404D02*
X167077819Y-93408832D01*
X167077819Y-93408832D02*
X167077819Y-92789785D01*
X159076819Y-99988666D02*
X158600628Y-100321999D01*
X159076819Y-100560094D02*
X158076819Y-100560094D01*
X158076819Y-100560094D02*
X158076819Y-100179142D01*
X158076819Y-100179142D02*
X158124438Y-100083904D01*
X158124438Y-100083904D02*
X158172057Y-100036285D01*
X158172057Y-100036285D02*
X158267295Y-99988666D01*
X158267295Y-99988666D02*
X158410152Y-99988666D01*
X158410152Y-99988666D02*
X158505390Y-100036285D01*
X158505390Y-100036285D02*
X158553009Y-100083904D01*
X158553009Y-100083904D02*
X158600628Y-100179142D01*
X158600628Y-100179142D02*
X158600628Y-100560094D01*
X159076819Y-99036285D02*
X159076819Y-99607713D01*
X159076819Y-99321999D02*
X158076819Y-99321999D01*
X158076819Y-99321999D02*
X158219676Y-99417237D01*
X158219676Y-99417237D02*
X158314914Y-99512475D01*
X158314914Y-99512475D02*
X158362533Y-99607713D01*
X165314333Y-98559580D02*
X165266714Y-98607200D01*
X165266714Y-98607200D02*
X165123857Y-98654819D01*
X165123857Y-98654819D02*
X165028619Y-98654819D01*
X165028619Y-98654819D02*
X164885762Y-98607200D01*
X164885762Y-98607200D02*
X164790524Y-98511961D01*
X164790524Y-98511961D02*
X164742905Y-98416723D01*
X164742905Y-98416723D02*
X164695286Y-98226247D01*
X164695286Y-98226247D02*
X164695286Y-98083390D01*
X164695286Y-98083390D02*
X164742905Y-97892914D01*
X164742905Y-97892914D02*
X164790524Y-97797676D01*
X164790524Y-97797676D02*
X164885762Y-97702438D01*
X164885762Y-97702438D02*
X165028619Y-97654819D01*
X165028619Y-97654819D02*
X165123857Y-97654819D01*
X165123857Y-97654819D02*
X165266714Y-97702438D01*
X165266714Y-97702438D02*
X165314333Y-97750057D01*
X165695286Y-97750057D02*
X165742905Y-97702438D01*
X165742905Y-97702438D02*
X165838143Y-97654819D01*
X165838143Y-97654819D02*
X166076238Y-97654819D01*
X166076238Y-97654819D02*
X166171476Y-97702438D01*
X166171476Y-97702438D02*
X166219095Y-97750057D01*
X166219095Y-97750057D02*
X166266714Y-97845295D01*
X166266714Y-97845295D02*
X166266714Y-97940533D01*
X166266714Y-97940533D02*
X166219095Y-98083390D01*
X166219095Y-98083390D02*
X165647667Y-98654819D01*
X165647667Y-98654819D02*
X166266714Y-98654819D01*
X166356333Y-90070319D02*
X165880143Y-90070319D01*
X165880143Y-90070319D02*
X165880143Y-89070319D01*
X166642048Y-89165557D02*
X166689667Y-89117938D01*
X166689667Y-89117938D02*
X166784905Y-89070319D01*
X166784905Y-89070319D02*
X167023000Y-89070319D01*
X167023000Y-89070319D02*
X167118238Y-89117938D01*
X167118238Y-89117938D02*
X167165857Y-89165557D01*
X167165857Y-89165557D02*
X167213476Y-89260795D01*
X167213476Y-89260795D02*
X167213476Y-89356033D01*
X167213476Y-89356033D02*
X167165857Y-89498890D01*
X167165857Y-89498890D02*
X166594429Y-90070319D01*
X166594429Y-90070319D02*
X167213476Y-90070319D01*
X172513714Y-71162104D02*
X172989904Y-71162104D01*
X172418476Y-71447819D02*
X172751809Y-70447819D01*
X172751809Y-70447819D02*
X173085142Y-71447819D01*
X173942285Y-71447819D02*
X173370857Y-71447819D01*
X173656571Y-71447819D02*
X173656571Y-70447819D01*
X173656571Y-70447819D02*
X173561333Y-70590676D01*
X173561333Y-70590676D02*
X173466095Y-70685914D01*
X173466095Y-70685914D02*
X173370857Y-70733533D01*
X189954819Y-72381904D02*
X190764342Y-72381904D01*
X190764342Y-72381904D02*
X190859580Y-72334285D01*
X190859580Y-72334285D02*
X190907200Y-72286666D01*
X190907200Y-72286666D02*
X190954819Y-72191428D01*
X190954819Y-72191428D02*
X190954819Y-72000952D01*
X190954819Y-72000952D02*
X190907200Y-71905714D01*
X190907200Y-71905714D02*
X190859580Y-71858095D01*
X190859580Y-71858095D02*
X190764342Y-71810476D01*
X190764342Y-71810476D02*
X189954819Y-71810476D01*
X190907200Y-71381904D02*
X190954819Y-71239047D01*
X190954819Y-71239047D02*
X190954819Y-71000952D01*
X190954819Y-71000952D02*
X190907200Y-70905714D01*
X190907200Y-70905714D02*
X190859580Y-70858095D01*
X190859580Y-70858095D02*
X190764342Y-70810476D01*
X190764342Y-70810476D02*
X190669104Y-70810476D01*
X190669104Y-70810476D02*
X190573866Y-70858095D01*
X190573866Y-70858095D02*
X190526247Y-70905714D01*
X190526247Y-70905714D02*
X190478628Y-71000952D01*
X190478628Y-71000952D02*
X190431009Y-71191428D01*
X190431009Y-71191428D02*
X190383390Y-71286666D01*
X190383390Y-71286666D02*
X190335771Y-71334285D01*
X190335771Y-71334285D02*
X190240533Y-71381904D01*
X190240533Y-71381904D02*
X190145295Y-71381904D01*
X190145295Y-71381904D02*
X190050057Y-71334285D01*
X190050057Y-71334285D02*
X190002438Y-71286666D01*
X190002438Y-71286666D02*
X189954819Y-71191428D01*
X189954819Y-71191428D02*
X189954819Y-70953333D01*
X189954819Y-70953333D02*
X190002438Y-70810476D01*
X190431009Y-70048571D02*
X190478628Y-69905714D01*
X190478628Y-69905714D02*
X190526247Y-69858095D01*
X190526247Y-69858095D02*
X190621485Y-69810476D01*
X190621485Y-69810476D02*
X190764342Y-69810476D01*
X190764342Y-69810476D02*
X190859580Y-69858095D01*
X190859580Y-69858095D02*
X190907200Y-69905714D01*
X190907200Y-69905714D02*
X190954819Y-70000952D01*
X190954819Y-70000952D02*
X190954819Y-70381904D01*
X190954819Y-70381904D02*
X189954819Y-70381904D01*
X189954819Y-70381904D02*
X189954819Y-70048571D01*
X189954819Y-70048571D02*
X190002438Y-69953333D01*
X190002438Y-69953333D02*
X190050057Y-69905714D01*
X190050057Y-69905714D02*
X190145295Y-69858095D01*
X190145295Y-69858095D02*
X190240533Y-69858095D01*
X190240533Y-69858095D02*
X190335771Y-69905714D01*
X190335771Y-69905714D02*
X190383390Y-69953333D01*
X190383390Y-69953333D02*
X190431009Y-70048571D01*
X190431009Y-70048571D02*
X190431009Y-70381904D01*
X128354819Y-96853333D02*
X129069104Y-96853333D01*
X129069104Y-96853333D02*
X129211961Y-96900952D01*
X129211961Y-96900952D02*
X129307200Y-96996190D01*
X129307200Y-96996190D02*
X129354819Y-97139047D01*
X129354819Y-97139047D02*
X129354819Y-97234285D01*
X129354819Y-95853333D02*
X129354819Y-96424761D01*
X129354819Y-96139047D02*
X128354819Y-96139047D01*
X128354819Y-96139047D02*
X128497676Y-96234285D01*
X128497676Y-96234285D02*
X128592914Y-96329523D01*
X128592914Y-96329523D02*
X128640533Y-96424761D01*
X152626819Y-89701666D02*
X152626819Y-90177856D01*
X152626819Y-90177856D02*
X151626819Y-90177856D01*
X151626819Y-89463570D02*
X151626819Y-88844523D01*
X151626819Y-88844523D02*
X152007771Y-89177856D01*
X152007771Y-89177856D02*
X152007771Y-89034999D01*
X152007771Y-89034999D02*
X152055390Y-88939761D01*
X152055390Y-88939761D02*
X152103009Y-88892142D01*
X152103009Y-88892142D02*
X152198247Y-88844523D01*
X152198247Y-88844523D02*
X152436342Y-88844523D01*
X152436342Y-88844523D02*
X152531580Y-88892142D01*
X152531580Y-88892142D02*
X152579200Y-88939761D01*
X152579200Y-88939761D02*
X152626819Y-89034999D01*
X152626819Y-89034999D02*
X152626819Y-89320713D01*
X152626819Y-89320713D02*
X152579200Y-89415951D01*
X152579200Y-89415951D02*
X152531580Y-89463570D01*
X175069667Y-102007200D02*
X175212524Y-102054819D01*
X175212524Y-102054819D02*
X175450619Y-102054819D01*
X175450619Y-102054819D02*
X175545857Y-102007200D01*
X175545857Y-102007200D02*
X175593476Y-101959580D01*
X175593476Y-101959580D02*
X175641095Y-101864342D01*
X175641095Y-101864342D02*
X175641095Y-101769104D01*
X175641095Y-101769104D02*
X175593476Y-101673866D01*
X175593476Y-101673866D02*
X175545857Y-101626247D01*
X175545857Y-101626247D02*
X175450619Y-101578628D01*
X175450619Y-101578628D02*
X175260143Y-101531009D01*
X175260143Y-101531009D02*
X175164905Y-101483390D01*
X175164905Y-101483390D02*
X175117286Y-101435771D01*
X175117286Y-101435771D02*
X175069667Y-101340533D01*
X175069667Y-101340533D02*
X175069667Y-101245295D01*
X175069667Y-101245295D02*
X175117286Y-101150057D01*
X175117286Y-101150057D02*
X175164905Y-101102438D01*
X175164905Y-101102438D02*
X175260143Y-101054819D01*
X175260143Y-101054819D02*
X175498238Y-101054819D01*
X175498238Y-101054819D02*
X175641095Y-101102438D01*
X175974429Y-101054819D02*
X176212524Y-102054819D01*
X176212524Y-102054819D02*
X176403000Y-101340533D01*
X176403000Y-101340533D02*
X176593476Y-102054819D01*
X176593476Y-102054819D02*
X176831572Y-101054819D01*
X177164905Y-101150057D02*
X177212524Y-101102438D01*
X177212524Y-101102438D02*
X177307762Y-101054819D01*
X177307762Y-101054819D02*
X177545857Y-101054819D01*
X177545857Y-101054819D02*
X177641095Y-101102438D01*
X177641095Y-101102438D02*
X177688714Y-101150057D01*
X177688714Y-101150057D02*
X177736333Y-101245295D01*
X177736333Y-101245295D02*
X177736333Y-101340533D01*
X177736333Y-101340533D02*
X177688714Y-101483390D01*
X177688714Y-101483390D02*
X177117286Y-102054819D01*
X177117286Y-102054819D02*
X177736333Y-102054819D01*
X172285819Y-83605666D02*
X171809628Y-83938999D01*
X172285819Y-84177094D02*
X171285819Y-84177094D01*
X171285819Y-84177094D02*
X171285819Y-83796142D01*
X171285819Y-83796142D02*
X171333438Y-83700904D01*
X171333438Y-83700904D02*
X171381057Y-83653285D01*
X171381057Y-83653285D02*
X171476295Y-83605666D01*
X171476295Y-83605666D02*
X171619152Y-83605666D01*
X171619152Y-83605666D02*
X171714390Y-83653285D01*
X171714390Y-83653285D02*
X171762009Y-83700904D01*
X171762009Y-83700904D02*
X171809628Y-83796142D01*
X171809628Y-83796142D02*
X171809628Y-84177094D01*
X171285819Y-83272332D02*
X171285819Y-82605666D01*
X171285819Y-82605666D02*
X172285819Y-83034237D01*
X133453333Y-73845009D02*
X133596190Y-73892628D01*
X133596190Y-73892628D02*
X133643809Y-73940247D01*
X133643809Y-73940247D02*
X133691428Y-74035485D01*
X133691428Y-74035485D02*
X133691428Y-74178342D01*
X133691428Y-74178342D02*
X133643809Y-74273580D01*
X133643809Y-74273580D02*
X133596190Y-74321200D01*
X133596190Y-74321200D02*
X133500952Y-74368819D01*
X133500952Y-74368819D02*
X133120000Y-74368819D01*
X133120000Y-74368819D02*
X133120000Y-73368819D01*
X133120000Y-73368819D02*
X133453333Y-73368819D01*
X133453333Y-73368819D02*
X133548571Y-73416438D01*
X133548571Y-73416438D02*
X133596190Y-73464057D01*
X133596190Y-73464057D02*
X133643809Y-73559295D01*
X133643809Y-73559295D02*
X133643809Y-73654533D01*
X133643809Y-73654533D02*
X133596190Y-73749771D01*
X133596190Y-73749771D02*
X133548571Y-73797390D01*
X133548571Y-73797390D02*
X133453333Y-73845009D01*
X133453333Y-73845009D02*
X133120000Y-73845009D01*
X134120000Y-74368819D02*
X134120000Y-73702152D01*
X134120000Y-73892628D02*
X134167619Y-73797390D01*
X134167619Y-73797390D02*
X134215238Y-73749771D01*
X134215238Y-73749771D02*
X134310476Y-73702152D01*
X134310476Y-73702152D02*
X134405714Y-73702152D01*
X135167619Y-74368819D02*
X135167619Y-73368819D01*
X135167619Y-74321200D02*
X135072381Y-74368819D01*
X135072381Y-74368819D02*
X134881905Y-74368819D01*
X134881905Y-74368819D02*
X134786667Y-74321200D01*
X134786667Y-74321200D02*
X134739048Y-74273580D01*
X134739048Y-74273580D02*
X134691429Y-74178342D01*
X134691429Y-74178342D02*
X134691429Y-73892628D01*
X134691429Y-73892628D02*
X134739048Y-73797390D01*
X134739048Y-73797390D02*
X134786667Y-73749771D01*
X134786667Y-73749771D02*
X134881905Y-73702152D01*
X134881905Y-73702152D02*
X135072381Y-73702152D01*
X135072381Y-73702152D02*
X135167619Y-73749771D01*
X136167619Y-74368819D02*
X135596191Y-74368819D01*
X135881905Y-74368819D02*
X135881905Y-73368819D01*
X135881905Y-73368819D02*
X135786667Y-73511676D01*
X135786667Y-73511676D02*
X135691429Y-73606914D01*
X135691429Y-73606914D02*
X135596191Y-73654533D01*
X140906667Y-101880200D02*
X141049524Y-101927819D01*
X141049524Y-101927819D02*
X141287619Y-101927819D01*
X141287619Y-101927819D02*
X141382857Y-101880200D01*
X141382857Y-101880200D02*
X141430476Y-101832580D01*
X141430476Y-101832580D02*
X141478095Y-101737342D01*
X141478095Y-101737342D02*
X141478095Y-101642104D01*
X141478095Y-101642104D02*
X141430476Y-101546866D01*
X141430476Y-101546866D02*
X141382857Y-101499247D01*
X141382857Y-101499247D02*
X141287619Y-101451628D01*
X141287619Y-101451628D02*
X141097143Y-101404009D01*
X141097143Y-101404009D02*
X141001905Y-101356390D01*
X141001905Y-101356390D02*
X140954286Y-101308771D01*
X140954286Y-101308771D02*
X140906667Y-101213533D01*
X140906667Y-101213533D02*
X140906667Y-101118295D01*
X140906667Y-101118295D02*
X140954286Y-101023057D01*
X140954286Y-101023057D02*
X141001905Y-100975438D01*
X141001905Y-100975438D02*
X141097143Y-100927819D01*
X141097143Y-100927819D02*
X141335238Y-100927819D01*
X141335238Y-100927819D02*
X141478095Y-100975438D01*
X141811429Y-100927819D02*
X142049524Y-101927819D01*
X142049524Y-101927819D02*
X142240000Y-101213533D01*
X142240000Y-101213533D02*
X142430476Y-101927819D01*
X142430476Y-101927819D02*
X142668572Y-100927819D01*
X143573333Y-101927819D02*
X143001905Y-101927819D01*
X143287619Y-101927819D02*
X143287619Y-100927819D01*
X143287619Y-100927819D02*
X143192381Y-101070676D01*
X143192381Y-101070676D02*
X143097143Y-101165914D01*
X143097143Y-101165914D02*
X143001905Y-101213533D01*
X171894667Y-90577200D02*
X172037524Y-90624819D01*
X172037524Y-90624819D02*
X172275619Y-90624819D01*
X172275619Y-90624819D02*
X172370857Y-90577200D01*
X172370857Y-90577200D02*
X172418476Y-90529580D01*
X172418476Y-90529580D02*
X172466095Y-90434342D01*
X172466095Y-90434342D02*
X172466095Y-90339104D01*
X172466095Y-90339104D02*
X172418476Y-90243866D01*
X172418476Y-90243866D02*
X172370857Y-90196247D01*
X172370857Y-90196247D02*
X172275619Y-90148628D01*
X172275619Y-90148628D02*
X172085143Y-90101009D01*
X172085143Y-90101009D02*
X171989905Y-90053390D01*
X171989905Y-90053390D02*
X171942286Y-90005771D01*
X171942286Y-90005771D02*
X171894667Y-89910533D01*
X171894667Y-89910533D02*
X171894667Y-89815295D01*
X171894667Y-89815295D02*
X171942286Y-89720057D01*
X171942286Y-89720057D02*
X171989905Y-89672438D01*
X171989905Y-89672438D02*
X172085143Y-89624819D01*
X172085143Y-89624819D02*
X172323238Y-89624819D01*
X172323238Y-89624819D02*
X172466095Y-89672438D01*
X172799429Y-89624819D02*
X173037524Y-90624819D01*
X173037524Y-90624819D02*
X173228000Y-89910533D01*
X173228000Y-89910533D02*
X173418476Y-90624819D01*
X173418476Y-90624819D02*
X173656572Y-89624819D01*
X173942286Y-89624819D02*
X174561333Y-89624819D01*
X174561333Y-89624819D02*
X174228000Y-90005771D01*
X174228000Y-90005771D02*
X174370857Y-90005771D01*
X174370857Y-90005771D02*
X174466095Y-90053390D01*
X174466095Y-90053390D02*
X174513714Y-90101009D01*
X174513714Y-90101009D02*
X174561333Y-90196247D01*
X174561333Y-90196247D02*
X174561333Y-90434342D01*
X174561333Y-90434342D02*
X174513714Y-90529580D01*
X174513714Y-90529580D02*
X174466095Y-90577200D01*
X174466095Y-90577200D02*
X174370857Y-90624819D01*
X174370857Y-90624819D02*
X174085143Y-90624819D01*
X174085143Y-90624819D02*
X173989905Y-90577200D01*
X173989905Y-90577200D02*
X173942286Y-90529580D01*
X181937819Y-93892666D02*
X181461628Y-94225999D01*
X181937819Y-94464094D02*
X180937819Y-94464094D01*
X180937819Y-94464094D02*
X180937819Y-94083142D01*
X180937819Y-94083142D02*
X180985438Y-93987904D01*
X180985438Y-93987904D02*
X181033057Y-93940285D01*
X181033057Y-93940285D02*
X181128295Y-93892666D01*
X181128295Y-93892666D02*
X181271152Y-93892666D01*
X181271152Y-93892666D02*
X181366390Y-93940285D01*
X181366390Y-93940285D02*
X181414009Y-93987904D01*
X181414009Y-93987904D02*
X181461628Y-94083142D01*
X181461628Y-94083142D02*
X181461628Y-94464094D01*
X181271152Y-93035523D02*
X181937819Y-93035523D01*
X180890200Y-93273618D02*
X181604485Y-93511713D01*
X181604485Y-93511713D02*
X181604485Y-92892666D01*
X181937819Y-90002166D02*
X181937819Y-90478356D01*
X181937819Y-90478356D02*
X180937819Y-90478356D01*
X181271152Y-89240261D02*
X181937819Y-89240261D01*
X180890200Y-89478356D02*
X181604485Y-89716451D01*
X181604485Y-89716451D02*
X181604485Y-89097404D01*
X149439333Y-101164819D02*
X149106000Y-100688628D01*
X148867905Y-101164819D02*
X148867905Y-100164819D01*
X148867905Y-100164819D02*
X149248857Y-100164819D01*
X149248857Y-100164819D02*
X149344095Y-100212438D01*
X149344095Y-100212438D02*
X149391714Y-100260057D01*
X149391714Y-100260057D02*
X149439333Y-100355295D01*
X149439333Y-100355295D02*
X149439333Y-100498152D01*
X149439333Y-100498152D02*
X149391714Y-100593390D01*
X149391714Y-100593390D02*
X149344095Y-100641009D01*
X149344095Y-100641009D02*
X149248857Y-100688628D01*
X149248857Y-100688628D02*
X148867905Y-100688628D01*
X150344095Y-100164819D02*
X149867905Y-100164819D01*
X149867905Y-100164819D02*
X149820286Y-100641009D01*
X149820286Y-100641009D02*
X149867905Y-100593390D01*
X149867905Y-100593390D02*
X149963143Y-100545771D01*
X149963143Y-100545771D02*
X150201238Y-100545771D01*
X150201238Y-100545771D02*
X150296476Y-100593390D01*
X150296476Y-100593390D02*
X150344095Y-100641009D01*
X150344095Y-100641009D02*
X150391714Y-100736247D01*
X150391714Y-100736247D02*
X150391714Y-100974342D01*
X150391714Y-100974342D02*
X150344095Y-101069580D01*
X150344095Y-101069580D02*
X150296476Y-101117200D01*
X150296476Y-101117200D02*
X150201238Y-101164819D01*
X150201238Y-101164819D02*
X149963143Y-101164819D01*
X149963143Y-101164819D02*
X149867905Y-101117200D01*
X149867905Y-101117200D02*
X149820286Y-101069580D01*
X152726819Y-93638666D02*
X152250628Y-93971999D01*
X152726819Y-94210094D02*
X151726819Y-94210094D01*
X151726819Y-94210094D02*
X151726819Y-93829142D01*
X151726819Y-93829142D02*
X151774438Y-93733904D01*
X151774438Y-93733904D02*
X151822057Y-93686285D01*
X151822057Y-93686285D02*
X151917295Y-93638666D01*
X151917295Y-93638666D02*
X152060152Y-93638666D01*
X152060152Y-93638666D02*
X152155390Y-93686285D01*
X152155390Y-93686285D02*
X152203009Y-93733904D01*
X152203009Y-93733904D02*
X152250628Y-93829142D01*
X152250628Y-93829142D02*
X152250628Y-94210094D01*
X151726819Y-93305332D02*
X151726819Y-92686285D01*
X151726819Y-92686285D02*
X152107771Y-93019618D01*
X152107771Y-93019618D02*
X152107771Y-92876761D01*
X152107771Y-92876761D02*
X152155390Y-92781523D01*
X152155390Y-92781523D02*
X152203009Y-92733904D01*
X152203009Y-92733904D02*
X152298247Y-92686285D01*
X152298247Y-92686285D02*
X152536342Y-92686285D01*
X152536342Y-92686285D02*
X152631580Y-92733904D01*
X152631580Y-92733904D02*
X152679200Y-92781523D01*
X152679200Y-92781523D02*
X152726819Y-92876761D01*
X152726819Y-92876761D02*
X152726819Y-93162475D01*
X152726819Y-93162475D02*
X152679200Y-93257713D01*
X152679200Y-93257713D02*
X152631580Y-93305332D01*
X157534333Y-81734580D02*
X157486714Y-81782200D01*
X157486714Y-81782200D02*
X157343857Y-81829819D01*
X157343857Y-81829819D02*
X157248619Y-81829819D01*
X157248619Y-81829819D02*
X157105762Y-81782200D01*
X157105762Y-81782200D02*
X157010524Y-81686961D01*
X157010524Y-81686961D02*
X156962905Y-81591723D01*
X156962905Y-81591723D02*
X156915286Y-81401247D01*
X156915286Y-81401247D02*
X156915286Y-81258390D01*
X156915286Y-81258390D02*
X156962905Y-81067914D01*
X156962905Y-81067914D02*
X157010524Y-80972676D01*
X157010524Y-80972676D02*
X157105762Y-80877438D01*
X157105762Y-80877438D02*
X157248619Y-80829819D01*
X157248619Y-80829819D02*
X157343857Y-80829819D01*
X157343857Y-80829819D02*
X157486714Y-80877438D01*
X157486714Y-80877438D02*
X157534333Y-80925057D01*
X157867667Y-80829819D02*
X158486714Y-80829819D01*
X158486714Y-80829819D02*
X158153381Y-81210771D01*
X158153381Y-81210771D02*
X158296238Y-81210771D01*
X158296238Y-81210771D02*
X158391476Y-81258390D01*
X158391476Y-81258390D02*
X158439095Y-81306009D01*
X158439095Y-81306009D02*
X158486714Y-81401247D01*
X158486714Y-81401247D02*
X158486714Y-81639342D01*
X158486714Y-81639342D02*
X158439095Y-81734580D01*
X158439095Y-81734580D02*
X158391476Y-81782200D01*
X158391476Y-81782200D02*
X158296238Y-81829819D01*
X158296238Y-81829819D02*
X158010524Y-81829819D01*
X158010524Y-81829819D02*
X157915286Y-81782200D01*
X157915286Y-81782200D02*
X157867667Y-81734580D01*
X168489333Y-101165819D02*
X168156000Y-100689628D01*
X167917905Y-101165819D02*
X167917905Y-100165819D01*
X167917905Y-100165819D02*
X168298857Y-100165819D01*
X168298857Y-100165819D02*
X168394095Y-100213438D01*
X168394095Y-100213438D02*
X168441714Y-100261057D01*
X168441714Y-100261057D02*
X168489333Y-100356295D01*
X168489333Y-100356295D02*
X168489333Y-100499152D01*
X168489333Y-100499152D02*
X168441714Y-100594390D01*
X168441714Y-100594390D02*
X168394095Y-100642009D01*
X168394095Y-100642009D02*
X168298857Y-100689628D01*
X168298857Y-100689628D02*
X167917905Y-100689628D01*
X169346476Y-100165819D02*
X169156000Y-100165819D01*
X169156000Y-100165819D02*
X169060762Y-100213438D01*
X169060762Y-100213438D02*
X169013143Y-100261057D01*
X169013143Y-100261057D02*
X168917905Y-100403914D01*
X168917905Y-100403914D02*
X168870286Y-100594390D01*
X168870286Y-100594390D02*
X168870286Y-100975342D01*
X168870286Y-100975342D02*
X168917905Y-101070580D01*
X168917905Y-101070580D02*
X168965524Y-101118200D01*
X168965524Y-101118200D02*
X169060762Y-101165819D01*
X169060762Y-101165819D02*
X169251238Y-101165819D01*
X169251238Y-101165819D02*
X169346476Y-101118200D01*
X169346476Y-101118200D02*
X169394095Y-101070580D01*
X169394095Y-101070580D02*
X169441714Y-100975342D01*
X169441714Y-100975342D02*
X169441714Y-100737247D01*
X169441714Y-100737247D02*
X169394095Y-100642009D01*
X169394095Y-100642009D02*
X169346476Y-100594390D01*
X169346476Y-100594390D02*
X169251238Y-100546771D01*
X169251238Y-100546771D02*
X169060762Y-100546771D01*
X169060762Y-100546771D02*
X168965524Y-100594390D01*
X168965524Y-100594390D02*
X168917905Y-100642009D01*
X168917905Y-100642009D02*
X168870286Y-100737247D01*
D12*
%TO.C,D2*%
X162293000Y-91989000D02*
X156483000Y-91989000D01*
X156483000Y-91989000D02*
X156483000Y-95209000D01*
X156483000Y-95209000D02*
X162293000Y-95209000D01*
%TO.C,D1*%
X158190000Y-95670000D02*
X158190000Y-97370000D01*
X158190000Y-95670000D02*
X160850000Y-95670000D01*
X158190000Y-97370000D02*
X160850000Y-97370000D01*
%TO.C,J2*%
X197650000Y-88920000D02*
X197650000Y-103920000D01*
X182650000Y-88920000D02*
X197650000Y-88920000D01*
X197450000Y-96420000D02*
X196450000Y-95420000D01*
X197450000Y-96420000D02*
X196450000Y-97420000D01*
X197650000Y-103920000D02*
X182650000Y-103920000D01*
X182650000Y-103920000D02*
X182650000Y-88920000D01*
%TO.C,L1*%
X157532000Y-103278878D02*
X157532000Y-104078122D01*
X156412000Y-103278878D02*
X156412000Y-104078122D01*
%TO.C,C1*%
X152981252Y-97255000D02*
X152458748Y-97255000D01*
X152981252Y-95785000D02*
X152458748Y-95785000D01*
%TO.C,R2*%
X165708000Y-93348436D02*
X165708000Y-93802564D01*
X164238000Y-93348436D02*
X164238000Y-93802564D01*
%TO.C,R1*%
X157707000Y-99594936D02*
X157707000Y-100049064D01*
X156237000Y-99594936D02*
X156237000Y-100049064D01*
%TO.C,C2*%
X166189252Y-97255000D02*
X165666748Y-97255000D01*
X166189252Y-95785000D02*
X165666748Y-95785000D01*
%TO.C,L2*%
X165533000Y-89215878D02*
X165533000Y-90015122D01*
X164413000Y-89215878D02*
X164413000Y-90015122D01*
%TO.C,A1*%
X151000000Y-80140000D02*
X153670000Y-80140000D01*
X156210000Y-80140000D02*
X194440000Y-80140000D01*
X194440000Y-80140000D02*
X194440000Y-75060000D01*
X153670000Y-77470000D02*
X153670000Y-80140000D01*
X156210000Y-77470000D02*
X156210000Y-80140000D01*
X156210000Y-77470000D02*
X153670000Y-77470000D01*
X156210000Y-77470000D02*
X191770000Y-77470000D01*
X191770000Y-77470000D02*
X191770000Y-80140000D01*
X186560000Y-75060000D02*
X186560000Y-67180000D01*
X196980000Y-75060000D02*
X186560000Y-75060000D01*
X186560000Y-67180000D02*
X196980000Y-67180000D01*
X196980000Y-67180000D02*
X196980000Y-75060000D01*
X153670000Y-64770000D02*
X191770000Y-64770000D01*
X153670000Y-64770000D02*
X153670000Y-62100000D01*
X191770000Y-64770000D02*
X191770000Y-62100000D01*
X151000000Y-62100000D02*
X151000000Y-80140000D01*
X194440000Y-62100000D02*
X194440000Y-67180000D01*
X194440000Y-62100000D02*
X151000000Y-62100000D01*
%TO.C,J1*%
X121280000Y-104020000D02*
X121280000Y-89020000D01*
X136280000Y-104020000D02*
X121280000Y-104020000D01*
X121480000Y-96520000D02*
X122480000Y-97520000D01*
X121480000Y-96520000D02*
X122480000Y-95520000D01*
X121280000Y-89020000D02*
X136280000Y-89020000D01*
X136280000Y-89020000D02*
X136280000Y-104020000D01*
%TO.C,L3*%
X151182000Y-89135378D02*
X151182000Y-89934622D01*
X150062000Y-89135378D02*
X150062000Y-89934622D01*
%TO.C,SW2*%
X180030000Y-102096000D02*
X180030000Y-100596000D01*
X178780000Y-98096000D02*
X174280000Y-98096000D01*
X174280000Y-104596000D02*
X178780000Y-104596000D01*
X173030000Y-100596000D02*
X173030000Y-102096000D01*
%TO.C,R7*%
X170915000Y-83235436D02*
X170915000Y-83689564D01*
X169445000Y-83235436D02*
X169445000Y-83689564D01*
%TO.C,Brd1*%
X121220000Y-61360000D02*
X148620000Y-61360000D01*
X121220000Y-88660000D02*
X121220000Y-61360000D01*
X121642000Y-64655000D02*
X144742000Y-64655000D01*
X121642000Y-81255000D02*
X121642000Y-64655000D01*
X129921000Y-61849000D02*
X129921000Y-64262000D01*
X129921000Y-61849000D02*
X139700000Y-61849000D01*
X139700000Y-61849000D02*
X139700000Y-64262000D01*
X139700000Y-64262000D02*
X129921000Y-64262000D01*
X144742000Y-64655000D02*
X147828000Y-64655000D01*
X144742000Y-81255000D02*
X121642000Y-81255000D01*
X144742000Y-81255000D02*
X148082000Y-81280000D01*
X148082000Y-64643000D02*
X147828000Y-64655000D01*
X148082000Y-81280000D02*
X148082000Y-64643000D01*
X148620000Y-61360000D02*
X148620000Y-88660000D01*
X148620000Y-88660000D02*
X121220000Y-88660000D01*
%TO.C,SW1*%
X145740000Y-102060000D02*
X145740000Y-100560000D01*
X144490000Y-98060000D02*
X139990000Y-98060000D01*
X139990000Y-104560000D02*
X144490000Y-104560000D01*
X138740000Y-100560000D02*
X138740000Y-102060000D01*
%TO.C,SW3*%
X176930000Y-90376000D02*
X176930000Y-88876000D01*
X175680000Y-86376000D02*
X171180000Y-86376000D01*
X171180000Y-92876000D02*
X175680000Y-92876000D01*
X169930000Y-88876000D02*
X169930000Y-90376000D01*
%TO.C,R4*%
X180440000Y-93498936D02*
X180440000Y-93953064D01*
X178970000Y-93498936D02*
X178970000Y-93953064D01*
%TO.C,L4*%
X180265000Y-89262378D02*
X180265000Y-90061622D01*
X179145000Y-89262378D02*
X179145000Y-90061622D01*
%TO.C,R5*%
X149833064Y-99795000D02*
X149378936Y-99795000D01*
X149833064Y-98325000D02*
X149378936Y-98325000D01*
%TO.C,R3*%
X151357000Y-93244936D02*
X151357000Y-93699064D01*
X149887000Y-93244936D02*
X149887000Y-93699064D01*
%TO.C,C3*%
X153263500Y-83877500D02*
X154051000Y-83877500D01*
X153657250Y-83483750D02*
X153657250Y-84271250D01*
X154291000Y-83379437D02*
X154291000Y-84665000D01*
X154291000Y-83379437D02*
X155355437Y-82315000D01*
X154291000Y-88070563D02*
X154291000Y-86785000D01*
X154291000Y-88070563D02*
X155355437Y-89135000D01*
X155355437Y-82315000D02*
X161111000Y-82315000D01*
X155355437Y-89135000D02*
X161111000Y-89135000D01*
X161111000Y-82315000D02*
X161111000Y-84665000D01*
X161111000Y-89135000D02*
X161111000Y-86785000D01*
%TO.C,R6*%
X168325436Y-98325000D02*
X168779564Y-98325000D01*
X168325436Y-99795000D02*
X168779564Y-99795000D01*
%TO.C,REF\u002A\u002A*%
D13*
X145908600Y-94922752D02*
X145925948Y-94930334D01*
X145967356Y-94963128D01*
X146002765Y-95010547D01*
X146024664Y-95061151D01*
X146028229Y-95086098D01*
X146016279Y-95120927D01*
X145990067Y-95139357D01*
X145961964Y-95150516D01*
X145949095Y-95152572D01*
X145942829Y-95137649D01*
X145930456Y-95105175D01*
X145925028Y-95090502D01*
X145894590Y-95039744D01*
X145850520Y-95014427D01*
X145794010Y-95015206D01*
X145789825Y-95016203D01*
X145759655Y-95030507D01*
X145737476Y-95058393D01*
X145722327Y-95103287D01*
X145713250Y-95168615D01*
X145709286Y-95257804D01*
X145708914Y-95305261D01*
X145708730Y-95380071D01*
X145707522Y-95431069D01*
X145704309Y-95463471D01*
X145698109Y-95482495D01*
X145687940Y-95493356D01*
X145672819Y-95501272D01*
X145671946Y-95501670D01*
X145642828Y-95513981D01*
X145628403Y-95518514D01*
X145626186Y-95504809D01*
X145624289Y-95466925D01*
X145622847Y-95409715D01*
X145621998Y-95338027D01*
X145621829Y-95285565D01*
X145622692Y-95184047D01*
X145626070Y-95107032D01*
X145633142Y-95050023D01*
X145645088Y-95008526D01*
X145663090Y-94978043D01*
X145688327Y-94954080D01*
X145713247Y-94937355D01*
X145773171Y-94915097D01*
X145842911Y-94910076D01*
X145908600Y-94922752D01*
G36*
X145908600Y-94922752D02*
G01*
X145925948Y-94930334D01*
X145967356Y-94963128D01*
X146002765Y-95010547D01*
X146024664Y-95061151D01*
X146028229Y-95086098D01*
X146016279Y-95120927D01*
X145990067Y-95139357D01*
X145961964Y-95150516D01*
X145949095Y-95152572D01*
X145942829Y-95137649D01*
X145930456Y-95105175D01*
X145925028Y-95090502D01*
X145894590Y-95039744D01*
X145850520Y-95014427D01*
X145794010Y-95015206D01*
X145789825Y-95016203D01*
X145759655Y-95030507D01*
X145737476Y-95058393D01*
X145722327Y-95103287D01*
X145713250Y-95168615D01*
X145709286Y-95257804D01*
X145708914Y-95305261D01*
X145708730Y-95380071D01*
X145707522Y-95431069D01*
X145704309Y-95463471D01*
X145698109Y-95482495D01*
X145687940Y-95493356D01*
X145672819Y-95501272D01*
X145671946Y-95501670D01*
X145642828Y-95513981D01*
X145628403Y-95518514D01*
X145626186Y-95504809D01*
X145624289Y-95466925D01*
X145622847Y-95409715D01*
X145621998Y-95338027D01*
X145621829Y-95285565D01*
X145622692Y-95184047D01*
X145626070Y-95107032D01*
X145633142Y-95050023D01*
X145645088Y-95008526D01*
X145663090Y-94978043D01*
X145688327Y-94954080D01*
X145713247Y-94937355D01*
X145773171Y-94915097D01*
X145842911Y-94910076D01*
X145908600Y-94922752D01*
G37*
X141972093Y-94891780D02*
X142018672Y-94918723D01*
X142051057Y-94945466D01*
X142074742Y-94973484D01*
X142091059Y-95007748D01*
X142101339Y-95053227D01*
X142106914Y-95114892D01*
X142109116Y-95197711D01*
X142109371Y-95257246D01*
X142109371Y-95476391D01*
X142047686Y-95504044D01*
X141986000Y-95531697D01*
X141978743Y-95291670D01*
X141975744Y-95202028D01*
X141972598Y-95136962D01*
X141968701Y-95092026D01*
X141963447Y-95062770D01*
X141956231Y-95044748D01*
X141946450Y-95033511D01*
X141943312Y-95031079D01*
X141895761Y-95012083D01*
X141847697Y-95019600D01*
X141819086Y-95039543D01*
X141807447Y-95053675D01*
X141799391Y-95072220D01*
X141794271Y-95100334D01*
X141791441Y-95143173D01*
X141790256Y-95205895D01*
X141790057Y-95271261D01*
X141790018Y-95353268D01*
X141788614Y-95411316D01*
X141783914Y-95450465D01*
X141773987Y-95475780D01*
X141756903Y-95492323D01*
X141730732Y-95505156D01*
X141695775Y-95518491D01*
X141657596Y-95533007D01*
X141662141Y-95275389D01*
X141663971Y-95182519D01*
X141666112Y-95113889D01*
X141669181Y-95064711D01*
X141673794Y-95030198D01*
X141680568Y-95005562D01*
X141690119Y-94986016D01*
X141701634Y-94968770D01*
X141757190Y-94913680D01*
X141824980Y-94881822D01*
X141898713Y-94874191D01*
X141972093Y-94891780D01*
G36*
X141972093Y-94891780D02*
G01*
X142018672Y-94918723D01*
X142051057Y-94945466D01*
X142074742Y-94973484D01*
X142091059Y-95007748D01*
X142101339Y-95053227D01*
X142106914Y-95114892D01*
X142109116Y-95197711D01*
X142109371Y-95257246D01*
X142109371Y-95476391D01*
X142047686Y-95504044D01*
X141986000Y-95531697D01*
X141978743Y-95291670D01*
X141975744Y-95202028D01*
X141972598Y-95136962D01*
X141968701Y-95092026D01*
X141963447Y-95062770D01*
X141956231Y-95044748D01*
X141946450Y-95033511D01*
X141943312Y-95031079D01*
X141895761Y-95012083D01*
X141847697Y-95019600D01*
X141819086Y-95039543D01*
X141807447Y-95053675D01*
X141799391Y-95072220D01*
X141794271Y-95100334D01*
X141791441Y-95143173D01*
X141790256Y-95205895D01*
X141790057Y-95271261D01*
X141790018Y-95353268D01*
X141788614Y-95411316D01*
X141783914Y-95450465D01*
X141773987Y-95475780D01*
X141756903Y-95492323D01*
X141730732Y-95505156D01*
X141695775Y-95518491D01*
X141657596Y-95533007D01*
X141662141Y-95275389D01*
X141663971Y-95182519D01*
X141666112Y-95113889D01*
X141669181Y-95064711D01*
X141673794Y-95030198D01*
X141680568Y-95005562D01*
X141690119Y-94986016D01*
X141701634Y-94968770D01*
X141757190Y-94913680D01*
X141824980Y-94881822D01*
X141898713Y-94874191D01*
X141972093Y-94891780D01*
G37*
X143785926Y-94913755D02*
X143851858Y-94938084D01*
X143905273Y-94981117D01*
X143926164Y-95011409D01*
X143948939Y-95066994D01*
X143948466Y-95107186D01*
X143924562Y-95134217D01*
X143915717Y-95138813D01*
X143877530Y-95153144D01*
X143858028Y-95149472D01*
X143851422Y-95125407D01*
X143851086Y-95112114D01*
X143838992Y-95063210D01*
X143807471Y-95028999D01*
X143763659Y-95012476D01*
X143714695Y-95016634D01*
X143674894Y-95038227D01*
X143661450Y-95050544D01*
X143651921Y-95065487D01*
X143645485Y-95088075D01*
X143641317Y-95123328D01*
X143638597Y-95176266D01*
X143636502Y-95251907D01*
X143635960Y-95275857D01*
X143633981Y-95357790D01*
X143631731Y-95415455D01*
X143628357Y-95453608D01*
X143623006Y-95477004D01*
X143614824Y-95490398D01*
X143602959Y-95498545D01*
X143595362Y-95502144D01*
X143563102Y-95514452D01*
X143544111Y-95518514D01*
X143537836Y-95504948D01*
X143534006Y-95463934D01*
X143532600Y-95394999D01*
X143533598Y-95297669D01*
X143533908Y-95282657D01*
X143536101Y-95193859D01*
X143538693Y-95129019D01*
X143542382Y-95083067D01*
X143547864Y-95050935D01*
X143555835Y-95027553D01*
X143566993Y-95007852D01*
X143572830Y-94999410D01*
X143606296Y-94962057D01*
X143643727Y-94933003D01*
X143648309Y-94930467D01*
X143715426Y-94910443D01*
X143785926Y-94913755D01*
G36*
X143785926Y-94913755D02*
G01*
X143851858Y-94938084D01*
X143905273Y-94981117D01*
X143926164Y-95011409D01*
X143948939Y-95066994D01*
X143948466Y-95107186D01*
X143924562Y-95134217D01*
X143915717Y-95138813D01*
X143877530Y-95153144D01*
X143858028Y-95149472D01*
X143851422Y-95125407D01*
X143851086Y-95112114D01*
X143838992Y-95063210D01*
X143807471Y-95028999D01*
X143763659Y-95012476D01*
X143714695Y-95016634D01*
X143674894Y-95038227D01*
X143661450Y-95050544D01*
X143651921Y-95065487D01*
X143645485Y-95088075D01*
X143641317Y-95123328D01*
X143638597Y-95176266D01*
X143636502Y-95251907D01*
X143635960Y-95275857D01*
X143633981Y-95357790D01*
X143631731Y-95415455D01*
X143628357Y-95453608D01*
X143623006Y-95477004D01*
X143614824Y-95490398D01*
X143602959Y-95498545D01*
X143595362Y-95502144D01*
X143563102Y-95514452D01*
X143544111Y-95518514D01*
X143537836Y-95504948D01*
X143534006Y-95463934D01*
X143532600Y-95394999D01*
X143533598Y-95297669D01*
X143533908Y-95282657D01*
X143536101Y-95193859D01*
X143538693Y-95129019D01*
X143542382Y-95083067D01*
X143547864Y-95050935D01*
X143555835Y-95027553D01*
X143566993Y-95007852D01*
X143572830Y-94999410D01*
X143606296Y-94962057D01*
X143643727Y-94933003D01*
X143648309Y-94930467D01*
X143715426Y-94910443D01*
X143785926Y-94913755D01*
G37*
X142631886Y-94815289D02*
X142636139Y-94874613D01*
X142641025Y-94909572D01*
X142647795Y-94924820D01*
X142657702Y-94925015D01*
X142660914Y-94923195D01*
X142703644Y-94910015D01*
X142759227Y-94910785D01*
X142815737Y-94924333D01*
X142851082Y-94941861D01*
X142887321Y-94969861D01*
X142913813Y-95001549D01*
X142931999Y-95041813D01*
X142943322Y-95095543D01*
X142949222Y-95167626D01*
X142951143Y-95262951D01*
X142951177Y-95281237D01*
X142951200Y-95486646D01*
X142905491Y-95502580D01*
X142873027Y-95513420D01*
X142855215Y-95518468D01*
X142854691Y-95518514D01*
X142852937Y-95504828D01*
X142851444Y-95467076D01*
X142850326Y-95410224D01*
X142849697Y-95339234D01*
X142849600Y-95296073D01*
X142849398Y-95210973D01*
X142848358Y-95149981D01*
X142845831Y-95108177D01*
X142841164Y-95080642D01*
X142833707Y-95062456D01*
X142822811Y-95048698D01*
X142816007Y-95042073D01*
X142769272Y-95015375D01*
X142718272Y-95013375D01*
X142672001Y-95035955D01*
X142663444Y-95044107D01*
X142650893Y-95059436D01*
X142642188Y-95077618D01*
X142636631Y-95103909D01*
X142633526Y-95143562D01*
X142632176Y-95201832D01*
X142631886Y-95282173D01*
X142631886Y-95486646D01*
X142586177Y-95502580D01*
X142553713Y-95513420D01*
X142535901Y-95518468D01*
X142535377Y-95518514D01*
X142534037Y-95504623D01*
X142532828Y-95465439D01*
X142531801Y-95404700D01*
X142531002Y-95326141D01*
X142530481Y-95233498D01*
X142530286Y-95130509D01*
X142530286Y-94733342D01*
X142577457Y-94713444D01*
X142624629Y-94693547D01*
X142631886Y-94815289D01*
G36*
X142631886Y-94815289D02*
G01*
X142636139Y-94874613D01*
X142641025Y-94909572D01*
X142647795Y-94924820D01*
X142657702Y-94925015D01*
X142660914Y-94923195D01*
X142703644Y-94910015D01*
X142759227Y-94910785D01*
X142815737Y-94924333D01*
X142851082Y-94941861D01*
X142887321Y-94969861D01*
X142913813Y-95001549D01*
X142931999Y-95041813D01*
X142943322Y-95095543D01*
X142949222Y-95167626D01*
X142951143Y-95262951D01*
X142951177Y-95281237D01*
X142951200Y-95486646D01*
X142905491Y-95502580D01*
X142873027Y-95513420D01*
X142855215Y-95518468D01*
X142854691Y-95518514D01*
X142852937Y-95504828D01*
X142851444Y-95467076D01*
X142850326Y-95410224D01*
X142849697Y-95339234D01*
X142849600Y-95296073D01*
X142849398Y-95210973D01*
X142848358Y-95149981D01*
X142845831Y-95108177D01*
X142841164Y-95080642D01*
X142833707Y-95062456D01*
X142822811Y-95048698D01*
X142816007Y-95042073D01*
X142769272Y-95015375D01*
X142718272Y-95013375D01*
X142672001Y-95035955D01*
X142663444Y-95044107D01*
X142650893Y-95059436D01*
X142642188Y-95077618D01*
X142636631Y-95103909D01*
X142633526Y-95143562D01*
X142632176Y-95201832D01*
X142631886Y-95282173D01*
X142631886Y-95486646D01*
X142586177Y-95502580D01*
X142553713Y-95513420D01*
X142535901Y-95518468D01*
X142535377Y-95518514D01*
X142534037Y-95504623D01*
X142532828Y-95465439D01*
X142531801Y-95404700D01*
X142531002Y-95326141D01*
X142530481Y-95233498D01*
X142530286Y-95130509D01*
X142530286Y-94733342D01*
X142577457Y-94713444D01*
X142624629Y-94693547D01*
X142631886Y-94815289D01*
G37*
X145035833Y-94922663D02*
X145038048Y-94960850D01*
X145039784Y-95018886D01*
X145040899Y-95092180D01*
X145041257Y-95169055D01*
X145041257Y-95429196D01*
X144995326Y-95475127D01*
X144963675Y-95503429D01*
X144935890Y-95514893D01*
X144897915Y-95514168D01*
X144882840Y-95512321D01*
X144835726Y-95506948D01*
X144796756Y-95503869D01*
X144787257Y-95503585D01*
X144755233Y-95505445D01*
X144709432Y-95510114D01*
X144691674Y-95512321D01*
X144648057Y-95515735D01*
X144618745Y-95508320D01*
X144589680Y-95485427D01*
X144579188Y-95475127D01*
X144533257Y-95429196D01*
X144533257Y-94942602D01*
X144570226Y-94925758D01*
X144602059Y-94913282D01*
X144620683Y-94908914D01*
X144625458Y-94922718D01*
X144629921Y-94961286D01*
X144633775Y-95020356D01*
X144636722Y-95095663D01*
X144638143Y-95159286D01*
X144642114Y-95409657D01*
X144676759Y-95414556D01*
X144708268Y-95411131D01*
X144723708Y-95400041D01*
X144728023Y-95379308D01*
X144731708Y-95335145D01*
X144734469Y-95273146D01*
X144736012Y-95198909D01*
X144736235Y-95160706D01*
X144736457Y-94940783D01*
X144782166Y-94924849D01*
X144814518Y-94914015D01*
X144832115Y-94908962D01*
X144832623Y-94908914D01*
X144834388Y-94922648D01*
X144836329Y-94960730D01*
X144838282Y-95018482D01*
X144840084Y-95091227D01*
X144841343Y-95159286D01*
X144845314Y-95409657D01*
X144932400Y-95409657D01*
X144936396Y-95181240D01*
X144940392Y-94952822D01*
X144982847Y-94930868D01*
X145014192Y-94915793D01*
X145032744Y-94908951D01*
X145033279Y-94908914D01*
X145035833Y-94922663D01*
G36*
X145035833Y-94922663D02*
G01*
X145038048Y-94960850D01*
X145039784Y-95018886D01*
X145040899Y-95092180D01*
X145041257Y-95169055D01*
X145041257Y-95429196D01*
X144995326Y-95475127D01*
X144963675Y-95503429D01*
X144935890Y-95514893D01*
X144897915Y-95514168D01*
X144882840Y-95512321D01*
X144835726Y-95506948D01*
X144796756Y-95503869D01*
X144787257Y-95503585D01*
X144755233Y-95505445D01*
X144709432Y-95510114D01*
X144691674Y-95512321D01*
X144648057Y-95515735D01*
X144618745Y-95508320D01*
X144589680Y-95485427D01*
X144579188Y-95475127D01*
X144533257Y-95429196D01*
X144533257Y-94942602D01*
X144570226Y-94925758D01*
X144602059Y-94913282D01*
X144620683Y-94908914D01*
X144625458Y-94922718D01*
X144629921Y-94961286D01*
X144633775Y-95020356D01*
X144636722Y-95095663D01*
X144638143Y-95159286D01*
X144642114Y-95409657D01*
X144676759Y-95414556D01*
X144708268Y-95411131D01*
X144723708Y-95400041D01*
X144728023Y-95379308D01*
X144731708Y-95335145D01*
X144734469Y-95273146D01*
X144736012Y-95198909D01*
X144736235Y-95160706D01*
X144736457Y-94940783D01*
X144782166Y-94924849D01*
X144814518Y-94914015D01*
X144832115Y-94908962D01*
X144832623Y-94908914D01*
X144834388Y-94922648D01*
X144836329Y-94960730D01*
X144838282Y-95018482D01*
X144840084Y-95091227D01*
X144841343Y-95159286D01*
X144845314Y-95409657D01*
X144932400Y-95409657D01*
X144936396Y-95181240D01*
X144940392Y-94952822D01*
X144982847Y-94930868D01*
X145014192Y-94915793D01*
X145032744Y-94908951D01*
X145033279Y-94908914D01*
X145035833Y-94922663D01*
G37*
X140297115Y-94885962D02*
X140365145Y-94921733D01*
X140415351Y-94979301D01*
X140433185Y-95016312D01*
X140447063Y-95071882D01*
X140454167Y-95142096D01*
X140454840Y-95218727D01*
X140449427Y-95293552D01*
X140438270Y-95358342D01*
X140421714Y-95404873D01*
X140416626Y-95412887D01*
X140356355Y-95472707D01*
X140284769Y-95508535D01*
X140207092Y-95519020D01*
X140128548Y-95502810D01*
X140106689Y-95493092D01*
X140064122Y-95463143D01*
X140026763Y-95423433D01*
X140023232Y-95418397D01*
X140008881Y-95394124D01*
X139999394Y-95368178D01*
X139993790Y-95334022D01*
X139991086Y-95285119D01*
X139990299Y-95214935D01*
X139990286Y-95199200D01*
X139990322Y-95194192D01*
X140135429Y-95194192D01*
X140136273Y-95260430D01*
X140139596Y-95304386D01*
X140146583Y-95332779D01*
X140158416Y-95352325D01*
X140164457Y-95358857D01*
X140199186Y-95383680D01*
X140232903Y-95382548D01*
X140266995Y-95361016D01*
X140287329Y-95338029D01*
X140299371Y-95304478D01*
X140306134Y-95251569D01*
X140306598Y-95245399D01*
X140307752Y-95149513D01*
X140295688Y-95078299D01*
X140270570Y-95032194D01*
X140232560Y-95011635D01*
X140218992Y-95010514D01*
X140183364Y-95016152D01*
X140158994Y-95035686D01*
X140144093Y-95073042D01*
X140136875Y-95132150D01*
X140135429Y-95194192D01*
X139990322Y-95194192D01*
X139990826Y-95124413D01*
X139993096Y-95072159D01*
X139998068Y-95035949D01*
X140006713Y-95009299D01*
X140020005Y-94985722D01*
X140022943Y-94981338D01*
X140072313Y-94922249D01*
X140126109Y-94887947D01*
X140191602Y-94874331D01*
X140213842Y-94873665D01*
X140297115Y-94885962D01*
G36*
X140297115Y-94885962D02*
G01*
X140365145Y-94921733D01*
X140415351Y-94979301D01*
X140433185Y-95016312D01*
X140447063Y-95071882D01*
X140454167Y-95142096D01*
X140454840Y-95218727D01*
X140449427Y-95293552D01*
X140438270Y-95358342D01*
X140421714Y-95404873D01*
X140416626Y-95412887D01*
X140356355Y-95472707D01*
X140284769Y-95508535D01*
X140207092Y-95519020D01*
X140128548Y-95502810D01*
X140106689Y-95493092D01*
X140064122Y-95463143D01*
X140026763Y-95423433D01*
X140023232Y-95418397D01*
X140008881Y-95394124D01*
X139999394Y-95368178D01*
X139993790Y-95334022D01*
X139991086Y-95285119D01*
X139990299Y-95214935D01*
X139990286Y-95199200D01*
X139990322Y-95194192D01*
X140135429Y-95194192D01*
X140136273Y-95260430D01*
X140139596Y-95304386D01*
X140146583Y-95332779D01*
X140158416Y-95352325D01*
X140164457Y-95358857D01*
X140199186Y-95383680D01*
X140232903Y-95382548D01*
X140266995Y-95361016D01*
X140287329Y-95338029D01*
X140299371Y-95304478D01*
X140306134Y-95251569D01*
X140306598Y-95245399D01*
X140307752Y-95149513D01*
X140295688Y-95078299D01*
X140270570Y-95032194D01*
X140232560Y-95011635D01*
X140218992Y-95010514D01*
X140183364Y-95016152D01*
X140158994Y-95035686D01*
X140144093Y-95073042D01*
X140136875Y-95132150D01*
X140135429Y-95194192D01*
X139990322Y-95194192D01*
X139990826Y-95124413D01*
X139993096Y-95072159D01*
X139998068Y-95035949D01*
X140006713Y-95009299D01*
X140020005Y-94985722D01*
X140022943Y-94981338D01*
X140072313Y-94922249D01*
X140126109Y-94887947D01*
X140191602Y-94874331D01*
X140213842Y-94873665D01*
X140297115Y-94885962D01*
G37*
X146409595Y-94930966D02*
X146467021Y-94968497D01*
X146494719Y-95002096D01*
X146516662Y-95063064D01*
X146518405Y-95111308D01*
X146514457Y-95175816D01*
X146365686Y-95240934D01*
X146293349Y-95274202D01*
X146246084Y-95300964D01*
X146221507Y-95324144D01*
X146217237Y-95346667D01*
X146230889Y-95371455D01*
X146245943Y-95387886D01*
X146289746Y-95414235D01*
X146337389Y-95416081D01*
X146381145Y-95395546D01*
X146413289Y-95354752D01*
X146419038Y-95340347D01*
X146446576Y-95295356D01*
X146478258Y-95276182D01*
X146521714Y-95259779D01*
X146521714Y-95321966D01*
X146517872Y-95364283D01*
X146502823Y-95399969D01*
X146471280Y-95440943D01*
X146466592Y-95446267D01*
X146431506Y-95482720D01*
X146401347Y-95502283D01*
X146363615Y-95511283D01*
X146332335Y-95514230D01*
X146276385Y-95514965D01*
X146236555Y-95505660D01*
X146211708Y-95491846D01*
X146172656Y-95461467D01*
X146145625Y-95428613D01*
X146128517Y-95387294D01*
X146119238Y-95331521D01*
X146115693Y-95255305D01*
X146115410Y-95216622D01*
X146116372Y-95170247D01*
X146204007Y-95170247D01*
X146205023Y-95195126D01*
X146207556Y-95199200D01*
X146224274Y-95193665D01*
X146260249Y-95179017D01*
X146308331Y-95158190D01*
X146318386Y-95153714D01*
X146379152Y-95122814D01*
X146412632Y-95095657D01*
X146419990Y-95070220D01*
X146402391Y-95044481D01*
X146387856Y-95033109D01*
X146335410Y-95010364D01*
X146286322Y-95014122D01*
X146245227Y-95041884D01*
X146216758Y-95091152D01*
X146207631Y-95130257D01*
X146204007Y-95170247D01*
X146116372Y-95170247D01*
X146117285Y-95126249D01*
X146124196Y-95059384D01*
X146137884Y-95010695D01*
X146160096Y-94974849D01*
X146192574Y-94946513D01*
X146206733Y-94937355D01*
X146271053Y-94913507D01*
X146341473Y-94912006D01*
X146409595Y-94930966D01*
G36*
X146409595Y-94930966D02*
G01*
X146467021Y-94968497D01*
X146494719Y-95002096D01*
X146516662Y-95063064D01*
X146518405Y-95111308D01*
X146514457Y-95175816D01*
X146365686Y-95240934D01*
X146293349Y-95274202D01*
X146246084Y-95300964D01*
X146221507Y-95324144D01*
X146217237Y-95346667D01*
X146230889Y-95371455D01*
X146245943Y-95387886D01*
X146289746Y-95414235D01*
X146337389Y-95416081D01*
X146381145Y-95395546D01*
X146413289Y-95354752D01*
X146419038Y-95340347D01*
X146446576Y-95295356D01*
X146478258Y-95276182D01*
X146521714Y-95259779D01*
X146521714Y-95321966D01*
X146517872Y-95364283D01*
X146502823Y-95399969D01*
X146471280Y-95440943D01*
X146466592Y-95446267D01*
X146431506Y-95482720D01*
X146401347Y-95502283D01*
X146363615Y-95511283D01*
X146332335Y-95514230D01*
X146276385Y-95514965D01*
X146236555Y-95505660D01*
X146211708Y-95491846D01*
X146172656Y-95461467D01*
X146145625Y-95428613D01*
X146128517Y-95387294D01*
X146119238Y-95331521D01*
X146115693Y-95255305D01*
X146115410Y-95216622D01*
X146116372Y-95170247D01*
X146204007Y-95170247D01*
X146205023Y-95195126D01*
X146207556Y-95199200D01*
X146224274Y-95193665D01*
X146260249Y-95179017D01*
X146308331Y-95158190D01*
X146318386Y-95153714D01*
X146379152Y-95122814D01*
X146412632Y-95095657D01*
X146419990Y-95070220D01*
X146402391Y-95044481D01*
X146387856Y-95033109D01*
X146335410Y-95010364D01*
X146286322Y-95014122D01*
X146245227Y-95041884D01*
X146216758Y-95091152D01*
X146207631Y-95130257D01*
X146204007Y-95170247D01*
X146116372Y-95170247D01*
X146117285Y-95126249D01*
X146124196Y-95059384D01*
X146137884Y-95010695D01*
X146160096Y-94974849D01*
X146192574Y-94946513D01*
X146206733Y-94937355D01*
X146271053Y-94913507D01*
X146341473Y-94912006D01*
X146409595Y-94930966D01*
G37*
X144446117Y-95029358D02*
X144445933Y-95137837D01*
X144445219Y-95221287D01*
X144443675Y-95283704D01*
X144441001Y-95329085D01*
X144436894Y-95361429D01*
X144431055Y-95384733D01*
X144423182Y-95402995D01*
X144417221Y-95413418D01*
X144367855Y-95469945D01*
X144305264Y-95505377D01*
X144236013Y-95518090D01*
X144166668Y-95506463D01*
X144125375Y-95485568D01*
X144082025Y-95449422D01*
X144052481Y-95405276D01*
X144034655Y-95347462D01*
X144026463Y-95270313D01*
X144025302Y-95213714D01*
X144025458Y-95209647D01*
X144126857Y-95209647D01*
X144127476Y-95274550D01*
X144130314Y-95317514D01*
X144136840Y-95345622D01*
X144148523Y-95365953D01*
X144162483Y-95381288D01*
X144209365Y-95410890D01*
X144259701Y-95413419D01*
X144307276Y-95388705D01*
X144310979Y-95385356D01*
X144326783Y-95367935D01*
X144336693Y-95347209D01*
X144342058Y-95316362D01*
X144344228Y-95268577D01*
X144344571Y-95215748D01*
X144343827Y-95149381D01*
X144340748Y-95105106D01*
X144334061Y-95076009D01*
X144322496Y-95055173D01*
X144313013Y-95044107D01*
X144268960Y-95016198D01*
X144218224Y-95012843D01*
X144169796Y-95034159D01*
X144160450Y-95042073D01*
X144144540Y-95059647D01*
X144134610Y-95080587D01*
X144129278Y-95111782D01*
X144127163Y-95160122D01*
X144126857Y-95209647D01*
X144025458Y-95209647D01*
X144028810Y-95122568D01*
X144040726Y-95054086D01*
X144063135Y-95002600D01*
X144098124Y-94962443D01*
X144125375Y-94941861D01*
X144174907Y-94919625D01*
X144232316Y-94909304D01*
X144285682Y-94912067D01*
X144315543Y-94923212D01*
X144327261Y-94926383D01*
X144335037Y-94914557D01*
X144340465Y-94882866D01*
X144344571Y-94834593D01*
X144349067Y-94780829D01*
X144355313Y-94748482D01*
X144366676Y-94729985D01*
X144386528Y-94717770D01*
X144399000Y-94712362D01*
X144446171Y-94692601D01*
X144446117Y-95029358D01*
G36*
X144446117Y-95029358D02*
G01*
X144445933Y-95137837D01*
X144445219Y-95221287D01*
X144443675Y-95283704D01*
X144441001Y-95329085D01*
X144436894Y-95361429D01*
X144431055Y-95384733D01*
X144423182Y-95402995D01*
X144417221Y-95413418D01*
X144367855Y-95469945D01*
X144305264Y-95505377D01*
X144236013Y-95518090D01*
X144166668Y-95506463D01*
X144125375Y-95485568D01*
X144082025Y-95449422D01*
X144052481Y-95405276D01*
X144034655Y-95347462D01*
X144026463Y-95270313D01*
X144025302Y-95213714D01*
X144025458Y-95209647D01*
X144126857Y-95209647D01*
X144127476Y-95274550D01*
X144130314Y-95317514D01*
X144136840Y-95345622D01*
X144148523Y-95365953D01*
X144162483Y-95381288D01*
X144209365Y-95410890D01*
X144259701Y-95413419D01*
X144307276Y-95388705D01*
X144310979Y-95385356D01*
X144326783Y-95367935D01*
X144336693Y-95347209D01*
X144342058Y-95316362D01*
X144344228Y-95268577D01*
X144344571Y-95215748D01*
X144343827Y-95149381D01*
X144340748Y-95105106D01*
X144334061Y-95076009D01*
X144322496Y-95055173D01*
X144313013Y-95044107D01*
X144268960Y-95016198D01*
X144218224Y-95012843D01*
X144169796Y-95034159D01*
X144160450Y-95042073D01*
X144144540Y-95059647D01*
X144134610Y-95080587D01*
X144129278Y-95111782D01*
X144127163Y-95160122D01*
X144126857Y-95209647D01*
X144025458Y-95209647D01*
X144028810Y-95122568D01*
X144040726Y-95054086D01*
X144063135Y-95002600D01*
X144098124Y-94962443D01*
X144125375Y-94941861D01*
X144174907Y-94919625D01*
X144232316Y-94909304D01*
X144285682Y-94912067D01*
X144315543Y-94923212D01*
X144327261Y-94926383D01*
X144335037Y-94914557D01*
X144340465Y-94882866D01*
X144344571Y-94834593D01*
X144349067Y-94780829D01*
X144355313Y-94748482D01*
X144366676Y-94729985D01*
X144386528Y-94717770D01*
X144399000Y-94712362D01*
X144446171Y-94692601D01*
X144446117Y-95029358D01*
G37*
X141424303Y-94895239D02*
X141481527Y-94933735D01*
X141525749Y-94989335D01*
X141552167Y-95060086D01*
X141557510Y-95112162D01*
X141556903Y-95133893D01*
X141551822Y-95150531D01*
X141537855Y-95165437D01*
X141510589Y-95181973D01*
X141465612Y-95203498D01*
X141398511Y-95233374D01*
X141398171Y-95233524D01*
X141336407Y-95261813D01*
X141285759Y-95286933D01*
X141251404Y-95306179D01*
X141238518Y-95316848D01*
X141238514Y-95316934D01*
X141249872Y-95340166D01*
X141276431Y-95365774D01*
X141306923Y-95384221D01*
X141322370Y-95387886D01*
X141364515Y-95375212D01*
X141400808Y-95343471D01*
X141418517Y-95308572D01*
X141435552Y-95282845D01*
X141468922Y-95253546D01*
X141508149Y-95228235D01*
X141542756Y-95214471D01*
X141549993Y-95213714D01*
X141558139Y-95226160D01*
X141558630Y-95257972D01*
X141552643Y-95300866D01*
X141541357Y-95346558D01*
X141525950Y-95386761D01*
X141525171Y-95388322D01*
X141478804Y-95453062D01*
X141418711Y-95497097D01*
X141350465Y-95518711D01*
X141279638Y-95516185D01*
X141211804Y-95487804D01*
X141208788Y-95485808D01*
X141155427Y-95437448D01*
X141120340Y-95374352D01*
X141100922Y-95291387D01*
X141098316Y-95268078D01*
X141093701Y-95158055D01*
X141099233Y-95106748D01*
X141238514Y-95106748D01*
X141240324Y-95138753D01*
X141250222Y-95148093D01*
X141274898Y-95141105D01*
X141313795Y-95124587D01*
X141357275Y-95103881D01*
X141358356Y-95103333D01*
X141395209Y-95083949D01*
X141410000Y-95071013D01*
X141406353Y-95057451D01*
X141390995Y-95039632D01*
X141351923Y-95013845D01*
X141309846Y-95011950D01*
X141272103Y-95030717D01*
X141246034Y-95066915D01*
X141238514Y-95106748D01*
X141099233Y-95106748D01*
X141103194Y-95070027D01*
X141127550Y-95000212D01*
X141161456Y-94951302D01*
X141222653Y-94901878D01*
X141290063Y-94877359D01*
X141358880Y-94875797D01*
X141424303Y-94895239D01*
G36*
X141424303Y-94895239D02*
G01*
X141481527Y-94933735D01*
X141525749Y-94989335D01*
X141552167Y-95060086D01*
X141557510Y-95112162D01*
X141556903Y-95133893D01*
X141551822Y-95150531D01*
X141537855Y-95165437D01*
X141510589Y-95181973D01*
X141465612Y-95203498D01*
X141398511Y-95233374D01*
X141398171Y-95233524D01*
X141336407Y-95261813D01*
X141285759Y-95286933D01*
X141251404Y-95306179D01*
X141238518Y-95316848D01*
X141238514Y-95316934D01*
X141249872Y-95340166D01*
X141276431Y-95365774D01*
X141306923Y-95384221D01*
X141322370Y-95387886D01*
X141364515Y-95375212D01*
X141400808Y-95343471D01*
X141418517Y-95308572D01*
X141435552Y-95282845D01*
X141468922Y-95253546D01*
X141508149Y-95228235D01*
X141542756Y-95214471D01*
X141549993Y-95213714D01*
X141558139Y-95226160D01*
X141558630Y-95257972D01*
X141552643Y-95300866D01*
X141541357Y-95346558D01*
X141525950Y-95386761D01*
X141525171Y-95388322D01*
X141478804Y-95453062D01*
X141418711Y-95497097D01*
X141350465Y-95518711D01*
X141279638Y-95516185D01*
X141211804Y-95487804D01*
X141208788Y-95485808D01*
X141155427Y-95437448D01*
X141120340Y-95374352D01*
X141100922Y-95291387D01*
X141098316Y-95268078D01*
X141093701Y-95158055D01*
X141099233Y-95106748D01*
X141238514Y-95106748D01*
X141240324Y-95138753D01*
X141250222Y-95148093D01*
X141274898Y-95141105D01*
X141313795Y-95124587D01*
X141357275Y-95103881D01*
X141358356Y-95103333D01*
X141395209Y-95083949D01*
X141410000Y-95071013D01*
X141406353Y-95057451D01*
X141390995Y-95039632D01*
X141351923Y-95013845D01*
X141309846Y-95011950D01*
X141272103Y-95030717D01*
X141246034Y-95066915D01*
X141238514Y-95106748D01*
X141099233Y-95106748D01*
X141103194Y-95070027D01*
X141127550Y-95000212D01*
X141161456Y-94951302D01*
X141222653Y-94901878D01*
X141290063Y-94877359D01*
X141358880Y-94875797D01*
X141424303Y-94895239D01*
G37*
X143295744Y-94914968D02*
X143352616Y-94936087D01*
X143353267Y-94936493D01*
X143388440Y-94962380D01*
X143414407Y-94992633D01*
X143432670Y-95032058D01*
X143444732Y-95085462D01*
X143452096Y-95157651D01*
X143456264Y-95253432D01*
X143456629Y-95267078D01*
X143461876Y-95472842D01*
X143417716Y-95495678D01*
X143385763Y-95511110D01*
X143366470Y-95518423D01*
X143365578Y-95518514D01*
X143362239Y-95505022D01*
X143359587Y-95468626D01*
X143357956Y-95415452D01*
X143357600Y-95372393D01*
X143357592Y-95302641D01*
X143354403Y-95258837D01*
X143343288Y-95237944D01*
X143319501Y-95236925D01*
X143278296Y-95252741D01*
X143216086Y-95281815D01*
X143170341Y-95305963D01*
X143146813Y-95326913D01*
X143139896Y-95349747D01*
X143139886Y-95350877D01*
X143151299Y-95390212D01*
X143185092Y-95411462D01*
X143236809Y-95414539D01*
X143274061Y-95414006D01*
X143293703Y-95424735D01*
X143305952Y-95450505D01*
X143313002Y-95483337D01*
X143302842Y-95501966D01*
X143299017Y-95504632D01*
X143263001Y-95515340D01*
X143212566Y-95516856D01*
X143160626Y-95509759D01*
X143123822Y-95496788D01*
X143072938Y-95453585D01*
X143044014Y-95393446D01*
X143038286Y-95346462D01*
X143042657Y-95304082D01*
X143058475Y-95269488D01*
X143089797Y-95238763D01*
X143140678Y-95207990D01*
X143215176Y-95173252D01*
X143219714Y-95171288D01*
X143286821Y-95140287D01*
X143328232Y-95114862D01*
X143345981Y-95092014D01*
X143342107Y-95068745D01*
X143318643Y-95042056D01*
X143311627Y-95035914D01*
X143264630Y-95012100D01*
X143215933Y-95013103D01*
X143173522Y-95036451D01*
X143145384Y-95079675D01*
X143142769Y-95088160D01*
X143117308Y-95129308D01*
X143085001Y-95149128D01*
X143038286Y-95168770D01*
X143038286Y-95117950D01*
X143052496Y-95044082D01*
X143094675Y-94976327D01*
X143116624Y-94953661D01*
X143166517Y-94924569D01*
X143229967Y-94911400D01*
X143295744Y-94914968D01*
G36*
X143295744Y-94914968D02*
G01*
X143352616Y-94936087D01*
X143353267Y-94936493D01*
X143388440Y-94962380D01*
X143414407Y-94992633D01*
X143432670Y-95032058D01*
X143444732Y-95085462D01*
X143452096Y-95157651D01*
X143456264Y-95253432D01*
X143456629Y-95267078D01*
X143461876Y-95472842D01*
X143417716Y-95495678D01*
X143385763Y-95511110D01*
X143366470Y-95518423D01*
X143365578Y-95518514D01*
X143362239Y-95505022D01*
X143359587Y-95468626D01*
X143357956Y-95415452D01*
X143357600Y-95372393D01*
X143357592Y-95302641D01*
X143354403Y-95258837D01*
X143343288Y-95237944D01*
X143319501Y-95236925D01*
X143278296Y-95252741D01*
X143216086Y-95281815D01*
X143170341Y-95305963D01*
X143146813Y-95326913D01*
X143139896Y-95349747D01*
X143139886Y-95350877D01*
X143151299Y-95390212D01*
X143185092Y-95411462D01*
X143236809Y-95414539D01*
X143274061Y-95414006D01*
X143293703Y-95424735D01*
X143305952Y-95450505D01*
X143313002Y-95483337D01*
X143302842Y-95501966D01*
X143299017Y-95504632D01*
X143263001Y-95515340D01*
X143212566Y-95516856D01*
X143160626Y-95509759D01*
X143123822Y-95496788D01*
X143072938Y-95453585D01*
X143044014Y-95393446D01*
X143038286Y-95346462D01*
X143042657Y-95304082D01*
X143058475Y-95269488D01*
X143089797Y-95238763D01*
X143140678Y-95207990D01*
X143215176Y-95173252D01*
X143219714Y-95171288D01*
X143286821Y-95140287D01*
X143328232Y-95114862D01*
X143345981Y-95092014D01*
X143342107Y-95068745D01*
X143318643Y-95042056D01*
X143311627Y-95035914D01*
X143264630Y-95012100D01*
X143215933Y-95013103D01*
X143173522Y-95036451D01*
X143145384Y-95079675D01*
X143142769Y-95088160D01*
X143117308Y-95129308D01*
X143085001Y-95149128D01*
X143038286Y-95168770D01*
X143038286Y-95117950D01*
X143052496Y-95044082D01*
X143094675Y-94976327D01*
X143116624Y-94953661D01*
X143166517Y-94924569D01*
X143229967Y-94911400D01*
X143295744Y-94914968D01*
G37*
X140855744Y-94883918D02*
X140911201Y-94911568D01*
X140960148Y-94962480D01*
X140973629Y-94981338D01*
X140988314Y-95006015D01*
X140997842Y-95032816D01*
X141003293Y-95068587D01*
X141005747Y-95120169D01*
X141006286Y-95188267D01*
X141003852Y-95281588D01*
X140995394Y-95351657D01*
X140979174Y-95403931D01*
X140953454Y-95443869D01*
X140916497Y-95476929D01*
X140913782Y-95478886D01*
X140877360Y-95498908D01*
X140833502Y-95508815D01*
X140777724Y-95511257D01*
X140687048Y-95511257D01*
X140687010Y-95599283D01*
X140686166Y-95648308D01*
X140681024Y-95677065D01*
X140667587Y-95694311D01*
X140641858Y-95708808D01*
X140635679Y-95711769D01*
X140606764Y-95725648D01*
X140584376Y-95734414D01*
X140567729Y-95735171D01*
X140556036Y-95725023D01*
X140548510Y-95701073D01*
X140544366Y-95660426D01*
X140542815Y-95600186D01*
X140543071Y-95517455D01*
X140544349Y-95409339D01*
X140544748Y-95377000D01*
X140546185Y-95265524D01*
X140547472Y-95192603D01*
X140686971Y-95192603D01*
X140687755Y-95254499D01*
X140691240Y-95294997D01*
X140699124Y-95321708D01*
X140713105Y-95342244D01*
X140722597Y-95352260D01*
X140761404Y-95381567D01*
X140795763Y-95383952D01*
X140831216Y-95359750D01*
X140832114Y-95358857D01*
X140846539Y-95340153D01*
X140855313Y-95314732D01*
X140859739Y-95275584D01*
X140861118Y-95215697D01*
X140861143Y-95202430D01*
X140857812Y-95119901D01*
X140846969Y-95062691D01*
X140827340Y-95027766D01*
X140797650Y-95012094D01*
X140780491Y-95010514D01*
X140739766Y-95017926D01*
X140711832Y-95042330D01*
X140695017Y-95086980D01*
X140687650Y-95155130D01*
X140686971Y-95192603D01*
X140547472Y-95192603D01*
X140547708Y-95179245D01*
X140549677Y-95114333D01*
X140552450Y-95066958D01*
X140556388Y-95033290D01*
X140561849Y-95009498D01*
X140569192Y-94991753D01*
X140578777Y-94976224D01*
X140582887Y-94970381D01*
X140637405Y-94915185D01*
X140706336Y-94883890D01*
X140786072Y-94875165D01*
X140855744Y-94883918D01*
G36*
X140855744Y-94883918D02*
G01*
X140911201Y-94911568D01*
X140960148Y-94962480D01*
X140973629Y-94981338D01*
X140988314Y-95006015D01*
X140997842Y-95032816D01*
X141003293Y-95068587D01*
X141005747Y-95120169D01*
X141006286Y-95188267D01*
X141003852Y-95281588D01*
X140995394Y-95351657D01*
X140979174Y-95403931D01*
X140953454Y-95443869D01*
X140916497Y-95476929D01*
X140913782Y-95478886D01*
X140877360Y-95498908D01*
X140833502Y-95508815D01*
X140777724Y-95511257D01*
X140687048Y-95511257D01*
X140687010Y-95599283D01*
X140686166Y-95648308D01*
X140681024Y-95677065D01*
X140667587Y-95694311D01*
X140641858Y-95708808D01*
X140635679Y-95711769D01*
X140606764Y-95725648D01*
X140584376Y-95734414D01*
X140567729Y-95735171D01*
X140556036Y-95725023D01*
X140548510Y-95701073D01*
X140544366Y-95660426D01*
X140542815Y-95600186D01*
X140543071Y-95517455D01*
X140544349Y-95409339D01*
X140544748Y-95377000D01*
X140546185Y-95265524D01*
X140547472Y-95192603D01*
X140686971Y-95192603D01*
X140687755Y-95254499D01*
X140691240Y-95294997D01*
X140699124Y-95321708D01*
X140713105Y-95342244D01*
X140722597Y-95352260D01*
X140761404Y-95381567D01*
X140795763Y-95383952D01*
X140831216Y-95359750D01*
X140832114Y-95358857D01*
X140846539Y-95340153D01*
X140855313Y-95314732D01*
X140859739Y-95275584D01*
X140861118Y-95215697D01*
X140861143Y-95202430D01*
X140857812Y-95119901D01*
X140846969Y-95062691D01*
X140827340Y-95027766D01*
X140797650Y-95012094D01*
X140780491Y-95010514D01*
X140739766Y-95017926D01*
X140711832Y-95042330D01*
X140695017Y-95086980D01*
X140687650Y-95155130D01*
X140686971Y-95192603D01*
X140547472Y-95192603D01*
X140547708Y-95179245D01*
X140549677Y-95114333D01*
X140552450Y-95066958D01*
X140556388Y-95033290D01*
X140561849Y-95009498D01*
X140569192Y-94991753D01*
X140578777Y-94976224D01*
X140582887Y-94970381D01*
X140637405Y-94915185D01*
X140706336Y-94883890D01*
X140786072Y-94875165D01*
X140855744Y-94883918D01*
G37*
X145400876Y-94920335D02*
X145442667Y-94939344D01*
X145475469Y-94962378D01*
X145499503Y-94988133D01*
X145516097Y-95021358D01*
X145526577Y-95066800D01*
X145532271Y-95129207D01*
X145534507Y-95213327D01*
X145534743Y-95268721D01*
X145534743Y-95484826D01*
X145497774Y-95501670D01*
X145468656Y-95513981D01*
X145454231Y-95518514D01*
X145451472Y-95505025D01*
X145449282Y-95468653D01*
X145447942Y-95415542D01*
X145447657Y-95373372D01*
X145446434Y-95312447D01*
X145443136Y-95264115D01*
X145438321Y-95234518D01*
X145434496Y-95228229D01*
X145408783Y-95234652D01*
X145368418Y-95251125D01*
X145321679Y-95273458D01*
X145276845Y-95297457D01*
X145242193Y-95318930D01*
X145226002Y-95333685D01*
X145225938Y-95333845D01*
X145227330Y-95361152D01*
X145239818Y-95387219D01*
X145261743Y-95408392D01*
X145293743Y-95415474D01*
X145321092Y-95414649D01*
X145359826Y-95414042D01*
X145380158Y-95423116D01*
X145392369Y-95447092D01*
X145393909Y-95451613D01*
X145399203Y-95485806D01*
X145385047Y-95506568D01*
X145348148Y-95516462D01*
X145308289Y-95518292D01*
X145236562Y-95504727D01*
X145199432Y-95485355D01*
X145153576Y-95439845D01*
X145129256Y-95383983D01*
X145127073Y-95324957D01*
X145147629Y-95269953D01*
X145178549Y-95235486D01*
X145209420Y-95216189D01*
X145257942Y-95191759D01*
X145314485Y-95166985D01*
X145323910Y-95163199D01*
X145386019Y-95135791D01*
X145421822Y-95111634D01*
X145433337Y-95087619D01*
X145422580Y-95060635D01*
X145404114Y-95039543D01*
X145360469Y-95013572D01*
X145312446Y-95011624D01*
X145268406Y-95031637D01*
X145236709Y-95071551D01*
X145232549Y-95081848D01*
X145208327Y-95119724D01*
X145172965Y-95147842D01*
X145128343Y-95170917D01*
X145128343Y-95105485D01*
X145130969Y-95065506D01*
X145142230Y-95033997D01*
X145167199Y-95000378D01*
X145191169Y-94974484D01*
X145228441Y-94937817D01*
X145257401Y-94918121D01*
X145288505Y-94910220D01*
X145323713Y-94908914D01*
X145400876Y-94920335D01*
G36*
X145400876Y-94920335D02*
G01*
X145442667Y-94939344D01*
X145475469Y-94962378D01*
X145499503Y-94988133D01*
X145516097Y-95021358D01*
X145526577Y-95066800D01*
X145532271Y-95129207D01*
X145534507Y-95213327D01*
X145534743Y-95268721D01*
X145534743Y-95484826D01*
X145497774Y-95501670D01*
X145468656Y-95513981D01*
X145454231Y-95518514D01*
X145451472Y-95505025D01*
X145449282Y-95468653D01*
X145447942Y-95415542D01*
X145447657Y-95373372D01*
X145446434Y-95312447D01*
X145443136Y-95264115D01*
X145438321Y-95234518D01*
X145434496Y-95228229D01*
X145408783Y-95234652D01*
X145368418Y-95251125D01*
X145321679Y-95273458D01*
X145276845Y-95297457D01*
X145242193Y-95318930D01*
X145226002Y-95333685D01*
X145225938Y-95333845D01*
X145227330Y-95361152D01*
X145239818Y-95387219D01*
X145261743Y-95408392D01*
X145293743Y-95415474D01*
X145321092Y-95414649D01*
X145359826Y-95414042D01*
X145380158Y-95423116D01*
X145392369Y-95447092D01*
X145393909Y-95451613D01*
X145399203Y-95485806D01*
X145385047Y-95506568D01*
X145348148Y-95516462D01*
X145308289Y-95518292D01*
X145236562Y-95504727D01*
X145199432Y-95485355D01*
X145153576Y-95439845D01*
X145129256Y-95383983D01*
X145127073Y-95324957D01*
X145147629Y-95269953D01*
X145178549Y-95235486D01*
X145209420Y-95216189D01*
X145257942Y-95191759D01*
X145314485Y-95166985D01*
X145323910Y-95163199D01*
X145386019Y-95135791D01*
X145421822Y-95111634D01*
X145433337Y-95087619D01*
X145422580Y-95060635D01*
X145404114Y-95039543D01*
X145360469Y-95013572D01*
X145312446Y-95011624D01*
X145268406Y-95031637D01*
X145236709Y-95071551D01*
X145232549Y-95081848D01*
X145208327Y-95119724D01*
X145172965Y-95147842D01*
X145128343Y-95170917D01*
X145128343Y-95105485D01*
X145130969Y-95065506D01*
X145142230Y-95033997D01*
X145167199Y-95000378D01*
X145191169Y-94974484D01*
X145228441Y-94937817D01*
X145257401Y-94918121D01*
X145288505Y-94910220D01*
X145323713Y-94908914D01*
X145400876Y-94920335D01*
G37*
X143359910Y-90206348D02*
X143438454Y-90206778D01*
X143495298Y-90207942D01*
X143534105Y-90210207D01*
X143558538Y-90213940D01*
X143572262Y-90219506D01*
X143578940Y-90227273D01*
X143582236Y-90237605D01*
X143582556Y-90238943D01*
X143587562Y-90263079D01*
X143596829Y-90310701D01*
X143609392Y-90376741D01*
X143624287Y-90456128D01*
X143640551Y-90543796D01*
X143641119Y-90546875D01*
X143657410Y-90632789D01*
X143672652Y-90708696D01*
X143685861Y-90770045D01*
X143696054Y-90812282D01*
X143702248Y-90830855D01*
X143702543Y-90831184D01*
X143720788Y-90840253D01*
X143758405Y-90855367D01*
X143807271Y-90873262D01*
X143807543Y-90873358D01*
X143869093Y-90896493D01*
X143941657Y-90925965D01*
X144010057Y-90955597D01*
X144013294Y-90957062D01*
X144124702Y-91007626D01*
X144371399Y-90839160D01*
X144447077Y-90787803D01*
X144515631Y-90741889D01*
X144573088Y-90704030D01*
X144615476Y-90676837D01*
X144638825Y-90662921D01*
X144641042Y-90661889D01*
X144658010Y-90666484D01*
X144689701Y-90688655D01*
X144737352Y-90729447D01*
X144802198Y-90789905D01*
X144868397Y-90854227D01*
X144932214Y-90917612D01*
X144989329Y-90975451D01*
X145036305Y-91024175D01*
X145069703Y-91060210D01*
X145086085Y-91079984D01*
X145086694Y-91081002D01*
X145088505Y-91094572D01*
X145081683Y-91116733D01*
X145064540Y-91150478D01*
X145035393Y-91198800D01*
X144992555Y-91264692D01*
X144935448Y-91349517D01*
X144884766Y-91424177D01*
X144839461Y-91491140D01*
X144802150Y-91546516D01*
X144775452Y-91586420D01*
X144761985Y-91606962D01*
X144761137Y-91608356D01*
X144762781Y-91628038D01*
X144775245Y-91666293D01*
X144796048Y-91715889D01*
X144803462Y-91731728D01*
X144835814Y-91802290D01*
X144870328Y-91882353D01*
X144898365Y-91951629D01*
X144918568Y-92003045D01*
X144934615Y-92042119D01*
X144943888Y-92062541D01*
X144945041Y-92064114D01*
X144962096Y-92066721D01*
X145002298Y-92073863D01*
X145060302Y-92084523D01*
X145130763Y-92097685D01*
X145208335Y-92112333D01*
X145287672Y-92127449D01*
X145363431Y-92142018D01*
X145430264Y-92155022D01*
X145482828Y-92165445D01*
X145515776Y-92172270D01*
X145523857Y-92174199D01*
X145532205Y-92178962D01*
X145538506Y-92189718D01*
X145543045Y-92210098D01*
X145546104Y-92243734D01*
X145547967Y-92294255D01*
X145548918Y-92365292D01*
X145549240Y-92460476D01*
X145549257Y-92499492D01*
X145549257Y-92816799D01*
X145473057Y-92831839D01*
X145430663Y-92839995D01*
X145367400Y-92851899D01*
X145290962Y-92866116D01*
X145209043Y-92881210D01*
X145186400Y-92885355D01*
X145110806Y-92900053D01*
X145044953Y-92914505D01*
X144994366Y-92927375D01*
X144964574Y-92937322D01*
X144959612Y-92940287D01*
X144947426Y-92961283D01*
X144929953Y-93001967D01*
X144910577Y-93054322D01*
X144906734Y-93065600D01*
X144881339Y-93135523D01*
X144849817Y-93214418D01*
X144818969Y-93285266D01*
X144818817Y-93285595D01*
X144767447Y-93396733D01*
X144936399Y-93645253D01*
X145105352Y-93893772D01*
X144888429Y-94111058D01*
X144822819Y-94175726D01*
X144762979Y-94232733D01*
X144712267Y-94279033D01*
X144674046Y-94311584D01*
X144651675Y-94327343D01*
X144648466Y-94328343D01*
X144629626Y-94320469D01*
X144591180Y-94298578D01*
X144537330Y-94265267D01*
X144472276Y-94223131D01*
X144401940Y-94175943D01*
X144330555Y-94127810D01*
X144266908Y-94085928D01*
X144215041Y-94052871D01*
X144178995Y-94031218D01*
X144162867Y-94023543D01*
X144143189Y-94030037D01*
X144105875Y-94047150D01*
X144058621Y-94071326D01*
X144053612Y-94074013D01*
X143989977Y-94105927D01*
X143946341Y-94121579D01*
X143919202Y-94121745D01*
X143905057Y-94107204D01*
X143904975Y-94107000D01*
X143897905Y-94089779D01*
X143881042Y-94048899D01*
X143855695Y-93987525D01*
X143823171Y-93908819D01*
X143784778Y-93815947D01*
X143741822Y-93712072D01*
X143700222Y-93611502D01*
X143654504Y-93500516D01*
X143612526Y-93397703D01*
X143575548Y-93306215D01*
X143544827Y-93229201D01*
X143521622Y-93169815D01*
X143507190Y-93131209D01*
X143502743Y-93116800D01*
X143513896Y-93100272D01*
X143543069Y-93073930D01*
X143581971Y-93044887D01*
X143692757Y-92953039D01*
X143779351Y-92847759D01*
X143840716Y-92731266D01*
X143875815Y-92605776D01*
X143883608Y-92473507D01*
X143877943Y-92412457D01*
X143847078Y-92285795D01*
X143793920Y-92173941D01*
X143721767Y-92078001D01*
X143633917Y-91999076D01*
X143533665Y-91938270D01*
X143424310Y-91896687D01*
X143309147Y-91875428D01*
X143191475Y-91875599D01*
X143074590Y-91898301D01*
X142961789Y-91944638D01*
X142856369Y-92015713D01*
X142812368Y-92055911D01*
X142727979Y-92159129D01*
X142669222Y-92271925D01*
X142635704Y-92391010D01*
X142627035Y-92513095D01*
X142642823Y-92634893D01*
X142682678Y-92753116D01*
X142746207Y-92864475D01*
X142833021Y-92965684D01*
X142930029Y-93044887D01*
X142970437Y-93075162D01*
X142998982Y-93101219D01*
X143009257Y-93116825D01*
X143003877Y-93133843D01*
X142988575Y-93174500D01*
X142964612Y-93235642D01*
X142933244Y-93314119D01*
X142895732Y-93406780D01*
X142853333Y-93510472D01*
X142811663Y-93611526D01*
X142765690Y-93722607D01*
X142723107Y-93825541D01*
X142685221Y-93917165D01*
X142653340Y-93994316D01*
X142628771Y-94053831D01*
X142612820Y-94092544D01*
X142606910Y-94107000D01*
X142592948Y-94121685D01*
X142565940Y-94121642D01*
X142522413Y-94106099D01*
X142458890Y-94074284D01*
X142458388Y-94074013D01*
X142410560Y-94049323D01*
X142371897Y-94031338D01*
X142350095Y-94023614D01*
X142349133Y-94023543D01*
X142332721Y-94031378D01*
X142296487Y-94053165D01*
X142244474Y-94086328D01*
X142180725Y-94128291D01*
X142110060Y-94175943D01*
X142038116Y-94224191D01*
X141973274Y-94266151D01*
X141919735Y-94299227D01*
X141881697Y-94320821D01*
X141863533Y-94328343D01*
X141846808Y-94318457D01*
X141813180Y-94290826D01*
X141766010Y-94248495D01*
X141708658Y-94194505D01*
X141644484Y-94131899D01*
X141623497Y-94110983D01*
X141406499Y-93893623D01*
X141571668Y-93651220D01*
X141621864Y-93576781D01*
X141665919Y-93509972D01*
X141701362Y-93454665D01*
X141725719Y-93414729D01*
X141736522Y-93394036D01*
X141736838Y-93392563D01*
X141731143Y-93373058D01*
X141715826Y-93333822D01*
X141693537Y-93281430D01*
X141677893Y-93246355D01*
X141648641Y-93179201D01*
X141621094Y-93111358D01*
X141599737Y-93054034D01*
X141593935Y-93036572D01*
X141577452Y-92989938D01*
X141561340Y-92953905D01*
X141552490Y-92940287D01*
X141532960Y-92931952D01*
X141490334Y-92920137D01*
X141430145Y-92906181D01*
X141357922Y-92891422D01*
X141325600Y-92885355D01*
X141243522Y-92870273D01*
X141164795Y-92855669D01*
X141097109Y-92842980D01*
X141048160Y-92833642D01*
X141038943Y-92831839D01*
X140962743Y-92816799D01*
X140962743Y-92499492D01*
X140962914Y-92395154D01*
X140963616Y-92316213D01*
X140965134Y-92259038D01*
X140967749Y-92219999D01*
X140971746Y-92195465D01*
X140977409Y-92181805D01*
X140985020Y-92175389D01*
X140988143Y-92174199D01*
X141006978Y-92169980D01*
X141048588Y-92161562D01*
X141107630Y-92149961D01*
X141178757Y-92136195D01*
X141256625Y-92121280D01*
X141335887Y-92106232D01*
X141411198Y-92092069D01*
X141477213Y-92079806D01*
X141528587Y-92070461D01*
X141559975Y-92065050D01*
X141566959Y-92064114D01*
X141573285Y-92051596D01*
X141587290Y-92018246D01*
X141606355Y-91970377D01*
X141613634Y-91951629D01*
X141642996Y-91879195D01*
X141677571Y-91799170D01*
X141708537Y-91731728D01*
X141731323Y-91680159D01*
X141746482Y-91637785D01*
X141751542Y-91611834D01*
X141750736Y-91608356D01*
X141740041Y-91591936D01*
X141715620Y-91555417D01*
X141680095Y-91502687D01*
X141636087Y-91437635D01*
X141586217Y-91364151D01*
X141576356Y-91349645D01*
X141518492Y-91263704D01*
X141475956Y-91198261D01*
X141447054Y-91150304D01*
X141430090Y-91116820D01*
X141423367Y-91094795D01*
X141425190Y-91081217D01*
X141425236Y-91081131D01*
X141439586Y-91063297D01*
X141471323Y-91028817D01*
X141517010Y-90981268D01*
X141573204Y-90924222D01*
X141636468Y-90861255D01*
X141643602Y-90854227D01*
X141723330Y-90777020D01*
X141784857Y-90720330D01*
X141829421Y-90683110D01*
X141858257Y-90664315D01*
X141870958Y-90661889D01*
X141889494Y-90672471D01*
X141927961Y-90696916D01*
X141982386Y-90732612D01*
X142048798Y-90776947D01*
X142123225Y-90827311D01*
X142140601Y-90839160D01*
X142387297Y-91007626D01*
X142498706Y-90957062D01*
X142566457Y-90927595D01*
X142639183Y-90897959D01*
X142701703Y-90874330D01*
X142704457Y-90873358D01*
X142753360Y-90855457D01*
X142791057Y-90840320D01*
X142809425Y-90831210D01*
X142809456Y-90831184D01*
X142815285Y-90814717D01*
X142825192Y-90774219D01*
X142838195Y-90714242D01*
X142853309Y-90639340D01*
X142869552Y-90554064D01*
X142870881Y-90546875D01*
X142887175Y-90459014D01*
X142902133Y-90379260D01*
X142914791Y-90312681D01*
X142924186Y-90264347D01*
X142929354Y-90239325D01*
X142929444Y-90238943D01*
X142932589Y-90228299D01*
X142938704Y-90220262D01*
X142951453Y-90214467D01*
X142974500Y-90210547D01*
X143011509Y-90208135D01*
X143066144Y-90206865D01*
X143142067Y-90206371D01*
X143242944Y-90206286D01*
X143256000Y-90206286D01*
X143359910Y-90206348D01*
G36*
X143359910Y-90206348D02*
G01*
X143438454Y-90206778D01*
X143495298Y-90207942D01*
X143534105Y-90210207D01*
X143558538Y-90213940D01*
X143572262Y-90219506D01*
X143578940Y-90227273D01*
X143582236Y-90237605D01*
X143582556Y-90238943D01*
X143587562Y-90263079D01*
X143596829Y-90310701D01*
X143609392Y-90376741D01*
X143624287Y-90456128D01*
X143640551Y-90543796D01*
X143641119Y-90546875D01*
X143657410Y-90632789D01*
X143672652Y-90708696D01*
X143685861Y-90770045D01*
X143696054Y-90812282D01*
X143702248Y-90830855D01*
X143702543Y-90831184D01*
X143720788Y-90840253D01*
X143758405Y-90855367D01*
X143807271Y-90873262D01*
X143807543Y-90873358D01*
X143869093Y-90896493D01*
X143941657Y-90925965D01*
X144010057Y-90955597D01*
X144013294Y-90957062D01*
X144124702Y-91007626D01*
X144371399Y-90839160D01*
X144447077Y-90787803D01*
X144515631Y-90741889D01*
X144573088Y-90704030D01*
X144615476Y-90676837D01*
X144638825Y-90662921D01*
X144641042Y-90661889D01*
X144658010Y-90666484D01*
X144689701Y-90688655D01*
X144737352Y-90729447D01*
X144802198Y-90789905D01*
X144868397Y-90854227D01*
X144932214Y-90917612D01*
X144989329Y-90975451D01*
X145036305Y-91024175D01*
X145069703Y-91060210D01*
X145086085Y-91079984D01*
X145086694Y-91081002D01*
X145088505Y-91094572D01*
X145081683Y-91116733D01*
X145064540Y-91150478D01*
X145035393Y-91198800D01*
X144992555Y-91264692D01*
X144935448Y-91349517D01*
X144884766Y-91424177D01*
X144839461Y-91491140D01*
X144802150Y-91546516D01*
X144775452Y-91586420D01*
X144761985Y-91606962D01*
X144761137Y-91608356D01*
X144762781Y-91628038D01*
X144775245Y-91666293D01*
X144796048Y-91715889D01*
X144803462Y-91731728D01*
X144835814Y-91802290D01*
X144870328Y-91882353D01*
X144898365Y-91951629D01*
X144918568Y-92003045D01*
X144934615Y-92042119D01*
X144943888Y-92062541D01*
X144945041Y-92064114D01*
X144962096Y-92066721D01*
X145002298Y-92073863D01*
X145060302Y-92084523D01*
X145130763Y-92097685D01*
X145208335Y-92112333D01*
X145287672Y-92127449D01*
X145363431Y-92142018D01*
X145430264Y-92155022D01*
X145482828Y-92165445D01*
X145515776Y-92172270D01*
X145523857Y-92174199D01*
X145532205Y-92178962D01*
X145538506Y-92189718D01*
X145543045Y-92210098D01*
X145546104Y-92243734D01*
X145547967Y-92294255D01*
X145548918Y-92365292D01*
X145549240Y-92460476D01*
X145549257Y-92499492D01*
X145549257Y-92816799D01*
X145473057Y-92831839D01*
X145430663Y-92839995D01*
X145367400Y-92851899D01*
X145290962Y-92866116D01*
X145209043Y-92881210D01*
X145186400Y-92885355D01*
X145110806Y-92900053D01*
X145044953Y-92914505D01*
X144994366Y-92927375D01*
X144964574Y-92937322D01*
X144959612Y-92940287D01*
X144947426Y-92961283D01*
X144929953Y-93001967D01*
X144910577Y-93054322D01*
X144906734Y-93065600D01*
X144881339Y-93135523D01*
X144849817Y-93214418D01*
X144818969Y-93285266D01*
X144818817Y-93285595D01*
X144767447Y-93396733D01*
X144936399Y-93645253D01*
X145105352Y-93893772D01*
X144888429Y-94111058D01*
X144822819Y-94175726D01*
X144762979Y-94232733D01*
X144712267Y-94279033D01*
X144674046Y-94311584D01*
X144651675Y-94327343D01*
X144648466Y-94328343D01*
X144629626Y-94320469D01*
X144591180Y-94298578D01*
X144537330Y-94265267D01*
X144472276Y-94223131D01*
X144401940Y-94175943D01*
X144330555Y-94127810D01*
X144266908Y-94085928D01*
X144215041Y-94052871D01*
X144178995Y-94031218D01*
X144162867Y-94023543D01*
X144143189Y-94030037D01*
X144105875Y-94047150D01*
X144058621Y-94071326D01*
X144053612Y-94074013D01*
X143989977Y-94105927D01*
X143946341Y-94121579D01*
X143919202Y-94121745D01*
X143905057Y-94107204D01*
X143904975Y-94107000D01*
X143897905Y-94089779D01*
X143881042Y-94048899D01*
X143855695Y-93987525D01*
X143823171Y-93908819D01*
X143784778Y-93815947D01*
X143741822Y-93712072D01*
X143700222Y-93611502D01*
X143654504Y-93500516D01*
X143612526Y-93397703D01*
X143575548Y-93306215D01*
X143544827Y-93229201D01*
X143521622Y-93169815D01*
X143507190Y-93131209D01*
X143502743Y-93116800D01*
X143513896Y-93100272D01*
X143543069Y-93073930D01*
X143581971Y-93044887D01*
X143692757Y-92953039D01*
X143779351Y-92847759D01*
X143840716Y-92731266D01*
X143875815Y-92605776D01*
X143883608Y-92473507D01*
X143877943Y-92412457D01*
X143847078Y-92285795D01*
X143793920Y-92173941D01*
X143721767Y-92078001D01*
X143633917Y-91999076D01*
X143533665Y-91938270D01*
X143424310Y-91896687D01*
X143309147Y-91875428D01*
X143191475Y-91875599D01*
X143074590Y-91898301D01*
X142961789Y-91944638D01*
X142856369Y-92015713D01*
X142812368Y-92055911D01*
X142727979Y-92159129D01*
X142669222Y-92271925D01*
X142635704Y-92391010D01*
X142627035Y-92513095D01*
X142642823Y-92634893D01*
X142682678Y-92753116D01*
X142746207Y-92864475D01*
X142833021Y-92965684D01*
X142930029Y-93044887D01*
X142970437Y-93075162D01*
X142998982Y-93101219D01*
X143009257Y-93116825D01*
X143003877Y-93133843D01*
X142988575Y-93174500D01*
X142964612Y-93235642D01*
X142933244Y-93314119D01*
X142895732Y-93406780D01*
X142853333Y-93510472D01*
X142811663Y-93611526D01*
X142765690Y-93722607D01*
X142723107Y-93825541D01*
X142685221Y-93917165D01*
X142653340Y-93994316D01*
X142628771Y-94053831D01*
X142612820Y-94092544D01*
X142606910Y-94107000D01*
X142592948Y-94121685D01*
X142565940Y-94121642D01*
X142522413Y-94106099D01*
X142458890Y-94074284D01*
X142458388Y-94074013D01*
X142410560Y-94049323D01*
X142371897Y-94031338D01*
X142350095Y-94023614D01*
X142349133Y-94023543D01*
X142332721Y-94031378D01*
X142296487Y-94053165D01*
X142244474Y-94086328D01*
X142180725Y-94128291D01*
X142110060Y-94175943D01*
X142038116Y-94224191D01*
X141973274Y-94266151D01*
X141919735Y-94299227D01*
X141881697Y-94320821D01*
X141863533Y-94328343D01*
X141846808Y-94318457D01*
X141813180Y-94290826D01*
X141766010Y-94248495D01*
X141708658Y-94194505D01*
X141644484Y-94131899D01*
X141623497Y-94110983D01*
X141406499Y-93893623D01*
X141571668Y-93651220D01*
X141621864Y-93576781D01*
X141665919Y-93509972D01*
X141701362Y-93454665D01*
X141725719Y-93414729D01*
X141736522Y-93394036D01*
X141736838Y-93392563D01*
X141731143Y-93373058D01*
X141715826Y-93333822D01*
X141693537Y-93281430D01*
X141677893Y-93246355D01*
X141648641Y-93179201D01*
X141621094Y-93111358D01*
X141599737Y-93054034D01*
X141593935Y-93036572D01*
X141577452Y-92989938D01*
X141561340Y-92953905D01*
X141552490Y-92940287D01*
X141532960Y-92931952D01*
X141490334Y-92920137D01*
X141430145Y-92906181D01*
X141357922Y-92891422D01*
X141325600Y-92885355D01*
X141243522Y-92870273D01*
X141164795Y-92855669D01*
X141097109Y-92842980D01*
X141048160Y-92833642D01*
X141038943Y-92831839D01*
X140962743Y-92816799D01*
X140962743Y-92499492D01*
X140962914Y-92395154D01*
X140963616Y-92316213D01*
X140965134Y-92259038D01*
X140967749Y-92219999D01*
X140971746Y-92195465D01*
X140977409Y-92181805D01*
X140985020Y-92175389D01*
X140988143Y-92174199D01*
X141006978Y-92169980D01*
X141048588Y-92161562D01*
X141107630Y-92149961D01*
X141178757Y-92136195D01*
X141256625Y-92121280D01*
X141335887Y-92106232D01*
X141411198Y-92092069D01*
X141477213Y-92079806D01*
X141528587Y-92070461D01*
X141559975Y-92065050D01*
X141566959Y-92064114D01*
X141573285Y-92051596D01*
X141587290Y-92018246D01*
X141606355Y-91970377D01*
X141613634Y-91951629D01*
X141642996Y-91879195D01*
X141677571Y-91799170D01*
X141708537Y-91731728D01*
X141731323Y-91680159D01*
X141746482Y-91637785D01*
X141751542Y-91611834D01*
X141750736Y-91608356D01*
X141740041Y-91591936D01*
X141715620Y-91555417D01*
X141680095Y-91502687D01*
X141636087Y-91437635D01*
X141586217Y-91364151D01*
X141576356Y-91349645D01*
X141518492Y-91263704D01*
X141475956Y-91198261D01*
X141447054Y-91150304D01*
X141430090Y-91116820D01*
X141423367Y-91094795D01*
X141425190Y-91081217D01*
X141425236Y-91081131D01*
X141439586Y-91063297D01*
X141471323Y-91028817D01*
X141517010Y-90981268D01*
X141573204Y-90924222D01*
X141636468Y-90861255D01*
X141643602Y-90854227D01*
X141723330Y-90777020D01*
X141784857Y-90720330D01*
X141829421Y-90683110D01*
X141858257Y-90664315D01*
X141870958Y-90661889D01*
X141889494Y-90672471D01*
X141927961Y-90696916D01*
X141982386Y-90732612D01*
X142048798Y-90776947D01*
X142123225Y-90827311D01*
X142140601Y-90839160D01*
X142387297Y-91007626D01*
X142498706Y-90957062D01*
X142566457Y-90927595D01*
X142639183Y-90897959D01*
X142701703Y-90874330D01*
X142704457Y-90873358D01*
X142753360Y-90855457D01*
X142791057Y-90840320D01*
X142809425Y-90831210D01*
X142809456Y-90831184D01*
X142815285Y-90814717D01*
X142825192Y-90774219D01*
X142838195Y-90714242D01*
X142853309Y-90639340D01*
X142869552Y-90554064D01*
X142870881Y-90546875D01*
X142887175Y-90459014D01*
X142902133Y-90379260D01*
X142914791Y-90312681D01*
X142924186Y-90264347D01*
X142929354Y-90239325D01*
X142929444Y-90238943D01*
X142932589Y-90228299D01*
X142938704Y-90220262D01*
X142951453Y-90214467D01*
X142974500Y-90210547D01*
X143011509Y-90208135D01*
X143066144Y-90206865D01*
X143142067Y-90206371D01*
X143242944Y-90206286D01*
X143256000Y-90206286D01*
X143359910Y-90206348D01*
G37*
%TD*%
M02*
