%TF.GenerationSoftware,KiCad,Pcbnew,7.0.10*%
%TF.CreationDate,2024-02-22T19:55:08+01:00*%
%TF.ProjectId,Unibias,556e6962-6961-4732-9e6b-696361645f70,rev?*%
%TF.SameCoordinates,Original*%
%TF.FileFunction,Soldermask,Bot*%
%TF.FilePolarity,Negative*%
%FSLAX46Y46*%
G04 Gerber Fmt 4.6, Leading zero omitted, Abs format (unit mm)*
G04 Created by KiCad (PCBNEW 7.0.10) date 2024-02-22 19:55:08*
%MOMM*%
%LPD*%
G01*
G04 APERTURE LIST*
%ADD10O,2.500000X1.600000*%
%ADD11O,7.000000X3.500000*%
%ADD12R,1.600000X1.600000*%
%ADD13O,1.600000X1.600000*%
%ADD14C,2.000000*%
%ADD15O,1.600000X2.000000*%
G04 APERTURE END LIST*
D10*
%TO.C,J2*%
X184950000Y-96420000D03*
D11*
X190030000Y-91340000D03*
D10*
X184950000Y-93880000D03*
D11*
X190030000Y-101500000D03*
%TD*%
D12*
%TO.C,A1*%
X154940000Y-78740000D03*
D13*
X157480000Y-78740000D03*
X160020000Y-78740000D03*
X162560000Y-78740000D03*
X165100000Y-78740000D03*
X167640000Y-78740000D03*
X170180000Y-78740000D03*
X172720000Y-78740000D03*
X175260000Y-78740000D03*
X177800000Y-78740000D03*
X180340000Y-78740000D03*
X182880000Y-78740000D03*
X185420000Y-78740000D03*
X187960000Y-78740000D03*
X190500000Y-78740000D03*
X190500000Y-63500000D03*
X187960000Y-63500000D03*
X185420000Y-63500000D03*
X182880000Y-63500000D03*
X180340000Y-63500000D03*
X177800000Y-63500000D03*
X175260000Y-63500000D03*
X172720000Y-63500000D03*
X170180000Y-63500000D03*
X167640000Y-63500000D03*
X165100000Y-63500000D03*
X162560000Y-63500000D03*
X160020000Y-63500000D03*
X157480000Y-63500000D03*
X154940000Y-63500000D03*
%TD*%
D10*
%TO.C,J1*%
X133980000Y-96520000D03*
D11*
X128900000Y-101600000D03*
D10*
X133980000Y-99060000D03*
D11*
X128900000Y-91440000D03*
%TD*%
D14*
%TO.C,SW2*%
X179780000Y-103596000D03*
X173280000Y-103596000D03*
X179780000Y-99096000D03*
X173280000Y-99096000D03*
%TD*%
D15*
%TO.C,Brd1*%
X131000000Y-63060000D03*
X133540000Y-63060000D03*
X136080000Y-63060000D03*
X138620000Y-63060000D03*
%TD*%
D14*
%TO.C,SW1*%
X145490000Y-103560000D03*
X138990000Y-103560000D03*
X145490000Y-99060000D03*
X138990000Y-99060000D03*
%TD*%
%TO.C,SW3*%
X176680000Y-91876000D03*
X170180000Y-91876000D03*
X176680000Y-87376000D03*
X170180000Y-87376000D03*
%TD*%
M02*
