%TF.GenerationSoftware,KiCad,Pcbnew,7.0.10*%
%TF.CreationDate,2024-02-22T19:55:19+01:00*%
%TF.ProjectId,Unibias,556e6962-6961-4732-9e6b-696361645f70,rev?*%
%TF.SameCoordinates,Original*%
%TF.FileFunction,Drillmap*%
%TF.FilePolarity,Positive*%
%FSLAX45Y45*%
G04 Gerber Fmt 4.5, Leading zero omitted, Abs format (unit mm)*
G04 Created by KiCad (PCBNEW 7.0.10) date 2024-02-22 19:55:19*
%MOMM*%
%LPD*%
G01*
G04 APERTURE LIST*
%ADD10C,0.050000*%
%ADD11C,0.200000*%
%ADD12C,0.100000*%
%ADD13C,0.110000*%
%ADD14C,0.201000*%
G04 APERTURE END LIST*
D10*
X12065000Y-10668000D02*
X12065000Y-6096000D01*
X19812000Y-10668000D02*
X12065000Y-10668000D01*
X12065000Y-6096000D02*
X19812000Y-6096000D01*
X19812000Y-6096000D02*
X19812000Y-10668000D01*
D11*
D12*
X12121200Y-8133400D02*
X12161200Y-8173400D01*
X12161200Y-8133400D02*
X12121200Y-8173400D01*
X12172000Y-6203000D02*
X12212000Y-6243000D01*
X12212000Y-6203000D02*
X12172000Y-6243000D01*
X12172000Y-10521000D02*
X12212000Y-10561000D01*
X12212000Y-10521000D02*
X12172000Y-10561000D01*
X14445300Y-6317300D02*
X14485300Y-6357300D01*
X14485300Y-6317300D02*
X14445300Y-6357300D01*
X14800900Y-8158800D02*
X14840900Y-8198800D01*
X14840900Y-8158800D02*
X14800900Y-8198800D01*
X15042200Y-9886000D02*
X15082200Y-9926000D01*
X15082200Y-9886000D02*
X15042200Y-9926000D01*
X15385100Y-8552500D02*
X15425100Y-8592500D01*
X15425100Y-8552500D02*
X15385100Y-8592500D01*
X15550200Y-8552500D02*
X15590200Y-8592500D01*
X15590200Y-8552500D02*
X15550200Y-8592500D01*
X15677200Y-10457500D02*
X15717200Y-10497500D01*
X15717200Y-10457500D02*
X15677200Y-10497500D01*
X15918500Y-8552500D02*
X15958500Y-8592500D01*
X15958500Y-8552500D02*
X15918500Y-8592500D01*
X16109000Y-8552500D02*
X16149000Y-8592500D01*
X16149000Y-8552500D02*
X16109000Y-8592500D01*
X16515400Y-8108000D02*
X16555400Y-8148000D01*
X16555400Y-8108000D02*
X16515400Y-8148000D01*
X16566200Y-6545900D02*
X16606200Y-6585900D01*
X16606200Y-6545900D02*
X16566200Y-6585900D01*
X16744000Y-9886000D02*
X16784000Y-9926000D01*
X16784000Y-9886000D02*
X16744000Y-9926000D01*
X16845600Y-8108000D02*
X16885600Y-8148000D01*
X16885600Y-8108000D02*
X16845600Y-8148000D01*
X17429800Y-8171500D02*
X17469800Y-8211500D01*
X17469800Y-8171500D02*
X17429800Y-8211500D01*
X19665000Y-6203000D02*
X19705000Y-6243000D01*
X19705000Y-6203000D02*
X19665000Y-6243000D01*
X19665000Y-7981000D02*
X19705000Y-8021000D01*
X19705000Y-7981000D02*
X19665000Y-8021000D01*
X19665000Y-10533700D02*
X19705000Y-10573700D01*
X19705000Y-10533700D02*
X19665000Y-10573700D01*
X13442500Y-9652000D02*
G75*
G03*
X13353500Y-9652000I-44500J0D01*
G01*
X13353500Y-9652000D02*
G75*
G03*
X13442500Y-9652000I44500J0D01*
G01*
X13442500Y-9906000D02*
G75*
G03*
X13353500Y-9906000I-44500J0D01*
G01*
X13353500Y-9906000D02*
G75*
G03*
X13442500Y-9906000I44500J0D01*
G01*
X18539500Y-9388000D02*
G75*
G03*
X18450500Y-9388000I-44500J0D01*
G01*
X18450500Y-9388000D02*
G75*
G03*
X18539500Y-9388000I44500J0D01*
G01*
X18539500Y-9642000D02*
G75*
G03*
X18450500Y-9642000I-44500J0D01*
G01*
X18450500Y-9642000D02*
G75*
G03*
X18539500Y-9642000I44500J0D01*
G01*
X13100000Y-6256000D02*
X13100000Y-6356000D01*
X13050000Y-6306000D02*
X13150000Y-6306000D01*
X13354000Y-6256000D02*
X13354000Y-6356000D01*
X13304000Y-6306000D02*
X13404000Y-6306000D01*
X13608000Y-6256000D02*
X13608000Y-6356000D01*
X13558000Y-6306000D02*
X13658000Y-6306000D01*
X13862000Y-6256000D02*
X13862000Y-6356000D01*
X13812000Y-6306000D02*
X13912000Y-6306000D01*
X15494000Y-6300000D02*
X15494000Y-6400000D01*
X15444000Y-6350000D02*
X15544000Y-6350000D01*
X15494000Y-7824000D02*
X15494000Y-7924000D01*
X15444000Y-7874000D02*
X15544000Y-7874000D01*
X15748000Y-6300000D02*
X15748000Y-6400000D01*
X15698000Y-6350000D02*
X15798000Y-6350000D01*
X15748000Y-7824000D02*
X15748000Y-7924000D01*
X15698000Y-7874000D02*
X15798000Y-7874000D01*
X16002000Y-6300000D02*
X16002000Y-6400000D01*
X15952000Y-6350000D02*
X16052000Y-6350000D01*
X16002000Y-7824000D02*
X16002000Y-7924000D01*
X15952000Y-7874000D02*
X16052000Y-7874000D01*
X16256000Y-6300000D02*
X16256000Y-6400000D01*
X16206000Y-6350000D02*
X16306000Y-6350000D01*
X16256000Y-7824000D02*
X16256000Y-7924000D01*
X16206000Y-7874000D02*
X16306000Y-7874000D01*
X16510000Y-6300000D02*
X16510000Y-6400000D01*
X16460000Y-6350000D02*
X16560000Y-6350000D01*
X16510000Y-7824000D02*
X16510000Y-7924000D01*
X16460000Y-7874000D02*
X16560000Y-7874000D01*
X16764000Y-6300000D02*
X16764000Y-6400000D01*
X16714000Y-6350000D02*
X16814000Y-6350000D01*
X16764000Y-7824000D02*
X16764000Y-7924000D01*
X16714000Y-7874000D02*
X16814000Y-7874000D01*
X17018000Y-6300000D02*
X17018000Y-6400000D01*
X16968000Y-6350000D02*
X17068000Y-6350000D01*
X17018000Y-7824000D02*
X17018000Y-7924000D01*
X16968000Y-7874000D02*
X17068000Y-7874000D01*
X17272000Y-6300000D02*
X17272000Y-6400000D01*
X17222000Y-6350000D02*
X17322000Y-6350000D01*
X17272000Y-7824000D02*
X17272000Y-7924000D01*
X17222000Y-7874000D02*
X17322000Y-7874000D01*
X17526000Y-6300000D02*
X17526000Y-6400000D01*
X17476000Y-6350000D02*
X17576000Y-6350000D01*
X17526000Y-7824000D02*
X17526000Y-7924000D01*
X17476000Y-7874000D02*
X17576000Y-7874000D01*
X17780000Y-6300000D02*
X17780000Y-6400000D01*
X17730000Y-6350000D02*
X17830000Y-6350000D01*
X17780000Y-7824000D02*
X17780000Y-7924000D01*
X17730000Y-7874000D02*
X17830000Y-7874000D01*
X18034000Y-6300000D02*
X18034000Y-6400000D01*
X17984000Y-6350000D02*
X18084000Y-6350000D01*
X18034000Y-7824000D02*
X18034000Y-7924000D01*
X17984000Y-7874000D02*
X18084000Y-7874000D01*
X18288000Y-6300000D02*
X18288000Y-6400000D01*
X18238000Y-6350000D02*
X18338000Y-6350000D01*
X18288000Y-7824000D02*
X18288000Y-7924000D01*
X18238000Y-7874000D02*
X18338000Y-7874000D01*
X18542000Y-6300000D02*
X18542000Y-6400000D01*
X18492000Y-6350000D02*
X18592000Y-6350000D01*
X18542000Y-7824000D02*
X18542000Y-7924000D01*
X18492000Y-7874000D02*
X18592000Y-7874000D01*
X18796000Y-6300000D02*
X18796000Y-6400000D01*
X18746000Y-6350000D02*
X18846000Y-6350000D01*
X18796000Y-7824000D02*
X18796000Y-7924000D01*
X18746000Y-7874000D02*
X18846000Y-7874000D01*
X19050000Y-6300000D02*
X19050000Y-6400000D01*
X19000000Y-6350000D02*
X19100000Y-6350000D01*
X19050000Y-7824000D02*
X19050000Y-7924000D01*
X19000000Y-7874000D02*
X19100000Y-7874000D01*
D13*
X13937891Y-9944891D02*
X13937891Y-9867109D01*
X13860109Y-9867109D01*
X13860109Y-9944891D01*
X13937891Y-9944891D01*
X13937891Y-10394891D02*
X13937891Y-10317109D01*
X13860109Y-10317109D01*
X13860109Y-10394891D01*
X13937891Y-10394891D01*
X14587891Y-9944891D02*
X14587891Y-9867109D01*
X14510109Y-9867109D01*
X14510109Y-9944891D01*
X14587891Y-9944891D01*
X14587891Y-10394891D02*
X14587891Y-10317109D01*
X14510109Y-10317109D01*
X14510109Y-10394891D01*
X14587891Y-10394891D01*
X17056891Y-8776491D02*
X17056891Y-8698709D01*
X16979109Y-8698709D01*
X16979109Y-8776491D01*
X17056891Y-8776491D01*
X17056891Y-9226491D02*
X17056891Y-9148709D01*
X16979109Y-9148709D01*
X16979109Y-9226491D01*
X17056891Y-9226491D01*
X17366891Y-9948491D02*
X17366891Y-9870709D01*
X17289109Y-9870709D01*
X17289109Y-9948491D01*
X17366891Y-9948491D01*
X17366891Y-10398491D02*
X17366891Y-10320709D01*
X17289109Y-10320709D01*
X17289109Y-10398491D01*
X17366891Y-10398491D01*
X17706891Y-8776491D02*
X17706891Y-8698709D01*
X17629109Y-8698709D01*
X17629109Y-8776491D01*
X17706891Y-8776491D01*
X17706891Y-9226491D02*
X17706891Y-9148709D01*
X17629109Y-9148709D01*
X17629109Y-9226491D01*
X17706891Y-9226491D01*
X18016891Y-9948491D02*
X18016891Y-9870709D01*
X17939109Y-9870709D01*
X17939109Y-9948491D01*
X18016891Y-9948491D01*
X18016891Y-10398491D02*
X18016891Y-10320709D01*
X17939109Y-10320709D01*
X17939109Y-10398491D01*
X18016891Y-10398491D01*
D14*
X12890000Y-9244500D02*
X12990500Y-9144000D01*
X12890000Y-9043500D01*
X12789500Y-9144000D01*
X12890000Y-9244500D01*
X12890000Y-10260500D02*
X12990500Y-10160000D01*
X12890000Y-10059500D01*
X12789500Y-10160000D01*
X12890000Y-10260500D01*
X19003000Y-9234500D02*
X19103500Y-9134000D01*
X19003000Y-9033500D01*
X18902500Y-9134000D01*
X19003000Y-9234500D01*
X19003000Y-10250500D02*
X19103500Y-10150000D01*
X19003000Y-10049500D01*
X18902500Y-10150000D01*
X19003000Y-10250500D01*
D11*
X12323277Y-10981984D02*
X12323277Y-10781984D01*
X12323277Y-10781984D02*
X12370896Y-10781984D01*
X12370896Y-10781984D02*
X12399467Y-10791508D01*
X12399467Y-10791508D02*
X12418515Y-10810555D01*
X12418515Y-10810555D02*
X12428039Y-10829603D01*
X12428039Y-10829603D02*
X12437562Y-10867698D01*
X12437562Y-10867698D02*
X12437562Y-10896270D01*
X12437562Y-10896270D02*
X12428039Y-10934365D01*
X12428039Y-10934365D02*
X12418515Y-10953412D01*
X12418515Y-10953412D02*
X12399467Y-10972460D01*
X12399467Y-10972460D02*
X12370896Y-10981984D01*
X12370896Y-10981984D02*
X12323277Y-10981984D01*
X12523277Y-10981984D02*
X12523277Y-10848650D01*
X12523277Y-10886746D02*
X12532801Y-10867698D01*
X12532801Y-10867698D02*
X12542324Y-10858174D01*
X12542324Y-10858174D02*
X12561372Y-10848650D01*
X12561372Y-10848650D02*
X12580420Y-10848650D01*
X12647086Y-10981984D02*
X12647086Y-10848650D01*
X12647086Y-10781984D02*
X12637562Y-10791508D01*
X12637562Y-10791508D02*
X12647086Y-10801031D01*
X12647086Y-10801031D02*
X12656610Y-10791508D01*
X12656610Y-10791508D02*
X12647086Y-10781984D01*
X12647086Y-10781984D02*
X12647086Y-10801031D01*
X12770896Y-10981984D02*
X12751848Y-10972460D01*
X12751848Y-10972460D02*
X12742324Y-10953412D01*
X12742324Y-10953412D02*
X12742324Y-10781984D01*
X12875658Y-10981984D02*
X12856610Y-10972460D01*
X12856610Y-10972460D02*
X12847086Y-10953412D01*
X12847086Y-10953412D02*
X12847086Y-10781984D01*
X13104229Y-10981984D02*
X13104229Y-10781984D01*
X13104229Y-10781984D02*
X13170896Y-10924841D01*
X13170896Y-10924841D02*
X13237562Y-10781984D01*
X13237562Y-10781984D02*
X13237562Y-10981984D01*
X13418515Y-10981984D02*
X13418515Y-10877222D01*
X13418515Y-10877222D02*
X13408991Y-10858174D01*
X13408991Y-10858174D02*
X13389943Y-10848650D01*
X13389943Y-10848650D02*
X13351848Y-10848650D01*
X13351848Y-10848650D02*
X13332801Y-10858174D01*
X13418515Y-10972460D02*
X13399467Y-10981984D01*
X13399467Y-10981984D02*
X13351848Y-10981984D01*
X13351848Y-10981984D02*
X13332801Y-10972460D01*
X13332801Y-10972460D02*
X13323277Y-10953412D01*
X13323277Y-10953412D02*
X13323277Y-10934365D01*
X13323277Y-10934365D02*
X13332801Y-10915317D01*
X13332801Y-10915317D02*
X13351848Y-10905793D01*
X13351848Y-10905793D02*
X13399467Y-10905793D01*
X13399467Y-10905793D02*
X13418515Y-10896270D01*
X13513753Y-10848650D02*
X13513753Y-11048650D01*
X13513753Y-10858174D02*
X13532801Y-10848650D01*
X13532801Y-10848650D02*
X13570896Y-10848650D01*
X13570896Y-10848650D02*
X13589943Y-10858174D01*
X13589943Y-10858174D02*
X13599467Y-10867698D01*
X13599467Y-10867698D02*
X13608991Y-10886746D01*
X13608991Y-10886746D02*
X13608991Y-10943889D01*
X13608991Y-10943889D02*
X13599467Y-10962936D01*
X13599467Y-10962936D02*
X13589943Y-10972460D01*
X13589943Y-10972460D02*
X13570896Y-10981984D01*
X13570896Y-10981984D02*
X13532801Y-10981984D01*
X13532801Y-10981984D02*
X13513753Y-10972460D01*
X13694705Y-10962936D02*
X13704229Y-10972460D01*
X13704229Y-10972460D02*
X13694705Y-10981984D01*
X13694705Y-10981984D02*
X13685182Y-10972460D01*
X13685182Y-10972460D02*
X13694705Y-10962936D01*
X13694705Y-10962936D02*
X13694705Y-10981984D01*
X13694705Y-10858174D02*
X13704229Y-10867698D01*
X13704229Y-10867698D02*
X13694705Y-10877222D01*
X13694705Y-10877222D02*
X13685182Y-10867698D01*
X13685182Y-10867698D02*
X13694705Y-10858174D01*
X13694705Y-10858174D02*
X13694705Y-10877222D01*
D12*
X12022500Y-11290500D02*
X12062500Y-11330500D01*
X12062500Y-11290500D02*
X12022500Y-11330500D01*
D11*
X12361372Y-11201984D02*
X12380420Y-11201984D01*
X12380420Y-11201984D02*
X12399467Y-11211508D01*
X12399467Y-11211508D02*
X12408991Y-11221031D01*
X12408991Y-11221031D02*
X12418515Y-11240079D01*
X12418515Y-11240079D02*
X12428039Y-11278174D01*
X12428039Y-11278174D02*
X12428039Y-11325793D01*
X12428039Y-11325793D02*
X12418515Y-11363888D01*
X12418515Y-11363888D02*
X12408991Y-11382936D01*
X12408991Y-11382936D02*
X12399467Y-11392460D01*
X12399467Y-11392460D02*
X12380420Y-11401984D01*
X12380420Y-11401984D02*
X12361372Y-11401984D01*
X12361372Y-11401984D02*
X12342324Y-11392460D01*
X12342324Y-11392460D02*
X12332801Y-11382936D01*
X12332801Y-11382936D02*
X12323277Y-11363888D01*
X12323277Y-11363888D02*
X12313753Y-11325793D01*
X12313753Y-11325793D02*
X12313753Y-11278174D01*
X12313753Y-11278174D02*
X12323277Y-11240079D01*
X12323277Y-11240079D02*
X12332801Y-11221031D01*
X12332801Y-11221031D02*
X12342324Y-11211508D01*
X12342324Y-11211508D02*
X12361372Y-11201984D01*
X12513753Y-11382936D02*
X12523277Y-11392460D01*
X12523277Y-11392460D02*
X12513753Y-11401984D01*
X12513753Y-11401984D02*
X12504229Y-11392460D01*
X12504229Y-11392460D02*
X12513753Y-11382936D01*
X12513753Y-11382936D02*
X12513753Y-11401984D01*
X12694705Y-11268650D02*
X12694705Y-11401984D01*
X12647086Y-11192460D02*
X12599467Y-11335317D01*
X12599467Y-11335317D02*
X12723277Y-11335317D01*
X12837562Y-11201984D02*
X12856610Y-11201984D01*
X12856610Y-11201984D02*
X12875658Y-11211508D01*
X12875658Y-11211508D02*
X12885182Y-11221031D01*
X12885182Y-11221031D02*
X12894705Y-11240079D01*
X12894705Y-11240079D02*
X12904229Y-11278174D01*
X12904229Y-11278174D02*
X12904229Y-11325793D01*
X12904229Y-11325793D02*
X12894705Y-11363888D01*
X12894705Y-11363888D02*
X12885182Y-11382936D01*
X12885182Y-11382936D02*
X12875658Y-11392460D01*
X12875658Y-11392460D02*
X12856610Y-11401984D01*
X12856610Y-11401984D02*
X12837562Y-11401984D01*
X12837562Y-11401984D02*
X12818515Y-11392460D01*
X12818515Y-11392460D02*
X12808991Y-11382936D01*
X12808991Y-11382936D02*
X12799467Y-11363888D01*
X12799467Y-11363888D02*
X12789943Y-11325793D01*
X12789943Y-11325793D02*
X12789943Y-11278174D01*
X12789943Y-11278174D02*
X12799467Y-11240079D01*
X12799467Y-11240079D02*
X12808991Y-11221031D01*
X12808991Y-11221031D02*
X12818515Y-11211508D01*
X12818515Y-11211508D02*
X12837562Y-11201984D01*
X13028039Y-11201984D02*
X13047086Y-11201984D01*
X13047086Y-11201984D02*
X13066134Y-11211508D01*
X13066134Y-11211508D02*
X13075658Y-11221031D01*
X13075658Y-11221031D02*
X13085182Y-11240079D01*
X13085182Y-11240079D02*
X13094705Y-11278174D01*
X13094705Y-11278174D02*
X13094705Y-11325793D01*
X13094705Y-11325793D02*
X13085182Y-11363888D01*
X13085182Y-11363888D02*
X13075658Y-11382936D01*
X13075658Y-11382936D02*
X13066134Y-11392460D01*
X13066134Y-11392460D02*
X13047086Y-11401984D01*
X13047086Y-11401984D02*
X13028039Y-11401984D01*
X13028039Y-11401984D02*
X13008991Y-11392460D01*
X13008991Y-11392460D02*
X12999467Y-11382936D01*
X12999467Y-11382936D02*
X12989943Y-11363888D01*
X12989943Y-11363888D02*
X12980420Y-11325793D01*
X12980420Y-11325793D02*
X12980420Y-11278174D01*
X12980420Y-11278174D02*
X12989943Y-11240079D01*
X12989943Y-11240079D02*
X12999467Y-11221031D01*
X12999467Y-11221031D02*
X13008991Y-11211508D01*
X13008991Y-11211508D02*
X13028039Y-11201984D01*
X13180420Y-11401984D02*
X13180420Y-11268650D01*
X13180420Y-11287698D02*
X13189943Y-11278174D01*
X13189943Y-11278174D02*
X13208991Y-11268650D01*
X13208991Y-11268650D02*
X13237563Y-11268650D01*
X13237563Y-11268650D02*
X13256610Y-11278174D01*
X13256610Y-11278174D02*
X13266134Y-11297222D01*
X13266134Y-11297222D02*
X13266134Y-11401984D01*
X13266134Y-11297222D02*
X13275658Y-11278174D01*
X13275658Y-11278174D02*
X13294705Y-11268650D01*
X13294705Y-11268650D02*
X13323277Y-11268650D01*
X13323277Y-11268650D02*
X13342324Y-11278174D01*
X13342324Y-11278174D02*
X13351848Y-11297222D01*
X13351848Y-11297222D02*
X13351848Y-11401984D01*
X13447086Y-11401984D02*
X13447086Y-11268650D01*
X13447086Y-11287698D02*
X13456610Y-11278174D01*
X13456610Y-11278174D02*
X13475658Y-11268650D01*
X13475658Y-11268650D02*
X13504229Y-11268650D01*
X13504229Y-11268650D02*
X13523277Y-11278174D01*
X13523277Y-11278174D02*
X13532801Y-11297222D01*
X13532801Y-11297222D02*
X13532801Y-11401984D01*
X13532801Y-11297222D02*
X13542324Y-11278174D01*
X13542324Y-11278174D02*
X13561372Y-11268650D01*
X13561372Y-11268650D02*
X13589943Y-11268650D01*
X13589943Y-11268650D02*
X13608991Y-11278174D01*
X13608991Y-11278174D02*
X13618515Y-11297222D01*
X13618515Y-11297222D02*
X13618515Y-11401984D01*
X14008991Y-11192460D02*
X13837563Y-11449603D01*
X14266134Y-11201984D02*
X14285182Y-11201984D01*
X14285182Y-11201984D02*
X14304229Y-11211508D01*
X14304229Y-11211508D02*
X14313753Y-11221031D01*
X14313753Y-11221031D02*
X14323277Y-11240079D01*
X14323277Y-11240079D02*
X14332801Y-11278174D01*
X14332801Y-11278174D02*
X14332801Y-11325793D01*
X14332801Y-11325793D02*
X14323277Y-11363888D01*
X14323277Y-11363888D02*
X14313753Y-11382936D01*
X14313753Y-11382936D02*
X14304229Y-11392460D01*
X14304229Y-11392460D02*
X14285182Y-11401984D01*
X14285182Y-11401984D02*
X14266134Y-11401984D01*
X14266134Y-11401984D02*
X14247086Y-11392460D01*
X14247086Y-11392460D02*
X14237563Y-11382936D01*
X14237563Y-11382936D02*
X14228039Y-11363888D01*
X14228039Y-11363888D02*
X14218515Y-11325793D01*
X14218515Y-11325793D02*
X14218515Y-11278174D01*
X14218515Y-11278174D02*
X14228039Y-11240079D01*
X14228039Y-11240079D02*
X14237563Y-11221031D01*
X14237563Y-11221031D02*
X14247086Y-11211508D01*
X14247086Y-11211508D02*
X14266134Y-11201984D01*
X14418515Y-11382936D02*
X14428039Y-11392460D01*
X14428039Y-11392460D02*
X14418515Y-11401984D01*
X14418515Y-11401984D02*
X14408991Y-11392460D01*
X14408991Y-11392460D02*
X14418515Y-11382936D01*
X14418515Y-11382936D02*
X14418515Y-11401984D01*
X14551848Y-11201984D02*
X14570896Y-11201984D01*
X14570896Y-11201984D02*
X14589944Y-11211508D01*
X14589944Y-11211508D02*
X14599467Y-11221031D01*
X14599467Y-11221031D02*
X14608991Y-11240079D01*
X14608991Y-11240079D02*
X14618515Y-11278174D01*
X14618515Y-11278174D02*
X14618515Y-11325793D01*
X14618515Y-11325793D02*
X14608991Y-11363888D01*
X14608991Y-11363888D02*
X14599467Y-11382936D01*
X14599467Y-11382936D02*
X14589944Y-11392460D01*
X14589944Y-11392460D02*
X14570896Y-11401984D01*
X14570896Y-11401984D02*
X14551848Y-11401984D01*
X14551848Y-11401984D02*
X14532801Y-11392460D01*
X14532801Y-11392460D02*
X14523277Y-11382936D01*
X14523277Y-11382936D02*
X14513753Y-11363888D01*
X14513753Y-11363888D02*
X14504229Y-11325793D01*
X14504229Y-11325793D02*
X14504229Y-11278174D01*
X14504229Y-11278174D02*
X14513753Y-11240079D01*
X14513753Y-11240079D02*
X14523277Y-11221031D01*
X14523277Y-11221031D02*
X14532801Y-11211508D01*
X14532801Y-11211508D02*
X14551848Y-11201984D01*
X14808991Y-11401984D02*
X14694706Y-11401984D01*
X14751848Y-11401984D02*
X14751848Y-11201984D01*
X14751848Y-11201984D02*
X14732801Y-11230555D01*
X14732801Y-11230555D02*
X14713753Y-11249603D01*
X14713753Y-11249603D02*
X14694706Y-11259127D01*
X14989944Y-11201984D02*
X14894706Y-11201984D01*
X14894706Y-11201984D02*
X14885182Y-11297222D01*
X14885182Y-11297222D02*
X14894706Y-11287698D01*
X14894706Y-11287698D02*
X14913753Y-11278174D01*
X14913753Y-11278174D02*
X14961372Y-11278174D01*
X14961372Y-11278174D02*
X14980420Y-11287698D01*
X14980420Y-11287698D02*
X14989944Y-11297222D01*
X14989944Y-11297222D02*
X14999467Y-11316269D01*
X14999467Y-11316269D02*
X14999467Y-11363888D01*
X14999467Y-11363888D02*
X14989944Y-11382936D01*
X14989944Y-11382936D02*
X14980420Y-11392460D01*
X14980420Y-11392460D02*
X14961372Y-11401984D01*
X14961372Y-11401984D02*
X14913753Y-11401984D01*
X14913753Y-11401984D02*
X14894706Y-11392460D01*
X14894706Y-11392460D02*
X14885182Y-11382936D01*
X15066134Y-11201984D02*
X15199467Y-11201984D01*
X15199467Y-11201984D02*
X15113753Y-11401984D01*
X15266134Y-11201984D02*
X15266134Y-11240079D01*
X15342325Y-11201984D02*
X15342325Y-11240079D01*
X15637563Y-11478174D02*
X15628039Y-11468650D01*
X15628039Y-11468650D02*
X15608991Y-11440079D01*
X15608991Y-11440079D02*
X15599468Y-11421031D01*
X15599468Y-11421031D02*
X15589944Y-11392460D01*
X15589944Y-11392460D02*
X15580420Y-11344841D01*
X15580420Y-11344841D02*
X15580420Y-11306746D01*
X15580420Y-11306746D02*
X15589944Y-11259127D01*
X15589944Y-11259127D02*
X15599468Y-11230555D01*
X15599468Y-11230555D02*
X15608991Y-11211508D01*
X15608991Y-11211508D02*
X15628039Y-11182936D01*
X15628039Y-11182936D02*
X15637563Y-11173412D01*
X15818515Y-11401984D02*
X15704229Y-11401984D01*
X15761372Y-11401984D02*
X15761372Y-11201984D01*
X15761372Y-11201984D02*
X15742325Y-11230555D01*
X15742325Y-11230555D02*
X15723277Y-11249603D01*
X15723277Y-11249603D02*
X15704229Y-11259127D01*
X15913753Y-11401984D02*
X15951848Y-11401984D01*
X15951848Y-11401984D02*
X15970896Y-11392460D01*
X15970896Y-11392460D02*
X15980420Y-11382936D01*
X15980420Y-11382936D02*
X15999468Y-11354365D01*
X15999468Y-11354365D02*
X16008991Y-11316269D01*
X16008991Y-11316269D02*
X16008991Y-11240079D01*
X16008991Y-11240079D02*
X15999468Y-11221031D01*
X15999468Y-11221031D02*
X15989944Y-11211508D01*
X15989944Y-11211508D02*
X15970896Y-11201984D01*
X15970896Y-11201984D02*
X15932801Y-11201984D01*
X15932801Y-11201984D02*
X15913753Y-11211508D01*
X15913753Y-11211508D02*
X15904229Y-11221031D01*
X15904229Y-11221031D02*
X15894706Y-11240079D01*
X15894706Y-11240079D02*
X15894706Y-11287698D01*
X15894706Y-11287698D02*
X15904229Y-11306746D01*
X15904229Y-11306746D02*
X15913753Y-11316269D01*
X15913753Y-11316269D02*
X15932801Y-11325793D01*
X15932801Y-11325793D02*
X15970896Y-11325793D01*
X15970896Y-11325793D02*
X15989944Y-11316269D01*
X15989944Y-11316269D02*
X15999468Y-11306746D01*
X15999468Y-11306746D02*
X16008991Y-11287698D01*
X16247087Y-11401984D02*
X16247087Y-11201984D01*
X16332801Y-11401984D02*
X16332801Y-11297222D01*
X16332801Y-11297222D02*
X16323277Y-11278174D01*
X16323277Y-11278174D02*
X16304230Y-11268650D01*
X16304230Y-11268650D02*
X16275658Y-11268650D01*
X16275658Y-11268650D02*
X16256610Y-11278174D01*
X16256610Y-11278174D02*
X16247087Y-11287698D01*
X16456610Y-11401984D02*
X16437563Y-11392460D01*
X16437563Y-11392460D02*
X16428039Y-11382936D01*
X16428039Y-11382936D02*
X16418515Y-11363888D01*
X16418515Y-11363888D02*
X16418515Y-11306746D01*
X16418515Y-11306746D02*
X16428039Y-11287698D01*
X16428039Y-11287698D02*
X16437563Y-11278174D01*
X16437563Y-11278174D02*
X16456610Y-11268650D01*
X16456610Y-11268650D02*
X16485182Y-11268650D01*
X16485182Y-11268650D02*
X16504230Y-11278174D01*
X16504230Y-11278174D02*
X16513753Y-11287698D01*
X16513753Y-11287698D02*
X16523277Y-11306746D01*
X16523277Y-11306746D02*
X16523277Y-11363888D01*
X16523277Y-11363888D02*
X16513753Y-11382936D01*
X16513753Y-11382936D02*
X16504230Y-11392460D01*
X16504230Y-11392460D02*
X16485182Y-11401984D01*
X16485182Y-11401984D02*
X16456610Y-11401984D01*
X16637563Y-11401984D02*
X16618515Y-11392460D01*
X16618515Y-11392460D02*
X16608991Y-11373412D01*
X16608991Y-11373412D02*
X16608991Y-11201984D01*
X16789944Y-11392460D02*
X16770896Y-11401984D01*
X16770896Y-11401984D02*
X16732801Y-11401984D01*
X16732801Y-11401984D02*
X16713753Y-11392460D01*
X16713753Y-11392460D02*
X16704230Y-11373412D01*
X16704230Y-11373412D02*
X16704230Y-11297222D01*
X16704230Y-11297222D02*
X16713753Y-11278174D01*
X16713753Y-11278174D02*
X16732801Y-11268650D01*
X16732801Y-11268650D02*
X16770896Y-11268650D01*
X16770896Y-11268650D02*
X16789944Y-11278174D01*
X16789944Y-11278174D02*
X16799468Y-11297222D01*
X16799468Y-11297222D02*
X16799468Y-11316269D01*
X16799468Y-11316269D02*
X16704230Y-11335317D01*
X16875658Y-11392460D02*
X16894706Y-11401984D01*
X16894706Y-11401984D02*
X16932801Y-11401984D01*
X16932801Y-11401984D02*
X16951849Y-11392460D01*
X16951849Y-11392460D02*
X16961373Y-11373412D01*
X16961373Y-11373412D02*
X16961373Y-11363888D01*
X16961373Y-11363888D02*
X16951849Y-11344841D01*
X16951849Y-11344841D02*
X16932801Y-11335317D01*
X16932801Y-11335317D02*
X16904230Y-11335317D01*
X16904230Y-11335317D02*
X16885182Y-11325793D01*
X16885182Y-11325793D02*
X16875658Y-11306746D01*
X16875658Y-11306746D02*
X16875658Y-11297222D01*
X16875658Y-11297222D02*
X16885182Y-11278174D01*
X16885182Y-11278174D02*
X16904230Y-11268650D01*
X16904230Y-11268650D02*
X16932801Y-11268650D01*
X16932801Y-11268650D02*
X16951849Y-11278174D01*
X17028039Y-11478174D02*
X17037563Y-11468650D01*
X17037563Y-11468650D02*
X17056611Y-11440079D01*
X17056611Y-11440079D02*
X17066134Y-11421031D01*
X17066134Y-11421031D02*
X17075658Y-11392460D01*
X17075658Y-11392460D02*
X17085182Y-11344841D01*
X17085182Y-11344841D02*
X17085182Y-11306746D01*
X17085182Y-11306746D02*
X17075658Y-11259127D01*
X17075658Y-11259127D02*
X17066134Y-11230555D01*
X17066134Y-11230555D02*
X17056611Y-11211508D01*
X17056611Y-11211508D02*
X17037563Y-11182936D01*
X17037563Y-11182936D02*
X17028039Y-11173412D01*
D12*
X12062500Y-11574500D02*
G75*
G03*
X11973500Y-11574500I-44500J0D01*
G01*
X11973500Y-11574500D02*
G75*
G03*
X12062500Y-11574500I44500J0D01*
G01*
D11*
X12361372Y-11465984D02*
X12380420Y-11465984D01*
X12380420Y-11465984D02*
X12399467Y-11475508D01*
X12399467Y-11475508D02*
X12408991Y-11485031D01*
X12408991Y-11485031D02*
X12418515Y-11504079D01*
X12418515Y-11504079D02*
X12428039Y-11542174D01*
X12428039Y-11542174D02*
X12428039Y-11589793D01*
X12428039Y-11589793D02*
X12418515Y-11627888D01*
X12418515Y-11627888D02*
X12408991Y-11646936D01*
X12408991Y-11646936D02*
X12399467Y-11656460D01*
X12399467Y-11656460D02*
X12380420Y-11665984D01*
X12380420Y-11665984D02*
X12361372Y-11665984D01*
X12361372Y-11665984D02*
X12342324Y-11656460D01*
X12342324Y-11656460D02*
X12332801Y-11646936D01*
X12332801Y-11646936D02*
X12323277Y-11627888D01*
X12323277Y-11627888D02*
X12313753Y-11589793D01*
X12313753Y-11589793D02*
X12313753Y-11542174D01*
X12313753Y-11542174D02*
X12323277Y-11504079D01*
X12323277Y-11504079D02*
X12332801Y-11485031D01*
X12332801Y-11485031D02*
X12342324Y-11475508D01*
X12342324Y-11475508D02*
X12361372Y-11465984D01*
X12513753Y-11646936D02*
X12523277Y-11656460D01*
X12523277Y-11656460D02*
X12513753Y-11665984D01*
X12513753Y-11665984D02*
X12504229Y-11656460D01*
X12504229Y-11656460D02*
X12513753Y-11646936D01*
X12513753Y-11646936D02*
X12513753Y-11665984D01*
X12637562Y-11551698D02*
X12618515Y-11542174D01*
X12618515Y-11542174D02*
X12608991Y-11532650D01*
X12608991Y-11532650D02*
X12599467Y-11513603D01*
X12599467Y-11513603D02*
X12599467Y-11504079D01*
X12599467Y-11504079D02*
X12608991Y-11485031D01*
X12608991Y-11485031D02*
X12618515Y-11475508D01*
X12618515Y-11475508D02*
X12637562Y-11465984D01*
X12637562Y-11465984D02*
X12675658Y-11465984D01*
X12675658Y-11465984D02*
X12694705Y-11475508D01*
X12694705Y-11475508D02*
X12704229Y-11485031D01*
X12704229Y-11485031D02*
X12713753Y-11504079D01*
X12713753Y-11504079D02*
X12713753Y-11513603D01*
X12713753Y-11513603D02*
X12704229Y-11532650D01*
X12704229Y-11532650D02*
X12694705Y-11542174D01*
X12694705Y-11542174D02*
X12675658Y-11551698D01*
X12675658Y-11551698D02*
X12637562Y-11551698D01*
X12637562Y-11551698D02*
X12618515Y-11561222D01*
X12618515Y-11561222D02*
X12608991Y-11570746D01*
X12608991Y-11570746D02*
X12599467Y-11589793D01*
X12599467Y-11589793D02*
X12599467Y-11627888D01*
X12599467Y-11627888D02*
X12608991Y-11646936D01*
X12608991Y-11646936D02*
X12618515Y-11656460D01*
X12618515Y-11656460D02*
X12637562Y-11665984D01*
X12637562Y-11665984D02*
X12675658Y-11665984D01*
X12675658Y-11665984D02*
X12694705Y-11656460D01*
X12694705Y-11656460D02*
X12704229Y-11646936D01*
X12704229Y-11646936D02*
X12713753Y-11627888D01*
X12713753Y-11627888D02*
X12713753Y-11589793D01*
X12713753Y-11589793D02*
X12704229Y-11570746D01*
X12704229Y-11570746D02*
X12694705Y-11561222D01*
X12694705Y-11561222D02*
X12675658Y-11551698D01*
X12808991Y-11665984D02*
X12847086Y-11665984D01*
X12847086Y-11665984D02*
X12866134Y-11656460D01*
X12866134Y-11656460D02*
X12875658Y-11646936D01*
X12875658Y-11646936D02*
X12894705Y-11618365D01*
X12894705Y-11618365D02*
X12904229Y-11580269D01*
X12904229Y-11580269D02*
X12904229Y-11504079D01*
X12904229Y-11504079D02*
X12894705Y-11485031D01*
X12894705Y-11485031D02*
X12885182Y-11475508D01*
X12885182Y-11475508D02*
X12866134Y-11465984D01*
X12866134Y-11465984D02*
X12828039Y-11465984D01*
X12828039Y-11465984D02*
X12808991Y-11475508D01*
X12808991Y-11475508D02*
X12799467Y-11485031D01*
X12799467Y-11485031D02*
X12789943Y-11504079D01*
X12789943Y-11504079D02*
X12789943Y-11551698D01*
X12789943Y-11551698D02*
X12799467Y-11570746D01*
X12799467Y-11570746D02*
X12808991Y-11580269D01*
X12808991Y-11580269D02*
X12828039Y-11589793D01*
X12828039Y-11589793D02*
X12866134Y-11589793D01*
X12866134Y-11589793D02*
X12885182Y-11580269D01*
X12885182Y-11580269D02*
X12894705Y-11570746D01*
X12894705Y-11570746D02*
X12904229Y-11551698D01*
X13028039Y-11465984D02*
X13047086Y-11465984D01*
X13047086Y-11465984D02*
X13066134Y-11475508D01*
X13066134Y-11475508D02*
X13075658Y-11485031D01*
X13075658Y-11485031D02*
X13085182Y-11504079D01*
X13085182Y-11504079D02*
X13094705Y-11542174D01*
X13094705Y-11542174D02*
X13094705Y-11589793D01*
X13094705Y-11589793D02*
X13085182Y-11627888D01*
X13085182Y-11627888D02*
X13075658Y-11646936D01*
X13075658Y-11646936D02*
X13066134Y-11656460D01*
X13066134Y-11656460D02*
X13047086Y-11665984D01*
X13047086Y-11665984D02*
X13028039Y-11665984D01*
X13028039Y-11665984D02*
X13008991Y-11656460D01*
X13008991Y-11656460D02*
X12999467Y-11646936D01*
X12999467Y-11646936D02*
X12989943Y-11627888D01*
X12989943Y-11627888D02*
X12980420Y-11589793D01*
X12980420Y-11589793D02*
X12980420Y-11542174D01*
X12980420Y-11542174D02*
X12989943Y-11504079D01*
X12989943Y-11504079D02*
X12999467Y-11485031D01*
X12999467Y-11485031D02*
X13008991Y-11475508D01*
X13008991Y-11475508D02*
X13028039Y-11465984D01*
X13180420Y-11665984D02*
X13180420Y-11532650D01*
X13180420Y-11551698D02*
X13189943Y-11542174D01*
X13189943Y-11542174D02*
X13208991Y-11532650D01*
X13208991Y-11532650D02*
X13237563Y-11532650D01*
X13237563Y-11532650D02*
X13256610Y-11542174D01*
X13256610Y-11542174D02*
X13266134Y-11561222D01*
X13266134Y-11561222D02*
X13266134Y-11665984D01*
X13266134Y-11561222D02*
X13275658Y-11542174D01*
X13275658Y-11542174D02*
X13294705Y-11532650D01*
X13294705Y-11532650D02*
X13323277Y-11532650D01*
X13323277Y-11532650D02*
X13342324Y-11542174D01*
X13342324Y-11542174D02*
X13351848Y-11561222D01*
X13351848Y-11561222D02*
X13351848Y-11665984D01*
X13447086Y-11665984D02*
X13447086Y-11532650D01*
X13447086Y-11551698D02*
X13456610Y-11542174D01*
X13456610Y-11542174D02*
X13475658Y-11532650D01*
X13475658Y-11532650D02*
X13504229Y-11532650D01*
X13504229Y-11532650D02*
X13523277Y-11542174D01*
X13523277Y-11542174D02*
X13532801Y-11561222D01*
X13532801Y-11561222D02*
X13532801Y-11665984D01*
X13532801Y-11561222D02*
X13542324Y-11542174D01*
X13542324Y-11542174D02*
X13561372Y-11532650D01*
X13561372Y-11532650D02*
X13589943Y-11532650D01*
X13589943Y-11532650D02*
X13608991Y-11542174D01*
X13608991Y-11542174D02*
X13618515Y-11561222D01*
X13618515Y-11561222D02*
X13618515Y-11665984D01*
X14008991Y-11456460D02*
X13837563Y-11713603D01*
X14266134Y-11465984D02*
X14285182Y-11465984D01*
X14285182Y-11465984D02*
X14304229Y-11475508D01*
X14304229Y-11475508D02*
X14313753Y-11485031D01*
X14313753Y-11485031D02*
X14323277Y-11504079D01*
X14323277Y-11504079D02*
X14332801Y-11542174D01*
X14332801Y-11542174D02*
X14332801Y-11589793D01*
X14332801Y-11589793D02*
X14323277Y-11627888D01*
X14323277Y-11627888D02*
X14313753Y-11646936D01*
X14313753Y-11646936D02*
X14304229Y-11656460D01*
X14304229Y-11656460D02*
X14285182Y-11665984D01*
X14285182Y-11665984D02*
X14266134Y-11665984D01*
X14266134Y-11665984D02*
X14247086Y-11656460D01*
X14247086Y-11656460D02*
X14237563Y-11646936D01*
X14237563Y-11646936D02*
X14228039Y-11627888D01*
X14228039Y-11627888D02*
X14218515Y-11589793D01*
X14218515Y-11589793D02*
X14218515Y-11542174D01*
X14218515Y-11542174D02*
X14228039Y-11504079D01*
X14228039Y-11504079D02*
X14237563Y-11485031D01*
X14237563Y-11485031D02*
X14247086Y-11475508D01*
X14247086Y-11475508D02*
X14266134Y-11465984D01*
X14418515Y-11646936D02*
X14428039Y-11656460D01*
X14428039Y-11656460D02*
X14418515Y-11665984D01*
X14418515Y-11665984D02*
X14408991Y-11656460D01*
X14408991Y-11656460D02*
X14418515Y-11646936D01*
X14418515Y-11646936D02*
X14418515Y-11665984D01*
X14551848Y-11465984D02*
X14570896Y-11465984D01*
X14570896Y-11465984D02*
X14589944Y-11475508D01*
X14589944Y-11475508D02*
X14599467Y-11485031D01*
X14599467Y-11485031D02*
X14608991Y-11504079D01*
X14608991Y-11504079D02*
X14618515Y-11542174D01*
X14618515Y-11542174D02*
X14618515Y-11589793D01*
X14618515Y-11589793D02*
X14608991Y-11627888D01*
X14608991Y-11627888D02*
X14599467Y-11646936D01*
X14599467Y-11646936D02*
X14589944Y-11656460D01*
X14589944Y-11656460D02*
X14570896Y-11665984D01*
X14570896Y-11665984D02*
X14551848Y-11665984D01*
X14551848Y-11665984D02*
X14532801Y-11656460D01*
X14532801Y-11656460D02*
X14523277Y-11646936D01*
X14523277Y-11646936D02*
X14513753Y-11627888D01*
X14513753Y-11627888D02*
X14504229Y-11589793D01*
X14504229Y-11589793D02*
X14504229Y-11542174D01*
X14504229Y-11542174D02*
X14513753Y-11504079D01*
X14513753Y-11504079D02*
X14523277Y-11485031D01*
X14523277Y-11485031D02*
X14532801Y-11475508D01*
X14532801Y-11475508D02*
X14551848Y-11465984D01*
X14685182Y-11465984D02*
X14808991Y-11465984D01*
X14808991Y-11465984D02*
X14742325Y-11542174D01*
X14742325Y-11542174D02*
X14770896Y-11542174D01*
X14770896Y-11542174D02*
X14789944Y-11551698D01*
X14789944Y-11551698D02*
X14799467Y-11561222D01*
X14799467Y-11561222D02*
X14808991Y-11580269D01*
X14808991Y-11580269D02*
X14808991Y-11627888D01*
X14808991Y-11627888D02*
X14799467Y-11646936D01*
X14799467Y-11646936D02*
X14789944Y-11656460D01*
X14789944Y-11656460D02*
X14770896Y-11665984D01*
X14770896Y-11665984D02*
X14713753Y-11665984D01*
X14713753Y-11665984D02*
X14694706Y-11656460D01*
X14694706Y-11656460D02*
X14685182Y-11646936D01*
X14989944Y-11465984D02*
X14894706Y-11465984D01*
X14894706Y-11465984D02*
X14885182Y-11561222D01*
X14885182Y-11561222D02*
X14894706Y-11551698D01*
X14894706Y-11551698D02*
X14913753Y-11542174D01*
X14913753Y-11542174D02*
X14961372Y-11542174D01*
X14961372Y-11542174D02*
X14980420Y-11551698D01*
X14980420Y-11551698D02*
X14989944Y-11561222D01*
X14989944Y-11561222D02*
X14999467Y-11580269D01*
X14999467Y-11580269D02*
X14999467Y-11627888D01*
X14999467Y-11627888D02*
X14989944Y-11646936D01*
X14989944Y-11646936D02*
X14980420Y-11656460D01*
X14980420Y-11656460D02*
X14961372Y-11665984D01*
X14961372Y-11665984D02*
X14913753Y-11665984D01*
X14913753Y-11665984D02*
X14894706Y-11656460D01*
X14894706Y-11656460D02*
X14885182Y-11646936D01*
X15123277Y-11465984D02*
X15142325Y-11465984D01*
X15142325Y-11465984D02*
X15161372Y-11475508D01*
X15161372Y-11475508D02*
X15170896Y-11485031D01*
X15170896Y-11485031D02*
X15180420Y-11504079D01*
X15180420Y-11504079D02*
X15189944Y-11542174D01*
X15189944Y-11542174D02*
X15189944Y-11589793D01*
X15189944Y-11589793D02*
X15180420Y-11627888D01*
X15180420Y-11627888D02*
X15170896Y-11646936D01*
X15170896Y-11646936D02*
X15161372Y-11656460D01*
X15161372Y-11656460D02*
X15142325Y-11665984D01*
X15142325Y-11665984D02*
X15123277Y-11665984D01*
X15123277Y-11665984D02*
X15104229Y-11656460D01*
X15104229Y-11656460D02*
X15094706Y-11646936D01*
X15094706Y-11646936D02*
X15085182Y-11627888D01*
X15085182Y-11627888D02*
X15075658Y-11589793D01*
X15075658Y-11589793D02*
X15075658Y-11542174D01*
X15075658Y-11542174D02*
X15085182Y-11504079D01*
X15085182Y-11504079D02*
X15094706Y-11485031D01*
X15094706Y-11485031D02*
X15104229Y-11475508D01*
X15104229Y-11475508D02*
X15123277Y-11465984D01*
X15266134Y-11465984D02*
X15266134Y-11504079D01*
X15342325Y-11465984D02*
X15342325Y-11504079D01*
X15637563Y-11742174D02*
X15628039Y-11732650D01*
X15628039Y-11732650D02*
X15608991Y-11704079D01*
X15608991Y-11704079D02*
X15599468Y-11685031D01*
X15599468Y-11685031D02*
X15589944Y-11656460D01*
X15589944Y-11656460D02*
X15580420Y-11608841D01*
X15580420Y-11608841D02*
X15580420Y-11570746D01*
X15580420Y-11570746D02*
X15589944Y-11523127D01*
X15589944Y-11523127D02*
X15599468Y-11494555D01*
X15599468Y-11494555D02*
X15608991Y-11475508D01*
X15608991Y-11475508D02*
X15628039Y-11446936D01*
X15628039Y-11446936D02*
X15637563Y-11437412D01*
X15799468Y-11532650D02*
X15799468Y-11665984D01*
X15751848Y-11456460D02*
X15704229Y-11599317D01*
X15704229Y-11599317D02*
X15828039Y-11599317D01*
X16056610Y-11665984D02*
X16056610Y-11465984D01*
X16142325Y-11665984D02*
X16142325Y-11561222D01*
X16142325Y-11561222D02*
X16132801Y-11542174D01*
X16132801Y-11542174D02*
X16113753Y-11532650D01*
X16113753Y-11532650D02*
X16085182Y-11532650D01*
X16085182Y-11532650D02*
X16066134Y-11542174D01*
X16066134Y-11542174D02*
X16056610Y-11551698D01*
X16266134Y-11665984D02*
X16247087Y-11656460D01*
X16247087Y-11656460D02*
X16237563Y-11646936D01*
X16237563Y-11646936D02*
X16228039Y-11627888D01*
X16228039Y-11627888D02*
X16228039Y-11570746D01*
X16228039Y-11570746D02*
X16237563Y-11551698D01*
X16237563Y-11551698D02*
X16247087Y-11542174D01*
X16247087Y-11542174D02*
X16266134Y-11532650D01*
X16266134Y-11532650D02*
X16294706Y-11532650D01*
X16294706Y-11532650D02*
X16313753Y-11542174D01*
X16313753Y-11542174D02*
X16323277Y-11551698D01*
X16323277Y-11551698D02*
X16332801Y-11570746D01*
X16332801Y-11570746D02*
X16332801Y-11627888D01*
X16332801Y-11627888D02*
X16323277Y-11646936D01*
X16323277Y-11646936D02*
X16313753Y-11656460D01*
X16313753Y-11656460D02*
X16294706Y-11665984D01*
X16294706Y-11665984D02*
X16266134Y-11665984D01*
X16447087Y-11665984D02*
X16428039Y-11656460D01*
X16428039Y-11656460D02*
X16418515Y-11637412D01*
X16418515Y-11637412D02*
X16418515Y-11465984D01*
X16599468Y-11656460D02*
X16580420Y-11665984D01*
X16580420Y-11665984D02*
X16542325Y-11665984D01*
X16542325Y-11665984D02*
X16523277Y-11656460D01*
X16523277Y-11656460D02*
X16513753Y-11637412D01*
X16513753Y-11637412D02*
X16513753Y-11561222D01*
X16513753Y-11561222D02*
X16523277Y-11542174D01*
X16523277Y-11542174D02*
X16542325Y-11532650D01*
X16542325Y-11532650D02*
X16580420Y-11532650D01*
X16580420Y-11532650D02*
X16599468Y-11542174D01*
X16599468Y-11542174D02*
X16608991Y-11561222D01*
X16608991Y-11561222D02*
X16608991Y-11580269D01*
X16608991Y-11580269D02*
X16513753Y-11599317D01*
X16685182Y-11656460D02*
X16704230Y-11665984D01*
X16704230Y-11665984D02*
X16742325Y-11665984D01*
X16742325Y-11665984D02*
X16761372Y-11656460D01*
X16761372Y-11656460D02*
X16770896Y-11637412D01*
X16770896Y-11637412D02*
X16770896Y-11627888D01*
X16770896Y-11627888D02*
X16761372Y-11608841D01*
X16761372Y-11608841D02*
X16742325Y-11599317D01*
X16742325Y-11599317D02*
X16713753Y-11599317D01*
X16713753Y-11599317D02*
X16694706Y-11589793D01*
X16694706Y-11589793D02*
X16685182Y-11570746D01*
X16685182Y-11570746D02*
X16685182Y-11561222D01*
X16685182Y-11561222D02*
X16694706Y-11542174D01*
X16694706Y-11542174D02*
X16713753Y-11532650D01*
X16713753Y-11532650D02*
X16742325Y-11532650D01*
X16742325Y-11532650D02*
X16761372Y-11542174D01*
X16837563Y-11742174D02*
X16847087Y-11732650D01*
X16847087Y-11732650D02*
X16866134Y-11704079D01*
X16866134Y-11704079D02*
X16875658Y-11685031D01*
X16875658Y-11685031D02*
X16885182Y-11656460D01*
X16885182Y-11656460D02*
X16894706Y-11608841D01*
X16894706Y-11608841D02*
X16894706Y-11570746D01*
X16894706Y-11570746D02*
X16885182Y-11523127D01*
X16885182Y-11523127D02*
X16875658Y-11494555D01*
X16875658Y-11494555D02*
X16866134Y-11475508D01*
X16866134Y-11475508D02*
X16847087Y-11446936D01*
X16847087Y-11446936D02*
X16837563Y-11437412D01*
D12*
X12012500Y-11788500D02*
X12012500Y-11888500D01*
X11962500Y-11838500D02*
X12062500Y-11838500D01*
D11*
X12428039Y-11929984D02*
X12313753Y-11929984D01*
X12370896Y-11929984D02*
X12370896Y-11729984D01*
X12370896Y-11729984D02*
X12351848Y-11758555D01*
X12351848Y-11758555D02*
X12332801Y-11777603D01*
X12332801Y-11777603D02*
X12313753Y-11787127D01*
X12513753Y-11910936D02*
X12523277Y-11920460D01*
X12523277Y-11920460D02*
X12513753Y-11929984D01*
X12513753Y-11929984D02*
X12504229Y-11920460D01*
X12504229Y-11920460D02*
X12513753Y-11910936D01*
X12513753Y-11910936D02*
X12513753Y-11929984D01*
X12647086Y-11729984D02*
X12666134Y-11729984D01*
X12666134Y-11729984D02*
X12685182Y-11739508D01*
X12685182Y-11739508D02*
X12694705Y-11749031D01*
X12694705Y-11749031D02*
X12704229Y-11768079D01*
X12704229Y-11768079D02*
X12713753Y-11806174D01*
X12713753Y-11806174D02*
X12713753Y-11853793D01*
X12713753Y-11853793D02*
X12704229Y-11891888D01*
X12704229Y-11891888D02*
X12694705Y-11910936D01*
X12694705Y-11910936D02*
X12685182Y-11920460D01*
X12685182Y-11920460D02*
X12666134Y-11929984D01*
X12666134Y-11929984D02*
X12647086Y-11929984D01*
X12647086Y-11929984D02*
X12628039Y-11920460D01*
X12628039Y-11920460D02*
X12618515Y-11910936D01*
X12618515Y-11910936D02*
X12608991Y-11891888D01*
X12608991Y-11891888D02*
X12599467Y-11853793D01*
X12599467Y-11853793D02*
X12599467Y-11806174D01*
X12599467Y-11806174D02*
X12608991Y-11768079D01*
X12608991Y-11768079D02*
X12618515Y-11749031D01*
X12618515Y-11749031D02*
X12628039Y-11739508D01*
X12628039Y-11739508D02*
X12647086Y-11729984D01*
X12837562Y-11729984D02*
X12856610Y-11729984D01*
X12856610Y-11729984D02*
X12875658Y-11739508D01*
X12875658Y-11739508D02*
X12885182Y-11749031D01*
X12885182Y-11749031D02*
X12894705Y-11768079D01*
X12894705Y-11768079D02*
X12904229Y-11806174D01*
X12904229Y-11806174D02*
X12904229Y-11853793D01*
X12904229Y-11853793D02*
X12894705Y-11891888D01*
X12894705Y-11891888D02*
X12885182Y-11910936D01*
X12885182Y-11910936D02*
X12875658Y-11920460D01*
X12875658Y-11920460D02*
X12856610Y-11929984D01*
X12856610Y-11929984D02*
X12837562Y-11929984D01*
X12837562Y-11929984D02*
X12818515Y-11920460D01*
X12818515Y-11920460D02*
X12808991Y-11910936D01*
X12808991Y-11910936D02*
X12799467Y-11891888D01*
X12799467Y-11891888D02*
X12789943Y-11853793D01*
X12789943Y-11853793D02*
X12789943Y-11806174D01*
X12789943Y-11806174D02*
X12799467Y-11768079D01*
X12799467Y-11768079D02*
X12808991Y-11749031D01*
X12808991Y-11749031D02*
X12818515Y-11739508D01*
X12818515Y-11739508D02*
X12837562Y-11729984D01*
X13028039Y-11729984D02*
X13047086Y-11729984D01*
X13047086Y-11729984D02*
X13066134Y-11739508D01*
X13066134Y-11739508D02*
X13075658Y-11749031D01*
X13075658Y-11749031D02*
X13085182Y-11768079D01*
X13085182Y-11768079D02*
X13094705Y-11806174D01*
X13094705Y-11806174D02*
X13094705Y-11853793D01*
X13094705Y-11853793D02*
X13085182Y-11891888D01*
X13085182Y-11891888D02*
X13075658Y-11910936D01*
X13075658Y-11910936D02*
X13066134Y-11920460D01*
X13066134Y-11920460D02*
X13047086Y-11929984D01*
X13047086Y-11929984D02*
X13028039Y-11929984D01*
X13028039Y-11929984D02*
X13008991Y-11920460D01*
X13008991Y-11920460D02*
X12999467Y-11910936D01*
X12999467Y-11910936D02*
X12989943Y-11891888D01*
X12989943Y-11891888D02*
X12980420Y-11853793D01*
X12980420Y-11853793D02*
X12980420Y-11806174D01*
X12980420Y-11806174D02*
X12989943Y-11768079D01*
X12989943Y-11768079D02*
X12999467Y-11749031D01*
X12999467Y-11749031D02*
X13008991Y-11739508D01*
X13008991Y-11739508D02*
X13028039Y-11729984D01*
X13180420Y-11929984D02*
X13180420Y-11796650D01*
X13180420Y-11815698D02*
X13189943Y-11806174D01*
X13189943Y-11806174D02*
X13208991Y-11796650D01*
X13208991Y-11796650D02*
X13237563Y-11796650D01*
X13237563Y-11796650D02*
X13256610Y-11806174D01*
X13256610Y-11806174D02*
X13266134Y-11825222D01*
X13266134Y-11825222D02*
X13266134Y-11929984D01*
X13266134Y-11825222D02*
X13275658Y-11806174D01*
X13275658Y-11806174D02*
X13294705Y-11796650D01*
X13294705Y-11796650D02*
X13323277Y-11796650D01*
X13323277Y-11796650D02*
X13342324Y-11806174D01*
X13342324Y-11806174D02*
X13351848Y-11825222D01*
X13351848Y-11825222D02*
X13351848Y-11929984D01*
X13447086Y-11929984D02*
X13447086Y-11796650D01*
X13447086Y-11815698D02*
X13456610Y-11806174D01*
X13456610Y-11806174D02*
X13475658Y-11796650D01*
X13475658Y-11796650D02*
X13504229Y-11796650D01*
X13504229Y-11796650D02*
X13523277Y-11806174D01*
X13523277Y-11806174D02*
X13532801Y-11825222D01*
X13532801Y-11825222D02*
X13532801Y-11929984D01*
X13532801Y-11825222D02*
X13542324Y-11806174D01*
X13542324Y-11806174D02*
X13561372Y-11796650D01*
X13561372Y-11796650D02*
X13589943Y-11796650D01*
X13589943Y-11796650D02*
X13608991Y-11806174D01*
X13608991Y-11806174D02*
X13618515Y-11825222D01*
X13618515Y-11825222D02*
X13618515Y-11929984D01*
X14008991Y-11720460D02*
X13837563Y-11977603D01*
X14266134Y-11729984D02*
X14285182Y-11729984D01*
X14285182Y-11729984D02*
X14304229Y-11739508D01*
X14304229Y-11739508D02*
X14313753Y-11749031D01*
X14313753Y-11749031D02*
X14323277Y-11768079D01*
X14323277Y-11768079D02*
X14332801Y-11806174D01*
X14332801Y-11806174D02*
X14332801Y-11853793D01*
X14332801Y-11853793D02*
X14323277Y-11891888D01*
X14323277Y-11891888D02*
X14313753Y-11910936D01*
X14313753Y-11910936D02*
X14304229Y-11920460D01*
X14304229Y-11920460D02*
X14285182Y-11929984D01*
X14285182Y-11929984D02*
X14266134Y-11929984D01*
X14266134Y-11929984D02*
X14247086Y-11920460D01*
X14247086Y-11920460D02*
X14237563Y-11910936D01*
X14237563Y-11910936D02*
X14228039Y-11891888D01*
X14228039Y-11891888D02*
X14218515Y-11853793D01*
X14218515Y-11853793D02*
X14218515Y-11806174D01*
X14218515Y-11806174D02*
X14228039Y-11768079D01*
X14228039Y-11768079D02*
X14237563Y-11749031D01*
X14237563Y-11749031D02*
X14247086Y-11739508D01*
X14247086Y-11739508D02*
X14266134Y-11729984D01*
X14418515Y-11910936D02*
X14428039Y-11920460D01*
X14428039Y-11920460D02*
X14418515Y-11929984D01*
X14418515Y-11929984D02*
X14408991Y-11920460D01*
X14408991Y-11920460D02*
X14418515Y-11910936D01*
X14418515Y-11910936D02*
X14418515Y-11929984D01*
X14551848Y-11729984D02*
X14570896Y-11729984D01*
X14570896Y-11729984D02*
X14589944Y-11739508D01*
X14589944Y-11739508D02*
X14599467Y-11749031D01*
X14599467Y-11749031D02*
X14608991Y-11768079D01*
X14608991Y-11768079D02*
X14618515Y-11806174D01*
X14618515Y-11806174D02*
X14618515Y-11853793D01*
X14618515Y-11853793D02*
X14608991Y-11891888D01*
X14608991Y-11891888D02*
X14599467Y-11910936D01*
X14599467Y-11910936D02*
X14589944Y-11920460D01*
X14589944Y-11920460D02*
X14570896Y-11929984D01*
X14570896Y-11929984D02*
X14551848Y-11929984D01*
X14551848Y-11929984D02*
X14532801Y-11920460D01*
X14532801Y-11920460D02*
X14523277Y-11910936D01*
X14523277Y-11910936D02*
X14513753Y-11891888D01*
X14513753Y-11891888D02*
X14504229Y-11853793D01*
X14504229Y-11853793D02*
X14504229Y-11806174D01*
X14504229Y-11806174D02*
X14513753Y-11768079D01*
X14513753Y-11768079D02*
X14523277Y-11749031D01*
X14523277Y-11749031D02*
X14532801Y-11739508D01*
X14532801Y-11739508D02*
X14551848Y-11729984D01*
X14685182Y-11729984D02*
X14808991Y-11729984D01*
X14808991Y-11729984D02*
X14742325Y-11806174D01*
X14742325Y-11806174D02*
X14770896Y-11806174D01*
X14770896Y-11806174D02*
X14789944Y-11815698D01*
X14789944Y-11815698D02*
X14799467Y-11825222D01*
X14799467Y-11825222D02*
X14808991Y-11844269D01*
X14808991Y-11844269D02*
X14808991Y-11891888D01*
X14808991Y-11891888D02*
X14799467Y-11910936D01*
X14799467Y-11910936D02*
X14789944Y-11920460D01*
X14789944Y-11920460D02*
X14770896Y-11929984D01*
X14770896Y-11929984D02*
X14713753Y-11929984D01*
X14713753Y-11929984D02*
X14694706Y-11920460D01*
X14694706Y-11920460D02*
X14685182Y-11910936D01*
X14904229Y-11929984D02*
X14942325Y-11929984D01*
X14942325Y-11929984D02*
X14961372Y-11920460D01*
X14961372Y-11920460D02*
X14970896Y-11910936D01*
X14970896Y-11910936D02*
X14989944Y-11882365D01*
X14989944Y-11882365D02*
X14999467Y-11844269D01*
X14999467Y-11844269D02*
X14999467Y-11768079D01*
X14999467Y-11768079D02*
X14989944Y-11749031D01*
X14989944Y-11749031D02*
X14980420Y-11739508D01*
X14980420Y-11739508D02*
X14961372Y-11729984D01*
X14961372Y-11729984D02*
X14923277Y-11729984D01*
X14923277Y-11729984D02*
X14904229Y-11739508D01*
X14904229Y-11739508D02*
X14894706Y-11749031D01*
X14894706Y-11749031D02*
X14885182Y-11768079D01*
X14885182Y-11768079D02*
X14885182Y-11815698D01*
X14885182Y-11815698D02*
X14894706Y-11834746D01*
X14894706Y-11834746D02*
X14904229Y-11844269D01*
X14904229Y-11844269D02*
X14923277Y-11853793D01*
X14923277Y-11853793D02*
X14961372Y-11853793D01*
X14961372Y-11853793D02*
X14980420Y-11844269D01*
X14980420Y-11844269D02*
X14989944Y-11834746D01*
X14989944Y-11834746D02*
X14999467Y-11815698D01*
X15170896Y-11796650D02*
X15170896Y-11929984D01*
X15123277Y-11720460D02*
X15075658Y-11863317D01*
X15075658Y-11863317D02*
X15199467Y-11863317D01*
X15266134Y-11729984D02*
X15266134Y-11768079D01*
X15342325Y-11729984D02*
X15342325Y-11768079D01*
X15637563Y-12006174D02*
X15628039Y-11996650D01*
X15628039Y-11996650D02*
X15608991Y-11968079D01*
X15608991Y-11968079D02*
X15599468Y-11949031D01*
X15599468Y-11949031D02*
X15589944Y-11920460D01*
X15589944Y-11920460D02*
X15580420Y-11872841D01*
X15580420Y-11872841D02*
X15580420Y-11834746D01*
X15580420Y-11834746D02*
X15589944Y-11787127D01*
X15589944Y-11787127D02*
X15599468Y-11758555D01*
X15599468Y-11758555D02*
X15608991Y-11739508D01*
X15608991Y-11739508D02*
X15628039Y-11710936D01*
X15628039Y-11710936D02*
X15637563Y-11701412D01*
X15694706Y-11729984D02*
X15818515Y-11729984D01*
X15818515Y-11729984D02*
X15751848Y-11806174D01*
X15751848Y-11806174D02*
X15780420Y-11806174D01*
X15780420Y-11806174D02*
X15799468Y-11815698D01*
X15799468Y-11815698D02*
X15808991Y-11825222D01*
X15808991Y-11825222D02*
X15818515Y-11844269D01*
X15818515Y-11844269D02*
X15818515Y-11891888D01*
X15818515Y-11891888D02*
X15808991Y-11910936D01*
X15808991Y-11910936D02*
X15799468Y-11920460D01*
X15799468Y-11920460D02*
X15780420Y-11929984D01*
X15780420Y-11929984D02*
X15723277Y-11929984D01*
X15723277Y-11929984D02*
X15704229Y-11920460D01*
X15704229Y-11920460D02*
X15694706Y-11910936D01*
X15989944Y-11796650D02*
X15989944Y-11929984D01*
X15942325Y-11720460D02*
X15894706Y-11863317D01*
X15894706Y-11863317D02*
X16018515Y-11863317D01*
X16247087Y-11929984D02*
X16247087Y-11729984D01*
X16332801Y-11929984D02*
X16332801Y-11825222D01*
X16332801Y-11825222D02*
X16323277Y-11806174D01*
X16323277Y-11806174D02*
X16304230Y-11796650D01*
X16304230Y-11796650D02*
X16275658Y-11796650D01*
X16275658Y-11796650D02*
X16256610Y-11806174D01*
X16256610Y-11806174D02*
X16247087Y-11815698D01*
X16456610Y-11929984D02*
X16437563Y-11920460D01*
X16437563Y-11920460D02*
X16428039Y-11910936D01*
X16428039Y-11910936D02*
X16418515Y-11891888D01*
X16418515Y-11891888D02*
X16418515Y-11834746D01*
X16418515Y-11834746D02*
X16428039Y-11815698D01*
X16428039Y-11815698D02*
X16437563Y-11806174D01*
X16437563Y-11806174D02*
X16456610Y-11796650D01*
X16456610Y-11796650D02*
X16485182Y-11796650D01*
X16485182Y-11796650D02*
X16504230Y-11806174D01*
X16504230Y-11806174D02*
X16513753Y-11815698D01*
X16513753Y-11815698D02*
X16523277Y-11834746D01*
X16523277Y-11834746D02*
X16523277Y-11891888D01*
X16523277Y-11891888D02*
X16513753Y-11910936D01*
X16513753Y-11910936D02*
X16504230Y-11920460D01*
X16504230Y-11920460D02*
X16485182Y-11929984D01*
X16485182Y-11929984D02*
X16456610Y-11929984D01*
X16637563Y-11929984D02*
X16618515Y-11920460D01*
X16618515Y-11920460D02*
X16608991Y-11901412D01*
X16608991Y-11901412D02*
X16608991Y-11729984D01*
X16789944Y-11920460D02*
X16770896Y-11929984D01*
X16770896Y-11929984D02*
X16732801Y-11929984D01*
X16732801Y-11929984D02*
X16713753Y-11920460D01*
X16713753Y-11920460D02*
X16704230Y-11901412D01*
X16704230Y-11901412D02*
X16704230Y-11825222D01*
X16704230Y-11825222D02*
X16713753Y-11806174D01*
X16713753Y-11806174D02*
X16732801Y-11796650D01*
X16732801Y-11796650D02*
X16770896Y-11796650D01*
X16770896Y-11796650D02*
X16789944Y-11806174D01*
X16789944Y-11806174D02*
X16799468Y-11825222D01*
X16799468Y-11825222D02*
X16799468Y-11844269D01*
X16799468Y-11844269D02*
X16704230Y-11863317D01*
X16875658Y-11920460D02*
X16894706Y-11929984D01*
X16894706Y-11929984D02*
X16932801Y-11929984D01*
X16932801Y-11929984D02*
X16951849Y-11920460D01*
X16951849Y-11920460D02*
X16961373Y-11901412D01*
X16961373Y-11901412D02*
X16961373Y-11891888D01*
X16961373Y-11891888D02*
X16951849Y-11872841D01*
X16951849Y-11872841D02*
X16932801Y-11863317D01*
X16932801Y-11863317D02*
X16904230Y-11863317D01*
X16904230Y-11863317D02*
X16885182Y-11853793D01*
X16885182Y-11853793D02*
X16875658Y-11834746D01*
X16875658Y-11834746D02*
X16875658Y-11825222D01*
X16875658Y-11825222D02*
X16885182Y-11806174D01*
X16885182Y-11806174D02*
X16904230Y-11796650D01*
X16904230Y-11796650D02*
X16932801Y-11796650D01*
X16932801Y-11796650D02*
X16951849Y-11806174D01*
X17028039Y-12006174D02*
X17037563Y-11996650D01*
X17037563Y-11996650D02*
X17056611Y-11968079D01*
X17056611Y-11968079D02*
X17066134Y-11949031D01*
X17066134Y-11949031D02*
X17075658Y-11920460D01*
X17075658Y-11920460D02*
X17085182Y-11872841D01*
X17085182Y-11872841D02*
X17085182Y-11834746D01*
X17085182Y-11834746D02*
X17075658Y-11787127D01*
X17075658Y-11787127D02*
X17066134Y-11758555D01*
X17066134Y-11758555D02*
X17056611Y-11739508D01*
X17056611Y-11739508D02*
X17037563Y-11710936D01*
X17037563Y-11710936D02*
X17028039Y-11701412D01*
D13*
X12046391Y-12141391D02*
X12046391Y-12063609D01*
X11968609Y-12063609D01*
X11968609Y-12141391D01*
X12046391Y-12141391D01*
D11*
X12428039Y-12193984D02*
X12313753Y-12193984D01*
X12370896Y-12193984D02*
X12370896Y-11993984D01*
X12370896Y-11993984D02*
X12351848Y-12022555D01*
X12351848Y-12022555D02*
X12332801Y-12041603D01*
X12332801Y-12041603D02*
X12313753Y-12051127D01*
X12513753Y-12174936D02*
X12523277Y-12184460D01*
X12523277Y-12184460D02*
X12513753Y-12193984D01*
X12513753Y-12193984D02*
X12504229Y-12184460D01*
X12504229Y-12184460D02*
X12513753Y-12174936D01*
X12513753Y-12174936D02*
X12513753Y-12193984D01*
X12713753Y-12193984D02*
X12599467Y-12193984D01*
X12656610Y-12193984D02*
X12656610Y-11993984D01*
X12656610Y-11993984D02*
X12637562Y-12022555D01*
X12637562Y-12022555D02*
X12618515Y-12041603D01*
X12618515Y-12041603D02*
X12599467Y-12051127D01*
X12837562Y-11993984D02*
X12856610Y-11993984D01*
X12856610Y-11993984D02*
X12875658Y-12003508D01*
X12875658Y-12003508D02*
X12885182Y-12013031D01*
X12885182Y-12013031D02*
X12894705Y-12032079D01*
X12894705Y-12032079D02*
X12904229Y-12070174D01*
X12904229Y-12070174D02*
X12904229Y-12117793D01*
X12904229Y-12117793D02*
X12894705Y-12155888D01*
X12894705Y-12155888D02*
X12885182Y-12174936D01*
X12885182Y-12174936D02*
X12875658Y-12184460D01*
X12875658Y-12184460D02*
X12856610Y-12193984D01*
X12856610Y-12193984D02*
X12837562Y-12193984D01*
X12837562Y-12193984D02*
X12818515Y-12184460D01*
X12818515Y-12184460D02*
X12808991Y-12174936D01*
X12808991Y-12174936D02*
X12799467Y-12155888D01*
X12799467Y-12155888D02*
X12789943Y-12117793D01*
X12789943Y-12117793D02*
X12789943Y-12070174D01*
X12789943Y-12070174D02*
X12799467Y-12032079D01*
X12799467Y-12032079D02*
X12808991Y-12013031D01*
X12808991Y-12013031D02*
X12818515Y-12003508D01*
X12818515Y-12003508D02*
X12837562Y-11993984D01*
X13028039Y-11993984D02*
X13047086Y-11993984D01*
X13047086Y-11993984D02*
X13066134Y-12003508D01*
X13066134Y-12003508D02*
X13075658Y-12013031D01*
X13075658Y-12013031D02*
X13085182Y-12032079D01*
X13085182Y-12032079D02*
X13094705Y-12070174D01*
X13094705Y-12070174D02*
X13094705Y-12117793D01*
X13094705Y-12117793D02*
X13085182Y-12155888D01*
X13085182Y-12155888D02*
X13075658Y-12174936D01*
X13075658Y-12174936D02*
X13066134Y-12184460D01*
X13066134Y-12184460D02*
X13047086Y-12193984D01*
X13047086Y-12193984D02*
X13028039Y-12193984D01*
X13028039Y-12193984D02*
X13008991Y-12184460D01*
X13008991Y-12184460D02*
X12999467Y-12174936D01*
X12999467Y-12174936D02*
X12989943Y-12155888D01*
X12989943Y-12155888D02*
X12980420Y-12117793D01*
X12980420Y-12117793D02*
X12980420Y-12070174D01*
X12980420Y-12070174D02*
X12989943Y-12032079D01*
X12989943Y-12032079D02*
X12999467Y-12013031D01*
X12999467Y-12013031D02*
X13008991Y-12003508D01*
X13008991Y-12003508D02*
X13028039Y-11993984D01*
X13180420Y-12193984D02*
X13180420Y-12060650D01*
X13180420Y-12079698D02*
X13189943Y-12070174D01*
X13189943Y-12070174D02*
X13208991Y-12060650D01*
X13208991Y-12060650D02*
X13237563Y-12060650D01*
X13237563Y-12060650D02*
X13256610Y-12070174D01*
X13256610Y-12070174D02*
X13266134Y-12089222D01*
X13266134Y-12089222D02*
X13266134Y-12193984D01*
X13266134Y-12089222D02*
X13275658Y-12070174D01*
X13275658Y-12070174D02*
X13294705Y-12060650D01*
X13294705Y-12060650D02*
X13323277Y-12060650D01*
X13323277Y-12060650D02*
X13342324Y-12070174D01*
X13342324Y-12070174D02*
X13351848Y-12089222D01*
X13351848Y-12089222D02*
X13351848Y-12193984D01*
X13447086Y-12193984D02*
X13447086Y-12060650D01*
X13447086Y-12079698D02*
X13456610Y-12070174D01*
X13456610Y-12070174D02*
X13475658Y-12060650D01*
X13475658Y-12060650D02*
X13504229Y-12060650D01*
X13504229Y-12060650D02*
X13523277Y-12070174D01*
X13523277Y-12070174D02*
X13532801Y-12089222D01*
X13532801Y-12089222D02*
X13532801Y-12193984D01*
X13532801Y-12089222D02*
X13542324Y-12070174D01*
X13542324Y-12070174D02*
X13561372Y-12060650D01*
X13561372Y-12060650D02*
X13589943Y-12060650D01*
X13589943Y-12060650D02*
X13608991Y-12070174D01*
X13608991Y-12070174D02*
X13618515Y-12089222D01*
X13618515Y-12089222D02*
X13618515Y-12193984D01*
X14008991Y-11984460D02*
X13837563Y-12241603D01*
X14266134Y-11993984D02*
X14285182Y-11993984D01*
X14285182Y-11993984D02*
X14304229Y-12003508D01*
X14304229Y-12003508D02*
X14313753Y-12013031D01*
X14313753Y-12013031D02*
X14323277Y-12032079D01*
X14323277Y-12032079D02*
X14332801Y-12070174D01*
X14332801Y-12070174D02*
X14332801Y-12117793D01*
X14332801Y-12117793D02*
X14323277Y-12155888D01*
X14323277Y-12155888D02*
X14313753Y-12174936D01*
X14313753Y-12174936D02*
X14304229Y-12184460D01*
X14304229Y-12184460D02*
X14285182Y-12193984D01*
X14285182Y-12193984D02*
X14266134Y-12193984D01*
X14266134Y-12193984D02*
X14247086Y-12184460D01*
X14247086Y-12184460D02*
X14237563Y-12174936D01*
X14237563Y-12174936D02*
X14228039Y-12155888D01*
X14228039Y-12155888D02*
X14218515Y-12117793D01*
X14218515Y-12117793D02*
X14218515Y-12070174D01*
X14218515Y-12070174D02*
X14228039Y-12032079D01*
X14228039Y-12032079D02*
X14237563Y-12013031D01*
X14237563Y-12013031D02*
X14247086Y-12003508D01*
X14247086Y-12003508D02*
X14266134Y-11993984D01*
X14418515Y-12174936D02*
X14428039Y-12184460D01*
X14428039Y-12184460D02*
X14418515Y-12193984D01*
X14418515Y-12193984D02*
X14408991Y-12184460D01*
X14408991Y-12184460D02*
X14418515Y-12174936D01*
X14418515Y-12174936D02*
X14418515Y-12193984D01*
X14551848Y-11993984D02*
X14570896Y-11993984D01*
X14570896Y-11993984D02*
X14589944Y-12003508D01*
X14589944Y-12003508D02*
X14599467Y-12013031D01*
X14599467Y-12013031D02*
X14608991Y-12032079D01*
X14608991Y-12032079D02*
X14618515Y-12070174D01*
X14618515Y-12070174D02*
X14618515Y-12117793D01*
X14618515Y-12117793D02*
X14608991Y-12155888D01*
X14608991Y-12155888D02*
X14599467Y-12174936D01*
X14599467Y-12174936D02*
X14589944Y-12184460D01*
X14589944Y-12184460D02*
X14570896Y-12193984D01*
X14570896Y-12193984D02*
X14551848Y-12193984D01*
X14551848Y-12193984D02*
X14532801Y-12184460D01*
X14532801Y-12184460D02*
X14523277Y-12174936D01*
X14523277Y-12174936D02*
X14513753Y-12155888D01*
X14513753Y-12155888D02*
X14504229Y-12117793D01*
X14504229Y-12117793D02*
X14504229Y-12070174D01*
X14504229Y-12070174D02*
X14513753Y-12032079D01*
X14513753Y-12032079D02*
X14523277Y-12013031D01*
X14523277Y-12013031D02*
X14532801Y-12003508D01*
X14532801Y-12003508D02*
X14551848Y-11993984D01*
X14789944Y-12060650D02*
X14789944Y-12193984D01*
X14742325Y-11984460D02*
X14694706Y-12127317D01*
X14694706Y-12127317D02*
X14818515Y-12127317D01*
X14875658Y-11993984D02*
X14999467Y-11993984D01*
X14999467Y-11993984D02*
X14932801Y-12070174D01*
X14932801Y-12070174D02*
X14961372Y-12070174D01*
X14961372Y-12070174D02*
X14980420Y-12079698D01*
X14980420Y-12079698D02*
X14989944Y-12089222D01*
X14989944Y-12089222D02*
X14999467Y-12108269D01*
X14999467Y-12108269D02*
X14999467Y-12155888D01*
X14999467Y-12155888D02*
X14989944Y-12174936D01*
X14989944Y-12174936D02*
X14980420Y-12184460D01*
X14980420Y-12184460D02*
X14961372Y-12193984D01*
X14961372Y-12193984D02*
X14904229Y-12193984D01*
X14904229Y-12193984D02*
X14885182Y-12184460D01*
X14885182Y-12184460D02*
X14875658Y-12174936D01*
X15066134Y-11993984D02*
X15189944Y-11993984D01*
X15189944Y-11993984D02*
X15123277Y-12070174D01*
X15123277Y-12070174D02*
X15151848Y-12070174D01*
X15151848Y-12070174D02*
X15170896Y-12079698D01*
X15170896Y-12079698D02*
X15180420Y-12089222D01*
X15180420Y-12089222D02*
X15189944Y-12108269D01*
X15189944Y-12108269D02*
X15189944Y-12155888D01*
X15189944Y-12155888D02*
X15180420Y-12174936D01*
X15180420Y-12174936D02*
X15170896Y-12184460D01*
X15170896Y-12184460D02*
X15151848Y-12193984D01*
X15151848Y-12193984D02*
X15094706Y-12193984D01*
X15094706Y-12193984D02*
X15075658Y-12184460D01*
X15075658Y-12184460D02*
X15066134Y-12174936D01*
X15266134Y-11993984D02*
X15266134Y-12032079D01*
X15342325Y-11993984D02*
X15342325Y-12032079D01*
X15637563Y-12270174D02*
X15628039Y-12260650D01*
X15628039Y-12260650D02*
X15608991Y-12232079D01*
X15608991Y-12232079D02*
X15599468Y-12213031D01*
X15599468Y-12213031D02*
X15589944Y-12184460D01*
X15589944Y-12184460D02*
X15580420Y-12136841D01*
X15580420Y-12136841D02*
X15580420Y-12098746D01*
X15580420Y-12098746D02*
X15589944Y-12051127D01*
X15589944Y-12051127D02*
X15599468Y-12022555D01*
X15599468Y-12022555D02*
X15608991Y-12003508D01*
X15608991Y-12003508D02*
X15628039Y-11974936D01*
X15628039Y-11974936D02*
X15637563Y-11965412D01*
X15818515Y-12193984D02*
X15704229Y-12193984D01*
X15761372Y-12193984D02*
X15761372Y-11993984D01*
X15761372Y-11993984D02*
X15742325Y-12022555D01*
X15742325Y-12022555D02*
X15723277Y-12041603D01*
X15723277Y-12041603D02*
X15704229Y-12051127D01*
X15894706Y-12013031D02*
X15904229Y-12003508D01*
X15904229Y-12003508D02*
X15923277Y-11993984D01*
X15923277Y-11993984D02*
X15970896Y-11993984D01*
X15970896Y-11993984D02*
X15989944Y-12003508D01*
X15989944Y-12003508D02*
X15999468Y-12013031D01*
X15999468Y-12013031D02*
X16008991Y-12032079D01*
X16008991Y-12032079D02*
X16008991Y-12051127D01*
X16008991Y-12051127D02*
X15999468Y-12079698D01*
X15999468Y-12079698D02*
X15885182Y-12193984D01*
X15885182Y-12193984D02*
X16008991Y-12193984D01*
X16247087Y-12193984D02*
X16247087Y-11993984D01*
X16332801Y-12193984D02*
X16332801Y-12089222D01*
X16332801Y-12089222D02*
X16323277Y-12070174D01*
X16323277Y-12070174D02*
X16304230Y-12060650D01*
X16304230Y-12060650D02*
X16275658Y-12060650D01*
X16275658Y-12060650D02*
X16256610Y-12070174D01*
X16256610Y-12070174D02*
X16247087Y-12079698D01*
X16456610Y-12193984D02*
X16437563Y-12184460D01*
X16437563Y-12184460D02*
X16428039Y-12174936D01*
X16428039Y-12174936D02*
X16418515Y-12155888D01*
X16418515Y-12155888D02*
X16418515Y-12098746D01*
X16418515Y-12098746D02*
X16428039Y-12079698D01*
X16428039Y-12079698D02*
X16437563Y-12070174D01*
X16437563Y-12070174D02*
X16456610Y-12060650D01*
X16456610Y-12060650D02*
X16485182Y-12060650D01*
X16485182Y-12060650D02*
X16504230Y-12070174D01*
X16504230Y-12070174D02*
X16513753Y-12079698D01*
X16513753Y-12079698D02*
X16523277Y-12098746D01*
X16523277Y-12098746D02*
X16523277Y-12155888D01*
X16523277Y-12155888D02*
X16513753Y-12174936D01*
X16513753Y-12174936D02*
X16504230Y-12184460D01*
X16504230Y-12184460D02*
X16485182Y-12193984D01*
X16485182Y-12193984D02*
X16456610Y-12193984D01*
X16637563Y-12193984D02*
X16618515Y-12184460D01*
X16618515Y-12184460D02*
X16608991Y-12165412D01*
X16608991Y-12165412D02*
X16608991Y-11993984D01*
X16789944Y-12184460D02*
X16770896Y-12193984D01*
X16770896Y-12193984D02*
X16732801Y-12193984D01*
X16732801Y-12193984D02*
X16713753Y-12184460D01*
X16713753Y-12184460D02*
X16704230Y-12165412D01*
X16704230Y-12165412D02*
X16704230Y-12089222D01*
X16704230Y-12089222D02*
X16713753Y-12070174D01*
X16713753Y-12070174D02*
X16732801Y-12060650D01*
X16732801Y-12060650D02*
X16770896Y-12060650D01*
X16770896Y-12060650D02*
X16789944Y-12070174D01*
X16789944Y-12070174D02*
X16799468Y-12089222D01*
X16799468Y-12089222D02*
X16799468Y-12108269D01*
X16799468Y-12108269D02*
X16704230Y-12127317D01*
X16875658Y-12184460D02*
X16894706Y-12193984D01*
X16894706Y-12193984D02*
X16932801Y-12193984D01*
X16932801Y-12193984D02*
X16951849Y-12184460D01*
X16951849Y-12184460D02*
X16961373Y-12165412D01*
X16961373Y-12165412D02*
X16961373Y-12155888D01*
X16961373Y-12155888D02*
X16951849Y-12136841D01*
X16951849Y-12136841D02*
X16932801Y-12127317D01*
X16932801Y-12127317D02*
X16904230Y-12127317D01*
X16904230Y-12127317D02*
X16885182Y-12117793D01*
X16885182Y-12117793D02*
X16875658Y-12098746D01*
X16875658Y-12098746D02*
X16875658Y-12089222D01*
X16875658Y-12089222D02*
X16885182Y-12070174D01*
X16885182Y-12070174D02*
X16904230Y-12060650D01*
X16904230Y-12060650D02*
X16932801Y-12060650D01*
X16932801Y-12060650D02*
X16951849Y-12070174D01*
X17028039Y-12270174D02*
X17037563Y-12260650D01*
X17037563Y-12260650D02*
X17056611Y-12232079D01*
X17056611Y-12232079D02*
X17066134Y-12213031D01*
X17066134Y-12213031D02*
X17075658Y-12184460D01*
X17075658Y-12184460D02*
X17085182Y-12136841D01*
X17085182Y-12136841D02*
X17085182Y-12098746D01*
X17085182Y-12098746D02*
X17075658Y-12051127D01*
X17075658Y-12051127D02*
X17066134Y-12022555D01*
X17066134Y-12022555D02*
X17056611Y-12003508D01*
X17056611Y-12003508D02*
X17037563Y-11974936D01*
X17037563Y-11974936D02*
X17028039Y-11965412D01*
X11962500Y-12466500D02*
X12062500Y-12366500D01*
X11962500Y-12266500D01*
X11862500Y-12366500D01*
X11962500Y-12466500D01*
X12313753Y-12277031D02*
X12323277Y-12267508D01*
X12323277Y-12267508D02*
X12342324Y-12257984D01*
X12342324Y-12257984D02*
X12389943Y-12257984D01*
X12389943Y-12257984D02*
X12408991Y-12267508D01*
X12408991Y-12267508D02*
X12418515Y-12277031D01*
X12418515Y-12277031D02*
X12428039Y-12296079D01*
X12428039Y-12296079D02*
X12428039Y-12315127D01*
X12428039Y-12315127D02*
X12418515Y-12343698D01*
X12418515Y-12343698D02*
X12304229Y-12457984D01*
X12304229Y-12457984D02*
X12428039Y-12457984D01*
X12513753Y-12438936D02*
X12523277Y-12448460D01*
X12523277Y-12448460D02*
X12513753Y-12457984D01*
X12513753Y-12457984D02*
X12504229Y-12448460D01*
X12504229Y-12448460D02*
X12513753Y-12438936D01*
X12513753Y-12438936D02*
X12513753Y-12457984D01*
X12647086Y-12257984D02*
X12666134Y-12257984D01*
X12666134Y-12257984D02*
X12685182Y-12267508D01*
X12685182Y-12267508D02*
X12694705Y-12277031D01*
X12694705Y-12277031D02*
X12704229Y-12296079D01*
X12704229Y-12296079D02*
X12713753Y-12334174D01*
X12713753Y-12334174D02*
X12713753Y-12381793D01*
X12713753Y-12381793D02*
X12704229Y-12419888D01*
X12704229Y-12419888D02*
X12694705Y-12438936D01*
X12694705Y-12438936D02*
X12685182Y-12448460D01*
X12685182Y-12448460D02*
X12666134Y-12457984D01*
X12666134Y-12457984D02*
X12647086Y-12457984D01*
X12647086Y-12457984D02*
X12628039Y-12448460D01*
X12628039Y-12448460D02*
X12618515Y-12438936D01*
X12618515Y-12438936D02*
X12608991Y-12419888D01*
X12608991Y-12419888D02*
X12599467Y-12381793D01*
X12599467Y-12381793D02*
X12599467Y-12334174D01*
X12599467Y-12334174D02*
X12608991Y-12296079D01*
X12608991Y-12296079D02*
X12618515Y-12277031D01*
X12618515Y-12277031D02*
X12628039Y-12267508D01*
X12628039Y-12267508D02*
X12647086Y-12257984D01*
X12904229Y-12457984D02*
X12789943Y-12457984D01*
X12847086Y-12457984D02*
X12847086Y-12257984D01*
X12847086Y-12257984D02*
X12828039Y-12286555D01*
X12828039Y-12286555D02*
X12808991Y-12305603D01*
X12808991Y-12305603D02*
X12789943Y-12315127D01*
X13028039Y-12257984D02*
X13047086Y-12257984D01*
X13047086Y-12257984D02*
X13066134Y-12267508D01*
X13066134Y-12267508D02*
X13075658Y-12277031D01*
X13075658Y-12277031D02*
X13085182Y-12296079D01*
X13085182Y-12296079D02*
X13094705Y-12334174D01*
X13094705Y-12334174D02*
X13094705Y-12381793D01*
X13094705Y-12381793D02*
X13085182Y-12419888D01*
X13085182Y-12419888D02*
X13075658Y-12438936D01*
X13075658Y-12438936D02*
X13066134Y-12448460D01*
X13066134Y-12448460D02*
X13047086Y-12457984D01*
X13047086Y-12457984D02*
X13028039Y-12457984D01*
X13028039Y-12457984D02*
X13008991Y-12448460D01*
X13008991Y-12448460D02*
X12999467Y-12438936D01*
X12999467Y-12438936D02*
X12989943Y-12419888D01*
X12989943Y-12419888D02*
X12980420Y-12381793D01*
X12980420Y-12381793D02*
X12980420Y-12334174D01*
X12980420Y-12334174D02*
X12989943Y-12296079D01*
X12989943Y-12296079D02*
X12999467Y-12277031D01*
X12999467Y-12277031D02*
X13008991Y-12267508D01*
X13008991Y-12267508D02*
X13028039Y-12257984D01*
X13180420Y-12457984D02*
X13180420Y-12324650D01*
X13180420Y-12343698D02*
X13189943Y-12334174D01*
X13189943Y-12334174D02*
X13208991Y-12324650D01*
X13208991Y-12324650D02*
X13237563Y-12324650D01*
X13237563Y-12324650D02*
X13256610Y-12334174D01*
X13256610Y-12334174D02*
X13266134Y-12353222D01*
X13266134Y-12353222D02*
X13266134Y-12457984D01*
X13266134Y-12353222D02*
X13275658Y-12334174D01*
X13275658Y-12334174D02*
X13294705Y-12324650D01*
X13294705Y-12324650D02*
X13323277Y-12324650D01*
X13323277Y-12324650D02*
X13342324Y-12334174D01*
X13342324Y-12334174D02*
X13351848Y-12353222D01*
X13351848Y-12353222D02*
X13351848Y-12457984D01*
X13447086Y-12457984D02*
X13447086Y-12324650D01*
X13447086Y-12343698D02*
X13456610Y-12334174D01*
X13456610Y-12334174D02*
X13475658Y-12324650D01*
X13475658Y-12324650D02*
X13504229Y-12324650D01*
X13504229Y-12324650D02*
X13523277Y-12334174D01*
X13523277Y-12334174D02*
X13532801Y-12353222D01*
X13532801Y-12353222D02*
X13532801Y-12457984D01*
X13532801Y-12353222D02*
X13542324Y-12334174D01*
X13542324Y-12334174D02*
X13561372Y-12324650D01*
X13561372Y-12324650D02*
X13589943Y-12324650D01*
X13589943Y-12324650D02*
X13608991Y-12334174D01*
X13608991Y-12334174D02*
X13618515Y-12353222D01*
X13618515Y-12353222D02*
X13618515Y-12457984D01*
X14008991Y-12248460D02*
X13837563Y-12505603D01*
X14266134Y-12257984D02*
X14285182Y-12257984D01*
X14285182Y-12257984D02*
X14304229Y-12267508D01*
X14304229Y-12267508D02*
X14313753Y-12277031D01*
X14313753Y-12277031D02*
X14323277Y-12296079D01*
X14323277Y-12296079D02*
X14332801Y-12334174D01*
X14332801Y-12334174D02*
X14332801Y-12381793D01*
X14332801Y-12381793D02*
X14323277Y-12419888D01*
X14323277Y-12419888D02*
X14313753Y-12438936D01*
X14313753Y-12438936D02*
X14304229Y-12448460D01*
X14304229Y-12448460D02*
X14285182Y-12457984D01*
X14285182Y-12457984D02*
X14266134Y-12457984D01*
X14266134Y-12457984D02*
X14247086Y-12448460D01*
X14247086Y-12448460D02*
X14237563Y-12438936D01*
X14237563Y-12438936D02*
X14228039Y-12419888D01*
X14228039Y-12419888D02*
X14218515Y-12381793D01*
X14218515Y-12381793D02*
X14218515Y-12334174D01*
X14218515Y-12334174D02*
X14228039Y-12296079D01*
X14228039Y-12296079D02*
X14237563Y-12277031D01*
X14237563Y-12277031D02*
X14247086Y-12267508D01*
X14247086Y-12267508D02*
X14266134Y-12257984D01*
X14418515Y-12438936D02*
X14428039Y-12448460D01*
X14428039Y-12448460D02*
X14418515Y-12457984D01*
X14418515Y-12457984D02*
X14408991Y-12448460D01*
X14408991Y-12448460D02*
X14418515Y-12438936D01*
X14418515Y-12438936D02*
X14418515Y-12457984D01*
X14551848Y-12257984D02*
X14570896Y-12257984D01*
X14570896Y-12257984D02*
X14589944Y-12267508D01*
X14589944Y-12267508D02*
X14599467Y-12277031D01*
X14599467Y-12277031D02*
X14608991Y-12296079D01*
X14608991Y-12296079D02*
X14618515Y-12334174D01*
X14618515Y-12334174D02*
X14618515Y-12381793D01*
X14618515Y-12381793D02*
X14608991Y-12419888D01*
X14608991Y-12419888D02*
X14599467Y-12438936D01*
X14599467Y-12438936D02*
X14589944Y-12448460D01*
X14589944Y-12448460D02*
X14570896Y-12457984D01*
X14570896Y-12457984D02*
X14551848Y-12457984D01*
X14551848Y-12457984D02*
X14532801Y-12448460D01*
X14532801Y-12448460D02*
X14523277Y-12438936D01*
X14523277Y-12438936D02*
X14513753Y-12419888D01*
X14513753Y-12419888D02*
X14504229Y-12381793D01*
X14504229Y-12381793D02*
X14504229Y-12334174D01*
X14504229Y-12334174D02*
X14513753Y-12296079D01*
X14513753Y-12296079D02*
X14523277Y-12277031D01*
X14523277Y-12277031D02*
X14532801Y-12267508D01*
X14532801Y-12267508D02*
X14551848Y-12257984D01*
X14685182Y-12257984D02*
X14818515Y-12257984D01*
X14818515Y-12257984D02*
X14732801Y-12457984D01*
X14904229Y-12457984D02*
X14942325Y-12457984D01*
X14942325Y-12457984D02*
X14961372Y-12448460D01*
X14961372Y-12448460D02*
X14970896Y-12438936D01*
X14970896Y-12438936D02*
X14989944Y-12410365D01*
X14989944Y-12410365D02*
X14999467Y-12372269D01*
X14999467Y-12372269D02*
X14999467Y-12296079D01*
X14999467Y-12296079D02*
X14989944Y-12277031D01*
X14989944Y-12277031D02*
X14980420Y-12267508D01*
X14980420Y-12267508D02*
X14961372Y-12257984D01*
X14961372Y-12257984D02*
X14923277Y-12257984D01*
X14923277Y-12257984D02*
X14904229Y-12267508D01*
X14904229Y-12267508D02*
X14894706Y-12277031D01*
X14894706Y-12277031D02*
X14885182Y-12296079D01*
X14885182Y-12296079D02*
X14885182Y-12343698D01*
X14885182Y-12343698D02*
X14894706Y-12362746D01*
X14894706Y-12362746D02*
X14904229Y-12372269D01*
X14904229Y-12372269D02*
X14923277Y-12381793D01*
X14923277Y-12381793D02*
X14961372Y-12381793D01*
X14961372Y-12381793D02*
X14980420Y-12372269D01*
X14980420Y-12372269D02*
X14989944Y-12362746D01*
X14989944Y-12362746D02*
X14999467Y-12343698D01*
X15189944Y-12457984D02*
X15075658Y-12457984D01*
X15132801Y-12457984D02*
X15132801Y-12257984D01*
X15132801Y-12257984D02*
X15113753Y-12286555D01*
X15113753Y-12286555D02*
X15094706Y-12305603D01*
X15094706Y-12305603D02*
X15075658Y-12315127D01*
X15266134Y-12257984D02*
X15266134Y-12296079D01*
X15342325Y-12257984D02*
X15342325Y-12296079D01*
X15637563Y-12534174D02*
X15628039Y-12524650D01*
X15628039Y-12524650D02*
X15608991Y-12496079D01*
X15608991Y-12496079D02*
X15599468Y-12477031D01*
X15599468Y-12477031D02*
X15589944Y-12448460D01*
X15589944Y-12448460D02*
X15580420Y-12400841D01*
X15580420Y-12400841D02*
X15580420Y-12362746D01*
X15580420Y-12362746D02*
X15589944Y-12315127D01*
X15589944Y-12315127D02*
X15599468Y-12286555D01*
X15599468Y-12286555D02*
X15608991Y-12267508D01*
X15608991Y-12267508D02*
X15628039Y-12238936D01*
X15628039Y-12238936D02*
X15637563Y-12229412D01*
X15799468Y-12324650D02*
X15799468Y-12457984D01*
X15751848Y-12248460D02*
X15704229Y-12391317D01*
X15704229Y-12391317D02*
X15828039Y-12391317D01*
X16056610Y-12457984D02*
X16056610Y-12257984D01*
X16142325Y-12457984D02*
X16142325Y-12353222D01*
X16142325Y-12353222D02*
X16132801Y-12334174D01*
X16132801Y-12334174D02*
X16113753Y-12324650D01*
X16113753Y-12324650D02*
X16085182Y-12324650D01*
X16085182Y-12324650D02*
X16066134Y-12334174D01*
X16066134Y-12334174D02*
X16056610Y-12343698D01*
X16266134Y-12457984D02*
X16247087Y-12448460D01*
X16247087Y-12448460D02*
X16237563Y-12438936D01*
X16237563Y-12438936D02*
X16228039Y-12419888D01*
X16228039Y-12419888D02*
X16228039Y-12362746D01*
X16228039Y-12362746D02*
X16237563Y-12343698D01*
X16237563Y-12343698D02*
X16247087Y-12334174D01*
X16247087Y-12334174D02*
X16266134Y-12324650D01*
X16266134Y-12324650D02*
X16294706Y-12324650D01*
X16294706Y-12324650D02*
X16313753Y-12334174D01*
X16313753Y-12334174D02*
X16323277Y-12343698D01*
X16323277Y-12343698D02*
X16332801Y-12362746D01*
X16332801Y-12362746D02*
X16332801Y-12419888D01*
X16332801Y-12419888D02*
X16323277Y-12438936D01*
X16323277Y-12438936D02*
X16313753Y-12448460D01*
X16313753Y-12448460D02*
X16294706Y-12457984D01*
X16294706Y-12457984D02*
X16266134Y-12457984D01*
X16447087Y-12457984D02*
X16428039Y-12448460D01*
X16428039Y-12448460D02*
X16418515Y-12429412D01*
X16418515Y-12429412D02*
X16418515Y-12257984D01*
X16599468Y-12448460D02*
X16580420Y-12457984D01*
X16580420Y-12457984D02*
X16542325Y-12457984D01*
X16542325Y-12457984D02*
X16523277Y-12448460D01*
X16523277Y-12448460D02*
X16513753Y-12429412D01*
X16513753Y-12429412D02*
X16513753Y-12353222D01*
X16513753Y-12353222D02*
X16523277Y-12334174D01*
X16523277Y-12334174D02*
X16542325Y-12324650D01*
X16542325Y-12324650D02*
X16580420Y-12324650D01*
X16580420Y-12324650D02*
X16599468Y-12334174D01*
X16599468Y-12334174D02*
X16608991Y-12353222D01*
X16608991Y-12353222D02*
X16608991Y-12372269D01*
X16608991Y-12372269D02*
X16513753Y-12391317D01*
X16685182Y-12448460D02*
X16704230Y-12457984D01*
X16704230Y-12457984D02*
X16742325Y-12457984D01*
X16742325Y-12457984D02*
X16761372Y-12448460D01*
X16761372Y-12448460D02*
X16770896Y-12429412D01*
X16770896Y-12429412D02*
X16770896Y-12419888D01*
X16770896Y-12419888D02*
X16761372Y-12400841D01*
X16761372Y-12400841D02*
X16742325Y-12391317D01*
X16742325Y-12391317D02*
X16713753Y-12391317D01*
X16713753Y-12391317D02*
X16694706Y-12381793D01*
X16694706Y-12381793D02*
X16685182Y-12362746D01*
X16685182Y-12362746D02*
X16685182Y-12353222D01*
X16685182Y-12353222D02*
X16694706Y-12334174D01*
X16694706Y-12334174D02*
X16713753Y-12324650D01*
X16713753Y-12324650D02*
X16742325Y-12324650D01*
X16742325Y-12324650D02*
X16761372Y-12334174D01*
X16837563Y-12534174D02*
X16847087Y-12524650D01*
X16847087Y-12524650D02*
X16866134Y-12496079D01*
X16866134Y-12496079D02*
X16875658Y-12477031D01*
X16875658Y-12477031D02*
X16885182Y-12448460D01*
X16885182Y-12448460D02*
X16894706Y-12400841D01*
X16894706Y-12400841D02*
X16894706Y-12362746D01*
X16894706Y-12362746D02*
X16885182Y-12315127D01*
X16885182Y-12315127D02*
X16875658Y-12286555D01*
X16875658Y-12286555D02*
X16866134Y-12267508D01*
X16866134Y-12267508D02*
X16847087Y-12238936D01*
X16847087Y-12238936D02*
X16837563Y-12229412D01*
M02*
