M48
; DRILL file {KiCad 7.0.10} date Do 22 Feb 2024 19:55:14 CET
; FORMAT={-:-/ absolute / inch / decimal}
; #@! TF.CreationDate,2024-02-22T19:55:14+01:00
; #@! TF.GenerationSoftware,Kicad,Pcbnew,7.0.10
; #@! TF.FileFunction,Plated,1,2,PTH
FMAT,2
INCH
; #@! TA.AperFunction,Plated,PTH,ViaDrill
T1C0.0157
; #@! TA.AperFunction,Plated,PTH,ComponentDrill
T2C0.0350
; #@! TA.AperFunction,Plated,PTH,ComponentDrill
T3C0.0394
; #@! TA.AperFunction,Plated,PTH,ComponentDrill
T4C0.0433
; #@! TA.AperFunction,Plated,PTH,ComponentDrill
T5C0.0791
%
G90
G05
T1
X4.78Y-3.21
X4.8Y-2.45
X4.8Y-4.15
X5.695Y-2.495
X5.835Y-3.22
X5.93Y-3.9
X6.065Y-3.375
X6.13Y-3.375
X6.18Y-4.125
X6.275Y-3.375
X6.35Y-3.375
X6.51Y-3.2
X6.53Y-2.585
X6.6Y-3.9
X6.64Y-3.2
X6.87Y-3.225
X7.75Y-2.45
X7.75Y-3.15
X7.75Y-4.155
T2
X5.2748Y-3.8
X5.2748Y-3.9
X7.2815Y-3.6961
X7.2815Y-3.7961
T3
X5.1575Y-2.4827
X5.2575Y-2.4827
X5.3575Y-2.4827
X5.4575Y-2.4827
X6.1Y-2.5
X6.1Y-3.1
X6.2Y-2.5
X6.2Y-3.1
X6.3Y-2.5
X6.3Y-3.1
X6.4Y-2.5
X6.4Y-3.1
X6.5Y-2.5
X6.5Y-3.1
X6.6Y-2.5
X6.6Y-3.1
X6.7Y-2.5
X6.7Y-3.1
X6.8Y-2.5
X6.8Y-3.1
X6.9Y-2.5
X6.9Y-3.1
X7.0Y-2.5
X7.0Y-3.1
X7.1Y-2.5
X7.1Y-3.1
X7.2Y-2.5
X7.2Y-3.1
X7.3Y-2.5
X7.3Y-3.1
X7.4Y-2.5
X7.4Y-3.1
X7.5Y-2.5
X7.5Y-3.1
T4
X5.472Y-3.9
X5.472Y-4.0772
X5.728Y-3.9
X5.728Y-4.0772
X6.7Y-3.44
X6.7Y-3.6172
X6.822Y-3.9014
X6.822Y-4.0786
X6.9559Y-3.44
X6.9559Y-3.6172
X7.078Y-3.9014
X7.078Y-4.0786
T5
X5.0748Y-3.6
X5.0748Y-4.0
X7.4815Y-3.5961
X7.4815Y-3.9961
M30
