%TF.GenerationSoftware,KiCad,Pcbnew,7.0.10*%
%TF.CreationDate,2024-02-22T19:55:19+01:00*%
%TF.ProjectId,Unibias,556e6962-6961-4732-9e6b-696361645f70,rev?*%
%TF.SameCoordinates,Original*%
%TF.FileFunction,Drillmap*%
%TF.FilePolarity,Positive*%
%FSLAX45Y45*%
G04 Gerber Fmt 4.5, Leading zero omitted, Abs format (unit mm)*
G04 Created by KiCad (PCBNEW 7.0.10) date 2024-02-22 19:55:19*
%MOMM*%
%LPD*%
G01*
G04 APERTURE LIST*
%ADD10C,0.050000*%
%ADD11C,0.200000*%
G04 APERTURE END LIST*
D10*
X12065000Y-10668000D02*
X12065000Y-6096000D01*
X19812000Y-10668000D02*
X12065000Y-10668000D01*
X12065000Y-6096000D02*
X19812000Y-6096000D01*
X19812000Y-6096000D02*
X19812000Y-10668000D01*
D11*
X12323277Y-10981984D02*
X12323277Y-10781984D01*
X12323277Y-10781984D02*
X12370896Y-10781984D01*
X12370896Y-10781984D02*
X12399467Y-10791508D01*
X12399467Y-10791508D02*
X12418515Y-10810555D01*
X12418515Y-10810555D02*
X12428039Y-10829603D01*
X12428039Y-10829603D02*
X12437562Y-10867698D01*
X12437562Y-10867698D02*
X12437562Y-10896270D01*
X12437562Y-10896270D02*
X12428039Y-10934365D01*
X12428039Y-10934365D02*
X12418515Y-10953412D01*
X12418515Y-10953412D02*
X12399467Y-10972460D01*
X12399467Y-10972460D02*
X12370896Y-10981984D01*
X12370896Y-10981984D02*
X12323277Y-10981984D01*
X12523277Y-10981984D02*
X12523277Y-10848650D01*
X12523277Y-10886746D02*
X12532801Y-10867698D01*
X12532801Y-10867698D02*
X12542324Y-10858174D01*
X12542324Y-10858174D02*
X12561372Y-10848650D01*
X12561372Y-10848650D02*
X12580420Y-10848650D01*
X12647086Y-10981984D02*
X12647086Y-10848650D01*
X12647086Y-10781984D02*
X12637562Y-10791508D01*
X12637562Y-10791508D02*
X12647086Y-10801031D01*
X12647086Y-10801031D02*
X12656610Y-10791508D01*
X12656610Y-10791508D02*
X12647086Y-10781984D01*
X12647086Y-10781984D02*
X12647086Y-10801031D01*
X12770896Y-10981984D02*
X12751848Y-10972460D01*
X12751848Y-10972460D02*
X12742324Y-10953412D01*
X12742324Y-10953412D02*
X12742324Y-10781984D01*
X12875658Y-10981984D02*
X12856610Y-10972460D01*
X12856610Y-10972460D02*
X12847086Y-10953412D01*
X12847086Y-10953412D02*
X12847086Y-10781984D01*
X13104229Y-10981984D02*
X13104229Y-10781984D01*
X13104229Y-10781984D02*
X13170896Y-10924841D01*
X13170896Y-10924841D02*
X13237562Y-10781984D01*
X13237562Y-10781984D02*
X13237562Y-10981984D01*
X13418515Y-10981984D02*
X13418515Y-10877222D01*
X13418515Y-10877222D02*
X13408991Y-10858174D01*
X13408991Y-10858174D02*
X13389943Y-10848650D01*
X13389943Y-10848650D02*
X13351848Y-10848650D01*
X13351848Y-10848650D02*
X13332801Y-10858174D01*
X13418515Y-10972460D02*
X13399467Y-10981984D01*
X13399467Y-10981984D02*
X13351848Y-10981984D01*
X13351848Y-10981984D02*
X13332801Y-10972460D01*
X13332801Y-10972460D02*
X13323277Y-10953412D01*
X13323277Y-10953412D02*
X13323277Y-10934365D01*
X13323277Y-10934365D02*
X13332801Y-10915317D01*
X13332801Y-10915317D02*
X13351848Y-10905793D01*
X13351848Y-10905793D02*
X13399467Y-10905793D01*
X13399467Y-10905793D02*
X13418515Y-10896270D01*
X13513753Y-10848650D02*
X13513753Y-11048650D01*
X13513753Y-10858174D02*
X13532801Y-10848650D01*
X13532801Y-10848650D02*
X13570896Y-10848650D01*
X13570896Y-10848650D02*
X13589943Y-10858174D01*
X13589943Y-10858174D02*
X13599467Y-10867698D01*
X13599467Y-10867698D02*
X13608991Y-10886746D01*
X13608991Y-10886746D02*
X13608991Y-10943889D01*
X13608991Y-10943889D02*
X13599467Y-10962936D01*
X13599467Y-10962936D02*
X13589943Y-10972460D01*
X13589943Y-10972460D02*
X13570896Y-10981984D01*
X13570896Y-10981984D02*
X13532801Y-10981984D01*
X13532801Y-10981984D02*
X13513753Y-10972460D01*
X13694705Y-10962936D02*
X13704229Y-10972460D01*
X13704229Y-10972460D02*
X13694705Y-10981984D01*
X13694705Y-10981984D02*
X13685182Y-10972460D01*
X13685182Y-10972460D02*
X13694705Y-10962936D01*
X13694705Y-10962936D02*
X13694705Y-10981984D01*
X13694705Y-10858174D02*
X13704229Y-10867698D01*
X13704229Y-10867698D02*
X13694705Y-10877222D01*
X13694705Y-10877222D02*
X13685182Y-10867698D01*
X13685182Y-10867698D02*
X13694705Y-10858174D01*
X13694705Y-10858174D02*
X13694705Y-10877222D01*
M02*
